<svg width="18" height="18" viewBox="0 0 18 18" fill="none" xmlns="http://www.w3.org/2000/svg">
<path d="M5.60156 0.75C2.93848 0.75 0.75 2.93555 0.75 5.60156V12.3984C0.75 15.0615 2.93555 17.25 5.60156 17.25H12.3984C15.0615 17.25 17.25 15.0645 17.25 12.3984V5.60156C17.25 2.93848 15.0645 0.75 12.3984 0.75H5.60156ZM5.60156 2.25H12.3984C14.2529 2.25 15.75 3.74707 15.75 5.60156V12.3984C15.75 14.2529 14.2529 15.75 12.3984 15.75H5.60156C3.74707 15.75 2.25 14.2529 2.25 12.3984V5.60156C2.25 3.74707 3.74707 2.25 5.60156 2.25ZM13.4297 3.89062C13.0518 3.89062 12.75 4.19238 12.75 4.57031C12.75 4.94824 13.0518 5.25 13.4297 5.25C13.8076 5.25 14.1094 4.94824 14.1094 4.57031C14.1094 4.19238 13.8076 3.89062 13.4297 3.89062ZM9 4.5C6.52441 4.5 4.5 6.52441 4.5 9C4.5 11.4756 6.52441 13.5 9 13.5C11.4756 13.5 13.5 11.4756 13.5 9C13.5 6.52441 11.4756 4.5 9 4.5ZM9 6C10.667 6 12 7.33301 12 9C12 10.667 10.667 12 9 12C7.33301 12 6 10.667 6 9C6 7.33301 7.33301 6 9 6Z" fill="#11111C"/>
</svg>
