<svg width="22" height="20" viewBox="0 0 22 20" fill="none" xmlns="http://www.w3.org/2000/svg">
<g clip-path="url(#clip0_873_2672)">
<path d="M0.5 2.32323C0.5 1.64982 0.736493 1.09426 1.20946 0.656565C1.68243 0.218848 2.2973 0 3.05405 0C3.7973 0 4.39864 0.215474 4.85811 0.646464C5.33107 1.09091 5.56757 1.67002 5.56757 2.38383C5.56757 3.0303 5.33784 3.569 4.87838 3.99999C4.40541 4.44444 3.78378 4.66666 3.01351 4.66666H2.99324C2.24999 4.66666 1.64866 4.44444 1.18919 3.99999C0.729723 3.55555 0.5 2.99662 0.5 2.32323ZM0.763514 20V6.50504H5.26351V20H0.763514ZM7.75676 20H12.2568V12.4646C12.2568 11.9932 12.3108 11.6296 12.4189 11.3737C12.6081 10.9158 12.8953 10.5286 13.2804 10.2121C13.6655 9.8956 14.1486 9.73736 14.7297 9.73736C16.2432 9.73736 17 10.7542 17 12.7879V20H21.5V12.2626C21.5 10.2693 21.027 8.75756 20.0811 7.72726C19.1351 6.69696 17.8851 6.18181 16.3311 6.18181C14.5878 6.18181 13.2297 6.92928 12.2568 8.42423V8.46463H12.2365L12.2568 8.42423V6.50504H7.75676C7.78378 6.93601 7.7973 8.27607 7.7973 10.5252C7.7973 12.7744 7.78378 15.9326 7.75676 20Z" fill="#11111C"/>
</g>
<defs>
<clipPath id="clip0_873_2672">
<rect width="21" height="20" fill="white" transform="translate(0.5)"/>
</clipPath>
</defs>
</svg>
