<svg width="20" height="20" viewBox="0 0 20 20" fill="none" xmlns="http://www.w3.org/2000/svg">
<path d="M17.9586 5.79961C17.7992 4.91992 17.0398 4.2793 16.1586 4.0793C14.8398 3.79961 12.3992 3.59961 9.75859 3.59961C7.11953 3.59961 4.63984 3.79961 3.31953 4.0793C2.43984 4.2793 1.67891 4.8793 1.51953 5.79961C1.35859 6.79961 1.19922 8.19961 1.19922 9.99961C1.19922 11.7996 1.35859 13.1996 1.55859 14.1996C1.71953 15.0793 2.47891 15.7199 3.35859 15.9199C4.75859 16.1996 7.15859 16.3996 9.79922 16.3996C12.4398 16.3996 14.8398 16.1996 16.2398 15.9199C17.1195 15.7199 17.8789 15.1199 18.0398 14.1996C18.1992 13.1996 18.3992 11.759 18.4398 9.99961C18.3586 8.19961 18.1586 6.79961 17.9586 5.79961ZM7.59922 12.7996V7.19961L12.4789 9.99961L7.59922 12.7996Z" fill="#11111C"/>
</svg>
