<svg width="224" height="411" viewBox="0 0 224 411" fill="none" xmlns="http://www.w3.org/2000/svg">
<g clip-path="url(#clip0_2049_6262)">
<rect width="224" height="411" rx="10" fill="#F4F6FF"/>
<rect y="247" width="224" height="164" rx="10" fill="#11111C"/>
<path d="M22.7063 281.192C21.885 281.192 21.1703 281.043 20.5623 280.744C19.965 280.445 19.5063 280.029 19.1863 279.496C18.8663 278.952 18.7063 278.333 18.7063 277.64H19.8743C19.8743 278.109 19.981 278.541 20.1943 278.936C20.4076 279.331 20.7223 279.651 21.1383 279.896C21.5543 280.131 22.077 280.248 22.7063 280.248C23.261 280.248 23.725 280.157 24.0983 279.976C24.4823 279.784 24.7756 279.533 24.9783 279.224C25.181 278.915 25.2823 278.563 25.2823 278.168C25.2823 277.699 25.181 277.32 24.9783 277.032C24.7863 276.744 24.5196 276.509 24.1783 276.328C23.837 276.147 23.4476 275.992 23.0103 275.864C22.5836 275.725 22.1303 275.576 21.6503 275.416C20.7863 275.117 20.1516 274.749 19.7463 274.312C19.341 273.875 19.133 273.315 19.1223 272.632C19.1223 272.045 19.2556 271.528 19.5223 271.08C19.7996 270.621 20.1996 270.264 20.7223 270.008C21.245 269.741 21.8636 269.608 22.5783 269.608C23.2716 269.608 23.8743 269.741 24.3863 270.008C24.909 270.264 25.3143 270.627 25.6023 271.096C25.8903 271.555 26.0343 272.083 26.0343 272.68H24.8823C24.8823 272.339 24.7916 272.008 24.6103 271.688C24.4396 271.357 24.1783 271.091 23.8263 270.888C23.485 270.675 23.0476 270.568 22.5143 270.568C22.077 270.568 21.6876 270.648 21.3463 270.808C21.0156 270.957 20.7543 271.181 20.5623 271.48C20.3703 271.768 20.2743 272.109 20.2743 272.504C20.2743 272.888 20.3596 273.203 20.5303 273.448C20.701 273.693 20.941 273.896 21.2503 274.056C21.5596 274.216 21.9223 274.365 22.3383 274.504C22.7543 274.632 23.2183 274.781 23.7303 274.952C24.253 275.133 24.717 275.352 25.1223 275.608C25.5276 275.864 25.8476 276.195 26.0823 276.6C26.317 276.995 26.4343 277.496 26.4343 278.104C26.4343 278.627 26.2956 279.128 26.0183 279.608C25.7516 280.077 25.341 280.461 24.7863 280.76C24.2316 281.048 23.5383 281.192 22.7063 281.192ZM30.9011 281.192C30.2504 281.192 29.7064 281.075 29.2691 280.84C28.8424 280.605 28.5224 280.301 28.3091 279.928C28.1064 279.555 28.0051 279.144 28.0051 278.696C28.0051 278.141 28.1437 277.672 28.4211 277.288C28.7091 276.904 29.1091 276.616 29.6211 276.424C30.1331 276.232 30.7304 276.136 31.4131 276.136H33.5891C33.5891 275.613 33.5091 275.171 33.3491 274.808C33.1891 274.445 32.9544 274.173 32.6451 273.992C32.3357 273.8 31.9464 273.704 31.4771 273.704C30.9331 273.704 30.4637 273.843 30.0691 274.12C29.6744 274.397 29.4291 274.803 29.3331 275.336H28.1651C28.2291 274.771 28.4211 274.296 28.7411 273.912C29.0717 273.528 29.4771 273.24 29.9571 273.048C30.4371 272.845 30.9437 272.744 31.4771 272.744C32.2237 272.744 32.8317 272.888 33.3011 273.176C33.7704 273.453 34.1224 273.837 34.3571 274.328C34.5917 274.819 34.7091 275.384 34.7091 276.024V281H33.6851L33.6211 279.528C33.5251 279.752 33.3917 279.965 33.2211 280.168C33.0611 280.371 32.8691 280.547 32.6451 280.696C32.4317 280.845 32.1811 280.963 31.8931 281.048C31.6051 281.144 31.2744 281.192 30.9011 281.192ZM31.0291 280.216C31.4237 280.216 31.7757 280.136 32.0851 279.976C32.4051 279.805 32.6771 279.587 32.9011 279.32C33.1251 279.053 33.2957 278.755 33.4131 278.424C33.5304 278.083 33.5891 277.731 33.5891 277.368V277.08H31.4931C30.9277 277.08 30.4744 277.149 30.1331 277.288C29.7917 277.427 29.5464 277.613 29.3971 277.848C29.2477 278.083 29.1731 278.355 29.1731 278.664C29.1731 278.973 29.2424 279.245 29.3811 279.48C29.5197 279.704 29.7277 279.885 30.0051 280.024C30.2931 280.152 30.6344 280.216 31.0291 280.216ZM38.8806 281L35.8086 272.936H36.9766L39.5366 279.912L42.0966 272.936H43.2486L40.1606 281H38.8806ZM47.8279 281.192C47.0813 281.192 46.4199 281.016 45.8439 280.664C45.2786 280.312 44.8306 279.821 44.4999 279.192C44.1799 278.552 44.0199 277.805 44.0199 276.952C44.0199 276.099 44.1799 275.357 44.4999 274.728C44.8199 274.099 45.2679 273.613 45.8439 273.272C46.4306 272.92 47.1026 272.744 47.8599 272.744C48.6386 272.744 49.2946 272.92 49.8279 273.272C50.3719 273.624 50.7826 274.083 51.0599 274.648C51.3479 275.213 51.4919 275.832 51.4919 276.504C51.4919 276.611 51.4919 276.723 51.4919 276.84C51.4919 276.947 51.4866 277.075 51.4759 277.224H44.8679V276.28H50.4039C50.3826 275.459 50.1266 274.824 49.6359 274.376C49.1559 273.928 48.5479 273.704 47.8119 273.704C47.3319 273.704 46.8839 273.816 46.4679 274.04C46.0626 274.253 45.7319 274.573 45.4759 275C45.2306 275.416 45.1079 275.944 45.1079 276.584V277C45.1079 277.725 45.2359 278.328 45.4919 278.808C45.7479 279.288 46.0839 279.645 46.4999 279.88C46.9266 280.115 47.3693 280.232 47.8279 280.232C48.4359 280.232 48.9373 280.099 49.3319 279.832C49.7266 279.555 50.0093 279.176 50.1799 278.696H51.2839C51.1453 279.165 50.9213 279.592 50.6119 279.976C50.3133 280.36 49.9293 280.659 49.4599 280.872C48.9906 281.085 48.4466 281.192 47.8279 281.192ZM60.6433 281.192C60.0353 281.192 59.4966 281.075 59.0273 280.84C58.5686 280.595 58.2113 280.227 57.9553 279.736C57.6993 279.235 57.5713 278.595 57.5713 277.816V272.936H58.6913V277.688C58.6913 278.541 58.878 279.176 59.2513 279.592C59.6353 280.008 60.1633 280.216 60.8353 280.216C61.3153 280.216 61.742 280.104 62.1153 279.88C62.4993 279.656 62.798 279.325 63.0113 278.888C63.2353 278.44 63.3473 277.896 63.3473 277.256V272.936H64.4673V281H63.4433L63.3793 279.56C63.1233 280.083 62.75 280.488 62.2593 280.776C61.7793 281.053 61.2406 281.192 60.6433 281.192ZM66.7469 284.52V272.936H67.7709L67.8669 274.392C68.0376 274.104 68.2616 273.837 68.5389 273.592C68.8163 273.336 69.1469 273.133 69.5309 272.984C69.9256 272.824 70.3736 272.744 70.8749 272.744C71.6536 272.744 72.3309 272.931 72.9069 273.304C73.4936 273.677 73.9469 274.184 74.2669 274.824C74.5869 275.453 74.7469 276.173 74.7469 276.984C74.7469 277.795 74.5816 278.52 74.2509 279.16C73.9309 279.789 73.4829 280.285 72.9069 280.648C72.3309 281.011 71.6483 281.192 70.8589 281.192C70.1763 281.192 69.5736 281.048 69.0509 280.76C68.5389 280.461 68.1443 280.045 67.8669 279.512V284.52H66.7469ZM70.7789 280.216C71.3336 280.216 71.8189 280.083 72.2349 279.816C72.6616 279.549 72.9976 279.176 73.2429 278.696C73.4883 278.205 73.6109 277.629 73.6109 276.968C73.6109 276.317 73.4883 275.747 73.2429 275.256C72.9976 274.765 72.6616 274.387 72.2349 274.12C71.8189 273.853 71.3336 273.72 70.7789 273.72C70.2243 273.72 69.7283 273.853 69.2909 274.12C68.8643 274.387 68.5283 274.765 68.2829 275.256C68.0483 275.736 67.9309 276.307 67.9309 276.968C67.9309 277.619 68.0483 278.189 68.2829 278.68C68.5283 279.171 68.8643 279.549 69.2909 279.816C69.7283 280.083 70.2243 280.216 70.7789 280.216ZM84.1311 281C83.6724 281 83.2777 280.931 82.9471 280.792C82.6164 280.643 82.3604 280.403 82.1791 280.072C82.0084 279.731 81.9231 279.267 81.9231 278.68V273.896H80.5151V272.936H81.9231L82.0831 271.064H83.0431V272.952H85.4591V273.896H83.0431V278.68C83.0431 279.213 83.1497 279.576 83.3631 279.768C83.5764 279.949 83.9551 280.04 84.4991 280.04H85.3311V281H84.1311ZM90.5333 281.192C89.7973 281.192 89.1306 281.021 88.5333 280.68C87.9466 280.328 87.4826 279.837 87.1413 279.208C86.8 278.568 86.6293 277.827 86.6293 276.984C86.6293 276.109 86.8 275.357 87.1413 274.728C87.4933 274.099 87.968 273.613 88.5653 273.272C89.1626 272.92 89.8293 272.744 90.5653 272.744C91.3333 272.744 92.0106 272.92 92.5973 273.272C93.184 273.613 93.648 274.099 93.9893 274.728C94.3306 275.357 94.5013 276.109 94.5013 276.984C94.5013 277.827 94.3253 278.568 93.9733 279.208C93.632 279.837 93.1626 280.328 92.5653 280.68C91.9786 281.021 91.3013 281.192 90.5333 281.192ZM90.5493 280.232C91.0506 280.232 91.5093 280.109 91.9253 279.864C92.352 279.619 92.6933 279.256 92.9493 278.776C93.216 278.285 93.3493 277.683 93.3493 276.968C93.3493 276.243 93.2213 275.64 92.9653 275.16C92.7093 274.68 92.368 274.323 91.9413 274.088C91.5253 273.843 91.0666 273.72 90.5653 273.72C90.0853 273.72 89.632 273.843 89.2053 274.088C88.7786 274.333 88.432 274.696 88.1653 275.176C87.9093 275.645 87.7813 276.243 87.7813 276.968C87.7813 277.683 87.9093 278.285 88.1653 278.776C88.4213 279.256 88.7573 279.619 89.1733 279.864C89.6 280.109 90.0586 280.232 90.5493 280.232Z" fill="white"/>
<path d="M29.7003 325V320.71H19.1703V318.37L29.2203 304H32.6703V318.1H35.6703V320.71H32.6703V325H29.7003ZM22.4403 318.1H29.8803V307.3L22.4403 318.1ZM46.9831 325.36C45.1231 325.36 43.5231 324.91 42.1831 324.01C40.8431 323.09 39.8131 321.82 39.0931 320.2C38.3731 318.56 38.0131 316.66 38.0131 314.5C38.0131 312.34 38.3731 310.45 39.0931 308.83C39.8131 307.19 40.8431 305.92 42.1831 305.02C43.5231 304.1 45.1231 303.64 46.9831 303.64C48.8431 303.64 50.4331 304.1 51.7531 305.02C53.0931 305.92 54.1131 307.19 54.8131 308.83C55.5331 310.45 55.8931 312.34 55.8931 314.5C55.8931 316.66 55.5331 318.56 54.8131 320.2C54.1131 321.82 53.0931 323.09 51.7531 324.01C50.4331 324.91 48.8431 325.36 46.9831 325.36ZM46.9831 322.69C48.1031 322.69 49.1031 322.36 49.9831 321.7C50.8831 321.04 51.5831 320.1 52.0831 318.88C52.5831 317.66 52.8331 316.2 52.8331 314.5C52.8331 312.8 52.5831 311.34 52.0831 310.12C51.5831 308.9 50.8831 307.97 49.9831 307.33C49.1031 306.67 48.1031 306.34 46.9831 306.34C45.8431 306.34 44.8231 306.67 43.9231 307.33C43.0231 307.97 42.3231 308.9 41.8231 310.12C41.3231 311.34 41.0731 312.8 41.0731 314.5C41.0731 316.2 41.3231 317.66 41.8231 318.88C42.3231 320.1 43.0231 321.04 43.9231 321.7C44.8231 322.36 45.8431 322.69 46.9831 322.69ZM62.056 325L74.116 304H77.086L65.026 325H62.056ZM75.856 325.36C74.916 325.36 74.076 325.15 73.336 324.73C72.596 324.31 72.006 323.72 71.566 322.96C71.126 322.18 70.906 321.27 70.906 320.23C70.906 319.15 71.126 318.23 71.566 317.47C72.006 316.71 72.596 316.12 73.336 315.7C74.076 315.28 74.906 315.07 75.826 315.07C76.786 315.07 77.626 315.28 78.346 315.7C79.086 316.12 79.666 316.71 80.086 317.47C80.526 318.23 80.746 319.15 80.746 320.23C80.746 321.27 80.526 322.18 80.086 322.96C79.666 323.72 79.086 324.31 78.346 324.73C77.606 325.15 76.776 325.36 75.856 325.36ZM75.796 323.14C76.256 323.14 76.666 323.03 77.026 322.81C77.406 322.59 77.706 322.27 77.926 321.85C78.166 321.41 78.286 320.86 78.286 320.2C78.286 319.54 78.176 319 77.956 318.58C77.736 318.14 77.436 317.81 77.056 317.59C76.696 317.37 76.286 317.26 75.826 317.26C75.406 317.26 75.006 317.37 74.626 317.59C74.246 317.81 73.936 318.14 73.696 318.58C73.476 319 73.366 319.54 73.366 320.2C73.366 320.86 73.476 321.41 73.696 321.85C73.936 322.27 74.236 322.59 74.596 322.81C74.976 323.03 75.376 323.14 75.796 323.14ZM63.496 313.96C62.576 313.96 61.746 313.75 61.006 313.33C60.266 312.91 59.666 312.32 59.206 311.56C58.766 310.78 58.546 309.86 58.546 308.8C58.546 307.74 58.766 306.83 59.206 306.07C59.666 305.31 60.266 304.72 61.006 304.3C61.766 303.88 62.606 303.67 63.526 303.67C64.446 303.67 65.276 303.88 66.016 304.3C66.756 304.72 67.336 305.31 67.756 306.07C68.196 306.83 68.416 307.74 68.416 308.8C68.416 309.86 68.196 310.78 67.756 311.56C67.336 312.32 66.746 312.91 65.986 313.33C65.246 313.75 64.416 313.96 63.496 313.96ZM63.496 311.74C63.936 311.74 64.336 311.63 64.696 311.41C65.076 311.19 65.376 310.87 65.596 310.45C65.816 310.01 65.926 309.46 65.926 308.8C65.926 308.14 65.816 307.59 65.596 307.15C65.376 306.71 65.076 306.38 64.696 306.16C64.336 305.94 63.946 305.83 63.526 305.83C63.086 305.83 62.666 305.94 62.266 306.16C61.886 306.38 61.576 306.71 61.336 307.15C61.116 307.59 61.006 308.14 61.006 308.8C61.006 309.44 61.116 309.98 61.336 310.42C61.576 310.86 61.886 311.19 62.266 311.41C62.646 311.63 63.056 311.74 63.496 311.74Z" fill="white"/>
<path opacity="0.8" d="M22.5623 352.168C22.1516 352.168 21.7736 352.107 21.4283 351.986C21.0923 351.855 20.7983 351.683 20.5463 351.468C20.2943 351.244 20.0936 350.992 19.9443 350.712L19.8603 352H18.9643V341.92H19.9443V346.218C20.1776 345.817 20.5136 345.476 20.9523 345.196C21.391 344.916 21.9276 344.776 22.5623 344.776C23.253 344.776 23.855 344.939 24.3683 345.266C24.8816 345.583 25.2736 346.022 25.5443 346.582C25.8243 347.133 25.9643 347.763 25.9643 348.472C25.9643 349.181 25.8243 349.816 25.5443 350.376C25.2643 350.936 24.8676 351.375 24.3543 351.692C23.8503 352.009 23.253 352.168 22.5623 352.168ZM22.4923 351.314C22.987 351.314 23.4163 351.197 23.7803 350.964C24.1443 350.731 24.4336 350.399 24.6483 349.97C24.863 349.541 24.9703 349.041 24.9703 348.472C24.9703 347.893 24.863 347.394 24.6483 346.974C24.4336 346.545 24.1396 346.213 23.7663 345.98C23.4023 345.747 22.9776 345.63 22.4923 345.63C22.007 345.63 21.573 345.747 21.1903 345.98C20.817 346.213 20.523 346.545 20.3083 346.974C20.103 347.403 20.0003 347.903 20.0003 348.472C20.0003 349.051 20.103 349.555 20.3083 349.984C20.523 350.404 20.817 350.731 21.1903 350.964C21.573 351.197 22.007 351.314 22.4923 351.314ZM27.8407 355.08L29.5767 351.216H29.1987L26.4127 344.944H27.4767L29.8847 350.544L32.4187 344.944H33.4267L28.8627 355.08H27.8407ZM40.8238 352.168C40.2544 352.168 39.7784 352.065 39.3958 351.86C39.0224 351.655 38.7424 351.389 38.5558 351.062C38.3784 350.735 38.2898 350.376 38.2898 349.984C38.2898 349.499 38.4111 349.088 38.6538 348.752C38.9058 348.416 39.2558 348.164 39.7038 347.996C40.1518 347.828 40.6744 347.744 41.2718 347.744H43.1758C43.1758 347.287 43.1058 346.899 42.9658 346.582C42.8258 346.265 42.6204 346.027 42.3498 345.868C42.0791 345.7 41.7384 345.616 41.3278 345.616C40.8518 345.616 40.4411 345.737 40.0958 345.98C39.7504 346.223 39.5358 346.577 39.4518 347.044H38.4298C38.4858 346.549 38.6538 346.134 38.9338 345.798C39.2231 345.462 39.5778 345.21 39.9978 345.042C40.4178 344.865 40.8611 344.776 41.3278 344.776C41.9811 344.776 42.5131 344.902 42.9238 345.154C43.3344 345.397 43.6424 345.733 43.8478 346.162C44.0531 346.591 44.1558 347.086 44.1558 347.646V352H43.2598L43.2038 350.712C43.1198 350.908 43.0031 351.095 42.8538 351.272C42.7138 351.449 42.5458 351.603 42.3498 351.734C42.1631 351.865 41.9438 351.967 41.6918 352.042C41.4398 352.126 41.1504 352.168 40.8238 352.168ZM40.9358 351.314C41.2811 351.314 41.5891 351.244 41.8598 351.104C42.1398 350.955 42.3778 350.763 42.5738 350.53C42.7698 350.297 42.9191 350.035 43.0218 349.746C43.1244 349.447 43.1758 349.139 43.1758 348.822V348.57H41.3418C40.8471 348.57 40.4504 348.631 40.1518 348.752C39.8531 348.873 39.6384 349.037 39.5078 349.242C39.3771 349.447 39.3118 349.685 39.3118 349.956C39.3118 350.227 39.3724 350.465 39.4938 350.67C39.6151 350.866 39.7971 351.025 40.0398 351.146C40.2918 351.258 40.5904 351.314 40.9358 351.314ZM48.5553 352.168C48.0233 352.168 47.5519 352.065 47.1413 351.86C46.7399 351.645 46.4273 351.323 46.2033 350.894C45.9793 350.455 45.8673 349.895 45.8673 349.214V344.944H46.8473V349.102C46.8473 349.849 47.0106 350.404 47.3373 350.768C47.6733 351.132 48.1353 351.314 48.7233 351.314C49.1433 351.314 49.5166 351.216 49.8433 351.02C50.1793 350.824 50.4406 350.535 50.6273 350.152C50.8233 349.76 50.9213 349.284 50.9213 348.724V344.944H51.9013V352H51.0053L50.9493 350.74C50.7253 351.197 50.3986 351.552 49.9693 351.804C49.5493 352.047 49.0779 352.168 48.5553 352.168ZM56.5699 352C56.1686 352 55.8233 351.939 55.5339 351.818C55.2446 351.687 55.0206 351.477 54.8619 351.188C54.7126 350.889 54.6379 350.483 54.6379 349.97V345.784H53.4059V344.944H54.6379L54.7779 343.306H55.6179V344.958H57.7319V345.784H55.6179V349.97C55.6179 350.437 55.7113 350.754 55.8979 350.922C56.0846 351.081 56.4159 351.16 56.8919 351.16H57.6199V352H56.5699ZM62.1719 352.168C61.5279 352.168 60.9446 352.019 60.4219 351.72C59.9086 351.412 59.5026 350.983 59.2039 350.432C58.9052 349.872 58.7559 349.223 58.7559 348.486C58.7559 347.721 58.9052 347.063 59.2039 346.512C59.5119 345.961 59.9272 345.537 60.4499 345.238C60.9726 344.93 61.5559 344.776 62.1999 344.776C62.8719 344.776 63.4646 344.93 63.9779 345.238C64.4912 345.537 64.8972 345.961 65.1959 346.512C65.4946 347.063 65.6439 347.721 65.6439 348.486C65.6439 349.223 65.4899 349.872 65.1819 350.432C64.8832 350.983 64.4726 351.412 63.9499 351.72C63.4366 352.019 62.8439 352.168 62.1719 352.168ZM62.1859 351.328C62.6246 351.328 63.0259 351.221 63.3899 351.006C63.7632 350.791 64.0619 350.474 64.2859 350.054C64.5192 349.625 64.6359 349.097 64.6359 348.472C64.6359 347.837 64.5239 347.31 64.2999 346.89C64.0759 346.47 63.7772 346.157 63.4039 345.952C63.0399 345.737 62.6386 345.63 62.1999 345.63C61.7799 345.63 61.3832 345.737 61.0099 345.952C60.6366 346.167 60.3332 346.484 60.0999 346.904C59.8759 347.315 59.7639 347.837 59.7639 348.472C59.7639 349.097 59.8759 349.625 60.0999 350.054C60.3239 350.474 60.6179 350.791 60.9819 351.006C61.3552 351.221 61.7566 351.328 62.1859 351.328ZM67.3217 352V344.944H68.2177L68.2877 346.008C68.5024 345.616 68.8011 345.313 69.1837 345.098C69.5664 344.883 69.9911 344.776 70.4577 344.776C70.8031 344.776 71.1251 344.827 71.4237 344.93C71.7224 345.033 71.9837 345.187 72.2077 345.392C72.4411 345.597 72.6231 345.863 72.7537 346.19C72.9871 345.751 73.3137 345.406 73.7337 345.154C74.1631 344.902 74.6204 344.776 75.1057 344.776C75.6471 344.776 76.1137 344.883 76.5057 345.098C76.9071 345.313 77.2197 345.639 77.4437 346.078C77.6677 346.517 77.7797 347.072 77.7797 347.744V352H76.7997V347.856C76.7997 347.109 76.6457 346.554 76.3377 346.19C76.0297 345.817 75.6004 345.63 75.0497 345.63C74.6764 345.63 74.3357 345.733 74.0277 345.938C73.7197 346.134 73.4771 346.423 73.2997 346.806C73.1224 347.179 73.0337 347.646 73.0337 348.206V352H72.0537V347.856C72.0537 347.109 71.8997 346.554 71.5917 346.19C71.2931 345.817 70.8684 345.63 70.3177 345.63C69.9351 345.63 69.5897 345.733 69.2817 345.938C68.9831 346.134 68.7451 346.428 68.5677 346.82C68.3904 347.203 68.3017 347.679 68.3017 348.248V352H67.3217ZM81.8804 352.168C81.3111 352.168 80.8351 352.065 80.4524 351.86C80.0791 351.655 79.7991 351.389 79.6124 351.062C79.4351 350.735 79.3464 350.376 79.3464 349.984C79.3464 349.499 79.4677 349.088 79.7104 348.752C79.9624 348.416 80.3124 348.164 80.7604 347.996C81.2084 347.828 81.7311 347.744 82.3284 347.744H84.2324C84.2324 347.287 84.1624 346.899 84.0224 346.582C83.8824 346.265 83.6771 346.027 83.4064 345.868C83.1357 345.7 82.7951 345.616 82.3844 345.616C81.9084 345.616 81.4977 345.737 81.1524 345.98C80.8071 346.223 80.5924 346.577 80.5084 347.044H79.4864C79.5424 346.549 79.7104 346.134 79.9904 345.798C80.2797 345.462 80.6344 345.21 81.0544 345.042C81.4744 344.865 81.9177 344.776 82.3844 344.776C83.0377 344.776 83.5697 344.902 83.9804 345.154C84.3911 345.397 84.6991 345.733 84.9044 346.162C85.1097 346.591 85.2124 347.086 85.2124 347.646V352H84.3164L84.2604 350.712C84.1764 350.908 84.0597 351.095 83.9104 351.272C83.7704 351.449 83.6024 351.603 83.4064 351.734C83.2197 351.865 83.0004 351.967 82.7484 352.042C82.4964 352.126 82.2071 352.168 81.8804 352.168ZM81.9924 351.314C82.3377 351.314 82.6457 351.244 82.9164 351.104C83.1964 350.955 83.4344 350.763 83.6304 350.53C83.8264 350.297 83.9757 350.035 84.0784 349.746C84.1811 349.447 84.2324 349.139 84.2324 348.822V348.57H82.3984C81.9037 348.57 81.5071 348.631 81.2084 348.752C80.9097 348.873 80.6951 349.037 80.5644 349.242C80.4337 349.447 80.3684 349.685 80.3684 349.956C80.3684 350.227 80.4291 350.465 80.5504 350.67C80.6717 350.866 80.8537 351.025 81.0964 351.146C81.3484 351.258 81.6471 351.314 81.9924 351.314ZM89.5192 352C89.1178 352 88.7725 351.939 88.4832 351.818C88.1938 351.687 87.9698 351.477 87.8112 351.188C87.6618 350.889 87.5872 350.483 87.5872 349.97V345.784H86.3552V344.944H87.5872L87.7272 343.306H88.5672V344.958H90.6812V345.784H88.5672V349.97C88.5672 350.437 88.6605 350.754 88.8472 350.922C89.0338 351.081 89.3652 351.16 89.8412 351.16H90.5692V352H89.5192ZM92.3445 352V344.944H93.3105V352H92.3445ZM92.8345 343.278C92.6385 343.278 92.4705 343.213 92.3305 343.082C92.1905 342.942 92.1205 342.769 92.1205 342.564C92.1205 342.349 92.1859 342.181 92.3165 342.06C92.4565 341.929 92.6245 341.864 92.8205 341.864C93.0165 341.864 93.1845 341.929 93.3245 342.06C93.4645 342.181 93.5345 342.349 93.5345 342.564C93.5345 342.769 93.4645 342.942 93.3245 343.082C93.1939 343.213 93.0305 343.278 92.8345 343.278ZM95.4448 352V344.944H96.3408L96.3968 346.204C96.6208 345.756 96.9428 345.406 97.3628 345.154C97.7921 344.902 98.2681 344.776 98.7908 344.776C99.3321 344.776 99.8034 344.883 100.205 345.098C100.606 345.313 100.919 345.639 101.143 346.078C101.367 346.507 101.479 347.058 101.479 347.73V352H100.499V347.842C100.499 347.095 100.335 346.54 100.009 346.176C99.6821 345.812 99.2154 345.63 98.6088 345.63C98.1981 345.63 97.8248 345.733 97.4888 345.938C97.1621 346.134 96.9008 346.423 96.7048 346.806C96.5181 347.189 96.4248 347.66 96.4248 348.22V352H95.4448ZM106.063 355.248C105.438 355.248 104.883 355.164 104.397 354.996C103.921 354.828 103.543 354.576 103.263 354.24C102.993 353.904 102.857 353.489 102.857 352.994C102.857 352.798 102.89 352.583 102.955 352.35C103.03 352.126 103.17 351.897 103.375 351.664C103.581 351.431 103.87 351.221 104.243 351.034L105.041 351.384C104.547 351.617 104.225 351.869 104.075 352.14C103.926 352.42 103.851 352.672 103.851 352.896C103.851 353.232 103.945 353.512 104.131 353.736C104.327 353.96 104.589 354.128 104.915 354.24C105.251 354.361 105.634 354.422 106.063 354.422C106.493 354.422 106.861 354.357 107.169 354.226C107.487 354.105 107.729 353.927 107.897 353.694C108.065 353.47 108.149 353.209 108.149 352.91C108.149 352.565 108.014 352.271 107.743 352.028C107.482 351.795 106.992 351.659 106.273 351.622C105.704 351.585 105.233 351.538 104.859 351.482C104.495 351.417 104.192 351.342 103.949 351.258C103.716 351.165 103.52 351.067 103.361 350.964C103.212 350.861 103.067 350.749 102.927 350.628V350.306L104.271 349.032L105.167 349.354L103.851 350.53L103.935 350.152C104.038 350.227 104.136 350.297 104.229 350.362C104.332 350.427 104.463 350.483 104.621 350.53C104.789 350.567 105.018 350.609 105.307 350.656C105.606 350.693 106.007 350.731 106.511 350.768C107.155 350.815 107.669 350.927 108.051 351.104C108.434 351.281 108.714 351.519 108.891 351.818C109.069 352.117 109.157 352.467 109.157 352.868C109.157 353.269 109.045 353.652 108.821 354.016C108.607 354.38 108.271 354.674 107.813 354.898C107.365 355.131 106.782 355.248 106.063 355.248ZM106.049 349.76C105.452 349.76 104.948 349.648 104.537 349.424C104.136 349.2 103.828 348.901 103.613 348.528C103.399 348.145 103.291 347.725 103.291 347.268C103.291 346.801 103.399 346.381 103.613 346.008C103.828 345.635 104.141 345.336 104.551 345.112C104.962 344.888 105.461 344.776 106.049 344.776C106.647 344.776 107.146 344.888 107.547 345.112C107.958 345.336 108.266 345.635 108.471 346.008C108.686 346.381 108.793 346.801 108.793 347.268C108.793 347.725 108.686 348.145 108.471 348.528C108.266 348.901 107.958 349.2 107.547 349.424C107.146 349.648 106.647 349.76 106.049 349.76ZM106.049 348.92C106.591 348.92 107.015 348.78 107.323 348.5C107.641 348.211 107.799 347.8 107.799 347.268C107.799 346.727 107.641 346.316 107.323 346.036C107.015 345.756 106.591 345.616 106.049 345.616C105.508 345.616 105.074 345.756 104.747 346.036C104.43 346.316 104.271 346.727 104.271 347.268C104.271 347.8 104.43 348.211 104.747 348.5C105.065 348.78 105.499 348.92 106.049 348.92ZM107.197 345.826L106.847 344.944H109.703V345.742L107.197 345.826ZM114.914 355.08V344.944H115.81L115.894 346.218C116.043 345.966 116.239 345.733 116.482 345.518C116.724 345.294 117.014 345.117 117.35 344.986C117.695 344.846 118.087 344.776 118.526 344.776C119.207 344.776 119.8 344.939 120.304 345.266C120.817 345.593 121.214 346.036 121.494 346.596C121.774 347.147 121.914 347.777 121.914 348.486C121.914 349.195 121.769 349.83 121.48 350.39C121.2 350.941 120.808 351.375 120.304 351.692C119.8 352.009 119.202 352.168 118.512 352.168C117.914 352.168 117.387 352.042 116.93 351.79C116.482 351.529 116.136 351.165 115.894 350.698V355.08H114.914ZM118.442 351.314C118.927 351.314 119.352 351.197 119.716 350.964C120.089 350.731 120.383 350.404 120.598 349.984C120.812 349.555 120.92 349.051 120.92 348.472C120.92 347.903 120.812 347.403 120.598 346.974C120.383 346.545 120.089 346.213 119.716 345.98C119.352 345.747 118.927 345.63 118.442 345.63C117.956 345.63 117.522 345.747 117.14 345.98C116.766 346.213 116.472 346.545 116.258 346.974C116.052 347.394 115.95 347.893 115.95 348.472C115.95 349.041 116.052 349.541 116.258 349.97C116.472 350.399 116.766 350.731 117.14 350.964C117.522 351.197 117.956 351.314 118.442 351.314ZM123.595 352V344.944H124.491L124.561 346.302C124.71 345.975 124.911 345.7 125.163 345.476C125.415 345.252 125.718 345.079 126.073 344.958C126.428 344.837 126.829 344.776 127.277 344.776V345.798H126.899C126.6 345.798 126.311 345.84 126.031 345.924C125.751 345.999 125.504 346.129 125.289 346.316C125.074 346.503 124.902 346.755 124.771 347.072C124.64 347.389 124.575 347.786 124.575 348.262V352H123.595ZM131.461 352.168C130.817 352.168 130.234 352.019 129.711 351.72C129.198 351.412 128.792 350.983 128.493 350.432C128.194 349.872 128.045 349.223 128.045 348.486C128.045 347.721 128.194 347.063 128.493 346.512C128.801 345.961 129.216 345.537 129.739 345.238C130.262 344.93 130.845 344.776 131.489 344.776C132.161 344.776 132.754 344.93 133.267 345.238C133.78 345.537 134.186 345.961 134.485 346.512C134.784 347.063 134.933 347.721 134.933 348.486C134.933 349.223 134.779 349.872 134.471 350.432C134.172 350.983 133.762 351.412 133.239 351.72C132.726 352.019 132.133 352.168 131.461 352.168ZM131.475 351.328C131.914 351.328 132.315 351.221 132.679 351.006C133.052 350.791 133.351 350.474 133.575 350.054C133.808 349.625 133.925 349.097 133.925 348.472C133.925 347.837 133.813 347.31 133.589 346.89C133.365 346.47 133.066 346.157 132.693 345.952C132.329 345.737 131.928 345.63 131.489 345.63C131.069 345.63 130.672 345.737 130.299 345.952C129.926 346.167 129.622 346.484 129.389 346.904C129.165 347.315 129.053 347.837 129.053 348.472C129.053 349.097 129.165 349.625 129.389 350.054C129.613 350.474 129.907 350.791 130.271 351.006C130.644 351.221 131.046 351.328 131.475 351.328ZM136.611 355.08V344.944H137.507L137.591 346.218C137.74 345.966 137.936 345.733 138.179 345.518C138.421 345.294 138.711 345.117 139.047 344.986C139.392 344.846 139.784 344.776 140.223 344.776C140.904 344.776 141.497 344.939 142.001 345.266C142.514 345.593 142.911 346.036 143.191 346.596C143.471 347.147 143.611 347.777 143.611 348.486C143.611 349.195 143.466 349.83 143.177 350.39C142.897 350.941 142.505 351.375 142.001 351.692C141.497 352.009 140.899 352.168 140.209 352.168C139.611 352.168 139.084 352.042 138.627 351.79C138.179 351.529 137.833 351.165 137.591 350.698V355.08H136.611ZM140.139 351.314C140.624 351.314 141.049 351.197 141.413 350.964C141.786 350.731 142.08 350.404 142.295 349.984C142.509 349.555 142.617 349.051 142.617 348.472C142.617 347.903 142.509 347.403 142.295 346.974C142.08 346.545 141.786 346.213 141.413 345.98C141.049 345.747 140.624 345.63 140.139 345.63C139.653 345.63 139.219 345.747 138.837 345.98C138.463 346.213 138.169 346.545 137.955 346.974C137.749 347.394 137.647 347.893 137.647 348.472C137.647 349.041 137.749 349.541 137.955 349.97C138.169 350.399 138.463 350.731 138.837 350.964C139.219 351.197 139.653 351.314 140.139 351.314ZM148.316 352.168C147.663 352.168 147.084 352.014 146.58 351.706C146.086 351.398 145.694 350.969 145.404 350.418C145.124 349.858 144.984 349.205 144.984 348.458C144.984 347.711 145.124 347.063 145.404 346.512C145.684 345.961 146.076 345.537 146.58 345.238C147.094 344.93 147.682 344.776 148.344 344.776C149.026 344.776 149.6 344.93 150.066 345.238C150.542 345.546 150.902 345.947 151.144 346.442C151.396 346.937 151.522 347.478 151.522 348.066C151.522 348.159 151.522 348.257 151.522 348.36C151.522 348.453 151.518 348.565 151.508 348.696H145.726V347.87H150.57C150.552 347.151 150.328 346.596 149.898 346.204C149.478 345.812 148.946 345.616 148.302 345.616C147.882 345.616 147.49 345.714 147.126 345.91C146.772 346.097 146.482 346.377 146.258 346.75C146.044 347.114 145.936 347.576 145.936 348.136V348.5C145.936 349.135 146.048 349.662 146.272 350.082C146.496 350.502 146.79 350.815 147.154 351.02C147.528 351.225 147.915 351.328 148.316 351.328C148.848 351.328 149.287 351.211 149.632 350.978C149.978 350.735 150.225 350.404 150.374 349.984H151.34C151.219 350.395 151.023 350.768 150.752 351.104C150.491 351.44 150.155 351.701 149.744 351.888C149.334 352.075 148.858 352.168 148.316 352.168ZM153.126 352V344.944H154.022L154.092 346.302C154.242 345.975 154.442 345.7 154.694 345.476C154.946 345.252 155.25 345.079 155.604 344.958C155.959 344.837 156.36 344.776 156.808 344.776V345.798H156.43C156.132 345.798 155.842 345.84 155.562 345.924C155.282 345.999 155.035 346.129 154.82 346.316C154.606 346.503 154.433 346.755 154.302 347.072C154.172 347.389 154.106 347.786 154.106 348.262V352H153.126ZM160.859 352C160.458 352 160.112 351.939 159.823 351.818C159.534 351.687 159.31 351.477 159.151 351.188C159.002 350.889 158.927 350.483 158.927 349.97V345.784H157.695V344.944H158.927L159.067 343.306H159.907V344.958H162.021V345.784H159.907V349.97C159.907 350.437 160 350.754 160.187 350.922C160.374 351.081 160.705 351.16 161.181 351.16H161.909V352H160.859ZM164.272 355.08L166.008 351.216H165.63L162.844 344.944H163.908L166.316 350.544L168.85 344.944H169.858L165.294 355.08H164.272ZM175.001 352V341.92H175.981V352H175.001ZM178.108 352V344.944H179.074V352H178.108ZM178.598 343.278C178.402 343.278 178.234 343.213 178.094 343.082C177.954 342.942 177.884 342.769 177.884 342.564C177.884 342.349 177.95 342.181 178.08 342.06C178.22 341.929 178.388 341.864 178.584 341.864C178.78 341.864 178.948 341.929 179.088 342.06C179.228 342.181 179.298 342.349 179.298 342.564C179.298 342.769 179.228 342.942 179.088 343.082C178.958 343.213 178.794 343.278 178.598 343.278ZM183.798 352.168C183.238 352.168 182.744 352.075 182.314 351.888C181.894 351.701 181.554 351.435 181.292 351.09C181.04 350.735 180.886 350.315 180.83 349.83H181.838C181.894 350.101 182.002 350.348 182.16 350.572C182.328 350.796 182.552 350.978 182.832 351.118C183.112 351.249 183.444 351.314 183.826 351.314C184.181 351.314 184.47 351.263 184.694 351.16C184.928 351.048 185.1 350.903 185.212 350.726C185.334 350.539 185.394 350.334 185.394 350.11C185.394 349.802 185.32 349.564 185.17 349.396C185.03 349.219 184.825 349.088 184.554 349.004C184.284 348.92 183.957 348.841 183.574 348.766C183.257 348.71 182.954 348.635 182.664 348.542C182.375 348.449 182.114 348.327 181.88 348.178C181.656 348.029 181.479 347.842 181.348 347.618C181.218 347.385 181.152 347.114 181.152 346.806C181.152 346.405 181.25 346.055 181.446 345.756C181.652 345.448 181.941 345.21 182.314 345.042C182.688 344.865 183.126 344.776 183.63 344.776C184.349 344.776 184.937 344.958 185.394 345.322C185.852 345.677 186.118 346.199 186.192 346.89H185.212C185.175 346.507 185.016 346.204 184.736 345.98C184.456 345.756 184.078 345.644 183.602 345.644C183.136 345.644 182.776 345.742 182.524 345.938C182.282 346.125 182.16 346.381 182.16 346.708C182.16 346.913 182.226 347.091 182.356 347.24C182.487 347.389 182.678 347.52 182.93 347.632C183.192 347.735 183.509 347.823 183.882 347.898C184.33 347.982 184.741 348.094 185.114 348.234C185.497 348.365 185.805 348.57 186.038 348.85C186.281 349.121 186.402 349.508 186.402 350.012C186.412 350.432 186.309 350.805 186.094 351.132C185.88 351.459 185.576 351.715 185.184 351.902C184.792 352.079 184.33 352.168 183.798 352.168ZM190.472 352C190.071 352 189.726 351.939 189.436 351.818C189.147 351.687 188.923 351.477 188.764 351.188C188.615 350.889 188.54 350.483 188.54 349.97V345.784H187.308V344.944H188.54L188.68 343.306H189.52V344.958H191.634V345.784H189.52V349.97C189.52 350.437 189.614 350.754 189.8 350.922C189.987 351.081 190.318 351.16 190.794 351.16H191.522V352H190.472ZM193.298 352V344.944H194.264V352H193.298ZM193.788 343.278C193.592 343.278 193.424 343.213 193.284 343.082C193.144 342.942 193.074 342.769 193.074 342.564C193.074 342.349 193.139 342.181 193.27 342.06C193.41 341.929 193.578 341.864 193.774 341.864C193.97 341.864 194.138 341.929 194.278 342.06C194.418 342.181 194.488 342.349 194.488 342.564C194.488 342.769 194.418 342.942 194.278 343.082C194.147 343.213 193.984 343.278 193.788 343.278ZM196.398 352V344.944H197.294L197.35 346.204C197.574 345.756 197.896 345.406 198.316 345.154C198.745 344.902 199.221 344.776 199.744 344.776C200.285 344.776 200.757 344.883 201.158 345.098C201.559 345.313 201.872 345.639 202.096 346.078C202.32 346.507 202.432 347.058 202.432 347.73V352H201.452V347.842C201.452 347.095 201.289 346.54 200.962 346.176C200.635 345.812 200.169 345.63 199.562 345.63C199.151 345.63 198.778 345.733 198.442 345.938C198.115 346.134 197.854 346.423 197.658 346.806C197.471 347.189 197.378 347.66 197.378 348.22V352H196.398ZM207.017 355.248C206.391 355.248 205.836 355.164 205.351 354.996C204.875 354.828 204.497 354.576 204.217 354.24C203.946 353.904 203.811 353.489 203.811 352.994C203.811 352.798 203.843 352.583 203.909 352.35C203.983 352.126 204.123 351.897 204.329 351.664C204.534 351.431 204.823 351.221 205.197 351.034L205.995 351.384C205.5 351.617 205.178 351.869 205.029 352.14C204.879 352.42 204.805 352.672 204.805 352.896C204.805 353.232 204.898 353.512 205.085 353.736C205.281 353.96 205.542 354.128 205.869 354.24C206.205 354.361 206.587 354.422 207.017 354.422C207.446 354.422 207.815 354.357 208.123 354.226C208.44 354.105 208.683 353.927 208.851 353.694C209.019 353.47 209.103 353.209 209.103 352.91C209.103 352.565 208.967 352.271 208.697 352.028C208.435 351.795 207.945 351.659 207.227 351.622C206.657 351.585 206.186 351.538 205.813 351.482C205.449 351.417 205.145 351.342 204.903 351.258C204.669 351.165 204.473 351.067 204.315 350.964C204.165 350.861 204.021 350.749 203.881 350.628V350.306L205.225 349.032L206.121 349.354L204.805 350.53L204.889 350.152C204.991 350.227 205.089 350.297 205.183 350.362C205.285 350.427 205.416 350.483 205.575 350.53C205.743 350.567 205.971 350.609 206.261 350.656C206.559 350.693 206.961 350.731 207.465 350.768C208.109 350.815 208.622 350.927 209.005 351.104C209.387 351.281 209.667 351.519 209.845 351.818C210.022 352.117 210.111 352.467 210.111 352.868C210.111 353.269 209.999 353.652 209.775 354.016C209.56 354.38 209.224 354.674 208.767 354.898C208.319 355.131 207.735 355.248 207.017 355.248ZM207.003 349.76C206.405 349.76 205.901 349.648 205.491 349.424C205.089 349.2 204.781 348.901 204.567 348.528C204.352 348.145 204.245 347.725 204.245 347.268C204.245 346.801 204.352 346.381 204.567 346.008C204.781 345.635 205.094 345.336 205.505 345.112C205.915 344.888 206.415 344.776 207.003 344.776C207.6 344.776 208.099 344.888 208.501 345.112C208.911 345.336 209.219 345.635 209.425 346.008C209.639 346.381 209.747 346.801 209.747 347.268C209.747 347.725 209.639 348.145 209.425 348.528C209.219 348.901 208.911 349.2 208.501 349.424C208.099 349.648 207.6 349.76 207.003 349.76ZM207.003 348.92C207.544 348.92 207.969 348.78 208.277 348.5C208.594 348.211 208.753 347.8 208.753 347.268C208.753 346.727 208.594 346.316 208.277 346.036C207.969 345.756 207.544 345.616 207.003 345.616C206.461 345.616 206.027 345.756 205.701 346.036C205.383 346.316 205.225 346.727 205.225 347.268C205.225 347.8 205.383 348.211 205.701 348.5C206.018 348.78 206.452 348.92 207.003 348.92ZM208.151 345.826L207.801 344.944H210.657V345.742L208.151 345.826ZM214.601 352.168C214.041 352.168 213.547 352.075 213.117 351.888C212.697 351.701 212.357 351.435 212.095 351.09C211.843 350.735 211.689 350.315 211.633 349.83H212.641C212.697 350.101 212.805 350.348 212.963 350.572C213.131 350.796 213.355 350.978 213.635 351.118C213.915 351.249 214.247 351.314 214.629 351.314C214.984 351.314 215.273 351.263 215.497 351.16C215.731 351.048 215.903 350.903 216.015 350.726C216.137 350.539 216.197 350.334 216.197 350.11C216.197 349.802 216.123 349.564 215.973 349.396C215.833 349.219 215.628 349.088 215.357 349.004C215.087 348.92 214.76 348.841 214.377 348.766C214.06 348.71 213.757 348.635 213.467 348.542C213.178 348.449 212.917 348.327 212.683 348.178C212.459 348.029 212.282 347.842 212.151 347.618C212.021 347.385 211.955 347.114 211.955 346.806C211.955 346.405 212.053 346.055 212.249 345.756C212.455 345.448 212.744 345.21 213.117 345.042C213.491 344.865 213.929 344.776 214.433 344.776C215.152 344.776 215.74 344.958 216.197 345.322C216.655 345.677 216.921 346.199 216.995 346.89H216.015C215.978 346.507 215.819 346.204 215.539 345.98C215.259 345.756 214.881 345.644 214.405 345.644C213.939 345.644 213.579 345.742 213.327 345.938C213.085 346.125 212.963 346.381 212.963 346.708C212.963 346.913 213.029 347.091 213.159 347.24C213.29 347.389 213.481 347.52 213.733 347.632C213.995 347.735 214.312 347.823 214.685 347.898C215.133 347.982 215.544 348.094 215.917 348.234C216.3 348.365 216.608 348.57 216.841 348.85C217.084 349.121 217.205 349.508 217.205 350.012C217.215 350.432 217.112 350.805 216.897 351.132C216.683 351.459 216.379 351.715 215.987 351.902C215.595 352.079 215.133 352.168 214.601 352.168ZM21.2183 371.168C20.649 371.168 20.173 371.065 19.7903 370.86C19.417 370.655 19.137 370.389 18.9503 370.062C18.773 369.735 18.6843 369.376 18.6843 368.984C18.6843 368.499 18.8056 368.088 19.0483 367.752C19.3003 367.416 19.6503 367.164 20.0983 366.996C20.5463 366.828 21.069 366.744 21.6663 366.744H23.5703C23.5703 366.287 23.5003 365.899 23.3603 365.582C23.2203 365.265 23.015 365.027 22.7443 364.868C22.4736 364.7 22.133 364.616 21.7223 364.616C21.2463 364.616 20.8356 364.737 20.4903 364.98C20.145 365.223 19.9303 365.577 19.8463 366.044H18.8243C18.8803 365.549 19.0483 365.134 19.3283 364.798C19.6176 364.462 19.9723 364.21 20.3923 364.042C20.8123 363.865 21.2556 363.776 21.7223 363.776C22.3756 363.776 22.9076 363.902 23.3183 364.154C23.729 364.397 24.037 364.733 24.2423 365.162C24.4476 365.591 24.5503 366.086 24.5503 366.646V371H23.6543L23.5983 369.712C23.5143 369.908 23.3976 370.095 23.2483 370.272C23.1083 370.449 22.9403 370.603 22.7443 370.734C22.5576 370.865 22.3383 370.967 22.0863 371.042C21.8343 371.126 21.545 371.168 21.2183 371.168ZM21.3303 370.314C21.6756 370.314 21.9836 370.244 22.2543 370.104C22.5343 369.955 22.7723 369.763 22.9683 369.53C23.1643 369.297 23.3136 369.035 23.4163 368.746C23.519 368.447 23.5703 368.139 23.5703 367.822V367.57H21.7363C21.2416 367.57 20.845 367.631 20.5463 367.752C20.2476 367.873 20.033 368.037 19.9023 368.242C19.7716 368.447 19.7063 368.685 19.7063 368.956C19.7063 369.227 19.767 369.465 19.8883 369.67C20.0096 369.866 20.1916 370.025 20.4343 370.146C20.6863 370.258 20.985 370.314 21.3303 370.314ZM29.5098 371.168C28.8565 371.168 28.2731 371.014 27.7598 370.706C27.2465 370.398 26.8405 369.969 26.5418 369.418C26.2431 368.858 26.0938 368.214 26.0938 367.486C26.0938 366.73 26.2431 366.081 26.5418 365.54C26.8405 364.989 27.2465 364.56 27.7598 364.252C28.2825 363.935 28.8658 363.776 29.5098 363.776C30.3311 363.776 31.0125 363.991 31.5538 364.42C32.1045 364.84 32.4545 365.4 32.6038 366.1H31.6238C31.5211 365.633 31.2738 365.274 30.8818 365.022C30.4991 364.761 30.0371 364.63 29.4958 364.63C29.0758 364.63 28.6838 364.737 28.3198 364.952C27.9558 365.157 27.6618 365.47 27.4378 365.89C27.2138 366.31 27.1018 366.842 27.1018 367.486C27.1018 367.962 27.1671 368.377 27.2978 368.732C27.4285 369.087 27.6058 369.385 27.8298 369.628C28.0538 369.861 28.3105 370.039 28.5998 370.16C28.8891 370.281 29.1878 370.342 29.4958 370.342C29.8505 370.342 30.1725 370.286 30.4618 370.174C30.7605 370.053 31.0125 369.88 31.2178 369.656C31.4231 369.432 31.5585 369.161 31.6238 368.844H32.6038C32.4638 369.525 32.1185 370.085 31.5678 370.524C31.0171 370.953 30.3311 371.168 29.5098 371.168ZM34.2905 371V363.944H35.1865L35.2565 365.302C35.4058 364.975 35.6065 364.7 35.8585 364.476C36.1105 364.252 36.4138 364.079 36.7685 363.958C37.1231 363.837 37.5245 363.776 37.9725 363.776V364.798H37.5945C37.2958 364.798 37.0065 364.84 36.7265 364.924C36.4465 364.999 36.1991 365.129 35.9845 365.316C35.7698 365.503 35.5971 365.755 35.4665 366.072C35.3358 366.389 35.2705 366.786 35.2705 367.262V371H34.2905ZM42.1563 371.168C41.5123 371.168 40.929 371.019 40.4063 370.72C39.893 370.412 39.487 369.983 39.1883 369.432C38.8896 368.872 38.7403 368.223 38.7403 367.486C38.7403 366.721 38.8896 366.063 39.1883 365.512C39.4963 364.961 39.9116 364.537 40.4343 364.238C40.957 363.93 41.5403 363.776 42.1843 363.776C42.8563 363.776 43.449 363.93 43.9623 364.238C44.4756 364.537 44.8816 364.961 45.1803 365.512C45.479 366.063 45.6283 366.721 45.6283 367.486C45.6283 368.223 45.4743 368.872 45.1663 369.432C44.8676 369.983 44.457 370.412 43.9343 370.72C43.421 371.019 42.8283 371.168 42.1563 371.168ZM42.1703 370.328C42.609 370.328 43.0103 370.221 43.3743 370.006C43.7476 369.791 44.0463 369.474 44.2703 369.054C44.5036 368.625 44.6203 368.097 44.6203 367.472C44.6203 366.837 44.5083 366.31 44.2843 365.89C44.0603 365.47 43.7616 365.157 43.3883 364.952C43.0243 364.737 42.623 364.63 42.1843 364.63C41.7643 364.63 41.3676 364.737 40.9943 364.952C40.621 365.167 40.3176 365.484 40.0843 365.904C39.8603 366.315 39.7483 366.837 39.7483 367.472C39.7483 368.097 39.8603 368.625 40.0843 369.054C40.3083 369.474 40.6023 369.791 40.9663 370.006C41.3396 370.221 41.741 370.328 42.1703 370.328ZM49.8961 371.168C49.3361 371.168 48.8414 371.075 48.4121 370.888C47.9921 370.701 47.6514 370.435 47.3901 370.09C47.1381 369.735 46.9841 369.315 46.9281 368.83H47.9361C47.9921 369.101 48.0994 369.348 48.2581 369.572C48.4261 369.796 48.6501 369.978 48.9301 370.118C49.2101 370.249 49.5414 370.314 49.9241 370.314C50.2788 370.314 50.5681 370.263 50.7921 370.16C51.0254 370.048 51.1981 369.903 51.3101 369.726C51.4314 369.539 51.4921 369.334 51.4921 369.11C51.4921 368.802 51.4174 368.564 51.2681 368.396C51.1281 368.219 50.9228 368.088 50.6521 368.004C50.3814 367.92 50.0548 367.841 49.6721 367.766C49.3548 367.71 49.0514 367.635 48.7621 367.542C48.4728 367.449 48.2114 367.327 47.9781 367.178C47.7541 367.029 47.5768 366.842 47.4461 366.618C47.3154 366.385 47.2501 366.114 47.2501 365.806C47.2501 365.405 47.3481 365.055 47.5441 364.756C47.7494 364.448 48.0388 364.21 48.4121 364.042C48.7854 363.865 49.2241 363.776 49.7281 363.776C50.4468 363.776 51.0348 363.958 51.4921 364.322C51.9494 364.677 52.2154 365.199 52.2901 365.89H51.3101C51.2728 365.507 51.1141 365.204 50.8341 364.98C50.5541 364.756 50.1761 364.644 49.7001 364.644C49.2334 364.644 48.8741 364.742 48.6221 364.938C48.3794 365.125 48.2581 365.381 48.2581 365.708C48.2581 365.913 48.3234 366.091 48.4541 366.24C48.5848 366.389 48.7761 366.52 49.0281 366.632C49.2894 366.735 49.6068 366.823 49.9801 366.898C50.4281 366.982 50.8388 367.094 51.2121 367.234C51.5948 367.365 51.9028 367.57 52.1361 367.85C52.3788 368.121 52.5001 368.508 52.5001 369.012C52.5094 369.432 52.4068 369.805 52.1921 370.132C51.9774 370.459 51.6741 370.715 51.2821 370.902C50.8901 371.079 50.4281 371.168 49.8961 371.168ZM56.8277 371.168C56.2677 371.168 55.7731 371.075 55.3437 370.888C54.9237 370.701 54.5831 370.435 54.3217 370.09C54.0697 369.735 53.9157 369.315 53.8597 368.83H54.8677C54.9237 369.101 55.0311 369.348 55.1897 369.572C55.3577 369.796 55.5817 369.978 55.8617 370.118C56.1417 370.249 56.4731 370.314 56.8557 370.314C57.2104 370.314 57.4997 370.263 57.7237 370.16C57.9571 370.048 58.1297 369.903 58.2417 369.726C58.3631 369.539 58.4237 369.334 58.4237 369.11C58.4237 368.802 58.3491 368.564 58.1997 368.396C58.0597 368.219 57.8544 368.088 57.5837 368.004C57.3131 367.92 56.9864 367.841 56.6037 367.766C56.2864 367.71 55.9831 367.635 55.6937 367.542C55.4044 367.449 55.1431 367.327 54.9097 367.178C54.6857 367.029 54.5084 366.842 54.3777 366.618C54.2471 366.385 54.1817 366.114 54.1817 365.806C54.1817 365.405 54.2797 365.055 54.4757 364.756C54.6811 364.448 54.9704 364.21 55.3437 364.042C55.7171 363.865 56.1557 363.776 56.6597 363.776C57.3784 363.776 57.9664 363.958 58.4237 364.322C58.8811 364.677 59.1471 365.199 59.2217 365.89H58.2417C58.2044 365.507 58.0457 365.204 57.7657 364.98C57.4857 364.756 57.1077 364.644 56.6317 364.644C56.1651 364.644 55.8057 364.742 55.5537 364.938C55.3111 365.125 55.1897 365.381 55.1897 365.708C55.1897 365.913 55.2551 366.091 55.3857 366.24C55.5164 366.389 55.7077 366.52 55.9597 366.632C56.2211 366.735 56.5384 366.823 56.9117 366.898C57.3597 366.982 57.7704 367.094 58.1437 367.234C58.5264 367.365 58.8344 367.57 59.0677 367.85C59.3104 368.121 59.4317 368.508 59.4317 369.012C59.4411 369.432 59.3384 369.805 59.1237 370.132C58.9091 370.459 58.6057 370.715 58.2137 370.902C57.8217 371.079 57.3597 371.168 56.8277 371.168ZM65.0249 371V363.944H65.9209L65.9909 365.008C66.2055 364.616 66.5042 364.313 66.8869 364.098C67.2695 363.883 67.6942 363.776 68.1609 363.776C68.5062 363.776 68.8282 363.827 69.1269 363.93C69.4255 364.033 69.6869 364.187 69.9109 364.392C70.1442 364.597 70.3262 364.863 70.4569 365.19C70.6902 364.751 71.0169 364.406 71.4369 364.154C71.8662 363.902 72.3235 363.776 72.8089 363.776C73.3502 363.776 73.8169 363.883 74.2089 364.098C74.6102 364.313 74.9229 364.639 75.1469 365.078C75.3709 365.517 75.4829 366.072 75.4829 366.744V371H74.5029V366.856C74.5029 366.109 74.3489 365.554 74.0409 365.19C73.7329 364.817 73.3035 364.63 72.7529 364.63C72.3795 364.63 72.0389 364.733 71.7309 364.938C71.4229 365.134 71.1802 365.423 71.0029 365.806C70.8255 366.179 70.7369 366.646 70.7369 367.206V371H69.7569V366.856C69.7569 366.109 69.6029 365.554 69.2949 365.19C68.9962 364.817 68.5715 364.63 68.0209 364.63C67.6382 364.63 67.2929 364.733 66.9849 364.938C66.6862 365.134 66.4482 365.428 66.2709 365.82C66.0935 366.203 66.0049 366.679 66.0049 367.248V371H65.0249ZM79.8775 371.168C79.3455 371.168 78.8742 371.065 78.4635 370.86C78.0622 370.645 77.7495 370.323 77.5255 369.894C77.3015 369.455 77.1895 368.895 77.1895 368.214V363.944H78.1695V368.102C78.1695 368.849 78.3329 369.404 78.6595 369.768C78.9955 370.132 79.4575 370.314 80.0455 370.314C80.4655 370.314 80.8389 370.216 81.1655 370.02C81.5015 369.824 81.7629 369.535 81.9495 369.152C82.1455 368.76 82.2435 368.284 82.2435 367.724V363.944H83.2235V371H82.3275L82.2715 369.74C82.0475 370.197 81.7209 370.552 81.2915 370.804C80.8715 371.047 80.4002 371.168 79.8775 371.168ZM85.2182 371V360.92H86.1982V371H85.2182ZM90.859 371C90.4577 371 90.1123 370.939 89.823 370.818C89.5337 370.687 89.3097 370.477 89.151 370.188C89.0017 369.889 88.927 369.483 88.927 368.97V364.784H87.695V363.944H88.927L89.067 362.306H89.907V363.958H92.021V364.784H89.907V368.97C89.907 369.437 90.0003 369.754 90.187 369.922C90.3737 370.081 90.705 370.16 91.181 370.16H91.909V371H90.859ZM93.6844 371V363.944H94.6504V371H93.6844ZM94.1744 362.278C93.9784 362.278 93.8104 362.213 93.6704 362.082C93.5304 361.942 93.4604 361.769 93.4604 361.564C93.4604 361.349 93.5257 361.181 93.6564 361.06C93.7964 360.929 93.9644 360.864 94.1604 360.864C94.3564 360.864 94.5244 360.929 94.6644 361.06C94.8044 361.181 94.8744 361.349 94.8744 361.564C94.8744 361.769 94.8044 361.942 94.6644 362.082C94.5337 362.213 94.3704 362.278 94.1744 362.278ZM96.7846 374.08V363.944H97.6806L97.7646 365.218C97.914 364.966 98.11 364.733 98.3526 364.518C98.5953 364.294 98.8846 364.117 99.2206 363.986C99.566 363.846 99.958 363.776 100.397 363.776C101.078 363.776 101.671 363.939 102.175 364.266C102.688 364.593 103.085 365.036 103.365 365.596C103.645 366.147 103.785 366.777 103.785 367.486C103.785 368.195 103.64 368.83 103.351 369.39C103.071 369.941 102.679 370.375 102.175 370.692C101.671 371.009 101.073 371.168 100.383 371.168C99.7853 371.168 99.258 371.042 98.8006 370.79C98.3526 370.529 98.0073 370.165 97.7646 369.698V374.08H96.7846ZM100.313 370.314C100.798 370.314 101.223 370.197 101.587 369.964C101.96 369.731 102.254 369.404 102.469 368.984C102.683 368.555 102.791 368.051 102.791 367.472C102.791 366.903 102.683 366.403 102.469 365.974C102.254 365.545 101.96 365.213 101.587 364.98C101.223 364.747 100.798 364.63 100.313 364.63C99.8273 364.63 99.3933 364.747 99.0106 364.98C98.6373 365.213 98.3433 365.545 98.1286 365.974C97.9233 366.394 97.8206 366.893 97.8206 367.472C97.8206 368.041 97.9233 368.541 98.1286 368.97C98.3433 369.399 98.6373 369.731 99.0106 369.964C99.3933 370.197 99.8273 370.314 100.313 370.314ZM105.466 371V360.92H106.446V371H105.466ZM111.457 371.168C110.804 371.168 110.225 371.014 109.721 370.706C109.226 370.398 108.834 369.969 108.545 369.418C108.265 368.858 108.125 368.205 108.125 367.458C108.125 366.711 108.265 366.063 108.545 365.512C108.825 364.961 109.217 364.537 109.721 364.238C110.234 363.93 110.822 363.776 111.485 363.776C112.166 363.776 112.74 363.93 113.207 364.238C113.683 364.546 114.042 364.947 114.285 365.442C114.537 365.937 114.663 366.478 114.663 367.066C114.663 367.159 114.663 367.257 114.663 367.36C114.663 367.453 114.658 367.565 114.649 367.696H108.867V366.87H113.711C113.692 366.151 113.468 365.596 113.039 365.204C112.619 364.812 112.087 364.616 111.443 364.616C111.023 364.616 110.631 364.714 110.267 364.91C109.912 365.097 109.623 365.377 109.399 365.75C109.184 366.114 109.077 366.576 109.077 367.136V367.5C109.077 368.135 109.189 368.662 109.413 369.082C109.637 369.502 109.931 369.815 110.295 370.02C110.668 370.225 111.056 370.328 111.457 370.328C111.989 370.328 112.428 370.211 112.773 369.978C113.118 369.735 113.366 369.404 113.515 368.984H114.481C114.36 369.395 114.164 369.768 113.893 370.104C113.632 370.44 113.296 370.701 112.885 370.888C112.474 371.075 111.998 371.168 111.457 371.168ZM123.231 371.168C122.577 371.168 121.994 371.014 121.481 370.706C120.967 370.398 120.561 369.969 120.263 369.418C119.964 368.858 119.815 368.214 119.815 367.486C119.815 366.73 119.964 366.081 120.263 365.54C120.561 364.989 120.967 364.56 121.481 364.252C122.003 363.935 122.587 363.776 123.231 363.776C124.052 363.776 124.733 363.991 125.275 364.42C125.825 364.84 126.175 365.4 126.325 366.1H125.345C125.242 365.633 124.995 365.274 124.603 365.022C124.22 364.761 123.758 364.63 123.217 364.63C122.797 364.63 122.405 364.737 122.041 364.952C121.677 365.157 121.383 365.47 121.159 365.89C120.935 366.31 120.823 366.842 120.823 367.486C120.823 367.962 120.888 368.377 121.019 368.732C121.149 369.087 121.327 369.385 121.551 369.628C121.775 369.861 122.031 370.039 122.321 370.16C122.61 370.281 122.909 370.342 123.217 370.342C123.571 370.342 123.893 370.286 124.183 370.174C124.481 370.053 124.733 369.88 124.939 369.656C125.144 369.432 125.279 369.161 125.345 368.844H126.325C126.185 369.525 125.839 370.085 125.289 370.524C124.738 370.953 124.052 371.168 123.231 371.168ZM128.011 371V360.92H128.991V365.204C129.234 364.756 129.57 364.406 129.999 364.154C130.429 363.902 130.9 363.776 131.413 363.776C131.945 363.776 132.407 363.883 132.799 364.098C133.201 364.313 133.509 364.639 133.723 365.078C133.947 365.517 134.059 366.077 134.059 366.758V371H133.093V366.87C133.093 366.114 132.935 365.554 132.617 365.19C132.309 364.817 131.852 364.63 131.245 364.63C130.825 364.63 130.443 364.733 130.097 364.938C129.761 365.143 129.491 365.442 129.285 365.834C129.089 366.217 128.991 366.693 128.991 367.262V371H128.011ZM138.168 371.168C137.598 371.168 137.122 371.065 136.74 370.86C136.366 370.655 136.086 370.389 135.9 370.062C135.722 369.735 135.634 369.376 135.634 368.984C135.634 368.499 135.755 368.088 135.998 367.752C136.25 367.416 136.6 367.164 137.048 366.996C137.496 366.828 138.018 366.744 138.616 366.744H140.52C140.52 366.287 140.45 365.899 140.31 365.582C140.17 365.265 139.964 365.027 139.694 364.868C139.423 364.7 139.082 364.616 138.672 364.616C138.196 364.616 137.785 364.737 137.44 364.98C137.094 365.223 136.88 365.577 136.796 366.044H135.774C135.83 365.549 135.998 365.134 136.278 364.798C136.567 364.462 136.922 364.21 137.342 364.042C137.762 363.865 138.205 363.776 138.672 363.776C139.325 363.776 139.857 363.902 140.268 364.154C140.678 364.397 140.986 364.733 141.192 365.162C141.397 365.591 141.5 366.086 141.5 366.646V371H140.604L140.548 369.712C140.464 369.908 140.347 370.095 140.198 370.272C140.058 370.449 139.89 370.603 139.694 370.734C139.507 370.865 139.288 370.967 139.036 371.042C138.784 371.126 138.494 371.168 138.168 371.168ZM138.28 370.314C138.625 370.314 138.933 370.244 139.204 370.104C139.484 369.955 139.722 369.763 139.918 369.53C140.114 369.297 140.263 369.035 140.366 368.746C140.468 368.447 140.52 368.139 140.52 367.822V367.57H138.686C138.191 367.57 137.794 367.631 137.496 367.752C137.197 367.873 136.982 368.037 136.852 368.242C136.721 368.447 136.656 368.685 136.656 368.956C136.656 369.227 136.716 369.465 136.838 369.67C136.959 369.866 137.141 370.025 137.384 370.146C137.636 370.258 137.934 370.314 138.28 370.314ZM143.351 371V363.944H144.247L144.303 365.204C144.527 364.756 144.849 364.406 145.269 364.154C145.698 363.902 146.174 363.776 146.697 363.776C147.238 363.776 147.71 363.883 148.111 364.098C148.512 364.313 148.825 364.639 149.049 365.078C149.273 365.507 149.385 366.058 149.385 366.73V371H148.405V366.842C148.405 366.095 148.242 365.54 147.915 365.176C147.588 364.812 147.122 364.63 146.515 364.63C146.104 364.63 145.731 364.733 145.395 364.938C145.068 365.134 144.807 365.423 144.611 365.806C144.424 366.189 144.331 366.66 144.331 367.22V371H143.351ZM151.24 371V363.944H152.136L152.192 365.204C152.416 364.756 152.738 364.406 153.158 364.154C153.587 363.902 154.063 363.776 154.586 363.776C155.127 363.776 155.598 363.883 156 364.098C156.401 364.313 156.714 364.639 156.938 365.078C157.162 365.507 157.274 366.058 157.274 366.73V371H156.294V366.842C156.294 366.095 156.13 365.54 155.804 365.176C155.477 364.812 155.01 364.63 154.404 364.63C153.993 364.63 153.62 364.733 153.284 364.938C152.957 365.134 152.696 365.423 152.5 365.806C152.313 366.189 152.22 366.66 152.22 367.22V371H151.24ZM162.152 371.168C161.499 371.168 160.92 371.014 160.416 370.706C159.922 370.398 159.53 369.969 159.24 369.418C158.96 368.858 158.82 368.205 158.82 367.458C158.82 366.711 158.96 366.063 159.24 365.512C159.52 364.961 159.912 364.537 160.416 364.238C160.93 363.93 161.518 363.776 162.18 363.776C162.862 363.776 163.436 363.93 163.902 364.238C164.378 364.546 164.738 364.947 164.98 365.442C165.232 365.937 165.358 366.478 165.358 367.066C165.358 367.159 165.358 367.257 165.358 367.36C165.358 367.453 165.354 367.565 165.344 367.696H159.562V366.87H164.406C164.388 366.151 164.164 365.596 163.734 365.204C163.314 364.812 162.782 364.616 162.138 364.616C161.718 364.616 161.326 364.714 160.962 364.91C160.608 365.097 160.318 365.377 160.094 365.75C159.88 366.114 159.772 366.576 159.772 367.136V367.5C159.772 368.135 159.884 368.662 160.108 369.082C160.332 369.502 160.626 369.815 160.99 370.02C161.364 370.225 161.751 370.328 162.152 370.328C162.684 370.328 163.123 370.211 163.468 369.978C163.814 369.735 164.061 369.404 164.21 368.984H165.176C165.055 369.395 164.859 369.768 164.588 370.104C164.327 370.44 163.991 370.701 163.58 370.888C163.17 371.075 162.694 371.168 162.152 371.168ZM166.962 371V360.92H167.942V371H166.962ZM172.519 371.168C171.959 371.168 171.464 371.075 171.035 370.888C170.615 370.701 170.274 370.435 170.013 370.09C169.761 369.735 169.607 369.315 169.551 368.83H170.559C170.615 369.101 170.722 369.348 170.881 369.572C171.049 369.796 171.273 369.978 171.553 370.118C171.833 370.249 172.164 370.314 172.547 370.314C172.902 370.314 173.191 370.263 173.415 370.16C173.648 370.048 173.821 369.903 173.933 369.726C174.054 369.539 174.115 369.334 174.115 369.11C174.115 368.802 174.04 368.564 173.891 368.396C173.751 368.219 173.546 368.088 173.275 368.004C173.004 367.92 172.678 367.841 172.295 367.766C171.978 367.71 171.674 367.635 171.385 367.542C171.096 367.449 170.834 367.327 170.601 367.178C170.377 367.029 170.2 366.842 170.069 366.618C169.938 366.385 169.873 366.114 169.873 365.806C169.873 365.405 169.971 365.055 170.167 364.756C170.372 364.448 170.662 364.21 171.035 364.042C171.408 363.865 171.847 363.776 172.351 363.776C173.07 363.776 173.658 363.958 174.115 364.322C174.572 364.677 174.838 365.199 174.913 365.89H173.933C173.896 365.507 173.737 365.204 173.457 364.98C173.177 364.756 172.799 364.644 172.323 364.644C171.856 364.644 171.497 364.742 171.245 364.938C171.002 365.125 170.881 365.381 170.881 365.708C170.881 365.913 170.946 366.091 171.077 366.24C171.208 366.389 171.399 366.52 171.651 366.632C171.912 366.735 172.23 366.823 172.603 366.898C173.051 366.982 173.462 367.094 173.835 367.234C174.218 367.365 174.526 367.57 174.759 367.85C175.002 368.121 175.123 368.508 175.123 369.012C175.132 369.432 175.03 369.805 174.815 370.132C174.6 370.459 174.297 370.715 173.905 370.902C173.513 371.079 173.051 371.168 172.519 371.168Z" fill="white"/>
</g>
<defs>
<clipPath id="clip0_2049_6262">
<rect width="224" height="411" rx="10" fill="white"/>
</clipPath>
</defs>
</svg>
