<svg width="224" height="411" viewBox="0 0 224 411" fill="none" xmlns="http://www.w3.org/2000/svg">
<rect width="224" height="411" rx="10" fill="#F4F6FF"/>
<rect y="164" width="224" height="246.6" rx="10" fill="#11111C"/>
<path d="M17.8817 281V269.8H19.0017V281H17.8817ZM21.379 281V272.936H22.403L22.467 274.376C22.723 273.864 23.091 273.464 23.571 273.176C24.0617 272.888 24.6057 272.744 25.203 272.744C25.8217 272.744 26.3604 272.867 26.819 273.112C27.2777 273.357 27.635 273.731 27.891 274.232C28.147 274.723 28.275 275.352 28.275 276.12V281H27.155V276.248C27.155 275.395 26.9684 274.76 26.595 274.344C26.2217 273.928 25.6884 273.72 24.995 273.72C24.5257 273.72 24.099 273.837 23.715 274.072C23.3417 274.296 23.043 274.627 22.819 275.064C22.6057 275.501 22.499 276.04 22.499 276.68V281H21.379ZM33.9467 281.192C33.2 281.192 32.5333 281.016 31.9467 280.664C31.36 280.312 30.896 279.821 30.5547 279.192C30.2133 278.552 30.0427 277.816 30.0427 276.984C30.0427 276.12 30.2133 275.379 30.5547 274.76C30.896 274.131 31.36 273.64 31.9467 273.288C32.544 272.925 33.2107 272.744 33.9467 272.744C34.8853 272.744 35.664 272.989 36.2827 273.48C36.912 273.96 37.312 274.6 37.4827 275.4H36.3627C36.2453 274.867 35.9627 274.456 35.5147 274.168C35.0773 273.869 34.5493 273.72 33.9307 273.72C33.4507 273.72 33.0027 273.843 32.5867 274.088C32.1707 274.323 31.8347 274.68 31.5787 275.16C31.3227 275.64 31.1947 276.248 31.1947 276.984C31.1947 277.528 31.2693 278.003 31.4187 278.408C31.568 278.813 31.7707 279.155 32.0267 279.432C32.2827 279.699 32.576 279.901 32.9067 280.04C33.2373 280.179 33.5787 280.248 33.9307 280.248C34.336 280.248 34.704 280.184 35.0347 280.056C35.376 279.917 35.664 279.72 35.8987 279.464C36.1333 279.208 36.288 278.899 36.3627 278.536H37.4827C37.3227 279.315 36.928 279.955 36.2987 280.456C35.6693 280.947 34.8853 281.192 33.9467 281.192ZM39.4103 281V272.936H40.4343L40.5143 274.488C40.685 274.115 40.9143 273.8 41.2023 273.544C41.4903 273.288 41.837 273.091 42.2423 272.952C42.6476 272.813 43.1063 272.744 43.6183 272.744V273.912H43.1863C42.845 273.912 42.5143 273.96 42.1943 274.056C41.8743 274.141 41.5916 274.291 41.3463 274.504C41.101 274.717 40.9036 275.005 40.7543 275.368C40.605 275.731 40.5303 276.184 40.5303 276.728V281H39.4103ZM48.3038 281.192C47.5571 281.192 46.8958 281.016 46.3198 280.664C45.7545 280.312 45.3065 279.821 44.9758 279.192C44.6558 278.552 44.4958 277.805 44.4958 276.952C44.4958 276.099 44.6558 275.357 44.9758 274.728C45.2958 274.099 45.7438 273.613 46.3198 273.272C46.9065 272.92 47.5785 272.744 48.3358 272.744C49.1145 272.744 49.7705 272.92 50.3038 273.272C50.8478 273.624 51.2585 274.083 51.5358 274.648C51.8238 275.213 51.9678 275.832 51.9678 276.504C51.9678 276.611 51.9678 276.723 51.9678 276.84C51.9678 276.947 51.9625 277.075 51.9518 277.224H45.3438V276.28H50.8798C50.8585 275.459 50.6025 274.824 50.1118 274.376C49.6318 273.928 49.0238 273.704 48.2878 273.704C47.8078 273.704 47.3598 273.816 46.9438 274.04C46.5385 274.253 46.2078 274.573 45.9518 275C45.7065 275.416 45.5838 275.944 45.5838 276.584V277C45.5838 277.725 45.7118 278.328 45.9678 278.808C46.2238 279.288 46.5598 279.645 46.9758 279.88C47.4025 280.115 47.8451 280.232 48.3038 280.232C48.9118 280.232 49.4131 280.099 49.8078 279.832C50.2025 279.555 50.4851 279.176 50.6558 278.696H51.7598C51.6211 279.165 51.3971 279.592 51.0878 279.976C50.7891 280.36 50.4051 280.659 49.9358 280.872C49.4665 281.085 48.9225 281.192 48.3038 281.192ZM56.3769 281.192C55.7263 281.192 55.1823 281.075 54.7449 280.84C54.3183 280.605 53.9983 280.301 53.7849 279.928C53.5823 279.555 53.4809 279.144 53.4809 278.696C53.4809 278.141 53.6196 277.672 53.8969 277.288C54.1849 276.904 54.5849 276.616 55.0969 276.424C55.6089 276.232 56.2063 276.136 56.8889 276.136H59.0649C59.0649 275.613 58.9849 275.171 58.8249 274.808C58.6649 274.445 58.4303 274.173 58.1209 273.992C57.8116 273.8 57.4223 273.704 56.9529 273.704C56.4089 273.704 55.9396 273.843 55.5449 274.12C55.1503 274.397 54.9049 274.803 54.8089 275.336H53.6409C53.7049 274.771 53.8969 274.296 54.2169 273.912C54.5476 273.528 54.9529 273.24 55.4329 273.048C55.9129 272.845 56.4196 272.744 56.9529 272.744C57.6996 272.744 58.3076 272.888 58.7769 273.176C59.2463 273.453 59.5983 273.837 59.8329 274.328C60.0676 274.819 60.1849 275.384 60.1849 276.024V281H59.1609L59.0969 279.528C59.0009 279.752 58.8676 279.965 58.6969 280.168C58.5369 280.371 58.3449 280.547 58.1209 280.696C57.9076 280.845 57.6569 280.963 57.3689 281.048C57.0809 281.144 56.7503 281.192 56.3769 281.192ZM56.5049 280.216C56.8996 280.216 57.2516 280.136 57.5609 279.976C57.8809 279.805 58.1529 279.587 58.3769 279.32C58.6009 279.053 58.7716 278.755 58.8889 278.424C59.0063 278.083 59.0649 277.731 59.0649 277.368V277.08H56.9689C56.4036 277.08 55.9503 277.149 55.6089 277.288C55.2676 277.427 55.0223 277.613 54.8729 277.848C54.7236 278.083 54.6489 278.355 54.6489 278.664C54.6489 278.973 54.7183 279.245 54.8569 279.48C54.9956 279.704 55.2036 279.885 55.4809 280.024C55.7689 280.152 56.1103 280.216 56.5049 280.216ZM65.2609 281.192C64.6209 281.192 64.0556 281.085 63.5649 280.872C63.0849 280.659 62.6956 280.355 62.3969 279.96C62.1089 279.555 61.9329 279.075 61.8689 278.52H63.0209C63.0849 278.829 63.2076 279.112 63.3889 279.368C63.5809 279.624 63.8369 279.832 64.1569 279.992C64.4769 280.141 64.8556 280.216 65.2929 280.216C65.6983 280.216 66.0289 280.157 66.2849 280.04C66.5516 279.912 66.7489 279.747 66.8769 279.544C67.0156 279.331 67.0849 279.096 67.0849 278.84C67.0849 278.488 66.9996 278.216 66.8289 278.024C66.6689 277.821 66.4343 277.672 66.1249 277.576C65.8156 277.48 65.4423 277.389 65.0049 277.304C64.6423 277.24 64.2956 277.155 63.9649 277.048C63.6343 276.941 63.3356 276.803 63.0689 276.632C62.8129 276.461 62.6103 276.248 62.4609 275.992C62.3116 275.725 62.2369 275.416 62.2369 275.064C62.2369 274.605 62.3489 274.205 62.5729 273.864C62.8076 273.512 63.1383 273.24 63.5649 273.048C63.9916 272.845 64.4929 272.744 65.0689 272.744C65.8903 272.744 66.5623 272.952 67.0849 273.368C67.6076 273.773 67.9116 274.371 67.9969 275.16H66.8769C66.8343 274.723 66.6529 274.376 66.3329 274.12C66.0129 273.864 65.5809 273.736 65.0369 273.736C64.5036 273.736 64.0929 273.848 63.8049 274.072C63.5276 274.285 63.3889 274.579 63.3889 274.952C63.3889 275.187 63.4636 275.389 63.6129 275.56C63.7623 275.731 63.9809 275.88 64.2689 276.008C64.5676 276.125 64.9303 276.227 65.3569 276.312C65.8689 276.408 66.3383 276.536 66.7649 276.696C67.2023 276.845 67.5543 277.08 67.8209 277.4C68.0983 277.709 68.2369 278.152 68.2369 278.728C68.2476 279.208 68.1303 279.635 67.8849 280.008C67.6396 280.381 67.2929 280.675 66.8449 280.888C66.3969 281.091 65.8689 281.192 65.2609 281.192ZM73.6788 281.192C72.9321 281.192 72.2708 281.016 71.6948 280.664C71.1295 280.312 70.6815 279.821 70.3508 279.192C70.0308 278.552 69.8708 277.805 69.8708 276.952C69.8708 276.099 70.0308 275.357 70.3508 274.728C70.6708 274.099 71.1188 273.613 71.6948 273.272C72.2815 272.92 72.9535 272.744 73.7108 272.744C74.4895 272.744 75.1455 272.92 75.6788 273.272C76.2228 273.624 76.6335 274.083 76.9108 274.648C77.1988 275.213 77.3428 275.832 77.3428 276.504C77.3428 276.611 77.3428 276.723 77.3428 276.84C77.3428 276.947 77.3375 277.075 77.3268 277.224H70.7188V276.28H76.2548C76.2335 275.459 75.9775 274.824 75.4868 274.376C75.0068 273.928 74.3988 273.704 73.6628 273.704C73.1828 273.704 72.7348 273.816 72.3188 274.04C71.9135 274.253 71.5828 274.573 71.3268 275C71.0815 275.416 70.9588 275.944 70.9588 276.584V277C70.9588 277.725 71.0868 278.328 71.3428 278.808C71.5988 279.288 71.9348 279.645 72.3508 279.88C72.7775 280.115 73.2201 280.232 73.6788 280.232C74.2868 280.232 74.7881 280.099 75.1828 279.832C75.5775 279.555 75.8601 279.176 76.0308 278.696H77.1348C76.9961 279.165 76.7721 279.592 76.4628 279.976C76.1641 280.36 75.7801 280.659 75.3108 280.872C74.8415 281.085 74.2975 281.192 73.6788 281.192ZM85.9502 281L82.8782 272.936H84.0462L86.6062 279.912L89.1662 272.936H90.3182L87.2302 281H85.9502ZM92.0234 281V272.936H93.1274V281H92.0234ZM92.5834 271.032C92.3594 271.032 92.1674 270.957 92.0074 270.808C91.8474 270.648 91.7674 270.451 91.7674 270.216C91.7674 269.971 91.8421 269.779 91.9914 269.64C92.1514 269.491 92.3434 269.416 92.5674 269.416C92.7914 269.416 92.9834 269.491 93.1434 269.64C93.3034 269.779 93.3834 269.971 93.3834 270.216C93.3834 270.451 93.3034 270.648 93.1434 270.808C92.9941 270.957 92.8074 271.032 92.5834 271.032ZM98.5265 281.192C97.8865 281.192 97.3212 281.085 96.8305 280.872C96.3505 280.659 95.9612 280.355 95.6625 279.96C95.3745 279.555 95.1985 279.075 95.1345 278.52H96.2865C96.3505 278.829 96.4732 279.112 96.6545 279.368C96.8465 279.624 97.1025 279.832 97.4225 279.992C97.7425 280.141 98.1212 280.216 98.5585 280.216C98.9639 280.216 99.2945 280.157 99.5505 280.04C99.8172 279.912 100.015 279.747 100.143 279.544C100.281 279.331 100.351 279.096 100.351 278.84C100.351 278.488 100.265 278.216 100.095 278.024C99.9345 277.821 99.6999 277.672 99.3905 277.576C99.0812 277.48 98.7079 277.389 98.2705 277.304C97.9079 277.24 97.5612 277.155 97.2305 277.048C96.8999 276.941 96.6012 276.803 96.3345 276.632C96.0785 276.461 95.8759 276.248 95.7265 275.992C95.5772 275.725 95.5025 275.416 95.5025 275.064C95.5025 274.605 95.6145 274.205 95.8385 273.864C96.0732 273.512 96.4039 273.24 96.8305 273.048C97.2572 272.845 97.7585 272.744 98.3345 272.744C99.1559 272.744 99.8279 272.952 100.351 273.368C100.873 273.773 101.177 274.371 101.263 275.16H100.143C100.1 274.723 99.9185 274.376 99.5985 274.12C99.2785 273.864 98.8465 273.736 98.3025 273.736C97.7692 273.736 97.3585 273.848 97.0705 274.072C96.7932 274.285 96.6545 274.579 96.6545 274.952C96.6545 275.187 96.7292 275.389 96.8785 275.56C97.0279 275.731 97.2465 275.88 97.5345 276.008C97.8332 276.125 98.1959 276.227 98.6225 276.312C99.1345 276.408 99.6039 276.536 100.031 276.696C100.468 276.845 100.82 277.08 101.087 277.4C101.364 277.709 101.503 278.152 101.503 278.728C101.513 279.208 101.396 279.635 101.151 280.008C100.905 280.381 100.559 280.675 100.111 280.888C99.6625 281.091 99.1345 281.192 98.5265 281.192ZM103.648 281V272.936H104.752V281H103.648ZM104.208 271.032C103.984 271.032 103.792 270.957 103.632 270.808C103.472 270.648 103.392 270.451 103.392 270.216C103.392 269.971 103.467 269.779 103.616 269.64C103.776 269.491 103.968 269.416 104.192 269.416C104.416 269.416 104.608 269.491 104.768 269.64C104.928 269.779 105.008 269.971 105.008 270.216C105.008 270.451 104.928 270.648 104.768 270.808C104.619 270.957 104.432 271.032 104.208 271.032ZM111.304 281.192C110.834 281.192 110.402 281.123 110.008 280.984C109.624 280.835 109.288 280.637 109 280.392C108.712 280.136 108.482 279.848 108.312 279.528L108.216 281H107.192V269.48H108.312V274.392C108.578 273.933 108.962 273.544 109.464 273.224C109.965 272.904 110.578 272.744 111.304 272.744C112.093 272.744 112.781 272.931 113.368 273.304C113.954 273.667 114.402 274.168 114.712 274.808C115.032 275.437 115.192 276.157 115.192 276.968C115.192 277.779 115.032 278.504 114.712 279.144C114.392 279.784 113.938 280.285 113.352 280.648C112.776 281.011 112.093 281.192 111.304 281.192ZM111.224 280.216C111.789 280.216 112.28 280.083 112.696 279.816C113.112 279.549 113.442 279.171 113.688 278.68C113.933 278.189 114.056 277.619 114.056 276.968C114.056 276.307 113.933 275.736 113.688 275.256C113.442 274.765 113.106 274.387 112.68 274.12C112.264 273.853 111.778 273.72 111.224 273.72C110.669 273.72 110.173 273.853 109.736 274.12C109.309 274.387 108.973 274.765 108.728 275.256C108.493 275.747 108.376 276.317 108.376 276.968C108.376 277.629 108.493 278.205 108.728 278.696C108.973 279.176 109.309 279.549 109.736 279.816C110.173 280.083 110.669 280.216 111.224 280.216ZM117.273 281V272.936H118.377V281H117.273ZM117.833 271.032C117.609 271.032 117.417 270.957 117.257 270.808C117.097 270.648 117.017 270.451 117.017 270.216C117.017 269.971 117.092 269.779 117.241 269.64C117.401 269.491 117.593 269.416 117.817 269.416C118.041 269.416 118.233 269.491 118.393 269.64C118.553 269.779 118.633 269.971 118.633 270.216C118.633 270.451 118.553 270.648 118.393 270.808C118.244 270.957 118.057 271.032 117.833 271.032ZM120.817 281V269.48H121.937V281H120.817ZM124.367 281V272.936H125.471V281H124.367ZM124.927 271.032C124.703 271.032 124.511 270.957 124.351 270.808C124.191 270.648 124.111 270.451 124.111 270.216C124.111 269.971 124.186 269.779 124.335 269.64C124.495 269.491 124.687 269.416 124.911 269.416C125.135 269.416 125.327 269.491 125.487 269.64C125.647 269.779 125.727 269.971 125.727 270.216C125.727 270.451 125.647 270.648 125.487 270.808C125.338 270.957 125.151 271.032 124.927 271.032ZM130.966 281C130.508 281 130.113 280.931 129.782 280.792C129.452 280.643 129.196 280.403 129.014 280.072C128.844 279.731 128.758 279.267 128.758 278.68V273.896H127.35V272.936H128.758L128.918 271.064H129.878V272.952H132.294V273.896H129.878V278.68C129.878 279.213 129.985 279.576 130.198 279.768C130.412 279.949 130.79 280.04 131.334 280.04H132.166V281H130.966ZM134.867 284.52L136.851 280.104H136.419L133.235 272.936H134.451L137.203 279.336L140.099 272.936H141.251L136.035 284.52H134.867Z" fill="white"/>
<path d="M26.4737 325.36C24.9337 325.36 23.6337 325.08 22.5737 324.52C21.5337 323.94 20.6937 323.17 20.0537 322.21C19.4137 321.23 18.9437 320.15 18.6437 318.97C18.3637 317.77 18.2237 316.54 18.2237 315.28C18.2237 312.96 18.5437 310.93 19.1837 309.19C19.8437 307.45 20.7837 306.09 22.0037 305.11C23.2237 304.13 24.6937 303.64 26.4137 303.64C27.7937 303.64 28.9637 303.91 29.9237 304.45C30.9037 304.97 31.6637 305.67 32.2037 306.55C32.7637 307.43 33.1037 308.4 33.2237 309.46H30.4337C30.2537 308.42 29.8037 307.62 29.0837 307.06C28.3837 306.48 27.4837 306.19 26.3837 306.19C25.4037 306.19 24.5237 306.5 23.7437 307.12C22.9637 307.72 22.3437 308.64 21.8837 309.88C21.4437 311.12 21.1937 312.69 21.1337 314.59C21.1337 314.61 21.1337 314.64 21.1337 314.68C21.1337 314.72 21.1337 314.76 21.1337 314.8C21.4337 314.2 21.8637 313.65 22.4237 313.15C22.9837 312.65 23.6437 312.26 24.4037 311.98C25.1837 311.68 26.0237 311.53 26.9237 311.53C28.1037 311.53 29.2037 311.81 30.2237 312.37C31.2637 312.91 32.1037 313.69 32.7437 314.71C33.3837 315.73 33.7037 316.92 33.7037 318.28C33.7037 319.5 33.4037 320.65 32.8037 321.73C32.2237 322.81 31.3937 323.69 30.3137 324.37C29.2337 325.03 27.9537 325.36 26.4737 325.36ZM26.2637 322.75C27.1237 322.75 27.8837 322.57 28.5437 322.21C29.2237 321.83 29.7537 321.31 30.1337 320.65C30.5337 319.99 30.7337 319.24 30.7337 318.4C30.7337 317.54 30.5337 316.79 30.1337 316.15C29.7537 315.49 29.2237 314.98 28.5437 314.62C27.8837 314.26 27.1237 314.08 26.2637 314.08C25.4037 314.08 24.6337 314.28 23.9537 314.68C23.2737 315.06 22.7337 315.58 22.3337 316.24C21.9337 316.88 21.7337 317.61 21.7337 318.43C21.7337 319.27 21.9337 320.02 22.3337 320.68C22.7337 321.32 23.2737 321.83 23.9537 322.21C24.6537 322.57 25.4237 322.75 26.2637 322.75ZM45.9102 325.36C44.0502 325.36 42.4502 324.91 41.1102 324.01C39.7702 323.09 38.7402 321.82 38.0202 320.2C37.3002 318.56 36.9402 316.66 36.9402 314.5C36.9402 312.34 37.3002 310.45 38.0202 308.83C38.7402 307.19 39.7702 305.92 41.1102 305.02C42.4502 304.1 44.0502 303.64 45.9102 303.64C47.7702 303.64 49.3602 304.1 50.6802 305.02C52.0202 305.92 53.0402 307.19 53.7402 308.83C54.4602 310.45 54.8202 312.34 54.8202 314.5C54.8202 316.66 54.4602 318.56 53.7402 320.2C53.0402 321.82 52.0202 323.09 50.6802 324.01C49.3602 324.91 47.7702 325.36 45.9102 325.36ZM45.9102 322.69C47.0302 322.69 48.0302 322.36 48.9102 321.7C49.8102 321.04 50.5102 320.1 51.0102 318.88C51.5102 317.66 51.7602 316.2 51.7602 314.5C51.7602 312.8 51.5102 311.34 51.0102 310.12C50.5102 308.9 49.8102 307.97 48.9102 307.33C48.0302 306.67 47.0302 306.34 45.9102 306.34C44.7702 306.34 43.7502 306.67 42.8502 307.33C41.9502 307.97 41.2502 308.9 40.7502 310.12C40.2502 311.34 40.0002 312.8 40.0002 314.5C40.0002 316.2 40.2502 317.66 40.7502 318.88C41.2502 320.1 41.9502 321.04 42.8502 321.7C43.7502 322.36 44.7702 322.69 45.9102 322.69ZM60.983 325L73.043 304H76.013L63.953 325H60.983ZM74.783 325.36C73.843 325.36 73.003 325.15 72.263 324.73C71.523 324.31 70.933 323.72 70.493 322.96C70.053 322.18 69.833 321.27 69.833 320.23C69.833 319.15 70.053 318.23 70.493 317.47C70.933 316.71 71.523 316.12 72.263 315.7C73.003 315.28 73.833 315.07 74.753 315.07C75.713 315.07 76.553 315.28 77.273 315.7C78.013 316.12 78.593 316.71 79.013 317.47C79.453 318.23 79.673 319.15 79.673 320.23C79.673 321.27 79.453 322.18 79.013 322.96C78.593 323.72 78.013 324.31 77.273 324.73C76.533 325.15 75.703 325.36 74.783 325.36ZM74.723 323.14C75.183 323.14 75.593 323.03 75.953 322.81C76.333 322.59 76.633 322.27 76.853 321.85C77.093 321.41 77.213 320.86 77.213 320.2C77.213 319.54 77.103 319 76.883 318.58C76.663 318.14 76.363 317.81 75.983 317.59C75.623 317.37 75.213 317.26 74.753 317.26C74.333 317.26 73.933 317.37 73.553 317.59C73.173 317.81 72.863 318.14 72.623 318.58C72.403 319 72.293 319.54 72.293 320.2C72.293 320.86 72.403 321.41 72.623 321.85C72.863 322.27 73.163 322.59 73.523 322.81C73.903 323.03 74.303 323.14 74.723 323.14ZM62.423 313.96C61.503 313.96 60.673 313.75 59.933 313.33C59.193 312.91 58.593 312.32 58.133 311.56C57.693 310.78 57.473 309.86 57.473 308.8C57.473 307.74 57.693 306.83 58.133 306.07C58.593 305.31 59.193 304.72 59.933 304.3C60.693 303.88 61.533 303.67 62.453 303.67C63.373 303.67 64.203 303.88 64.943 304.3C65.683 304.72 66.263 305.31 66.683 306.07C67.123 306.83 67.343 307.74 67.343 308.8C67.343 309.86 67.123 310.78 66.683 311.56C66.263 312.32 65.673 312.91 64.913 313.33C64.173 313.75 63.343 313.96 62.423 313.96ZM62.423 311.74C62.863 311.74 63.263 311.63 63.623 311.41C64.003 311.19 64.303 310.87 64.523 310.45C64.743 310.01 64.853 309.46 64.853 308.8C64.853 308.14 64.743 307.59 64.523 307.15C64.303 306.71 64.003 306.38 63.623 306.16C63.263 305.94 62.873 305.83 62.453 305.83C62.013 305.83 61.593 305.94 61.193 306.16C60.813 306.38 60.503 306.71 60.263 307.15C60.043 307.59 59.933 308.14 59.933 308.8C59.933 309.44 60.043 309.98 60.263 310.42C60.503 310.86 60.813 311.19 61.193 311.41C61.573 311.63 61.983 311.74 62.423 311.74Z" fill="white"/>
<path opacity="0.8" d="M19.0837 352L17.0117 344.944H18.0057L19.6857 350.978H19.4897L21.3097 344.944H22.4297L24.2497 350.978H24.0537L25.7337 344.944H26.7277L24.6557 352H23.6617L21.7717 345.686H21.9677L20.0777 352H19.0837ZM28.2403 352V344.944H29.2063V352H28.2403ZM28.7303 343.278C28.5343 343.278 28.3663 343.213 28.2263 343.082C28.0863 342.942 28.0163 342.769 28.0163 342.564C28.0163 342.349 28.0817 342.181 28.2123 342.06C28.3523 341.929 28.5203 341.864 28.7163 341.864C28.9123 341.864 29.0803 341.929 29.2203 342.06C29.3603 342.181 29.4303 342.349 29.4303 342.564C29.4303 342.769 29.3603 342.942 29.2203 343.082C29.0897 343.213 28.9263 343.278 28.7303 343.278ZM34.0146 352C33.6132 352 33.2679 351.939 32.9786 351.818C32.6892 351.687 32.4652 351.477 32.3066 351.188C32.1572 350.889 32.0826 350.483 32.0826 349.97V345.784H30.8506V344.944H32.0826L32.2226 343.306H33.0626V344.958H35.1766V345.784H33.0626V349.97C33.0626 350.437 33.1559 350.754 33.3426 350.922C33.5292 351.081 33.8606 351.16 34.3366 351.16H35.0646V352H34.0146ZM36.6999 352V341.92H37.6799V346.204C37.9226 345.756 38.2586 345.406 38.6879 345.154C39.1173 344.902 39.5886 344.776 40.1019 344.776C40.6339 344.776 41.0959 344.883 41.4879 345.098C41.8893 345.313 42.1973 345.639 42.4119 346.078C42.6359 346.517 42.7479 347.077 42.7479 347.758V352H41.7819V347.87C41.7819 347.114 41.6233 346.554 41.3059 346.19C40.9979 345.817 40.5406 345.63 39.9339 345.63C39.5139 345.63 39.1313 345.733 38.7859 345.938C38.4499 346.143 38.1793 346.442 37.9739 346.834C37.7779 347.217 37.6799 347.693 37.6799 348.262V352H36.6999ZM48.4577 352V344.944H49.3537L49.4237 346.302C49.5731 345.975 49.7737 345.7 50.0257 345.476C50.2777 345.252 50.5811 345.079 50.9357 344.958C51.2904 344.837 51.6917 344.776 52.1397 344.776V345.798H51.7617C51.4631 345.798 51.1737 345.84 50.8937 345.924C50.6137 345.999 50.3664 346.129 50.1517 346.316C49.9371 346.503 49.7644 346.755 49.6337 347.072C49.5031 347.389 49.4377 347.786 49.4377 348.262V352H48.4577ZM56.2396 352.168C55.5862 352.168 55.0076 352.014 54.5036 351.706C54.0089 351.398 53.6169 350.969 53.3276 350.418C53.0476 349.858 52.9076 349.205 52.9076 348.458C52.9076 347.711 53.0476 347.063 53.3276 346.512C53.6076 345.961 53.9996 345.537 54.5036 345.238C55.0169 344.93 55.6049 344.776 56.2676 344.776C56.9489 344.776 57.5229 344.93 57.9896 345.238C58.4656 345.546 58.8249 345.947 59.0676 346.442C59.3196 346.937 59.4456 347.478 59.4456 348.066C59.4456 348.159 59.4456 348.257 59.4456 348.36C59.4456 348.453 59.4409 348.565 59.4316 348.696H53.6496V347.87H58.4936C58.4749 347.151 58.2509 346.596 57.8216 346.204C57.4016 345.812 56.8696 345.616 56.2256 345.616C55.8056 345.616 55.4136 345.714 55.0496 345.91C54.6949 346.097 54.4056 346.377 54.1816 346.75C53.9669 347.114 53.8596 347.576 53.8596 348.136V348.5C53.8596 349.135 53.9716 349.662 54.1956 350.082C54.4196 350.502 54.7136 350.815 55.0776 351.02C55.4509 351.225 55.8382 351.328 56.2396 351.328C56.7716 351.328 57.2102 351.211 57.5556 350.978C57.9009 350.735 58.1482 350.404 58.2976 349.984H59.2636C59.1422 350.395 58.9462 350.768 58.6756 351.104C58.4142 351.44 58.0782 351.701 57.6676 351.888C57.2569 352.075 56.7809 352.168 56.2396 352.168ZM63.3035 352.168C62.7342 352.168 62.2582 352.065 61.8755 351.86C61.5022 351.655 61.2222 351.389 61.0355 351.062C60.8582 350.735 60.7695 350.376 60.7695 349.984C60.7695 349.499 60.8909 349.088 61.1335 348.752C61.3855 348.416 61.7355 348.164 62.1835 347.996C62.6315 347.828 63.1542 347.744 63.7515 347.744H65.6555C65.6555 347.287 65.5855 346.899 65.4455 346.582C65.3055 346.265 65.1002 346.027 64.8295 345.868C64.5589 345.7 64.2182 345.616 63.8075 345.616C63.3315 345.616 62.9209 345.737 62.5755 345.98C62.2302 346.223 62.0155 346.577 61.9315 347.044H60.9095C60.9655 346.549 61.1335 346.134 61.4135 345.798C61.7029 345.462 62.0575 345.21 62.4775 345.042C62.8975 344.865 63.3409 344.776 63.8075 344.776C64.4609 344.776 64.9929 344.902 65.4035 345.154C65.8142 345.397 66.1222 345.733 66.3275 346.162C66.5329 346.591 66.6355 347.086 66.6355 347.646V352H65.7395L65.6835 350.712C65.5995 350.908 65.4829 351.095 65.3335 351.272C65.1935 351.449 65.0255 351.603 64.8295 351.734C64.6429 351.865 64.4235 351.967 64.1715 352.042C63.9195 352.126 63.6302 352.168 63.3035 352.168ZM63.4155 351.314C63.7609 351.314 64.0689 351.244 64.3395 351.104C64.6195 350.955 64.8575 350.763 65.0535 350.53C65.2495 350.297 65.3989 350.035 65.5015 349.746C65.6042 349.447 65.6555 349.139 65.6555 348.822V348.57H63.8215C63.3269 348.57 62.9302 348.631 62.6315 348.752C62.3329 348.873 62.1182 349.037 61.9875 349.242C61.8569 349.447 61.7915 349.685 61.7915 349.956C61.7915 350.227 61.8522 350.465 61.9735 350.67C62.0949 350.866 62.2769 351.025 62.5195 351.146C62.7715 351.258 63.0702 351.314 63.4155 351.314ZM68.487 352V341.92H69.467V352H68.487ZM71.1598 348.304V347.464H76.6058V348.304H71.1598ZM80.9774 352C80.5761 352 80.2308 351.939 79.9414 351.818C79.6521 351.687 79.4281 351.477 79.2694 351.188C79.1201 350.889 79.0454 350.483 79.0454 349.97V345.784H77.8134V344.944H79.0454L79.1854 343.306H80.0254V344.958H82.1394V345.784H80.0254V349.97C80.0254 350.437 80.1188 350.754 80.3054 350.922C80.4921 351.081 80.8234 351.16 81.2994 351.16H82.0274V352H80.9774ZM83.8028 352V344.944H84.7688V352H83.8028ZM84.2928 343.278C84.0968 343.278 83.9288 343.213 83.7888 343.082C83.6488 342.942 83.5788 342.769 83.5788 342.564C83.5788 342.349 83.6442 342.181 83.7748 342.06C83.9148 341.929 84.0828 341.864 84.2788 341.864C84.4748 341.864 84.6428 341.929 84.7828 342.06C84.9228 342.181 84.9928 342.349 84.9928 342.564C84.9928 342.769 84.9228 342.942 84.7828 343.082C84.6522 343.213 84.4888 343.278 84.2928 343.278ZM86.9031 352V344.944H87.7991L87.8691 346.008C88.0837 345.616 88.3824 345.313 88.7651 345.098C89.1477 344.883 89.5724 344.776 90.0391 344.776C90.3844 344.776 90.7064 344.827 91.0051 344.93C91.3037 345.033 91.5651 345.187 91.7891 345.392C92.0224 345.597 92.2044 345.863 92.3351 346.19C92.5684 345.751 92.8951 345.406 93.3151 345.154C93.7444 344.902 94.2017 344.776 94.6871 344.776C95.2284 344.776 95.6951 344.883 96.0871 345.098C96.4884 345.313 96.8011 345.639 97.0251 346.078C97.2491 346.517 97.3611 347.072 97.3611 347.744V352H96.3811V347.856C96.3811 347.109 96.2271 346.554 95.9191 346.19C95.6111 345.817 95.1817 345.63 94.6311 345.63C94.2577 345.63 93.9171 345.733 93.6091 345.938C93.3011 346.134 93.0584 346.423 92.8811 346.806C92.7037 347.179 92.6151 347.646 92.6151 348.206V352H91.6351V347.856C91.6351 347.109 91.4811 346.554 91.1731 346.19C90.8744 345.817 90.4497 345.63 89.8991 345.63C89.5164 345.63 89.1711 345.733 88.8631 345.938C88.5644 346.134 88.3264 346.428 88.1491 346.82C87.9717 347.203 87.8831 347.679 87.8831 348.248V352H86.9031ZM102.232 352.168C101.578 352.168 101 352.014 100.496 351.706C100.001 351.398 99.6091 350.969 99.3197 350.418C99.0397 349.858 98.8997 349.205 98.8997 348.458C98.8997 347.711 99.0397 347.063 99.3197 346.512C99.5997 345.961 99.9917 345.537 100.496 345.238C101.009 344.93 101.597 344.776 102.26 344.776C102.941 344.776 103.515 344.93 103.982 345.238C104.458 345.546 104.817 345.947 105.06 346.442C105.312 346.937 105.438 347.478 105.438 348.066C105.438 348.159 105.438 348.257 105.438 348.36C105.438 348.453 105.433 348.565 105.424 348.696H99.6417V347.87H104.486C104.467 347.151 104.243 346.596 103.814 346.204C103.394 345.812 102.862 345.616 102.218 345.616C101.798 345.616 101.406 345.714 101.042 345.91C100.687 346.097 100.398 346.377 100.174 346.75C99.9591 347.114 99.8517 347.576 99.8517 348.136V348.5C99.8517 349.135 99.9637 349.662 100.188 350.082C100.412 350.502 100.706 350.815 101.07 351.02C101.443 351.225 101.83 351.328 102.232 351.328C102.764 351.328 103.202 351.211 103.548 350.978C103.893 350.735 104.14 350.404 104.29 349.984H105.256C105.134 350.395 104.938 350.768 104.668 351.104C104.406 351.44 104.07 351.701 103.66 351.888C103.249 352.075 102.773 352.168 102.232 352.168ZM111.037 352V344.944H112.003V352H111.037ZM111.527 343.278C111.331 343.278 111.163 343.213 111.023 343.082C110.883 342.942 110.813 342.769 110.813 342.564C110.813 342.349 110.879 342.181 111.009 342.06C111.149 341.929 111.317 341.864 111.513 341.864C111.709 341.864 111.877 341.929 112.017 342.06C112.157 342.181 112.227 342.349 112.227 342.564C112.227 342.769 112.157 342.942 112.017 343.082C111.887 343.213 111.723 343.278 111.527 343.278ZM114.137 352V344.944H115.033L115.089 346.204C115.313 345.756 115.635 345.406 116.055 345.154C116.485 344.902 116.961 344.776 117.483 344.776C118.025 344.776 118.496 344.883 118.897 345.098C119.299 345.313 119.611 345.639 119.835 346.078C120.059 346.507 120.171 347.058 120.171 347.73V352H119.191V347.842C119.191 347.095 119.028 346.54 118.701 346.176C118.375 345.812 117.908 345.63 117.301 345.63C116.891 345.63 116.517 345.733 116.181 345.938C115.855 346.134 115.593 346.423 115.397 346.806C115.211 347.189 115.117 347.66 115.117 348.22V352H114.137ZM123.934 352L121.246 344.944H122.268L124.508 351.048L126.748 344.944H127.756L125.054 352H123.934ZM131.763 352.168C131.11 352.168 130.531 352.014 130.027 351.706C129.532 351.398 129.14 350.969 128.851 350.418C128.571 349.858 128.431 349.205 128.431 348.458C128.431 347.711 128.571 347.063 128.851 346.512C129.131 345.961 129.523 345.537 130.027 345.238C130.54 344.93 131.128 344.776 131.791 344.776C132.472 344.776 133.046 344.93 133.513 345.238C133.989 345.546 134.348 345.947 134.591 346.442C134.843 346.937 134.969 347.478 134.969 348.066C134.969 348.159 134.969 348.257 134.969 348.36C134.969 348.453 134.964 348.565 134.955 348.696H129.173V347.87H134.017C133.998 347.151 133.774 346.596 133.345 346.204C132.925 345.812 132.393 345.616 131.749 345.616C131.329 345.616 130.937 345.714 130.573 345.91C130.218 346.097 129.929 346.377 129.705 346.75C129.49 347.114 129.383 347.576 129.383 348.136V348.5C129.383 349.135 129.495 349.662 129.719 350.082C129.943 350.502 130.237 350.815 130.601 351.02C130.974 351.225 131.362 351.328 131.763 351.328C132.295 351.328 132.734 351.211 133.079 350.978C133.424 350.735 133.672 350.404 133.821 349.984H134.787C134.666 350.395 134.47 350.768 134.199 351.104C133.938 351.44 133.602 351.701 133.191 351.888C132.78 352.075 132.304 352.168 131.763 352.168ZM136.573 352V344.944H137.469L137.525 346.204C137.749 345.756 138.071 345.406 138.491 345.154C138.92 344.902 139.396 344.776 139.919 344.776C140.46 344.776 140.932 344.883 141.333 345.098C141.734 345.313 142.047 345.639 142.271 346.078C142.495 346.507 142.607 347.058 142.607 347.73V352H141.627V347.842C141.627 347.095 141.464 346.54 141.137 346.176C140.81 345.812 140.344 345.63 139.737 345.63C139.326 345.63 138.953 345.733 138.617 345.938C138.29 346.134 138.029 346.423 137.833 346.806C137.646 347.189 137.553 347.66 137.553 348.22V352H136.573ZM147.136 352C146.734 352 146.389 351.939 146.1 351.818C145.81 351.687 145.586 351.477 145.428 351.188C145.278 350.889 145.204 350.483 145.204 349.97V345.784H143.972V344.944H145.204L145.344 343.306H146.184V344.958H148.298V345.784H146.184V349.97C146.184 350.437 146.277 350.754 146.464 350.922C146.65 351.081 146.982 351.16 147.458 351.16H148.186V352H147.136ZM152.738 352.168C152.094 352.168 151.51 352.019 150.988 351.72C150.474 351.412 150.068 350.983 149.77 350.432C149.471 349.872 149.322 349.223 149.322 348.486C149.322 347.721 149.471 347.063 149.77 346.512C150.078 345.961 150.493 345.537 151.016 345.238C151.538 344.93 152.122 344.776 152.766 344.776C153.438 344.776 154.03 344.93 154.544 345.238C155.057 345.537 155.463 345.961 155.762 346.512C156.06 347.063 156.21 347.721 156.21 348.486C156.21 349.223 156.056 349.872 155.748 350.432C155.449 350.983 155.038 351.412 154.516 351.72C154.002 352.019 153.41 352.168 152.738 352.168ZM152.752 351.328C153.19 351.328 153.592 351.221 153.956 351.006C154.329 350.791 154.628 350.474 154.852 350.054C155.085 349.625 155.202 349.097 155.202 348.472C155.202 347.837 155.09 347.31 154.866 346.89C154.642 346.47 154.343 346.157 153.97 345.952C153.606 345.737 153.204 345.63 152.766 345.63C152.346 345.63 151.949 345.737 151.576 345.952C151.202 346.167 150.899 346.484 150.666 346.904C150.442 347.315 150.33 347.837 150.33 348.472C150.33 349.097 150.442 349.625 150.666 350.054C150.89 350.474 151.184 350.791 151.548 351.006C151.921 351.221 152.322 351.328 152.752 351.328ZM157.887 352V344.944H158.783L158.853 346.302C159.003 345.975 159.203 345.7 159.455 345.476C159.707 345.252 160.011 345.079 160.365 344.958C160.72 344.837 161.121 344.776 161.569 344.776V345.798H161.191C160.893 345.798 160.603 345.84 160.323 345.924C160.043 345.999 159.796 346.129 159.581 346.316C159.367 346.503 159.194 346.755 159.063 347.072C158.933 347.389 158.867 347.786 158.867 348.262V352H157.887ZM163.674 355.08L165.41 351.216H165.032L162.246 344.944H163.31L165.718 350.544L168.252 344.944H169.26L164.696 355.08H163.674ZM20.1757 371.168C19.6437 371.168 19.1723 371.065 18.7617 370.86C18.3603 370.645 18.0477 370.323 17.8237 369.894C17.5997 369.455 17.4877 368.895 17.4877 368.214V363.944H18.4677V368.102C18.4677 368.849 18.631 369.404 18.9577 369.768C19.2937 370.132 19.7557 370.314 20.3437 370.314C20.7637 370.314 21.137 370.216 21.4637 370.02C21.7997 369.824 22.061 369.535 22.2477 369.152C22.4437 368.76 22.5417 368.284 22.5417 367.724V363.944H23.5217V371H22.6257L22.5697 369.74C22.3457 370.197 22.019 370.552 21.5897 370.804C21.1697 371.047 20.6983 371.168 20.1757 371.168ZM25.5163 374.08V363.944H26.4123L26.4963 365.218C26.6457 364.966 26.8417 364.733 27.0843 364.518C27.327 364.294 27.6163 364.117 27.9523 363.986C28.2977 363.846 28.6897 363.776 29.1283 363.776C29.8097 363.776 30.4023 363.939 30.9063 364.266C31.4197 364.593 31.8163 365.036 32.0963 365.596C32.3763 366.147 32.5163 366.777 32.5163 367.486C32.5163 368.195 32.3717 368.83 32.0823 369.39C31.8023 369.941 31.4103 370.375 30.9063 370.692C30.4023 371.009 29.805 371.168 29.1143 371.168C28.517 371.168 27.9897 371.042 27.5323 370.79C27.0843 370.529 26.739 370.165 26.4963 369.698V374.08H25.5163ZM29.0443 370.314C29.5297 370.314 29.9543 370.197 30.3183 369.964C30.6917 369.731 30.9857 369.404 31.2003 368.984C31.415 368.555 31.5223 368.051 31.5223 367.472C31.5223 366.903 31.415 366.403 31.2003 365.974C30.9857 365.545 30.6917 365.213 30.3183 364.98C29.9543 364.747 29.5297 364.63 29.0443 364.63C28.559 364.63 28.125 364.747 27.7423 364.98C27.369 365.213 27.075 365.545 26.8603 365.974C26.655 366.394 26.5523 366.893 26.5523 367.472C26.5523 368.041 26.655 368.541 26.8603 368.97C27.075 369.399 27.369 369.731 27.7423 369.964C28.125 370.197 28.559 370.314 29.0443 370.314ZM37.278 371.168C36.5966 371.168 35.9993 371.009 35.486 370.692C34.982 370.365 34.59 369.922 34.31 369.362C34.03 368.802 33.89 368.167 33.89 367.458C33.89 366.749 34.03 366.119 34.31 365.568C34.59 365.008 34.9866 364.569 35.5 364.252C36.0133 363.935 36.6106 363.776 37.292 363.776C37.8893 363.776 38.412 363.907 38.86 364.168C39.3173 364.42 39.6673 364.779 39.91 365.246V360.92H40.89V371H39.994L39.91 369.726C39.7606 369.969 39.5646 370.202 39.322 370.426C39.0886 370.65 38.7993 370.832 38.454 370.972C38.118 371.103 37.726 371.168 37.278 371.168ZM37.362 370.314C37.8566 370.314 38.286 370.197 38.65 369.964C39.0233 369.731 39.3126 369.399 39.518 368.97C39.7326 368.541 39.84 368.041 39.84 367.472C39.84 366.903 39.7326 366.403 39.518 365.974C39.3126 365.545 39.0233 365.213 38.65 364.98C38.286 364.747 37.8566 364.63 37.362 364.63C36.8766 364.63 36.4473 364.747 36.074 364.98C35.7006 365.213 35.4066 365.545 35.192 365.974C34.9866 366.394 34.884 366.893 34.884 367.472C34.884 368.051 34.9913 368.555 35.206 368.984C35.4206 369.404 35.7146 369.731 36.088 369.964C36.4613 370.197 36.886 370.314 37.362 370.314ZM45.1336 371.168C44.5643 371.168 44.0883 371.065 43.7056 370.86C43.3323 370.655 43.0523 370.389 42.8656 370.062C42.6883 369.735 42.5996 369.376 42.5996 368.984C42.5996 368.499 42.721 368.088 42.9636 367.752C43.2156 367.416 43.5656 367.164 44.0136 366.996C44.4616 366.828 44.9843 366.744 45.5816 366.744H47.4856C47.4856 366.287 47.4156 365.899 47.2756 365.582C47.1356 365.265 46.9303 365.027 46.6596 364.868C46.389 364.7 46.0483 364.616 45.6376 364.616C45.1616 364.616 44.751 364.737 44.4056 364.98C44.0603 365.223 43.8456 365.577 43.7616 366.044H42.7396C42.7956 365.549 42.9636 365.134 43.2436 364.798C43.533 364.462 43.8876 364.21 44.3076 364.042C44.7276 363.865 45.171 363.776 45.6376 363.776C46.291 363.776 46.823 363.902 47.2336 364.154C47.6443 364.397 47.9523 364.733 48.1576 365.162C48.363 365.591 48.4656 366.086 48.4656 366.646V371H47.5696L47.5136 369.712C47.4296 369.908 47.313 370.095 47.1636 370.272C47.0236 370.449 46.8556 370.603 46.6596 370.734C46.473 370.865 46.2536 370.967 46.0016 371.042C45.7496 371.126 45.4603 371.168 45.1336 371.168ZM45.2456 370.314C45.591 370.314 45.899 370.244 46.1696 370.104C46.4496 369.955 46.6876 369.763 46.8836 369.53C47.0796 369.297 47.229 369.035 47.3316 368.746C47.4343 368.447 47.4856 368.139 47.4856 367.822V367.57H45.6516C45.157 367.57 44.7603 367.631 44.4616 367.752C44.163 367.873 43.9483 368.037 43.8176 368.242C43.687 368.447 43.6216 368.685 43.6216 368.956C43.6216 369.227 43.6823 369.465 43.8036 369.67C43.925 369.866 44.107 370.025 44.3496 370.146C44.6016 370.258 44.9003 370.314 45.2456 370.314ZM52.7724 371C52.371 371 52.0257 370.939 51.7364 370.818C51.447 370.687 51.223 370.477 51.0644 370.188C50.915 369.889 50.8404 369.483 50.8404 368.97V364.784H49.6084V363.944H50.8404L50.9804 362.306H51.8204V363.958H53.9344V364.784H51.8204V368.97C51.8204 369.437 51.9137 369.754 52.1004 369.922C52.287 370.081 52.6184 370.16 53.0944 370.16H53.8224V371H52.7724ZM58.2903 371.168C57.637 371.168 57.0583 371.014 56.5543 370.706C56.0597 370.398 55.6677 369.969 55.3783 369.418C55.0983 368.858 54.9583 368.205 54.9583 367.458C54.9583 366.711 55.0983 366.063 55.3783 365.512C55.6583 364.961 56.0503 364.537 56.5543 364.238C57.0677 363.93 57.6557 363.776 58.3183 363.776C58.9997 363.776 59.5737 363.93 60.0403 364.238C60.5163 364.546 60.8757 364.947 61.1183 365.442C61.3703 365.937 61.4963 366.478 61.4963 367.066C61.4963 367.159 61.4963 367.257 61.4963 367.36C61.4963 367.453 61.4917 367.565 61.4823 367.696H55.7003V366.87H60.5443C60.5257 366.151 60.3017 365.596 59.8723 365.204C59.4523 364.812 58.9203 364.616 58.2763 364.616C57.8563 364.616 57.4643 364.714 57.1003 364.91C56.7457 365.097 56.4563 365.377 56.2323 365.75C56.0177 366.114 55.9103 366.576 55.9103 367.136V367.5C55.9103 368.135 56.0223 368.662 56.2463 369.082C56.4703 369.502 56.7643 369.815 57.1283 370.02C57.5017 370.225 57.889 370.328 58.2903 370.328C58.8223 370.328 59.261 370.211 59.6063 369.978C59.9517 369.735 60.199 369.404 60.3483 368.984H61.3143C61.193 369.395 60.997 369.768 60.7263 370.104C60.465 370.44 60.129 370.701 59.7183 370.888C59.3077 371.075 58.8317 371.168 58.2903 371.168ZM65.6903 371.168C65.1303 371.168 64.6357 371.075 64.2063 370.888C63.7863 370.701 63.4457 370.435 63.1843 370.09C62.9323 369.735 62.7783 369.315 62.7223 368.83H63.7303C63.7863 369.101 63.8937 369.348 64.0523 369.572C64.2203 369.796 64.4443 369.978 64.7243 370.118C65.0043 370.249 65.3357 370.314 65.7183 370.314C66.073 370.314 66.3623 370.263 66.5863 370.16C66.8197 370.048 66.9923 369.903 67.1043 369.726C67.2257 369.539 67.2863 369.334 67.2863 369.11C67.2863 368.802 67.2117 368.564 67.0623 368.396C66.9223 368.219 66.717 368.088 66.4463 368.004C66.1757 367.92 65.849 367.841 65.4663 367.766C65.149 367.71 64.8457 367.635 64.5563 367.542C64.267 367.449 64.0057 367.327 63.7723 367.178C63.5483 367.029 63.371 366.842 63.2403 366.618C63.1097 366.385 63.0443 366.114 63.0443 365.806C63.0443 365.405 63.1423 365.055 63.3383 364.756C63.5437 364.448 63.833 364.21 64.2063 364.042C64.5797 363.865 65.0183 363.776 65.5223 363.776C66.241 363.776 66.829 363.958 67.2863 364.322C67.7437 364.677 68.0097 365.199 68.0843 365.89H67.1043C67.067 365.507 66.9083 365.204 66.6283 364.98C66.3483 364.756 65.9703 364.644 65.4943 364.644C65.0277 364.644 64.6683 364.742 64.4163 364.938C64.1737 365.125 64.0523 365.381 64.0523 365.708C64.0523 365.913 64.1177 366.091 64.2483 366.24C64.379 366.389 64.5703 366.52 64.8223 366.632C65.0837 366.735 65.401 366.823 65.7743 366.898C66.2223 366.982 66.633 367.094 67.0063 367.234C67.389 367.365 67.697 367.57 67.9303 367.85C68.173 368.121 68.2943 368.508 68.2943 369.012C68.3037 369.432 68.201 369.805 67.9863 370.132C67.7717 370.459 67.4683 370.715 67.0763 370.902C66.6843 371.079 66.2223 371.168 65.6903 371.168ZM76.5614 371C76.1601 371 75.8148 370.939 75.5254 370.818C75.2361 370.687 75.0121 370.477 74.8534 370.188C74.7041 369.889 74.6294 369.483 74.6294 368.97V364.784H73.3974V363.944H74.6294L74.7694 362.306H75.6094V363.958H77.7234V364.784H75.6094V368.97C75.6094 369.437 75.7028 369.754 75.8894 369.922C76.0761 370.081 76.4074 370.16 76.8834 370.16H77.6114V371H76.5614ZM79.2468 371V360.92H80.2268V365.204C80.4695 364.756 80.8055 364.406 81.2348 364.154C81.6641 363.902 82.1355 363.776 82.6488 363.776C83.1808 363.776 83.6428 363.883 84.0348 364.098C84.4361 364.313 84.7441 364.639 84.9588 365.078C85.1828 365.517 85.2948 366.077 85.2948 366.758V371H84.3288V366.87C84.3288 366.114 84.1701 365.554 83.8528 365.19C83.5448 364.817 83.0875 364.63 82.4808 364.63C82.0608 364.63 81.6781 364.733 81.3328 364.938C80.9968 365.143 80.7261 365.442 80.5208 365.834C80.3248 366.217 80.2268 366.693 80.2268 367.262V371H79.2468ZM89.4032 371.168C88.8338 371.168 88.3578 371.065 87.9752 370.86C87.6018 370.655 87.3218 370.389 87.1352 370.062C86.9578 369.735 86.8692 369.376 86.8692 368.984C86.8692 368.499 86.9905 368.088 87.2332 367.752C87.4852 367.416 87.8352 367.164 88.2832 366.996C88.7312 366.828 89.2538 366.744 89.8512 366.744H91.7552C91.7552 366.287 91.6852 365.899 91.5452 365.582C91.4052 365.265 91.1998 365.027 90.9292 364.868C90.6585 364.7 90.3178 364.616 89.9072 364.616C89.4312 364.616 89.0205 364.737 88.6752 364.98C88.3298 365.223 88.1152 365.577 88.0312 366.044H87.0092C87.0652 365.549 87.2332 365.134 87.5132 364.798C87.8025 364.462 88.1572 364.21 88.5772 364.042C88.9972 363.865 89.4405 363.776 89.9072 363.776C90.5605 363.776 91.0925 363.902 91.5032 364.154C91.9138 364.397 92.2218 364.733 92.4272 365.162C92.6325 365.591 92.7352 366.086 92.7352 366.646V371H91.8392L91.7832 369.712C91.6992 369.908 91.5825 370.095 91.4332 370.272C91.2932 370.449 91.1252 370.603 90.9292 370.734C90.7425 370.865 90.5232 370.967 90.2712 371.042C90.0192 371.126 89.7298 371.168 89.4032 371.168ZM89.5152 370.314C89.8605 370.314 90.1685 370.244 90.4392 370.104C90.7192 369.955 90.9572 369.763 91.1532 369.53C91.3492 369.297 91.4985 369.035 91.6012 368.746C91.7038 368.447 91.7552 368.139 91.7552 367.822V367.57H89.9212C89.4265 367.57 89.0298 367.631 88.7312 367.752C88.4325 367.873 88.2178 368.037 88.0872 368.242C87.9565 368.447 87.8912 368.685 87.8912 368.956C87.8912 369.227 87.9518 369.465 88.0732 369.67C88.1945 369.866 88.3765 370.025 88.6192 370.146C88.8712 370.258 89.1698 370.314 89.5152 370.314ZM97.0419 371C96.6406 371 96.2952 370.939 96.0059 370.818C95.7166 370.687 95.4926 370.477 95.3339 370.188C95.1846 369.889 95.1099 369.483 95.1099 368.97V364.784H93.8779V363.944H95.1099L95.2499 362.306H96.0899V363.958H98.2039V364.784H96.0899V368.97C96.0899 369.437 96.1832 369.754 96.3699 369.922C96.5566 370.081 96.8879 370.16 97.3639 370.16H98.0919V371H97.0419ZM103.583 374.08V363.944H104.479L104.563 365.218C104.712 364.966 104.908 364.733 105.151 364.518C105.393 364.294 105.683 364.117 106.019 363.986C106.364 363.846 106.756 363.776 107.195 363.776C107.876 363.776 108.469 363.939 108.973 364.266C109.486 364.593 109.883 365.036 110.163 365.596C110.443 366.147 110.583 366.777 110.583 367.486C110.583 368.195 110.438 368.83 110.149 369.39C109.869 369.941 109.477 370.375 108.973 370.692C108.469 371.009 107.871 371.168 107.181 371.168C106.583 371.168 106.056 371.042 105.599 370.79C105.151 370.529 104.805 370.165 104.563 369.698V374.08H103.583ZM107.111 370.314C107.596 370.314 108.021 370.197 108.385 369.964C108.758 369.731 109.052 369.404 109.267 368.984C109.481 368.555 109.589 368.051 109.589 367.472C109.589 366.903 109.481 366.403 109.267 365.974C109.052 365.545 108.758 365.213 108.385 364.98C108.021 364.747 107.596 364.63 107.111 364.63C106.625 364.63 106.191 364.747 105.809 364.98C105.435 365.213 105.141 365.545 104.927 365.974C104.721 366.394 104.619 366.893 104.619 367.472C104.619 368.041 104.721 368.541 104.927 368.97C105.141 369.399 105.435 369.731 105.809 369.964C106.191 370.197 106.625 370.314 107.111 370.314ZM112.264 371V363.944H113.16L113.23 365.302C113.38 364.975 113.58 364.7 113.832 364.476C114.084 364.252 114.388 364.079 114.742 363.958C115.097 363.837 115.498 363.776 115.946 363.776V364.798H115.568C115.27 364.798 114.98 364.84 114.7 364.924C114.42 364.999 114.173 365.129 113.958 365.316C113.744 365.503 113.571 365.755 113.44 366.072C113.31 366.389 113.244 366.786 113.244 367.262V371H112.264ZM120.046 371.168C119.393 371.168 118.814 371.014 118.31 370.706C117.816 370.398 117.424 369.969 117.134 369.418C116.854 368.858 116.714 368.205 116.714 367.458C116.714 366.711 116.854 366.063 117.134 365.512C117.414 364.961 117.806 364.537 118.31 364.238C118.824 363.93 119.412 363.776 120.074 363.776C120.756 363.776 121.33 363.93 121.796 364.238C122.272 364.546 122.632 364.947 122.874 365.442C123.126 365.937 123.252 366.478 123.252 367.066C123.252 367.159 123.252 367.257 123.252 367.36C123.252 367.453 123.248 367.565 123.238 367.696H117.456V366.87H122.3C122.282 366.151 122.058 365.596 121.628 365.204C121.208 364.812 120.676 364.616 120.032 364.616C119.612 364.616 119.22 364.714 118.856 364.91C118.502 365.097 118.212 365.377 117.988 365.75C117.774 366.114 117.666 366.576 117.666 367.136V367.5C117.666 368.135 117.778 368.662 118.002 369.082C118.226 369.502 118.52 369.815 118.884 370.02C119.258 370.225 119.645 370.328 120.046 370.328C120.578 370.328 121.017 370.211 121.362 369.978C121.708 369.735 121.955 369.404 122.104 368.984H123.07C122.949 369.395 122.753 369.768 122.482 370.104C122.221 370.44 121.885 370.701 121.474 370.888C121.064 371.075 120.588 371.168 120.046 371.168ZM126.655 371L123.967 363.944H124.989L127.229 370.048L129.469 363.944H130.477L127.775 371H126.655ZM134.484 371.168C133.83 371.168 133.252 371.014 132.748 370.706C132.253 370.398 131.861 369.969 131.572 369.418C131.292 368.858 131.152 368.205 131.152 367.458C131.152 366.711 131.292 366.063 131.572 365.512C131.852 364.961 132.244 364.537 132.748 364.238C133.261 363.93 133.849 363.776 134.512 363.776C135.193 363.776 135.767 363.93 136.234 364.238C136.71 364.546 137.069 364.947 137.312 365.442C137.564 365.937 137.69 366.478 137.69 367.066C137.69 367.159 137.69 367.257 137.69 367.36C137.69 367.453 137.685 367.565 137.676 367.696H131.894V366.87H136.738C136.719 366.151 136.495 365.596 136.066 365.204C135.646 364.812 135.114 364.616 134.47 364.616C134.05 364.616 133.658 364.714 133.294 364.91C132.939 365.097 132.65 365.377 132.426 365.75C132.211 366.114 132.104 366.576 132.104 367.136V367.5C132.104 368.135 132.216 368.662 132.44 369.082C132.664 369.502 132.958 369.815 133.322 370.02C133.695 370.225 134.082 370.328 134.484 370.328C135.016 370.328 135.454 370.211 135.8 369.978C136.145 369.735 136.392 369.404 136.542 368.984H137.508C137.386 369.395 137.19 369.768 136.92 370.104C136.658 370.44 136.322 370.701 135.912 370.888C135.501 371.075 135.025 371.168 134.484 371.168ZM139.294 371V363.944H140.19L140.246 365.204C140.47 364.756 140.792 364.406 141.212 364.154C141.641 363.902 142.117 363.776 142.64 363.776C143.181 363.776 143.652 363.883 144.054 364.098C144.455 364.313 144.768 364.639 144.992 365.078C145.216 365.507 145.328 366.058 145.328 366.73V371H144.348V366.842C144.348 366.095 144.184 365.54 143.858 365.176C143.531 364.812 143.064 364.63 142.458 364.63C142.047 364.63 141.674 364.733 141.338 364.938C141.011 365.134 140.75 365.423 140.554 365.806C140.367 366.189 140.274 366.66 140.274 367.22V371H139.294ZM149.856 371C149.455 371 149.11 370.939 148.82 370.818C148.531 370.687 148.307 370.477 148.148 370.188C147.999 369.889 147.924 369.483 147.924 368.97V364.784H146.692V363.944H147.924L148.064 362.306H148.904V363.958H151.018V364.784H148.904V368.97C148.904 369.437 148.998 369.754 149.184 369.922C149.371 370.081 149.702 370.16 150.178 370.16H150.906V371H149.856ZM159.477 371.168C158.796 371.168 158.199 371.009 157.685 370.692C157.181 370.365 156.789 369.922 156.509 369.362C156.229 368.802 156.089 368.167 156.089 367.458C156.089 366.749 156.229 366.119 156.509 365.568C156.789 365.008 157.186 364.569 157.699 364.252C158.213 363.935 158.81 363.776 159.491 363.776C160.089 363.776 160.611 363.907 161.059 364.168C161.517 364.42 161.867 364.779 162.109 365.246V360.92H163.089V371H162.193L162.109 369.726C161.96 369.969 161.764 370.202 161.521 370.426C161.288 370.65 160.999 370.832 160.653 370.972C160.317 371.103 159.925 371.168 159.477 371.168ZM159.561 370.314C160.056 370.314 160.485 370.197 160.849 369.964C161.223 369.731 161.512 369.399 161.717 368.97C161.932 368.541 162.039 368.041 162.039 367.472C162.039 366.903 161.932 366.403 161.717 365.974C161.512 365.545 161.223 365.213 160.849 364.98C160.485 364.747 160.056 364.63 159.561 364.63C159.076 364.63 158.647 364.747 158.273 364.98C157.9 365.213 157.606 365.545 157.391 365.974C157.186 366.394 157.083 366.893 157.083 367.472C157.083 368.051 157.191 368.555 157.405 368.984C157.62 369.404 157.914 369.731 158.287 369.964C158.661 370.197 159.085 370.314 159.561 370.314ZM168.187 371.168C167.543 371.168 166.96 371.019 166.437 370.72C165.924 370.412 165.518 369.983 165.219 369.432C164.92 368.872 164.771 368.223 164.771 367.486C164.771 366.721 164.92 366.063 165.219 365.512C165.527 364.961 165.942 364.537 166.465 364.238C166.988 363.93 167.571 363.776 168.215 363.776C168.887 363.776 169.48 363.93 169.993 364.238C170.506 364.537 170.912 364.961 171.211 365.512C171.51 366.063 171.659 366.721 171.659 367.486C171.659 368.223 171.505 368.872 171.197 369.432C170.898 369.983 170.488 370.412 169.965 370.72C169.452 371.019 168.859 371.168 168.187 371.168ZM168.201 370.328C168.64 370.328 169.041 370.221 169.405 370.006C169.778 369.791 170.077 369.474 170.301 369.054C170.534 368.625 170.651 368.097 170.651 367.472C170.651 366.837 170.539 366.31 170.315 365.89C170.091 365.47 169.792 365.157 169.419 364.952C169.055 364.737 168.654 364.63 168.215 364.63C167.795 364.63 167.398 364.737 167.025 364.952C166.652 365.167 166.348 365.484 166.115 365.904C165.891 366.315 165.779 366.837 165.779 367.472C165.779 368.097 165.891 368.625 166.115 369.054C166.339 369.474 166.633 369.791 166.997 370.006C167.37 370.221 167.772 370.328 168.201 370.328ZM175.885 371.168C175.353 371.168 174.881 371.065 174.471 370.86C174.069 370.645 173.757 370.323 173.533 369.894C173.309 369.455 173.197 368.895 173.197 368.214V363.944H174.177V368.102C174.177 368.849 174.34 369.404 174.667 369.768C175.003 370.132 175.465 370.314 176.053 370.314C176.473 370.314 176.846 370.216 177.173 370.02C177.509 369.824 177.77 369.535 177.957 369.152C178.153 368.76 178.251 368.284 178.251 367.724V363.944H179.231V371H178.335L178.279 369.74C178.055 370.197 177.728 370.552 177.299 370.804C176.879 371.047 176.407 371.168 175.885 371.168ZM184.823 371.168C184.413 371.168 184.035 371.107 183.689 370.986C183.353 370.855 183.059 370.683 182.807 370.468C182.555 370.244 182.355 369.992 182.205 369.712L182.121 371H181.225V360.92H182.205V365.218C182.439 364.817 182.775 364.476 183.213 364.196C183.652 363.916 184.189 363.776 184.823 363.776C185.514 363.776 186.116 363.939 186.629 364.266C187.143 364.583 187.535 365.022 187.805 365.582C188.085 366.133 188.225 366.763 188.225 367.472C188.225 368.181 188.085 368.816 187.805 369.376C187.525 369.936 187.129 370.375 186.615 370.692C186.111 371.009 185.514 371.168 184.823 371.168ZM184.753 370.314C185.248 370.314 185.677 370.197 186.041 369.964C186.405 369.731 186.695 369.399 186.909 368.97C187.124 368.541 187.231 368.041 187.231 367.472C187.231 366.893 187.124 366.394 186.909 365.974C186.695 365.545 186.401 365.213 186.027 364.98C185.663 364.747 185.239 364.63 184.753 364.63C184.268 364.63 183.834 364.747 183.451 364.98C183.078 365.213 182.784 365.545 182.569 365.974C182.364 366.403 182.261 366.903 182.261 367.472C182.261 368.051 182.364 368.555 182.569 368.984C182.784 369.404 183.078 369.731 183.451 369.964C183.834 370.197 184.268 370.314 184.753 370.314ZM189.907 371V360.92H190.887V371H189.907ZM195.898 371.168C195.244 371.168 194.666 371.014 194.162 370.706C193.667 370.398 193.275 369.969 192.986 369.418C192.706 368.858 192.566 368.205 192.566 367.458C192.566 366.711 192.706 366.063 192.986 365.512C193.266 364.961 193.658 364.537 194.162 364.238C194.675 363.93 195.263 363.776 195.926 363.776C196.607 363.776 197.181 363.93 197.648 364.238C198.124 364.546 198.483 364.947 198.726 365.442C198.978 365.937 199.104 366.478 199.104 367.066C199.104 367.159 199.104 367.257 199.104 367.36C199.104 367.453 199.099 367.565 199.09 367.696H193.308V366.87H198.152C198.133 366.151 197.909 365.596 197.48 365.204C197.06 364.812 196.528 364.616 195.884 364.616C195.464 364.616 195.072 364.714 194.708 364.91C194.353 365.097 194.064 365.377 193.84 365.75C193.625 366.114 193.518 366.576 193.518 367.136V367.5C193.518 368.135 193.63 368.662 193.854 369.082C194.078 369.502 194.372 369.815 194.736 370.02C195.109 370.225 195.496 370.328 195.898 370.328C196.43 370.328 196.868 370.211 197.214 369.978C197.559 369.735 197.806 369.404 197.956 368.984H198.922C198.8 369.395 198.604 369.768 198.334 370.104C198.072 370.44 197.736 370.701 197.326 370.888C196.915 371.075 196.439 371.168 195.898 371.168ZM21.2257 390.168C20.815 390.168 20.437 390.107 20.0917 389.986C19.7557 389.855 19.4617 389.683 19.2097 389.468C18.9577 389.244 18.757 388.992 18.6077 388.712L18.5237 390H17.6277V379.92H18.6077V384.218C18.841 383.817 19.177 383.476 19.6157 383.196C20.0543 382.916 20.591 382.776 21.2257 382.776C21.9163 382.776 22.5183 382.939 23.0317 383.266C23.545 383.583 23.937 384.022 24.2077 384.582C24.4877 385.133 24.6277 385.763 24.6277 386.472C24.6277 387.181 24.4877 387.816 24.2077 388.376C23.9277 388.936 23.531 389.375 23.0177 389.692C22.5137 390.009 21.9163 390.168 21.2257 390.168ZM21.1557 389.314C21.6503 389.314 22.0797 389.197 22.4437 388.964C22.8077 388.731 23.097 388.399 23.3117 387.97C23.5263 387.541 23.6337 387.041 23.6337 386.472C23.6337 385.893 23.5263 385.394 23.3117 384.974C23.097 384.545 22.803 384.213 22.4297 383.98C22.0657 383.747 21.641 383.63 21.1557 383.63C20.6703 383.63 20.2363 383.747 19.8537 383.98C19.4803 384.213 19.1863 384.545 18.9717 384.974C18.7663 385.403 18.6637 385.903 18.6637 386.472C18.6637 387.051 18.7663 387.555 18.9717 387.984C19.1863 388.404 19.4803 388.731 19.8537 388.964C20.2363 389.197 20.6703 389.314 21.1557 389.314ZM29.4173 390.168C28.7733 390.168 28.19 390.019 27.6673 389.72C27.154 389.412 26.748 388.983 26.4493 388.432C26.1506 387.872 26.0013 387.223 26.0013 386.486C26.0013 385.721 26.1506 385.063 26.4493 384.512C26.7573 383.961 27.1726 383.537 27.6953 383.238C28.218 382.93 28.8013 382.776 29.4453 382.776C30.1173 382.776 30.71 382.93 31.2233 383.238C31.7366 383.537 32.1426 383.961 32.4413 384.512C32.74 385.063 32.8893 385.721 32.8893 386.486C32.8893 387.223 32.7353 387.872 32.4273 388.432C32.1286 388.983 31.718 389.412 31.1953 389.72C30.682 390.019 30.0893 390.168 29.4173 390.168ZM29.4313 389.328C29.87 389.328 30.2713 389.221 30.6353 389.006C31.0086 388.791 31.3073 388.474 31.5313 388.054C31.7646 387.625 31.8813 387.097 31.8813 386.472C31.8813 385.837 31.7693 385.31 31.5453 384.89C31.3213 384.47 31.0226 384.157 30.6493 383.952C30.2853 383.737 29.884 383.63 29.4453 383.63C29.0253 383.63 28.6286 383.737 28.2553 383.952C27.882 384.167 27.5786 384.484 27.3453 384.904C27.1213 385.315 27.0093 385.837 27.0093 386.472C27.0093 387.097 27.1213 387.625 27.3453 388.054C27.5693 388.474 27.8633 388.791 28.2273 389.006C28.6006 389.221 29.002 389.328 29.4313 389.328ZM37.6751 390.168C37.0311 390.168 36.4478 390.019 35.9251 389.72C35.4118 389.412 35.0058 388.983 34.7071 388.432C34.4085 387.872 34.2591 387.223 34.2591 386.486C34.2591 385.721 34.4085 385.063 34.7071 384.512C35.0151 383.961 35.4305 383.537 35.9531 383.238C36.4758 382.93 37.0591 382.776 37.7031 382.776C38.3751 382.776 38.9678 382.93 39.4811 383.238C39.9945 383.537 40.4005 383.961 40.6991 384.512C40.9978 385.063 41.1471 385.721 41.1471 386.486C41.1471 387.223 40.9931 387.872 40.6851 388.432C40.3865 388.983 39.9758 389.412 39.4531 389.72C38.9398 390.019 38.3471 390.168 37.6751 390.168ZM37.6891 389.328C38.1278 389.328 38.5291 389.221 38.8931 389.006C39.2665 388.791 39.5651 388.474 39.7891 388.054C40.0225 387.625 40.1391 387.097 40.1391 386.472C40.1391 385.837 40.0271 385.31 39.8031 384.89C39.5791 384.47 39.2805 384.157 38.9071 383.952C38.5431 383.737 38.1418 383.63 37.7031 383.63C37.2831 383.63 36.8865 383.737 36.5131 383.952C36.1398 384.167 35.8365 384.484 35.6031 384.904C35.3791 385.315 35.2671 385.837 35.2671 386.472C35.2671 387.097 35.3791 387.625 35.6031 388.054C35.8271 388.474 36.1211 388.791 36.4851 389.006C36.8585 389.221 37.2598 389.328 37.6891 389.328ZM47.0949 390L43.6369 386.136L46.8009 382.944H48.0189L44.5049 386.458L44.5189 385.8L48.3549 390H47.0949ZM42.8249 390V379.92H43.8049V390H42.8249ZM49.7599 390V382.944H50.7259V390H49.7599ZM50.2499 381.278C50.0539 381.278 49.8859 381.213 49.7459 381.082C49.6059 380.942 49.5359 380.769 49.5359 380.564C49.5359 380.349 49.6012 380.181 49.7319 380.06C49.8719 379.929 50.0399 379.864 50.2359 379.864C50.4319 379.864 50.5999 379.929 50.7399 380.06C50.8799 380.181 50.9499 380.349 50.9499 380.564C50.9499 380.769 50.8799 380.942 50.7399 381.082C50.6092 381.213 50.4459 381.278 50.2499 381.278ZM52.8601 390V382.944H53.7561L53.8121 384.204C54.0361 383.756 54.3581 383.406 54.7781 383.154C55.2074 382.902 55.6834 382.776 56.2061 382.776C56.7474 382.776 57.2188 382.883 57.6201 383.098C58.0214 383.313 58.3341 383.639 58.5581 384.078C58.7821 384.507 58.8941 385.058 58.8941 385.73V390H57.9141V385.842C57.9141 385.095 57.7508 384.54 57.4241 384.176C57.0974 383.812 56.6308 383.63 56.0241 383.63C55.6134 383.63 55.2401 383.733 54.9041 383.938C54.5774 384.134 54.3161 384.423 54.1201 384.806C53.9334 385.189 53.8401 385.66 53.8401 386.22V390H52.8601ZM63.4788 393.248C62.8534 393.248 62.2981 393.164 61.8128 392.996C61.3368 392.828 60.9588 392.576 60.6788 392.24C60.4081 391.904 60.2728 391.489 60.2728 390.994C60.2728 390.798 60.3054 390.583 60.3708 390.35C60.4454 390.126 60.5854 389.897 60.7908 389.664C60.9961 389.431 61.2854 389.221 61.6588 389.034L62.4568 389.384C61.9621 389.617 61.6401 389.869 61.4908 390.14C61.3414 390.42 61.2668 390.672 61.2668 390.896C61.2668 391.232 61.3601 391.512 61.5468 391.736C61.7428 391.96 62.0041 392.128 62.3308 392.24C62.6668 392.361 63.0494 392.422 63.4788 392.422C63.9081 392.422 64.2768 392.357 64.5848 392.226C64.9021 392.105 65.1448 391.927 65.3128 391.694C65.4808 391.47 65.5648 391.209 65.5648 390.91C65.5648 390.565 65.4294 390.271 65.1588 390.028C64.8974 389.795 64.4074 389.659 63.6888 389.622C63.1194 389.585 62.6481 389.538 62.2748 389.482C61.9108 389.417 61.6074 389.342 61.3648 389.258C61.1314 389.165 60.9354 389.067 60.7768 388.964C60.6274 388.861 60.4828 388.749 60.3428 388.628V388.306L61.6868 387.032L62.5828 387.354L61.2668 388.53L61.3508 388.152C61.4534 388.227 61.5514 388.297 61.6448 388.362C61.7474 388.427 61.8781 388.483 62.0368 388.53C62.2048 388.567 62.4334 388.609 62.7228 388.656C63.0214 388.693 63.4228 388.731 63.9268 388.768C64.5708 388.815 65.0841 388.927 65.4668 389.104C65.8494 389.281 66.1294 389.519 66.3068 389.818C66.4841 390.117 66.5728 390.467 66.5728 390.868C66.5728 391.269 66.4608 391.652 66.2368 392.016C66.0221 392.38 65.6861 392.674 65.2288 392.898C64.7808 393.131 64.1974 393.248 63.4788 393.248ZM63.4648 387.76C62.8674 387.76 62.3634 387.648 61.9528 387.424C61.5514 387.2 61.2434 386.901 61.0288 386.528C60.8141 386.145 60.7068 385.725 60.7068 385.268C60.7068 384.801 60.8141 384.381 61.0288 384.008C61.2434 383.635 61.5561 383.336 61.9668 383.112C62.3774 382.888 62.8768 382.776 63.4648 382.776C64.0621 382.776 64.5614 382.888 64.9628 383.112C65.3734 383.336 65.6814 383.635 65.8868 384.008C66.1014 384.381 66.2088 384.801 66.2088 385.268C66.2088 385.725 66.1014 386.145 65.8868 386.528C65.6814 386.901 65.3734 387.2 64.9628 387.424C64.5614 387.648 64.0621 387.76 63.4648 387.76ZM63.4648 386.92C64.0061 386.92 64.4308 386.78 64.7388 386.5C65.0561 386.211 65.2148 385.8 65.2148 385.268C65.2148 384.727 65.0561 384.316 64.7388 384.036C64.4308 383.756 64.0061 383.616 63.4648 383.616C62.9234 383.616 62.4894 383.756 62.1628 384.036C61.8454 384.316 61.6868 384.727 61.6868 385.268C61.6868 385.8 61.8454 386.211 62.1628 386.5C62.4801 386.78 62.9141 386.92 63.4648 386.92ZM64.6128 383.826L64.2628 382.944H67.1188V383.742L64.6128 383.826ZM71.0634 390.168C70.5034 390.168 70.0087 390.075 69.5794 389.888C69.1594 389.701 68.8187 389.435 68.5574 389.09C68.3054 388.735 68.1514 388.315 68.0954 387.83H69.1034C69.1594 388.101 69.2667 388.348 69.4254 388.572C69.5934 388.796 69.8174 388.978 70.0974 389.118C70.3774 389.249 70.7087 389.314 71.0914 389.314C71.446 389.314 71.7354 389.263 71.9594 389.16C72.1927 389.048 72.3654 388.903 72.4774 388.726C72.5987 388.539 72.6594 388.334 72.6594 388.11C72.6594 387.802 72.5847 387.564 72.4354 387.396C72.2954 387.219 72.09 387.088 71.8194 387.004C71.5487 386.92 71.222 386.841 70.8394 386.766C70.522 386.71 70.2187 386.635 69.9294 386.542C69.64 386.449 69.3787 386.327 69.1454 386.178C68.9214 386.029 68.744 385.842 68.6134 385.618C68.4827 385.385 68.4174 385.114 68.4174 384.806C68.4174 384.405 68.5154 384.055 68.7114 383.756C68.9167 383.448 69.206 383.21 69.5794 383.042C69.9527 382.865 70.3914 382.776 70.8954 382.776C71.614 382.776 72.202 382.958 72.6594 383.322C73.1167 383.677 73.3827 384.199 73.4574 384.89H72.4774C72.44 384.507 72.2814 384.204 72.0014 383.98C71.7214 383.756 71.3434 383.644 70.8674 383.644C70.4007 383.644 70.0414 383.742 69.7894 383.938C69.5467 384.125 69.4254 384.381 69.4254 384.708C69.4254 384.913 69.4907 385.091 69.6214 385.24C69.752 385.389 69.9434 385.52 70.1954 385.632C70.4567 385.735 70.774 385.823 71.1474 385.898C71.5954 385.982 72.006 386.094 72.3794 386.234C72.762 386.365 73.07 386.57 73.3034 386.85C73.546 387.121 73.6674 387.508 73.6674 388.012C73.6767 388.432 73.574 388.805 73.3594 389.132C73.1447 389.459 72.8414 389.715 72.4494 389.902C72.0574 390.079 71.5954 390.168 71.0634 390.168Z" fill="white"/>
</svg>
