<svg width="224" height="411" viewBox="0 0 224 411" fill="none" xmlns="http://www.w3.org/2000/svg">
<g clip-path="url(#clip0_2050_8221)">
<rect width="224" height="411" rx="10" fill="#F4F6FF"/>
<rect y="206" width="224" height="205.5" rx="10" fill="#11111C"/>
<path d="M22.736 279.192C21.9147 279.192 21.2 279.043 20.592 278.744C19.9947 278.445 19.536 278.029 19.216 277.496C18.896 276.952 18.736 276.333 18.736 275.64H19.904C19.904 276.109 20.0107 276.541 20.224 276.936C20.4373 277.331 20.752 277.651 21.168 277.896C21.584 278.131 22.1067 278.248 22.736 278.248C23.2907 278.248 23.7547 278.157 24.128 277.976C24.512 277.784 24.8053 277.533 25.008 277.224C25.2107 276.915 25.312 276.563 25.312 276.168C25.312 275.699 25.2107 275.32 25.008 275.032C24.816 274.744 24.5493 274.509 24.208 274.328C23.8667 274.147 23.4773 273.992 23.04 273.864C22.6133 273.725 22.16 273.576 21.68 273.416C20.816 273.117 20.1813 272.749 19.776 272.312C19.3707 271.875 19.1627 271.315 19.152 270.632C19.152 270.045 19.2853 269.528 19.552 269.08C19.8293 268.621 20.2293 268.264 20.752 268.008C21.2747 267.741 21.8933 267.608 22.608 267.608C23.3013 267.608 23.904 267.741 24.416 268.008C24.9387 268.264 25.344 268.627 25.632 269.096C25.92 269.555 26.064 270.083 26.064 270.68H24.912C24.912 270.339 24.8213 270.008 24.64 269.688C24.4693 269.357 24.208 269.091 23.856 268.888C23.5147 268.675 23.0773 268.568 22.544 268.568C22.1067 268.568 21.7173 268.648 21.376 268.808C21.0453 268.957 20.784 269.181 20.592 269.48C20.4 269.768 20.304 270.109 20.304 270.504C20.304 270.888 20.3893 271.203 20.56 271.448C20.7307 271.693 20.9707 271.896 21.28 272.056C21.5893 272.216 21.952 272.365 22.368 272.504C22.784 272.632 23.248 272.781 23.76 272.952C24.2827 273.133 24.7467 273.352 25.152 273.608C25.5573 273.864 25.8773 274.195 26.112 274.6C26.3467 274.995 26.464 275.496 26.464 276.104C26.464 276.627 26.3253 277.128 26.048 277.608C25.7813 278.077 25.3707 278.461 24.816 278.76C24.2613 279.048 23.568 279.192 22.736 279.192ZM30.9308 279.192C30.2801 279.192 29.7361 279.075 29.2988 278.84C28.8721 278.605 28.5521 278.301 28.3388 277.928C28.1361 277.555 28.0348 277.144 28.0348 276.696C28.0348 276.141 28.1734 275.672 28.4508 275.288C28.7388 274.904 29.1388 274.616 29.6508 274.424C30.1628 274.232 30.7601 274.136 31.4427 274.136H33.6188C33.6188 273.613 33.5388 273.171 33.3788 272.808C33.2188 272.445 32.9841 272.173 32.6748 271.992C32.3654 271.8 31.9761 271.704 31.5068 271.704C30.9628 271.704 30.4934 271.843 30.0988 272.12C29.7041 272.397 29.4588 272.803 29.3628 273.336H28.1948C28.2588 272.771 28.4508 272.296 28.7708 271.912C29.1014 271.528 29.5068 271.24 29.9868 271.048C30.4668 270.845 30.9734 270.744 31.5068 270.744C32.2534 270.744 32.8614 270.888 33.3308 271.176C33.8001 271.453 34.1521 271.837 34.3868 272.328C34.6214 272.819 34.7388 273.384 34.7388 274.024V279H33.7148L33.6508 277.528C33.5548 277.752 33.4214 277.965 33.2508 278.168C33.0908 278.371 32.8988 278.547 32.6748 278.696C32.4614 278.845 32.2108 278.963 31.9227 279.048C31.6348 279.144 31.3041 279.192 30.9308 279.192ZM31.0588 278.216C31.4534 278.216 31.8054 278.136 32.1148 277.976C32.4348 277.805 32.7068 277.587 32.9308 277.32C33.1548 277.053 33.3254 276.755 33.4428 276.424C33.5601 276.083 33.6188 275.731 33.6188 275.368V275.08H31.5228C30.9574 275.08 30.5041 275.149 30.1628 275.288C29.8214 275.427 29.5761 275.613 29.4268 275.848C29.2774 276.083 29.2028 276.355 29.2028 276.664C29.2028 276.973 29.2721 277.245 29.4108 277.48C29.5494 277.704 29.7574 277.885 30.0348 278.024C30.3228 278.152 30.6641 278.216 31.0588 278.216ZM38.9103 279L35.8383 270.936H37.0063L39.5663 277.912L42.1263 270.936H43.2783L40.1903 279H38.9103ZM47.8576 279.192C47.111 279.192 46.4496 279.016 45.8736 278.664C45.3083 278.312 44.8603 277.821 44.5296 277.192C44.2096 276.552 44.0496 275.805 44.0496 274.952C44.0496 274.099 44.2096 273.357 44.5296 272.728C44.8496 272.099 45.2976 271.613 45.8736 271.272C46.4603 270.92 47.1323 270.744 47.8896 270.744C48.6683 270.744 49.3243 270.92 49.8576 271.272C50.4016 271.624 50.8123 272.083 51.0896 272.648C51.3776 273.213 51.5216 273.832 51.5216 274.504C51.5216 274.611 51.5216 274.723 51.5216 274.84C51.5216 274.947 51.5163 275.075 51.5056 275.224H44.8976V274.28H50.4336C50.4123 273.459 50.1563 272.824 49.6656 272.376C49.1856 271.928 48.5776 271.704 47.8416 271.704C47.3616 271.704 46.9136 271.816 46.4976 272.04C46.0923 272.253 45.7616 272.573 45.5056 273C45.2603 273.416 45.1376 273.944 45.1376 274.584V275C45.1376 275.725 45.2656 276.328 45.5216 276.808C45.7776 277.288 46.1136 277.645 46.5296 277.88C46.9563 278.115 47.399 278.232 47.8576 278.232C48.4656 278.232 48.967 278.099 49.3616 277.832C49.7563 277.555 50.039 277.176 50.2096 276.696H51.3136C51.175 277.165 50.951 277.592 50.6416 277.976C50.343 278.36 49.959 278.659 49.4896 278.872C49.0203 279.085 48.4763 279.192 47.8576 279.192ZM60.673 279.192C60.065 279.192 59.5263 279.075 59.057 278.84C58.5983 278.595 58.241 278.227 57.985 277.736C57.729 277.235 57.601 276.595 57.601 275.816V270.936H58.721V275.688C58.721 276.541 58.9077 277.176 59.281 277.592C59.665 278.008 60.193 278.216 60.865 278.216C61.345 278.216 61.7717 278.104 62.145 277.88C62.529 277.656 62.8277 277.325 63.041 276.888C63.265 276.44 63.377 275.896 63.377 275.256V270.936H64.497V279H63.473L63.409 277.56C63.153 278.083 62.7797 278.488 62.289 278.776C61.809 279.053 61.2703 279.192 60.673 279.192ZM66.7766 282.52V270.936H67.8006L67.8966 272.392C68.0673 272.104 68.2913 271.837 68.5686 271.592C68.846 271.336 69.1766 271.133 69.5606 270.984C69.9553 270.824 70.4033 270.744 70.9046 270.744C71.6833 270.744 72.3606 270.931 72.9366 271.304C73.5233 271.677 73.9766 272.184 74.2966 272.824C74.6166 273.453 74.7766 274.173 74.7766 274.984C74.7766 275.795 74.6113 276.52 74.2806 277.16C73.9606 277.789 73.5126 278.285 72.9366 278.648C72.3606 279.011 71.678 279.192 70.8886 279.192C70.206 279.192 69.6033 279.048 69.0806 278.76C68.5686 278.461 68.174 278.045 67.8966 277.512V282.52H66.7766ZM70.8086 278.216C71.3633 278.216 71.8486 278.083 72.2646 277.816C72.6913 277.549 73.0273 277.176 73.2726 276.696C73.518 276.205 73.6406 275.629 73.6406 274.968C73.6406 274.317 73.518 273.747 73.2726 273.256C73.0273 272.765 72.6913 272.387 72.2646 272.12C71.8486 271.853 71.3633 271.72 70.8086 271.72C70.254 271.72 69.758 271.853 69.3206 272.12C68.894 272.387 68.558 272.765 68.3126 273.256C68.078 273.736 67.9606 274.307 67.9606 274.968C67.9606 275.619 68.078 276.189 68.3126 276.68C68.558 277.171 68.894 277.549 69.3206 277.816C69.758 278.083 70.254 278.216 70.8086 278.216ZM84.1608 279C83.7021 279 83.3074 278.931 82.9768 278.792C82.6461 278.643 82.3901 278.403 82.2088 278.072C82.0381 277.731 81.9528 277.267 81.9528 276.68V271.896H80.5448V270.936H81.9528L82.1128 269.064H83.0728V270.952H85.4888V271.896H83.0728V276.68C83.0728 277.213 83.1794 277.576 83.3928 277.768C83.6061 277.949 83.9848 278.04 84.5288 278.04H85.3608V279H84.1608ZM90.563 279.192C89.827 279.192 89.1603 279.021 88.563 278.68C87.9763 278.328 87.5123 277.837 87.171 277.208C86.8297 276.568 86.659 275.827 86.659 274.984C86.659 274.109 86.8297 273.357 87.171 272.728C87.523 272.099 87.9977 271.613 88.595 271.272C89.1923 270.92 89.859 270.744 90.595 270.744C91.363 270.744 92.0403 270.92 92.627 271.272C93.2137 271.613 93.6777 272.099 94.019 272.728C94.3603 273.357 94.531 274.109 94.531 274.984C94.531 275.827 94.355 276.568 94.003 277.208C93.6617 277.837 93.1923 278.328 92.595 278.68C92.0083 279.021 91.331 279.192 90.563 279.192ZM90.579 278.232C91.0803 278.232 91.539 278.109 91.955 277.864C92.3817 277.619 92.723 277.256 92.979 276.776C93.2457 276.285 93.379 275.683 93.379 274.968C93.379 274.243 93.251 273.64 92.995 273.16C92.739 272.68 92.3977 272.323 91.971 272.088C91.555 271.843 91.0963 271.72 90.595 271.72C90.115 271.72 89.6617 271.843 89.235 272.088C88.8083 272.333 88.4617 272.696 88.195 273.176C87.939 273.645 87.811 274.243 87.811 274.968C87.811 275.683 87.939 276.285 88.195 276.776C88.451 277.256 88.787 277.619 89.203 277.864C89.6297 278.109 90.0883 278.232 90.579 278.232Z" fill="white"/>
<path d="M27.42 323.36C25.94 323.36 24.67 323.1 23.61 322.58C22.55 322.04 21.71 321.32 21.09 320.42C20.47 319.5 20.09 318.47 19.95 317.33H22.89C23.09 318.35 23.59 319.19 24.39 319.85C25.19 320.49 26.2 320.81 27.42 320.81C28.34 320.81 29.13 320.59 29.79 320.15C30.45 319.71 30.96 319.12 31.32 318.38C31.68 317.64 31.86 316.82 31.86 315.92C31.86 314.96 31.67 314.13 31.29 313.43C30.93 312.71 30.42 312.15 29.76 311.75C29.12 311.35 28.37 311.15 27.51 311.15C26.47 311.15 25.57 311.39 24.81 311.87C24.07 312.33 23.53 312.92 23.19 313.64H20.28L22.02 302H33.33V304.61H24.33L23.22 310.49C23.7 309.95 24.34 309.51 25.14 309.17C25.96 308.83 26.89 308.66 27.93 308.66C28.99 308.66 29.94 308.85 30.78 309.23C31.62 309.59 32.33 310.1 32.91 310.76C33.51 311.42 33.96 312.19 34.26 313.07C34.58 313.95 34.74 314.88 34.74 315.86C34.74 316.92 34.57 317.9 34.23 318.8C33.89 319.7 33.4 320.5 32.76 321.2C32.14 321.88 31.37 322.41 30.45 322.79C29.55 323.17 28.54 323.36 27.42 323.36ZM46.8077 323.36C44.9477 323.36 43.3477 322.91 42.0077 322.01C40.6677 321.09 39.6377 319.82 38.9177 318.2C38.1977 316.56 37.8377 314.66 37.8377 312.5C37.8377 310.34 38.1977 308.45 38.9177 306.83C39.6377 305.19 40.6677 303.92 42.0077 303.02C43.3477 302.1 44.9477 301.64 46.8077 301.64C48.6677 301.64 50.2577 302.1 51.5777 303.02C52.9177 303.92 53.9377 305.19 54.6377 306.83C55.3577 308.45 55.7177 310.34 55.7177 312.5C55.7177 314.66 55.3577 316.56 54.6377 318.2C53.9377 319.82 52.9177 321.09 51.5777 322.01C50.2577 322.91 48.6677 323.36 46.8077 323.36ZM46.8077 320.69C47.9277 320.69 48.9277 320.36 49.8077 319.7C50.7077 319.04 51.4077 318.1 51.9077 316.88C52.4077 315.66 52.6577 314.2 52.6577 312.5C52.6577 310.8 52.4077 309.34 51.9077 308.12C51.4077 306.9 50.7077 305.97 49.8077 305.33C48.9277 304.67 47.9277 304.34 46.8077 304.34C45.6677 304.34 44.6477 304.67 43.7477 305.33C42.8477 305.97 42.1477 306.9 41.6477 308.12C41.1477 309.34 40.8977 310.8 40.8977 312.5C40.8977 314.2 41.1477 315.66 41.6477 316.88C42.1477 318.1 42.8477 319.04 43.7477 319.7C44.6477 320.36 45.6677 320.69 46.8077 320.69ZM61.8806 323L73.9406 302H76.9106L64.8506 323H61.8806ZM75.6806 323.36C74.7406 323.36 73.9006 323.15 73.1606 322.73C72.4206 322.31 71.8306 321.72 71.3906 320.96C70.9506 320.18 70.7306 319.27 70.7306 318.23C70.7306 317.15 70.9506 316.23 71.3906 315.47C71.8306 314.71 72.4206 314.12 73.1606 313.7C73.9006 313.28 74.7306 313.07 75.6506 313.07C76.6106 313.07 77.4506 313.28 78.1706 313.7C78.9106 314.12 79.4906 314.71 79.9106 315.47C80.3506 316.23 80.5706 317.15 80.5706 318.23C80.5706 319.27 80.3506 320.18 79.9106 320.96C79.4906 321.72 78.9106 322.31 78.1706 322.73C77.4306 323.15 76.6006 323.36 75.6806 323.36ZM75.6206 321.14C76.0806 321.14 76.4906 321.03 76.8506 320.81C77.2306 320.59 77.5306 320.27 77.7506 319.85C77.9906 319.41 78.1106 318.86 78.1106 318.2C78.1106 317.54 78.0006 317 77.7806 316.58C77.5606 316.14 77.2606 315.81 76.8806 315.59C76.5206 315.37 76.1106 315.26 75.6506 315.26C75.2306 315.26 74.8306 315.37 74.4506 315.59C74.0706 315.81 73.7606 316.14 73.5206 316.58C73.3006 317 73.1906 317.54 73.1906 318.2C73.1906 318.86 73.3006 319.41 73.5206 319.85C73.7606 320.27 74.0606 320.59 74.4206 320.81C74.8006 321.03 75.2006 321.14 75.6206 321.14ZM63.3206 311.96C62.4006 311.96 61.5706 311.75 60.8306 311.33C60.0906 310.91 59.4906 310.32 59.0306 309.56C58.5906 308.78 58.3706 307.86 58.3706 306.8C58.3706 305.74 58.5906 304.83 59.0306 304.07C59.4906 303.31 60.0906 302.72 60.8306 302.3C61.5906 301.88 62.4306 301.67 63.3506 301.67C64.2706 301.67 65.1006 301.88 65.8406 302.3C66.5806 302.72 67.1606 303.31 67.5806 304.07C68.0206 304.83 68.2406 305.74 68.2406 306.8C68.2406 307.86 68.0206 308.78 67.5806 309.56C67.1606 310.32 66.5706 310.91 65.8106 311.33C65.0706 311.75 64.2406 311.96 63.3206 311.96ZM63.3206 309.74C63.7606 309.74 64.1606 309.63 64.5206 309.41C64.9006 309.19 65.2006 308.87 65.4206 308.45C65.6406 308.01 65.7506 307.46 65.7506 306.8C65.7506 306.14 65.6406 305.59 65.4206 305.15C65.2006 304.71 64.9006 304.38 64.5206 304.16C64.1606 303.94 63.7706 303.83 63.3506 303.83C62.9106 303.83 62.4906 303.94 62.0906 304.16C61.7106 304.38 61.4006 304.71 61.1606 305.15C60.9406 305.59 60.8306 306.14 60.8306 306.8C60.8306 307.44 60.9406 307.98 61.1606 308.42C61.4006 308.86 61.7106 309.19 62.0906 309.41C62.4706 309.63 62.8806 309.74 63.3206 309.74Z" fill="white"/>
<path opacity="0.8" d="M22.592 350.168C22.1813 350.168 21.8033 350.107 21.458 349.986C21.122 349.855 20.828 349.683 20.576 349.468C20.324 349.244 20.1233 348.992 19.974 348.712L19.89 350H18.994V339.92H19.974V344.218C20.2073 343.817 20.5433 343.476 20.982 343.196C21.4207 342.916 21.9573 342.776 22.592 342.776C23.2827 342.776 23.8847 342.939 24.398 343.266C24.9113 343.583 25.3033 344.022 25.574 344.582C25.854 345.133 25.994 345.763 25.994 346.472C25.994 347.181 25.854 347.816 25.574 348.376C25.294 348.936 24.8973 349.375 24.384 349.692C23.88 350.009 23.2827 350.168 22.592 350.168ZM22.522 349.314C23.0167 349.314 23.446 349.197 23.81 348.964C24.174 348.731 24.4633 348.399 24.678 347.97C24.8927 347.541 25 347.041 25 346.472C25 345.893 24.8927 345.394 24.678 344.974C24.4633 344.545 24.1693 344.213 23.796 343.98C23.432 343.747 23.0073 343.63 22.522 343.63C22.0367 343.63 21.6027 343.747 21.22 343.98C20.8467 344.213 20.5527 344.545 20.338 344.974C20.1327 345.403 20.03 345.903 20.03 346.472C20.03 347.051 20.1327 347.555 20.338 347.984C20.5527 348.404 20.8467 348.731 21.22 348.964C21.6027 349.197 22.0367 349.314 22.522 349.314ZM27.8704 353.08L29.6064 349.216H29.2284L26.4424 342.944H27.5064L29.9144 348.544L32.4484 342.944H33.4564L28.8924 353.08H27.8704ZM40.8535 350.168C40.2841 350.168 39.8081 350.065 39.4255 349.86C39.0521 349.655 38.7721 349.389 38.5855 349.062C38.4081 348.735 38.3195 348.376 38.3195 347.984C38.3195 347.499 38.4408 347.088 38.6835 346.752C38.9355 346.416 39.2855 346.164 39.7335 345.996C40.1815 345.828 40.7041 345.744 41.3015 345.744H43.2055C43.2055 345.287 43.1355 344.899 42.9955 344.582C42.8555 344.265 42.6501 344.027 42.3795 343.868C42.1088 343.7 41.7681 343.616 41.3575 343.616C40.8815 343.616 40.4708 343.737 40.1255 343.98C39.7801 344.223 39.5655 344.577 39.4815 345.044H38.4595C38.5155 344.549 38.6835 344.134 38.9635 343.798C39.2528 343.462 39.6075 343.21 40.0275 343.042C40.4475 342.865 40.8908 342.776 41.3575 342.776C42.0108 342.776 42.5428 342.902 42.9535 343.154C43.3641 343.397 43.6721 343.733 43.8775 344.162C44.0828 344.591 44.1855 345.086 44.1855 345.646V350H43.2895L43.2335 348.712C43.1495 348.908 43.0328 349.095 42.8835 349.272C42.7435 349.449 42.5755 349.603 42.3795 349.734C42.1928 349.865 41.9735 349.967 41.7215 350.042C41.4695 350.126 41.1801 350.168 40.8535 350.168ZM40.9655 349.314C41.3108 349.314 41.6188 349.244 41.8895 349.104C42.1695 348.955 42.4075 348.763 42.6035 348.53C42.7995 348.297 42.9488 348.035 43.0515 347.746C43.1541 347.447 43.2055 347.139 43.2055 346.822V346.57H41.3715C40.8768 346.57 40.4801 346.631 40.1815 346.752C39.8828 346.873 39.6681 347.037 39.5375 347.242C39.4068 347.447 39.3415 347.685 39.3415 347.956C39.3415 348.227 39.4021 348.465 39.5235 348.67C39.6448 348.866 39.8268 349.025 40.0695 349.146C40.3215 349.258 40.6201 349.314 40.9655 349.314ZM48.585 350.168C48.053 350.168 47.5816 350.065 47.171 349.86C46.7696 349.645 46.457 349.323 46.233 348.894C46.009 348.455 45.897 347.895 45.897 347.214V342.944H46.877V347.102C46.877 347.849 47.0403 348.404 47.367 348.768C47.703 349.132 48.165 349.314 48.753 349.314C49.173 349.314 49.5463 349.216 49.873 349.02C50.209 348.824 50.4703 348.535 50.657 348.152C50.853 347.76 50.951 347.284 50.951 346.724V342.944H51.931V350H51.035L50.979 348.74C50.755 349.197 50.4283 349.552 49.999 349.804C49.579 350.047 49.1076 350.168 48.585 350.168ZM56.5996 350C56.1983 350 55.853 349.939 55.5636 349.818C55.2743 349.687 55.0503 349.477 54.8916 349.188C54.7423 348.889 54.6676 348.483 54.6676 347.97V343.784H53.4356V342.944H54.6676L54.8076 341.306H55.6476V342.958H57.7616V343.784H55.6476V347.97C55.6476 348.437 55.741 348.754 55.9276 348.922C56.1143 349.081 56.4456 349.16 56.9216 349.16H57.6496V350H56.5996ZM62.2016 350.168C61.5576 350.168 60.9743 350.019 60.4516 349.72C59.9383 349.412 59.5323 348.983 59.2336 348.432C58.9349 347.872 58.7856 347.223 58.7856 346.486C58.7856 345.721 58.9349 345.063 59.2336 344.512C59.5416 343.961 59.9569 343.537 60.4796 343.238C61.0023 342.93 61.5856 342.776 62.2296 342.776C62.9016 342.776 63.4943 342.93 64.0076 343.238C64.5209 343.537 64.9269 343.961 65.2256 344.512C65.5243 345.063 65.6736 345.721 65.6736 346.486C65.6736 347.223 65.5196 347.872 65.2116 348.432C64.9129 348.983 64.5023 349.412 63.9796 349.72C63.4663 350.019 62.8736 350.168 62.2016 350.168ZM62.2156 349.328C62.6543 349.328 63.0556 349.221 63.4196 349.006C63.7929 348.791 64.0916 348.474 64.3156 348.054C64.5489 347.625 64.6656 347.097 64.6656 346.472C64.6656 345.837 64.5536 345.31 64.3296 344.89C64.1056 344.47 63.8069 344.157 63.4336 343.952C63.0696 343.737 62.6683 343.63 62.2296 343.63C61.8096 343.63 61.4129 343.737 61.0396 343.952C60.6663 344.167 60.3629 344.484 60.1296 344.904C59.9056 345.315 59.7936 345.837 59.7936 346.472C59.7936 347.097 59.9056 347.625 60.1296 348.054C60.3536 348.474 60.6476 348.791 61.0116 349.006C61.3849 349.221 61.7863 349.328 62.2156 349.328ZM67.3514 350V342.944H68.2474L68.3174 344.008C68.5321 343.616 68.8308 343.313 69.2134 343.098C69.5961 342.883 70.0208 342.776 70.4874 342.776C70.8328 342.776 71.1548 342.827 71.4534 342.93C71.7521 343.033 72.0134 343.187 72.2374 343.392C72.4708 343.597 72.6528 343.863 72.7834 344.19C73.0168 343.751 73.3434 343.406 73.7634 343.154C74.1928 342.902 74.6501 342.776 75.1354 342.776C75.6768 342.776 76.1434 342.883 76.5354 343.098C76.9368 343.313 77.2494 343.639 77.4734 344.078C77.6974 344.517 77.8094 345.072 77.8094 345.744V350H76.8294V345.856C76.8294 345.109 76.6754 344.554 76.3674 344.19C76.0594 343.817 75.6301 343.63 75.0794 343.63C74.7061 343.63 74.3654 343.733 74.0574 343.938C73.7494 344.134 73.5068 344.423 73.3294 344.806C73.1521 345.179 73.0634 345.646 73.0634 346.206V350H72.0834V345.856C72.0834 345.109 71.9294 344.554 71.6214 344.19C71.3228 343.817 70.8981 343.63 70.3474 343.63C69.9648 343.63 69.6194 343.733 69.3114 343.938C69.0128 344.134 68.7748 344.428 68.5974 344.82C68.4201 345.203 68.3314 345.679 68.3314 346.248V350H67.3514ZM81.9101 350.168C81.3408 350.168 80.8648 350.065 80.4821 349.86C80.1088 349.655 79.8288 349.389 79.6421 349.062C79.4648 348.735 79.3761 348.376 79.3761 347.984C79.3761 347.499 79.4974 347.088 79.7401 346.752C79.9921 346.416 80.3421 346.164 80.7901 345.996C81.2381 345.828 81.7608 345.744 82.3581 345.744H84.2621C84.2621 345.287 84.1921 344.899 84.0521 344.582C83.9121 344.265 83.7068 344.027 83.4361 343.868C83.1654 343.7 82.8248 343.616 82.4141 343.616C81.9381 343.616 81.5274 343.737 81.1821 343.98C80.8368 344.223 80.6221 344.577 80.5381 345.044H79.5161C79.5721 344.549 79.7401 344.134 80.0201 343.798C80.3094 343.462 80.6641 343.21 81.0841 343.042C81.5041 342.865 81.9474 342.776 82.4141 342.776C83.0674 342.776 83.5994 342.902 84.0101 343.154C84.4208 343.397 84.7288 343.733 84.9341 344.162C85.1394 344.591 85.2421 345.086 85.2421 345.646V350H84.3461L84.2901 348.712C84.2061 348.908 84.0894 349.095 83.9401 349.272C83.8001 349.449 83.6321 349.603 83.4361 349.734C83.2494 349.865 83.0301 349.967 82.7781 350.042C82.5261 350.126 82.2368 350.168 81.9101 350.168ZM82.0221 349.314C82.3674 349.314 82.6754 349.244 82.9461 349.104C83.2261 348.955 83.4641 348.763 83.6601 348.53C83.8561 348.297 84.0054 348.035 84.1081 347.746C84.2108 347.447 84.2621 347.139 84.2621 346.822V346.57H82.4281C81.9334 346.57 81.5368 346.631 81.2381 346.752C80.9394 346.873 80.7248 347.037 80.5941 347.242C80.4634 347.447 80.3981 347.685 80.3981 347.956C80.3981 348.227 80.4588 348.465 80.5801 348.67C80.7014 348.866 80.8834 349.025 81.1261 349.146C81.3781 349.258 81.6768 349.314 82.0221 349.314ZM89.5489 350C89.1475 350 88.8022 349.939 88.5129 349.818C88.2235 349.687 87.9995 349.477 87.8409 349.188C87.6915 348.889 87.6169 348.483 87.6169 347.97V343.784H86.3849V342.944H87.6169L87.7569 341.306H88.5969V342.958H90.7109V343.784H88.5969V347.97C88.5969 348.437 88.6902 348.754 88.8769 348.922C89.0635 349.081 89.3949 349.16 89.8709 349.16H90.5989V350H89.5489ZM92.3742 350V342.944H93.3402V350H92.3742ZM92.8642 341.278C92.6682 341.278 92.5002 341.213 92.3602 341.082C92.2202 340.942 92.1502 340.769 92.1502 340.564C92.1502 340.349 92.2156 340.181 92.3462 340.06C92.4862 339.929 92.6542 339.864 92.8502 339.864C93.0462 339.864 93.2142 339.929 93.3542 340.06C93.4942 340.181 93.5642 340.349 93.5642 340.564C93.5642 340.769 93.4942 340.942 93.3542 341.082C93.2236 341.213 93.0602 341.278 92.8642 341.278ZM95.4745 350V342.944H96.3705L96.4265 344.204C96.6505 343.756 96.9725 343.406 97.3925 343.154C97.8218 342.902 98.2978 342.776 98.8205 342.776C99.3618 342.776 99.8331 342.883 100.234 343.098C100.636 343.313 100.948 343.639 101.172 344.078C101.396 344.507 101.508 345.058 101.508 345.73V350H100.528V345.842C100.528 345.095 100.365 344.54 100.038 344.176C99.7118 343.812 99.2451 343.63 98.6385 343.63C98.2278 343.63 97.8545 343.733 97.5185 343.938C97.1918 344.134 96.9305 344.423 96.7345 344.806C96.5478 345.189 96.4545 345.66 96.4545 346.22V350H95.4745ZM106.093 353.248C105.468 353.248 104.912 353.164 104.427 352.996C103.951 352.828 103.573 352.576 103.293 352.24C103.022 351.904 102.887 351.489 102.887 350.994C102.887 350.798 102.92 350.583 102.985 350.35C103.06 350.126 103.2 349.897 103.405 349.664C103.61 349.431 103.9 349.221 104.273 349.034L105.071 349.384C104.576 349.617 104.254 349.869 104.105 350.14C103.956 350.42 103.881 350.672 103.881 350.896C103.881 351.232 103.974 351.512 104.161 351.736C104.357 351.96 104.618 352.128 104.945 352.24C105.281 352.361 105.664 352.422 106.093 352.422C106.522 352.422 106.891 352.357 107.199 352.226C107.516 352.105 107.759 351.927 107.927 351.694C108.095 351.47 108.179 351.209 108.179 350.91C108.179 350.565 108.044 350.271 107.773 350.028C107.512 349.795 107.022 349.659 106.303 349.622C105.734 349.585 105.262 349.538 104.889 349.482C104.525 349.417 104.222 349.342 103.979 349.258C103.746 349.165 103.55 349.067 103.391 348.964C103.242 348.861 103.097 348.749 102.957 348.628V348.306L104.301 347.032L105.197 347.354L103.881 348.53L103.965 348.152C104.068 348.227 104.166 348.297 104.259 348.362C104.362 348.427 104.492 348.483 104.651 348.53C104.819 348.567 105.048 348.609 105.337 348.656C105.636 348.693 106.037 348.731 106.541 348.768C107.185 348.815 107.698 348.927 108.081 349.104C108.464 349.281 108.744 349.519 108.921 349.818C109.098 350.117 109.187 350.467 109.187 350.868C109.187 351.269 109.075 351.652 108.851 352.016C108.636 352.38 108.3 352.674 107.843 352.898C107.395 353.131 106.812 353.248 106.093 353.248ZM106.079 347.76C105.482 347.76 104.978 347.648 104.567 347.424C104.166 347.2 103.858 346.901 103.643 346.528C103.428 346.145 103.321 345.725 103.321 345.268C103.321 344.801 103.428 344.381 103.643 344.008C103.858 343.635 104.17 343.336 104.581 343.112C104.992 342.888 105.491 342.776 106.079 342.776C106.676 342.776 107.176 342.888 107.577 343.112C107.988 343.336 108.296 343.635 108.501 344.008C108.716 344.381 108.823 344.801 108.823 345.268C108.823 345.725 108.716 346.145 108.501 346.528C108.296 346.901 107.988 347.2 107.577 347.424C107.176 347.648 106.676 347.76 106.079 347.76ZM106.079 346.92C106.62 346.92 107.045 346.78 107.353 346.5C107.67 346.211 107.829 345.8 107.829 345.268C107.829 344.727 107.67 344.316 107.353 344.036C107.045 343.756 106.62 343.616 106.079 343.616C105.538 343.616 105.104 343.756 104.777 344.036C104.46 344.316 104.301 344.727 104.301 345.268C104.301 345.8 104.46 346.211 104.777 346.5C105.094 346.78 105.528 346.92 106.079 346.92ZM107.227 343.826L106.877 342.944H109.733V343.742L107.227 343.826ZM114.943 350V339.92H115.923V350H114.943ZM120.934 350.168C120.281 350.168 119.702 350.014 119.198 349.706C118.703 349.398 118.311 348.969 118.022 348.418C117.742 347.858 117.602 347.205 117.602 346.458C117.602 345.711 117.742 345.063 118.022 344.512C118.302 343.961 118.694 343.537 119.198 343.238C119.711 342.93 120.299 342.776 120.962 342.776C121.643 342.776 122.217 342.93 122.684 343.238C123.16 343.546 123.519 343.947 123.762 344.442C124.014 344.937 124.14 345.478 124.14 346.066C124.14 346.159 124.14 346.257 124.14 346.36C124.14 346.453 124.135 346.565 124.126 346.696H118.344V345.87H123.188C123.169 345.151 122.945 344.596 122.516 344.204C122.096 343.812 121.564 343.616 120.92 343.616C120.5 343.616 120.108 343.714 119.744 343.91C119.389 344.097 119.1 344.377 118.876 344.75C118.661 345.114 118.554 345.576 118.554 346.136V346.5C118.554 347.135 118.666 347.662 118.89 348.082C119.114 348.502 119.408 348.815 119.772 349.02C120.145 349.225 120.533 349.328 120.934 349.328C121.466 349.328 121.905 349.211 122.25 348.978C122.595 348.735 122.843 348.404 122.992 347.984H123.958C123.837 348.395 123.641 348.768 123.37 349.104C123.109 349.44 122.773 349.701 122.362 349.888C121.951 350.075 121.475 350.168 120.934 350.168ZM127.998 350.168C127.429 350.168 126.953 350.065 126.57 349.86C126.197 349.655 125.917 349.389 125.73 349.062C125.553 348.735 125.464 348.376 125.464 347.984C125.464 347.499 125.585 347.088 125.828 346.752C126.08 346.416 126.43 346.164 126.878 345.996C127.326 345.828 127.849 345.744 128.446 345.744H130.35C130.35 345.287 130.28 344.899 130.14 344.582C130 344.265 129.795 344.027 129.524 343.868C129.253 343.7 128.913 343.616 128.502 343.616C128.026 343.616 127.615 343.737 127.27 343.98C126.925 344.223 126.71 344.577 126.626 345.044H125.604C125.66 344.549 125.828 344.134 126.108 343.798C126.397 343.462 126.752 343.21 127.172 343.042C127.592 342.865 128.035 342.776 128.502 342.776C129.155 342.776 129.687 342.902 130.098 343.154C130.509 343.397 130.817 343.733 131.022 344.162C131.227 344.591 131.33 345.086 131.33 345.646V350H130.434L130.378 348.712C130.294 348.908 130.177 349.095 130.028 349.272C129.888 349.449 129.72 349.603 129.524 349.734C129.337 349.865 129.118 349.967 128.866 350.042C128.614 350.126 128.325 350.168 127.998 350.168ZM128.11 349.314C128.455 349.314 128.763 349.244 129.034 349.104C129.314 348.955 129.552 348.763 129.748 348.53C129.944 348.297 130.093 348.035 130.196 347.746C130.299 347.447 130.35 347.139 130.35 346.822V346.57H128.516C128.021 346.57 127.625 346.631 127.326 346.752C127.027 346.873 126.813 347.037 126.682 347.242C126.551 347.447 126.486 347.685 126.486 347.956C126.486 348.227 126.547 348.465 126.668 348.67C126.789 348.866 126.971 349.025 127.214 349.146C127.466 349.258 127.765 349.314 128.11 349.314ZM136.262 350.168C135.58 350.168 134.983 350.009 134.47 349.692C133.966 349.365 133.574 348.922 133.294 348.362C133.014 347.802 132.874 347.167 132.874 346.458C132.874 345.749 133.014 345.119 133.294 344.568C133.574 344.008 133.97 343.569 134.484 343.252C134.997 342.935 135.594 342.776 136.276 342.776C136.873 342.776 137.396 342.907 137.844 343.168C138.301 343.42 138.651 343.779 138.894 344.246V339.92H139.874V350H138.978L138.894 348.726C138.744 348.969 138.548 349.202 138.306 349.426C138.072 349.65 137.783 349.832 137.438 349.972C137.102 350.103 136.71 350.168 136.262 350.168ZM136.346 349.314C136.84 349.314 137.27 349.197 137.634 348.964C138.007 348.731 138.296 348.399 138.502 347.97C138.716 347.541 138.824 347.041 138.824 346.472C138.824 345.903 138.716 345.403 138.502 344.974C138.296 344.545 138.007 344.213 137.634 343.98C137.27 343.747 136.84 343.63 136.346 343.63C135.86 343.63 135.431 343.747 135.058 343.98C134.684 344.213 134.39 344.545 134.176 344.974C133.97 345.394 133.868 345.893 133.868 346.472C133.868 347.051 133.975 347.555 134.19 347.984C134.404 348.404 134.698 348.731 135.072 348.964C135.445 349.197 135.87 349.314 136.346 349.314ZM148.827 350.168C148.173 350.168 147.59 350.014 147.077 349.706C146.563 349.398 146.157 348.969 145.859 348.418C145.56 347.858 145.411 347.214 145.411 346.486C145.411 345.73 145.56 345.081 145.859 344.54C146.157 343.989 146.563 343.56 147.077 343.252C147.599 342.935 148.183 342.776 148.827 342.776C149.648 342.776 150.329 342.991 150.871 343.42C151.421 343.84 151.771 344.4 151.921 345.1H150.941C150.838 344.633 150.591 344.274 150.199 344.022C149.816 343.761 149.354 343.63 148.813 343.63C148.393 343.63 148.001 343.737 147.637 343.952C147.273 344.157 146.979 344.47 146.755 344.89C146.531 345.31 146.419 345.842 146.419 346.486C146.419 346.962 146.484 347.377 146.615 347.732C146.745 348.087 146.923 348.385 147.147 348.628C147.371 348.861 147.627 349.039 147.917 349.16C148.206 349.281 148.505 349.342 148.813 349.342C149.167 349.342 149.489 349.286 149.779 349.174C150.077 349.053 150.329 348.88 150.535 348.656C150.74 348.432 150.875 348.161 150.941 347.844H151.921C151.781 348.525 151.435 349.085 150.885 349.524C150.334 349.953 149.648 350.168 148.827 350.168ZM155.861 350.168C155.292 350.168 154.816 350.065 154.433 349.86C154.06 349.655 153.78 349.389 153.593 349.062C153.416 348.735 153.327 348.376 153.327 347.984C153.327 347.499 153.449 347.088 153.691 346.752C153.943 346.416 154.293 346.164 154.741 345.996C155.189 345.828 155.712 345.744 156.309 345.744H158.213C158.213 345.287 158.143 344.899 158.003 344.582C157.863 344.265 157.658 344.027 157.387 343.868C157.117 343.7 156.776 343.616 156.365 343.616C155.889 343.616 155.479 343.737 155.133 343.98C154.788 344.223 154.573 344.577 154.489 345.044H153.467C153.523 344.549 153.691 344.134 153.971 343.798C154.261 343.462 154.615 343.21 155.035 343.042C155.455 342.865 155.899 342.776 156.365 342.776C157.019 342.776 157.551 342.902 157.961 343.154C158.372 343.397 158.68 343.733 158.885 344.162C159.091 344.591 159.193 345.086 159.193 345.646V350H158.297L158.241 348.712C158.157 348.908 158.041 349.095 157.891 349.272C157.751 349.449 157.583 349.603 157.387 349.734C157.201 349.865 156.981 349.967 156.729 350.042C156.477 350.126 156.188 350.168 155.861 350.168ZM155.973 349.314C156.319 349.314 156.627 349.244 156.897 349.104C157.177 348.955 157.415 348.763 157.611 348.53C157.807 348.297 157.957 348.035 158.059 347.746C158.162 347.447 158.213 347.139 158.213 346.822V346.57H156.379C155.885 346.57 155.488 346.631 155.189 346.752C154.891 346.873 154.676 347.037 154.545 347.242C154.415 347.447 154.349 347.685 154.349 347.956C154.349 348.227 154.41 348.465 154.531 348.67C154.653 348.866 154.835 349.025 155.077 349.146C155.329 349.258 155.628 349.314 155.973 349.314ZM161.045 353.08V342.944H161.941L162.025 344.218C162.174 343.966 162.37 343.733 162.613 343.518C162.855 343.294 163.145 343.117 163.481 342.986C163.826 342.846 164.218 342.776 164.657 342.776C165.338 342.776 165.931 342.939 166.435 343.266C166.948 343.593 167.345 344.036 167.625 344.596C167.905 345.147 168.045 345.777 168.045 346.486C168.045 347.195 167.9 347.83 167.611 348.39C167.331 348.941 166.939 349.375 166.435 349.692C165.931 350.009 165.333 350.168 164.643 350.168C164.045 350.168 163.518 350.042 163.061 349.79C162.613 349.529 162.267 349.165 162.025 348.698V353.08H161.045ZM164.573 349.314C165.058 349.314 165.483 349.197 165.847 348.964C166.22 348.731 166.514 348.404 166.729 347.984C166.943 347.555 167.051 347.051 167.051 346.472C167.051 345.903 166.943 345.403 166.729 344.974C166.514 344.545 166.22 344.213 165.847 343.98C165.483 343.747 165.058 343.63 164.573 343.63C164.087 343.63 163.653 343.747 163.271 343.98C162.897 344.213 162.603 344.545 162.389 344.974C162.183 345.394 162.081 345.893 162.081 346.472C162.081 347.041 162.183 347.541 162.389 347.97C162.603 348.399 162.897 348.731 163.271 348.964C163.653 349.197 164.087 349.314 164.573 349.314ZM172.127 350C171.726 350 171.38 349.939 171.091 349.818C170.802 349.687 170.578 349.477 170.419 349.188C170.27 348.889 170.195 348.483 170.195 347.97V343.784H168.963V342.944H170.195L170.335 341.306H171.175V342.958H173.289V343.784H171.175V347.97C171.175 348.437 171.268 348.754 171.455 348.922C171.642 349.081 171.973 349.16 172.449 349.16H173.177V350H172.127ZM177.36 350.168C176.828 350.168 176.357 350.065 175.946 349.86C175.545 349.645 175.232 349.323 175.008 348.894C174.784 348.455 174.672 347.895 174.672 347.214V342.944H175.652V347.102C175.652 347.849 175.816 348.404 176.142 348.768C176.478 349.132 176.94 349.314 177.528 349.314C177.948 349.314 178.322 349.216 178.648 349.02C178.984 348.824 179.246 348.535 179.432 348.152C179.628 347.76 179.726 347.284 179.726 346.724V342.944H180.706V350H179.81L179.754 348.74C179.53 349.197 179.204 349.552 178.774 349.804C178.354 350.047 177.883 350.168 177.36 350.168ZM182.701 350V342.944H183.597L183.667 344.302C183.816 343.975 184.017 343.7 184.269 343.476C184.521 343.252 184.824 343.079 185.179 342.958C185.534 342.837 185.935 342.776 186.383 342.776V343.798H186.005C185.706 343.798 185.417 343.84 185.137 343.924C184.857 343.999 184.61 344.129 184.395 344.316C184.18 344.503 184.008 344.755 183.877 345.072C183.746 345.389 183.681 345.786 183.681 346.262V350H182.701ZM190.483 350.168C189.83 350.168 189.251 350.014 188.747 349.706C188.252 349.398 187.86 348.969 187.571 348.418C187.291 347.858 187.151 347.205 187.151 346.458C187.151 345.711 187.291 345.063 187.571 344.512C187.851 343.961 188.243 343.537 188.747 343.238C189.26 342.93 189.848 342.776 190.511 342.776C191.192 342.776 191.766 342.93 192.233 343.238C192.709 343.546 193.068 343.947 193.311 344.442C193.563 344.937 193.689 345.478 193.689 346.066C193.689 346.159 193.689 346.257 193.689 346.36C193.689 346.453 193.684 346.565 193.675 346.696H187.893V345.87H192.737C192.718 345.151 192.494 344.596 192.065 344.204C191.645 343.812 191.113 343.616 190.469 343.616C190.049 343.616 189.657 343.714 189.293 343.91C188.938 344.097 188.649 344.377 188.425 344.75C188.21 345.114 188.103 345.576 188.103 346.136V346.5C188.103 347.135 188.215 347.662 188.439 348.082C188.663 348.502 188.957 348.815 189.321 349.02C189.694 349.225 190.082 349.328 190.483 349.328C191.015 349.328 191.454 349.211 191.799 348.978C192.144 348.735 192.392 348.404 192.541 347.984H193.507C193.386 348.395 193.19 348.768 192.919 349.104C192.658 349.44 192.322 349.701 191.911 349.888C191.5 350.075 191.024 350.168 190.483 350.168ZM21.248 369.168C20.6787 369.168 20.2027 369.065 19.82 368.86C19.4467 368.655 19.1667 368.389 18.98 368.062C18.8027 367.735 18.714 367.376 18.714 366.984C18.714 366.499 18.8353 366.088 19.078 365.752C19.33 365.416 19.68 365.164 20.128 364.996C20.576 364.828 21.0987 364.744 21.696 364.744H23.6C23.6 364.287 23.53 363.899 23.39 363.582C23.25 363.265 23.0447 363.027 22.774 362.868C22.5033 362.7 22.1627 362.616 21.752 362.616C21.276 362.616 20.8653 362.737 20.52 362.98C20.1747 363.223 19.96 363.577 19.876 364.044H18.854C18.91 363.549 19.078 363.134 19.358 362.798C19.6473 362.462 20.002 362.21 20.422 362.042C20.842 361.865 21.2853 361.776 21.752 361.776C22.4053 361.776 22.9373 361.902 23.348 362.154C23.7587 362.397 24.0667 362.733 24.272 363.162C24.4773 363.591 24.58 364.086 24.58 364.646V369H23.684L23.628 367.712C23.544 367.908 23.4273 368.095 23.278 368.272C23.138 368.449 22.97 368.603 22.774 368.734C22.5873 368.865 22.368 368.967 22.116 369.042C21.864 369.126 21.5747 369.168 21.248 369.168ZM21.36 368.314C21.7053 368.314 22.0133 368.244 22.284 368.104C22.564 367.955 22.802 367.763 22.998 367.53C23.194 367.297 23.3433 367.035 23.446 366.746C23.5487 366.447 23.6 366.139 23.6 365.822V365.57H21.766C21.2713 365.57 20.8747 365.631 20.576 365.752C20.2773 365.873 20.0627 366.037 19.932 366.242C19.8013 366.447 19.736 366.685 19.736 366.956C19.736 367.227 19.7967 367.465 19.918 367.67C20.0393 367.866 20.2213 368.025 20.464 368.146C20.716 368.258 21.0147 368.314 21.36 368.314ZM26.4315 369V361.944H27.3275L27.3835 363.204C27.6075 362.756 27.9295 362.406 28.3495 362.154C28.7788 361.902 29.2548 361.776 29.7775 361.776C30.3188 361.776 30.7902 361.883 31.1915 362.098C31.5928 362.313 31.9055 362.639 32.1295 363.078C32.3535 363.507 32.4655 364.058 32.4655 364.73V369H31.4855V364.842C31.4855 364.095 31.3222 363.54 30.9955 363.176C30.6688 362.812 30.2022 362.63 29.5955 362.63C29.1848 362.63 28.8115 362.733 28.4755 362.938C28.1488 363.134 27.8875 363.423 27.6915 363.806C27.5048 364.189 27.4115 364.66 27.4115 365.22V369H26.4315ZM37.4002 369.168C36.7188 369.168 36.1215 369.009 35.6082 368.692C35.1042 368.365 34.7122 367.922 34.4322 367.362C34.1522 366.802 34.0122 366.167 34.0122 365.458C34.0122 364.749 34.1522 364.119 34.4322 363.568C34.7122 363.008 35.1088 362.569 35.6222 362.252C36.1355 361.935 36.7328 361.776 37.4142 361.776C38.0115 361.776 38.5342 361.907 38.9822 362.168C39.4395 362.42 39.7895 362.779 40.0322 363.246V358.92H41.0122V369H40.1162L40.0322 367.726C39.8828 367.969 39.6868 368.202 39.4442 368.426C39.2108 368.65 38.9215 368.832 38.5762 368.972C38.2402 369.103 37.8482 369.168 37.4002 369.168ZM37.4842 368.314C37.9788 368.314 38.4082 368.197 38.7722 367.964C39.1455 367.731 39.4348 367.399 39.6402 366.97C39.8548 366.541 39.9622 366.041 39.9622 365.472C39.9622 364.903 39.8548 364.403 39.6402 363.974C39.4348 363.545 39.1455 363.213 38.7722 362.98C38.4082 362.747 37.9788 362.63 37.4842 362.63C36.9988 362.63 36.5695 362.747 36.1962 362.98C35.8228 363.213 35.5288 363.545 35.3142 363.974C35.1088 364.394 35.0062 364.893 35.0062 365.472C35.0062 366.051 35.1135 366.555 35.3282 366.984C35.5428 367.404 35.8368 367.731 36.2102 367.964C36.5835 368.197 37.0082 368.314 37.4842 368.314ZM49.1113 369.168C48.5419 369.168 48.0659 369.065 47.6833 368.86C47.3099 368.655 47.0299 368.389 46.8433 368.062C46.6659 367.735 46.5773 367.376 46.5773 366.984C46.5773 366.499 46.6986 366.088 46.9413 365.752C47.1933 365.416 47.5433 365.164 47.9913 364.996C48.4393 364.828 48.9619 364.744 49.5593 364.744H51.4633C51.4633 364.287 51.3933 363.899 51.2533 363.582C51.1133 363.265 50.9079 363.027 50.6373 362.868C50.3666 362.7 50.0259 362.616 49.6153 362.616C49.1393 362.616 48.7286 362.737 48.3833 362.98C48.0379 363.223 47.8233 363.577 47.7393 364.044H46.7173C46.7733 363.549 46.9413 363.134 47.2213 362.798C47.5106 362.462 47.8653 362.21 48.2853 362.042C48.7053 361.865 49.1486 361.776 49.6153 361.776C50.2686 361.776 50.8006 361.902 51.2113 362.154C51.6219 362.397 51.9299 362.733 52.1353 363.162C52.3406 363.591 52.4433 364.086 52.4433 364.646V369H51.5473L51.4913 367.712C51.4073 367.908 51.2906 368.095 51.1413 368.272C51.0013 368.449 50.8333 368.603 50.6373 368.734C50.4506 368.865 50.2313 368.967 49.9793 369.042C49.7273 369.126 49.4379 369.168 49.1113 369.168ZM49.2233 368.314C49.5686 368.314 49.8766 368.244 50.1473 368.104C50.4273 367.955 50.6653 367.763 50.8613 367.53C51.0573 367.297 51.2066 367.035 51.3093 366.746C51.4119 366.447 51.4633 366.139 51.4633 365.822V365.57H49.6293C49.1346 365.57 48.7379 365.631 48.4393 365.752C48.1406 365.873 47.9259 366.037 47.7953 366.242C47.6646 366.447 47.5993 366.685 47.5993 366.956C47.5993 367.227 47.6599 367.465 47.7813 367.67C47.9026 367.866 48.0846 368.025 48.3273 368.146C48.5793 368.258 48.8779 368.314 49.2233 368.314ZM56.8848 369.168C56.3248 369.168 55.8301 369.075 55.4008 368.888C54.9808 368.701 54.6401 368.435 54.3788 368.09C54.1268 367.735 53.9728 367.315 53.9168 366.83H54.9248C54.9808 367.101 55.0881 367.348 55.2468 367.572C55.4148 367.796 55.6388 367.978 55.9188 368.118C56.1988 368.249 56.5301 368.314 56.9128 368.314C57.2674 368.314 57.5568 368.263 57.7808 368.16C58.0141 368.048 58.1868 367.903 58.2988 367.726C58.4201 367.539 58.4808 367.334 58.4808 367.11C58.4808 366.802 58.4061 366.564 58.2568 366.396C58.1168 366.219 57.9114 366.088 57.6408 366.004C57.3701 365.92 57.0434 365.841 56.6608 365.766C56.3434 365.71 56.0401 365.635 55.7508 365.542C55.4614 365.449 55.2001 365.327 54.9668 365.178C54.7428 365.029 54.5654 364.842 54.4348 364.618C54.3041 364.385 54.2388 364.114 54.2388 363.806C54.2388 363.405 54.3368 363.055 54.5328 362.756C54.7381 362.448 55.0274 362.21 55.4008 362.042C55.7741 361.865 56.2128 361.776 56.7168 361.776C57.4354 361.776 58.0234 361.958 58.4808 362.322C58.9381 362.677 59.2041 363.199 59.2788 363.89H58.2988C58.2614 363.507 58.1028 363.204 57.8228 362.98C57.5428 362.756 57.1648 362.644 56.6888 362.644C56.2221 362.644 55.8628 362.742 55.6108 362.938C55.3681 363.125 55.2468 363.381 55.2468 363.708C55.2468 363.913 55.3121 364.091 55.4428 364.24C55.5734 364.389 55.7648 364.52 56.0168 364.632C56.2781 364.735 56.5954 364.823 56.9688 364.898C57.4168 364.982 57.8274 365.094 58.2008 365.234C58.5834 365.365 58.8914 365.57 59.1248 365.85C59.3674 366.121 59.4888 366.508 59.4888 367.012C59.4981 367.432 59.3954 367.805 59.1808 368.132C58.9661 368.459 58.6628 368.715 58.2708 368.902C57.8788 369.079 57.4168 369.168 56.8848 369.168ZM63.8164 369.168C63.2564 369.168 62.7618 369.075 62.3324 368.888C61.9124 368.701 61.5718 368.435 61.3104 368.09C61.0584 367.735 60.9044 367.315 60.8484 366.83H61.8564C61.9124 367.101 62.0198 367.348 62.1784 367.572C62.3464 367.796 62.5704 367.978 62.8504 368.118C63.1304 368.249 63.4618 368.314 63.8444 368.314C64.1991 368.314 64.4884 368.263 64.7124 368.16C64.9458 368.048 65.1184 367.903 65.2304 367.726C65.3518 367.539 65.4124 367.334 65.4124 367.11C65.4124 366.802 65.3378 366.564 65.1884 366.396C65.0484 366.219 64.8431 366.088 64.5724 366.004C64.3018 365.92 63.9751 365.841 63.5924 365.766C63.2751 365.71 62.9718 365.635 62.6824 365.542C62.3931 365.449 62.1318 365.327 61.8984 365.178C61.6744 365.029 61.4971 364.842 61.3664 364.618C61.2358 364.385 61.1704 364.114 61.1704 363.806C61.1704 363.405 61.2684 363.055 61.4644 362.756C61.6698 362.448 61.9591 362.21 62.3324 362.042C62.7058 361.865 63.1444 361.776 63.6484 361.776C64.3671 361.776 64.9551 361.958 65.4124 362.322C65.8698 362.677 66.1358 363.199 66.2104 363.89H65.2304C65.1931 363.507 65.0344 363.204 64.7544 362.98C64.4744 362.756 64.0964 362.644 63.6204 362.644C63.1538 362.644 62.7944 362.742 62.5424 362.938C62.2998 363.125 62.1784 363.381 62.1784 363.708C62.1784 363.913 62.2438 364.091 62.3744 364.24C62.5051 364.389 62.6964 364.52 62.9484 364.632C63.2098 364.735 63.5271 364.823 63.9004 364.898C64.3484 364.982 64.7591 365.094 65.1324 365.234C65.5151 365.365 65.8231 365.57 66.0564 365.85C66.2991 366.121 66.4204 366.508 66.4204 367.012C66.4298 367.432 66.3271 367.805 66.1124 368.132C65.8978 368.459 65.5944 368.715 65.2024 368.902C64.8104 369.079 64.3484 369.168 63.8164 369.168ZM68.2981 369V361.944H69.2641V369H68.2981ZM68.7881 360.278C68.5921 360.278 68.4241 360.213 68.2841 360.082C68.1441 359.942 68.0741 359.769 68.0741 359.564C68.0741 359.349 68.1394 359.181 68.2701 359.06C68.4101 358.929 68.5781 358.864 68.7741 358.864C68.9701 358.864 69.1381 358.929 69.2781 359.06C69.4181 359.181 69.4881 359.349 69.4881 359.564C69.4881 359.769 69.4181 359.942 69.2781 360.082C69.1474 360.213 68.9841 360.278 68.7881 360.278ZM74.1283 372.248C73.503 372.248 72.9476 372.164 72.4623 371.996C71.9863 371.828 71.6083 371.576 71.3283 371.24C71.0576 370.904 70.9223 370.489 70.9223 369.994C70.9223 369.798 70.955 369.583 71.0203 369.35C71.095 369.126 71.235 368.897 71.4403 368.664C71.6456 368.431 71.935 368.221 72.3083 368.034L73.1063 368.384C72.6116 368.617 72.2896 368.869 72.1403 369.14C71.991 369.42 71.9163 369.672 71.9163 369.896C71.9163 370.232 72.0096 370.512 72.1963 370.736C72.3923 370.96 72.6536 371.128 72.9803 371.24C73.3163 371.361 73.699 371.422 74.1283 371.422C74.5576 371.422 74.9263 371.357 75.2343 371.226C75.5516 371.105 75.7943 370.927 75.9623 370.694C76.1303 370.47 76.2143 370.209 76.2143 369.91C76.2143 369.565 76.079 369.271 75.8083 369.028C75.547 368.795 75.057 368.659 74.3383 368.622C73.769 368.585 73.2976 368.538 72.9243 368.482C72.5603 368.417 72.257 368.342 72.0143 368.258C71.781 368.165 71.585 368.067 71.4263 367.964C71.277 367.861 71.1323 367.749 70.9923 367.628V367.306L72.3363 366.032L73.2323 366.354L71.9163 367.53L72.0003 367.152C72.103 367.227 72.201 367.297 72.2943 367.362C72.397 367.427 72.5276 367.483 72.6863 367.53C72.8543 367.567 73.083 367.609 73.3723 367.656C73.671 367.693 74.0723 367.731 74.5763 367.768C75.2203 367.815 75.7336 367.927 76.1163 368.104C76.499 368.281 76.779 368.519 76.9563 368.818C77.1336 369.117 77.2223 369.467 77.2223 369.868C77.2223 370.269 77.1103 370.652 76.8863 371.016C76.6716 371.38 76.3356 371.674 75.8783 371.898C75.4303 372.131 74.847 372.248 74.1283 372.248ZM74.1143 366.76C73.517 366.76 73.013 366.648 72.6023 366.424C72.201 366.2 71.893 365.901 71.6783 365.528C71.4636 365.145 71.3563 364.725 71.3563 364.268C71.3563 363.801 71.4636 363.381 71.6783 363.008C71.893 362.635 72.2056 362.336 72.6163 362.112C73.027 361.888 73.5263 361.776 74.1143 361.776C74.7116 361.776 75.211 361.888 75.6123 362.112C76.023 362.336 76.331 362.635 76.5363 363.008C76.751 363.381 76.8583 363.801 76.8583 364.268C76.8583 364.725 76.751 365.145 76.5363 365.528C76.331 365.901 76.023 366.2 75.6123 366.424C75.211 366.648 74.7116 366.76 74.1143 366.76ZM74.1143 365.92C74.6556 365.92 75.0803 365.78 75.3883 365.5C75.7056 365.211 75.8643 364.8 75.8643 364.268C75.8643 363.727 75.7056 363.316 75.3883 363.036C75.0803 362.756 74.6556 362.616 74.1143 362.616C73.573 362.616 73.139 362.756 72.8123 363.036C72.495 363.316 72.3363 363.727 72.3363 364.268C72.3363 364.8 72.495 365.211 72.8123 365.5C73.1296 365.78 73.5636 365.92 74.1143 365.92ZM75.2623 362.826L74.9123 361.944H77.7683V362.742L75.2623 362.826ZM79.1229 369V361.944H80.0189L80.0749 363.204C80.2989 362.756 80.6209 362.406 81.0409 362.154C81.4702 361.902 81.9462 361.776 82.4689 361.776C83.0102 361.776 83.4816 361.883 83.8829 362.098C84.2842 362.313 84.5969 362.639 84.8209 363.078C85.0449 363.507 85.1569 364.058 85.1569 364.73V369H84.1769V364.842C84.1769 364.095 84.0136 363.54 83.6869 363.176C83.3602 362.812 82.8936 362.63 82.2869 362.63C81.8762 362.63 81.5029 362.733 81.1669 362.938C80.8402 363.134 80.5789 363.423 80.3829 363.806C80.1962 364.189 80.1029 364.66 80.1029 365.22V369H79.1229ZM87.0116 369V361.944H87.9076L87.9776 363.008C88.1922 362.616 88.4909 362.313 88.8736 362.098C89.2562 361.883 89.6809 361.776 90.1476 361.776C90.4929 361.776 90.8149 361.827 91.1136 361.93C91.4122 362.033 91.6736 362.187 91.8976 362.392C92.1309 362.597 92.3129 362.863 92.4436 363.19C92.6769 362.751 93.0036 362.406 93.4236 362.154C93.8529 361.902 94.3102 361.776 94.7956 361.776C95.3369 361.776 95.8036 361.883 96.1956 362.098C96.5969 362.313 96.9096 362.639 97.1336 363.078C97.3576 363.517 97.4696 364.072 97.4696 364.744V369H96.4896V364.856C96.4896 364.109 96.3356 363.554 96.0276 363.19C95.7196 362.817 95.2902 362.63 94.7396 362.63C94.3662 362.63 94.0256 362.733 93.7176 362.938C93.4096 363.134 93.1669 363.423 92.9896 363.806C92.8122 364.179 92.7236 364.646 92.7236 365.206V369H91.7436V364.856C91.7436 364.109 91.5896 363.554 91.2816 363.19C90.9829 362.817 90.5582 362.63 90.0076 362.63C89.6249 362.63 89.2796 362.733 88.9716 362.938C88.6729 363.134 88.4349 363.428 88.2576 363.82C88.0802 364.203 87.9916 364.679 87.9916 365.248V369H87.0116ZM102.34 369.168C101.687 369.168 101.108 369.014 100.604 368.706C100.11 368.398 99.7176 367.969 99.4283 367.418C99.1483 366.858 99.0083 366.205 99.0083 365.458C99.0083 364.711 99.1483 364.063 99.4283 363.512C99.7083 362.961 100.1 362.537 100.604 362.238C101.118 361.93 101.706 361.776 102.368 361.776C103.05 361.776 103.624 361.93 104.09 362.238C104.566 362.546 104.926 362.947 105.168 363.442C105.42 363.937 105.546 364.478 105.546 365.066C105.546 365.159 105.546 365.257 105.546 365.36C105.546 365.453 105.542 365.565 105.532 365.696H99.7503V364.87H104.594C104.576 364.151 104.352 363.596 103.922 363.204C103.502 362.812 102.97 362.616 102.326 362.616C101.906 362.616 101.514 362.714 101.15 362.91C100.796 363.097 100.506 363.377 100.282 363.75C100.068 364.114 99.9603 364.576 99.9603 365.136V365.5C99.9603 366.135 100.072 366.662 100.296 367.082C100.52 367.502 100.814 367.815 101.178 368.02C101.552 368.225 101.939 368.328 102.34 368.328C102.872 368.328 103.311 368.211 103.656 367.978C104.002 367.735 104.249 367.404 104.398 366.984H105.364C105.243 367.395 105.047 367.768 104.776 368.104C104.515 368.44 104.179 368.701 103.768 368.888C103.358 369.075 102.882 369.168 102.34 369.168ZM107.15 369V361.944H108.046L108.102 363.204C108.326 362.756 108.648 362.406 109.068 362.154C109.498 361.902 109.974 361.776 110.496 361.776C111.038 361.776 111.509 361.883 111.91 362.098C112.312 362.313 112.624 362.639 112.848 363.078C113.072 363.507 113.184 364.058 113.184 364.73V369H112.204V364.842C112.204 364.095 112.041 363.54 111.714 363.176C111.388 362.812 110.921 362.63 110.314 362.63C109.904 362.63 109.53 362.733 109.194 362.938C108.868 363.134 108.606 363.423 108.41 363.806C108.224 364.189 108.13 364.66 108.13 365.22V369H107.15ZM117.713 369C117.312 369 116.966 368.939 116.677 368.818C116.388 368.687 116.164 368.477 116.005 368.188C115.856 367.889 115.781 367.483 115.781 366.97V362.784H114.549V361.944H115.781L115.921 360.306H116.761V361.958H118.875V362.784H116.761V366.97C116.761 367.437 116.854 367.754 117.041 367.922C117.228 368.081 117.559 368.16 118.035 368.16H118.763V369H117.713ZM124.674 369V360.726C124.674 360.315 124.739 359.979 124.87 359.718C125.01 359.447 125.215 359.247 125.486 359.116C125.756 358.985 126.097 358.92 126.508 358.92H127.306V359.76H126.676C126.302 359.76 126.036 359.835 125.878 359.984C125.728 360.133 125.654 360.395 125.654 360.768V369H124.674ZM123.582 362.784V361.944H127.488V362.784H123.582ZM128.916 369V361.944H129.812L129.882 363.302C130.031 362.975 130.232 362.7 130.484 362.476C130.736 362.252 131.039 362.079 131.394 361.958C131.749 361.837 132.15 361.776 132.598 361.776V362.798H132.22C131.921 362.798 131.632 362.84 131.352 362.924C131.072 362.999 130.825 363.129 130.61 363.316C130.395 363.503 130.223 363.755 130.092 364.072C129.961 364.389 129.896 364.786 129.896 365.262V369H128.916ZM136.782 369.168C136.138 369.168 135.554 369.019 135.032 368.72C134.518 368.412 134.112 367.983 133.814 367.432C133.515 366.872 133.366 366.223 133.366 365.486C133.366 364.721 133.515 364.063 133.814 363.512C134.122 362.961 134.537 362.537 135.06 362.238C135.582 361.93 136.166 361.776 136.81 361.776C137.482 361.776 138.074 361.93 138.588 362.238C139.101 362.537 139.507 362.961 139.806 363.512C140.104 364.063 140.254 364.721 140.254 365.486C140.254 366.223 140.1 366.872 139.792 367.432C139.493 367.983 139.082 368.412 138.56 368.72C138.046 369.019 137.454 369.168 136.782 369.168ZM136.796 368.328C137.234 368.328 137.636 368.221 138 368.006C138.373 367.791 138.672 367.474 138.896 367.054C139.129 366.625 139.246 366.097 139.246 365.472C139.246 364.837 139.134 364.31 138.91 363.89C138.686 363.47 138.387 363.157 138.014 362.952C137.65 362.737 137.248 362.63 136.81 362.63C136.39 362.63 135.993 362.737 135.62 362.952C135.246 363.167 134.943 363.484 134.71 363.904C134.486 364.315 134.374 364.837 134.374 365.472C134.374 366.097 134.486 366.625 134.71 367.054C134.934 367.474 135.228 367.791 135.592 368.006C135.965 368.221 136.366 368.328 136.796 368.328ZM141.932 369V361.944H142.828L142.898 363.008C143.112 362.616 143.411 362.313 143.794 362.098C144.176 361.883 144.601 361.776 145.068 361.776C145.413 361.776 145.735 361.827 146.034 361.93C146.332 362.033 146.594 362.187 146.818 362.392C147.051 362.597 147.233 362.863 147.364 363.19C147.597 362.751 147.924 362.406 148.344 362.154C148.773 361.902 149.23 361.776 149.716 361.776C150.257 361.776 150.724 361.883 151.116 362.098C151.517 362.313 151.83 362.639 152.054 363.078C152.278 363.517 152.39 364.072 152.39 364.744V369H151.41V364.856C151.41 364.109 151.256 363.554 150.948 363.19C150.64 362.817 150.21 362.63 149.66 362.63C149.286 362.63 148.946 362.733 148.638 362.938C148.33 363.134 148.087 363.423 147.91 363.806C147.732 364.179 147.644 364.646 147.644 365.206V369H146.664V364.856C146.664 364.109 146.51 363.554 146.202 363.19C145.903 362.817 145.478 362.63 144.928 362.63C144.545 362.63 144.2 362.733 143.892 362.938C143.593 363.134 143.355 363.428 143.178 363.82C143 364.203 142.912 364.679 142.912 365.248V369H141.932ZM160.346 369.168C159.776 369.168 159.3 369.065 158.918 368.86C158.544 368.655 158.264 368.389 158.078 368.062C157.9 367.735 157.812 367.376 157.812 366.984C157.812 366.499 157.933 366.088 158.176 365.752C158.428 365.416 158.778 365.164 159.226 364.996C159.674 364.828 160.196 364.744 160.794 364.744H162.698C162.698 364.287 162.628 363.899 162.488 363.582C162.348 363.265 162.142 363.027 161.872 362.868C161.601 362.7 161.26 362.616 160.85 362.616C160.374 362.616 159.963 362.737 159.618 362.98C159.272 363.223 159.058 363.577 158.974 364.044H157.952C158.008 363.549 158.176 363.134 158.456 362.798C158.745 362.462 159.1 362.21 159.52 362.042C159.94 361.865 160.383 361.776 160.85 361.776C161.503 361.776 162.035 361.902 162.446 362.154C162.856 362.397 163.164 362.733 163.37 363.162C163.575 363.591 163.678 364.086 163.678 364.646V369H162.782L162.726 367.712C162.642 367.908 162.525 368.095 162.376 368.272C162.236 368.449 162.068 368.603 161.872 368.734C161.685 368.865 161.466 368.967 161.214 369.042C160.962 369.126 160.672 369.168 160.346 369.168ZM160.458 368.314C160.803 368.314 161.111 368.244 161.382 368.104C161.662 367.955 161.9 367.763 162.096 367.53C162.292 367.297 162.441 367.035 162.544 366.746C162.646 366.447 162.698 366.139 162.698 365.822V365.57H160.864C160.369 365.57 159.972 365.631 159.674 365.752C159.375 365.873 159.16 366.037 159.03 366.242C158.899 366.447 158.834 366.685 158.834 366.956C158.834 367.227 158.894 367.465 159.016 367.67C159.137 367.866 159.319 368.025 159.562 368.146C159.814 368.258 160.112 368.314 160.458 368.314ZM165.529 369V358.92H166.509V369H165.529ZM168.496 369V358.92H169.476V369H168.496ZM22.102 388.168C21.4487 388.168 20.8653 388.014 20.352 387.706C19.8387 387.398 19.4327 386.969 19.134 386.418C18.8353 385.858 18.686 385.214 18.686 384.486C18.686 383.73 18.8353 383.081 19.134 382.54C19.4327 381.989 19.8387 381.56 20.352 381.252C20.8747 380.935 21.458 380.776 22.102 380.776C22.9233 380.776 23.6047 380.991 24.146 381.42C24.6967 381.84 25.0467 382.4 25.196 383.1H24.216C24.1133 382.633 23.866 382.274 23.474 382.022C23.0913 381.761 22.6293 381.63 22.088 381.63C21.668 381.63 21.276 381.737 20.912 381.952C20.548 382.157 20.254 382.47 20.03 382.89C19.806 383.31 19.694 383.842 19.694 384.486C19.694 384.962 19.7593 385.377 19.89 385.732C20.0207 386.087 20.198 386.385 20.422 386.628C20.646 386.861 20.9027 387.039 21.192 387.16C21.4813 387.281 21.78 387.342 22.088 387.342C22.4427 387.342 22.7647 387.286 23.054 387.174C23.3527 387.053 23.6047 386.88 23.81 386.656C24.0153 386.432 24.1507 386.161 24.216 385.844H25.196C25.056 386.525 24.7107 387.085 24.16 387.524C23.6093 387.953 22.9233 388.168 22.102 388.168ZM26.8827 388V377.92H27.8627V382.204C28.1053 381.756 28.4413 381.406 28.8707 381.154C29.3 380.902 29.7713 380.776 30.2847 380.776C30.8167 380.776 31.2787 380.883 31.6707 381.098C32.072 381.313 32.38 381.639 32.5947 382.078C32.8187 382.517 32.9307 383.077 32.9307 383.758V388H31.9647V383.87C31.9647 383.114 31.806 382.554 31.4887 382.19C31.1807 381.817 30.7233 381.63 30.1167 381.63C29.6967 381.63 29.314 381.733 28.9687 381.938C28.6327 382.143 28.362 382.442 28.1567 382.834C27.9607 383.217 27.8627 383.693 27.8627 384.262V388H26.8827ZM37.039 388.168C36.4697 388.168 35.9937 388.065 35.611 387.86C35.2377 387.655 34.9577 387.389 34.771 387.062C34.5937 386.735 34.505 386.376 34.505 385.984C34.505 385.499 34.6263 385.088 34.869 384.752C35.121 384.416 35.471 384.164 35.919 383.996C36.367 383.828 36.8897 383.744 37.487 383.744H39.391C39.391 383.287 39.321 382.899 39.181 382.582C39.041 382.265 38.8357 382.027 38.565 381.868C38.2943 381.7 37.9537 381.616 37.543 381.616C37.067 381.616 36.6563 381.737 36.311 381.98C35.9657 382.223 35.751 382.577 35.667 383.044H34.645C34.701 382.549 34.869 382.134 35.149 381.798C35.4383 381.462 35.793 381.21 36.213 381.042C36.633 380.865 37.0763 380.776 37.543 380.776C38.1963 380.776 38.7283 380.902 39.139 381.154C39.5497 381.397 39.8577 381.733 40.063 382.162C40.2683 382.591 40.371 383.086 40.371 383.646V388H39.475L39.419 386.712C39.335 386.908 39.2183 387.095 39.069 387.272C38.929 387.449 38.761 387.603 38.565 387.734C38.3783 387.865 38.159 387.967 37.907 388.042C37.655 388.126 37.3657 388.168 37.039 388.168ZM37.151 387.314C37.4963 387.314 37.8043 387.244 38.075 387.104C38.355 386.955 38.593 386.763 38.789 386.53C38.985 386.297 39.1343 386.035 39.237 385.746C39.3397 385.447 39.391 385.139 39.391 384.822V384.57H37.557C37.0623 384.57 36.6657 384.631 36.367 384.752C36.0683 384.873 35.8537 385.037 35.723 385.242C35.5923 385.447 35.527 385.685 35.527 385.956C35.527 386.227 35.5877 386.465 35.709 386.67C35.8303 386.866 36.0123 387.025 36.255 387.146C36.507 387.258 36.8057 387.314 37.151 387.314ZM42.2225 388V380.944H43.1185L43.1745 382.204C43.3985 381.756 43.7205 381.406 44.1405 381.154C44.5698 380.902 45.0458 380.776 45.5685 380.776C46.1098 380.776 46.5812 380.883 46.9825 381.098C47.3838 381.313 47.6965 381.639 47.9205 382.078C48.1445 382.507 48.2565 383.058 48.2565 383.73V388H47.2765V383.842C47.2765 383.095 47.1132 382.54 46.7865 382.176C46.4598 381.812 45.9932 381.63 45.3865 381.63C44.9758 381.63 44.6025 381.733 44.2665 381.938C43.9398 382.134 43.6785 382.423 43.4825 382.806C43.2958 383.189 43.2025 383.66 43.2025 384.22V388H42.2225ZM50.1112 388V380.944H51.0072L51.0632 382.204C51.2872 381.756 51.6092 381.406 52.0292 381.154C52.4585 380.902 52.9345 380.776 53.4572 380.776C53.9985 380.776 54.4699 380.883 54.8712 381.098C55.2725 381.313 55.5852 381.639 55.8092 382.078C56.0332 382.507 56.1452 383.058 56.1452 383.73V388H55.1652V383.842C55.1652 383.095 55.0019 382.54 54.6752 382.176C54.3485 381.812 53.8819 381.63 53.2752 381.63C52.8645 381.63 52.4912 381.733 52.1552 381.938C51.8285 382.134 51.5672 382.423 51.3712 382.806C51.1845 383.189 51.0912 383.66 51.0912 384.22V388H50.1112ZM61.0239 388.168C60.3705 388.168 59.7919 388.014 59.2879 387.706C58.7932 387.398 58.4012 386.969 58.1119 386.418C57.8319 385.858 57.6919 385.205 57.6919 384.458C57.6919 383.711 57.8319 383.063 58.1119 382.512C58.3919 381.961 58.7839 381.537 59.2879 381.238C59.8012 380.93 60.3892 380.776 61.0519 380.776C61.7332 380.776 62.3072 380.93 62.7739 381.238C63.2499 381.546 63.6092 381.947 63.8519 382.442C64.1039 382.937 64.2299 383.478 64.2299 384.066C64.2299 384.159 64.2299 384.257 64.2299 384.36C64.2299 384.453 64.2252 384.565 64.2159 384.696H58.4339V383.87H63.2779C63.2592 383.151 63.0352 382.596 62.6059 382.204C62.1859 381.812 61.6539 381.616 61.0099 381.616C60.5899 381.616 60.1979 381.714 59.8339 381.91C59.4792 382.097 59.1899 382.377 58.9659 382.75C58.7512 383.114 58.6439 383.576 58.6439 384.136V384.5C58.6439 385.135 58.7559 385.662 58.9799 386.082C59.2039 386.502 59.4979 386.815 59.8619 387.02C60.2352 387.225 60.6225 387.328 61.0239 387.328C61.5559 387.328 61.9945 387.211 62.3399 386.978C62.6852 386.735 62.9325 386.404 63.0819 385.984H64.0479C63.9265 386.395 63.7305 386.768 63.4599 387.104C63.1985 387.44 62.8625 387.701 62.4519 387.888C62.0412 388.075 61.5652 388.168 61.0239 388.168ZM65.8338 388V377.92H66.8138V388H65.8338ZM71.3906 388.168C70.8306 388.168 70.336 388.075 69.9066 387.888C69.4866 387.701 69.146 387.435 68.8846 387.09C68.6326 386.735 68.4786 386.315 68.4226 385.83H69.4306C69.4866 386.101 69.594 386.348 69.7526 386.572C69.9206 386.796 70.1446 386.978 70.4246 387.118C70.7046 387.249 71.036 387.314 71.4186 387.314C71.7733 387.314 72.0626 387.263 72.2866 387.16C72.52 387.048 72.6926 386.903 72.8046 386.726C72.926 386.539 72.9866 386.334 72.9866 386.11C72.9866 385.802 72.912 385.564 72.7626 385.396C72.6226 385.219 72.4173 385.088 72.1466 385.004C71.876 384.92 71.5493 384.841 71.1666 384.766C70.8493 384.71 70.546 384.635 70.2566 384.542C69.9673 384.449 69.706 384.327 69.4726 384.178C69.2486 384.029 69.0713 383.842 68.9406 383.618C68.81 383.385 68.7446 383.114 68.7446 382.806C68.7446 382.405 68.8426 382.055 69.0386 381.756C69.244 381.448 69.5333 381.21 69.9066 381.042C70.28 380.865 70.7186 380.776 71.2226 380.776C71.9413 380.776 72.5293 380.958 72.9866 381.322C73.444 381.677 73.71 382.199 73.7846 382.89H72.8046C72.7673 382.507 72.6086 382.204 72.3286 381.98C72.0486 381.756 71.6706 381.644 71.1946 381.644C70.728 381.644 70.3686 381.742 70.1166 381.938C69.874 382.125 69.7526 382.381 69.7526 382.708C69.7526 382.913 69.818 383.091 69.9486 383.24C70.0793 383.389 70.2706 383.52 70.5226 383.632C70.784 383.735 71.1013 383.823 71.4746 383.898C71.9226 383.982 72.3333 384.094 72.7066 384.234C73.0893 384.365 73.3973 384.57 73.6306 384.85C73.8733 385.121 73.9946 385.508 73.9946 386.012C74.004 386.432 73.9013 386.805 73.6866 387.132C73.472 387.459 73.1686 387.715 72.7766 387.902C72.3846 388.079 71.9226 388.168 71.3906 388.168ZM76.0543 388.07C75.8489 388.07 75.6763 388 75.5363 387.86C75.4056 387.72 75.3403 387.547 75.3403 387.342C75.3403 387.137 75.4056 386.969 75.5363 386.838C75.6763 386.698 75.8489 386.628 76.0543 386.628C76.2596 386.628 76.4276 386.698 76.5583 386.838C76.6983 386.969 76.7683 387.141 76.7683 387.356C76.7683 387.552 76.6983 387.72 76.5583 387.86C76.4276 388 76.2596 388.07 76.0543 388.07Z" fill="white"/>
</g>
<defs>
<clipPath id="clip0_2050_8221">
<rect width="224" height="411" rx="10" fill="white"/>
</clipPath>
</defs>
</svg>
