<svg width="224" height="411" viewBox="0 0 224 411" fill="none" xmlns="http://www.w3.org/2000/svg">
<rect width="224" height="411" rx="10" fill="#F4F6FF"/>
<rect y="123" width="224" height="287.7" rx="10" fill="#11111C"/>
<path d="M19.248 279V267.8H23.008C23.7973 267.8 24.448 267.928 24.96 268.184C25.472 268.44 25.8507 268.781 26.096 269.208C26.352 269.635 26.48 270.109 26.48 270.632C26.48 271.208 26.352 271.688 26.096 272.072C25.8507 272.456 25.5253 272.749 25.12 272.952C24.7253 273.155 24.3093 273.283 23.872 273.336L24.08 273.176C24.5493 273.187 24.9867 273.315 25.392 273.56C25.7973 273.805 26.1227 274.136 26.368 274.552C26.6133 274.957 26.736 275.421 26.736 275.944C26.736 276.499 26.5973 277.011 26.32 277.48C26.0533 277.939 25.6533 278.307 25.12 278.584C24.5867 278.861 23.92 279 23.12 279H19.248ZM20.368 278.056H23.04C23.8507 278.056 24.4747 277.864 24.912 277.48C25.36 277.096 25.584 276.568 25.584 275.896C25.584 275.224 25.3493 274.691 24.88 274.296C24.4213 273.891 23.792 273.688 22.992 273.688H20.368V278.056ZM20.368 272.76H22.976C23.7333 272.76 24.3147 272.579 24.72 272.216C25.1253 271.853 25.328 271.363 25.328 270.744C25.328 270.147 25.1307 269.667 24.736 269.304C24.3413 268.931 23.7387 268.744 22.928 268.744H20.368V272.76ZM32.2193 279.192C31.4833 279.192 30.8166 279.021 30.2193 278.68C29.6326 278.328 29.1686 277.837 28.8273 277.208C28.4859 276.568 28.3153 275.827 28.3153 274.984C28.3153 274.109 28.4859 273.357 28.8273 272.728C29.1793 272.099 29.6539 271.613 30.2513 271.272C30.8486 270.92 31.5153 270.744 32.2513 270.744C33.0193 270.744 33.6966 270.92 34.2833 271.272C34.8699 271.613 35.3339 272.099 35.6753 272.728C36.0166 273.357 36.1873 274.109 36.1873 274.984C36.1873 275.827 36.0113 276.568 35.6593 277.208C35.3179 277.837 34.8486 278.328 34.2513 278.68C33.6646 279.021 32.9873 279.192 32.2193 279.192ZM32.2352 278.232C32.7366 278.232 33.1953 278.109 33.6113 277.864C34.0379 277.619 34.3793 277.256 34.6353 276.776C34.9019 276.285 35.0353 275.683 35.0353 274.968C35.0353 274.243 34.9073 273.64 34.6513 273.16C34.3953 272.68 34.0539 272.323 33.6273 272.088C33.2113 271.843 32.7526 271.72 32.2513 271.72C31.7713 271.72 31.3179 271.843 30.8913 272.088C30.4646 272.333 30.1179 272.696 29.8513 273.176C29.5953 273.645 29.4673 274.243 29.4673 274.968C29.4673 275.683 29.5953 276.285 29.8513 276.776C30.1073 277.256 30.4433 277.619 30.8593 277.864C31.2859 278.109 31.7446 278.232 32.2352 278.232ZM41.6568 279.192C40.9208 279.192 40.2541 279.021 39.6568 278.68C39.0701 278.328 38.6061 277.837 38.2648 277.208C37.9234 276.568 37.7528 275.827 37.7528 274.984C37.7528 274.109 37.9234 273.357 38.2648 272.728C38.6168 272.099 39.0914 271.613 39.6888 271.272C40.2861 270.92 40.9528 270.744 41.6888 270.744C42.4568 270.744 43.1341 270.92 43.7208 271.272C44.3074 271.613 44.7714 272.099 45.1128 272.728C45.4541 273.357 45.6248 274.109 45.6248 274.984C45.6248 275.827 45.4488 276.568 45.0968 277.208C44.7554 277.837 44.2861 278.328 43.6888 278.68C43.1021 279.021 42.4248 279.192 41.6568 279.192ZM41.6727 278.232C42.1741 278.232 42.6328 278.109 43.0488 277.864C43.4754 277.619 43.8168 277.256 44.0728 276.776C44.3394 276.285 44.4728 275.683 44.4728 274.968C44.4728 274.243 44.3448 273.64 44.0888 273.16C43.8328 272.68 43.4914 272.323 43.0648 272.088C42.6488 271.843 42.1901 271.72 41.6888 271.72C41.2088 271.72 40.7554 271.843 40.3288 272.088C39.9021 272.333 39.5554 272.696 39.2888 273.176C39.0328 273.645 38.9048 274.243 38.9048 274.968C38.9048 275.683 39.0328 276.285 39.2888 276.776C39.5448 277.256 39.8808 277.619 40.2968 277.864C40.7234 278.109 41.1821 278.232 41.6727 278.232ZM50.5023 279.192C49.8623 279.192 49.2969 279.085 48.8063 278.872C48.3263 278.659 47.9369 278.355 47.6383 277.96C47.3503 277.555 47.1743 277.075 47.1103 276.52H48.2623C48.3263 276.829 48.4489 277.112 48.6303 277.368C48.8223 277.624 49.0783 277.832 49.3983 277.992C49.7183 278.141 50.0969 278.216 50.5343 278.216C50.9396 278.216 51.2703 278.157 51.5263 278.04C51.7929 277.912 51.9903 277.747 52.1183 277.544C52.2569 277.331 52.3263 277.096 52.3263 276.84C52.3263 276.488 52.2409 276.216 52.0703 276.024C51.9103 275.821 51.6756 275.672 51.3663 275.576C51.0569 275.48 50.6836 275.389 50.2463 275.304C49.8836 275.24 49.5369 275.155 49.2063 275.048C48.8756 274.941 48.5769 274.803 48.3103 274.632C48.0543 274.461 47.8516 274.248 47.7023 273.992C47.5529 273.725 47.4783 273.416 47.4783 273.064C47.4783 272.605 47.5903 272.205 47.8143 271.864C48.0489 271.512 48.3796 271.24 48.8063 271.048C49.2329 270.845 49.7343 270.744 50.3103 270.744C51.1316 270.744 51.8036 270.952 52.3263 271.368C52.8489 271.773 53.1529 272.371 53.2383 273.16H52.1183C52.0756 272.723 51.8943 272.376 51.5743 272.12C51.2543 271.864 50.8223 271.736 50.2783 271.736C49.7449 271.736 49.3343 271.848 49.0463 272.072C48.7689 272.285 48.6303 272.579 48.6303 272.952C48.6303 273.187 48.7049 273.389 48.8543 273.56C49.0036 273.731 49.2223 273.88 49.5103 274.008C49.8089 274.125 50.1716 274.227 50.5983 274.312C51.1103 274.408 51.5796 274.536 52.0063 274.696C52.4436 274.845 52.7956 275.08 53.0623 275.4C53.3396 275.709 53.4783 276.152 53.4783 276.728C53.4889 277.208 53.3716 277.635 53.1263 278.008C52.8809 278.381 52.5343 278.675 52.0863 278.888C51.6383 279.091 51.1103 279.192 50.5023 279.192ZM58.1295 279C57.6708 279 57.2762 278.931 56.9455 278.792C56.6148 278.643 56.3588 278.403 56.1775 278.072C56.0068 277.731 55.9215 277.267 55.9215 276.68V271.896H54.5135V270.936H55.9215L56.0815 269.064H57.0415V270.952H59.4575V271.896H57.0415V276.68C57.0415 277.213 57.1482 277.576 57.3615 277.768C57.5748 277.949 57.9535 278.04 58.4975 278.04H59.3295V279H58.1295ZM65.6048 279V270.936H66.6288L66.7088 272.488C66.8794 272.115 67.1088 271.8 67.3968 271.544C67.6848 271.288 68.0314 271.091 68.4368 270.952C68.8421 270.813 69.3008 270.744 69.8128 270.744V271.912H69.3808C69.0394 271.912 68.7088 271.96 68.3888 272.056C68.0688 272.141 67.7861 272.291 67.5408 272.504C67.2954 272.717 67.0981 273.005 66.9488 273.368C66.7994 273.731 66.7248 274.184 66.7248 274.728V279H65.6048ZM74.4983 279.192C73.7516 279.192 73.0903 279.016 72.5143 278.664C71.9489 278.312 71.5009 277.821 71.1703 277.192C70.8503 276.552 70.6903 275.805 70.6903 274.952C70.6903 274.099 70.8503 273.357 71.1703 272.728C71.4903 272.099 71.9383 271.613 72.5143 271.272C73.1009 270.92 73.7729 270.744 74.5303 270.744C75.3089 270.744 75.9649 270.92 76.4983 271.272C77.0423 271.624 77.4529 272.083 77.7303 272.648C78.0183 273.213 78.1623 273.832 78.1623 274.504C78.1623 274.611 78.1623 274.723 78.1623 274.84C78.1623 274.947 78.1569 275.075 78.1463 275.224H71.5383V274.28H77.0743C77.0529 273.459 76.7969 272.824 76.3063 272.376C75.8263 271.928 75.2183 271.704 74.4823 271.704C74.0023 271.704 73.5543 271.816 73.1383 272.04C72.7329 272.253 72.4023 272.573 72.1463 273C71.9009 273.416 71.7783 273.944 71.7783 274.584V275C71.7783 275.725 71.9063 276.328 72.1623 276.808C72.4183 277.288 72.7543 277.645 73.1703 277.88C73.5969 278.115 74.0396 278.232 74.4983 278.232C75.1063 278.232 75.6076 278.099 76.0023 277.832C76.3969 277.555 76.6796 277.176 76.8503 276.696H77.9543C77.8156 277.165 77.5916 277.592 77.2823 277.976C76.9836 278.36 76.5996 278.659 76.1303 278.872C75.6609 279.085 75.1169 279.192 74.4983 279.192ZM82.9554 279.192C82.3154 279.192 81.75 279.085 81.2594 278.872C80.7794 278.659 80.39 278.355 80.0914 277.96C79.8034 277.555 79.6274 277.075 79.5634 276.52H80.7154C80.7794 276.829 80.902 277.112 81.0834 277.368C81.2754 277.624 81.5314 277.832 81.8514 277.992C82.1714 278.141 82.55 278.216 82.9874 278.216C83.3927 278.216 83.7234 278.157 83.9794 278.04C84.246 277.912 84.4434 277.747 84.5714 277.544C84.71 277.331 84.7794 277.096 84.7794 276.84C84.7794 276.488 84.694 276.216 84.5234 276.024C84.3634 275.821 84.1287 275.672 83.8194 275.576C83.51 275.48 83.1367 275.389 82.6994 275.304C82.3367 275.24 81.99 275.155 81.6594 275.048C81.3287 274.941 81.03 274.803 80.7634 274.632C80.5074 274.461 80.3047 274.248 80.1554 273.992C80.006 273.725 79.9314 273.416 79.9314 273.064C79.9314 272.605 80.0434 272.205 80.2674 271.864C80.502 271.512 80.8327 271.24 81.2594 271.048C81.686 270.845 82.1874 270.744 82.7634 270.744C83.5847 270.744 84.2567 270.952 84.7794 271.368C85.302 271.773 85.606 272.371 85.6914 273.16H84.5714C84.5287 272.723 84.3474 272.376 84.0274 272.12C83.7074 271.864 83.2754 271.736 82.7314 271.736C82.198 271.736 81.7874 271.848 81.4994 272.072C81.222 272.285 81.0834 272.579 81.0834 272.952C81.0834 273.187 81.158 273.389 81.3074 273.56C81.4567 273.731 81.6754 273.88 81.9634 274.008C82.262 274.125 82.6247 274.227 83.0514 274.312C83.5634 274.408 84.0327 274.536 84.4594 274.696C84.8967 274.845 85.2487 275.08 85.5154 275.4C85.7927 275.709 85.9314 276.152 85.9314 276.728C85.942 277.208 85.8247 277.635 85.5794 278.008C85.334 278.381 84.9874 278.675 84.5394 278.888C84.0914 279.091 83.5634 279.192 82.9554 279.192ZM87.9173 282.52V270.936H88.9413L89.0373 272.392C89.2079 272.104 89.4319 271.837 89.7093 271.592C89.9866 271.336 90.3173 271.133 90.7013 270.984C91.0959 270.824 91.5439 270.744 92.0453 270.744C92.8239 270.744 93.5013 270.931 94.0773 271.304C94.6639 271.677 95.1173 272.184 95.4373 272.824C95.7573 273.453 95.9173 274.173 95.9173 274.984C95.9173 275.795 95.7519 276.52 95.4213 277.16C95.1013 277.789 94.6533 278.285 94.0773 278.648C93.5013 279.011 92.8186 279.192 92.0293 279.192C91.3466 279.192 90.7439 279.048 90.2213 278.76C89.7093 278.461 89.3146 278.045 89.0373 277.512V282.52H87.9173ZM91.9493 278.216C92.5039 278.216 92.9893 278.083 93.4053 277.816C93.8319 277.549 94.1679 277.176 94.4133 276.696C94.6586 276.205 94.7812 275.629 94.7812 274.968C94.7812 274.317 94.6586 273.747 94.4133 273.256C94.1679 272.765 93.8319 272.387 93.4053 272.12C92.9893 271.853 92.5039 271.72 91.9493 271.72C91.3946 271.72 90.8986 271.853 90.4613 272.12C90.0346 272.387 89.6986 272.765 89.4533 273.256C89.2186 273.736 89.1013 274.307 89.1013 274.968C89.1013 275.619 89.2186 276.189 89.4533 276.68C89.6986 277.171 90.0346 277.549 90.4613 277.816C90.8986 278.083 91.3946 278.216 91.9493 278.216ZM101.391 279.192C100.655 279.192 99.9885 279.021 99.3911 278.68C98.8045 278.328 98.3405 277.837 97.9991 277.208C97.6578 276.568 97.4871 275.827 97.4871 274.984C97.4871 274.109 97.6578 273.357 97.9991 272.728C98.3511 272.099 98.8258 271.613 99.4231 271.272C100.02 270.92 100.687 270.744 101.423 270.744C102.191 270.744 102.868 270.92 103.455 271.272C104.042 271.613 104.506 272.099 104.847 272.728C105.188 273.357 105.359 274.109 105.359 274.984C105.359 275.827 105.183 276.568 104.831 277.208C104.49 277.837 104.02 278.328 103.423 278.68C102.836 279.021 102.159 279.192 101.391 279.192ZM101.407 278.232C101.908 278.232 102.367 278.109 102.783 277.864C103.21 277.619 103.551 277.256 103.807 276.776C104.074 276.285 104.207 275.683 104.207 274.968C104.207 274.243 104.079 273.64 103.823 273.16C103.567 272.68 103.226 272.323 102.799 272.088C102.383 271.843 101.924 271.72 101.423 271.72C100.943 271.72 100.49 271.843 100.063 272.088C99.6365 272.333 99.2898 272.696 99.0231 273.176C98.7671 273.645 98.6391 274.243 98.6391 274.968C98.6391 275.683 98.7671 276.285 99.0231 276.776C99.2791 277.256 99.6151 277.619 100.031 277.864C100.458 278.109 100.916 278.232 101.407 278.232ZM107.277 279V270.936H108.301L108.365 272.376C108.621 271.864 108.989 271.464 109.469 271.176C109.959 270.888 110.503 270.744 111.101 270.744C111.719 270.744 112.258 270.867 112.717 271.112C113.175 271.357 113.533 271.731 113.789 272.232C114.045 272.723 114.173 273.352 114.173 274.12V279H113.053V274.248C113.053 273.395 112.866 272.76 112.493 272.344C112.119 271.928 111.586 271.72 110.893 271.72C110.423 271.72 109.997 271.837 109.613 272.072C109.239 272.296 108.941 272.627 108.717 273.064C108.503 273.501 108.397 274.04 108.397 274.68V279H107.277ZM119.252 279.192C118.612 279.192 118.047 279.085 117.556 278.872C117.076 278.659 116.687 278.355 116.388 277.96C116.1 277.555 115.924 277.075 115.86 276.52H117.012C117.076 276.829 117.199 277.112 117.38 277.368C117.572 277.624 117.828 277.832 118.148 277.992C118.468 278.141 118.847 278.216 119.284 278.216C119.69 278.216 120.02 278.157 120.276 278.04C120.543 277.912 120.74 277.747 120.868 277.544C121.007 277.331 121.076 277.096 121.076 276.84C121.076 276.488 120.991 276.216 120.82 276.024C120.66 275.821 120.426 275.672 120.116 275.576C119.807 275.48 119.434 275.389 118.996 275.304C118.634 275.24 118.287 275.155 117.956 275.048C117.626 274.941 117.327 274.803 117.06 274.632C116.804 274.461 116.602 274.248 116.452 273.992C116.303 273.725 116.228 273.416 116.228 273.064C116.228 272.605 116.34 272.205 116.564 271.864C116.799 271.512 117.13 271.24 117.556 271.048C117.983 270.845 118.484 270.744 119.06 270.744C119.882 270.744 120.554 270.952 121.076 271.368C121.599 271.773 121.903 272.371 121.988 273.16H120.868C120.826 272.723 120.644 272.376 120.324 272.12C120.004 271.864 119.572 271.736 119.028 271.736C118.495 271.736 118.084 271.848 117.796 272.072C117.519 272.285 117.38 272.579 117.38 272.952C117.38 273.187 117.455 273.389 117.604 273.56C117.754 273.731 117.972 273.88 118.26 274.008C118.559 274.125 118.922 274.227 119.348 274.312C119.86 274.408 120.33 274.536 120.756 274.696C121.194 274.845 121.546 275.08 121.812 275.4C122.09 275.709 122.228 276.152 122.228 276.728C122.239 277.208 122.122 277.635 121.876 278.008C121.631 278.381 121.284 278.675 120.836 278.888C120.388 279.091 119.86 279.192 119.252 279.192ZM127.67 279.192C126.923 279.192 126.262 279.016 125.686 278.664C125.121 278.312 124.673 277.821 124.342 277.192C124.022 276.552 123.862 275.805 123.862 274.952C123.862 274.099 124.022 273.357 124.342 272.728C124.662 272.099 125.11 271.613 125.686 271.272C126.273 270.92 126.945 270.744 127.702 270.744C128.481 270.744 129.137 270.92 129.67 271.272C130.214 271.624 130.625 272.083 130.902 272.648C131.19 273.213 131.334 273.832 131.334 274.504C131.334 274.611 131.334 274.723 131.334 274.84C131.334 274.947 131.329 275.075 131.318 275.224H124.71V274.28H130.246C130.225 273.459 129.969 272.824 129.478 272.376C128.998 271.928 128.39 271.704 127.654 271.704C127.174 271.704 126.726 271.816 126.31 272.04C125.905 272.253 125.574 272.573 125.318 273C125.073 273.416 124.95 273.944 124.95 274.584V275C124.95 275.725 125.078 276.328 125.334 276.808C125.59 277.288 125.926 277.645 126.342 277.88C126.769 278.115 127.211 278.232 127.67 278.232C128.278 278.232 128.779 278.099 129.174 277.832C129.569 277.555 129.851 277.176 130.022 276.696H131.126C130.987 277.165 130.763 277.592 130.454 277.976C130.155 278.36 129.771 278.659 129.302 278.872C128.833 279.085 128.289 279.192 127.67 279.192ZM137.574 279V270.936H138.598L138.678 272.488C138.848 272.115 139.078 271.8 139.366 271.544C139.654 271.288 140 271.091 140.406 270.952C140.811 270.813 141.27 270.744 141.782 270.744V271.912H141.35C141.008 271.912 140.678 271.96 140.358 272.056C140.038 272.141 139.755 272.291 139.51 272.504C139.264 272.717 139.067 273.005 138.918 273.368C138.768 273.731 138.694 274.184 138.694 274.728V279H137.574ZM145.931 279.192C145.28 279.192 144.736 279.075 144.299 278.84C143.872 278.605 143.552 278.301 143.339 277.928C143.136 277.555 143.035 277.144 143.035 276.696C143.035 276.141 143.173 275.672 143.451 275.288C143.739 274.904 144.139 274.616 144.651 274.424C145.163 274.232 145.76 274.136 146.443 274.136H148.619C148.619 273.613 148.539 273.171 148.379 272.808C148.219 272.445 147.984 272.173 147.675 271.992C147.365 271.8 146.976 271.704 146.507 271.704C145.963 271.704 145.493 271.843 145.099 272.12C144.704 272.397 144.459 272.803 144.363 273.336H143.195C143.259 272.771 143.451 272.296 143.771 271.912C144.101 271.528 144.507 271.24 144.987 271.048C145.467 270.845 145.973 270.744 146.507 270.744C147.253 270.744 147.861 270.888 148.331 271.176C148.8 271.453 149.152 271.837 149.387 272.328C149.621 272.819 149.739 273.384 149.739 274.024V279H148.715L148.651 277.528C148.555 277.752 148.421 277.965 148.251 278.168C148.091 278.371 147.899 278.547 147.675 278.696C147.461 278.845 147.211 278.963 146.923 279.048C146.635 279.144 146.304 279.192 145.931 279.192ZM146.059 278.216C146.453 278.216 146.805 278.136 147.115 277.976C147.435 277.805 147.707 277.587 147.931 277.32C148.155 277.053 148.325 276.755 148.443 276.424C148.56 276.083 148.619 275.731 148.619 275.368V275.08H146.523C145.957 275.08 145.504 275.149 145.163 275.288C144.821 275.427 144.576 275.613 144.427 275.848C144.277 276.083 144.203 276.355 144.203 276.664C144.203 276.973 144.272 277.245 144.411 277.48C144.549 277.704 144.757 277.885 145.035 278.024C145.323 278.152 145.664 278.216 146.059 278.216ZM154.661 279C154.202 279 153.807 278.931 153.477 278.792C153.146 278.643 152.89 278.403 152.709 278.072C152.538 277.731 152.453 277.267 152.453 276.68V271.896H151.045V270.936H152.453L152.613 269.064H153.573V270.952H155.989V271.896H153.573V276.68C153.573 277.213 153.679 277.576 153.893 277.768C154.106 277.949 154.485 278.04 155.029 278.04H155.861V279H154.661ZM160.967 279.192C160.22 279.192 159.559 279.016 158.983 278.664C158.418 278.312 157.97 277.821 157.639 277.192C157.319 276.552 157.159 275.805 157.159 274.952C157.159 274.099 157.319 273.357 157.639 272.728C157.959 272.099 158.407 271.613 158.983 271.272C159.57 270.92 160.242 270.744 160.999 270.744C161.778 270.744 162.434 270.92 162.967 271.272C163.511 271.624 163.922 272.083 164.199 272.648C164.487 273.213 164.631 273.832 164.631 274.504C164.631 274.611 164.631 274.723 164.631 274.84C164.631 274.947 164.626 275.075 164.615 275.224H158.007V274.28H163.543C163.522 273.459 163.266 272.824 162.775 272.376C162.295 271.928 161.687 271.704 160.951 271.704C160.471 271.704 160.023 271.816 159.607 272.04C159.202 272.253 158.871 272.573 158.615 273C158.37 273.416 158.247 273.944 158.247 274.584V275C158.247 275.725 158.375 276.328 158.631 276.808C158.887 277.288 159.223 277.645 159.639 277.88C160.066 278.115 160.508 278.232 160.967 278.232C161.575 278.232 162.076 278.099 162.471 277.832C162.866 277.555 163.148 277.176 163.319 276.696H164.423C164.284 277.165 164.06 277.592 163.751 277.976C163.452 278.36 163.068 278.659 162.599 278.872C162.13 279.085 161.586 279.192 160.967 279.192ZM174.982 279.192C174.513 279.192 174.081 279.123 173.686 278.984C173.302 278.835 172.966 278.637 172.678 278.392C172.39 278.136 172.161 277.848 171.99 277.528L171.894 279H170.87V267.48H171.99V272.392C172.257 271.933 172.641 271.544 173.142 271.224C173.644 270.904 174.257 270.744 174.982 270.744C175.772 270.744 176.46 270.931 177.046 271.304C177.633 271.667 178.081 272.168 178.39 272.808C178.71 273.437 178.87 274.157 178.87 274.968C178.87 275.779 178.71 276.504 178.39 277.144C178.07 277.784 177.617 278.285 177.03 278.648C176.454 279.011 175.772 279.192 174.982 279.192ZM174.902 278.216C175.468 278.216 175.958 278.083 176.374 277.816C176.79 277.549 177.121 277.171 177.366 276.68C177.612 276.189 177.734 275.619 177.734 274.968C177.734 274.307 177.612 273.736 177.366 273.256C177.121 272.765 176.785 272.387 176.358 272.12C175.942 271.853 175.457 271.72 174.902 271.72C174.348 271.72 173.852 271.853 173.414 272.12C172.988 272.387 172.652 272.765 172.406 273.256C172.172 273.747 172.054 274.317 172.054 274.968C172.054 275.629 172.172 276.205 172.406 276.696C172.652 277.176 172.988 277.549 173.414 277.816C173.852 278.083 174.348 278.216 174.902 278.216ZM181.015 282.52L182.999 278.104H182.567L179.383 270.936H180.599L183.351 277.336L186.247 270.936H187.399L182.183 282.52H181.015Z" fill="white"/>
<path d="M21.9 323L29.91 304.58H18.81V302H33V304.19L25.02 323H21.9ZM44.1124 323.36C42.2524 323.36 40.6524 322.91 39.3124 322.01C37.9724 321.09 36.9424 319.82 36.2224 318.2C35.5024 316.56 35.1424 314.66 35.1424 312.5C35.1424 310.34 35.5024 308.45 36.2224 306.83C36.9424 305.19 37.9724 303.92 39.3124 303.02C40.6524 302.1 42.2524 301.64 44.1124 301.64C45.9724 301.64 47.5624 302.1 48.8824 303.02C50.2224 303.92 51.2424 305.19 51.9424 306.83C52.6624 308.45 53.0224 310.34 53.0224 312.5C53.0224 314.66 52.6624 316.56 51.9424 318.2C51.2424 319.82 50.2224 321.09 48.8824 322.01C47.5624 322.91 45.9724 323.36 44.1124 323.36ZM44.1124 320.69C45.2324 320.69 46.2324 320.36 47.1124 319.7C48.0124 319.04 48.7124 318.1 49.2124 316.88C49.7124 315.66 49.9624 314.2 49.9624 312.5C49.9624 310.8 49.7124 309.34 49.2124 308.12C48.7124 306.9 48.0124 305.97 47.1124 305.33C46.2324 304.67 45.2324 304.34 44.1124 304.34C42.9724 304.34 41.9524 304.67 41.0524 305.33C40.1524 305.97 39.4524 306.9 38.9524 308.12C38.4524 309.34 38.2024 310.8 38.2024 312.5C38.2024 314.2 38.4524 315.66 38.9524 316.88C39.4524 318.1 40.1524 319.04 41.0524 319.7C41.9524 320.36 42.9724 320.69 44.1124 320.69ZM59.1853 323L71.2453 302H74.2153L62.1553 323H59.1853ZM72.9853 323.36C72.0453 323.36 71.2053 323.15 70.4653 322.73C69.7253 322.31 69.1353 321.72 68.6953 320.96C68.2553 320.18 68.0353 319.27 68.0353 318.23C68.0353 317.15 68.2553 316.23 68.6953 315.47C69.1353 314.71 69.7253 314.12 70.4653 313.7C71.2053 313.28 72.0353 313.07 72.9553 313.07C73.9153 313.07 74.7553 313.28 75.4753 313.7C76.2153 314.12 76.7953 314.71 77.2153 315.47C77.6553 316.23 77.8753 317.15 77.8753 318.23C77.8753 319.27 77.6553 320.18 77.2153 320.96C76.7953 321.72 76.2153 322.31 75.4753 322.73C74.7353 323.15 73.9053 323.36 72.9853 323.36ZM72.9253 321.14C73.3853 321.14 73.7953 321.03 74.1553 320.81C74.5353 320.59 74.8353 320.27 75.0553 319.85C75.2953 319.41 75.4153 318.86 75.4153 318.2C75.4153 317.54 75.3053 317 75.0853 316.58C74.8653 316.14 74.5653 315.81 74.1853 315.59C73.8253 315.37 73.4153 315.26 72.9553 315.26C72.5353 315.26 72.1353 315.37 71.7553 315.59C71.3753 315.81 71.0653 316.14 70.8253 316.58C70.6053 317 70.4953 317.54 70.4953 318.2C70.4953 318.86 70.6053 319.41 70.8253 319.85C71.0653 320.27 71.3653 320.59 71.7253 320.81C72.1053 321.03 72.5053 321.14 72.9253 321.14ZM60.6253 311.96C59.7053 311.96 58.8753 311.75 58.1353 311.33C57.3953 310.91 56.7953 310.32 56.3353 309.56C55.8953 308.78 55.6753 307.86 55.6753 306.8C55.6753 305.74 55.8953 304.83 56.3353 304.07C56.7953 303.31 57.3953 302.72 58.1353 302.3C58.8953 301.88 59.7353 301.67 60.6553 301.67C61.5753 301.67 62.4053 301.88 63.1453 302.3C63.8853 302.72 64.4653 303.31 64.8853 304.07C65.3253 304.83 65.5453 305.74 65.5453 306.8C65.5453 307.86 65.3253 308.78 64.8853 309.56C64.4653 310.32 63.8753 310.91 63.1153 311.33C62.3753 311.75 61.5453 311.96 60.6253 311.96ZM60.6253 309.74C61.0653 309.74 61.4653 309.63 61.8253 309.41C62.2053 309.19 62.5053 308.87 62.7253 308.45C62.9453 308.01 63.0553 307.46 63.0553 306.8C63.0553 306.14 62.9453 305.59 62.7253 305.15C62.5053 304.71 62.2053 304.38 61.8253 304.16C61.4653 303.94 61.0753 303.83 60.6553 303.83C60.2153 303.83 59.7953 303.94 59.3953 304.16C59.0153 304.38 58.7053 304.71 58.4653 305.15C58.2453 305.59 58.1353 306.14 58.1353 306.8C58.1353 307.44 58.2453 307.98 58.4653 308.42C58.7053 308.86 59.0153 309.19 59.3953 309.41C59.7753 309.63 60.1853 309.74 60.6253 309.74Z" fill="white"/>
<path opacity="0.8" d="M20.45 350L18.378 342.944H19.372L21.052 348.978H20.856L22.676 342.944H23.796L25.616 348.978H25.42L27.1 342.944H28.094L26.022 350H25.028L23.138 343.686H23.334L21.444 350H20.45ZM29.6067 350V342.944H30.5727V350H29.6067ZM30.0967 341.278C29.9007 341.278 29.7327 341.213 29.5927 341.082C29.4527 340.942 29.3827 340.769 29.3827 340.564C29.3827 340.349 29.448 340.181 29.5787 340.06C29.7187 339.929 29.8867 339.864 30.0827 339.864C30.2787 339.864 30.4467 339.929 30.5867 340.06C30.7267 340.181 30.7967 340.349 30.7967 340.564C30.7967 340.769 30.7267 340.942 30.5867 341.082C30.456 341.213 30.2927 341.278 30.0967 341.278ZM35.3809 350C34.9796 350 34.6342 349.939 34.3449 349.818C34.0556 349.687 33.8316 349.477 33.6729 349.188C33.5236 348.889 33.4489 348.483 33.4489 347.97V343.784H32.2169V342.944H33.4489L33.5889 341.306H34.4289V342.958H36.5429V343.784H34.4289V347.97C34.4289 348.437 34.5222 348.754 34.7089 348.922C34.8956 349.081 35.2269 349.16 35.7029 349.16H36.4309V350H35.3809ZM38.0663 350V339.92H39.0463V344.204C39.2889 343.756 39.6249 343.406 40.0543 343.154C40.4836 342.902 40.9549 342.776 41.4683 342.776C42.0003 342.776 42.4623 342.883 42.8543 343.098C43.2556 343.313 43.5636 343.639 43.7783 344.078C44.0023 344.517 44.1143 345.077 44.1143 345.758V350H43.1483V345.87C43.1483 345.114 42.9896 344.554 42.6723 344.19C42.3643 343.817 41.9069 343.63 41.3003 343.63C40.8803 343.63 40.4976 343.733 40.1523 343.938C39.8163 344.143 39.5456 344.442 39.3403 344.834C39.1443 345.217 39.0463 345.693 39.0463 346.262V350H38.0663ZM49.9641 350V342.944H50.9301V350H49.9641ZM50.4541 341.278C50.2581 341.278 50.0901 341.213 49.9501 341.082C49.8101 340.942 49.7401 340.769 49.7401 340.564C49.7401 340.349 49.8054 340.181 49.9361 340.06C50.0761 339.929 50.2441 339.864 50.4401 339.864C50.6361 339.864 50.8041 339.929 50.9441 340.06C51.0841 340.181 51.1541 340.349 51.1541 340.564C51.1541 340.769 51.0841 340.942 50.9441 341.082C50.8134 341.213 50.6501 341.278 50.4541 341.278ZM53.0643 350V342.944H53.9603L54.0163 344.204C54.2403 343.756 54.5623 343.406 54.9823 343.154C55.4116 342.902 55.8876 342.776 56.4103 342.776C56.9516 342.776 57.423 342.883 57.8243 343.098C58.2256 343.313 58.5383 343.639 58.7623 344.078C58.9863 344.507 59.0983 345.058 59.0983 345.73V350H58.1183V345.842C58.1183 345.095 57.955 344.54 57.6283 344.176C57.3016 343.812 56.835 343.63 56.2283 343.63C55.8176 343.63 55.4443 343.733 55.1083 343.938C54.7816 344.134 54.5203 344.423 54.3243 344.806C54.1376 345.189 54.0443 345.66 54.0443 346.22V350H53.0643ZM63.543 350.168C62.983 350.168 62.4883 350.075 62.059 349.888C61.639 349.701 61.2983 349.435 61.037 349.09C60.785 348.735 60.631 348.315 60.575 347.83H61.583C61.639 348.101 61.7463 348.348 61.905 348.572C62.073 348.796 62.297 348.978 62.577 349.118C62.857 349.249 63.1883 349.314 63.571 349.314C63.9257 349.314 64.215 349.263 64.439 349.16C64.6723 349.048 64.845 348.903 64.957 348.726C65.0783 348.539 65.139 348.334 65.139 348.11C65.139 347.802 65.0643 347.564 64.915 347.396C64.775 347.219 64.5697 347.088 64.299 347.004C64.0283 346.92 63.7017 346.841 63.319 346.766C63.0017 346.71 62.6983 346.635 62.409 346.542C62.1197 346.449 61.8583 346.327 61.625 346.178C61.401 346.029 61.2237 345.842 61.093 345.618C60.9623 345.385 60.897 345.114 60.897 344.806C60.897 344.405 60.995 344.055 61.191 343.756C61.3963 343.448 61.6857 343.21 62.059 343.042C62.4323 342.865 62.871 342.776 63.375 342.776C64.0937 342.776 64.6817 342.958 65.139 343.322C65.5963 343.677 65.8623 344.199 65.937 344.89H64.957C64.9197 344.507 64.761 344.204 64.481 343.98C64.201 343.756 63.823 343.644 63.347 343.644C62.8803 343.644 62.521 343.742 62.269 343.938C62.0263 344.125 61.905 344.381 61.905 344.708C61.905 344.913 61.9703 345.091 62.101 345.24C62.2317 345.389 62.423 345.52 62.675 345.632C62.9363 345.735 63.2537 345.823 63.627 345.898C64.075 345.982 64.4857 346.094 64.859 346.234C65.2417 346.365 65.5497 346.57 65.783 346.85C66.0257 347.121 66.147 347.508 66.147 348.012C66.1563 348.432 66.0537 348.805 65.839 349.132C65.6243 349.459 65.321 349.715 64.929 349.902C64.537 350.079 64.075 350.168 63.543 350.168ZM70.2168 350C69.8155 350 69.4702 349.939 69.1808 349.818C68.8915 349.687 68.6675 349.477 68.5088 349.188C68.3595 348.889 68.2848 348.483 68.2848 347.97V343.784H67.0528V342.944H68.2848L68.4248 341.306H69.2648V342.958H71.3788V343.784H69.2648V347.97C69.2648 348.437 69.3582 348.754 69.5448 348.922C69.7315 349.081 70.0628 349.16 70.5388 349.16H71.2668V350H70.2168ZM75.1562 350.168C74.5869 350.168 74.1109 350.065 73.7282 349.86C73.3549 349.655 73.0749 349.389 72.8882 349.062C72.7109 348.735 72.6222 348.376 72.6222 347.984C72.6222 347.499 72.7435 347.088 72.9862 346.752C73.2382 346.416 73.5882 346.164 74.0362 345.996C74.4842 345.828 75.0069 345.744 75.6042 345.744H77.5082C77.5082 345.287 77.4382 344.899 77.2982 344.582C77.1582 344.265 76.9529 344.027 76.6822 343.868C76.4115 343.7 76.0709 343.616 75.6602 343.616C75.1842 343.616 74.7735 343.737 74.4282 343.98C74.0829 344.223 73.8682 344.577 73.7842 345.044H72.7622C72.8182 344.549 72.9862 344.134 73.2662 343.798C73.5555 343.462 73.9102 343.21 74.3302 343.042C74.7502 342.865 75.1935 342.776 75.6602 342.776C76.3135 342.776 76.8455 342.902 77.2562 343.154C77.6669 343.397 77.9749 343.733 78.1802 344.162C78.3855 344.591 78.4882 345.086 78.4882 345.646V350H77.5922L77.5362 348.712C77.4522 348.908 77.3355 349.095 77.1862 349.272C77.0462 349.449 76.8782 349.603 76.6822 349.734C76.4955 349.865 76.2762 349.967 76.0242 350.042C75.7722 350.126 75.4829 350.168 75.1562 350.168ZM75.2682 349.314C75.6135 349.314 75.9215 349.244 76.1922 349.104C76.4722 348.955 76.7102 348.763 76.9062 348.53C77.1022 348.297 77.2515 348.035 77.3542 347.746C77.4569 347.447 77.5082 347.139 77.5082 346.822V346.57H75.6742C75.1795 346.57 74.7829 346.631 74.4842 346.752C74.1855 346.873 73.9709 347.037 73.8402 347.242C73.7095 347.447 73.6442 347.685 73.6442 347.956C73.6442 348.227 73.7049 348.465 73.8262 348.67C73.9475 348.866 74.1295 349.025 74.3722 349.146C74.6242 349.258 74.9229 349.314 75.2682 349.314ZM80.3397 350V342.944H81.2357L81.2917 344.204C81.5157 343.756 81.8377 343.406 82.2577 343.154C82.687 342.902 83.163 342.776 83.6857 342.776C84.227 342.776 84.6984 342.883 85.0997 343.098C85.501 343.313 85.8137 343.639 86.0377 344.078C86.2617 344.507 86.3737 345.058 86.3737 345.73V350H85.3937V345.842C85.3937 345.095 85.2304 344.54 84.9037 344.176C84.577 343.812 84.1104 343.63 83.5037 343.63C83.093 343.63 82.7197 343.733 82.3837 343.938C82.057 344.134 81.7957 344.423 81.5997 344.806C81.413 345.189 81.3197 345.66 81.3197 346.22V350H80.3397ZM90.9024 350C90.501 350 90.1557 349.939 89.8664 349.818C89.577 349.687 89.353 349.477 89.1944 349.188C89.045 348.889 88.9704 348.483 88.9704 347.97V343.784H87.7384V342.944H88.9704L89.1104 341.306H89.9504V342.958H92.0644V343.784H89.9504V347.97C89.9504 348.437 90.0437 348.754 90.2304 348.922C90.417 349.081 90.7484 349.16 91.2244 349.16H91.9524V350H90.9024ZM96.9112 350L100.523 340.2H101.531L105.143 350H104.107L101.027 341.488L97.9332 350H96.9112ZM98.5632 347.354L98.8572 346.542H103.183L103.477 347.354H98.5632ZM106.701 350V340.2H107.681V350H106.701ZM114.037 350V341.726C114.037 341.315 114.102 340.979 114.233 340.718C114.373 340.447 114.578 340.247 114.849 340.116C115.12 339.985 115.46 339.92 115.871 339.92H116.669V340.76H116.039C115.666 340.76 115.4 340.835 115.241 340.984C115.092 341.133 115.017 341.395 115.017 341.768V350H114.037ZM112.945 343.784V342.944H116.851V343.784H112.945ZM121.114 350.168C120.47 350.168 119.886 350.019 119.364 349.72C118.85 349.412 118.444 348.983 118.146 348.432C117.847 347.872 117.698 347.223 117.698 346.486C117.698 345.721 117.847 345.063 118.146 344.512C118.454 343.961 118.869 343.537 119.392 343.238C119.914 342.93 120.498 342.776 121.142 342.776C121.814 342.776 122.406 342.93 122.92 343.238C123.433 343.537 123.839 343.961 124.138 344.512C124.436 345.063 124.586 345.721 124.586 346.486C124.586 347.223 124.432 347.872 124.124 348.432C123.825 348.983 123.414 349.412 122.892 349.72C122.378 350.019 121.786 350.168 121.114 350.168ZM121.128 349.328C121.566 349.328 121.968 349.221 122.332 349.006C122.705 348.791 123.004 348.474 123.228 348.054C123.461 347.625 123.578 347.097 123.578 346.472C123.578 345.837 123.466 345.31 123.242 344.89C123.018 344.47 122.719 344.157 122.346 343.952C121.982 343.737 121.58 343.63 121.142 343.63C120.722 343.63 120.325 343.737 119.952 343.952C119.578 344.167 119.275 344.484 119.042 344.904C118.818 345.315 118.706 345.837 118.706 346.472C118.706 347.097 118.818 347.625 119.042 348.054C119.266 348.474 119.56 348.791 119.924 349.006C120.297 349.221 120.698 349.328 121.128 349.328ZM126.264 350V339.92H127.244V350H126.264ZM129.23 350V339.92H130.21V350H129.23ZM135.305 350.168C134.661 350.168 134.078 350.019 133.555 349.72C133.042 349.412 132.636 348.983 132.337 348.432C132.038 347.872 131.889 347.223 131.889 346.486C131.889 345.721 132.038 345.063 132.337 344.512C132.645 343.961 133.06 343.537 133.583 343.238C134.106 342.93 134.689 342.776 135.333 342.776C136.005 342.776 136.598 342.93 137.111 343.238C137.624 343.537 138.03 343.961 138.329 344.512C138.628 345.063 138.777 345.721 138.777 346.486C138.777 347.223 138.623 347.872 138.315 348.432C138.016 348.983 137.606 349.412 137.083 349.72C136.57 350.019 135.977 350.168 135.305 350.168ZM135.319 349.328C135.758 349.328 136.159 349.221 136.523 349.006C136.896 348.791 137.195 348.474 137.419 348.054C137.652 347.625 137.769 347.097 137.769 346.472C137.769 345.837 137.657 345.31 137.433 344.89C137.209 344.47 136.91 344.157 136.537 343.952C136.173 343.737 135.772 343.63 135.333 343.63C134.913 343.63 134.516 343.737 134.143 343.952C133.77 344.167 133.466 344.484 133.233 344.904C133.009 345.315 132.897 345.837 132.897 346.472C132.897 347.097 133.009 347.625 133.233 348.054C133.457 348.474 133.751 348.791 134.115 349.006C134.488 349.221 134.89 349.328 135.319 349.328ZM141.638 350L139.566 342.944H140.56L142.24 348.978H142.044L143.864 342.944H144.984L146.804 348.978H146.608L148.288 342.944H149.282L147.21 350H146.216L144.326 343.686H144.522L142.632 350H141.638ZM150.36 346.304V345.464H155.806V346.304H150.36ZM160.052 350.168C159.52 350.168 159.048 350.065 158.638 349.86C158.236 349.645 157.924 349.323 157.7 348.894C157.476 348.455 157.364 347.895 157.364 347.214V342.944H158.344V347.102C158.344 347.849 158.507 348.404 158.834 348.768C159.17 349.132 159.632 349.314 160.22 349.314C160.64 349.314 161.013 349.216 161.34 349.02C161.676 348.824 161.937 348.535 162.124 348.152C162.32 347.76 162.418 347.284 162.418 346.724V342.944H163.398V350H162.502L162.446 348.74C162.222 349.197 161.895 349.552 161.466 349.804C161.046 350.047 160.574 350.168 160.052 350.168ZM165.392 353.08V342.944H166.288L166.372 344.218C166.522 343.966 166.718 343.733 166.96 343.518C167.203 343.294 167.492 343.117 167.828 342.986C168.174 342.846 168.566 342.776 169.004 342.776C169.686 342.776 170.278 342.939 170.782 343.266C171.296 343.593 171.692 344.036 171.972 344.596C172.252 345.147 172.392 345.777 172.392 346.486C172.392 347.195 172.248 347.83 171.958 348.39C171.678 348.941 171.286 349.375 170.782 349.692C170.278 350.009 169.681 350.168 168.99 350.168C168.393 350.168 167.866 350.042 167.408 349.79C166.96 349.529 166.615 349.165 166.372 348.698V353.08H165.392ZM168.92 349.314C169.406 349.314 169.83 349.197 170.194 348.964C170.568 348.731 170.862 348.404 171.076 347.984C171.291 347.555 171.398 347.051 171.398 346.472C171.398 345.903 171.291 345.403 171.076 344.974C170.862 344.545 170.568 344.213 170.194 343.98C169.83 343.747 169.406 343.63 168.92 343.63C168.435 343.63 168.001 343.747 167.618 343.98C167.245 344.213 166.951 344.545 166.736 344.974C166.531 345.394 166.428 345.893 166.428 346.472C166.428 347.041 166.531 347.541 166.736 347.97C166.951 348.399 167.245 348.731 167.618 348.964C168.001 349.197 168.435 349.314 168.92 349.314ZM176.664 350.168C176.104 350.168 175.609 350.075 175.18 349.888C174.76 349.701 174.419 349.435 174.158 349.09C173.906 348.735 173.752 348.315 173.696 347.83H174.704C174.76 348.101 174.867 348.348 175.026 348.572C175.194 348.796 175.418 348.978 175.698 349.118C175.978 349.249 176.309 349.314 176.692 349.314C177.047 349.314 177.336 349.263 177.56 349.16C177.793 349.048 177.966 348.903 178.078 348.726C178.199 348.539 178.26 348.334 178.26 348.11C178.26 347.802 178.185 347.564 178.036 347.396C177.896 347.219 177.691 347.088 177.42 347.004C177.149 346.92 176.823 346.841 176.44 346.766C176.123 346.71 175.819 346.635 175.53 346.542C175.241 346.449 174.979 346.327 174.746 346.178C174.522 346.029 174.345 345.842 174.214 345.618C174.083 345.385 174.018 345.114 174.018 344.806C174.018 344.405 174.116 344.055 174.312 343.756C174.517 343.448 174.807 343.21 175.18 343.042C175.553 342.865 175.992 342.776 176.496 342.776C177.215 342.776 177.803 342.958 178.26 343.322C178.717 343.677 178.983 344.199 179.058 344.89H178.078C178.041 344.507 177.882 344.204 177.602 343.98C177.322 343.756 176.944 343.644 176.468 343.644C176.001 343.644 175.642 343.742 175.39 343.938C175.147 344.125 175.026 344.381 175.026 344.708C175.026 344.913 175.091 345.091 175.222 345.24C175.353 345.389 175.544 345.52 175.796 345.632C176.057 345.735 176.375 345.823 176.748 345.898C177.196 345.982 177.607 346.094 177.98 346.234C178.363 346.365 178.671 346.57 178.904 346.85C179.147 347.121 179.268 347.508 179.268 348.012C179.277 348.432 179.175 348.805 178.96 349.132C178.745 349.459 178.442 349.715 178.05 349.902C177.658 350.079 177.196 350.168 176.664 350.168ZM22.592 369.168C22.1813 369.168 21.8033 369.107 21.458 368.986C21.122 368.855 20.828 368.683 20.576 368.468C20.324 368.244 20.1233 367.992 19.974 367.712L19.89 369H18.994V358.92H19.974V363.218C20.2073 362.817 20.5433 362.476 20.982 362.196C21.4207 361.916 21.9573 361.776 22.592 361.776C23.2827 361.776 23.8847 361.939 24.398 362.266C24.9113 362.583 25.3033 363.022 25.574 363.582C25.854 364.133 25.994 364.763 25.994 365.472C25.994 366.181 25.854 366.816 25.574 367.376C25.294 367.936 24.8973 368.375 24.384 368.692C23.88 369.009 23.2827 369.168 22.592 369.168ZM22.522 368.314C23.0167 368.314 23.446 368.197 23.81 367.964C24.174 367.731 24.4633 367.399 24.678 366.97C24.8927 366.541 25 366.041 25 365.472C25 364.893 24.8927 364.394 24.678 363.974C24.4633 363.545 24.1693 363.213 23.796 362.98C23.432 362.747 23.0073 362.63 22.522 362.63C22.0367 362.63 21.6027 362.747 21.22 362.98C20.8467 363.213 20.5527 363.545 20.338 363.974C20.1327 364.403 20.03 364.903 20.03 365.472C20.03 366.051 20.1327 366.555 20.338 366.984C20.5527 367.404 20.8467 367.731 21.22 367.964C21.6027 368.197 22.0367 368.314 22.522 368.314ZM30.6996 369.168C30.0463 369.168 29.4676 369.014 28.9636 368.706C28.469 368.398 28.077 367.969 27.7876 367.418C27.5076 366.858 27.3676 366.205 27.3676 365.458C27.3676 364.711 27.5076 364.063 27.7876 363.512C28.0676 362.961 28.4596 362.537 28.9636 362.238C29.477 361.93 30.065 361.776 30.7276 361.776C31.409 361.776 31.983 361.93 32.4496 362.238C32.9256 362.546 33.285 362.947 33.5276 363.442C33.7796 363.937 33.9056 364.478 33.9056 365.066C33.9056 365.159 33.9056 365.257 33.9056 365.36C33.9056 365.453 33.901 365.565 33.8916 365.696H28.1096V364.87H32.9536C32.935 364.151 32.711 363.596 32.2816 363.204C31.8616 362.812 31.3296 362.616 30.6856 362.616C30.2656 362.616 29.8736 362.714 29.5096 362.91C29.155 363.097 28.8656 363.377 28.6416 363.75C28.427 364.114 28.3196 364.576 28.3196 365.136V365.5C28.3196 366.135 28.4316 366.662 28.6556 367.082C28.8796 367.502 29.1736 367.815 29.5376 368.02C29.911 368.225 30.2983 368.328 30.6996 368.328C31.2316 368.328 31.6703 368.211 32.0156 367.978C32.361 367.735 32.6083 367.404 32.7576 366.984H33.7236C33.6023 367.395 33.4063 367.768 33.1356 368.104C32.8743 368.44 32.5383 368.701 32.1276 368.888C31.717 369.075 31.241 369.168 30.6996 369.168ZM35.9296 369V360.726C35.9296 360.315 35.995 359.979 36.1256 359.718C36.2656 359.447 36.471 359.247 36.7416 359.116C37.0123 358.985 37.353 358.92 37.7636 358.92H38.5616V359.76H37.9316C37.5583 359.76 37.2923 359.835 37.1336 359.984C36.9843 360.133 36.9096 360.395 36.9096 360.768V369H35.9296ZM34.8376 362.784V361.944H38.7436V362.784H34.8376ZM43.0063 369.168C42.3623 369.168 41.779 369.019 41.2563 368.72C40.743 368.412 40.337 367.983 40.0383 367.432C39.7396 366.872 39.5903 366.223 39.5903 365.486C39.5903 364.721 39.7396 364.063 40.0383 363.512C40.3463 362.961 40.7616 362.537 41.2843 362.238C41.807 361.93 42.3903 361.776 43.0343 361.776C43.7063 361.776 44.299 361.93 44.8123 362.238C45.3256 362.537 45.7316 362.961 46.0303 363.512C46.329 364.063 46.4783 364.721 46.4783 365.486C46.4783 366.223 46.3243 366.872 46.0163 367.432C45.7176 367.983 45.307 368.412 44.7843 368.72C44.271 369.019 43.6783 369.168 43.0063 369.168ZM43.0203 368.328C43.459 368.328 43.8603 368.221 44.2243 368.006C44.5976 367.791 44.8963 367.474 45.1203 367.054C45.3536 366.625 45.4703 366.097 45.4703 365.472C45.4703 364.837 45.3583 364.31 45.1343 363.89C44.9103 363.47 44.6116 363.157 44.2383 362.952C43.8743 362.737 43.473 362.63 43.0343 362.63C42.6143 362.63 42.2176 362.737 41.8443 362.952C41.471 363.167 41.1676 363.484 40.9343 363.904C40.7103 364.315 40.5983 364.837 40.5983 365.472C40.5983 366.097 40.7103 366.625 40.9343 367.054C41.1583 367.474 41.4523 367.791 41.8163 368.006C42.1896 368.221 42.591 368.328 43.0203 368.328ZM48.1561 369V361.944H49.0521L49.1221 363.302C49.2714 362.975 49.4721 362.7 49.7241 362.476C49.9761 362.252 50.2794 362.079 50.6341 361.958C50.9888 361.837 51.3901 361.776 51.8381 361.776V362.798H51.4601C51.1614 362.798 50.8721 362.84 50.5921 362.924C50.3121 362.999 50.0648 363.129 49.8501 363.316C49.6354 363.503 49.4628 363.755 49.3321 364.072C49.2014 364.389 49.1361 364.786 49.1361 365.262V369H48.1561ZM55.9379 369.168C55.2846 369.168 54.7059 369.014 54.2019 368.706C53.7073 368.398 53.3153 367.969 53.0259 367.418C52.7459 366.858 52.6059 366.205 52.6059 365.458C52.6059 364.711 52.7459 364.063 53.0259 363.512C53.3059 362.961 53.6979 362.537 54.2019 362.238C54.7153 361.93 55.3033 361.776 55.9659 361.776C56.6473 361.776 57.2213 361.93 57.6879 362.238C58.1639 362.546 58.5233 362.947 58.7659 363.442C59.0179 363.937 59.1439 364.478 59.1439 365.066C59.1439 365.159 59.1439 365.257 59.1439 365.36C59.1439 365.453 59.1393 365.565 59.1299 365.696H53.3479V364.87H58.1919C58.1733 364.151 57.9493 363.596 57.5199 363.204C57.0999 362.812 56.5679 362.616 55.9239 362.616C55.5039 362.616 55.1119 362.714 54.7479 362.91C54.3933 363.097 54.1039 363.377 53.8799 363.75C53.6653 364.114 53.5579 364.576 53.5579 365.136V365.5C53.5579 366.135 53.6699 366.662 53.8939 367.082C54.1179 367.502 54.4119 367.815 54.7759 368.02C55.1493 368.225 55.5366 368.328 55.9379 368.328C56.4699 368.328 56.9086 368.211 57.2539 367.978C57.5993 367.735 57.8466 367.404 57.9959 366.984H58.9619C58.8406 367.395 58.6446 367.768 58.3739 368.104C58.1126 368.44 57.7766 368.701 57.3659 368.888C56.9553 369.075 56.4793 369.168 55.9379 369.168ZM67.7114 369.168C67.058 369.168 66.4747 369.014 65.9614 368.706C65.448 368.398 65.042 367.969 64.7434 367.418C64.4447 366.858 64.2954 366.214 64.2954 365.486C64.2954 364.73 64.4447 364.081 64.7434 363.54C65.042 362.989 65.448 362.56 65.9614 362.252C66.484 361.935 67.0674 361.776 67.7114 361.776C68.5327 361.776 69.214 361.991 69.7554 362.42C70.306 362.84 70.656 363.4 70.8054 364.1H69.8254C69.7227 363.633 69.4754 363.274 69.0834 363.022C68.7007 362.761 68.2387 362.63 67.6974 362.63C67.2774 362.63 66.8854 362.737 66.5214 362.952C66.1574 363.157 65.8634 363.47 65.6394 363.89C65.4154 364.31 65.3034 364.842 65.3034 365.486C65.3034 365.962 65.3687 366.377 65.4994 366.732C65.63 367.087 65.8074 367.385 66.0314 367.628C66.2554 367.861 66.512 368.039 66.8014 368.16C67.0907 368.281 67.3894 368.342 67.6974 368.342C68.052 368.342 68.374 368.286 68.6634 368.174C68.962 368.053 69.214 367.88 69.4194 367.656C69.6247 367.432 69.76 367.161 69.8254 366.844H70.8054C70.6654 367.525 70.32 368.085 69.7694 368.524C69.2187 368.953 68.5327 369.168 67.7114 369.168ZM75.6 369.168C74.956 369.168 74.3727 369.019 73.85 368.72C73.3367 368.412 72.9307 367.983 72.632 367.432C72.3334 366.872 72.184 366.223 72.184 365.486C72.184 364.721 72.3334 364.063 72.632 363.512C72.94 362.961 73.3554 362.537 73.878 362.238C74.4007 361.93 74.984 361.776 75.628 361.776C76.3 361.776 76.8927 361.93 77.406 362.238C77.9194 362.537 78.3254 362.961 78.624 363.512C78.9227 364.063 79.072 364.721 79.072 365.486C79.072 366.223 78.918 366.872 78.61 367.432C78.3114 367.983 77.9007 368.412 77.378 368.72C76.8647 369.019 76.272 369.168 75.6 369.168ZM75.614 368.328C76.0527 368.328 76.454 368.221 76.818 368.006C77.1914 367.791 77.49 367.474 77.714 367.054C77.9474 366.625 78.064 366.097 78.064 365.472C78.064 364.837 77.952 364.31 77.728 363.89C77.504 363.47 77.2054 363.157 76.832 362.952C76.468 362.737 76.0667 362.63 75.628 362.63C75.208 362.63 74.8114 362.737 74.438 362.952C74.0647 363.167 73.7614 363.484 73.528 363.904C73.304 364.315 73.192 364.837 73.192 365.472C73.192 366.097 73.304 366.625 73.528 367.054C73.752 367.474 74.046 367.791 74.41 368.006C74.7834 368.221 75.1847 368.328 75.614 368.328ZM80.7499 369V361.944H81.6459L81.7159 363.008C81.9305 362.616 82.2292 362.313 82.6119 362.098C82.9945 361.883 83.4192 361.776 83.8859 361.776C84.2312 361.776 84.5532 361.827 84.8519 361.93C85.1505 362.033 85.4119 362.187 85.6359 362.392C85.8692 362.597 86.0512 362.863 86.1819 363.19C86.4152 362.751 86.7419 362.406 87.1619 362.154C87.5912 361.902 88.0485 361.776 88.5339 361.776C89.0752 361.776 89.5419 361.883 89.9339 362.098C90.3352 362.313 90.6479 362.639 90.8719 363.078C91.0959 363.517 91.2079 364.072 91.2079 364.744V369H90.2279V364.856C90.2279 364.109 90.0739 363.554 89.7659 363.19C89.4579 362.817 89.0285 362.63 88.4779 362.63C88.1045 362.63 87.7639 362.733 87.4559 362.938C87.1479 363.134 86.9052 363.423 86.7279 363.806C86.5505 364.179 86.4619 364.646 86.4619 365.206V369H85.4819V364.856C85.4819 364.109 85.3279 363.554 85.0199 363.19C84.7212 362.817 84.2965 362.63 83.7459 362.63C83.3632 362.63 83.0179 362.733 82.7099 362.938C82.4112 363.134 82.1732 363.428 81.9959 363.82C81.8185 364.203 81.7299 364.679 81.7299 365.248V369H80.7499ZM93.0545 372.08V361.944H93.9505L94.0345 363.218C94.1839 362.966 94.3799 362.733 94.6225 362.518C94.8652 362.294 95.1545 362.117 95.4905 361.986C95.8359 361.846 96.2279 361.776 96.6665 361.776C97.3479 361.776 97.9405 361.939 98.4445 362.266C98.9579 362.593 99.3545 363.036 99.6345 363.596C99.9145 364.147 100.055 364.777 100.055 365.486C100.055 366.195 99.9099 366.83 99.6205 367.39C99.3405 367.941 98.9485 368.375 98.4445 368.692C97.9405 369.009 97.3432 369.168 96.6525 369.168C96.0552 369.168 95.5279 369.042 95.0705 368.79C94.6225 368.529 94.2772 368.165 94.0345 367.698V372.08H93.0545ZM96.5825 368.314C97.0679 368.314 97.4925 368.197 97.8565 367.964C98.2299 367.731 98.5239 367.404 98.7385 366.984C98.9532 366.555 99.0605 366.051 99.0605 365.472C99.0605 364.903 98.9532 364.403 98.7385 363.974C98.5239 363.545 98.2299 363.213 97.8565 362.98C97.4925 362.747 97.0679 362.63 96.5825 362.63C96.0972 362.63 95.6632 362.747 95.2805 362.98C94.9072 363.213 94.6132 363.545 94.3985 363.974C94.1932 364.394 94.0905 364.893 94.0905 365.472C94.0905 366.041 94.1932 366.541 94.3985 366.97C94.6132 367.399 94.9072 367.731 95.2805 367.964C95.6632 368.197 96.0972 368.314 96.5825 368.314ZM104.76 369.168C104.107 369.168 103.528 369.014 103.024 368.706C102.53 368.398 102.138 367.969 101.848 367.418C101.568 366.858 101.428 366.205 101.428 365.458C101.428 364.711 101.568 364.063 101.848 363.512C102.128 362.961 102.52 362.537 103.024 362.238C103.538 361.93 104.126 361.776 104.788 361.776C105.47 361.776 106.044 361.93 106.51 362.238C106.986 362.546 107.346 362.947 107.588 363.442C107.84 363.937 107.966 364.478 107.966 365.066C107.966 365.159 107.966 365.257 107.966 365.36C107.966 365.453 107.962 365.565 107.952 365.696H102.17V364.87H107.014C106.996 364.151 106.772 363.596 106.342 363.204C105.922 362.812 105.39 362.616 104.746 362.616C104.326 362.616 103.934 362.714 103.57 362.91C103.216 363.097 102.926 363.377 102.702 363.75C102.488 364.114 102.38 364.576 102.38 365.136V365.5C102.38 366.135 102.492 366.662 102.716 367.082C102.94 367.502 103.234 367.815 103.598 368.02C103.972 368.225 104.359 368.328 104.76 368.328C105.292 368.328 105.731 368.211 106.076 367.978C106.422 367.735 106.669 367.404 106.818 366.984H107.784C107.663 367.395 107.467 367.768 107.196 368.104C106.935 368.44 106.599 368.701 106.188 368.888C105.778 369.075 105.302 369.168 104.76 369.168ZM111.971 369C111.569 369 111.224 368.939 110.935 368.818C110.645 368.687 110.421 368.477 110.263 368.188C110.113 367.889 110.039 367.483 110.039 366.97V362.784H108.807V361.944H110.039L110.179 360.306H111.019V361.958H113.133V362.784H111.019V366.97C111.019 367.437 111.112 367.754 111.299 367.922C111.485 368.081 111.817 368.16 112.293 368.16H113.021V369H111.971ZM114.796 369V361.944H115.762V369H114.796ZM115.286 360.278C115.09 360.278 114.922 360.213 114.782 360.082C114.642 359.942 114.572 359.769 114.572 359.564C114.572 359.349 114.637 359.181 114.768 359.06C114.908 358.929 115.076 358.864 115.272 358.864C115.468 358.864 115.636 358.929 115.776 359.06C115.916 359.181 115.986 359.349 115.986 359.564C115.986 359.769 115.916 359.942 115.776 360.082C115.645 360.213 115.482 360.278 115.286 360.278ZM120.57 369C120.169 369 119.824 368.939 119.534 368.818C119.245 368.687 119.021 368.477 118.862 368.188C118.713 367.889 118.638 367.483 118.638 366.97V362.784H117.406V361.944H118.638L118.778 360.306H119.618V361.958H121.732V362.784H119.618V366.97C119.618 367.437 119.712 367.754 119.898 367.922C120.085 368.081 120.416 368.16 120.892 368.16H121.62V369H120.57ZM126.172 369.168C125.528 369.168 124.945 369.019 124.422 368.72C123.909 368.412 123.503 367.983 123.204 367.432C122.906 366.872 122.756 366.223 122.756 365.486C122.756 364.721 122.906 364.063 123.204 363.512C123.512 362.961 123.928 362.537 124.45 362.238C124.973 361.93 125.556 361.776 126.2 361.776C126.872 361.776 127.465 361.93 127.978 362.238C128.492 362.537 128.898 362.961 129.196 363.512C129.495 364.063 129.644 364.721 129.644 365.486C129.644 366.223 129.49 366.872 129.182 367.432C128.884 367.983 128.473 368.412 127.95 368.72C127.437 369.019 126.844 369.168 126.172 369.168ZM126.186 368.328C126.625 368.328 127.026 368.221 127.39 368.006C127.764 367.791 128.062 367.474 128.286 367.054C128.52 366.625 128.636 366.097 128.636 365.472C128.636 364.837 128.524 364.31 128.3 363.89C128.076 363.47 127.778 363.157 127.404 362.952C127.04 362.737 126.639 362.63 126.2 362.63C125.78 362.63 125.384 362.737 125.01 362.952C124.637 363.167 124.334 363.484 124.1 363.904C123.876 364.315 123.764 364.837 123.764 365.472C123.764 366.097 123.876 366.625 124.1 367.054C124.324 367.474 124.618 367.791 124.982 368.006C125.356 368.221 125.757 368.328 126.186 368.328ZM131.322 369V361.944H132.218L132.288 363.302C132.437 362.975 132.638 362.7 132.89 362.476C133.142 362.252 133.445 362.079 133.8 361.958C134.155 361.837 134.556 361.776 135.004 361.776V362.798H134.626C134.327 362.798 134.038 362.84 133.758 362.924C133.478 362.999 133.231 363.129 133.016 363.316C132.801 363.503 132.629 363.755 132.498 364.072C132.367 364.389 132.302 364.786 132.302 365.262V369H131.322ZM138.971 369.168C138.411 369.168 137.916 369.075 137.487 368.888C137.067 368.701 136.726 368.435 136.465 368.09C136.213 367.735 136.059 367.315 136.003 366.83H137.011C137.067 367.101 137.174 367.348 137.333 367.572C137.501 367.796 137.725 367.978 138.005 368.118C138.285 368.249 138.616 368.314 138.999 368.314C139.353 368.314 139.643 368.263 139.867 368.16C140.1 368.048 140.273 367.903 140.385 367.726C140.506 367.539 140.567 367.334 140.567 367.11C140.567 366.802 140.492 366.564 140.343 366.396C140.203 366.219 139.997 366.088 139.727 366.004C139.456 365.92 139.129 365.841 138.747 365.766C138.429 365.71 138.126 365.635 137.837 365.542C137.547 365.449 137.286 365.327 137.053 365.178C136.829 365.029 136.651 364.842 136.521 364.618C136.39 364.385 136.325 364.114 136.325 363.806C136.325 363.405 136.423 363.055 136.619 362.756C136.824 362.448 137.113 362.21 137.487 362.042C137.86 361.865 138.299 361.776 138.803 361.776C139.521 361.776 140.109 361.958 140.567 362.322C141.024 362.677 141.29 363.199 141.365 363.89H140.385C140.347 363.507 140.189 363.204 139.909 362.98C139.629 362.756 139.251 362.644 138.775 362.644C138.308 362.644 137.949 362.742 137.697 362.938C137.454 363.125 137.333 363.381 137.333 363.708C137.333 363.913 137.398 364.091 137.529 364.24C137.659 364.389 137.851 364.52 138.103 364.632C138.364 364.735 138.681 364.823 139.055 364.898C139.503 364.982 139.913 365.094 140.287 365.234C140.669 365.365 140.977 365.57 141.211 365.85C141.453 366.121 141.575 366.508 141.575 367.012C141.584 367.432 141.481 367.805 141.267 368.132C141.052 368.459 140.749 368.715 140.357 368.902C139.965 369.079 139.503 369.168 138.971 369.168ZM150.276 369.168C149.622 369.168 149.039 369.014 148.526 368.706C148.012 368.398 147.606 367.969 147.308 367.418C147.009 366.858 146.86 366.214 146.86 365.486C146.86 364.73 147.009 364.081 147.308 363.54C147.606 362.989 148.012 362.56 148.526 362.252C149.048 361.935 149.632 361.776 150.276 361.776C151.097 361.776 151.778 361.991 152.32 362.42C152.87 362.84 153.22 363.4 153.37 364.1H152.39C152.287 363.633 152.04 363.274 151.648 363.022C151.265 362.761 150.803 362.63 150.262 362.63C149.842 362.63 149.45 362.737 149.086 362.952C148.722 363.157 148.428 363.47 148.204 363.89C147.98 364.31 147.868 364.842 147.868 365.486C147.868 365.962 147.933 366.377 148.064 366.732C148.194 367.087 148.372 367.385 148.596 367.628C148.82 367.861 149.076 368.039 149.366 368.16C149.655 368.281 149.954 368.342 150.262 368.342C150.616 368.342 150.938 368.286 151.228 368.174C151.526 368.053 151.778 367.88 151.984 367.656C152.189 367.432 152.324 367.161 152.39 366.844H153.37C153.23 367.525 152.884 368.085 152.334 368.524C151.783 368.953 151.097 369.168 150.276 369.168ZM157.311 369.168C156.741 369.168 156.265 369.065 155.883 368.86C155.509 368.655 155.229 368.389 155.043 368.062C154.865 367.735 154.777 367.376 154.777 366.984C154.777 366.499 154.898 366.088 155.141 365.752C155.393 365.416 155.743 365.164 156.191 364.996C156.639 364.828 157.161 364.744 157.758 364.744H159.663C159.663 364.287 159.593 363.899 159.453 363.582C159.313 363.265 159.107 363.027 158.837 362.868C158.566 362.7 158.225 362.616 157.815 362.616C157.339 362.616 156.928 362.737 156.583 362.98C156.237 363.223 156.023 363.577 155.939 364.044H154.917C154.973 363.549 155.141 363.134 155.421 362.798C155.71 362.462 156.065 362.21 156.485 362.042C156.905 361.865 157.348 361.776 157.815 361.776C158.468 361.776 159 361.902 159.411 362.154C159.821 362.397 160.129 362.733 160.335 363.162C160.54 363.591 160.643 364.086 160.643 364.646V369H159.747L159.691 367.712C159.607 367.908 159.49 368.095 159.341 368.272C159.201 368.449 159.033 368.603 158.837 368.734C158.65 368.865 158.431 368.967 158.178 369.042C157.927 369.126 157.637 369.168 157.311 369.168ZM157.423 368.314C157.768 368.314 158.076 368.244 158.347 368.104C158.627 367.955 158.865 367.763 159.061 367.53C159.257 367.297 159.406 367.035 159.509 366.746C159.611 366.447 159.663 366.139 159.663 365.822V365.57H157.829C157.334 365.57 156.937 365.631 156.639 365.752C156.34 365.873 156.125 366.037 155.995 366.242C155.864 366.447 155.799 366.685 155.799 366.956C155.799 367.227 155.859 367.465 155.981 367.67C156.102 367.866 156.284 368.025 156.527 368.146C156.779 368.258 157.077 368.314 157.423 368.314ZM162.494 369V361.944H163.39L163.446 363.204C163.67 362.756 163.992 362.406 164.412 362.154C164.841 361.902 165.317 361.776 165.84 361.776C166.381 361.776 166.853 361.883 167.254 362.098C167.655 362.313 167.968 362.639 168.192 363.078C168.416 363.507 168.528 364.058 168.528 364.73V369H167.548V364.842C167.548 364.095 167.385 363.54 167.058 363.176C166.731 362.812 166.265 362.63 165.658 362.63C165.247 362.63 164.874 362.733 164.538 362.938C164.211 363.134 163.95 363.423 163.754 363.806C163.567 364.189 163.474 364.66 163.474 365.22V369H162.494ZM18.994 388V380.944H19.89L19.96 382.302C20.1093 381.975 20.31 381.7 20.562 381.476C20.814 381.252 21.1173 381.079 21.472 380.958C21.8267 380.837 22.228 380.776 22.676 380.776V381.798H22.298C21.9993 381.798 21.71 381.84 21.43 381.924C21.15 381.999 20.9027 382.129 20.688 382.316C20.4733 382.503 20.3007 382.755 20.17 383.072C20.0393 383.389 19.974 383.786 19.974 384.262V388H18.994ZM26.7758 388.168C26.1225 388.168 25.5438 388.014 25.0398 387.706C24.5451 387.398 24.1531 386.969 23.8638 386.418C23.5838 385.858 23.4438 385.205 23.4438 384.458C23.4438 383.711 23.5838 383.063 23.8638 382.512C24.1438 381.961 24.5358 381.537 25.0398 381.238C25.5531 380.93 26.1411 380.776 26.8038 380.776C27.4851 380.776 28.0591 380.93 28.5258 381.238C29.0018 381.546 29.3611 381.947 29.6038 382.442C29.8558 382.937 29.9818 383.478 29.9818 384.066C29.9818 384.159 29.9818 384.257 29.9818 384.36C29.9818 384.453 29.9771 384.565 29.9678 384.696H24.1858V383.87H29.0298C29.0111 383.151 28.7871 382.596 28.3578 382.204C27.9378 381.812 27.4058 381.616 26.7618 381.616C26.3418 381.616 25.9498 381.714 25.5858 381.91C25.2311 382.097 24.9418 382.377 24.7178 382.75C24.5031 383.114 24.3958 383.576 24.3958 384.136V384.5C24.3958 385.135 24.5078 385.662 24.7318 386.082C24.9558 386.502 25.2498 386.815 25.6138 387.02C25.9871 387.225 26.3745 387.328 26.7758 387.328C27.3078 387.328 27.7465 387.211 28.0918 386.978C28.4371 386.735 28.6845 386.404 28.8338 385.984H29.7998C29.6785 386.395 29.4825 386.768 29.2118 387.104C28.9505 387.44 28.6145 387.701 28.2038 387.888C27.7931 388.075 27.3171 388.168 26.7758 388.168ZM33.8398 388.168C33.2705 388.168 32.7945 388.065 32.4118 387.86C32.0385 387.655 31.7585 387.389 31.5718 387.062C31.3945 386.735 31.3058 386.376 31.3058 385.984C31.3058 385.499 31.4271 385.088 31.6698 384.752C31.9218 384.416 32.2718 384.164 32.7198 383.996C33.1678 383.828 33.6905 383.744 34.2878 383.744H36.1918C36.1918 383.287 36.1218 382.899 35.9818 382.582C35.8418 382.265 35.6365 382.027 35.3658 381.868C35.0951 381.7 34.7545 381.616 34.3438 381.616C33.8678 381.616 33.4571 381.737 33.1118 381.98C32.7665 382.223 32.5518 382.577 32.4678 383.044H31.4458C31.5018 382.549 31.6698 382.134 31.9498 381.798C32.2391 381.462 32.5938 381.21 33.0138 381.042C33.4338 380.865 33.8771 380.776 34.3438 380.776C34.9971 380.776 35.5291 380.902 35.9398 381.154C36.3505 381.397 36.6585 381.733 36.8638 382.162C37.0691 382.591 37.1718 383.086 37.1718 383.646V388H36.2758L36.2198 386.712C36.1358 386.908 36.0191 387.095 35.8698 387.272C35.7298 387.449 35.5618 387.603 35.3658 387.734C35.1791 387.865 34.9598 387.967 34.7078 388.042C34.4558 388.126 34.1665 388.168 33.8398 388.168ZM33.9518 387.314C34.2971 387.314 34.6051 387.244 34.8758 387.104C35.1558 386.955 35.3938 386.763 35.5898 386.53C35.7858 386.297 35.9351 386.035 36.0378 385.746C36.1405 385.447 36.1918 385.139 36.1918 384.822V384.57H34.3578C33.8631 384.57 33.4665 384.631 33.1678 384.752C32.8691 384.873 32.6545 385.037 32.5238 385.242C32.3931 385.447 32.3278 385.685 32.3278 385.956C32.3278 386.227 32.3885 386.465 32.5098 386.67C32.6311 386.866 32.8131 387.025 33.0558 387.146C33.3078 387.258 33.6065 387.314 33.9518 387.314ZM42.1313 388.168C41.478 388.168 40.8946 388.014 40.3813 387.706C39.868 387.398 39.462 386.969 39.1633 386.418C38.8646 385.858 38.7153 385.214 38.7153 384.486C38.7153 383.73 38.8646 383.081 39.1633 382.54C39.462 381.989 39.868 381.56 40.3813 381.252C40.904 380.935 41.4873 380.776 42.1313 380.776C42.9526 380.776 43.634 380.991 44.1753 381.42C44.726 381.84 45.076 382.4 45.2253 383.1H44.2453C44.1426 382.633 43.8953 382.274 43.5033 382.022C43.1206 381.761 42.6586 381.63 42.1173 381.63C41.6973 381.63 41.3053 381.737 40.9413 381.952C40.5773 382.157 40.2833 382.47 40.0593 382.89C39.8353 383.31 39.7233 383.842 39.7233 384.486C39.7233 384.962 39.7886 385.377 39.9193 385.732C40.05 386.087 40.2273 386.385 40.4513 386.628C40.6753 386.861 40.932 387.039 41.2213 387.16C41.5106 387.281 41.8093 387.342 42.1173 387.342C42.472 387.342 42.794 387.286 43.0833 387.174C43.382 387.053 43.634 386.88 43.8393 386.656C44.0446 386.432 44.18 386.161 44.2453 385.844H45.2253C45.0853 386.525 44.74 387.085 44.1893 387.524C43.6386 387.953 42.9526 388.168 42.1313 388.168ZM49.3672 388C48.9659 388 48.6206 387.939 48.3312 387.818C48.0419 387.687 47.8179 387.477 47.6592 387.188C47.5099 386.889 47.4352 386.483 47.4352 385.97V381.784H46.2032V380.944H47.4352L47.5752 379.306H48.4152V380.958H50.5292V381.784H48.4152V385.97C48.4152 386.437 48.5086 386.754 48.6952 386.922C48.8819 387.081 49.2132 387.16 49.6892 387.16H50.4172V388H49.3672ZM52.3746 388.07C52.1693 388.07 51.9966 388 51.8566 387.86C51.7259 387.72 51.6606 387.547 51.6606 387.342C51.6606 387.137 51.7259 386.969 51.8566 386.838C51.9966 386.698 52.1693 386.628 52.3746 386.628C52.5799 386.628 52.7479 386.698 52.8786 386.838C53.0186 386.969 53.0886 387.141 53.0886 387.356C53.0886 387.552 53.0186 387.72 52.8786 387.86C52.7479 388 52.5799 388.07 52.3746 388.07Z" fill="white"/>
</svg>
