<svg width="690" height="203" viewBox="0 0 690 203" fill="none" xmlns="http://www.w3.org/2000/svg">
<mask id="mask0_48_2475" style="mask-type:luminance" maskUnits="userSpaceOnUse" x="0" y="0" width="352" height="235">
<path d="M351.562 0H0V234.375H351.562V0Z" fill="white"/>
</mask>
<g mask="url(#mask0_48_2475)">
<path d="M263.605 175.205V171.647H258.141V167.65V167.647V167.364V166.859V166.554V166.049V165.746V165.24V164.935V164.43V164.126V163.621V163.317V162.811V162.507V162.003V161.7V161.193V160.888V160.383V160.079V159.575V159.271V158.765V158.461V157.955V157.652V157.147V156.843V156.337V156.033V155.528V155.224V154.718V154.415V153.909V153.605V153.1V152.796V152.29V151.986V151.481V151.177V150.671V150.368V149.862V149.558V149.054V148.75V148.244V147.94V147.434V147.13V146.624V146.321V145.816V145.512V145.006V144.702V144.198V143.894V143.387V143.084V142.578V142.274V141.768V141.465V140.959V140.656V140.15V139.846V139.341V139.036V138.53V138.227V137.722V137.418V136.912V136.608V136.103V135.799V135.294V134.991V134.484V134.18V133.675V133.372V132.866V132.562V132.056V131.752V131.247V130.943V130.437V130.133V129.628V129.324V128.819V128.515V128.009V127.705V127.2V126.896V126.391V126.087V125.581V125.276V124.771V124.468V123.962V123.658V123.153H257.434V122.849V122.343V122.04V121.534V121.433H257.13H256.624H256.591V121.23V120.725V120.422V119.916V119.782H256.187V119.612V119.105V118.667H255.511V118.659H255.006V118.667H254.95L255.47 117.346L255.47 117.344L255.58 117.066H254.297H254.162H253.927H253.792H253.681H253.522V117.041H253.623V116.536H253.522V116.231H253.623V115.726H253.522V115.422H253.623V115.009H252.929C252.848 113.03 251.463 111.392 249.609 110.928V110.325H247.467V110.928C245.612 111.392 244.227 113.03 244.147 115.009H243.775V115.01V115.422V115.726V116.231V116.536V117.041V117.066H243.758H243.37H243.27H243.236H241.717L241.826 117.344H241.726L241.938 117.851H242.026L242.145 118.154H242.038L242.234 118.659H242.344L242.347 118.667H242.156H241.65H241.211V119.105V119.611V119.781H240.806V119.915V120.421V120.725V121.23V121.433H240.536H240.031H239.964V121.534V122.04V122.343V122.849V123.153H239.255V123.658V123.962V124.467V124.771V125.276V125.581V126.086V126.39V126.895V127.199V127.705V128.008V128.514V128.818V129.323V129.627V130.132V130.437V130.943V131.247V131.752V132.056V132.561V132.865V133.371V133.674V134.179V134.484V134.99V135.293V135.799V136.102V136.607V136.912V137.418V137.721V138.226V138.53V139.036V139.34V139.845V140.15V140.655V140.958V141.464V141.768V142.273V142.578V143.083V143.387V143.894V144.197V144.702V145.005V145.511V145.815V146.32V146.624V147.129V147.434V147.94V148.243V148.749V149.054V149.558V149.862V150.368V150.671V151.177V151.48V151.986V152.289V152.795V153.099V153.605V153.909V154.414V154.718V155.223V155.527V156.033V156.337V156.843V157.146V157.651V157.954V158.461V158.764V159.271V159.574V160.079V160.383V160.887V161.192V161.699V162.003V162.507V162.811V163.317V163.621V164.126V164.429V164.935V165.239V165.644V165.745V166.049V166.554V166.858V167.363V167.65V171.647H230.52V175.204H225.158V179.859H225.486H227.401H227.839H229.424H229.862H231.042H231.481H233.066H233.505H235.091H235.528H237.114H237.552H239.138H239.576H241.162H241.6H242.78H243.164H243.219H244.585H245.571H246.786H247.232H248.404H248.649H248.851H250.023H250.47H251.869H252.856H254.091H254.112H254.55H256.136H256.574H258.159H258.597H260.183H260.621H262.207H262.645H264.229H264.668H265.849H266.287H266.97H267.349V175.204H263.605V175.205ZM252.173 115.007H251.464H250.958H250.251L251.587 112.967C252.009 113.545 252.269 114.245 252.305 115.007H252.173ZM249.697 115.007H249.567L249.629 114.812L249.697 115.007ZM249.148 115.007H249.142V113.411L249.41 114.183L249.148 115.007ZM247.934 114.964L247.676 114.154L247.934 113.413V114.964ZM247.528 115.007H247.379L247.458 114.783L247.528 115.007ZM251.322 112.643L249.958 114.725L249.801 114.272L250.53 111.983C250.823 112.167 251.089 112.388 251.322 112.643ZM250.173 111.788L249.582 113.643L249.148 112.394H249.609V111.568C249.805 111.626 249.992 111.701 250.173 111.788ZM247.928 112.394L247.504 113.613L246.92 111.78C247.096 111.696 247.278 111.624 247.467 111.568V112.395H247.928V112.394ZM246.563 111.973L247.285 114.242L247.137 114.665L245.788 112.605C246.017 112.361 246.277 112.15 246.563 111.973ZM245.52 112.924L246.884 115.006H246.827H245.713H245.209H244.77C244.807 114.227 245.08 113.51 245.52 112.924Z" fill="#F0F3FF"/>
<path d="M29.6127 127.566V125.395H16.5008V127.566H12.966V196.127H29.841V127.566H29.6127Z" fill="#F0F3FF"/>
<path d="M300.678 146.938H291.702V189.664H300.678V146.938Z" fill="#F0F3FF"/>
<path d="M299.721 144.904H297.926V147.417H299.721V144.904Z" fill="#F0F3FF"/>
<path d="M98.8501 116.539H92.5192V125.214H90.1534V130.892H87.4717V188.148H98.8501V116.539Z" fill="#F0F3FF"/>
<path d="M231.462 138.68H222.287V140.538H231.462V138.68Z" fill="#F0F3FF"/>
<path d="M233.935 139.991H222.127V181.406H233.935V139.991Z" fill="#F0F3FF"/>
<path d="M158.497 128.126V126.433H148.803V128.126H140.784V197.204H164.72V128.126H158.497Z" fill="#F0F3FF"/>
<path d="M285.877 128.587H283.008V127.311H272.918V129.066H269.4V130.103H266.809V197.084H285.877V128.587Z" fill="#F7F8FF"/>
<path d="M118.166 102.775H96.1445V197.124H118.166V102.775Z" fill="#F7F9FF"/>
<path d="M220.349 130.07V126.114H207.241V130.206H202.522V138.401H199.124V182.722H224.282V131.706L220.349 130.07Z" fill="#F7F8FF"/>
<path d="M201.543 156.153V153.321H189.974V156.153H184.708V197.444H207.208V156.153H201.543Z" fill="#F7F9FF"/>
<path opacity="0.71" d="M157.66 136.166H149.402V139.579H145.572V193.134H157.899L157.66 136.166Z" fill="#F7F9FF"/>
<path d="M262.104 162.878H255.347V160.442H252.85V157.064H250.61V150.17H237.315V157.064H235.075V160.442H232.578V162.878H225.82V197.373H235.075V197.603H252.85V197.501H262.104V162.878Z" fill="#F7F9FF"/>
<path d="M330.958 131.5H303.91V197.324H330.958V131.5Z" fill="#F7F9FF"/>
<path d="M319.704 126.114H308.754V132.816H319.704V126.114Z" fill="#F7F9FF"/>
<path d="M52.265 108.72H47.8381V111.286H28.6578V108.72H24.2305V185.055H26.5958V185.635H49.0541V185.055H52.265V108.72Z" fill="#E9EEFF"/>
<path d="M81.4562 117.496V115.661H73.6122L73.0984 106.805L72.5852 115.661H67.5081L66.9948 106.805L66.4816 115.661H58.637V117.496H57.1211V196.965H82.9722V117.496H81.4562Z" fill="#E9EEFF"/>
<path d="M140.013 120.19V115.533H138.014L132.015 110.532L131.755 110.315L131.496 110.532L125.496 115.533H123.497V120.19H121.522V197.443H141.988V120.19H140.013Z" fill="#E9EEFF"/>
<path d="M295.403 145.312V148.181C295.403 148.577 295.084 148.896 294.688 148.896H293.937V195.529H285.28V148.896H284.523C284.132 148.896 283.814 148.578 283.814 148.181V145.312C283.814 145.046 283.919 144.796 284.106 144.608L285.681 143.033V133.046H284.346V131.982H285.28V128.389H286.48L289.009 119.298L289.608 117.139L290.209 119.298L292.738 128.389H293.937V131.982H294.866V133.046H293.536V143.033L295.111 144.608C295.294 144.796 295.403 145.046 295.403 145.312Z" fill="#E9EEFF"/>
<path d="M124.628 143.412H105.639V197.444H124.628V143.412Z" fill="#E9EEFF"/>
<path d="M185.664 129.107H180.079V126.273H170.664V129.107H166.994V130.773H160.132V134.107H156.781V197.444H185.664V129.107Z" fill="#E9EEFF"/>
<path d="M277.42 152.516V144.545H262.48V152.516H260.346V197.603H279.555V152.516H277.42Z" fill="#E9EEFF"/>
<path d="M333.595 133.414V137.962L319.867 139.997V197.683H345.439V130.798L333.595 133.414Z" fill="#E9EEFF"/>
<path d="M239.405 180.899V178.653H198.268V180.899H196.955V197.603H240.718V180.899H239.405Z" fill="#E9EEFF"/>
<path d="M316.955 170.296V197.843H295.771V170.296H298.573V166.493L306.015 161.529L306.363 161.3L306.711 161.529L314.153 166.493V170.296H316.955Z" fill="#E9EEFF"/>
<path d="M321.702 179.97H319.428H317.872H315.598L306.063 188.943V197.842H317.872H319.428H331.236V188.943L321.702 179.97Z" fill="#E1E7FF"/>
<path d="M292.739 185.318L292.3 185.046L291.861 185.318L284.601 189.807V197.842H291.861H292.739H300V189.807L292.739 185.318Z" fill="#E1E7FF"/>
<path d="M167.935 196.582C168.028 196.107 168.083 195.624 168.083 195.133C168.083 188.544 159.362 183.201 148.604 183.201C137.846 183.201 129.125 188.543 129.125 195.133C129.125 195.624 129.179 196.107 129.273 196.582H167.935Z" fill="#E1E7FF"/>
<path d="M263.935 190.857H262.534L261.388 190.459L261.349 183.439L262.206 182.857L261.2 182.897L261.234 180.457L260.666 179.17L260.047 180.292L257.789 175.736L255.326 180.743L255.216 182.505H254.036L254.205 179.17L253.302 176.935L252.496 178.916L249.102 173.82L249.053 173.746L249.004 173.82L245.61 178.916L244.804 176.935L244.14 178.903L244.069 182.505H242.89L242.78 180.743L240.317 175.736L238.059 180.292L237.439 179.17L236.872 180.457L236.906 182.897L235.899 182.857L236.757 183.439L236.718 190.459L235.572 190.857H234.134V197.763H263.935V190.857Z" fill="#E1E7FF"/>
<path d="M68.748 183.062H31.5156V197.562H68.748V183.062Z" fill="#E1E7FF"/>
<path d="M28.8834 173.507V170.874H11.4102V173.507H7.58008V197.563H48.0323V173.507H28.8834Z" fill="#E1E7FF"/>
<path d="M358.484 195.529H-6.7821V202.231H358.484V195.529Z" fill="#E1E7FF"/>
<path d="M102.208 186.273H98.0986V185.555H94.4766V183.839H94.6116V183.676V183.513H94.2431L93.9098 183.37C93.8255 181.299 92.5852 179.525 90.8114 178.677V178.547V178.332H90.4669V177.952V177.878V177.671V177.592H90.4486L89.9217 177.406V176.282V175.759H90.3708V175.585V175.37H90.0591V175.022H90.008V174.458H89.8341V175.022H89.82C89.6803 174.55 89.2711 174.198 88.7677 174.145V174.085C88.8877 174.031 88.972 173.912 88.972 173.772C88.972 173.655 88.9092 173.556 88.8188 173.493C88.8675 173.444 88.8975 173.376 88.8975 173.301C88.8975 173.152 88.7756 173.03 88.6252 173.03C88.4733 173.03 88.3528 173.152 88.3528 173.301C88.3528 173.376 88.3833 173.445 88.4316 173.494C88.342 173.556 88.2792 173.655 88.2792 173.772C88.2792 173.913 88.3641 174.033 88.485 174.086V174.147C87.9919 174.209 87.592 174.557 87.4552 175.022H87.4017V174.459H87.2278V175.022H87.1725V175.37H86.9025V175.586V175.76H87.3309V176.282V177.378L86.7244 177.593H86.7047V177.879V177.953H86.6892V178.333H86.0456V178.548V178.717C84.3052 179.583 83.0958 181.347 83.0236 183.401L82.7588 183.514H82.4606V183.677V183.84H82.5656V184.111V185.556H79.388V186.274H74.88V195.849H74.9766V196.247H79.4686H79.8998H80.9231H82.3125H83.0841H84.4725H85.2455H86.6348H87.7613H87.8831H88.0669H88.3636H88.5469H88.8431H89.0278H89.1506H90.2878H91.6786H92.5477H93.937H94.8539H96.2414H96.9483H97.0523H97.073H97.4433H97.4447H101.939V195.849H102.206V186.273H102.208Z" fill="#E1E7FF"/>
</g>
<mask id="mask1_48_2475" style="mask-type:luminance" maskUnits="userSpaceOnUse" x="338" y="0" width="352" height="235">
<path d="M690 0H338.438V234.375H690V0Z" fill="white"/>
</mask>
<g mask="url(#mask1_48_2475)">
<path d="M602.044 175.205V171.647H596.58V167.65V167.647V167.364V166.859V166.554V166.049V165.746V165.24V164.935V164.43V164.126V163.621V163.317V162.811V162.507V162.003V161.7V161.193V160.888V160.383V160.079V159.575V159.271V158.765V158.461V157.955V157.652V157.147V156.843V156.337V156.033V155.528V155.224V154.718V154.415V153.909V153.605V153.1V152.796V152.29V151.986V151.481V151.177V150.671V150.368V149.862V149.558V149.054V148.75V148.244V147.94V147.434V147.13V146.624V146.321V145.816V145.512V145.006V144.702V144.198V143.894V143.387V143.084V142.578V142.274V141.768V141.465V140.959V140.656V140.15V139.846V139.341V139.036V138.53V138.227V137.722V137.418V136.912V136.608V136.103V135.799V135.294V134.991V134.484V134.18V133.675V133.372V132.866V132.562V132.056V131.752V131.247V130.943V130.437V130.133V129.628V129.324V128.819V128.515V128.009V127.705V127.2V126.896V126.391V126.087V125.581V125.276V124.771V124.468V123.962V123.658V123.153H595.872V122.849V122.343V122.04V121.534V121.433H595.568H595.063H595.029V121.23V120.725V120.422V119.916V119.782H594.625V119.612V119.105V118.667H593.95V118.659H593.445V118.667H593.388L593.908 117.346L593.909 117.344L594.018 117.066H592.736H592.601H592.365H592.23H592.12H591.96V117.041H592.061V116.536H591.96V116.231H592.061V115.726H591.96V115.422H592.061V115.009H591.367C591.287 113.03 589.902 111.392 588.047 110.928V110.325H585.905V110.928C584.051 111.392 582.666 113.03 582.585 115.009H582.213V115.01V115.422V115.726V116.231V116.536V117.041V117.066H582.196H581.809H581.708H581.674H580.156L580.265 117.344H580.165L580.377 117.851H580.464L580.584 118.154H580.477L580.673 118.659H580.782L580.786 118.667H580.594H580.089H579.649V119.105V119.611V119.781H579.244V119.915V120.421V120.725V121.23V121.433H578.975H578.47H578.402V121.534V122.04V122.343V122.849V123.153H577.693V123.658V123.962V124.467V124.771V125.276V125.581V126.086V126.39V126.895V127.199V127.705V128.008V128.514V128.818V129.323V129.627V130.132V130.437V130.943V131.247V131.752V132.056V132.561V132.865V133.371V133.674V134.179V134.484V134.99V135.293V135.799V136.102V136.607V136.912V137.418V137.721V138.226V138.53V139.036V139.34V139.845V140.15V140.655V140.958V141.464V141.768V142.273V142.578V143.083V143.387V143.894V144.197V144.702V145.005V145.511V145.815V146.32V146.624V147.129V147.434V147.94V148.243V148.749V149.054V149.558V149.862V150.368V150.671V151.177V151.48V151.986V152.289V152.795V153.099V153.605V153.909V154.414V154.718V155.223V155.527V156.033V156.337V156.843V157.146V157.651V157.954V158.461V158.764V159.271V159.574V160.079V160.383V160.887V161.192V161.699V162.003V162.507V162.811V163.317V163.621V164.126V164.429V164.935V165.239V165.644V165.745V166.049V166.554V166.858V167.363V167.65V171.647H568.959V175.204H563.597V179.859H563.925H565.839H566.277H567.863H568.301H569.481H569.919H571.505H571.944H573.529H573.967H575.553H575.991H577.576H578.014H579.6H580.038H581.218H581.602H581.657H583.023H584.01H585.224H585.671H586.842H587.087H587.289H588.462H588.908H590.308H591.294H592.529H592.55H592.989H594.574H595.012H596.598H597.036H598.621H599.059H600.645H601.084H602.668H603.107H604.287H604.726H605.408H605.788V175.204H602.044V175.205ZM590.611 115.007H589.903H589.397H588.689L590.026 112.967C590.447 113.545 590.707 114.245 590.743 115.007H590.611ZM588.135 115.007H588.005L588.067 114.812L588.135 115.007ZM587.587 115.007H587.58V113.411L587.849 114.183L587.587 115.007ZM586.372 114.964L586.115 114.154L586.372 113.413V114.964ZM585.967 115.007H585.818L585.896 114.783L585.967 115.007ZM589.761 112.643L588.397 114.725L588.239 114.272L588.968 111.983C589.262 112.167 589.528 112.388 589.761 112.643ZM588.612 111.788L588.021 113.643L587.586 112.394H588.048V111.568C588.243 111.626 588.43 111.701 588.612 111.788ZM586.367 112.394L585.942 113.613L585.359 111.78C585.535 111.696 585.716 111.624 585.905 111.568V112.395H586.367V112.394ZM585.002 111.973L585.723 114.242L585.576 114.665L584.226 112.605C584.456 112.361 584.716 112.15 585.002 111.973ZM583.959 112.924L585.322 115.006H585.266H584.152H583.647H583.209C583.246 114.227 583.519 113.51 583.959 112.924Z" fill="#F0F3FF"/>
<path d="M368.05 127.566V125.395H354.938V127.566H351.403V196.127H368.278V127.566H368.05Z" fill="#F0F3FF"/>
<path d="M639.116 146.938H630.14V189.664H639.116V146.938Z" fill="#F0F3FF"/>
<path d="M638.16 144.903H636.364V147.417H638.16V144.903Z" fill="#F0F3FF"/>
<path d="M437.288 116.539H430.957V125.214H428.591V130.892H425.909V188.148H437.288V116.539Z" fill="#F0F3FF"/>
<path d="M569.9 138.68H560.724V140.538H569.9V138.68Z" fill="#F0F3FF"/>
<path d="M572.373 139.991H560.564V181.406H572.373V139.991Z" fill="#F0F3FF"/>
<path d="M496.934 128.126V126.433H487.24V128.126H479.222V197.204H503.157V128.126H496.934Z" fill="#F0F3FF"/>
<path d="M624.316 128.587H621.446V127.311H611.356V129.066H607.839V130.103H605.247V197.084H624.316V128.587Z" fill="#F7F8FF"/>
<path d="M456.603 102.775H434.582V197.124H456.603V102.775Z" fill="#F7F9FF"/>
<path d="M558.787 130.07V126.114H545.679V130.206H540.96V138.401H537.562V182.722H562.719V131.706L558.787 130.07Z" fill="#F7F8FF"/>
<path d="M539.98 156.153V153.321H528.411V156.153H523.146V197.444H545.646V156.153H539.98Z" fill="#F7F9FF"/>
<path opacity="0.71" d="M496.098 136.166H487.839V139.579H484.01V193.134H496.337L496.098 136.166Z" fill="#F7F9FF"/>
<path d="M600.542 162.878H593.784V160.442H591.287V157.064H589.047V150.17H575.753V157.064H573.512V160.442H571.015V162.878H564.258V197.373H573.512V197.603H591.287V197.501H600.542V162.878Z" fill="#F7F9FF"/>
<path d="M669.396 131.5H642.348V197.324H669.396V131.5Z" fill="#F7F9FF"/>
<path d="M658.141 126.114H647.192V132.816H658.141V126.114Z" fill="#F7F9FF"/>
<path d="M390.702 108.72H386.276V111.286H367.095V108.72H362.668V185.055H365.033V185.635H387.492V185.055H390.702V108.72Z" fill="#E9EEFF"/>
<path d="M419.894 117.496V115.661H412.05L411.536 106.805L411.023 115.661H405.946L405.432 106.805L404.919 115.661H397.075V117.496H395.559V196.965H421.41V117.496H419.894Z" fill="#E9EEFF"/>
<path d="M478.451 120.19V115.533H476.452L470.452 110.532L470.193 110.315L469.934 110.532L463.934 115.533H461.935V120.19H459.96V197.443H480.426V120.19H478.451Z" fill="#E9EEFF"/>
<path d="M633.84 145.312V148.181C633.84 148.577 633.522 148.896 633.126 148.896H632.375V195.529H623.717V148.896H622.961C622.57 148.896 622.252 148.578 622.252 148.181V145.312C622.252 145.046 622.356 144.796 622.544 144.608L624.119 143.033V133.046H622.784V131.982H623.718V128.389H624.917L627.447 119.298L628.046 117.139L628.646 119.298L631.175 128.389H632.375V131.982H633.304V133.046H631.974V143.033L633.549 144.608C633.731 144.796 633.84 145.046 633.84 145.312Z" fill="#E9EEFF"/>
<path d="M463.066 143.412H444.076V197.444H463.066V143.412Z" fill="#E9EEFF"/>
<path d="M524.103 129.107H518.518V126.273H509.103V129.107H505.433V130.773H498.571V134.107H495.22V197.443H524.103V129.107Z" fill="#E9EEFF"/>
<path d="M615.858 152.516V144.545H600.918V152.516H598.783V197.603H617.992V152.516H615.858Z" fill="#E9EEFF"/>
<path d="M672.033 133.414V137.962L658.305 139.997V197.683H683.876V130.798L672.033 133.414Z" fill="#E9EEFF"/>
<path d="M577.843 180.899V178.653H536.705V180.899H535.392V197.603H579.156V180.899H577.843Z" fill="#E9EEFF"/>
<path d="M655.392 170.296V197.843H634.209V170.296H637.011V166.493L644.453 161.529L644.801 161.3L645.149 161.529L652.591 166.493V170.296H655.392Z" fill="#E9EEFF"/>
<path d="M660.139 179.97H657.866H656.31H654.036L644.501 188.943V197.842H656.31H657.866H669.674V188.943L660.139 179.97Z" fill="#E1E7FF"/>
<path d="M631.177 185.318L630.738 185.046L630.299 185.318L623.038 189.807V197.842H630.299H631.177H638.437V189.807L631.177 185.318Z" fill="#E1E7FF"/>
<path d="M506.372 196.582C506.466 196.107 506.52 195.624 506.52 195.133C506.52 188.544 497.799 183.201 487.041 183.201C476.284 183.201 467.562 188.543 467.562 195.133C467.562 195.624 467.616 196.107 467.711 196.582H506.372Z" fill="#E1E7FF"/>
<path d="M602.373 190.857H600.971L599.825 190.459L599.786 183.439L600.644 182.857L599.637 182.897L599.671 180.457L599.104 179.17L598.484 180.292L596.226 175.736L593.764 180.743L593.654 182.505H592.473L592.642 179.17L591.739 176.935L590.934 178.916L587.54 173.82L587.491 173.746L587.441 173.82L584.048 178.916L583.242 176.935L582.578 178.903L582.507 182.505H581.327L581.217 180.743L578.755 175.736L576.496 180.292L575.876 179.17L575.309 180.457L575.344 182.897L574.337 182.857L575.195 183.439L575.155 190.459L574.009 190.857H572.571V197.763H602.373V190.857Z" fill="#E1E7FF"/>
<path d="M407.185 183.062H369.953V197.562H407.185V183.062Z" fill="#E1E7FF"/>
<path d="M367.321 173.507V170.874H349.848V173.507H346.018V197.563H386.47V173.507H367.321Z" fill="#E1E7FF"/>
<path d="M696.922 195.529H331.656V202.231H696.922V195.529Z" fill="#E1E7FF"/>
<path d="M440.645 186.273H436.536V185.555H432.914V183.839H433.049V183.676V183.513H432.681L432.347 183.37C432.263 181.299 431.023 179.525 429.249 178.677V178.547V178.332H428.904V177.952V177.878V177.671V177.592H428.886L428.359 177.406V176.282V175.759H428.808V175.585V175.37H428.497V175.022H428.445V174.458H428.272V175.022H428.258C428.118 174.55 427.709 174.198 427.205 174.145V174.085C427.325 174.031 427.41 173.912 427.41 173.772C427.41 173.655 427.347 173.556 427.256 173.493C427.305 173.444 427.335 173.376 427.335 173.301C427.335 173.152 427.213 173.03 427.063 173.03C426.911 173.03 426.79 173.152 426.79 173.301C426.79 173.376 426.821 173.445 426.869 173.494C426.78 173.556 426.717 173.655 426.717 173.772C426.717 173.913 426.802 174.033 426.923 174.086V174.147C426.429 174.209 426.03 174.557 425.893 175.022H425.839V174.459H425.665V175.022H425.61V175.37H425.34V175.586V175.76H425.768V176.282V177.378L425.162 177.593H425.142V177.879V177.953H425.127V178.333H424.483V178.548V178.717C422.743 179.583 421.533 181.347 421.461 183.401L421.196 183.514H420.898V183.677V183.84H421.003V184.111V185.556H417.825V186.274H413.318V195.849H413.414V196.247H417.906H418.337H419.361H420.75H421.522H422.91H423.683H425.072H426.199H426.321H426.504H426.801H426.984H427.281H427.465H427.588H428.725H430.116H430.985H432.375H433.291H434.679H435.386H435.49H435.51H435.881H435.882H440.377V195.849H440.644V186.273H440.645Z" fill="#E1E7FF"/>
</g>
</svg>
