<svg width="26" height="20" viewBox="0 0 26 20" fill="none" xmlns="http://www.w3.org/2000/svg">
<path d="M24.6263 0C25.14 0 25.5 0.39125 25.5 0.82875C25.5 1.13875 25.3188 1.4725 24.8787 1.70625C22.6438 2.89125 20.0563 6.98875 20.0563 9.51625C23.8263 9.40125 25.4638 12.7438 25.4638 14.8388C25.4638 17.3475 23.2913 20 20.0788 20C16.0288 20 14.0413 16.8162 14.0413 13.3663C14.0413 5.89125 22.5838 0 24.6263 0ZM11.085 0C11.5975 0 11.9587 0.39125 11.9587 0.82875C11.9587 1.13875 11.7775 1.4725 11.3375 1.70625C9.1025 2.89125 6.515 6.98875 6.515 9.51625C10.285 9.40125 11.9225 12.7438 11.9225 14.8388C11.9225 17.3475 9.74875 20 6.5375 20C2.48625 20 0.5 16.8162 0.5 13.3663C0.5 5.89125 9.04125 0 11.085 0Z" fill="#11111C"/>
</svg>
