<svg width="924" height="109" viewBox="0 0 924 109" fill="none" xmlns="http://www.w3.org/2000/svg">
<path opacity="0.6" d="M3.73289 10V3.94L2.53289 4.24V3.64L4.01289 3H4.58289V10H3.73289ZM8.75813 10.12C8.14479 10.12 7.61479 9.97 7.16813 9.67C6.72813 9.36333 6.39146 8.94 6.15813 8.4C5.92479 7.85333 5.80813 7.22 5.80813 6.5C5.80813 5.78 5.92479 5.15 6.15813 4.61C6.39146 4.06333 6.72813 3.64 7.16813 3.34C7.61479 3.03333 8.14479 2.88 8.75813 2.88C9.37146 2.88 9.89479 3.03333 10.3281 3.34C10.7681 3.64 11.1048 4.06333 11.3381 4.61C11.5715 5.15 11.6881 5.78 11.6881 6.5C11.6881 7.22 11.5715 7.85333 11.3381 8.4C11.1048 8.94 10.7681 9.36333 10.3281 9.67C9.89479 9.97 9.37146 10.12 8.75813 10.12ZM8.74813 9.38C9.14813 9.38 9.50479 9.26667 9.81813 9.04C10.1315 8.80667 10.3781 8.47667 10.5581 8.05C10.7381 7.61667 10.8281 7.1 10.8281 6.5C10.8281 5.9 10.7381 5.38667 10.5581 4.96C10.3781 4.52667 10.1315 4.19667 9.81813 3.97C9.50479 3.74333 9.14813 3.63 8.74813 3.63C8.34813 3.63 7.98813 3.74333 7.66813 3.97C7.35479 4.19667 7.10813 4.52667 6.92813 4.96C6.75479 5.38667 6.66813 5.9 6.66813 6.5C6.66813 7.1 6.75479 7.61667 6.92813 8.05C7.10813 8.47667 7.35479 8.80667 7.66813 9.04C7.98813 9.26667 8.34813 9.38 8.74813 9.38ZM15.5941 10.12C14.9807 10.12 14.4507 9.97 14.0041 9.67C13.5641 9.36333 13.2274 8.94 12.9941 8.4C12.7607 7.85333 12.6441 7.22 12.6441 6.5C12.6441 5.78 12.7607 5.15 12.9941 4.61C13.2274 4.06333 13.5641 3.64 14.0041 3.34C14.4507 3.03333 14.9807 2.88 15.5941 2.88C16.2074 2.88 16.7307 3.03333 17.1641 3.34C17.6041 3.64 17.9407 4.06333 18.1741 4.61C18.4074 5.15 18.5241 5.78 18.5241 6.5C18.5241 7.22 18.4074 7.85333 18.1741 8.4C17.9407 8.94 17.6041 9.36333 17.1641 9.67C16.7307 9.97 16.2074 10.12 15.5941 10.12ZM15.5841 9.38C15.9841 9.38 16.3407 9.26667 16.6541 9.04C16.9674 8.80667 17.2141 8.47667 17.3941 8.05C17.5741 7.61667 17.6641 7.1 17.6641 6.5C17.6641 5.9 17.5741 5.38667 17.3941 4.96C17.2141 4.52667 16.9674 4.19667 16.6541 3.97C16.3407 3.74333 15.9841 3.63 15.5841 3.63C15.1841 3.63 14.8241 3.74333 14.5041 3.97C14.1907 4.19667 13.9441 4.52667 13.7641 4.96C13.5907 5.38667 13.5041 5.9 13.5041 6.5C13.5041 7.1 13.5907 7.61667 13.7641 8.05C13.9441 8.47667 14.1907 8.80667 14.5041 9.04C14.8241 9.26667 15.1841 9.38 15.5841 9.38Z" fill="white"/>
<path opacity="0.6" d="M9.22766 34L11.9577 27.72H8.11766V27H12.8177V27.63L10.1177 34H9.22766ZM16.0065 34.12C15.5265 34.12 15.1098 34.0333 14.7565 33.86C14.4098 33.6867 14.1332 33.45 13.9265 33.15C13.7265 32.85 13.5998 32.5133 13.5465 32.14H14.3665C14.4465 32.5133 14.6298 32.8167 14.9165 33.05C15.2032 33.2833 15.5698 33.4 16.0165 33.4C16.3498 33.4 16.6332 33.3233 16.8665 33.17C17.1065 33.0167 17.2898 32.8067 17.4165 32.54C17.5498 32.2733 17.6165 31.9767 17.6165 31.65C17.6165 31.31 17.5498 31.01 17.4165 30.75C17.2832 30.49 17.0998 30.29 16.8665 30.15C16.6332 30.0033 16.3598 29.93 16.0465 29.93C15.6665 29.93 15.3432 30.0133 15.0765 30.18C14.8098 30.3467 14.6098 30.56 14.4765 30.82H13.6665L14.2465 27H17.9465V27.73H14.8965L14.5065 29.88C14.6732 29.6867 14.8932 29.53 15.1665 29.41C15.4465 29.2833 15.7698 29.22 16.1365 29.22C16.4832 29.22 16.7965 29.28 17.0765 29.4C17.3565 29.52 17.5965 29.69 17.7965 29.91C17.9965 30.13 18.1498 30.3867 18.2565 30.68C18.3698 30.9733 18.4265 31.2933 18.4265 31.64C18.4265 31.98 18.3698 32.3 18.2565 32.6C18.1498 32.8933 17.9932 33.1567 17.7865 33.39C17.5798 33.6167 17.3265 33.7967 17.0265 33.93C16.7265 34.0567 16.3865 34.12 16.0065 34.12Z" fill="white"/>
<path opacity="0.6" d="M9.17055 58.12C8.69055 58.12 8.27388 58.0333 7.92055 57.86C7.57388 57.6867 7.29721 57.45 7.09055 57.15C6.89055 56.85 6.76388 56.5133 6.71055 56.14H7.53055C7.61055 56.5133 7.79388 56.8167 8.08055 57.05C8.36721 57.2833 8.73388 57.4 9.18055 57.4C9.51388 57.4 9.79721 57.3233 10.0305 57.17C10.2705 57.0167 10.4539 56.8067 10.5805 56.54C10.7139 56.2733 10.7805 55.9767 10.7805 55.65C10.7805 55.31 10.7139 55.01 10.5805 54.75C10.4472 54.49 10.2639 54.29 10.0305 54.15C9.79721 54.0033 9.52388 53.93 9.21055 53.93C8.83055 53.93 8.50721 54.0133 8.24055 54.18C7.97388 54.3467 7.77388 54.56 7.64055 54.82H6.83055L7.41055 51H11.1105V51.73H8.06055L7.67055 53.88C7.83721 53.6867 8.05721 53.53 8.33055 53.41C8.61055 53.2833 8.93388 53.22 9.30055 53.22C9.64721 53.22 9.96055 53.28 10.2405 53.4C10.5205 53.52 10.7605 53.69 10.9605 53.91C11.1605 54.13 11.3139 54.3867 11.4205 54.68C11.5339 54.9733 11.5905 55.2933 11.5905 55.64C11.5905 55.98 11.5339 56.3 11.4205 56.6C11.3139 56.8933 11.1572 57.1567 10.9505 57.39C10.7439 57.6167 10.4905 57.7967 10.1905 57.93C9.89055 58.0567 9.55055 58.12 9.17055 58.12ZM15.5941 58.12C14.9807 58.12 14.4507 57.97 14.0041 57.67C13.5641 57.3633 13.2274 56.94 12.9941 56.4C12.7607 55.8533 12.6441 55.22 12.6441 54.5C12.6441 53.78 12.7607 53.15 12.9941 52.61C13.2274 52.0633 13.5641 51.64 14.0041 51.34C14.4507 51.0333 14.9807 50.88 15.5941 50.88C16.2074 50.88 16.7307 51.0333 17.1641 51.34C17.6041 51.64 17.9407 52.0633 18.1741 52.61C18.4074 53.15 18.5241 53.78 18.5241 54.5C18.5241 55.22 18.4074 55.8533 18.1741 56.4C17.9407 56.94 17.6041 57.3633 17.1641 57.67C16.7307 57.97 16.2074 58.12 15.5941 58.12ZM15.5841 57.38C15.9841 57.38 16.3407 57.2667 16.6541 57.04C16.9674 56.8067 17.2141 56.4767 17.3941 56.05C17.5741 55.6167 17.6641 55.1 17.6641 54.5C17.6641 53.9 17.5741 53.3867 17.3941 52.96C17.2141 52.5267 16.9674 52.1967 16.6541 51.97C16.3407 51.7433 15.9841 51.63 15.5841 51.63C15.1841 51.63 14.8241 51.7433 14.5041 51.97C14.1907 52.1967 13.9441 52.5267 13.7641 52.96C13.5907 53.3867 13.5041 53.9 13.5041 54.5C13.5041 55.1 13.5907 55.6167 13.7641 56.05C13.9441 56.4767 14.1907 56.8067 14.5041 57.04C14.8241 57.2667 15.1841 57.38 15.5841 57.38Z" fill="white"/>
<path opacity="0.6" d="M7.77477 82V81.41C8.2481 81.0367 8.6981 80.66 9.12477 80.28C9.5581 79.9 9.94143 79.5233 10.2748 79.15C10.6081 78.77 10.8681 78.4 11.0548 78.04C11.2481 77.68 11.3448 77.3333 11.3448 77C11.3448 76.7533 11.3014 76.5267 11.2148 76.32C11.1281 76.1067 10.9881 75.9333 10.7948 75.8C10.6081 75.6667 10.3548 75.6 10.0348 75.6C9.72143 75.6 9.46143 75.67 9.25477 75.81C9.0481 75.9433 8.89143 76.1233 8.78477 76.35C8.68477 76.57 8.63477 76.8133 8.63477 77.08H7.82477C7.83143 76.62 7.9281 76.2267 8.11477 75.9C8.3081 75.5667 8.57143 75.3133 8.90477 75.14C9.2381 74.9667 9.6181 74.88 10.0448 74.88C10.4648 74.88 10.8348 74.96 11.1548 75.12C11.4748 75.2733 11.7248 75.5033 11.9048 75.81C12.0914 76.1167 12.1848 76.5033 12.1848 76.97C12.1848 77.2967 12.1148 77.6233 11.9748 77.95C11.8414 78.2767 11.6614 78.5967 11.4348 78.91C11.2081 79.2167 10.9548 79.5133 10.6748 79.8C10.4014 80.0867 10.1181 80.3567 9.82477 80.61C9.5381 80.8633 9.2681 81.0933 9.01477 81.3H12.4248V82H7.77477ZM16.0065 82.12C15.5265 82.12 15.1098 82.0333 14.7565 81.86C14.4098 81.6867 14.1332 81.45 13.9265 81.15C13.7265 80.85 13.5998 80.5133 13.5465 80.14H14.3665C14.4465 80.5133 14.6298 80.8167 14.9165 81.05C15.2032 81.2833 15.5698 81.4 16.0165 81.4C16.3498 81.4 16.6332 81.3233 16.8665 81.17C17.1065 81.0167 17.2898 80.8067 17.4165 80.54C17.5498 80.2733 17.6165 79.9767 17.6165 79.65C17.6165 79.31 17.5498 79.01 17.4165 78.75C17.2832 78.49 17.0998 78.29 16.8665 78.15C16.6332 78.0033 16.3598 77.93 16.0465 77.93C15.6665 77.93 15.3432 78.0133 15.0765 78.18C14.8098 78.3467 14.6098 78.56 14.4765 78.82H13.6665L14.2465 75H17.9465V75.73H14.8965L14.5065 77.88C14.6732 77.6867 14.8932 77.53 15.1665 77.41C15.4465 77.2833 15.7698 77.22 16.1365 77.22C16.4832 77.22 16.7965 77.28 17.0765 77.4C17.3565 77.52 17.5965 77.69 17.7965 77.91C17.9965 78.13 18.1498 78.3867 18.2565 78.68C18.3698 78.9733 18.4265 79.2933 18.4265 79.64C18.4265 79.98 18.3698 80.3 18.2565 80.6C18.1498 80.8933 17.9932 81.1567 17.7865 81.39C17.5798 81.6167 17.3265 81.7967 17.0265 81.93C16.7265 82.0567 16.3865 82.12 16.0065 82.12Z" fill="white"/>
<path opacity="0.6" d="M15.5941 106.12C14.9807 106.12 14.4507 105.97 14.0041 105.67C13.5641 105.363 13.2274 104.94 12.9941 104.4C12.7607 103.853 12.6441 103.22 12.6441 102.5C12.6441 101.78 12.7607 101.15 12.9941 100.61C13.2274 100.063 13.5641 99.64 14.0041 99.34C14.4507 99.0333 14.9807 98.88 15.5941 98.88C16.2074 98.88 16.7307 99.0333 17.1641 99.34C17.6041 99.64 17.9407 100.063 18.1741 100.61C18.4074 101.15 18.5241 101.78 18.5241 102.5C18.5241 103.22 18.4074 103.853 18.1741 104.4C17.9407 104.94 17.6041 105.363 17.1641 105.67C16.7307 105.97 16.2074 106.12 15.5941 106.12ZM15.5841 105.38C15.9841 105.38 16.3407 105.267 16.6541 105.04C16.9674 104.807 17.2141 104.477 17.3941 104.05C17.5741 103.617 17.6641 103.1 17.6641 102.5C17.6641 101.9 17.5741 101.387 17.3941 100.96C17.2141 100.527 16.9674 100.197 16.6541 99.97C16.3407 99.7433 15.9841 99.63 15.5841 99.63C15.1841 99.63 14.8241 99.7433 14.5041 99.97C14.1907 100.197 13.9441 100.527 13.7641 100.96C13.5907 101.387 13.5041 101.9 13.5041 102.5C13.5041 103.1 13.5907 103.617 13.7641 104.05C13.9441 104.477 14.1907 104.807 14.5041 105.04C14.8241 105.267 15.1841 105.38 15.5841 105.38Z" fill="white"/>
<path opacity="0.6" d="M24.3333 87.5C24.3333 88.9728 25.5272 90.1667 27 90.1667C28.4728 90.1667 29.6667 88.9728 29.6667 87.5C29.6667 86.0273 28.4728 84.8334 27 84.8334C25.5272 84.8334 24.3333 86.0273 24.3333 87.5ZM357 50L357.037 50.4986L357 50ZM475 5.5V5V5.5ZM912.333 80.9999C912.333 82.4726 913.527 83.6665 915 83.6665C916.473 83.6665 917.667 82.4726 917.667 80.9999C917.667 79.5271 916.473 78.3332 915 78.3332C913.527 78.3332 912.333 79.5271 912.333 80.9999ZM27 87.5L27.1602 87.9736C60.3881 76.7311 107.245 64.211 150.422 54.5013C193.619 44.7873 233.065 37.9019 251.5 37.9019V37.4019V36.9019C232.935 36.9019 193.381 43.8156 150.203 53.5257C107.005 63.24 60.1119 75.7689 26.8398 87.0264L27 87.5ZM251.5 37.4019V37.9019C273.864 37.9019 292.468 41.6139 309.375 45.0495C326.266 48.482 341.502 51.6494 357.037 50.4986L357 50L356.963 49.5014C341.591 50.64 326.496 47.5084 309.574 44.0695C292.667 40.6337 273.975 36.9019 251.5 36.9019V37.4019ZM357 50L357.037 50.4986C363.915 49.9891 370.125 46.9013 376.691 42.622C379.975 40.4817 383.363 38.0326 386.973 35.4475C390.587 32.8599 394.429 30.1318 398.636 27.4202C415.443 16.5869 438.1 5.99992 475 6V5.5V5C437.873 4.99992 415.03 15.663 398.094 26.5797C393.865 29.3056 390.006 32.0462 386.391 34.6344C382.773 37.2252 379.406 39.6588 376.145 41.7842C369.621 46.0361 363.585 49.0109 356.963 49.5014L357 50ZM475 5.5V6C502.39 6.00006 523.935 14.5876 543.864 23.2089C563.768 31.8196 582.124 40.5 603 40.5V40V39.5C582.376 39.5 564.232 30.9305 544.261 22.2911C524.315 13.6625 502.61 5.00006 475 5V5.5ZM603 40V40.5C620.568 40.5 637.123 36.6098 653.242 32.7362C669.38 28.8579 685.07 25 701 25V24.5V24C684.93 24 669.12 27.8921 653.008 31.7638C636.877 35.6402 620.432 39.5 603 39.5V40ZM701 24.5V25C722.427 25 764.661 33.316 807.185 44.5459C849.701 55.7739 892.406 69.8876 914.77 81.4441L915 80.9999L915.23 80.5557C892.761 68.9455 849.965 54.8093 807.44 43.579C764.922 32.3507 722.573 24 701 24V24.5Z" fill="white"/>
<circle cx="250.5" cy="37" r="3.5" fill="white"/>
<circle cx="475.5" cy="5" r="3.5" fill="white"/>
<circle cx="702.5" cy="24" r="3.5" fill="white"/>
<line opacity="0.5" x1="27" y1="102" x2="924" y2="102" stroke="white"/>
<line x1="251.5" y1="97.5" x2="251.5" y2="107.5" stroke="#8087A6"/>
<line x1="27.5" y1="97.5" x2="27.5" y2="107.5" stroke="#8087A6"/>
<line x1="475.5" y1="97.5" x2="475.5" y2="107.5" stroke="#8087A6"/>
<line x1="699.5" y1="97.5" x2="699.5" y2="107.5" stroke="#8087A6"/>
<line x1="923.5" y1="97.5" x2="923.5" y2="107.5" stroke="#8087A6"/>
</svg>
