<svg width="31" height="31" viewBox="0 0 31 31" fill="none" xmlns="http://www.w3.org/2000/svg">
<rect width="30.2424" height="30.2424" rx="3.72706" fill="#1241FF"/>
<path d="M23.4023 11.7281L23.5684 11.8844C23.9671 12.2582 24.1933 12.7802 24.1934 13.3268V16.5739H22.5127C18.6898 16.5738 15.5908 13.4748 15.5908 9.65198V4.52112L23.4023 11.7281Z" fill="white"/>
<path d="M14.6025 9.65198C14.6025 13.4749 11.5036 16.5739 7.68066 16.5739H6V13.3356C6.00001 12.784 6.23064 12.2578 6.63574 11.8834L14.6025 4.52209V9.65198Z" fill="white"/>
<path d="M24.1943 23.7435C24.1941 24.8355 23.3088 25.7208 22.2168 25.7211H15.5908V24.4847C15.5908 20.6619 18.6899 17.5631 22.5127 17.5629H24.1943V23.7435Z" fill="white"/>
<path d="M7.67969 17.5629C11.5026 17.5629 14.6015 20.6618 14.6016 24.4847V25.7211H7.97656C6.88455 25.7209 5.99919 24.8355 5.99902 23.7435V17.5629H7.67969Z" fill="white"/>
</svg>
