<svg width="175" height="31" viewBox="0 0 175 31" fill="none" xmlns="http://www.w3.org/2000/svg">
<rect width="30.2424" height="30.2424" rx="3.72706" fill="#1241FF"/>
<path d="M23.4022 11.7281L23.5682 11.8844C23.9669 12.2582 24.1932 12.7802 24.1932 13.3268V16.5739H22.5126C18.6897 16.5738 15.5907 13.4748 15.5907 9.65198V4.52112L23.4022 11.7281Z" fill="white"/>
<path d="M14.6024 9.65198C14.6024 13.4749 11.5035 16.5739 7.68052 16.5739H5.99986V13.3356C5.99986 12.784 6.2305 12.2578 6.6356 11.8834L14.6024 4.52209V9.65198Z" fill="white"/>
<path d="M24.1942 23.7435C24.194 24.8355 23.3086 25.7208 22.2167 25.7211H15.5907V24.4847C15.5907 20.6619 18.6898 17.5631 22.5126 17.5629H24.1942V23.7435Z" fill="white"/>
<path d="M7.67955 17.5629C11.5024 17.5629 14.6014 20.6618 14.6014 24.4847V25.7211H7.97642C6.88441 25.7209 5.99905 24.8355 5.99888 23.7435V17.5629H7.67955Z" fill="white"/>
<path d="M44.576 24.4541C43.5772 24.4541 42.634 24.263 41.7462 23.8808C40.8708 23.4986 40.1742 23.0362 39.6563 22.4937L40.4886 19.0906C40.8955 19.8304 41.4811 20.4592 42.2456 20.9771C43.0101 21.4826 43.8238 21.7354 44.6869 21.7354C45.4144 21.7354 45.9939 21.5319 46.4254 21.125C46.857 20.7058 47.0728 20.1941 47.0728 19.59C47.0728 19.1091 46.9618 18.7146 46.7399 18.4063C46.5179 18.0981 46.259 17.8515 45.9631 17.6665C45.6671 17.4692 45.4144 17.3213 45.2048 17.2226L43.2258 16.2239C42.7203 15.965 42.2148 15.6567 41.7092 15.2992C41.2037 14.9293 40.7783 14.4607 40.4331 13.8936C40.1002 13.3141 39.9337 12.5989 39.9337 11.7482C39.9337 10.8357 40.1434 10.0343 40.5626 9.34383C40.9818 8.65335 41.5675 8.117 42.3196 7.73478C43.084 7.34022 43.9656 7.14294 44.9643 7.14294C45.9261 7.14294 46.783 7.30323 47.5351 7.62381C48.2873 7.93205 48.8914 8.26496 49.3476 8.62253L48.5523 11.9516C48.1085 11.3474 47.5536 10.8419 46.8878 10.435C46.222 10.0281 45.5377 9.82469 44.8349 9.82469C44.1937 9.82469 43.6944 9.99731 43.3368 10.3425C42.9916 10.6755 42.8189 11.0947 42.8189 11.6002C42.8189 11.9331 42.8929 12.2229 43.0409 12.4695C43.2012 12.7161 43.4046 12.9318 43.6512 13.1168C43.9101 13.2894 44.1876 13.4497 44.4835 13.5976L46.4994 14.5964C46.8077 14.7443 47.1529 14.9416 47.5351 15.1882C47.9297 15.4348 48.3119 15.7492 48.6818 16.1314C49.0517 16.5013 49.3538 16.9575 49.5881 17.5001C49.8347 18.0302 49.958 18.6652 49.958 19.405C49.958 20.3668 49.7299 21.2299 49.2736 21.9943C48.8298 22.7464 48.2071 23.3444 47.4057 23.7883C46.6166 24.2322 45.6733 24.4541 44.576 24.4541ZM60.2694 29.6697V23.2705C59.8379 23.6157 59.3508 23.8869 58.8083 24.0842C58.2781 24.2815 57.6986 24.3801 57.0698 24.3801C56.0464 24.3801 55.1155 24.1212 54.2771 23.6034C53.4386 23.0732 52.7667 22.3704 52.2611 21.4949C51.7679 20.6072 51.5213 19.6331 51.5213 18.5728C51.5213 17.5124 51.7679 16.5445 52.2611 15.6691C52.7667 14.7813 53.4386 14.0785 54.2771 13.5607C55.1155 13.0305 56.0464 12.7654 57.0698 12.7654C57.7849 12.7654 58.4508 12.8948 59.0672 13.1538C59.6837 13.4127 60.2078 13.7641 60.6393 14.208V13.0243H63.1731V29.6697H60.2694ZM57.4027 21.8094C57.9945 21.8094 58.5247 21.6614 58.9933 21.3655C59.4741 21.0696 59.8564 20.6812 60.14 20.2003C60.4235 19.7071 60.5653 19.1646 60.5653 18.5728C60.5653 17.9809 60.4235 17.4446 60.14 16.9637C59.8564 16.4705 59.4741 16.076 58.9933 15.78C58.5247 15.4841 58.0007 15.3362 57.4212 15.3362C56.8294 15.3362 56.293 15.4841 55.8122 15.78C55.3436 16.076 54.9676 16.4705 54.684 16.9637C54.4004 17.4446 54.2586 17.9809 54.2586 18.5728C54.2586 19.1646 54.4004 19.7071 54.684 20.2003C54.9676 20.6812 55.3436 21.0696 55.8122 21.3655C56.293 21.6614 56.8232 21.8094 57.4027 21.8094ZM70.1884 24.4541C69.4117 24.4541 68.678 24.263 67.9875 23.8808C67.2971 23.4986 66.7422 22.9499 66.323 22.2347C65.9038 21.5073 65.6942 20.6257 65.6942 19.59V13.0243H68.5979V19.2016C68.5979 19.8921 68.8013 20.5024 69.2082 21.0326C69.6274 21.5628 70.2069 21.8279 70.9467 21.8279C71.5632 21.8279 72.1119 21.6059 72.5928 21.162C73.0736 20.7182 73.3141 20.0832 73.3141 19.2571V13.0243H76.2178V24.1212H73.573V22.7896C73.1784 23.3321 72.6852 23.7452 72.0934 24.0287C71.5016 24.3123 70.8666 24.4541 70.1884 24.4541ZM83.866 24.3801C82.8549 24.3801 81.9302 24.1212 81.0917 23.6034C80.2533 23.0732 79.5813 22.3704 79.0758 21.4949C78.5826 20.6072 78.336 19.6331 78.336 18.5728C78.336 17.5124 78.5826 16.5445 79.0758 15.6691C79.5813 14.7813 80.2533 14.0785 81.0917 13.5607C81.9302 13.0305 82.8549 12.7654 83.866 12.7654C84.5934 12.7654 85.2654 12.8948 85.8819 13.1538C86.4984 13.4127 87.0224 13.7764 87.454 14.245V13.0243H89.9878V24.1212H87.454V22.9006C87.0224 23.3568 86.4984 23.7205 85.8819 23.9918C85.2654 24.2507 84.5934 24.3801 83.866 24.3801ZM84.2174 21.8094C84.8092 21.8094 85.3394 21.6614 85.8079 21.3655C86.2888 21.0696 86.671 20.6812 86.9546 20.2003C87.2382 19.7071 87.38 19.1646 87.38 18.5728C87.38 17.9809 87.2382 17.4446 86.9546 16.9637C86.671 16.4705 86.2888 16.076 85.8079 15.78C85.3394 15.4841 84.8154 15.3362 84.2359 15.3362C83.644 15.3362 83.1077 15.4841 82.6268 15.78C82.1583 16.076 81.7822 16.4705 81.4986 16.9637C81.215 17.4446 81.0732 17.9809 81.0732 18.5728C81.0732 19.1646 81.215 19.7071 81.4986 20.2003C81.7822 20.6812 82.1583 21.0696 82.6268 21.3655C83.1077 21.6614 83.6379 21.8094 84.2174 21.8094ZM92.7308 24.1212V13.0243H95.3385V14.9663C95.7331 14.3251 96.2263 13.8257 96.8181 13.4682C97.4223 13.0983 98.1374 12.9133 98.9635 12.9133L99.6109 15.5396C99.3766 15.4656 99.1115 15.4286 98.8156 15.4286C97.8538 15.4286 97.0832 15.7369 96.5037 16.3534C95.9242 16.9699 95.6345 17.8453 95.6345 18.9796V24.1212H92.7308ZM106.442 24.4541C105.221 24.4541 104.136 24.1952 103.187 23.6773C102.25 23.1595 101.516 22.4505 100.986 21.5504C100.468 20.638 100.209 19.6085 100.209 18.4618C100.209 17.3644 100.462 16.3842 100.967 15.5211C101.485 14.6457 102.182 13.9552 103.057 13.4497C103.933 12.9442 104.901 12.6914 105.961 12.6914C107.046 12.6914 108.014 12.9442 108.865 13.4497C109.728 13.9429 110.412 14.6149 110.918 15.4656C111.423 16.3164 111.676 17.2843 111.676 18.3693V19.4235H104.777C104.469 19.4235 104.167 19.405 103.871 19.368C103.575 19.331 103.279 19.2879 102.983 19.2386C103.131 20.04 103.52 20.6997 104.148 21.2175C104.777 21.7354 105.566 21.9943 106.516 21.9943C107.219 21.9943 107.854 21.8463 108.421 21.5504C108.988 21.2545 109.456 20.8846 109.826 20.4407L110.492 23.1595C109.937 23.591 109.315 23.9116 108.624 24.1212C107.934 24.3432 107.206 24.4541 106.442 24.4541ZM102.909 17.4446C103.538 17.3213 104.161 17.2596 104.777 17.2596H107.163C107.496 17.2596 107.81 17.272 108.106 17.2966C108.402 17.3213 108.686 17.3583 108.957 17.4076C108.772 16.6924 108.408 16.1191 107.866 15.6876C107.336 15.256 106.695 15.0402 105.942 15.0402C105.203 15.0402 104.562 15.2622 104.019 15.7061C103.476 16.1499 103.107 16.7294 102.909 17.4446ZM114.222 24.1212V6.921L122.083 16.9637L129.814 6.921V24.1212H126.873V18.6097C126.873 18.0796 126.879 17.4877 126.891 16.8342C126.904 16.1684 126.959 15.4163 127.058 14.5779C126.676 15.219 126.306 15.78 125.948 16.2609C125.591 16.7418 125.264 17.1856 124.968 17.5925L122.027 21.6059L118.976 17.5925C118.68 17.2103 118.341 16.7603 117.958 16.2424C117.588 15.7122 117.219 15.1389 116.849 14.5224C116.947 15.3978 117.003 16.1623 117.015 16.8157C117.027 17.4692 117.034 18.0672 117.034 18.6097V24.1212H114.222ZM138.718 24.4541C137.498 24.4541 136.413 24.1952 135.463 23.6773C134.526 23.1595 133.792 22.4505 133.262 21.5504C132.744 20.638 132.485 19.6085 132.485 18.4618C132.485 17.3644 132.738 16.3842 133.244 15.5211C133.762 14.6457 134.458 13.9552 135.334 13.4497C136.209 12.9442 137.177 12.6914 138.237 12.6914C139.322 12.6914 140.29 12.9442 141.141 13.4497C142.004 13.9429 142.688 14.6149 143.194 15.4656C143.7 16.3164 143.952 17.2843 143.952 18.3693V19.4235H137.054C136.745 19.4235 136.443 19.405 136.147 19.368C135.852 19.331 135.556 19.2879 135.26 19.2386C135.408 20.04 135.796 20.6997 136.425 21.2175C137.054 21.7354 137.843 21.9943 138.792 21.9943C139.495 21.9943 140.13 21.8463 140.697 21.5504C141.264 21.2545 141.733 20.8846 142.103 20.4407L142.769 23.1595C142.214 23.591 141.591 23.9116 140.901 24.1212C140.21 24.3432 139.483 24.4541 138.718 24.4541ZM135.186 17.4446C135.815 17.3213 136.437 17.2596 137.054 17.2596H139.44C139.772 17.2596 140.087 17.272 140.383 17.2966C140.679 17.3213 140.962 17.3583 141.234 17.4076C141.049 16.6924 140.685 16.1191 140.142 15.6876C139.612 15.256 138.971 15.0402 138.219 15.0402C137.479 15.0402 136.838 15.2622 136.295 15.7061C135.753 16.1499 135.383 16.7294 135.186 17.4446ZM147.239 24.1212V15.3547H145.056V13.0243H147.294V9.32533H150.087V13.0243H152.417V15.3547H150.142V24.1212H147.239ZM159.343 24.4541C158.122 24.4541 157.037 24.1952 156.088 23.6773C155.151 23.1595 154.417 22.4505 153.887 21.5504C153.369 20.638 153.11 19.6085 153.11 18.4618C153.11 17.3644 153.363 16.3842 153.868 15.5211C154.386 14.6457 155.083 13.9552 155.958 13.4497C156.834 12.9442 157.802 12.6914 158.862 12.6914C159.947 12.6914 160.915 12.9442 161.766 13.4497C162.629 13.9429 163.313 14.6149 163.819 15.4656C164.324 16.3164 164.577 17.2843 164.577 18.3693V19.4235H157.678C157.37 19.4235 157.068 19.405 156.772 19.368C156.476 19.331 156.18 19.2879 155.884 19.2386C156.032 20.04 156.421 20.6997 157.05 21.2175C157.678 21.7354 158.467 21.9943 159.417 21.9943C160.12 21.9943 160.755 21.8463 161.322 21.5504C161.889 21.2545 162.358 20.8846 162.727 20.4407L163.393 23.1595C162.838 23.591 162.216 23.9116 161.525 24.1212C160.835 24.3432 160.107 24.4541 159.343 24.4541ZM155.81 17.4446C156.439 17.3213 157.062 17.2596 157.678 17.2596H160.064C160.397 17.2596 160.711 17.272 161.007 17.2966C161.303 17.3213 161.587 17.3583 161.858 17.4076C161.673 16.6924 161.309 16.1191 160.767 15.6876C160.237 15.256 159.596 15.0402 158.844 15.0402C158.104 15.0402 157.463 15.2622 156.92 15.7061C156.378 16.1499 156.008 16.7294 155.81 17.4446ZM166.569 24.1212V13.0243H169.176V14.9663C169.571 14.3251 170.064 13.8257 170.656 13.4682C171.26 13.0983 171.975 12.9133 172.801 12.9133L173.449 15.5396C173.214 15.4656 172.949 15.4286 172.653 15.4286C171.692 15.4286 170.921 15.7369 170.342 16.3534C169.762 16.9699 169.472 17.8453 169.472 18.9796V24.1212H166.569Z" fill="#11111C"/>
</svg>
