<svg width="728" height="236" viewBox="0 0 728 236" fill="none" xmlns="http://www.w3.org/2000/svg">
<g opacity="0.3">
<path d="M105.565 189.315H157.206V82.7904H158.673V79.7452H155.471V75.8484H130.063V69.9267H120.356L118.906 66.06H116.507V59.1514H115.972H115.438V66.06H110.988V69.9267V74.3834V75.8484H107.301V79.7452H104.098V82.7904H105.565V189.315Z" fill="#E3E8FF"/>
<path d="M116.934 58.1907C116.934 57.6595 116.504 57.2292 115.973 57.2292C115.442 57.2292 115.012 57.6595 115.012 58.1907C115.012 58.7212 115.442 59.1514 115.973 59.1514C116.504 59.1514 116.934 58.7212 116.934 58.1907Z" fill="#E3E8FF"/>
<path d="M584.843 195.552V52.3392L521.261 39.1415L528.228 195.552H341.657V107.069H338.223V54.1206H329.357V39.9383H326.19V19.1369H308.74V3.84917H307.188V19.1369H303.769V0H302.216V19.1369H291.185V54.1206H285.487V107.069H280.602V195.552H230.988V77.7676H231.845V76.406H225.739V68.2218H226.528V66.9112H220.923V62.2063H221.427V61.2002H219.013V56.7554H216.71H216.351V40.8887H216.101H215.784H215.464V56.7554H214.388V47.9103H214.138H213.821H213.501V56.7554H210.838V61.2002H208.053V62.2063H208.928V66.9112H203.324V68.2218H204.112V76.406H198.006V77.7676H198.864V195.552H33.3938V211.616H708.795V195.552H584.843Z" fill="#E3E8FF"/>
</g>
<path d="M696.649 210.012V195.552H676.322L668.628 138.632H667.473V131.794H663.432V138.632H662.43V136.075H659.602V138.632H653.741V132.671H652.124V128.528H640.606V132.671H638.989V138.632H637.373V172.818H627.134V86.0784H623.766V67.0552H622.689V86.0784H620.129V59.6901H619.051V86.0784H616.828V71.7943H615.75V86.0784H595.88V147.648H573.787V187.534H553.155L536.771 157.336C539.533 155.745 542.13 153.833 544.513 151.615L547.873 155.2C547.152 155.831 546.695 156.757 546.695 157.79C546.695 159.689 548.235 161.229 550.134 161.229C552.033 161.229 553.573 159.689 553.573 157.79C553.573 155.891 552.033 154.351 550.134 154.351C549.406 154.351 548.731 154.578 548.175 154.964L544.791 151.354C545.078 151.082 545.362 150.807 545.641 150.527C549.187 146.981 552.026 142.918 554.09 138.507L557.832 140.235C557.763 140.504 557.727 140.786 557.727 141.077C557.727 142.976 559.267 144.516 561.166 144.516C563.065 144.516 564.605 142.976 564.605 141.077C564.605 139.178 563.065 137.638 561.166 137.638C559.693 137.638 558.437 138.565 557.947 139.867L554.25 138.161C556.53 133.172 557.82 127.749 558.023 122.133L562.051 122.265C562.101 124.121 563.62 125.61 565.488 125.61C567.387 125.61 568.927 124.071 568.927 122.172C568.927 120.272 567.387 118.733 565.488 118.733C563.686 118.733 562.209 120.119 562.062 121.883L558.034 121.752C558.045 121.357 558.051 120.962 558.051 120.566C558.051 115.553 557.186 110.674 555.528 106.098L558.892 104.859C559.421 106.078 560.635 106.931 562.048 106.931C563.947 106.931 565.487 105.392 565.487 103.493C565.487 101.594 563.947 100.054 562.048 100.054C560.149 100.054 558.609 101.594 558.609 103.493C558.609 103.843 558.662 104.181 558.76 104.5L555.396 105.739C553.48 100.598 550.557 95.8476 546.729 91.7328L549.362 89.2659C549.979 89.8552 550.815 90.2178 551.736 90.2178C553.635 90.2178 555.175 88.6789 555.175 86.779C555.175 84.8799 553.635 83.3402 551.736 83.3402C549.837 83.3402 548.297 84.8799 548.297 86.779C548.297 87.6196 548.599 88.3895 549.1 88.9867L546.468 91.4537C546.197 91.1674 545.921 90.8835 545.641 90.6035C541.656 86.6168 537.014 83.5231 531.962 81.4212L533.41 77.8949C533.738 77.9991 534.088 78.0563 534.451 78.0563C536.35 78.0563 537.89 76.5167 537.89 74.6175C537.89 72.7184 536.35 71.1787 534.451 71.1787C532.552 71.1787 531.012 72.7184 531.012 74.6175C531.012 76.0188 531.85 77.2229 533.053 77.7589L531.609 81.2764C527.088 79.4441 522.244 78.4015 517.248 78.221L517.405 73.4015C517.442 73.4023 517.477 73.4039 517.514 73.4039C519.413 73.4039 520.953 71.8643 520.953 69.9651C520.953 68.066 519.413 66.5263 517.514 66.5263C515.615 66.5263 514.075 68.066 514.075 69.9651C514.075 71.698 515.356 73.1304 517.023 73.3681L516.866 78.2082C516.471 78.1971 516.076 78.1915 515.68 78.1915C510.87 78.1915 506.183 78.9876 501.768 80.5177L500.382 76.5843C501.633 76.0697 502.513 74.8402 502.513 73.4031C502.513 71.504 500.974 69.9643 499.074 69.9643C497.175 69.9643 495.636 71.504 495.636 73.4031C495.636 75.3023 497.175 76.8419 499.074 76.8419C499.403 76.8419 499.72 76.795 500.021 76.7091L501.408 80.6442C496.054 82.5537 491.111 85.5479 486.848 89.5132L484.335 86.8315C484.897 86.2191 485.241 85.4032 485.241 84.5069C485.241 82.6078 483.701 81.0681 481.802 81.0681C479.903 81.0681 478.363 82.607 478.363 84.5069C478.363 86.406 479.903 87.9457 481.802 87.9457C482.667 87.9457 483.457 87.626 484.061 87.0987L486.569 89.7756C486.283 90.0468 485.999 90.3228 485.719 90.6027C482.174 94.1481 479.335 98.212 477.271 102.623L474.078 101.148C474.194 100.804 474.257 100.436 474.257 100.053C474.257 98.1539 472.717 96.6143 470.818 96.6143C468.919 96.6143 467.379 98.1539 467.379 100.053C467.379 101.952 468.919 103.492 470.818 103.492C472.199 103.492 473.388 102.678 473.936 101.504L477.11 102.969C474.832 107.958 473.54 113.382 473.337 118.997L469.239 118.864C469.188 117.009 467.67 115.521 465.802 115.521C463.903 115.521 462.363 117.06 462.363 118.959C462.363 120.858 463.903 122.398 465.802 122.398C467.605 122.398 469.083 121.011 469.228 119.246L473.326 119.379C473.316 119.774 473.31 120.169 473.31 120.565C473.31 125.577 474.175 130.457 475.833 135.032L472.468 136.271C471.94 135.052 470.726 134.199 469.312 134.199C467.413 134.199 465.873 135.738 465.873 137.637C465.873 139.537 467.413 141.076 469.312 141.076C471.211 141.076 472.751 139.537 472.751 137.637C472.751 137.287 472.698 136.949 472.6 136.631L475.964 135.392C477.879 140.533 480.802 145.282 484.631 149.398L481.998 151.865C481.381 151.276 480.545 150.913 479.624 150.913C477.725 150.913 476.185 152.452 476.185 154.352C476.185 156.251 477.725 157.791 479.624 157.791C481.523 157.791 483.063 156.251 483.063 154.352C483.063 153.511 482.761 152.741 482.26 152.144L484.893 149.677C485.164 149.963 485.439 150.247 485.719 150.527C488.404 153.211 491.386 155.491 494.59 157.336L478.206 187.534H464.937V167.061H459.528V128.186H461.632V127.341H415.152V128.186H417.256V147.792H412.7L408.352 170.136V96.856H406.444V70.3174H396.841V60.2134H391.703V51.7269H389.9V37.178H389.434V51.7269H387.631V60.2142H382.494V70.3182H372.965V96.8568H370.984V145.038H356.208V187.534H307.188V105.364H311.128V104.071H307.188V101.756H302.194V97.9535H261.353V101.756H256.36V104.071H252.42V105.364H256.36V156.516H249.679V146.918H208.468V158.638H199.483V180.462H184.934V109.13H180.085V104.28H176.245V91.4489H175.436V104.28H173.617V88.2153H172.809V104.28H170.574V109.13H169.374V180.462H139.265V138.632H140.68V135.803H131.385V128.125H126.939V135.803H122.898V128.125H118.856V135.803H110.994V128.125H86.9284V135.803H81.3089V138.632H84.5036V154.394H75.6123V189.959H63.4079V180.462H49.8213V201.174H33.3923V210.012H9.16004V235.341H718.3V210.012H696.649ZM536.225 156.327L530.551 145.868C532.37 144.795 534.064 143.531 535.604 142.105L543.731 150.779C541.42 152.928 538.902 154.784 536.225 156.327ZM514.984 122.77C515.123 122.813 515.268 122.844 515.417 122.862L514.556 149.324C511.164 149.193 507.92 148.472 504.925 147.261L514.984 122.77ZM504.572 147.116C503.604 146.709 502.662 146.25 501.751 145.744L514.376 122.473C514.457 122.529 514.542 122.579 514.63 122.624L504.572 147.116ZM515.799 122.875C515.96 122.867 516.117 122.842 516.269 122.802L525.07 147.774C522.127 148.793 518.968 149.347 515.682 149.347C515.433 149.347 515.185 149.344 514.938 149.338L515.799 122.875ZM516.628 122.675C516.754 122.618 516.875 122.55 516.988 122.473L529.613 145.744C528.28 146.485 526.882 147.123 525.429 147.648L516.628 122.675ZM518.753 124.121L535.213 141.687C533.707 143.08 532.053 144.314 530.277 145.364L518.753 124.121ZM518.032 122.794L517.557 121.917C517.606 121.849 517.652 121.777 517.694 121.704L541.73 132.8C540.195 136.053 538.07 138.976 535.492 141.426L518.032 122.794ZM517.855 121.358C517.916 121.191 517.958 121.014 517.979 120.831L544.441 121.692C544.294 125.516 543.397 129.152 541.893 132.455L517.855 121.358ZM517.991 120.45C517.982 120.277 517.954 120.109 517.91 119.949L542.758 110.801C543.862 113.851 544.464 117.14 544.464 120.566C544.464 120.815 544.461 121.062 544.455 121.31L517.991 120.45ZM517.779 119.59C517.702 119.425 517.606 119.271 517.494 119.13L536.804 101.035C539.309 103.742 541.301 106.929 542.625 110.442L517.779 119.59ZM517.233 118.85C517.084 118.715 516.916 118.6 516.735 118.506L526.792 94.0137C530.499 95.5709 533.815 97.882 536.543 100.755L517.233 118.85ZM516.381 118.361C516.241 118.318 516.097 118.287 515.948 118.269L516.808 91.8076C520.2 91.938 523.444 92.6593 526.439 93.8705L516.381 118.361ZM515.566 118.256C515.405 118.264 515.247 118.289 515.096 118.328L506.295 93.356C509.238 92.3372 512.396 91.7829 515.682 91.7829C515.931 91.7829 516.179 91.7861 516.427 91.7925L515.566 118.256ZM514.737 118.456C514.561 118.535 514.396 118.636 514.247 118.754L496.152 99.4439C498.955 96.8505 502.273 94.8058 505.935 93.484L514.737 118.456ZM513.968 119.014C513.854 119.14 513.755 119.278 513.671 119.426L489.634 108.33C491.169 105.076 493.294 102.153 495.873 99.7032L513.968 119.014ZM513.51 119.773C513.448 119.941 513.407 120.116 513.386 120.299L486.923 119.439C487.071 115.614 487.968 111.979 489.471 108.676L513.51 119.773ZM513.374 120.682C513.382 120.855 513.41 121.022 513.455 121.182L488.607 130.33C487.503 127.28 486.9 123.992 486.9 120.565C486.9 120.316 486.903 120.068 486.91 119.821L513.374 120.682ZM513.586 121.541C513.648 121.674 513.722 121.8 513.808 121.918L513.65 122.208L494.56 140.096C492.055 137.388 490.064 134.202 488.74 130.689L513.586 121.541ZM513.072 123.272L501.087 145.363C498.771 143.995 496.662 142.313 494.82 140.375L513.072 123.272ZM501.477 146.247C502.407 146.763 503.367 147.232 504.354 147.646L499.836 158.647C498.459 158.074 497.113 157.425 495.804 156.703L501.477 146.247ZM504.708 147.792C507.765 149.028 511.075 149.763 514.538 149.897L514.152 161.762C509.295 161.587 504.587 160.573 500.191 158.792L504.708 147.792ZM514.92 149.911C515.173 149.917 515.427 149.921 515.682 149.921C519.035 149.921 522.257 149.355 525.26 148.315L529.213 159.529C524.919 161.016 520.36 161.791 515.682 161.791C515.299 161.791 514.916 161.785 514.534 161.774L514.92 149.911ZM525.621 148.188C527.102 147.653 528.528 147.003 529.888 146.247L535.561 156.703C533.638 157.764 531.637 158.666 529.574 159.403L525.621 148.188ZM544.833 149.715C544.562 149.987 544.287 150.253 544.01 150.516L535.884 141.844C538.517 139.344 540.686 136.361 542.252 133.041L553.051 138.026C551.043 142.315 548.281 146.268 544.833 149.715ZM553.211 137.68L542.413 132.695C543.948 129.323 544.863 125.613 545.013 121.709L556.88 122.095C556.682 127.556 555.426 132.829 553.211 137.68ZM556.907 120.566C556.907 120.949 556.902 121.332 556.892 121.714L545.028 121.329C545.035 121.075 545.038 120.82 545.038 120.566C545.038 117.069 544.422 113.714 543.296 110.603L554.454 106.495C556.066 110.945 556.907 115.691 556.907 120.566ZM545.895 92.517C549.617 96.5188 552.459 101.137 554.322 106.135L543.163 110.245C541.811 106.659 539.779 103.407 537.222 100.644L545.895 92.517ZM544.833 91.4147C545.104 91.6859 545.37 91.9603 545.634 92.2378L536.962 100.363C534.177 97.431 530.794 95.0722 527.01 93.484L531.528 82.4829C536.442 84.5284 540.956 87.5377 544.833 91.4147ZM517.212 79.3678C522.069 79.5435 526.778 80.5575 531.174 82.3381L526.656 93.3393C523.599 92.1026 520.289 91.3678 516.826 91.2342L517.212 79.3678ZM515.682 79.3407C516.066 79.3407 516.449 79.3463 516.831 79.3566L516.445 91.2199C516.191 91.2135 515.938 91.2103 515.682 91.2103C512.33 91.2103 509.108 91.7766 506.105 92.816L502.152 81.6017C506.446 80.1145 511.005 79.3407 515.682 79.3407ZM501.791 81.7282L505.744 92.9433C502.007 94.2921 498.621 96.3781 495.761 99.0256L487.634 90.3522C491.779 86.4975 496.586 83.5859 501.791 81.7282ZM486.532 91.4147C486.803 91.1435 487.078 90.8771 487.355 90.6139L495.481 99.2856C492.849 101.786 490.679 104.769 489.114 108.09L478.314 103.105C480.322 98.8156 483.084 94.8631 486.532 91.4147ZM478.154 103.451L488.952 108.436C487.416 111.807 486.502 115.518 486.352 119.421L474.485 119.036C474.683 113.576 475.939 108.303 478.154 103.451ZM474.457 120.566C474.457 120.182 474.463 119.799 474.473 119.417L486.336 119.803C486.33 120.056 486.327 120.311 486.327 120.566C486.327 124.062 486.942 127.416 488.069 130.529L476.911 134.638C475.299 130.186 474.457 125.44 474.457 120.566ZM485.47 148.614C481.748 144.612 478.906 139.994 477.042 134.995L488.201 130.886C489.553 134.471 491.585 137.724 494.142 140.487L485.47 148.614ZM486.532 149.715C486.261 149.444 485.994 149.17 485.731 148.892L494.403 140.767C496.286 142.75 498.445 144.47 500.815 145.868L495.14 156.327C492.031 154.535 489.137 152.321 486.532 149.715ZM495.258 157.711C496.604 158.454 497.987 159.12 499.401 159.709L497.953 163.235C497.625 163.131 497.275 163.075 496.912 163.075C495.013 163.075 493.473 164.614 493.473 166.513C493.473 168.412 495.013 169.952 496.912 169.952C498.811 169.952 500.351 168.412 500.351 166.513C500.351 165.112 499.513 163.908 498.31 163.372L499.754 159.854C504.276 161.687 509.119 162.729 514.115 162.91L513.997 166.516C512.135 166.558 510.638 168.08 510.638 169.952C510.638 171.851 512.178 173.391 514.077 173.391C515.976 173.391 517.516 171.851 517.516 169.952C517.516 168.155 516.136 166.681 514.379 166.528L514.497 162.921C514.891 162.932 515.286 162.938 515.682 162.938C520.492 162.938 525.18 162.142 529.594 160.612L530.83 164.117C529.66 164.666 528.849 165.854 528.849 167.231C528.849 169.131 530.389 170.67 532.288 170.67C534.187 170.67 535.727 169.131 535.727 167.231C535.727 165.332 534.187 163.793 532.288 163.793C531.902 163.793 531.532 163.857 531.185 163.975L529.955 160.485C532.076 159.728 534.131 158.801 536.107 157.712L552.287 187.535H479.077L495.258 157.711Z" fill="#E5EAFF"/>
<path d="M615.98 104.216C615.98 103.686 615.619 103.255 615.174 103.255C614.728 103.255 614.367 103.686 614.367 104.216C614.367 104.747 614.728 105.177 615.174 105.177C615.619 105.178 615.98 104.747 615.98 104.216Z" fill="#D1D9F9"/>
<path d="M703.908 221.019L698.902 187.534H688.664V159.747H689.93V157.233H684.959V146.41H684.352V157.233H680.918V148.367H680.312V157.233H659.603V159.747H661.018V216.126H637.375V190.872H623.911V128.815H625.142V125.771H622.453V121.873H619.359V120.409V115.953V112.086H615.624V105.177H615.175H614.725V112.086H612.713L611.496 115.953H603.347V121.873H582.02V125.771H579.331V128.815H580.563V169.192H562.719V208.864L542.918 200.09V161.584H546.113V158.756H540.493V151.076H516.428V158.756H508.565V151.076H504.524V158.756H500.483V151.076H496.037V158.756H486.742V161.584H488.156V214.956H479.13V214.396H477.496V199.187H479.13V197.967H477.496V182.757H479.13V181.538H477.496V166.328H479.13V165.109H477.496V149.899H479.13V148.679H477.496V133.47H479.13V132.25H477.496V116.51H480.295V115.286H481.719V111.949H455.136V108.238H456V107.166H441.528V108.238H442.392V111.949H435.804V115.286H437.228V116.51H440.028V132.25H438.394V133.47H440.028V148.679H438.394V149.899H440.028V165.109H438.394V166.328H440.028V181.538H438.394V182.757H440.028V197.967H438.394V199.187H440.028V214.396H438.394V215.616H440.028V228.045H430.955V180.017H394.446V214.956H388.519V106.118H384.133V108.92L376.041 110.899V109.08H371.655V111.972L363.563 113.951V111.865H359.178V115.024L351.085 117.003V115.282H346.7V118.076L338.608 120.055V118.572H334.223V225.453H328.053V168.472H305.201V203.512H281.774V173.631H278.888V163.818H280.601V162.833H273.021V159.747H272.212V162.833H269.787V146.995H269.181V162.833H266.023V163.818H267.881V173.631H252.42V196.425H237.368L229.507 225.453H213.734V130.676H192.851V127.281H194.037V126.089H178.22V127.281H179.464V130.676V136.136V201.046H169.616V176.521H173.117V174.301H148.339V159.485H143.613V156.44H133.063V159.485H124.478V212.389H96.3144V173.152H72.5998V204.143H52.0203V223.972H37.1819V199.044H17.668V220.297H0V235.341H17.668H23.639H33.3932H37.1819H52.0203H72.5998H79.5156H83.2185H96.3144H124.478H133.063H143.613H148.339H166.823H169.616H179.464H195.977H204.112H213.734H252.42H261.354H276.436H281.774H305.601H312.003H334.223H336.415H338.608H346.7H351.085H359.178H362.843H363.563H371.655H376.041H382.997H384.133H386.326H388.519H394.446H424.622H428.933H430.955H440.028H456H470.623H477.496H488.156H514.631H542.626H542.918H562.719H573.79H580.563H584.842H617.977H623.911H631.006H637.375H661.018H678.599H682.197H688.664H728V221.019H703.908Z" fill="#D1D9F9"/>
<path d="M603.356 91.4873C605.079 93.5963 607.456 93.07 610.132 93.2666C611.929 93.3986 613.465 96.1346 613.661 98.3782C614.156 104.061 617.767 100.889 621.573 102.593C630.739 106.697 625.628 122.41 619.672 123.374C617.657 123.7 613.877 125.037 612.861 125.607C609.801 127.323 604.417 125.032 600.4 122.222C596.384 119.412 598.378 117.12 597.079 114.783C595.781 112.446 592.859 115.301 591.284 110.257C589.581 104.8 589.539 99.0055 591.088 95.864C593.651 90.6659 599.417 89.3048 601.765 90.3192C602.465 90.6213 602.98 91.0268 603.356 91.4873Z" fill="#11111C"/>
<path d="M583.123 113.8L584.075 113.434L594.599 112.475L601.868 111.972L604.063 117.824L582.208 127.974L583.123 113.8Z" fill="#1241FF"/>
<path d="M556.13 116.747C556.13 116.747 558.133 118.645 558.254 118.456C558.369 118.279 557.501 117.807 555.496 115.066C554.778 114.084 555.347 113.269 556.93 115.465C557.211 115.857 557.595 116.121 557.881 116.412C558.45 116.99 558.857 117.419 558.869 117.381C558.883 117.333 559.076 117.365 558.82 117.001C558.513 116.564 557.657 115.784 557.255 115.104C557.027 114.718 556.501 113.943 556.501 113.943C556.501 113.943 555.786 112.589 555.85 112.528C556.203 112.194 556.987 113.011 557.23 113.577C557.567 113.854 558.096 114.686 558.096 114.686C558.096 114.686 559.541 116.119 559.745 115.91C559.913 115.74 557.111 111.619 557.487 111.31C557.932 110.946 559.287 113.171 559.362 113.271C559.575 113.555 560.276 114.356 560.276 114.356C560.276 114.356 562.848 117.028 563.025 116.814C563.202 116.601 563.01 115.886 562.908 115.663C562.805 115.441 562.706 115.17 562.604 114.947C562.502 114.724 562.578 114.461 562.838 114.308C563.098 114.155 563.693 114.95 563.846 115.267C564.321 116.257 565.074 119.17 565.167 119.475C565.276 119.835 579.685 129.16 581.211 129.92L586.365 122.512L592.089 129.081L583.264 138.211C580.036 140.477 564.012 123.523 563.508 123.017C563.508 123.017 561.602 121.926 560.348 121.305C559.095 120.685 558.185 119.592 557.86 119.362C557.811 119.328 556.647 118.598 555.638 117.222C554.768 116.035 556.13 116.747 556.13 116.747Z" fill="white"/>
<path d="M563.302 119.555C563.302 119.555 562.196 117.838 562.961 116.822C562.961 116.822 562.317 117.228 562.354 118.017C562.392 118.805 563.302 119.555 563.302 119.555Z" fill="#CBCBCB"/>
<path d="M598.027 113.5C598.027 113.5 595.285 114.113 594.103 114.688C593.355 115.052 592.499 115.548 591.699 116.199C588.602 118.713 581.812 126.755 581.812 126.755C581.812 126.755 582.847 128.849 584.462 130.403C586.14 132.016 588.618 133.154 588.618 133.154C588.618 133.154 592.942 128.799 595.72 124.461C599.162 119.085 598.027 113.5 598.027 113.5Z" fill="#5E7EFF"/>
<path d="M639.071 211.29C641.637 214.494 644.456 216.992 644.81 217.273C644.98 217.408 646.053 217.643 646.233 217.778C648.138 222.389 646.64 226.637 644.926 230.037C644.351 227.491 643.781 223.987 643.356 223.591C642.679 222.961 640.307 220.206 635.74 216.981C637.848 215.451 637.949 213.667 639.071 211.29Z" fill="white"/>
<path d="M644.948 217.342C646.607 217.269 649.822 218 649.836 218.34C649.852 218.747 649.4 232.987 647.366 234.452C646.142 235.334 645.699 233.173 644.927 230.037C646.641 226.637 646.006 217.671 644.948 217.342Z" fill="#1A2138"/>
<path d="M581.876 218.836C580.888 222.1 578.767 229.399 578.654 230.124C578.622 230.333 578.13 231.038 577.964 231.173C573.294 231.758 569.778 229.192 567.088 226.646C569.552 226.778 572.808 226.98 573.352 226.871C573.898 226.762 574.768 226.102 575.127 224.8C575.87 222.104 576.043 219.087 577.742 216.441C578.63 218.862 579.977 217.128 581.876 218.836Z" fill="white"/>
<path d="M578.669 230.06C578.335 231.663 577.081 235.04 576.768 234.962C576.392 234.868 563.654 229.801 562.468 227.792C561.712 226.513 564.038 226.543 567.088 226.645C569.778 229.192 578.113 230.982 578.669 230.06Z" fill="#1A2138"/>
<path d="M601.658 151.625L597.233 149.957C597.233 149.957 595.286 158.461 594.245 161.104C593.205 163.747 581 184.389 580.144 187.352C579.288 190.315 574.87 223.198 574.87 223.198L580.901 225.337C580.901 225.337 587.414 205.635 587.834 201.407C588.255 197.18 588.754 193.37 588.754 193.37L604.154 172.989L601.658 151.625Z" fill="#242C44"/>
<path d="M597.233 149.957C597.233 149.957 605.211 193.142 607.335 194.697C609.46 196.252 637.942 218.966 637.942 218.966L641.445 213.572C641.445 213.572 629.334 190.078 618.649 189.242C618.649 189.242 619.319 160.988 617.35 156.436C615.381 151.884 608.912 145.992 608.912 145.992L597.23 148.091L597.233 149.957Z" fill="#1A2138"/>
<path d="M600.085 112.246C600.085 112.246 604.41 110.019 612.056 110.877C612.773 110.958 613.356 111.236 614.212 111.697C614.674 111.945 615.721 113.937 615.721 113.937L614.258 117.641L600.702 116.989L600.085 112.246Z" fill="#1241FF"/>
<path d="M622.234 124.671L627.129 128.755C627.57 128.418 627.942 128.138 628.224 127.935C631.18 125.804 640.424 116.345 640.771 115.966C641.118 115.586 639.783 108.856 640.627 108.977C641.47 109.097 641.912 112.133 642.331 112.129C643.296 112.12 648.329 106.071 648.655 106.616C649.266 107.635 645.584 110.604 645.956 111.03C646.329 111.456 649.502 107.564 650.368 108.057C651.234 108.55 647.012 111.448 647.131 111.898C647.25 112.348 651.484 109.719 651.672 110.71C651.773 111.248 647.847 112.954 648.283 113.431C648.719 113.908 651.941 113.078 651.999 113.707C652.057 114.336 648.673 114.256 647.343 115.365C646.013 116.474 644.978 116.346 643.399 118.748C641.82 121.15 630.47 136.623 627.443 136.627C624.986 136.63 617.616 130.324 617.391 129.418C616.526 125.946 622.234 124.671 622.234 124.671Z" fill="white"/>
<path d="M642.339 112.395C642.339 112.395 644.495 113.948 643.142 115.825C643.142 115.825 643.739 113.866 642.339 112.395Z" fill="#CBCBCB"/>
<path d="M600.939 112.092C600.939 112.092 605.48 111.05 610.919 113.664C616.358 116.277 623.94 125.545 623.94 125.545C623.94 125.545 619.047 132.225 617.25 132.391L611.763 126.668C611.763 126.668 609.444 137.503 610.108 140.764C610.644 143.393 612.893 147.831 612.893 147.831C612.893 147.831 613.011 148.356 603.647 150.253C599.888 151.015 596.965 150.25 596.965 150.25C596.965 150.25 596.784 146.004 595.691 141.954C593.909 135.359 590.842 127.549 590.636 126.539C590.304 124.908 592.354 115.375 594.3 114.573C596.247 113.771 600.939 112.092 600.939 112.092Z" fill="#5E7EFF"/>
<path d="M600.249 107.218C600.249 107.218 600.822 111.87 601.535 113.536C602.248 115.202 600.966 121.604 597.434 122.846C593.902 124.089 596.775 115.443 596.57 113.639C596.366 111.836 594.778 106.581 594.778 106.581L600.249 107.218Z" fill="white"/>
<path d="M595.541 109.229C595.141 107.78 594.778 106.581 594.778 106.581L600.249 107.218C600.249 107.218 600.366 108.169 600.56 109.365C598.621 110.514 596.863 110.242 595.541 109.229Z" fill="#CBCBCB"/>
<path d="M590.9 102.167C591.302 103.108 592.06 103.671 592.591 103.425C593.123 103.18 593.228 102.218 592.826 101.278C592.423 100.337 591.666 99.7743 591.134 100.02C590.602 100.266 590.498 101.227 590.9 102.167Z" fill="white"/>
<path d="M537.501 81.0315L536.79 80.9064C536.424 80.8418 536.19 80.4543 536.268 80.0403L539.415 63.3702C539.493 62.9563 539.853 62.673 540.219 62.7374L540.931 62.8625C541.297 62.9271 541.531 63.3146 541.453 63.7286L538.306 80.3987C538.228 80.8127 537.868 81.0959 537.501 81.0315Z" fill="#1A2138"/>
<path d="M533.148 84.2074C533.338 82.6868 532.735 74.0452 532.875 73.4612C533.018 72.8633 535.498 68.8891 535.711 68.5073C535.925 68.1253 536.741 67.7699 537.026 68.4106C537.183 68.7611 536.581 69.8829 536.005 70.8272C536.572 70.0609 537.963 68.6639 538.478 68.7874C539.475 69.0271 538.07 71.6133 537.191 72.6147C536.311 73.6159 537.43 78.2212 537.43 78.2212C537.43 78.2212 538.335 79.1897 538.719 78.486C539.102 77.7819 538.525 75.5303 539.412 76.1975C540.3 76.8648 540.863 79.6494 540.323 80.2845C539.809 80.8902 537.582 84.9952 537.375 85.3773L537.381 85.379L538.325 89.7311C536.546 90.3835 534.692 90.8787 532.876 91.3325C532.899 87.52 533.148 84.2074 533.148 84.2074Z" fill="white"/>
<path d="M555.958 228.172C555.688 227.863 555.97 231.404 556.349 231.846C556.229 232.783 556.852 233.86 556.852 234.388C556.852 236.37 547.411 232.705 549.527 231.827C549.719 231.747 550.333 231.19 550.486 230.53C550.721 229.517 550.771 228.276 550.771 228.276L555.958 228.172Z" fill="white"/>
<path d="M553.144 157.571L551.997 162.156C551.997 162.156 549.387 186.618 550.685 198.432C551.229 203.373 550.323 229.822 550.323 229.822L556.162 229.042L561.003 197.722L563.881 185.744L567.953 162.069L553.144 157.571Z" fill="#1A2138"/>
<path d="M557.389 235.042L556.308 231.808C556.308 231.808 554.037 232.717 552.902 232.566C551.767 232.414 549.551 231.808 549.551 231.808C545.02 233.22 541.308 233.905 541.983 235.042H557.389Z" fill="#642D78"/>
<path d="M594.885 224.927C594.885 224.927 596.377 226.306 596.411 226.813C596.445 227.319 596.543 232.741 595.934 233.247C595.325 233.754 593.535 234.112 594.11 234.682C594.545 235.112 597.891 235.02 600.108 234.905C600.756 234.871 601.567 229.98 601.824 229.261C602.196 228.217 603.537 225.945 603.199 225.217C603.034 224.863 601.809 224.055 600.697 223.375C599.528 222.66 598.408 221.067 598.408 221.067L594.885 224.927Z" fill="white"/>
<path d="M577.916 160.893L581.259 164.78L585.126 196.981L599.835 222.337C599.835 222.337 597.623 225.51 595.248 226.009L574.371 200.381L565.628 175.592L563.453 161.17L577.916 160.893Z" fill="#242C44"/>
<path d="M600.625 223.341C600.625 223.341 597.482 232.335 596.135 232.778C595.777 232.895 593.766 233.371 593.442 234.09C593.434 234.108 593.427 234.13 593.422 234.154C593.317 234.609 593.727 235.029 594.225 235.029H600.612C600.612 235.029 601.519 230.988 601.878 229.212C601.878 229.212 603.776 224.874 603.564 224.48C603.353 224.085 600.625 223.341 600.625 223.341Z" fill="#642D78"/>
<path d="M561.095 112.141L567.98 113.545C567.98 113.545 573.751 113.314 575.204 113.327C575.33 113.328 580.991 140.944 582.367 151.337C583.744 161.73 582.677 163.57 582.677 163.57C582.677 163.57 573.079 165.728 565.978 165.099C558.594 164.445 550.286 160.458 550.286 160.458C550.286 160.458 558.843 140.944 560.095 134.709C561.346 128.473 561.095 112.141 561.095 112.141Z" fill="white"/>
<path d="M556.589 122.137C556.589 122.137 538.506 113.796 536.31 112.492C534.8 111.596 532 87.6304 532 87.6304C532.853 86.218 538.359 86.5076 538.571 86.8321C539.376 88.0691 543.437 106.394 543.437 106.394L563.371 112.109L568.034 113.48L556.589 122.137Z" fill="#1241FF"/>
<path d="M548.245 153.576C550.798 144.8 556.871 119.388 556.871 119.388L568.324 113.214L566.243 116.171C563.863 119.552 562.124 123.339 561.11 127.348C558.118 139.176 553.431 163.349 552.86 163.432C552.222 163.525 546.85 161.959 546.85 160.725C546.85 160.168 547.988 154.459 548.245 153.576Z" fill="#1241FF"/>
<path d="M575.203 113.328L584.074 113.434C584.074 113.434 581.779 132.008 582.428 139.356C583.508 151.561 586.036 164.546 585.515 165.073C582.278 167.111 573.524 167.373 572.738 166.107C564.056 152.125 575.203 113.328 575.203 113.328Z" fill="#1241FF"/>
<path d="M570.903 88.0189C570.903 88.0189 574.206 85.2449 576.148 89.2974C576.148 89.2974 578.091 88.4797 579.166 90.4527C579.166 90.4527 582.581 89.8345 582.82 94.8623C582.82 94.8623 584.556 94.7349 584.55 96.7801C584.545 98.8252 583.366 100.055 583.366 100.055C583.366 100.055 584.239 100.879 583.594 102.687C583.046 104.223 581.712 104.315 581.712 104.315C581.712 104.315 581.057 106.936 579.812 107.606C578.567 108.276 577.04 107.712 577.04 107.712C577.04 107.712 576.459 109.108 575.127 108.826C573.795 108.545 572.274 107.073 570.702 107.478C569.13 107.884 565.288 106.83 565.288 106.83C565.288 106.83 561.119 104.375 562.944 100.037C562.944 100.037 560.873 97.6904 563.177 95.4196C563.177 95.4196 562.147 91.341 565.327 89.3648C568.507 87.3893 570.903 88.0189 570.903 88.0189Z" fill="#1A2138"/>
<path d="M568.999 109.186L568.015 113.086C568.015 113.086 567.576 116.506 568.989 117.781C570.402 119.056 574.948 113.343 574.948 113.343L575.532 103.61L568.999 109.186Z" fill="white"/>
<path d="M575.333 106.882C573.673 110.161 570.406 111.921 568.165 112.492L568.999 109.186L575.532 103.611L575.333 106.882Z" fill="#CBCBCB"/>
<path d="M584.496 97.7211C584.322 99.2496 583.312 100.39 582.239 100.268C581.167 100.146 580.439 98.8077 580.613 97.2793C580.787 95.7507 581.797 94.6105 582.869 94.7323C583.942 94.8545 584.67 96.1927 584.496 97.7211Z" fill="#1A2138"/>
<path d="M579.348 91.1096C579.249 91.9881 578.11 92.5799 576.805 92.4315C575.501 92.2831 574.524 91.4505 574.624 90.5722C574.724 89.6937 575.863 89.1019 577.167 89.2503C578.472 89.3985 579.448 90.2311 579.348 91.1096Z" fill="#1A2138"/>
<path d="M573.176 92.6622C570.176 91.2323 566.612 92.9276 565.77 96.092C565.403 97.4672 565.016 99.2052 564.762 101.125C564.152 105.741 566.034 110.516 568.135 110.755C570.236 110.994 576.382 108.66 577.339 102.116C577.93 98.0762 576.325 94.1628 573.176 92.6622Z" fill="white"/>
<path d="M575.731 102.459C575.615 103.48 576.198 104.384 577.032 104.479C577.867 104.574 578.637 103.823 578.753 102.803C578.869 101.782 578.287 100.878 577.453 100.783C576.618 100.688 575.847 101.439 575.731 102.459Z" fill="white"/>
<path d="M564.337 89.325C561.971 90.7971 560.914 93.3223 561.975 94.9653C563.036 96.6081 565.813 96.7469 568.178 95.2749C570.544 93.8028 571.601 91.2776 570.54 89.6346C569.48 87.9916 566.702 87.8531 564.337 89.325Z" fill="#1A2138"/>
<path d="M569.85 91.3797C569.765 92.1267 570.598 92.8349 571.71 92.9615C572.823 93.0882 573.794 92.5851 573.879 91.8381C573.964 91.0909 573.131 90.3827 572.018 90.2563C570.906 90.1298 569.935 90.6329 569.85 91.3797Z" fill="#1A2138"/>
<path d="M563.201 96.4463C563.092 97.4068 563.773 98.2731 564.723 98.3811C565.672 98.4892 566.531 97.7983 566.641 96.8378C566.75 95.8773 566.068 95.0112 565.119 94.903C564.169 94.7948 563.31 95.4858 563.201 96.4463Z" fill="#1A2138"/>
<path d="M598.14 94.5622C598.14 94.5622 600.301 94.9754 601.692 97.0102C603.083 99.0453 604.186 105.156 599.913 108.201C595.64 111.246 592.119 107.323 591.938 103.366C591.756 99.4096 592.411 94.0934 598.14 94.5622Z" fill="white"/>
<path d="M601.935 102.51C601.651 103.552 601.973 104.553 602.653 104.747C603.334 104.941 604.116 104.253 604.399 103.212C604.683 102.17 604.362 101.168 603.681 100.974C603.001 100.781 602.219 101.468 601.935 102.51Z" fill="white"/>
<path d="M612.939 118.365C612.771 118.212 613.249 117.484 613.328 117.085C612.74 118.341 612.18 119.807 611.815 119.496C611.658 119.362 612.051 117.496 612.065 117.163C611.8 117.764 611.438 119.393 610.849 119.107C610.494 118.936 610.864 117.036 611.104 115.95C610.907 116.605 610.354 118.697 610.15 118.525C609.709 118.154 610.689 113.491 610.141 112.771C609.798 112.319 611.688 111.172 613.106 111.602C613.885 111.694 614.52 112.111 614.985 112.387C615.274 112.559 615.491 112.79 615.654 113.041C616.151 113.805 616.159 114.79 615.736 115.598C615.119 116.778 613.408 118.793 612.939 118.365Z" fill="white"/>
<path d="M612.132 112.144L611.818 111.673C611.818 111.673 609.51 112.189 609.174 112.928C608.837 113.668 609.129 115.752 609.756 115.595C610.384 115.439 610.16 113.959 610.16 113.959L611.437 113.421L612.132 112.144Z" fill="white"/>
</svg>
