<svg width="329" height="240" viewBox="0 0 329 240" fill="none" xmlns="http://www.w3.org/2000/svg">
<rect opacity="0.6" x="0.3" y="0.3" width="47.4" height="46.4" transform="matrix(-4.37114e-08 1 1 4.37114e-08 -0.000244154 1.43942e-05)" fill="#11111C" stroke="#343434" stroke-width="0.6"/>
<rect opacity="0.5" x="0.3" y="0.3" width="47.4" height="46.4" transform="matrix(-4.37114e-08 1 1 4.37114e-08 -0.000244154 48.0003)" fill="#11111C" stroke="#343434" stroke-width="0.6"/>
<rect opacity="0.3" x="0.3" y="0.3" width="47.4" height="46.4" transform="matrix(-4.37114e-08 1 1 4.37114e-08 46.9996 48.0003)" fill="#11111C" stroke="#343434" stroke-width="0.6"/>
<rect opacity="0.1" x="0.3" y="0.3" width="47.4" height="46.4" transform="matrix(-4.37114e-08 1 1 4.37114e-08 141 48.0003)" fill="#11111C" stroke="#343434" stroke-width="0.6"/>
<rect opacity="0.2" x="0.3" y="0.3" width="47.4" height="46.4" transform="matrix(-4.37114e-08 1 1 4.37114e-08 -0.000244154 96)" fill="#11111C" stroke="#343434" stroke-width="0.6"/>
<rect opacity="0.4" x="0.3" y="0.3" width="47.4" height="46.4" transform="matrix(-4.37114e-08 1 1 4.37114e-08 46.9996 96)" fill="#11111C" stroke="#343434" stroke-width="0.6"/>
<rect opacity="0.3" x="0.3" y="0.3" width="47.4" height="46.4" transform="matrix(-4.37114e-08 1 1 4.37114e-08 93.9988 96)" fill="#11111C" stroke="#343434" stroke-width="0.6"/>
<rect opacity="0.4" x="0.3" y="0.3" width="47.4" height="46.4" transform="matrix(-4.37114e-08 1 1 4.37114e-08 141 96)" fill="#11111C" stroke="#343434" stroke-width="0.6"/>
<rect opacity="0.3" x="0.3" y="0.3" width="47.4" height="46.4" transform="matrix(-4.37114e-08 1 1 4.37114e-08 188 96)" fill="#11111C" stroke="#343434" stroke-width="0.6"/>
<rect opacity="0.6" x="0.3" y="0.3" width="47.4" height="46.4" transform="matrix(-4.37114e-08 1 1 4.37114e-08 -0.000244154 144)" fill="#11111C" stroke="#343434" stroke-width="0.6"/>
<rect opacity="0.9" x="0.3" y="0.3" width="47.4" height="46.4" transform="matrix(-4.37114e-08 1 1 4.37114e-08 46.9996 144)" fill="#11111C" stroke="#343434" stroke-width="0.6"/>
<rect opacity="0.4" x="0.3" y="0.3" width="47.4" height="46.4" transform="matrix(-4.37114e-08 1 1 4.37114e-08 93.9988 144)" fill="#11111C" stroke="#343434" stroke-width="0.6"/>
<rect opacity="0.4" x="0.3" y="0.3" width="47.4" height="46.4" transform="matrix(-4.37114e-08 1 1 4.37114e-08 141 144)" fill="#11111C" stroke="#343434" stroke-width="0.6"/>
<rect opacity="0.3" x="0.3" y="0.3" width="47.4" height="46.4" transform="matrix(-4.37114e-08 1 1 4.37114e-08 188 144)" fill="#11111C" stroke="#343434" stroke-width="0.6"/>
<rect x="0.3" y="0.3" width="47.4" height="46.4" transform="matrix(-4.37114e-08 1 1 4.37114e-08 -0.000244154 192)" fill="#11111C" stroke="#343434" stroke-width="0.6"/>
<rect opacity="0.6" x="0.3" y="0.3" width="47.4" height="46.4" transform="matrix(-4.37114e-08 1 1 4.37114e-08 46.9996 192)" fill="#11111C" stroke="#343434" stroke-width="0.6"/>
<rect x="0.3" y="0.3" width="47.4" height="46.4" transform="matrix(-4.37114e-08 1 1 4.37114e-08 93.9998 192)" fill="#11111C" stroke="#343434" stroke-width="0.6"/>
<rect opacity="0.7" x="0.3" y="0.3" width="47.4" height="46.4" transform="matrix(-4.37114e-08 1 1 4.37114e-08 141 192)" fill="#11111C" stroke="#343434" stroke-width="0.6"/>
<rect opacity="0.4" x="0.3" y="0.3" width="47.4" height="46.4" transform="matrix(-4.37114e-08 1 1 4.37114e-08 188 192)" fill="#11111C" stroke="#343434" stroke-width="0.6"/>
<rect opacity="0.2" x="0.3" y="0.3" width="47.4" height="46.4" transform="matrix(-4.37114e-08 1 1 4.37114e-08 235 192)" fill="#11111C" stroke="#343434" stroke-width="0.6"/>
<rect opacity="0.1" x="0.3" y="0.3" width="47.4" height="46.4" transform="matrix(-4.37114e-08 1 1 4.37114e-08 282 192)" fill="#11111C" stroke="#343434" stroke-width="0.6"/>
</svg>
