<svg width="224" height="411" viewBox="0 0 224 411" fill="none" xmlns="http://www.w3.org/2000/svg">
<g clip-path="url(#clip0_2050_7888)">
<rect width="224" height="411" rx="10" fill="#F4F6FF"/>
<rect y="247" width="224" height="164.4" rx="10" fill="#11111C"/>
<path d="M19.248 298V286.8H20.368V298H19.248ZM26.2654 298.192C25.4867 298.192 24.804 298.011 24.2174 297.648C23.6414 297.275 23.1934 296.768 22.8734 296.128C22.5534 295.488 22.3934 294.763 22.3934 293.952C22.3934 293.141 22.5534 292.421 22.8734 291.792C23.1934 291.152 23.6467 290.651 24.2334 290.288C24.82 289.925 25.5027 289.744 26.2814 289.744C26.964 289.744 27.5614 289.893 28.0734 290.192C28.596 290.48 28.996 290.891 29.2734 291.424V286.48H30.3934V298H29.3694L29.2734 296.544C29.1027 296.821 28.8787 297.088 28.6014 297.344C28.3347 297.6 28.004 297.808 27.6094 297.968C27.2254 298.117 26.7774 298.192 26.2654 298.192ZM26.3614 297.216C26.9267 297.216 27.4174 297.083 27.8334 296.816C28.26 296.549 28.5907 296.171 28.8254 295.68C29.0707 295.189 29.1934 294.619 29.1934 293.968C29.1934 293.317 29.0707 292.747 28.8254 292.256C28.5907 291.765 28.26 291.387 27.8334 291.12C27.4174 290.853 26.9267 290.72 26.3614 290.72C25.8067 290.72 25.316 290.853 24.8894 291.12C24.4627 291.387 24.1267 291.765 23.8814 292.256C23.6467 292.736 23.5294 293.307 23.5294 293.968C23.5294 294.629 23.652 295.205 23.8974 295.696C24.1427 296.176 24.4787 296.549 24.9054 296.816C25.332 297.083 25.8174 297.216 26.3614 297.216ZM36.1233 298.192C35.3766 298.192 34.7153 298.016 34.1393 297.664C33.5739 297.312 33.1259 296.821 32.7953 296.192C32.4753 295.552 32.3153 294.805 32.3153 293.952C32.3153 293.099 32.4753 292.357 32.7953 291.728C33.1153 291.099 33.5633 290.613 34.1393 290.272C34.7259 289.92 35.3979 289.744 36.1553 289.744C36.9339 289.744 37.5899 289.92 38.1233 290.272C38.6673 290.624 39.0779 291.083 39.3553 291.648C39.6433 292.213 39.7873 292.832 39.7873 293.504C39.7873 293.611 39.7873 293.723 39.7873 293.84C39.7873 293.947 39.7819 294.075 39.7713 294.224H33.1633V293.28H38.6993C38.6779 292.459 38.4219 291.824 37.9313 291.376C37.4513 290.928 36.8433 290.704 36.1073 290.704C35.6273 290.704 35.1793 290.816 34.7633 291.04C34.3579 291.253 34.0273 291.573 33.7713 292C33.5259 292.416 33.4033 292.944 33.4033 293.584V294C33.4033 294.725 33.5313 295.328 33.7873 295.808C34.0433 296.288 34.3793 296.645 34.7953 296.88C35.2219 297.115 35.6646 297.232 36.1233 297.232C36.7313 297.232 37.2326 297.099 37.6273 296.832C38.0219 296.555 38.3046 296.176 38.4753 295.696H39.5793C39.4406 296.165 39.2166 296.592 38.9073 296.976C38.6086 297.36 38.2246 297.659 37.7553 297.872C37.2859 298.085 36.7419 298.192 36.1233 298.192ZM41.6204 298V289.936H42.6444L42.7084 291.376C42.9644 290.864 43.3324 290.464 43.8124 290.176C44.303 289.888 44.847 289.744 45.4444 289.744C46.063 289.744 46.6017 289.867 47.0604 290.112C47.519 290.357 47.8764 290.731 48.1324 291.232C48.3884 291.723 48.5164 292.352 48.5164 293.12V298H47.3964V293.248C47.3964 292.395 47.2097 291.76 46.8364 291.344C46.463 290.928 45.9297 290.72 45.2364 290.72C44.767 290.72 44.3404 290.837 43.9564 291.072C43.583 291.296 43.2844 291.627 43.0604 292.064C42.847 292.501 42.7404 293.04 42.7404 293.68V298H41.6204ZM53.692 298C53.2333 298 52.8387 297.931 52.508 297.792C52.1773 297.643 51.9213 297.403 51.74 297.072C51.5693 296.731 51.484 296.267 51.484 295.68V290.896H50.076V289.936H51.484L51.644 288.064H52.604V289.952H55.02V290.896H52.604V295.68C52.604 296.213 52.7107 296.576 52.924 296.768C53.1373 296.949 53.516 297.04 54.06 297.04H54.892V298H53.692ZM56.921 298V289.936H58.025V298H56.921ZM57.481 288.032C57.257 288.032 57.065 287.957 56.905 287.808C56.745 287.648 56.665 287.451 56.665 287.216C56.665 286.971 56.7397 286.779 56.889 286.64C57.049 286.491 57.241 286.416 57.465 286.416C57.689 286.416 57.881 286.491 58.041 286.64C58.201 286.779 58.281 286.971 58.281 287.216C58.281 287.451 58.201 287.648 58.041 287.808C57.8917 287.957 57.705 288.032 57.481 288.032ZM60.9441 298V288.544C60.9441 288.075 61.0188 287.691 61.1681 287.392C61.3281 287.083 61.5628 286.853 61.8721 286.704C62.1815 286.555 62.5708 286.48 63.0401 286.48H63.9521V287.44H63.2321C62.8055 287.44 62.5015 287.525 62.3201 287.696C62.1495 287.867 62.0641 288.165 62.0641 288.592V298H60.9441ZM59.6961 290.896V289.936H64.1601V290.896H59.6961ZM66.6243 301.52L68.6083 297.104H68.1763L64.9923 289.936H66.2083L68.9603 296.336L71.8563 289.936H73.0083L67.7923 301.52H66.6243ZM82.006 301.712C81.2913 301.712 80.6567 301.616 80.102 301.424C79.558 301.232 79.126 300.944 78.806 300.56C78.4967 300.176 78.342 299.701 78.342 299.136C78.342 298.912 78.3793 298.667 78.454 298.4C78.5393 298.144 78.6993 297.883 78.934 297.616C79.1687 297.349 79.4993 297.109 79.926 296.896L80.838 297.296C80.2727 297.563 79.9047 297.851 79.734 298.16C79.5633 298.48 79.478 298.768 79.478 299.024C79.478 299.408 79.5847 299.728 79.798 299.984C80.022 300.24 80.3207 300.432 80.694 300.56C81.078 300.699 81.5153 300.768 82.006 300.768C82.4967 300.768 82.918 300.693 83.27 300.544C83.6327 300.405 83.91 300.203 84.102 299.936C84.294 299.68 84.39 299.381 84.39 299.04C84.39 298.645 84.2353 298.309 83.926 298.032C83.6273 297.765 83.0673 297.611 82.246 297.568C81.5953 297.525 81.0567 297.472 80.63 297.408C80.214 297.333 79.8673 297.248 79.59 297.152C79.3233 297.045 79.0993 296.933 78.918 296.816C78.7473 296.699 78.582 296.571 78.422 296.432V296.064L79.958 294.608L80.982 294.976L79.478 296.32L79.574 295.888C79.6913 295.973 79.8033 296.053 79.91 296.128C80.0273 296.203 80.1767 296.267 80.358 296.32C80.55 296.363 80.8113 296.411 81.142 296.464C81.4833 296.507 81.942 296.549 82.518 296.592C83.254 296.645 83.8407 296.773 84.278 296.976C84.7153 297.179 85.0353 297.451 85.238 297.792C85.4407 298.133 85.542 298.533 85.542 298.992C85.542 299.451 85.414 299.888 85.158 300.304C84.9127 300.72 84.5287 301.056 84.006 301.312C83.494 301.579 82.8273 301.712 82.006 301.712ZM81.99 295.44C81.3073 295.44 80.7313 295.312 80.262 295.056C79.8033 294.8 79.4513 294.459 79.206 294.032C78.9607 293.595 78.838 293.115 78.838 292.592C78.838 292.059 78.9607 291.579 79.206 291.152C79.4513 290.725 79.8087 290.384 80.278 290.128C80.7473 289.872 81.318 289.744 81.99 289.744C82.6727 289.744 83.2433 289.872 83.702 290.128C84.1713 290.384 84.5233 290.725 84.758 291.152C85.0033 291.579 85.126 292.059 85.126 292.592C85.126 293.115 85.0033 293.595 84.758 294.032C84.5233 294.459 84.1713 294.8 83.702 295.056C83.2433 295.312 82.6727 295.44 81.99 295.44ZM81.99 294.48C82.6087 294.48 83.094 294.32 83.446 294C83.8087 293.669 83.99 293.2 83.99 292.592C83.99 291.973 83.8087 291.504 83.446 291.184C83.094 290.864 82.6087 290.704 81.99 290.704C81.3713 290.704 80.8753 290.864 80.502 291.184C80.1393 291.504 79.958 291.973 79.958 292.592C79.958 293.2 80.1393 293.669 80.502 294C80.8647 294.32 81.3607 294.48 81.99 294.48ZM83.302 290.944L82.902 289.936H86.166V290.848L83.302 290.944ZM87.7141 298V289.936H88.7381L88.8181 291.488C88.9888 291.115 89.2181 290.8 89.5061 290.544C89.7941 290.288 90.1408 290.091 90.5461 289.952C90.9515 289.813 91.4101 289.744 91.9221 289.744V290.912H91.4901C91.1488 290.912 90.8181 290.96 90.4981 291.056C90.1781 291.141 89.8955 291.291 89.6501 291.504C89.4048 291.717 89.2075 292.005 89.0581 292.368C88.9088 292.731 88.8341 293.184 88.8341 293.728V298H87.7141ZM96.7036 298.192C95.9676 298.192 95.301 298.021 94.7036 297.68C94.117 297.328 93.653 296.837 93.3116 296.208C92.9703 295.568 92.7996 294.827 92.7996 293.984C92.7996 293.109 92.9703 292.357 93.3116 291.728C93.6636 291.099 94.1383 290.613 94.7356 290.272C95.333 289.92 95.9996 289.744 96.7356 289.744C97.5036 289.744 98.181 289.92 98.7676 290.272C99.3543 290.613 99.8183 291.099 100.16 291.728C100.501 292.357 100.672 293.109 100.672 293.984C100.672 294.827 100.496 295.568 100.144 296.208C99.8023 296.837 99.333 297.328 98.7356 297.68C98.149 298.021 97.4716 298.192 96.7036 298.192ZM96.7196 297.232C97.221 297.232 97.6796 297.109 98.0956 296.864C98.5223 296.619 98.8636 296.256 99.1196 295.776C99.3863 295.285 99.5196 294.683 99.5196 293.968C99.5196 293.243 99.3916 292.64 99.1356 292.16C98.8796 291.68 98.5383 291.323 98.1116 291.088C97.6956 290.843 97.237 290.72 96.7356 290.72C96.2556 290.72 95.8023 290.843 95.3756 291.088C94.949 291.333 94.6023 291.696 94.3356 292.176C94.0796 292.645 93.9516 293.243 93.9516 293.968C93.9516 294.683 94.0796 295.285 94.3356 295.776C94.5916 296.256 94.9276 296.619 95.3436 296.864C95.7703 297.109 96.229 297.232 96.7196 297.232ZM103.941 298L101.573 289.936H102.709L104.629 296.832H104.405L106.485 289.936H107.765L109.845 296.832H109.621L111.541 289.936H112.677L110.309 298H109.173L107.013 290.784H107.237L105.077 298H103.941ZM117.301 298C116.843 298 116.448 297.931 116.117 297.792C115.787 297.643 115.531 297.403 115.349 297.072C115.179 296.731 115.093 296.267 115.093 295.68V290.896H113.685V289.936H115.093L115.253 288.064H116.213V289.952H118.629V290.896H116.213V295.68C116.213 296.213 116.32 296.576 116.533 296.768C116.747 296.949 117.125 297.04 117.669 297.04H118.501V298H117.301ZM120.37 298V286.48H121.49V291.376C121.768 290.864 122.152 290.464 122.642 290.176C123.133 289.888 123.672 289.744 124.258 289.744C124.866 289.744 125.394 289.867 125.842 290.112C126.301 290.357 126.653 290.731 126.898 291.232C127.154 291.733 127.282 292.373 127.282 293.152V298H126.178V293.28C126.178 292.416 125.997 291.776 125.634 291.36C125.282 290.933 124.76 290.72 124.066 290.72C123.586 290.72 123.149 290.837 122.754 291.072C122.37 291.307 122.061 291.648 121.826 292.096C121.602 292.533 121.49 293.077 121.49 293.728V298H120.37ZM136.864 298C136.405 298 136.011 297.931 135.68 297.792C135.349 297.643 135.093 297.403 134.912 297.072C134.741 296.731 134.656 296.267 134.656 295.68V290.896H133.248V289.936H134.656L134.816 288.064H135.776V289.952H138.192V290.896H135.776V295.68C135.776 296.213 135.883 296.576 136.096 296.768C136.309 296.949 136.688 297.04 137.232 297.04H138.064V298H136.864ZM139.933 298V289.936H140.957L141.037 291.488C141.208 291.115 141.437 290.8 141.725 290.544C142.013 290.288 142.36 290.091 142.765 289.952C143.17 289.813 143.629 289.744 144.141 289.744V290.912H143.709C143.368 290.912 143.037 290.96 142.717 291.056C142.397 291.141 142.114 291.291 141.869 291.504C141.624 291.717 141.426 292.005 141.277 292.368C141.128 292.731 141.053 293.184 141.053 293.728V298H139.933ZM148.826 298.192C148.08 298.192 147.418 298.016 146.842 297.664C146.277 297.312 145.829 296.821 145.498 296.192C145.178 295.552 145.018 294.805 145.018 293.952C145.018 293.099 145.178 292.357 145.498 291.728C145.818 291.099 146.266 290.613 146.842 290.272C147.429 289.92 148.101 289.744 148.858 289.744C149.637 289.744 150.293 289.92 150.826 290.272C151.37 290.624 151.781 291.083 152.058 291.648C152.346 292.213 152.49 292.832 152.49 293.504C152.49 293.611 152.49 293.723 152.49 293.84C152.49 293.947 152.485 294.075 152.474 294.224H145.866V293.28H151.402C151.381 292.459 151.125 291.824 150.634 291.376C150.154 290.928 149.546 290.704 148.81 290.704C148.33 290.704 147.882 290.816 147.466 291.04C147.061 291.253 146.73 291.573 146.474 292C146.229 292.416 146.106 292.944 146.106 293.584V294C146.106 294.725 146.234 295.328 146.49 295.808C146.746 296.288 147.082 296.645 147.498 296.88C147.925 297.115 148.368 297.232 148.826 297.232C149.434 297.232 149.936 297.099 150.33 296.832C150.725 296.555 151.008 296.176 151.178 295.696H152.282C152.144 296.165 151.92 296.592 151.61 296.976C151.312 297.36 150.928 297.659 150.458 297.872C149.989 298.085 149.445 298.192 148.826 298.192ZM154.324 298V289.936H155.348L155.412 291.376C155.668 290.864 156.036 290.464 156.516 290.176C157.006 289.888 157.55 289.744 158.148 289.744C158.766 289.744 159.305 289.867 159.764 290.112C160.222 290.357 160.58 290.731 160.836 291.232C161.092 291.723 161.22 292.352 161.22 293.12V298H160.1V293.248C160.1 292.395 159.913 291.76 159.54 291.344C159.166 290.928 158.633 290.72 157.94 290.72C157.47 290.72 157.044 290.837 156.66 291.072C156.286 291.296 155.988 291.627 155.764 292.064C155.55 292.501 155.444 293.04 155.444 293.68V298H154.324ZM166.859 298.192C166.08 298.192 165.398 298.011 164.811 297.648C164.235 297.275 163.787 296.768 163.467 296.128C163.147 295.488 162.987 294.763 162.987 293.952C162.987 293.141 163.147 292.421 163.467 291.792C163.787 291.152 164.24 290.651 164.827 290.288C165.414 289.925 166.096 289.744 166.875 289.744C167.558 289.744 168.155 289.893 168.667 290.192C169.19 290.48 169.59 290.891 169.867 291.424V286.48H170.987V298H169.963L169.867 296.544C169.696 296.821 169.472 297.088 169.195 297.344C168.928 297.6 168.598 297.808 168.203 297.968C167.819 298.117 167.371 298.192 166.859 298.192ZM166.955 297.216C167.52 297.216 168.011 297.083 168.427 296.816C168.854 296.549 169.184 296.171 169.419 295.68C169.664 295.189 169.787 294.619 169.787 293.968C169.787 293.317 169.664 292.747 169.419 292.256C169.184 291.765 168.854 291.387 168.427 291.12C168.011 290.853 167.52 290.72 166.955 290.72C166.4 290.72 165.91 290.853 165.483 291.12C165.056 291.387 164.72 291.765 164.475 292.256C164.24 292.736 164.123 293.307 164.123 293.968C164.123 294.629 164.246 295.205 164.491 295.696C164.736 296.176 165.072 296.549 165.499 296.816C165.926 297.083 166.411 297.216 166.955 297.216ZM176.221 298.192C175.581 298.192 175.016 298.085 174.525 297.872C174.045 297.659 173.656 297.355 173.357 296.96C173.069 296.555 172.893 296.075 172.829 295.52H173.981C174.045 295.829 174.168 296.112 174.349 296.368C174.541 296.624 174.797 296.832 175.117 296.992C175.437 297.141 175.816 297.216 176.253 297.216C176.658 297.216 176.989 297.157 177.245 297.04C177.512 296.912 177.709 296.747 177.837 296.544C177.976 296.331 178.045 296.096 178.045 295.84C178.045 295.488 177.96 295.216 177.789 295.024C177.629 294.821 177.394 294.672 177.085 294.576C176.776 294.48 176.402 294.389 175.965 294.304C175.602 294.24 175.256 294.155 174.925 294.048C174.594 293.941 174.296 293.803 174.029 293.632C173.773 293.461 173.57 293.248 173.421 292.992C173.272 292.725 173.197 292.416 173.197 292.064C173.197 291.605 173.309 291.205 173.533 290.864C173.768 290.512 174.098 290.24 174.525 290.048C174.952 289.845 175.453 289.744 176.029 289.744C176.85 289.744 177.522 289.952 178.045 290.368C178.568 290.773 178.872 291.371 178.957 292.16H177.837C177.794 291.723 177.613 291.376 177.293 291.12C176.973 290.864 176.541 290.736 175.997 290.736C175.464 290.736 175.053 290.848 174.765 291.072C174.488 291.285 174.349 291.579 174.349 291.952C174.349 292.187 174.424 292.389 174.573 292.56C174.722 292.731 174.941 292.88 175.229 293.008C175.528 293.125 175.89 293.227 176.317 293.312C176.829 293.408 177.298 293.536 177.725 293.696C178.162 293.845 178.514 294.08 178.781 294.4C179.058 294.709 179.197 295.152 179.197 295.728C179.208 296.208 179.09 296.635 178.845 297.008C178.6 297.381 178.253 297.675 177.805 297.888C177.357 298.091 176.829 298.192 176.221 298.192ZM189.701 298.192C189.232 298.192 188.8 298.123 188.405 297.984C188.021 297.835 187.685 297.637 187.397 297.392C187.109 297.136 186.88 296.848 186.709 296.528L186.613 298H185.589V286.48H186.709V291.392C186.976 290.933 187.36 290.544 187.861 290.224C188.362 289.904 188.976 289.744 189.701 289.744C190.49 289.744 191.178 289.931 191.765 290.304C192.352 290.667 192.8 291.168 193.109 291.808C193.429 292.437 193.589 293.157 193.589 293.968C193.589 294.779 193.429 295.504 193.109 296.144C192.789 296.784 192.336 297.285 191.749 297.648C191.173 298.011 190.49 298.192 189.701 298.192ZM189.621 297.216C190.186 297.216 190.677 297.083 191.093 296.816C191.509 296.549 191.84 296.171 192.085 295.68C192.33 295.189 192.453 294.619 192.453 293.968C192.453 293.307 192.33 292.736 192.085 292.256C191.84 291.765 191.504 291.387 191.077 291.12C190.661 290.853 190.176 290.72 189.621 290.72C189.066 290.72 188.57 290.853 188.133 291.12C187.706 291.387 187.37 291.765 187.125 292.256C186.89 292.747 186.773 293.317 186.773 293.968C186.773 294.629 186.89 295.205 187.125 295.696C187.37 296.176 187.706 296.549 188.133 296.816C188.57 297.083 189.066 297.216 189.621 297.216ZM195.734 301.52L197.718 297.104H197.286L194.102 289.936H195.318L198.07 296.336L200.966 289.936H202.118L196.902 301.52H195.734Z" fill="white"/>
<path d="M29.73 342V337.71H19.2V335.37L29.25 321H32.7V335.1H35.7V337.71H32.7V342H29.73ZM22.47 335.1H29.91V324.3L22.47 335.1ZM47.0128 342.36C45.1528 342.36 43.5528 341.91 42.2128 341.01C40.8728 340.09 39.8428 338.82 39.1228 337.2C38.4028 335.56 38.0428 333.66 38.0428 331.5C38.0428 329.34 38.4028 327.45 39.1228 325.83C39.8428 324.19 40.8728 322.92 42.2128 322.02C43.5528 321.1 45.1528 320.64 47.0128 320.64C48.8728 320.64 50.4628 321.1 51.7828 322.02C53.1228 322.92 54.1428 324.19 54.8428 325.83C55.5628 327.45 55.9228 329.34 55.9228 331.5C55.9228 333.66 55.5628 335.56 54.8428 337.2C54.1428 338.82 53.1228 340.09 51.7828 341.01C50.4628 341.91 48.8728 342.36 47.0128 342.36ZM47.0128 339.69C48.1328 339.69 49.1328 339.36 50.0128 338.7C50.9128 338.04 51.6128 337.1 52.1128 335.88C52.6128 334.66 52.8628 333.2 52.8628 331.5C52.8628 329.8 52.6128 328.34 52.1128 327.12C51.6128 325.9 50.9128 324.97 50.0128 324.33C49.1328 323.67 48.1328 323.34 47.0128 323.34C45.8728 323.34 44.8528 323.67 43.9528 324.33C43.0528 324.97 42.3528 325.9 41.8528 327.12C41.3528 328.34 41.1028 329.8 41.1028 331.5C41.1028 333.2 41.3528 334.66 41.8528 335.88C42.3528 337.1 43.0528 338.04 43.9528 338.7C44.8528 339.36 45.8728 339.69 47.0128 339.69ZM62.0857 342L74.1457 321H77.1157L65.0557 342H62.0857ZM75.8857 342.36C74.9457 342.36 74.1057 342.15 73.3657 341.73C72.6257 341.31 72.0357 340.72 71.5957 339.96C71.1557 339.18 70.9357 338.27 70.9357 337.23C70.9357 336.15 71.1557 335.23 71.5957 334.47C72.0357 333.71 72.6257 333.12 73.3657 332.7C74.1057 332.28 74.9357 332.07 75.8557 332.07C76.8157 332.07 77.6557 332.28 78.3757 332.7C79.1157 333.12 79.6957 333.71 80.1157 334.47C80.5557 335.23 80.7757 336.15 80.7757 337.23C80.7757 338.27 80.5557 339.18 80.1157 339.96C79.6957 340.72 79.1157 341.31 78.3757 341.73C77.6357 342.15 76.8057 342.36 75.8857 342.36ZM75.8257 340.14C76.2857 340.14 76.6957 340.03 77.0557 339.81C77.4357 339.59 77.7357 339.27 77.9557 338.85C78.1957 338.41 78.3157 337.86 78.3157 337.2C78.3157 336.54 78.2057 336 77.9857 335.58C77.7657 335.14 77.4657 334.81 77.0857 334.59C76.7257 334.37 76.3157 334.26 75.8557 334.26C75.4357 334.26 75.0357 334.37 74.6557 334.59C74.2757 334.81 73.9657 335.14 73.7257 335.58C73.5057 336 73.3957 336.54 73.3957 337.2C73.3957 337.86 73.5057 338.41 73.7257 338.85C73.9657 339.27 74.2657 339.59 74.6257 339.81C75.0057 340.03 75.4057 340.14 75.8257 340.14ZM63.5257 330.96C62.6057 330.96 61.7757 330.75 61.0357 330.33C60.2957 329.91 59.6957 329.32 59.2357 328.56C58.7957 327.78 58.5757 326.86 58.5757 325.8C58.5757 324.74 58.7957 323.83 59.2357 323.07C59.6957 322.31 60.2957 321.72 61.0357 321.3C61.7957 320.88 62.6357 320.67 63.5557 320.67C64.4757 320.67 65.3057 320.88 66.0457 321.3C66.7857 321.72 67.3657 322.31 67.7857 323.07C68.2257 323.83 68.4457 324.74 68.4457 325.8C68.4457 326.86 68.2257 327.78 67.7857 328.56C67.3657 329.32 66.7757 329.91 66.0157 330.33C65.2757 330.75 64.4457 330.96 63.5257 330.96ZM63.5257 328.74C63.9657 328.74 64.3657 328.63 64.7257 328.41C65.1057 328.19 65.4057 327.87 65.6257 327.45C65.8457 327.01 65.9557 326.46 65.9557 325.8C65.9557 325.14 65.8457 324.59 65.6257 324.15C65.4057 323.71 65.1057 323.38 64.7257 323.16C64.3657 322.94 63.9757 322.83 63.5557 322.83C63.1157 322.83 62.6957 322.94 62.2957 323.16C61.9157 323.38 61.6057 323.71 61.3657 324.15C61.1457 324.59 61.0357 325.14 61.0357 325.8C61.0357 326.44 61.1457 326.98 61.3657 327.42C61.6057 327.86 61.9157 328.19 62.2957 328.41C62.6757 328.63 63.0857 328.74 63.5257 328.74Z" fill="white"/>
<path opacity="0.8" d="M20.45 369L18.378 361.944H19.372L21.052 367.978H20.856L22.676 361.944H23.796L25.616 367.978H25.42L27.1 361.944H28.094L26.022 369H25.028L23.138 362.686H23.334L21.444 369H20.45ZM29.6067 369V361.944H30.5727V369H29.6067ZM30.0967 360.278C29.9007 360.278 29.7327 360.213 29.5927 360.082C29.4527 359.942 29.3827 359.769 29.3827 359.564C29.3827 359.349 29.448 359.181 29.5787 359.06C29.7187 358.929 29.8867 358.864 30.0827 358.864C30.2787 358.864 30.4467 358.929 30.5867 359.06C30.7267 359.181 30.7967 359.349 30.7967 359.564C30.7967 359.769 30.7267 359.942 30.5867 360.082C30.456 360.213 30.2927 360.278 30.0967 360.278ZM35.3809 369C34.9796 369 34.6342 368.939 34.3449 368.818C34.0556 368.687 33.8316 368.477 33.6729 368.188C33.5236 367.889 33.4489 367.483 33.4489 366.97V362.784H32.2169V361.944H33.4489L33.5889 360.306H34.4289V361.958H36.5429V362.784H34.4289V366.97C34.4289 367.437 34.5222 367.754 34.7089 367.922C34.8956 368.081 35.2269 368.16 35.7029 368.16H36.4309V369H35.3809ZM38.0663 369V358.92H39.0463V363.204C39.2889 362.756 39.6249 362.406 40.0543 362.154C40.4836 361.902 40.9549 361.776 41.4683 361.776C42.0003 361.776 42.4623 361.883 42.8543 362.098C43.2556 362.313 43.5636 362.639 43.7783 363.078C44.0023 363.517 44.1143 364.077 44.1143 364.758V369H43.1483V364.87C43.1483 364.114 42.9896 363.554 42.6723 363.19C42.3643 362.817 41.9069 362.63 41.3003 362.63C40.8803 362.63 40.4976 362.733 40.1523 362.938C39.8163 363.143 39.5456 363.442 39.3403 363.834C39.1443 364.217 39.0463 364.693 39.0463 365.262V369H38.0663ZM49.2921 369L52.9041 359.2H53.9121L57.5241 369H56.4881L53.4081 360.488L50.3141 369H49.2921ZM50.9441 366.354L51.2381 365.542H55.5641L55.8581 366.354H50.9441ZM59.0822 369V359.2H60.0622V369H59.0822ZM61.8484 365.304V364.464H67.2944V365.304H61.8484ZM68.992 372.08V361.944H69.888L69.972 363.218C70.1214 362.966 70.3174 362.733 70.56 362.518C70.8027 362.294 71.092 362.117 71.428 361.986C71.7734 361.846 72.1654 361.776 72.604 361.776C73.2854 361.776 73.878 361.939 74.382 362.266C74.8954 362.593 75.292 363.036 75.572 363.596C75.852 364.147 75.992 364.777 75.992 365.486C75.992 366.195 75.8474 366.83 75.558 367.39C75.278 367.941 74.886 368.375 74.382 368.692C73.878 369.009 73.2807 369.168 72.59 369.168C71.9927 369.168 71.4654 369.042 71.008 368.79C70.56 368.529 70.2147 368.165 69.972 367.698V372.08H68.992ZM72.52 368.314C73.0054 368.314 73.43 368.197 73.794 367.964C74.1674 367.731 74.4614 367.404 74.676 366.984C74.8907 366.555 74.998 366.051 74.998 365.472C74.998 364.903 74.8907 364.403 74.676 363.974C74.4614 363.545 74.1674 363.213 73.794 362.98C73.43 362.747 73.0054 362.63 72.52 362.63C72.0347 362.63 71.6007 362.747 71.218 362.98C70.8447 363.213 70.5507 363.545 70.336 363.974C70.1307 364.394 70.028 364.893 70.028 365.472C70.028 366.041 70.1307 366.541 70.336 366.97C70.5507 367.399 70.8447 367.731 71.218 367.964C71.6007 368.197 72.0347 368.314 72.52 368.314ZM80.7817 369.168C80.1377 369.168 79.5544 369.019 79.0317 368.72C78.5184 368.412 78.1124 367.983 77.8137 367.432C77.515 366.872 77.3657 366.223 77.3657 365.486C77.3657 364.721 77.515 364.063 77.8137 363.512C78.1217 362.961 78.537 362.537 79.0597 362.238C79.5824 361.93 80.1657 361.776 80.8097 361.776C81.4817 361.776 82.0744 361.93 82.5877 362.238C83.101 362.537 83.507 362.961 83.8057 363.512C84.1044 364.063 84.2537 364.721 84.2537 365.486C84.2537 366.223 84.0997 366.872 83.7917 367.432C83.493 367.983 83.0824 368.412 82.5597 368.72C82.0464 369.019 81.4537 369.168 80.7817 369.168ZM80.7957 368.328C81.2344 368.328 81.6357 368.221 81.9997 368.006C82.373 367.791 82.6717 367.474 82.8957 367.054C83.129 366.625 83.2457 366.097 83.2457 365.472C83.2457 364.837 83.1337 364.31 82.9097 363.89C82.6857 363.47 82.387 363.157 82.0137 362.952C81.6497 362.737 81.2484 362.63 80.8097 362.63C80.3897 362.63 79.993 362.737 79.6197 362.952C79.2464 363.167 78.943 363.484 78.7097 363.904C78.4857 364.315 78.3737 364.837 78.3737 365.472C78.3737 366.097 78.4857 366.625 78.7097 367.054C78.9337 367.474 79.2277 367.791 79.5917 368.006C79.965 368.221 80.3664 368.328 80.7957 368.328ZM87.1141 369L85.0421 361.944H86.0361L87.7161 367.978H87.5201L89.3401 361.944H90.4601L92.2801 367.978H92.0841L93.7641 361.944H94.7581L92.6861 369H91.6921L89.8021 362.686H89.9981L88.1081 369H87.1141ZM98.8813 369.168C98.2279 369.168 97.6493 369.014 97.1453 368.706C96.6506 368.398 96.2586 367.969 95.9693 367.418C95.6893 366.858 95.5493 366.205 95.5493 365.458C95.5493 364.711 95.6893 364.063 95.9693 363.512C96.2493 362.961 96.6413 362.537 97.1453 362.238C97.6586 361.93 98.2466 361.776 98.9093 361.776C99.5906 361.776 100.165 361.93 100.631 362.238C101.107 362.546 101.467 362.947 101.709 363.442C101.961 363.937 102.087 364.478 102.087 365.066C102.087 365.159 102.087 365.257 102.087 365.36C102.087 365.453 102.083 365.565 102.073 365.696H96.2913V364.87H101.135C101.117 364.151 100.893 363.596 100.463 363.204C100.043 362.812 99.5113 362.616 98.8673 362.616C98.4473 362.616 98.0553 362.714 97.6913 362.91C97.3366 363.097 97.0473 363.377 96.8233 363.75C96.6086 364.114 96.5013 364.576 96.5013 365.136V365.5C96.5013 366.135 96.6133 366.662 96.8373 367.082C97.0613 367.502 97.3553 367.815 97.7193 368.02C98.0926 368.225 98.4799 368.328 98.8813 368.328C99.4133 368.328 99.8519 368.211 100.197 367.978C100.543 367.735 100.79 367.404 100.939 366.984H101.905C101.784 367.395 101.588 367.768 101.317 368.104C101.056 368.44 100.72 368.701 100.309 368.888C99.8986 369.075 99.4226 369.168 98.8813 369.168ZM103.691 369V361.944H104.587L104.657 363.302C104.807 362.975 105.007 362.7 105.259 362.476C105.511 362.252 105.815 362.079 106.169 361.958C106.524 361.837 106.925 361.776 107.373 361.776V362.798H106.995C106.697 362.798 106.407 362.84 106.127 362.924C105.847 362.999 105.6 363.129 105.385 363.316C105.171 363.503 104.998 363.755 104.867 364.072C104.737 364.389 104.671 364.786 104.671 365.262V369H103.691ZM111.473 369.168C110.82 369.168 110.241 369.014 109.737 368.706C109.242 368.398 108.85 367.969 108.561 367.418C108.281 366.858 108.141 366.205 108.141 365.458C108.141 364.711 108.281 364.063 108.561 363.512C108.841 362.961 109.233 362.537 109.737 362.238C110.25 361.93 110.838 361.776 111.501 361.776C112.182 361.776 112.756 361.93 113.223 362.238C113.699 362.546 114.058 362.947 114.301 363.442C114.553 363.937 114.679 364.478 114.679 365.066C114.679 365.159 114.679 365.257 114.679 365.36C114.679 365.453 114.674 365.565 114.665 365.696H108.883V364.87H113.727C113.708 364.151 113.484 363.596 113.055 363.204C112.635 362.812 112.103 362.616 111.459 362.616C111.039 362.616 110.647 362.714 110.283 362.91C109.928 363.097 109.639 363.377 109.415 363.75C109.2 364.114 109.093 364.576 109.093 365.136V365.5C109.093 366.135 109.205 366.662 109.429 367.082C109.653 367.502 109.947 367.815 110.311 368.02C110.684 368.225 111.072 368.328 111.473 368.328C112.005 368.328 112.444 368.211 112.789 367.978C113.134 367.735 113.382 367.404 113.531 366.984H114.497C114.376 367.395 114.18 367.768 113.909 368.104C113.648 368.44 113.312 368.701 112.901 368.888C112.49 369.075 112.014 369.168 111.473 369.168ZM119.363 369.168C118.682 369.168 118.084 369.009 117.571 368.692C117.067 368.365 116.675 367.922 116.395 367.362C116.115 366.802 115.975 366.167 115.975 365.458C115.975 364.749 116.115 364.119 116.395 363.568C116.675 363.008 117.072 362.569 117.585 362.252C118.098 361.935 118.696 361.776 119.377 361.776C119.974 361.776 120.497 361.907 120.945 362.168C121.402 362.42 121.752 362.779 121.995 363.246V358.92H122.975V369H122.079L121.995 367.726C121.846 367.969 121.65 368.202 121.407 368.426C121.174 368.65 120.884 368.832 120.539 368.972C120.203 369.103 119.811 369.168 119.363 369.168ZM119.447 368.314C119.942 368.314 120.371 368.197 120.735 367.964C121.108 367.731 121.398 367.399 121.603 366.97C121.818 366.541 121.925 366.041 121.925 365.472C121.925 364.903 121.818 364.403 121.603 363.974C121.398 363.545 121.108 363.213 120.735 362.98C120.371 362.747 119.942 362.63 119.447 362.63C118.962 362.63 118.532 362.747 118.159 362.98C117.786 363.213 117.492 363.545 117.277 363.974C117.072 364.394 116.969 364.893 116.969 365.472C116.969 366.051 117.076 366.555 117.291 366.984C117.506 367.404 117.8 367.731 118.173 367.964C118.546 368.197 118.971 368.314 119.447 368.314ZM128.82 369V361.944H129.716L129.786 363.302C129.936 362.975 130.136 362.7 130.388 362.476C130.64 362.252 130.944 362.079 131.298 361.958C131.653 361.837 132.054 361.776 132.502 361.776V362.798H132.124C131.826 362.798 131.536 362.84 131.256 362.924C130.976 362.999 130.729 363.129 130.514 363.316C130.3 363.503 130.127 363.755 129.996 364.072C129.866 364.389 129.8 364.786 129.8 365.262V369H128.82ZM136.602 369.168C135.949 369.168 135.37 369.014 134.866 368.706C134.371 368.398 133.979 367.969 133.69 367.418C133.41 366.858 133.27 366.205 133.27 365.458C133.27 364.711 133.41 364.063 133.69 363.512C133.97 362.961 134.362 362.537 134.866 362.238C135.379 361.93 135.967 361.776 136.63 361.776C137.311 361.776 137.885 361.93 138.352 362.238C138.828 362.546 139.187 362.947 139.43 363.442C139.682 363.937 139.808 364.478 139.808 365.066C139.808 365.159 139.808 365.257 139.808 365.36C139.808 365.453 139.803 365.565 139.794 365.696H134.012V364.87H138.856C138.837 364.151 138.613 363.596 138.184 363.204C137.764 362.812 137.232 362.616 136.588 362.616C136.168 362.616 135.776 362.714 135.412 362.91C135.057 363.097 134.768 363.377 134.544 363.75C134.329 364.114 134.222 364.576 134.222 365.136V365.5C134.222 366.135 134.334 366.662 134.558 367.082C134.782 367.502 135.076 367.815 135.44 368.02C135.813 368.225 136.201 368.328 136.602 368.328C137.134 368.328 137.573 368.211 137.918 367.978C138.263 367.735 138.511 367.404 138.66 366.984H139.626C139.505 367.395 139.309 367.768 139.038 368.104C138.777 368.44 138.441 368.701 138.03 368.888C137.619 369.075 137.143 369.168 136.602 369.168ZM143.211 369L140.523 361.944H141.545L143.785 368.048L146.025 361.944H147.033L144.331 369H143.211ZM151.039 369.168C150.386 369.168 149.807 369.014 149.303 368.706C148.809 368.398 148.417 367.969 148.127 367.418C147.847 366.858 147.707 366.205 147.707 365.458C147.707 364.711 147.847 364.063 148.127 363.512C148.407 362.961 148.799 362.537 149.303 362.238C149.817 361.93 150.405 361.776 151.067 361.776C151.749 361.776 152.323 361.93 152.789 362.238C153.265 362.546 153.625 362.947 153.867 363.442C154.119 363.937 154.245 364.478 154.245 365.066C154.245 365.159 154.245 365.257 154.245 365.36C154.245 365.453 154.241 365.565 154.231 365.696H148.449V364.87H153.293C153.275 364.151 153.051 363.596 152.621 363.204C152.201 362.812 151.669 362.616 151.025 362.616C150.605 362.616 150.213 362.714 149.849 362.91C149.495 363.097 149.205 363.377 148.981 363.75C148.767 364.114 148.659 364.576 148.659 365.136V365.5C148.659 366.135 148.771 366.662 148.995 367.082C149.219 367.502 149.513 367.815 149.877 368.02C150.251 368.225 150.638 368.328 151.039 368.328C151.571 368.328 152.01 368.211 152.355 367.978C152.701 367.735 152.948 367.404 153.097 366.984H154.063C153.942 367.395 153.746 367.768 153.475 368.104C153.214 368.44 152.878 368.701 152.467 368.888C152.057 369.075 151.581 369.168 151.039 369.168ZM155.849 369V361.944H156.745L156.801 363.204C157.025 362.756 157.347 362.406 157.767 362.154C158.197 361.902 158.673 361.776 159.195 361.776C159.737 361.776 160.208 361.883 160.609 362.098C161.011 362.313 161.323 362.639 161.547 363.078C161.771 363.507 161.883 364.058 161.883 364.73V369H160.903V364.842C160.903 364.095 160.74 363.54 160.413 363.176C160.087 362.812 159.62 362.63 159.013 362.63C158.603 362.63 158.229 362.733 157.893 362.938C157.567 363.134 157.305 363.423 157.109 363.806C156.923 364.189 156.829 364.66 156.829 365.22V369H155.849ZM166.286 369.168C165.754 369.168 165.283 369.065 164.872 368.86C164.471 368.645 164.158 368.323 163.934 367.894C163.71 367.455 163.598 366.895 163.598 366.214V361.944H164.578V366.102C164.578 366.849 164.741 367.404 165.068 367.768C165.404 368.132 165.866 368.314 166.454 368.314C166.874 368.314 167.247 368.216 167.574 368.02C167.91 367.824 168.171 367.535 168.358 367.152C168.554 366.76 168.652 366.284 168.652 365.724V361.944H169.632V369H168.736L168.68 367.74C168.456 368.197 168.129 368.552 167.7 368.804C167.28 369.047 166.809 369.168 166.286 369.168ZM174.651 369.168C173.997 369.168 173.419 369.014 172.915 368.706C172.42 368.398 172.028 367.969 171.739 367.418C171.459 366.858 171.319 366.205 171.319 365.458C171.319 364.711 171.459 364.063 171.739 363.512C172.019 362.961 172.411 362.537 172.915 362.238C173.428 361.93 174.016 361.776 174.679 361.776C175.36 361.776 175.934 361.93 176.401 362.238C176.877 362.546 177.236 362.947 177.479 363.442C177.731 363.937 177.857 364.478 177.857 365.066C177.857 365.159 177.857 365.257 177.857 365.36C177.857 365.453 177.852 365.565 177.843 365.696H172.061V364.87H176.905C176.886 364.151 176.662 363.596 176.233 363.204C175.813 362.812 175.281 362.616 174.637 362.616C174.217 362.616 173.825 362.714 173.461 362.91C173.106 363.097 172.817 363.377 172.593 363.75C172.378 364.114 172.271 364.576 172.271 365.136V365.5C172.271 366.135 172.383 366.662 172.607 367.082C172.831 367.502 173.125 367.815 173.489 368.02C173.862 368.225 174.249 368.328 174.651 368.328C175.183 368.328 175.621 368.211 175.967 367.978C176.312 367.735 176.559 367.404 176.709 366.984H177.675C177.553 367.395 177.357 367.768 177.087 368.104C176.825 368.44 176.489 368.701 176.079 368.888C175.668 369.075 175.192 369.168 174.651 369.168ZM21.248 388.168C20.6787 388.168 20.2027 388.065 19.82 387.86C19.4467 387.655 19.1667 387.389 18.98 387.062C18.8027 386.735 18.714 386.376 18.714 385.984C18.714 385.499 18.8353 385.088 19.078 384.752C19.33 384.416 19.68 384.164 20.128 383.996C20.576 383.828 21.0987 383.744 21.696 383.744H23.6C23.6 383.287 23.53 382.899 23.39 382.582C23.25 382.265 23.0447 382.027 22.774 381.868C22.5033 381.7 22.1627 381.616 21.752 381.616C21.276 381.616 20.8653 381.737 20.52 381.98C20.1747 382.223 19.96 382.577 19.876 383.044H18.854C18.91 382.549 19.078 382.134 19.358 381.798C19.6473 381.462 20.002 381.21 20.422 381.042C20.842 380.865 21.2853 380.776 21.752 380.776C22.4053 380.776 22.9373 380.902 23.348 381.154C23.7587 381.397 24.0667 381.733 24.272 382.162C24.4773 382.591 24.58 383.086 24.58 383.646V388H23.684L23.628 386.712C23.544 386.908 23.4273 387.095 23.278 387.272C23.138 387.449 22.97 387.603 22.774 387.734C22.5873 387.865 22.368 387.967 22.116 388.042C21.864 388.126 21.5747 388.168 21.248 388.168ZM21.36 387.314C21.7053 387.314 22.0133 387.244 22.284 387.104C22.564 386.955 22.802 386.763 22.998 386.53C23.194 386.297 23.3433 386.035 23.446 385.746C23.5487 385.447 23.6 385.139 23.6 384.822V384.57H21.766C21.2713 384.57 20.8747 384.631 20.576 384.752C20.2773 384.873 20.0627 385.037 19.932 385.242C19.8013 385.447 19.736 385.685 19.736 385.956C19.736 386.227 19.7967 386.465 19.918 386.67C20.0393 386.866 20.2213 387.025 20.464 387.146C20.716 387.258 21.0147 387.314 21.36 387.314ZM26.4315 388V380.944H27.3275L27.3835 382.204C27.6075 381.756 27.9295 381.406 28.3495 381.154C28.7788 380.902 29.2548 380.776 29.7775 380.776C30.3188 380.776 30.7902 380.883 31.1915 381.098C31.5928 381.313 31.9055 381.639 32.1295 382.078C32.3535 382.507 32.4655 383.058 32.4655 383.73V388H31.4855V383.842C31.4855 383.095 31.3222 382.54 30.9955 382.176C30.6688 381.812 30.2022 381.63 29.5955 381.63C29.1848 381.63 28.8115 381.733 28.4755 381.938C28.1488 382.134 27.8875 382.423 27.6915 382.806C27.5048 383.189 27.4115 383.66 27.4115 384.22V388H26.4315ZM37.4002 388.168C36.7188 388.168 36.1215 388.009 35.6082 387.692C35.1042 387.365 34.7122 386.922 34.4322 386.362C34.1522 385.802 34.0122 385.167 34.0122 384.458C34.0122 383.749 34.1522 383.119 34.4322 382.568C34.7122 382.008 35.1088 381.569 35.6222 381.252C36.1355 380.935 36.7328 380.776 37.4142 380.776C38.0115 380.776 38.5342 380.907 38.9822 381.168C39.4395 381.42 39.7895 381.779 40.0322 382.246V377.92H41.0122V388H40.1162L40.0322 386.726C39.8828 386.969 39.6868 387.202 39.4442 387.426C39.2108 387.65 38.9215 387.832 38.5762 387.972C38.2402 388.103 37.8482 388.168 37.4002 388.168ZM37.4842 387.314C37.9788 387.314 38.4082 387.197 38.7722 386.964C39.1455 386.731 39.4348 386.399 39.6402 385.97C39.8548 385.541 39.9622 385.041 39.9622 384.472C39.9622 383.903 39.8548 383.403 39.6402 382.974C39.4348 382.545 39.1455 382.213 38.7722 381.98C38.4082 381.747 37.9788 381.63 37.4842 381.63C36.9988 381.63 36.5695 381.747 36.1962 381.98C35.8228 382.213 35.5288 382.545 35.3142 382.974C35.1088 383.394 35.0062 383.893 35.0062 384.472C35.0062 385.051 35.1135 385.555 35.3282 385.984C35.5428 386.404 35.8368 386.731 36.2102 386.964C36.5835 387.197 37.0082 387.314 37.4842 387.314ZM46.8573 388V377.92H47.8373V388H46.8573ZM52.8481 388.168C52.1947 388.168 51.6161 388.014 51.1121 387.706C50.6174 387.398 50.2254 386.969 49.9361 386.418C49.6561 385.858 49.5161 385.205 49.5161 384.458C49.5161 383.711 49.6561 383.063 49.9361 382.512C50.2161 381.961 50.6081 381.537 51.1121 381.238C51.6254 380.93 52.2134 380.776 52.8761 380.776C53.5574 380.776 54.1314 380.93 54.5981 381.238C55.0741 381.546 55.4334 381.947 55.6761 382.442C55.9281 382.937 56.0541 383.478 56.0541 384.066C56.0541 384.159 56.0541 384.257 56.0541 384.36C56.0541 384.453 56.0494 384.565 56.0401 384.696H50.2581V383.87H55.1021C55.0834 383.151 54.8594 382.596 54.4301 382.204C54.0101 381.812 53.4781 381.616 52.8341 381.616C52.4141 381.616 52.0221 381.714 51.6581 381.91C51.3034 382.097 51.0141 382.377 50.7901 382.75C50.5754 383.114 50.4681 383.576 50.4681 384.136V384.5C50.4681 385.135 50.5801 385.662 50.8041 386.082C51.0281 386.502 51.3221 386.815 51.6861 387.02C52.0594 387.225 52.4467 387.328 52.8481 387.328C53.3801 387.328 53.8187 387.211 54.1641 386.978C54.5094 386.735 54.7567 386.404 54.9061 385.984H55.8721C55.7507 386.395 55.5547 386.768 55.2841 387.104C55.0227 387.44 54.6867 387.701 54.2761 387.888C53.8654 388.075 53.3894 388.168 52.8481 388.168ZM59.9121 388.168C59.3427 388.168 58.8667 388.065 58.4841 387.86C58.1107 387.655 57.8307 387.389 57.6441 387.062C57.4667 386.735 57.3781 386.376 57.3781 385.984C57.3781 385.499 57.4994 385.088 57.7421 384.752C57.9941 384.416 58.3441 384.164 58.7921 383.996C59.2401 383.828 59.7627 383.744 60.3601 383.744H62.2641C62.2641 383.287 62.1941 382.899 62.0541 382.582C61.9141 382.265 61.7087 382.027 61.4381 381.868C61.1674 381.7 60.8267 381.616 60.4161 381.616C59.9401 381.616 59.5294 381.737 59.1841 381.98C58.8387 382.223 58.6241 382.577 58.5401 383.044H57.5181C57.5741 382.549 57.7421 382.134 58.0221 381.798C58.3114 381.462 58.6661 381.21 59.0861 381.042C59.5061 380.865 59.9494 380.776 60.4161 380.776C61.0694 380.776 61.6014 380.902 62.0121 381.154C62.4227 381.397 62.7307 381.733 62.9361 382.162C63.1414 382.591 63.2441 383.086 63.2441 383.646V388H62.3481L62.2921 386.712C62.2081 386.908 62.0914 387.095 61.9421 387.272C61.8021 387.449 61.6341 387.603 61.4381 387.734C61.2514 387.865 61.0321 387.967 60.7801 388.042C60.5281 388.126 60.2387 388.168 59.9121 388.168ZM60.0241 387.314C60.3694 387.314 60.6774 387.244 60.9481 387.104C61.2281 386.955 61.4661 386.763 61.6621 386.53C61.8581 386.297 62.0074 386.035 62.1101 385.746C62.2127 385.447 62.2641 385.139 62.2641 384.822V384.57H60.4301C59.9354 384.57 59.5387 384.631 59.2401 384.752C58.9414 384.873 58.7267 385.037 58.5961 385.242C58.4654 385.447 58.4001 385.685 58.4001 385.956C58.4001 386.227 58.4607 386.465 58.5821 386.67C58.7034 386.866 58.8854 387.025 59.1281 387.146C59.3801 387.258 59.6787 387.314 60.0241 387.314ZM68.1756 388.168C67.4942 388.168 66.8969 388.009 66.3836 387.692C65.8796 387.365 65.4876 386.922 65.2076 386.362C64.9276 385.802 64.7876 385.167 64.7876 384.458C64.7876 383.749 64.9276 383.119 65.2076 382.568C65.4876 382.008 65.8842 381.569 66.3976 381.252C66.9109 380.935 67.5082 380.776 68.1896 380.776C68.7869 380.776 69.3096 380.907 69.7576 381.168C70.2149 381.42 70.5649 381.779 70.8076 382.246V377.92H71.7876V388H70.8916L70.8076 386.726C70.6582 386.969 70.4622 387.202 70.2196 387.426C69.9862 387.65 69.6969 387.832 69.3516 387.972C69.0156 388.103 68.6236 388.168 68.1756 388.168ZM68.2596 387.314C68.7542 387.314 69.1836 387.197 69.5476 386.964C69.9209 386.731 70.2102 386.399 70.4156 385.97C70.6302 385.541 70.7376 385.041 70.7376 384.472C70.7376 383.903 70.6302 383.403 70.4156 382.974C70.2102 382.545 69.9209 382.213 69.5476 381.98C69.1836 381.747 68.7542 381.63 68.2596 381.63C67.7742 381.63 67.3449 381.747 66.9716 381.98C66.5982 382.213 66.3042 382.545 66.0896 382.974C65.8842 383.394 65.7816 383.893 65.7816 384.472C65.7816 385.051 65.8889 385.555 66.1036 385.984C66.3182 386.404 66.6122 386.731 66.9856 386.964C67.3589 387.197 67.7836 387.314 68.2596 387.314ZM79.8867 388.168C79.3173 388.168 78.8413 388.065 78.4587 387.86C78.0853 387.655 77.8053 387.389 77.6187 387.062C77.4413 386.735 77.3527 386.376 77.3527 385.984C77.3527 385.499 77.474 385.088 77.7167 384.752C77.9687 384.416 78.3187 384.164 78.7667 383.996C79.2147 383.828 79.7373 383.744 80.3347 383.744H82.2387C82.2387 383.287 82.1687 382.899 82.0287 382.582C81.8887 382.265 81.6833 382.027 81.4127 381.868C81.142 381.7 80.8013 381.616 80.3907 381.616C79.9147 381.616 79.504 381.737 79.1587 381.98C78.8133 382.223 78.5987 382.577 78.5147 383.044H77.4927C77.5487 382.549 77.7167 382.134 77.9967 381.798C78.286 381.462 78.6407 381.21 79.0607 381.042C79.4807 380.865 79.924 380.776 80.3907 380.776C81.044 380.776 81.576 380.902 81.9867 381.154C82.3973 381.397 82.7053 381.733 82.9107 382.162C83.116 382.591 83.2187 383.086 83.2187 383.646V388H82.3227L82.2667 386.712C82.1827 386.908 82.066 387.095 81.9167 387.272C81.7767 387.449 81.6087 387.603 81.4127 387.734C81.226 387.865 81.0067 387.967 80.7547 388.042C80.5027 388.126 80.2133 388.168 79.8867 388.168ZM79.9987 387.314C80.344 387.314 80.652 387.244 80.9227 387.104C81.2027 386.955 81.4407 386.763 81.6367 386.53C81.8327 386.297 81.982 386.035 82.0847 385.746C82.1873 385.447 82.2387 385.139 82.2387 384.822V384.57H80.4047C79.91 384.57 79.5133 384.631 79.2147 384.752C78.916 384.873 78.7013 385.037 78.5707 385.242C78.44 385.447 78.3747 385.685 78.3747 385.956C78.3747 386.227 78.4353 386.465 78.5567 386.67C78.678 386.866 78.86 387.025 79.1027 387.146C79.3547 387.258 79.6533 387.314 79.9987 387.314ZM85.0702 388V380.944H85.9662L86.0222 382.204C86.2462 381.756 86.5682 381.406 86.9882 381.154C87.4175 380.902 87.8935 380.776 88.4162 380.776C88.9575 380.776 89.4288 380.883 89.8302 381.098C90.2315 381.313 90.5442 381.639 90.7682 382.078C90.9922 382.507 91.1042 383.058 91.1042 383.73V388H90.1242V383.842C90.1242 383.095 89.9608 382.54 89.6342 382.176C89.3075 381.812 88.8408 381.63 88.2342 381.63C87.8235 381.63 87.4502 381.733 87.1142 381.938C86.7875 382.134 86.5262 382.423 86.3302 382.806C86.1435 383.189 86.0502 383.66 86.0502 384.22V388H85.0702ZM95.2128 388.168C94.6435 388.168 94.1675 388.065 93.7848 387.86C93.4115 387.655 93.1315 387.389 92.9448 387.062C92.7675 386.735 92.6788 386.376 92.6788 385.984C92.6788 385.499 92.8002 385.088 93.0428 384.752C93.2948 384.416 93.6448 384.164 94.0928 383.996C94.5408 383.828 95.0635 383.744 95.6608 383.744H97.5648C97.5648 383.287 97.4948 382.899 97.3548 382.582C97.2148 382.265 97.0095 382.027 96.7388 381.868C96.4682 381.7 96.1275 381.616 95.7168 381.616C95.2408 381.616 94.8302 381.737 94.4848 381.98C94.1395 382.223 93.9248 382.577 93.8408 383.044H92.8188C92.8748 382.549 93.0428 382.134 93.3228 381.798C93.6122 381.462 93.9668 381.21 94.3868 381.042C94.8068 380.865 95.2502 380.776 95.7168 380.776C96.3702 380.776 96.9022 380.902 97.3128 381.154C97.7235 381.397 98.0315 381.733 98.2368 382.162C98.4422 382.591 98.5448 383.086 98.5448 383.646V388H97.6488L97.5928 386.712C97.5088 386.908 97.3922 387.095 97.2428 387.272C97.1028 387.449 96.9348 387.603 96.7388 387.734C96.5522 387.865 96.3328 387.967 96.0808 388.042C95.8288 388.126 95.5395 388.168 95.2128 388.168ZM95.3248 387.314C95.6702 387.314 95.9782 387.244 96.2488 387.104C96.5288 386.955 96.7668 386.763 96.9628 386.53C97.1588 386.297 97.3082 386.035 97.4108 385.746C97.5135 385.447 97.5648 385.139 97.5648 384.822V384.57H95.7308C95.2362 384.57 94.8395 384.631 94.5408 384.752C94.2422 384.873 94.0275 385.037 93.8968 385.242C93.7662 385.447 93.7008 385.685 93.7008 385.956C93.7008 386.227 93.7615 386.465 93.8828 386.67C94.0042 386.866 94.1862 387.025 94.4288 387.146C94.6808 387.258 94.9795 387.314 95.3248 387.314ZM100.396 388V377.92H101.376V388H100.396ZM104.091 391.08L105.827 387.216H105.449L102.663 380.944H103.727L106.135 386.544L108.669 380.944H109.677L105.113 391.08H104.091ZM113.131 388.168C112.571 388.168 112.076 388.075 111.647 387.888C111.227 387.701 110.886 387.435 110.625 387.09C110.373 386.735 110.219 386.315 110.163 385.83H111.171C111.227 386.101 111.334 386.348 111.493 386.572C111.661 386.796 111.885 386.978 112.165 387.118C112.445 387.249 112.776 387.314 113.159 387.314C113.514 387.314 113.803 387.263 114.027 387.16C114.26 387.048 114.433 386.903 114.545 386.726C114.666 386.539 114.727 386.334 114.727 386.11C114.727 385.802 114.652 385.564 114.503 385.396C114.363 385.219 114.158 385.088 113.887 385.004C113.616 384.92 113.29 384.841 112.907 384.766C112.59 384.71 112.286 384.635 111.997 384.542C111.708 384.449 111.446 384.327 111.213 384.178C110.989 384.029 110.812 383.842 110.681 383.618C110.55 383.385 110.485 383.114 110.485 382.806C110.485 382.405 110.583 382.055 110.779 381.756C110.984 381.448 111.274 381.21 111.647 381.042C112.02 380.865 112.459 380.776 112.963 380.776C113.682 380.776 114.27 380.958 114.727 381.322C115.184 381.677 115.45 382.199 115.525 382.89H114.545C114.508 382.507 114.349 382.204 114.069 381.98C113.789 381.756 113.411 381.644 112.935 381.644C112.468 381.644 112.109 381.742 111.857 381.938C111.614 382.125 111.493 382.381 111.493 382.708C111.493 382.913 111.558 383.091 111.689 383.24C111.82 383.389 112.011 383.52 112.263 383.632C112.524 383.735 112.842 383.823 113.215 383.898C113.663 383.982 114.074 384.094 114.447 384.234C114.83 384.365 115.138 384.57 115.371 384.85C115.614 385.121 115.735 385.508 115.735 386.012C115.744 386.432 115.642 386.805 115.427 387.132C115.212 387.459 114.909 387.715 114.517 387.902C114.125 388.079 113.663 388.168 113.131 388.168ZM117.613 388V380.944H118.579V388H117.613ZM118.103 379.278C117.907 379.278 117.739 379.213 117.599 379.082C117.459 378.942 117.389 378.769 117.389 378.564C117.389 378.349 117.454 378.181 117.585 378.06C117.725 377.929 117.893 377.864 118.089 377.864C118.285 377.864 118.453 377.929 118.593 378.06C118.733 378.181 118.803 378.349 118.803 378.564C118.803 378.769 118.733 378.942 118.593 379.082C118.462 379.213 118.299 379.278 118.103 379.278ZM123.303 388.168C122.743 388.168 122.248 388.075 121.819 387.888C121.399 387.701 121.058 387.435 120.797 387.09C120.545 386.735 120.391 386.315 120.335 385.83H121.343C121.399 386.101 121.506 386.348 121.665 386.572C121.833 386.796 122.057 386.978 122.337 387.118C122.617 387.249 122.948 387.314 123.331 387.314C123.685 387.314 123.975 387.263 124.199 387.16C124.432 387.048 124.605 386.903 124.717 386.726C124.838 386.539 124.899 386.334 124.899 386.11C124.899 385.802 124.824 385.564 124.675 385.396C124.535 385.219 124.329 385.088 124.059 385.004C123.788 384.92 123.461 384.841 123.079 384.766C122.761 384.71 122.458 384.635 122.169 384.542C121.879 384.449 121.618 384.327 121.385 384.178C121.161 384.029 120.983 383.842 120.853 383.618C120.722 383.385 120.657 383.114 120.657 382.806C120.657 382.405 120.755 382.055 120.951 381.756C121.156 381.448 121.445 381.21 121.819 381.042C122.192 380.865 122.631 380.776 123.135 380.776C123.853 380.776 124.441 380.958 124.899 381.322C125.356 381.677 125.622 382.199 125.697 382.89H124.717C124.679 382.507 124.521 382.204 124.241 381.98C123.961 381.756 123.583 381.644 123.107 381.644C122.64 381.644 122.281 381.742 122.029 381.938C121.786 382.125 121.665 382.381 121.665 382.708C121.665 382.913 121.73 383.091 121.861 383.24C121.991 383.389 122.183 383.52 122.435 383.632C122.696 383.735 123.013 383.823 123.387 383.898C123.835 383.982 124.245 384.094 124.619 384.234C125.001 384.365 125.309 384.57 125.543 384.85C125.785 385.121 125.907 385.508 125.907 386.012C125.916 386.432 125.813 386.805 125.599 387.132C125.384 387.459 125.081 387.715 124.689 387.902C124.297 388.079 123.835 388.168 123.303 388.168ZM127.966 388.07C127.761 388.07 127.588 388 127.448 387.86C127.318 387.72 127.252 387.547 127.252 387.342C127.252 387.137 127.318 386.969 127.448 386.838C127.588 386.698 127.761 386.628 127.966 386.628C128.172 386.628 128.34 386.698 128.47 386.838C128.61 386.969 128.68 387.141 128.68 387.356C128.68 387.552 128.61 387.72 128.47 387.86C128.34 388 128.172 388.07 127.966 388.07Z" fill="white"/>
</g>
<defs>
<clipPath id="clip0_2050_7888">
<rect width="224" height="411" rx="10" fill="white"/>
</clipPath>
</defs>
</svg>
