<svg width="224" height="411" viewBox="0 0 224 411" fill="none" xmlns="http://www.w3.org/2000/svg">
<g clip-path="url(#clip0_2050_7895)">
<rect width="224" height="411" rx="10" fill="#F4F6FF"/>
<rect y="185" width="224" height="226.05" rx="10" fill="#11111C"/>
<path d="M19.248 279V267.8H23.008C23.7973 267.8 24.448 267.928 24.96 268.184C25.472 268.44 25.8507 268.781 26.096 269.208C26.352 269.635 26.48 270.109 26.48 270.632C26.48 271.208 26.352 271.688 26.096 272.072C25.8507 272.456 25.5253 272.749 25.12 272.952C24.7253 273.155 24.3093 273.283 23.872 273.336L24.08 273.176C24.5493 273.187 24.9867 273.315 25.392 273.56C25.7973 273.805 26.1227 274.136 26.368 274.552C26.6133 274.957 26.736 275.421 26.736 275.944C26.736 276.499 26.5973 277.011 26.32 277.48C26.0533 277.939 25.6533 278.307 25.12 278.584C24.5867 278.861 23.92 279 23.12 279H19.248ZM20.368 278.056H23.04C23.8507 278.056 24.4747 277.864 24.912 277.48C25.36 277.096 25.584 276.568 25.584 275.896C25.584 275.224 25.3493 274.691 24.88 274.296C24.4213 273.891 23.792 273.688 22.992 273.688H20.368V278.056ZM20.368 272.76H22.976C23.7333 272.76 24.3147 272.579 24.72 272.216C25.1253 271.853 25.328 271.363 25.328 270.744C25.328 270.147 25.1307 269.667 24.736 269.304C24.3413 268.931 23.7387 268.744 22.928 268.744H20.368V272.76ZM32.2193 279.192C31.4833 279.192 30.8166 279.021 30.2193 278.68C29.6326 278.328 29.1686 277.837 28.8273 277.208C28.4859 276.568 28.3153 275.827 28.3153 274.984C28.3153 274.109 28.4859 273.357 28.8273 272.728C29.1793 272.099 29.6539 271.613 30.2513 271.272C30.8486 270.92 31.5153 270.744 32.2513 270.744C33.0193 270.744 33.6966 270.92 34.2833 271.272C34.8699 271.613 35.3339 272.099 35.6753 272.728C36.0166 273.357 36.1873 274.109 36.1873 274.984C36.1873 275.827 36.0113 276.568 35.6593 277.208C35.3179 277.837 34.8486 278.328 34.2513 278.68C33.6646 279.021 32.9873 279.192 32.2193 279.192ZM32.2352 278.232C32.7366 278.232 33.1953 278.109 33.6113 277.864C34.0379 277.619 34.3793 277.256 34.6353 276.776C34.9019 276.285 35.0353 275.683 35.0353 274.968C35.0353 274.243 34.9073 273.64 34.6513 273.16C34.3953 272.68 34.0539 272.323 33.6273 272.088C33.2113 271.843 32.7526 271.72 32.2513 271.72C31.7713 271.72 31.3179 271.843 30.8913 272.088C30.4646 272.333 30.1179 272.696 29.8513 273.176C29.5953 273.645 29.4673 274.243 29.4673 274.968C29.4673 275.683 29.5953 276.285 29.8513 276.776C30.1073 277.256 30.4433 277.619 30.8593 277.864C31.2859 278.109 31.7446 278.232 32.2352 278.232ZM41.6568 279.192C40.9208 279.192 40.2541 279.021 39.6568 278.68C39.0701 278.328 38.6061 277.837 38.2648 277.208C37.9234 276.568 37.7528 275.827 37.7528 274.984C37.7528 274.109 37.9234 273.357 38.2648 272.728C38.6168 272.099 39.0914 271.613 39.6888 271.272C40.2861 270.92 40.9528 270.744 41.6888 270.744C42.4568 270.744 43.1341 270.92 43.7208 271.272C44.3074 271.613 44.7714 272.099 45.1128 272.728C45.4541 273.357 45.6248 274.109 45.6248 274.984C45.6248 275.827 45.4488 276.568 45.0968 277.208C44.7554 277.837 44.2861 278.328 43.6888 278.68C43.1021 279.021 42.4248 279.192 41.6568 279.192ZM41.6727 278.232C42.1741 278.232 42.6328 278.109 43.0488 277.864C43.4754 277.619 43.8168 277.256 44.0728 276.776C44.3394 276.285 44.4728 275.683 44.4728 274.968C44.4728 274.243 44.3448 273.64 44.0888 273.16C43.8328 272.68 43.4914 272.323 43.0648 272.088C42.6488 271.843 42.1901 271.72 41.6888 271.72C41.2088 271.72 40.7554 271.843 40.3288 272.088C39.9021 272.333 39.5554 272.696 39.2888 273.176C39.0328 273.645 38.9048 274.243 38.9048 274.968C38.9048 275.683 39.0328 276.285 39.2888 276.776C39.5448 277.256 39.8808 277.619 40.2968 277.864C40.7234 278.109 41.1821 278.232 41.6727 278.232ZM50.5023 279.192C49.8623 279.192 49.2969 279.085 48.8063 278.872C48.3263 278.659 47.9369 278.355 47.6383 277.96C47.3503 277.555 47.1743 277.075 47.1103 276.52H48.2623C48.3263 276.829 48.4489 277.112 48.6303 277.368C48.8223 277.624 49.0783 277.832 49.3983 277.992C49.7183 278.141 50.0969 278.216 50.5343 278.216C50.9396 278.216 51.2703 278.157 51.5263 278.04C51.7929 277.912 51.9903 277.747 52.1183 277.544C52.2569 277.331 52.3263 277.096 52.3263 276.84C52.3263 276.488 52.2409 276.216 52.0703 276.024C51.9103 275.821 51.6756 275.672 51.3663 275.576C51.0569 275.48 50.6836 275.389 50.2463 275.304C49.8836 275.24 49.5369 275.155 49.2063 275.048C48.8756 274.941 48.5769 274.803 48.3103 274.632C48.0543 274.461 47.8516 274.248 47.7023 273.992C47.5529 273.725 47.4783 273.416 47.4783 273.064C47.4783 272.605 47.5903 272.205 47.8143 271.864C48.0489 271.512 48.3796 271.24 48.8063 271.048C49.2329 270.845 49.7343 270.744 50.3103 270.744C51.1316 270.744 51.8036 270.952 52.3263 271.368C52.8489 271.773 53.1529 272.371 53.2383 273.16H52.1183C52.0756 272.723 51.8943 272.376 51.5743 272.12C51.2543 271.864 50.8223 271.736 50.2783 271.736C49.7449 271.736 49.3343 271.848 49.0463 272.072C48.7689 272.285 48.6303 272.579 48.6303 272.952C48.6303 273.187 48.7049 273.389 48.8543 273.56C49.0036 273.731 49.2223 273.88 49.5103 274.008C49.8089 274.125 50.1716 274.227 50.5983 274.312C51.1103 274.408 51.5796 274.536 52.0063 274.696C52.4436 274.845 52.7956 275.08 53.0623 275.4C53.3396 275.709 53.4783 276.152 53.4783 276.728C53.4889 277.208 53.3716 277.635 53.1263 278.008C52.8809 278.381 52.5343 278.675 52.0863 278.888C51.6383 279.091 51.1103 279.192 50.5023 279.192ZM58.1295 279C57.6708 279 57.2762 278.931 56.9455 278.792C56.6148 278.643 56.3588 278.403 56.1775 278.072C56.0068 277.731 55.9215 277.267 55.9215 276.68V271.896H54.5135V270.936H55.9215L56.0815 269.064H57.0415V270.952H59.4575V271.896H57.0415V276.68C57.0415 277.213 57.1482 277.576 57.3615 277.768C57.5748 277.949 57.9535 278.04 58.4975 278.04H59.3295V279H58.1295ZM65.7168 279V267.8H69.1727C70.0368 267.8 70.7408 267.944 71.2848 268.232C71.8394 268.52 72.2448 268.909 72.5008 269.4C72.7568 269.88 72.8848 270.429 72.8848 271.048C72.8848 271.645 72.7514 272.195 72.4848 272.696C72.2181 273.187 71.8074 273.581 71.2528 273.88C70.6981 274.168 69.9781 274.312 69.0928 274.312H66.8368V279H65.7168ZM71.6688 279L69.1568 273.96H70.4368L73.0128 279H71.6688ZM66.8368 273.4H69.0928C69.9994 273.4 70.6661 273.181 71.0928 272.744C71.5194 272.307 71.7328 271.741 71.7328 271.048C71.7328 270.333 71.5248 269.773 71.1088 269.368C70.6928 268.952 70.0154 268.744 69.0768 268.744H66.8368V273.4ZM80.0354 279.192C78.9687 279.192 78.03 278.952 77.2194 278.472C76.4087 277.981 75.774 277.304 75.3154 276.44C74.8674 275.565 74.6434 274.552 74.6434 273.4C74.6434 272.259 74.8674 271.256 75.3154 270.392C75.774 269.517 76.4087 268.835 77.2194 268.344C78.03 267.853 78.9687 267.608 80.0354 267.608C81.134 267.608 82.0887 267.853 82.8994 268.344C83.71 268.835 84.334 269.517 84.7714 270.392C85.2194 271.256 85.4434 272.259 85.4434 273.4C85.4434 274.552 85.2194 275.565 84.7714 276.44C84.334 277.304 83.71 277.981 82.8994 278.472C82.0887 278.952 81.134 279.192 80.0354 279.192ZM80.0514 278.216C80.894 278.216 81.6354 278.024 82.2754 277.64C82.9154 277.256 83.4114 276.707 83.7634 275.992C84.1154 275.267 84.2914 274.403 84.2914 273.4C84.2914 272.397 84.1154 271.539 83.7634 270.824C83.4114 270.109 82.9154 269.56 82.2754 269.176C81.6354 268.792 80.894 268.6 80.0514 268.6C79.2087 268.6 78.4674 268.792 77.8274 269.176C77.1874 269.56 76.686 270.109 76.3234 270.824C75.9714 271.539 75.7954 272.397 75.7954 273.4C75.7954 274.403 75.9714 275.267 76.3234 275.992C76.686 276.707 77.1874 277.256 77.8274 277.64C78.4674 278.024 79.2087 278.216 80.0514 278.216ZM87.4824 279V267.8H88.6024V279H87.4824ZM99.498 279.192C99.0287 279.192 98.5967 279.123 98.202 278.984C97.818 278.835 97.482 278.637 97.194 278.392C96.906 278.136 96.6767 277.848 96.506 277.528L96.41 279H95.386V267.48H96.506V272.392C96.7727 271.933 97.1567 271.544 97.658 271.224C98.1593 270.904 98.7727 270.744 99.498 270.744C100.287 270.744 100.975 270.931 101.562 271.304C102.149 271.667 102.597 272.168 102.906 272.808C103.226 273.437 103.386 274.157 103.386 274.968C103.386 275.779 103.226 276.504 102.906 277.144C102.586 277.784 102.133 278.285 101.546 278.648C100.97 279.011 100.287 279.192 99.498 279.192ZM99.418 278.216C99.9833 278.216 100.474 278.083 100.89 277.816C101.306 277.549 101.637 277.171 101.882 276.68C102.127 276.189 102.25 275.619 102.25 274.968C102.25 274.307 102.127 273.736 101.882 273.256C101.637 272.765 101.301 272.387 100.874 272.12C100.458 271.853 99.9727 271.72 99.418 271.72C98.8633 271.72 98.3673 271.853 97.93 272.12C97.5033 272.387 97.1673 272.765 96.922 273.256C96.6873 273.747 96.57 274.317 96.57 274.968C96.57 275.629 96.6873 276.205 96.922 276.696C97.1673 277.176 97.5033 277.549 97.93 277.816C98.3673 278.083 98.8633 278.216 99.418 278.216ZM105.531 282.52L107.515 278.104H107.083L103.899 270.936H105.115L107.867 277.336L110.763 270.936H111.915L106.699 282.52H105.531Z" fill="white"/>
<path d="M27.84 323.36C26.3 323.36 25 323.08 23.94 322.52C22.9 321.94 22.06 321.17 21.42 320.21C20.78 319.23 20.31 318.15 20.01 316.97C19.73 315.77 19.59 314.54 19.59 313.28C19.59 310.96 19.91 308.93 20.55 307.19C21.21 305.45 22.15 304.09 23.37 303.11C24.59 302.13 26.06 301.64 27.78 301.64C29.16 301.64 30.33 301.91 31.29 302.45C32.27 302.97 33.03 303.67 33.57 304.55C34.13 305.43 34.47 306.4 34.59 307.46H31.8C31.62 306.42 31.17 305.62 30.45 305.06C29.75 304.48 28.85 304.19 27.75 304.19C26.77 304.19 25.89 304.5 25.11 305.12C24.33 305.72 23.71 306.64 23.25 307.88C22.81 309.12 22.56 310.69 22.5 312.59C22.5 312.61 22.5 312.64 22.5 312.68C22.5 312.72 22.5 312.76 22.5 312.8C22.8 312.2 23.23 311.65 23.79 311.15C24.35 310.65 25.01 310.26 25.77 309.98C26.55 309.68 27.39 309.53 28.29 309.53C29.47 309.53 30.57 309.81 31.59 310.37C32.63 310.91 33.47 311.69 34.11 312.71C34.75 313.73 35.07 314.92 35.07 316.28C35.07 317.5 34.77 318.65 34.17 319.73C33.59 320.81 32.76 321.69 31.68 322.37C30.6 323.03 29.32 323.36 27.84 323.36ZM27.63 320.75C28.49 320.75 29.25 320.57 29.91 320.21C30.59 319.83 31.12 319.31 31.5 318.65C31.9 317.99 32.1 317.24 32.1 316.4C32.1 315.54 31.9 314.79 31.5 314.15C31.12 313.49 30.59 312.98 29.91 312.62C29.25 312.26 28.49 312.08 27.63 312.08C26.77 312.08 26 312.28 25.32 312.68C24.64 313.06 24.1 313.58 23.7 314.24C23.3 314.88 23.1 315.61 23.1 316.43C23.1 317.27 23.3 318.02 23.7 318.68C24.1 319.32 24.64 319.83 25.32 320.21C26.02 320.57 26.79 320.75 27.63 320.75ZM45.7305 323.36C44.2505 323.36 42.9805 323.1 41.9205 322.58C40.8605 322.04 40.0205 321.32 39.4005 320.42C38.7805 319.5 38.4005 318.47 38.2605 317.33H41.2005C41.4005 318.35 41.9005 319.19 42.7005 319.85C43.5005 320.49 44.5105 320.81 45.7305 320.81C46.6505 320.81 47.4405 320.59 48.1005 320.15C48.7605 319.71 49.2705 319.12 49.6305 318.38C49.9905 317.64 50.1705 316.82 50.1705 315.92C50.1705 314.96 49.9805 314.13 49.6005 313.43C49.2405 312.71 48.7305 312.15 48.0705 311.75C47.4305 311.35 46.6805 311.15 45.8205 311.15C44.7805 311.15 43.8805 311.39 43.1205 311.87C42.3805 312.33 41.8405 312.92 41.5005 313.64H38.5905L40.3305 302H51.6405V304.61H42.6405L41.5305 310.49C42.0105 309.95 42.6505 309.51 43.4505 309.17C44.2705 308.83 45.2005 308.66 46.2405 308.66C47.3005 308.66 48.2505 308.85 49.0905 309.23C49.9305 309.59 50.6405 310.1 51.2205 310.76C51.8205 311.42 52.2705 312.19 52.5705 313.07C52.8905 313.95 53.0505 314.88 53.0505 315.86C53.0505 316.92 52.8805 317.9 52.5405 318.8C52.2005 319.7 51.7105 320.5 51.0705 321.2C50.4505 321.88 49.6805 322.41 48.7605 322.79C47.8605 323.17 46.8505 323.36 45.7305 323.36ZM59.4783 323L71.5383 302H74.5083L62.4483 323H59.4783ZM73.2783 323.36C72.3383 323.36 71.4983 323.15 70.7583 322.73C70.0183 322.31 69.4283 321.72 68.9883 320.96C68.5483 320.18 68.3283 319.27 68.3283 318.23C68.3283 317.15 68.5483 316.23 68.9883 315.47C69.4283 314.71 70.0183 314.12 70.7583 313.7C71.4983 313.28 72.3283 313.07 73.2483 313.07C74.2083 313.07 75.0483 313.28 75.7683 313.7C76.5083 314.12 77.0883 314.71 77.5083 315.47C77.9483 316.23 78.1683 317.15 78.1683 318.23C78.1683 319.27 77.9483 320.18 77.5083 320.96C77.0883 321.72 76.5083 322.31 75.7683 322.73C75.0283 323.15 74.1983 323.36 73.2783 323.36ZM73.2183 321.14C73.6783 321.14 74.0883 321.03 74.4483 320.81C74.8283 320.59 75.1283 320.27 75.3483 319.85C75.5883 319.41 75.7083 318.86 75.7083 318.2C75.7083 317.54 75.5983 317 75.3783 316.58C75.1583 316.14 74.8583 315.81 74.4783 315.59C74.1183 315.37 73.7083 315.26 73.2483 315.26C72.8283 315.26 72.4283 315.37 72.0483 315.59C71.6683 315.81 71.3583 316.14 71.1183 316.58C70.8983 317 70.7883 317.54 70.7883 318.2C70.7883 318.86 70.8983 319.41 71.1183 319.85C71.3583 320.27 71.6583 320.59 72.0183 320.81C72.3983 321.03 72.7983 321.14 73.2183 321.14ZM60.9183 311.96C59.9983 311.96 59.1683 311.75 58.4283 311.33C57.6883 310.91 57.0883 310.32 56.6283 309.56C56.1883 308.78 55.9683 307.86 55.9683 306.8C55.9683 305.74 56.1883 304.83 56.6283 304.07C57.0883 303.31 57.6883 302.72 58.4283 302.3C59.1883 301.88 60.0283 301.67 60.9483 301.67C61.8683 301.67 62.6983 301.88 63.4383 302.3C64.1783 302.72 64.7583 303.31 65.1783 304.07C65.6183 304.83 65.8383 305.74 65.8383 306.8C65.8383 307.86 65.6183 308.78 65.1783 309.56C64.7583 310.32 64.1683 310.91 63.4083 311.33C62.6683 311.75 61.8383 311.96 60.9183 311.96ZM60.9183 309.74C61.3583 309.74 61.7583 309.63 62.1183 309.41C62.4983 309.19 62.7983 308.87 63.0183 308.45C63.2383 308.01 63.3483 307.46 63.3483 306.8C63.3483 306.14 63.2383 305.59 63.0183 305.15C62.7983 304.71 62.4983 304.38 62.1183 304.16C61.7583 303.94 61.3683 303.83 60.9483 303.83C60.5083 303.83 60.0883 303.94 59.6883 304.16C59.3083 304.38 58.9983 304.71 58.7583 305.15C58.5383 305.59 58.4283 306.14 58.4283 306.8C58.4283 307.44 58.5383 307.98 58.7583 308.42C58.9983 308.86 59.3083 309.19 59.6883 309.41C60.0683 309.63 60.4783 309.74 60.9183 309.74Z" fill="white"/>
<path opacity="0.8" d="M21.668 350C21.2667 350 20.9213 349.939 20.632 349.818C20.3427 349.687 20.1187 349.477 19.96 349.188C19.8107 348.889 19.736 348.483 19.736 347.97V343.784H18.504V342.944H19.736L19.876 341.306H20.716V342.958H22.83V343.784H20.716V347.97C20.716 348.437 20.8093 348.754 20.996 348.922C21.1827 349.081 21.514 349.16 21.99 349.16H22.718V350H21.668ZM24.3534 350V339.92H25.3334V344.204C25.576 343.756 25.912 343.406 26.3414 343.154C26.7707 342.902 27.242 342.776 27.7554 342.776C28.2874 342.776 28.7494 342.883 29.1414 343.098C29.5427 343.313 29.8507 343.639 30.0654 344.078C30.2894 344.517 30.4014 345.077 30.4014 345.758V350H29.4354V345.87C29.4354 345.114 29.2767 344.554 28.9594 344.19C28.6514 343.817 28.194 343.63 27.5874 343.63C27.1674 343.63 26.7847 343.733 26.4394 343.938C26.1034 344.143 25.8327 344.442 25.6274 344.834C25.4314 345.217 25.3334 345.693 25.3334 346.262V350H24.3534ZM32.2557 350V342.944H33.1517L33.2217 344.302C33.3711 343.975 33.5717 343.7 33.8237 343.476C34.0757 343.252 34.3791 343.079 34.7337 342.958C35.0884 342.837 35.4897 342.776 35.9377 342.776V343.798H35.5597C35.2611 343.798 34.9717 343.84 34.6917 343.924C34.4117 343.999 34.1644 344.129 33.9497 344.316C33.7351 344.503 33.5624 344.755 33.4317 345.072C33.3011 345.389 33.2357 345.786 33.2357 346.262V350H32.2557ZM40.1215 350.168C39.4775 350.168 38.8942 350.019 38.3715 349.72C37.8582 349.412 37.4522 348.983 37.1535 348.432C36.8549 347.872 36.7055 347.223 36.7055 346.486C36.7055 345.721 36.8549 345.063 37.1535 344.512C37.4615 343.961 37.8769 343.537 38.3995 343.238C38.9222 342.93 39.5055 342.776 40.1495 342.776C40.8215 342.776 41.4142 342.93 41.9275 343.238C42.4409 343.537 42.8469 343.961 43.1455 344.512C43.4442 345.063 43.5935 345.721 43.5935 346.486C43.5935 347.223 43.4395 347.872 43.1315 348.432C42.8329 348.983 42.4222 349.412 41.8995 349.72C41.3862 350.019 40.7935 350.168 40.1215 350.168ZM40.1355 349.328C40.5742 349.328 40.9755 349.221 41.3395 349.006C41.7129 348.791 42.0115 348.474 42.2355 348.054C42.4689 347.625 42.5855 347.097 42.5855 346.472C42.5855 345.837 42.4735 345.31 42.2495 344.89C42.0255 344.47 41.7269 344.157 41.3535 343.952C40.9895 343.737 40.5882 343.63 40.1495 343.63C39.7295 343.63 39.3329 343.737 38.9595 343.952C38.5862 344.167 38.2829 344.484 38.0495 344.904C37.8255 345.315 37.7135 345.837 37.7135 346.472C37.7135 347.097 37.8255 347.625 38.0495 348.054C38.2735 348.474 38.5675 348.791 38.9315 349.006C39.3049 349.221 39.7062 349.328 40.1355 349.328ZM47.8193 350.168C47.2873 350.168 46.816 350.065 46.4053 349.86C46.004 349.645 45.6913 349.323 45.4673 348.894C45.2433 348.455 45.1313 347.895 45.1313 347.214V342.944H46.1113V347.102C46.1113 347.849 46.2747 348.404 46.6013 348.768C46.9373 349.132 47.3993 349.314 47.9873 349.314C48.4073 349.314 48.7807 349.216 49.1073 349.02C49.4433 348.824 49.7047 348.535 49.8913 348.152C50.0873 347.76 50.1853 347.284 50.1853 346.724V342.944H51.1653V350H50.2693L50.2133 348.74C49.9893 349.197 49.6627 349.552 49.2333 349.804C48.8133 350.047 48.342 350.168 47.8193 350.168ZM55.89 353.248C55.2647 353.248 54.7093 353.164 54.224 352.996C53.748 352.828 53.37 352.576 53.09 352.24C52.8193 351.904 52.684 351.489 52.684 350.994C52.684 350.798 52.7167 350.583 52.782 350.35C52.8567 350.126 52.9967 349.897 53.202 349.664C53.4073 349.431 53.6967 349.221 54.07 349.034L54.868 349.384C54.3733 349.617 54.0513 349.869 53.902 350.14C53.7527 350.42 53.678 350.672 53.678 350.896C53.678 351.232 53.7713 351.512 53.958 351.736C54.154 351.96 54.4153 352.128 54.742 352.24C55.078 352.361 55.4607 352.422 55.89 352.422C56.3193 352.422 56.688 352.357 56.996 352.226C57.3133 352.105 57.556 351.927 57.724 351.694C57.892 351.47 57.976 351.209 57.976 350.91C57.976 350.565 57.8407 350.271 57.57 350.028C57.3087 349.795 56.8187 349.659 56.1 349.622C55.5307 349.585 55.0593 349.538 54.686 349.482C54.322 349.417 54.0187 349.342 53.776 349.258C53.5427 349.165 53.3467 349.067 53.188 348.964C53.0387 348.861 52.894 348.749 52.754 348.628V348.306L54.098 347.032L54.994 347.354L53.678 348.53L53.762 348.152C53.8647 348.227 53.9627 348.297 54.056 348.362C54.1587 348.427 54.2893 348.483 54.448 348.53C54.616 348.567 54.8447 348.609 55.134 348.656C55.4327 348.693 55.834 348.731 56.338 348.768C56.982 348.815 57.4953 348.927 57.878 349.104C58.2607 349.281 58.5407 349.519 58.718 349.818C58.8953 350.117 58.984 350.467 58.984 350.868C58.984 351.269 58.872 351.652 58.648 352.016C58.4333 352.38 58.0973 352.674 57.64 352.898C57.192 353.131 56.6087 353.248 55.89 353.248ZM55.876 347.76C55.2787 347.76 54.7747 347.648 54.364 347.424C53.9627 347.2 53.6547 346.901 53.44 346.528C53.2253 346.145 53.118 345.725 53.118 345.268C53.118 344.801 53.2253 344.381 53.44 344.008C53.6547 343.635 53.9673 343.336 54.378 343.112C54.7887 342.888 55.288 342.776 55.876 342.776C56.4733 342.776 56.9727 342.888 57.374 343.112C57.7847 343.336 58.0927 343.635 58.298 344.008C58.5127 344.381 58.62 344.801 58.62 345.268C58.62 345.725 58.5127 346.145 58.298 346.528C58.0927 346.901 57.7847 347.2 57.374 347.424C56.9727 347.648 56.4733 347.76 55.876 347.76ZM55.876 346.92C56.4173 346.92 56.842 346.78 57.15 346.5C57.4673 346.211 57.626 345.8 57.626 345.268C57.626 344.727 57.4673 344.316 57.15 344.036C56.842 343.756 56.4173 343.616 55.876 343.616C55.3347 343.616 54.9007 343.756 54.574 344.036C54.2567 344.316 54.098 344.727 54.098 345.268C54.098 345.8 54.2567 346.211 54.574 346.5C54.8913 346.78 55.3253 346.92 55.876 346.92ZM57.024 343.826L56.674 342.944H59.53V343.742L57.024 343.826ZM60.8846 350V339.92H61.8646V344.204C62.1073 343.756 62.4433 343.406 62.8726 343.154C63.302 342.902 63.7733 342.776 64.2866 342.776C64.8186 342.776 65.2806 342.883 65.6726 343.098C66.074 343.313 66.382 343.639 66.5966 344.078C66.8206 344.517 66.9326 345.077 66.9326 345.758V350H65.9666V345.87C65.9666 345.114 65.808 344.554 65.4906 344.19C65.1826 343.817 64.7253 343.63 64.1186 343.63C63.6986 343.63 63.316 343.733 62.9706 343.938C62.6346 344.143 62.364 344.442 62.1586 344.834C61.9626 345.217 61.8646 345.693 61.8646 346.262V350H60.8846ZM75.7224 350.168C75.0411 350.168 74.4438 350.009 73.9304 349.692C73.4264 349.365 73.0344 348.922 72.7544 348.362C72.4744 347.802 72.3344 347.167 72.3344 346.458C72.3344 345.749 72.4744 345.119 72.7544 344.568C73.0344 344.008 73.4311 343.569 73.9444 343.252C74.4578 342.935 75.0551 342.776 75.7364 342.776C76.3338 342.776 76.8564 342.907 77.3044 343.168C77.7618 343.42 78.1118 343.779 78.3544 344.246V339.92H79.3344V350H78.4384L78.3544 348.726C78.2051 348.969 78.0091 349.202 77.7664 349.426C77.5331 349.65 77.2438 349.832 76.8984 349.972C76.5624 350.103 76.1704 350.168 75.7224 350.168ZM75.8064 349.314C76.3011 349.314 76.7304 349.197 77.0944 348.964C77.4678 348.731 77.7571 348.399 77.9624 347.97C78.1771 347.541 78.2844 347.041 78.2844 346.472C78.2844 345.903 78.1771 345.403 77.9624 344.974C77.7571 344.545 77.4678 344.213 77.0944 343.98C76.7304 343.747 76.3011 343.63 75.8064 343.63C75.3211 343.63 74.8918 343.747 74.5184 343.98C74.1451 344.213 73.8511 344.545 73.6364 344.974C73.4311 345.394 73.3284 345.893 73.3284 346.472C73.3284 347.051 73.4358 347.555 73.6504 347.984C73.8651 348.404 74.1591 348.731 74.5324 348.964C74.9058 349.197 75.3304 349.314 75.8064 349.314ZM83.5781 350.168C83.0087 350.168 82.5327 350.065 82.1501 349.86C81.7767 349.655 81.4967 349.389 81.3101 349.062C81.1327 348.735 81.0441 348.376 81.0441 347.984C81.0441 347.499 81.1654 347.088 81.4081 346.752C81.6601 346.416 82.0101 346.164 82.4581 345.996C82.9061 345.828 83.4287 345.744 84.0261 345.744H85.9301C85.9301 345.287 85.8601 344.899 85.7201 344.582C85.5801 344.265 85.3747 344.027 85.1041 343.868C84.8334 343.7 84.4927 343.616 84.0821 343.616C83.6061 343.616 83.1954 343.737 82.8501 343.98C82.5047 344.223 82.2901 344.577 82.2061 345.044H81.1841C81.2401 344.549 81.4081 344.134 81.6881 343.798C81.9774 343.462 82.3321 343.21 82.7521 343.042C83.1721 342.865 83.6154 342.776 84.0821 342.776C84.7354 342.776 85.2674 342.902 85.6781 343.154C86.0887 343.397 86.3967 343.733 86.6021 344.162C86.8074 344.591 86.9101 345.086 86.9101 345.646V350H86.0141L85.9581 348.712C85.8741 348.908 85.7574 349.095 85.6081 349.272C85.4681 349.449 85.3001 349.603 85.1041 349.734C84.9174 349.865 84.6981 349.967 84.4461 350.042C84.1941 350.126 83.9047 350.168 83.5781 350.168ZM83.6901 349.314C84.0354 349.314 84.3434 349.244 84.6141 349.104C84.8941 348.955 85.1321 348.763 85.3281 348.53C85.5241 348.297 85.6734 348.035 85.7761 347.746C85.8787 347.447 85.9301 347.139 85.9301 346.822V346.57H84.0961C83.6014 346.57 83.2047 346.631 82.9061 346.752C82.6074 346.873 82.3927 347.037 82.2621 347.242C82.1314 347.447 82.0661 347.685 82.0661 347.956C82.0661 348.227 82.1267 348.465 82.2481 348.67C82.3694 348.866 82.5514 349.025 82.7941 349.146C83.0461 349.258 83.3447 349.314 83.6901 349.314ZM91.2168 350C90.8155 350 90.4702 349.939 90.1808 349.818C89.8915 349.687 89.6675 349.477 89.5088 349.188C89.3595 348.889 89.2848 348.483 89.2848 347.97V343.784H88.0528V342.944H89.2848L89.4248 341.306H90.2648V342.958H92.3788V343.784H90.2648V347.97C90.2648 348.437 90.3582 348.754 90.5448 348.922C90.7315 349.081 91.0628 349.16 91.5388 349.16H92.2668V350H91.2168ZM96.1562 350.168C95.5869 350.168 95.1109 350.065 94.7282 349.86C94.3549 349.655 94.0749 349.389 93.8882 349.062C93.7109 348.735 93.6222 348.376 93.6222 347.984C93.6222 347.499 93.7435 347.088 93.9862 346.752C94.2382 346.416 94.5882 346.164 95.0362 345.996C95.4842 345.828 96.0069 345.744 96.6042 345.744H98.5082C98.5082 345.287 98.4382 344.899 98.2982 344.582C98.1582 344.265 97.9529 344.027 97.6822 343.868C97.4115 343.7 97.0709 343.616 96.6602 343.616C96.1842 343.616 95.7735 343.737 95.4282 343.98C95.0829 344.223 94.8682 344.577 94.7842 345.044H93.7622C93.8182 344.549 93.9862 344.134 94.2662 343.798C94.5555 343.462 94.9102 343.21 95.3302 343.042C95.7502 342.865 96.1935 342.776 96.6602 342.776C97.3135 342.776 97.8455 342.902 98.2562 343.154C98.6669 343.397 98.9749 343.733 99.1802 344.162C99.3855 344.591 99.4882 345.086 99.4882 345.646V350H98.5922L98.5362 348.712C98.4522 348.908 98.3355 349.095 98.1862 349.272C98.0462 349.449 97.8782 349.603 97.6822 349.734C97.4955 349.865 97.2762 349.967 97.0242 350.042C96.7722 350.126 96.4829 350.168 96.1562 350.168ZM96.2682 349.314C96.6135 349.314 96.9215 349.244 97.1922 349.104C97.4722 348.955 97.7102 348.763 97.9062 348.53C98.1022 348.297 98.2515 348.035 98.3542 347.746C98.4569 347.447 98.5082 347.139 98.5082 346.822V346.57H96.6742C96.1795 346.57 95.7829 346.631 95.4842 346.752C95.1855 346.873 94.9709 347.037 94.8402 347.242C94.7095 347.447 94.6442 347.685 94.6442 347.956C94.6442 348.227 94.7049 348.465 94.8262 348.67C94.9475 348.866 95.1295 349.025 95.3722 349.146C95.6242 349.258 95.9229 349.314 96.2682 349.314ZM101.046 346.304V345.464H106.492V346.304H101.046ZM111.787 350.168C111.377 350.168 110.999 350.107 110.653 349.986C110.317 349.855 110.023 349.683 109.771 349.468C109.519 349.244 109.319 348.992 109.169 348.712L109.085 350H108.189V339.92H109.169V344.218C109.403 343.817 109.739 343.476 110.177 343.196C110.616 342.916 111.153 342.776 111.787 342.776C112.478 342.776 113.08 342.939 113.593 343.266C114.107 343.583 114.499 344.022 114.769 344.582C115.049 345.133 115.189 345.763 115.189 346.472C115.189 347.181 115.049 347.816 114.769 348.376C114.489 348.936 114.093 349.375 113.579 349.692C113.075 350.009 112.478 350.168 111.787 350.168ZM111.717 349.314C112.212 349.314 112.641 349.197 113.005 348.964C113.369 348.731 113.659 348.399 113.873 347.97C114.088 347.541 114.195 347.041 114.195 346.472C114.195 345.893 114.088 345.394 113.873 344.974C113.659 344.545 113.365 344.213 112.991 343.98C112.627 343.747 112.203 343.63 111.717 343.63C111.232 343.63 110.798 343.747 110.415 343.98C110.042 344.213 109.748 344.545 109.533 344.974C109.328 345.403 109.225 345.903 109.225 346.472C109.225 347.051 109.328 347.555 109.533 347.984C109.748 348.404 110.042 348.731 110.415 348.964C110.798 349.197 111.232 349.314 111.717 349.314ZM119.125 350.168C118.556 350.168 118.08 350.065 117.697 349.86C117.324 349.655 117.044 349.389 116.857 349.062C116.68 348.735 116.591 348.376 116.591 347.984C116.591 347.499 116.712 347.088 116.955 346.752C117.207 346.416 117.557 346.164 118.005 345.996C118.453 345.828 118.976 345.744 119.573 345.744H121.477C121.477 345.287 121.407 344.899 121.267 344.582C121.127 344.265 120.922 344.027 120.651 343.868C120.38 343.7 120.04 343.616 119.629 343.616C119.153 343.616 118.742 343.737 118.397 343.98C118.052 344.223 117.837 344.577 117.753 345.044H116.731C116.787 344.549 116.955 344.134 117.235 343.798C117.524 343.462 117.879 343.21 118.299 343.042C118.719 342.865 119.162 342.776 119.629 342.776C120.282 342.776 120.814 342.902 121.225 343.154C121.636 343.397 121.944 343.733 122.149 344.162C122.354 344.591 122.457 345.086 122.457 345.646V350H121.561L121.505 348.712C121.421 348.908 121.304 349.095 121.155 349.272C121.015 349.449 120.847 349.603 120.651 349.734C120.464 349.865 120.245 349.967 119.993 350.042C119.741 350.126 119.452 350.168 119.125 350.168ZM119.237 349.314C119.582 349.314 119.89 349.244 120.161 349.104C120.441 348.955 120.679 348.763 120.875 348.53C121.071 348.297 121.22 348.035 121.323 347.746C121.426 347.447 121.477 347.139 121.477 346.822V346.57H119.643C119.148 346.57 118.752 346.631 118.453 346.752C118.154 346.873 117.94 347.037 117.809 347.242C117.678 347.447 117.613 347.685 117.613 347.956C117.613 348.227 117.674 348.465 117.795 348.67C117.916 348.866 118.098 349.025 118.341 349.146C118.593 349.258 118.892 349.314 119.237 349.314ZM127.416 350.168C126.763 350.168 126.18 350.014 125.666 349.706C125.153 349.398 124.747 348.969 124.448 348.418C124.15 347.858 124 347.214 124 346.486C124 345.73 124.15 345.081 124.448 344.54C124.747 343.989 125.153 343.56 125.666 343.252C126.189 342.935 126.772 342.776 127.416 342.776C128.238 342.776 128.919 342.991 129.46 343.42C130.011 343.84 130.361 344.4 130.51 345.1H129.53C129.428 344.633 129.18 344.274 128.788 344.022C128.406 343.761 127.944 343.63 127.402 343.63C126.982 343.63 126.59 343.737 126.226 343.952C125.862 344.157 125.568 344.47 125.344 344.89C125.12 345.31 125.008 345.842 125.008 346.486C125.008 346.962 125.074 347.377 125.204 347.732C125.335 348.087 125.512 348.385 125.736 348.628C125.96 348.861 126.217 349.039 126.506 349.16C126.796 349.281 127.094 349.342 127.402 349.342C127.757 349.342 128.079 349.286 128.368 349.174C128.667 349.053 128.919 348.88 129.124 348.656C129.33 348.432 129.465 348.161 129.53 347.844H130.51C130.37 348.525 130.025 349.085 129.474 349.524C128.924 349.953 128.238 350.168 127.416 350.168ZM136.467 350L133.009 346.136L136.173 342.944H137.391L133.877 346.458L133.891 345.8L137.727 350H136.467ZM132.197 350V339.92H133.177V350H132.197ZM141.538 350.168C140.884 350.168 140.306 350.014 139.802 349.706C139.307 349.398 138.915 348.969 138.626 348.418C138.346 347.858 138.206 347.205 138.206 346.458C138.206 345.711 138.346 345.063 138.626 344.512C138.906 343.961 139.298 343.537 139.802 343.238C140.315 342.93 140.903 342.776 141.566 342.776C142.247 342.776 142.821 342.93 143.288 343.238C143.764 343.546 144.123 343.947 144.366 344.442C144.618 344.937 144.744 345.478 144.744 346.066C144.744 346.159 144.744 346.257 144.744 346.36C144.744 346.453 144.739 346.565 144.73 346.696H138.948V345.87H143.792C143.773 345.151 143.549 344.596 143.12 344.204C142.7 343.812 142.168 343.616 141.524 343.616C141.104 343.616 140.712 343.714 140.348 343.91C139.993 344.097 139.704 344.377 139.48 344.75C139.265 345.114 139.158 345.576 139.158 346.136V346.5C139.158 347.135 139.27 347.662 139.494 348.082C139.718 348.502 140.012 348.815 140.376 349.02C140.749 349.225 141.136 349.328 141.538 349.328C142.07 349.328 142.508 349.211 142.854 348.978C143.199 348.735 143.446 348.404 143.596 347.984H144.562C144.44 348.395 144.244 348.768 143.974 349.104C143.712 349.44 143.376 349.701 142.966 349.888C142.555 350.075 142.079 350.168 141.538 350.168ZM149.428 350.168C148.746 350.168 148.149 350.009 147.636 349.692C147.132 349.365 146.74 348.922 146.46 348.362C146.18 347.802 146.04 347.167 146.04 346.458C146.04 345.749 146.18 345.119 146.46 344.568C146.74 344.008 147.136 343.569 147.65 343.252C148.163 342.935 148.76 342.776 149.442 342.776C150.039 342.776 150.562 342.907 151.01 343.168C151.467 343.42 151.817 343.779 152.06 344.246V339.92H153.04V350H152.144L152.06 348.726C151.91 348.969 151.714 349.202 151.472 349.426C151.238 349.65 150.949 349.832 150.604 349.972C150.268 350.103 149.876 350.168 149.428 350.168ZM149.512 349.314C150.006 349.314 150.436 349.197 150.8 348.964C151.173 348.731 151.462 348.399 151.668 347.97C151.882 347.541 151.99 347.041 151.99 346.472C151.99 345.903 151.882 345.403 151.668 344.974C151.462 344.545 151.173 344.213 150.8 343.98C150.436 343.747 150.006 343.63 149.512 343.63C149.026 343.63 148.597 343.747 148.224 343.98C147.85 344.213 147.556 344.545 147.342 344.974C147.136 345.394 147.034 345.893 147.034 346.472C147.034 347.051 147.141 347.555 147.356 347.984C147.57 348.404 147.864 348.731 148.238 348.964C148.611 349.197 149.036 349.314 149.512 349.314ZM22.074 369.168C21.3927 369.168 20.7953 369.009 20.282 368.692C19.778 368.365 19.386 367.922 19.106 367.362C18.826 366.802 18.686 366.167 18.686 365.458C18.686 364.749 18.826 364.119 19.106 363.568C19.386 363.008 19.7827 362.569 20.296 362.252C20.8093 361.935 21.4067 361.776 22.088 361.776C22.6853 361.776 23.208 361.907 23.656 362.168C24.1133 362.42 24.4633 362.779 24.706 363.246V358.92H25.686V369H24.79L24.706 367.726C24.5567 367.969 24.3607 368.202 24.118 368.426C23.8847 368.65 23.5953 368.832 23.25 368.972C22.914 369.103 22.522 369.168 22.074 369.168ZM22.158 368.314C22.6527 368.314 23.082 368.197 23.446 367.964C23.8193 367.731 24.1087 367.399 24.314 366.97C24.5287 366.541 24.636 366.041 24.636 365.472C24.636 364.903 24.5287 364.403 24.314 363.974C24.1087 363.545 23.8193 363.213 23.446 362.98C23.082 362.747 22.6527 362.63 22.158 362.63C21.6727 362.63 21.2433 362.747 20.87 362.98C20.4967 363.213 20.2027 363.545 19.988 363.974C19.7827 364.394 19.68 364.893 19.68 365.472C19.68 366.051 19.7873 366.555 20.002 366.984C20.2167 367.404 20.5107 367.731 20.884 367.964C21.2573 368.197 21.682 368.314 22.158 368.314ZM30.6996 369.168C30.0463 369.168 29.4676 369.014 28.9636 368.706C28.469 368.398 28.077 367.969 27.7876 367.418C27.5076 366.858 27.3676 366.205 27.3676 365.458C27.3676 364.711 27.5076 364.063 27.7876 363.512C28.0676 362.961 28.4596 362.537 28.9636 362.238C29.477 361.93 30.065 361.776 30.7276 361.776C31.409 361.776 31.983 361.93 32.4496 362.238C32.9256 362.546 33.285 362.947 33.5276 363.442C33.7796 363.937 33.9056 364.478 33.9056 365.066C33.9056 365.159 33.9056 365.257 33.9056 365.36C33.9056 365.453 33.901 365.565 33.8916 365.696H28.1096V364.87H32.9536C32.935 364.151 32.711 363.596 32.2816 363.204C31.8616 362.812 31.3296 362.616 30.6856 362.616C30.2656 362.616 29.8736 362.714 29.5096 362.91C29.155 363.097 28.8656 363.377 28.6416 363.75C28.427 364.114 28.3196 364.576 28.3196 365.136V365.5C28.3196 366.135 28.4316 366.662 28.6556 367.082C28.8796 367.502 29.1736 367.815 29.5376 368.02C29.911 368.225 30.2983 368.328 30.6996 368.328C31.2316 368.328 31.6703 368.211 32.0156 367.978C32.361 367.735 32.6083 367.404 32.7576 366.984H33.7236C33.6023 367.395 33.4063 367.768 33.1356 368.104C32.8743 368.44 32.5383 368.701 32.1276 368.888C31.717 369.075 31.241 369.168 30.6996 369.168ZM38.6176 369.168C37.9643 369.168 37.381 369.014 36.8676 368.706C36.3543 368.398 35.9483 367.969 35.6496 367.418C35.351 366.858 35.2016 366.214 35.2016 365.486C35.2016 364.73 35.351 364.081 35.6496 363.54C35.9483 362.989 36.3543 362.56 36.8676 362.252C37.3903 361.935 37.9736 361.776 38.6176 361.776C39.439 361.776 40.1203 361.991 40.6616 362.42C41.2123 362.84 41.5623 363.4 41.7116 364.1H40.7316C40.629 363.633 40.3816 363.274 39.9896 363.022C39.607 362.761 39.145 362.63 38.6036 362.63C38.1836 362.63 37.7916 362.737 37.4276 362.952C37.0636 363.157 36.7696 363.47 36.5456 363.89C36.3216 364.31 36.2096 364.842 36.2096 365.486C36.2096 365.962 36.275 366.377 36.4056 366.732C36.5363 367.087 36.7136 367.385 36.9376 367.628C37.1616 367.861 37.4183 368.039 37.7076 368.16C37.997 368.281 38.2956 368.342 38.6036 368.342C38.9583 368.342 39.2803 368.286 39.5696 368.174C39.8683 368.053 40.1203 367.88 40.3256 367.656C40.531 367.432 40.6663 367.161 40.7316 366.844H41.7116C41.5716 367.525 41.2263 368.085 40.6756 368.524C40.125 368.953 39.439 369.168 38.6176 369.168ZM43.5383 369V361.944H44.5043V369H43.5383ZM44.0283 360.278C43.8323 360.278 43.6643 360.213 43.5243 360.082C43.3843 359.942 43.3143 359.769 43.3143 359.564C43.3143 359.349 43.3796 359.181 43.5103 359.06C43.6503 358.929 43.8183 358.864 44.0143 358.864C44.2103 358.864 44.3783 358.929 44.5183 359.06C44.6583 359.181 44.7283 359.349 44.7283 359.564C44.7283 359.769 44.6583 359.942 44.5183 360.082C44.3876 360.213 44.2243 360.278 44.0283 360.278ZM49.2285 369.168C48.6685 369.168 48.1739 369.075 47.7445 368.888C47.3245 368.701 46.9839 368.435 46.7225 368.09C46.4705 367.735 46.3165 367.315 46.2605 366.83H47.2685C47.3245 367.101 47.4319 367.348 47.5905 367.572C47.7585 367.796 47.9825 367.978 48.2625 368.118C48.5425 368.249 48.8739 368.314 49.2565 368.314C49.6112 368.314 49.9005 368.263 50.1245 368.16C50.3579 368.048 50.5305 367.903 50.6425 367.726C50.7639 367.539 50.8245 367.334 50.8245 367.11C50.8245 366.802 50.7499 366.564 50.6005 366.396C50.4605 366.219 50.2552 366.088 49.9845 366.004C49.7139 365.92 49.3872 365.841 49.0045 365.766C48.6872 365.71 48.3839 365.635 48.0945 365.542C47.8052 365.449 47.5439 365.327 47.3105 365.178C47.0865 365.029 46.9092 364.842 46.7785 364.618C46.6479 364.385 46.5825 364.114 46.5825 363.806C46.5825 363.405 46.6805 363.055 46.8765 362.756C47.0819 362.448 47.3712 362.21 47.7445 362.042C48.1179 361.865 48.5565 361.776 49.0605 361.776C49.7792 361.776 50.3672 361.958 50.8245 362.322C51.2819 362.677 51.5479 363.199 51.6225 363.89H50.6425C50.6052 363.507 50.4465 363.204 50.1665 362.98C49.8865 362.756 49.5085 362.644 49.0325 362.644C48.5659 362.644 48.2065 362.742 47.9545 362.938C47.7119 363.125 47.5905 363.381 47.5905 363.708C47.5905 363.913 47.6559 364.091 47.7865 364.24C47.9172 364.389 48.1085 364.52 48.3605 364.632C48.6219 364.735 48.9392 364.823 49.3125 364.898C49.7605 364.982 50.1712 365.094 50.5445 365.234C50.9272 365.365 51.2352 365.57 51.4685 365.85C51.7112 366.121 51.8325 366.508 51.8325 367.012C51.8419 367.432 51.7392 367.805 51.5245 368.132C51.3099 368.459 51.0065 368.715 50.6145 368.902C50.2225 369.079 49.7605 369.168 49.2285 369.168ZM53.7102 369V361.944H54.6762V369H53.7102ZM54.2002 360.278C54.0042 360.278 53.8362 360.213 53.6962 360.082C53.5562 359.942 53.4862 359.769 53.4862 359.564C53.4862 359.349 53.5515 359.181 53.6822 359.06C53.8222 358.929 53.9902 358.864 54.1862 358.864C54.3822 358.864 54.5502 358.929 54.6902 359.06C54.8302 359.181 54.9002 359.349 54.9002 359.564C54.9002 359.769 54.8302 359.942 54.6902 360.082C54.5595 360.213 54.3962 360.278 54.2002 360.278ZM59.9184 369.168C59.2744 369.168 58.6911 369.019 58.1684 368.72C57.6551 368.412 57.2491 367.983 56.9504 367.432C56.6517 366.872 56.5024 366.223 56.5024 365.486C56.5024 364.721 56.6517 364.063 56.9504 363.512C57.2584 362.961 57.6737 362.537 58.1964 362.238C58.7191 361.93 59.3024 361.776 59.9464 361.776C60.6184 361.776 61.2111 361.93 61.7244 362.238C62.2377 362.537 62.6437 362.961 62.9424 363.512C63.2411 364.063 63.3904 364.721 63.3904 365.486C63.3904 366.223 63.2364 366.872 62.9284 367.432C62.6297 367.983 62.2191 368.412 61.6964 368.72C61.1831 369.019 60.5904 369.168 59.9184 369.168ZM59.9324 368.328C60.3711 368.328 60.7724 368.221 61.1364 368.006C61.5097 367.791 61.8084 367.474 62.0324 367.054C62.2657 366.625 62.3824 366.097 62.3824 365.472C62.3824 364.837 62.2704 364.31 62.0464 363.89C61.8224 363.47 61.5237 363.157 61.1504 362.952C60.7864 362.737 60.3851 362.63 59.9464 362.63C59.5264 362.63 59.1297 362.737 58.7564 362.952C58.3831 363.167 58.0797 363.484 57.8464 363.904C57.6224 364.315 57.5104 364.837 57.5104 365.472C57.5104 366.097 57.6224 366.625 57.8464 367.054C58.0704 367.474 58.3644 367.791 58.7284 368.006C59.1017 368.221 59.5031 368.328 59.9324 368.328ZM65.0682 369V361.944H65.9642L66.0202 363.204C66.2442 362.756 66.5662 362.406 66.9862 362.154C67.4156 361.902 67.8916 361.776 68.4142 361.776C68.9556 361.776 69.4269 361.883 69.8282 362.098C70.2296 362.313 70.5422 362.639 70.7662 363.078C70.9902 363.507 71.1022 364.058 71.1022 364.73V369H70.1222V364.842C70.1222 364.095 69.9589 363.54 69.6322 363.176C69.3056 362.812 68.8389 362.63 68.2322 362.63C67.8216 362.63 67.4482 362.733 67.1122 362.938C66.7856 363.134 66.5242 363.423 66.3282 363.806C66.1416 364.189 66.0482 364.66 66.0482 365.22V369H65.0682ZM75.5469 369.168C74.9869 369.168 74.4922 369.075 74.0629 368.888C73.6429 368.701 73.3022 368.435 73.0409 368.09C72.7889 367.735 72.6349 367.315 72.5789 366.83H73.5869C73.6429 367.101 73.7502 367.348 73.9089 367.572C74.0769 367.796 74.3009 367.978 74.5809 368.118C74.8609 368.249 75.1922 368.314 75.5749 368.314C75.9296 368.314 76.2189 368.263 76.4429 368.16C76.6762 368.048 76.8489 367.903 76.9609 367.726C77.0822 367.539 77.1429 367.334 77.1429 367.11C77.1429 366.802 77.0682 366.564 76.9189 366.396C76.7789 366.219 76.5736 366.088 76.3029 366.004C76.0322 365.92 75.7056 365.841 75.3229 365.766C75.0056 365.71 74.7022 365.635 74.4129 365.542C74.1236 365.449 73.8622 365.327 73.6289 365.178C73.4049 365.029 73.2276 364.842 73.0969 364.618C72.9662 364.385 72.9009 364.114 72.9009 363.806C72.9009 363.405 72.9989 363.055 73.1949 362.756C73.4002 362.448 73.6896 362.21 74.0629 362.042C74.4362 361.865 74.8749 361.776 75.3789 361.776C76.0976 361.776 76.6856 361.958 77.1429 362.322C77.6002 362.677 77.8662 363.199 77.9409 363.89H76.9609C76.9236 363.507 76.7649 363.204 76.4849 362.98C76.2049 362.756 75.8269 362.644 75.3509 362.644C74.8842 362.644 74.5249 362.742 74.2729 362.938C74.0302 363.125 73.9089 363.381 73.9089 363.708C73.9089 363.913 73.9742 364.091 74.1049 364.24C74.2356 364.389 74.4269 364.52 74.6789 364.632C74.9402 364.735 75.2576 364.823 75.6309 364.898C76.0789 364.982 76.4896 365.094 76.8629 365.234C77.2456 365.365 77.5536 365.57 77.7869 365.85C78.0296 366.121 78.1509 366.508 78.1509 367.012C78.1602 367.432 78.0576 367.805 77.8429 368.132C77.6282 368.459 77.3249 368.715 76.9329 368.902C76.5409 369.079 76.0789 369.168 75.5469 369.168ZM85.998 369.168C85.4287 369.168 84.9527 369.065 84.57 368.86C84.1967 368.655 83.9167 368.389 83.73 368.062C83.5527 367.735 83.464 367.376 83.464 366.984C83.464 366.499 83.5853 366.088 83.828 365.752C84.08 365.416 84.43 365.164 84.878 364.996C85.326 364.828 85.8487 364.744 86.446 364.744H88.35C88.35 364.287 88.28 363.899 88.14 363.582C88 363.265 87.7947 363.027 87.524 362.868C87.2533 362.7 86.9127 362.616 86.502 362.616C86.026 362.616 85.6153 362.737 85.27 362.98C84.9247 363.223 84.71 363.577 84.626 364.044H83.604C83.66 363.549 83.828 363.134 84.108 362.798C84.3973 362.462 84.752 362.21 85.172 362.042C85.592 361.865 86.0353 361.776 86.502 361.776C87.1553 361.776 87.6873 361.902 88.098 362.154C88.5087 362.397 88.8167 362.733 89.022 363.162C89.2273 363.591 89.33 364.086 89.33 364.646V369H88.434L88.378 367.712C88.294 367.908 88.1773 368.095 88.028 368.272C87.888 368.449 87.72 368.603 87.524 368.734C87.3373 368.865 87.118 368.967 86.866 369.042C86.614 369.126 86.3247 369.168 85.998 369.168ZM86.11 368.314C86.4553 368.314 86.7633 368.244 87.034 368.104C87.314 367.955 87.552 367.763 87.748 367.53C87.944 367.297 88.0933 367.035 88.196 366.746C88.2987 366.447 88.35 366.139 88.35 365.822V365.57H86.516C86.0213 365.57 85.6247 365.631 85.326 365.752C85.0273 365.873 84.8127 366.037 84.682 366.242C84.5513 366.447 84.486 366.685 84.486 366.956C84.486 367.227 84.5467 367.465 84.668 367.67C84.7893 367.866 84.9713 368.025 85.214 368.146C85.466 368.258 85.7647 368.314 86.11 368.314ZM91.1815 369V361.944H92.0775L92.1335 363.204C92.3575 362.756 92.6795 362.406 93.0995 362.154C93.5288 361.902 94.0048 361.776 94.5275 361.776C95.0688 361.776 95.5402 361.883 95.9415 362.098C96.3428 362.313 96.6555 362.639 96.8795 363.078C97.1035 363.507 97.2155 364.058 97.2155 364.73V369H96.2355V364.842C96.2355 364.095 96.0722 363.54 95.7455 363.176C95.4188 362.812 94.9522 362.63 94.3455 362.63C93.9348 362.63 93.5615 362.733 93.2255 362.938C92.8988 363.134 92.6375 363.423 92.4415 363.806C92.2548 364.189 92.1615 364.66 92.1615 365.22V369H91.1815ZM102.15 369.168C101.469 369.168 100.872 369.009 100.358 368.692C99.8542 368.365 99.4622 367.922 99.1822 367.362C98.9022 366.802 98.7622 366.167 98.7622 365.458C98.7622 364.749 98.9022 364.119 99.1822 363.568C99.4622 363.008 99.8588 362.569 100.372 362.252C100.886 361.935 101.483 361.776 102.164 361.776C102.762 361.776 103.284 361.907 103.732 362.168C104.19 362.42 104.54 362.779 104.782 363.246V358.92H105.762V369H104.866L104.782 367.726C104.633 367.969 104.437 368.202 104.194 368.426C103.961 368.65 103.672 368.832 103.326 368.972C102.99 369.103 102.598 369.168 102.15 369.168ZM102.234 368.314C102.729 368.314 103.158 368.197 103.522 367.964C103.896 367.731 104.185 367.399 104.39 366.97C104.605 366.541 104.712 366.041 104.712 365.472C104.712 364.903 104.605 364.403 104.39 363.974C104.185 363.545 103.896 363.213 103.522 362.98C103.158 362.747 102.729 362.63 102.234 362.63C101.749 362.63 101.32 362.747 100.946 362.98C100.573 363.213 100.279 363.545 100.064 363.974C99.8588 364.394 99.7562 364.893 99.7562 365.472C99.7562 366.051 99.8635 366.555 100.078 366.984C100.293 367.404 100.587 367.731 100.96 367.964C101.334 368.197 101.758 368.314 102.234 368.314ZM111.607 372.08V361.944H112.503L112.587 363.218C112.737 362.966 112.933 362.733 113.175 362.518C113.418 362.294 113.707 362.117 114.043 361.986C114.389 361.846 114.781 361.776 115.219 361.776C115.901 361.776 116.493 361.939 116.997 362.266C117.511 362.593 117.907 363.036 118.187 363.596C118.467 364.147 118.607 364.777 118.607 365.486C118.607 366.195 118.463 366.83 118.173 367.39C117.893 367.941 117.501 368.375 116.997 368.692C116.493 369.009 115.896 369.168 115.205 369.168C114.608 369.168 114.081 369.042 113.623 368.79C113.175 368.529 112.83 368.165 112.587 367.698V372.08H111.607ZM115.135 368.314C115.621 368.314 116.045 368.197 116.409 367.964C116.783 367.731 117.077 367.404 117.291 366.984C117.506 366.555 117.613 366.051 117.613 365.472C117.613 364.903 117.506 364.403 117.291 363.974C117.077 363.545 116.783 363.213 116.409 362.98C116.045 362.747 115.621 362.63 115.135 362.63C114.65 362.63 114.216 362.747 113.833 362.98C113.46 363.213 113.166 363.545 112.951 363.974C112.746 364.394 112.643 364.893 112.643 365.472C112.643 366.041 112.746 366.541 112.951 366.97C113.166 367.399 113.46 367.731 113.833 367.964C114.216 368.197 114.65 368.314 115.135 368.314ZM123.313 369.168C122.66 369.168 122.081 369.014 121.577 368.706C121.082 368.398 120.69 367.969 120.401 367.418C120.121 366.858 119.981 366.205 119.981 365.458C119.981 364.711 120.121 364.063 120.401 363.512C120.681 362.961 121.073 362.537 121.577 362.238C122.09 361.93 122.678 361.776 123.341 361.776C124.022 361.776 124.596 361.93 125.063 362.238C125.539 362.546 125.898 362.947 126.141 363.442C126.393 363.937 126.519 364.478 126.519 365.066C126.519 365.159 126.519 365.257 126.519 365.36C126.519 365.453 126.514 365.565 126.505 365.696H120.723V364.87H125.567C125.548 364.151 125.324 363.596 124.895 363.204C124.475 362.812 123.943 362.616 123.299 362.616C122.879 362.616 122.487 362.714 122.123 362.91C121.768 363.097 121.479 363.377 121.255 363.75C121.04 364.114 120.933 364.576 120.933 365.136V365.5C120.933 366.135 121.045 366.662 121.269 367.082C121.493 367.502 121.787 367.815 122.151 368.02C122.524 368.225 122.912 368.328 123.313 368.328C123.845 368.328 124.284 368.211 124.629 367.978C124.974 367.735 125.222 367.404 125.371 366.984H126.337C126.216 367.395 126.02 367.768 125.749 368.104C125.488 368.44 125.152 368.701 124.741 368.888C124.33 369.075 123.854 369.168 123.313 369.168ZM128.123 369V361.944H129.019L129.089 363.302C129.238 362.975 129.439 362.7 129.691 362.476C129.943 362.252 130.246 362.079 130.601 361.958C130.956 361.837 131.357 361.776 131.805 361.776V362.798H131.427C131.128 362.798 130.839 362.84 130.559 362.924C130.279 362.999 130.032 363.129 129.817 363.316C129.602 363.503 129.43 363.755 129.299 364.072C129.168 364.389 129.103 364.786 129.103 365.262V369H128.123ZM133.602 369V360.726C133.602 360.315 133.667 359.979 133.798 359.718C133.938 359.447 134.143 359.247 134.414 359.116C134.684 358.985 135.025 358.92 135.436 358.92H136.234V359.76H135.604C135.23 359.76 134.964 359.835 134.806 359.984C134.656 360.133 134.582 360.395 134.582 360.768V369H133.602ZM132.51 362.784V361.944H136.416V362.784H132.51ZM140.678 369.168C140.034 369.168 139.451 369.019 138.928 368.72C138.415 368.412 138.009 367.983 137.71 367.432C137.412 366.872 137.262 366.223 137.262 365.486C137.262 364.721 137.412 364.063 137.71 363.512C138.018 362.961 138.434 362.537 138.956 362.238C139.479 361.93 140.062 361.776 140.706 361.776C141.378 361.776 141.971 361.93 142.484 362.238C142.998 362.537 143.404 362.961 143.702 363.512C144.001 364.063 144.15 364.721 144.15 365.486C144.15 366.223 143.996 366.872 143.688 367.432C143.39 367.983 142.979 368.412 142.456 368.72C141.943 369.019 141.35 369.168 140.678 369.168ZM140.692 368.328C141.131 368.328 141.532 368.221 141.896 368.006C142.27 367.791 142.568 367.474 142.792 367.054C143.026 366.625 143.142 366.097 143.142 365.472C143.142 364.837 143.03 364.31 142.806 363.89C142.582 363.47 142.284 363.157 141.91 362.952C141.546 362.737 141.145 362.63 140.706 362.63C140.286 362.63 139.89 362.737 139.516 362.952C139.143 363.167 138.84 363.484 138.606 363.904C138.382 364.315 138.27 364.837 138.27 365.472C138.27 366.097 138.382 366.625 138.606 367.054C138.83 367.474 139.124 367.791 139.488 368.006C139.862 368.221 140.263 368.328 140.692 368.328ZM145.828 369V361.944H146.724L146.794 363.302C146.943 362.975 147.144 362.7 147.396 362.476C147.648 362.252 147.951 362.079 148.306 361.958C148.661 361.837 149.062 361.776 149.51 361.776V362.798H149.132C148.833 362.798 148.544 362.84 148.264 362.924C147.984 362.999 147.737 363.129 147.522 363.316C147.307 363.503 147.135 363.755 147.004 364.072C146.873 364.389 146.808 364.786 146.808 365.262V369H145.828ZM150.887 369V361.944H151.783L151.853 363.008C152.067 362.616 152.366 362.313 152.749 362.098C153.131 361.883 153.556 361.776 154.023 361.776C154.368 361.776 154.69 361.827 154.989 361.93C155.287 362.033 155.549 362.187 155.773 362.392C156.006 362.597 156.188 362.863 156.319 363.19C156.552 362.751 156.879 362.406 157.299 362.154C157.728 361.902 158.185 361.776 158.671 361.776C159.212 361.776 159.679 361.883 160.071 362.098C160.472 362.313 160.785 362.639 161.009 363.078C161.233 363.517 161.345 364.072 161.345 364.744V369H160.365V364.856C160.365 364.109 160.211 363.554 159.903 363.19C159.595 362.817 159.165 362.63 158.615 362.63C158.241 362.63 157.901 362.733 157.593 362.938C157.285 363.134 157.042 363.423 156.865 363.806C156.687 364.179 156.599 364.646 156.599 365.206V369H155.619V364.856C155.619 364.109 155.465 363.554 155.157 363.19C154.858 362.817 154.433 362.63 153.883 362.63C153.5 362.63 153.155 362.733 152.847 362.938C152.548 363.134 152.31 363.428 152.133 363.82C151.955 364.203 151.867 364.679 151.867 365.248V369H150.887ZM165.445 369.168C164.876 369.168 164.4 369.065 164.017 368.86C163.644 368.655 163.364 368.389 163.177 368.062C163 367.735 162.911 367.376 162.911 366.984C162.911 366.499 163.033 366.088 163.275 365.752C163.527 365.416 163.877 365.164 164.325 364.996C164.773 364.828 165.296 364.744 165.893 364.744H167.797C167.797 364.287 167.727 363.899 167.587 363.582C167.447 363.265 167.242 363.027 166.971 362.868C166.701 362.7 166.36 362.616 165.949 362.616C165.473 362.616 165.063 362.737 164.717 362.98C164.372 363.223 164.157 363.577 164.073 364.044H163.051C163.107 363.549 163.275 363.134 163.555 362.798C163.845 362.462 164.199 362.21 164.619 362.042C165.039 361.865 165.483 361.776 165.949 361.776C166.603 361.776 167.135 361.902 167.545 362.154C167.956 362.397 168.264 362.733 168.469 363.162C168.675 363.591 168.777 364.086 168.777 364.646V369H167.881L167.825 367.712C167.741 367.908 167.625 368.095 167.475 368.272C167.335 368.449 167.167 368.603 166.971 368.734C166.785 368.865 166.565 368.967 166.313 369.042C166.061 369.126 165.772 369.168 165.445 369.168ZM165.557 368.314C165.903 368.314 166.211 368.244 166.481 368.104C166.761 367.955 166.999 367.763 167.195 367.53C167.391 367.297 167.541 367.035 167.643 366.746C167.746 366.447 167.797 366.139 167.797 365.822V365.57H165.963C165.469 365.57 165.072 365.631 164.773 365.752C164.475 365.873 164.26 366.037 164.129 366.242C163.999 366.447 163.933 366.685 163.933 366.956C163.933 367.227 163.994 367.465 164.115 367.67C164.237 367.866 164.419 368.025 164.661 368.146C164.913 368.258 165.212 368.314 165.557 368.314ZM170.629 369V361.944H171.525L171.581 363.204C171.805 362.756 172.127 362.406 172.547 362.154C172.976 361.902 173.452 361.776 173.975 361.776C174.516 361.776 174.987 361.883 175.389 362.098C175.79 362.313 176.103 362.639 176.327 363.078C176.551 363.507 176.663 364.058 176.663 364.73V369H175.683V364.842C175.683 364.095 175.519 363.54 175.193 363.176C174.866 362.812 174.399 362.63 173.793 362.63C173.382 362.63 173.009 362.733 172.673 362.938C172.346 363.134 172.085 363.423 171.889 363.806C171.702 364.189 171.609 364.66 171.609 365.22V369H170.629ZM181.625 369.168C180.972 369.168 180.389 369.014 179.875 368.706C179.362 368.398 178.956 367.969 178.657 367.418C178.359 366.858 178.209 366.214 178.209 365.486C178.209 364.73 178.359 364.081 178.657 363.54C178.956 362.989 179.362 362.56 179.875 362.252C180.398 361.935 180.981 361.776 181.625 361.776C182.447 361.776 183.128 361.991 183.669 362.42C184.22 362.84 184.57 363.4 184.719 364.1H183.739C183.637 363.633 183.389 363.274 182.997 363.022C182.615 362.761 182.153 362.63 181.611 362.63C181.191 362.63 180.799 362.737 180.435 362.952C180.071 363.157 179.777 363.47 179.553 363.89C179.329 364.31 179.217 364.842 179.217 365.486C179.217 365.962 179.283 366.377 179.413 366.732C179.544 367.087 179.721 367.385 179.945 367.628C180.169 367.861 180.426 368.039 180.715 368.16C181.005 368.281 181.303 368.342 181.611 368.342C181.966 368.342 182.288 368.286 182.577 368.174C182.876 368.053 183.128 367.88 183.333 367.656C183.539 367.432 183.674 367.161 183.739 366.844H184.719C184.579 367.525 184.234 368.085 183.683 368.524C183.133 368.953 182.447 369.168 181.625 369.168ZM189.43 369.168C188.777 369.168 188.198 369.014 187.694 368.706C187.199 368.398 186.807 367.969 186.518 367.418C186.238 366.858 186.098 366.205 186.098 365.458C186.098 364.711 186.238 364.063 186.518 363.512C186.798 362.961 187.19 362.537 187.694 362.238C188.207 361.93 188.795 361.776 189.458 361.776C190.139 361.776 190.713 361.93 191.18 362.238C191.656 362.546 192.015 362.947 192.258 363.442C192.51 363.937 192.636 364.478 192.636 365.066C192.636 365.159 192.636 365.257 192.636 365.36C192.636 365.453 192.631 365.565 192.622 365.696H186.84V364.87H191.684C191.665 364.151 191.441 363.596 191.012 363.204C190.592 362.812 190.06 362.616 189.416 362.616C188.996 362.616 188.604 362.714 188.24 362.91C187.885 363.097 187.596 363.377 187.372 363.75C187.157 364.114 187.05 364.576 187.05 365.136V365.5C187.05 366.135 187.162 366.662 187.386 367.082C187.61 367.502 187.904 367.815 188.268 368.02C188.641 368.225 189.029 368.328 189.43 368.328C189.962 368.328 190.401 368.211 190.746 367.978C191.091 367.735 191.339 367.404 191.488 366.984H192.454C192.333 367.395 192.137 367.768 191.866 368.104C191.605 368.44 191.269 368.701 190.858 368.888C190.447 369.075 189.971 369.168 189.43 369.168ZM21.668 388C21.2667 388 20.9213 387.939 20.632 387.818C20.3427 387.687 20.1187 387.477 19.96 387.188C19.8107 386.889 19.736 386.483 19.736 385.97V381.784H18.504V380.944H19.736L19.876 379.306H20.716V380.958H22.83V381.784H20.716V385.97C20.716 386.437 20.8093 386.754 20.996 386.922C21.1827 387.081 21.514 387.16 21.99 387.16H22.718V388H21.668ZM24.3534 388V380.944H25.2494L25.3194 382.302C25.4687 381.975 25.6694 381.7 25.9214 381.476C26.1734 381.252 26.4767 381.079 26.8314 380.958C27.186 380.837 27.5874 380.776 28.0354 380.776V381.798H27.6574C27.3587 381.798 27.0694 381.84 26.7894 381.924C26.5094 381.999 26.262 382.129 26.0474 382.316C25.8327 382.503 25.66 382.755 25.5294 383.072C25.3987 383.389 25.3334 383.786 25.3334 384.262V388H24.3534ZM31.666 388.168C31.0966 388.168 30.6206 388.065 30.238 387.86C29.8646 387.655 29.5846 387.389 29.398 387.062C29.2206 386.735 29.132 386.376 29.132 385.984C29.132 385.499 29.2533 385.088 29.496 384.752C29.748 384.416 30.098 384.164 30.546 383.996C30.994 383.828 31.5166 383.744 32.114 383.744H34.018C34.018 383.287 33.948 382.899 33.808 382.582C33.668 382.265 33.4626 382.027 33.192 381.868C32.9213 381.7 32.5806 381.616 32.17 381.616C31.694 381.616 31.2833 381.737 30.938 381.98C30.5926 382.223 30.378 382.577 30.294 383.044H29.272C29.328 382.549 29.496 382.134 29.776 381.798C30.0653 381.462 30.42 381.21 30.84 381.042C31.26 380.865 31.7033 380.776 32.17 380.776C32.8233 380.776 33.3553 380.902 33.766 381.154C34.1766 381.397 34.4846 381.733 34.69 382.162C34.8953 382.591 34.998 383.086 34.998 383.646V388H34.102L34.046 386.712C33.962 386.908 33.8453 387.095 33.696 387.272C33.556 387.449 33.388 387.603 33.192 387.734C33.0053 387.865 32.786 387.967 32.534 388.042C32.282 388.126 31.9926 388.168 31.666 388.168ZM31.778 387.314C32.1233 387.314 32.4313 387.244 32.702 387.104C32.982 386.955 33.22 386.763 33.416 386.53C33.612 386.297 33.7613 386.035 33.864 385.746C33.9666 385.447 34.018 385.139 34.018 384.822V384.57H32.184C31.6893 384.57 31.2926 384.631 30.994 384.752C30.6953 384.873 30.4806 385.037 30.35 385.242C30.2193 385.447 30.154 385.685 30.154 385.956C30.154 386.227 30.2146 386.465 30.336 386.67C30.4573 386.866 30.6393 387.025 30.882 387.146C31.134 387.258 31.4326 387.314 31.778 387.314ZM39.9575 388.168C39.3041 388.168 38.7208 388.014 38.2075 387.706C37.6941 387.398 37.2881 386.969 36.9895 386.418C36.6908 385.858 36.5415 385.214 36.5415 384.486C36.5415 383.73 36.6908 383.081 36.9895 382.54C37.2881 381.989 37.6941 381.56 38.2075 381.252C38.7301 380.935 39.3135 380.776 39.9575 380.776C40.7788 380.776 41.4601 380.991 42.0015 381.42C42.5521 381.84 42.9021 382.4 43.0515 383.1H42.0715C41.9688 382.633 41.7215 382.274 41.3295 382.022C40.9468 381.761 40.4848 381.63 39.9435 381.63C39.5235 381.63 39.1315 381.737 38.7675 381.952C38.4035 382.157 38.1095 382.47 37.8855 382.89C37.6615 383.31 37.5495 383.842 37.5495 384.486C37.5495 384.962 37.6148 385.377 37.7455 385.732C37.8761 386.087 38.0535 386.385 38.2775 386.628C38.5015 386.861 38.7581 387.039 39.0475 387.16C39.3368 387.281 39.6355 387.342 39.9435 387.342C40.2981 387.342 40.6201 387.286 40.9095 387.174C41.2081 387.053 41.4601 386.88 41.6655 386.656C41.8708 386.432 42.0061 386.161 42.0715 385.844H43.0515C42.9115 386.525 42.5661 387.085 42.0155 387.524C41.4648 387.953 40.7788 388.168 39.9575 388.168ZM49.0081 388L45.5501 384.136L48.7141 380.944H49.9321L46.4181 384.458L46.4321 383.8L50.2681 388H49.0081ZM44.7381 388V377.92H45.7181V388H44.7381ZM51.6731 388V380.944H52.6391V388H51.6731ZM52.1631 379.278C51.9671 379.278 51.7991 379.213 51.6591 379.082C51.5191 378.942 51.4491 378.769 51.4491 378.564C51.4491 378.349 51.5144 378.181 51.6451 378.06C51.7851 377.929 51.9531 377.864 52.1491 377.864C52.3451 377.864 52.5131 377.929 52.6531 378.06C52.7931 378.181 52.8631 378.349 52.8631 378.564C52.8631 378.769 52.7931 378.942 52.6531 379.082C52.5224 379.213 52.3591 379.278 52.1631 379.278ZM54.7733 388V380.944H55.6693L55.7253 382.204C55.9493 381.756 56.2713 381.406 56.6913 381.154C57.1206 380.902 57.5966 380.776 58.1193 380.776C58.6606 380.776 59.132 380.883 59.5333 381.098C59.9346 381.313 60.2473 381.639 60.4713 382.078C60.6953 382.507 60.8073 383.058 60.8073 383.73V388H59.8273V383.842C59.8273 383.095 59.664 382.54 59.3373 382.176C59.0106 381.812 58.544 381.63 57.9373 381.63C57.5266 381.63 57.1533 381.733 56.8173 381.938C56.4906 382.134 56.2293 382.423 56.0333 382.806C55.8466 383.189 55.7533 383.66 55.7533 384.22V388H54.7733ZM65.392 391.248C64.7666 391.248 64.2113 391.164 63.726 390.996C63.25 390.828 62.872 390.576 62.592 390.24C62.3213 389.904 62.186 389.489 62.186 388.994C62.186 388.798 62.2186 388.583 62.284 388.35C62.3586 388.126 62.4986 387.897 62.704 387.664C62.9093 387.431 63.1986 387.221 63.572 387.034L64.37 387.384C63.8753 387.617 63.5533 387.869 63.404 388.14C63.2546 388.42 63.18 388.672 63.18 388.896C63.18 389.232 63.2733 389.512 63.46 389.736C63.656 389.96 63.9173 390.128 64.244 390.24C64.58 390.361 64.9626 390.422 65.392 390.422C65.8213 390.422 66.19 390.357 66.498 390.226C66.8153 390.105 67.058 389.927 67.226 389.694C67.394 389.47 67.478 389.209 67.478 388.91C67.478 388.565 67.3426 388.271 67.072 388.028C66.8106 387.795 66.3206 387.659 65.602 387.622C65.0326 387.585 64.5613 387.538 64.188 387.482C63.824 387.417 63.5206 387.342 63.278 387.258C63.0446 387.165 62.8486 387.067 62.69 386.964C62.5406 386.861 62.396 386.749 62.256 386.628V386.306L63.6 385.032L64.496 385.354L63.18 386.53L63.264 386.152C63.3666 386.227 63.4646 386.297 63.558 386.362C63.6606 386.427 63.7913 386.483 63.95 386.53C64.118 386.567 64.3466 386.609 64.636 386.656C64.9346 386.693 65.336 386.731 65.84 386.768C66.484 386.815 66.9973 386.927 67.38 387.104C67.7626 387.281 68.0426 387.519 68.22 387.818C68.3973 388.117 68.486 388.467 68.486 388.868C68.486 389.269 68.374 389.652 68.15 390.016C67.9353 390.38 67.5993 390.674 67.142 390.898C66.694 391.131 66.1106 391.248 65.392 391.248ZM65.378 385.76C64.7806 385.76 64.2766 385.648 63.866 385.424C63.4646 385.2 63.1566 384.901 62.942 384.528C62.7273 384.145 62.62 383.725 62.62 383.268C62.62 382.801 62.7273 382.381 62.942 382.008C63.1566 381.635 63.4693 381.336 63.88 381.112C64.2906 380.888 64.79 380.776 65.378 380.776C65.9753 380.776 66.4746 380.888 66.876 381.112C67.2866 381.336 67.5946 381.635 67.8 382.008C68.0146 382.381 68.122 382.801 68.122 383.268C68.122 383.725 68.0146 384.145 67.8 384.528C67.5946 384.901 67.2866 385.2 66.876 385.424C66.4746 385.648 65.9753 385.76 65.378 385.76ZM65.378 384.92C65.9193 384.92 66.344 384.78 66.652 384.5C66.9693 384.211 67.128 383.8 67.128 383.268C67.128 382.727 66.9693 382.316 66.652 382.036C66.344 381.756 65.9193 381.616 65.378 381.616C64.8366 381.616 64.4026 381.756 64.076 382.036C63.7586 382.316 63.6 382.727 63.6 383.268C63.6 383.8 63.7586 384.211 64.076 384.5C64.3933 384.78 64.8273 384.92 65.378 384.92ZM66.526 381.826L66.176 380.944H69.032V381.742L66.526 381.826ZM70.7086 388.07C70.5032 388.07 70.3306 388 70.1906 387.86C70.0599 387.72 69.9946 387.547 69.9946 387.342C69.9946 387.137 70.0599 386.969 70.1906 386.838C70.3306 386.698 70.5032 386.628 70.7086 386.628C70.9139 386.628 71.0819 386.698 71.2126 386.838C71.3526 386.969 71.4226 387.141 71.4226 387.356C71.4226 387.552 71.3526 387.72 71.2126 387.86C71.0819 388 70.9139 388.07 70.7086 388.07Z" fill="white"/>
</g>
<defs>
<clipPath id="clip0_2050_7895">
<rect width="224" height="411" rx="10" fill="white"/>
</clipPath>
</defs>
</svg>
