<svg width="202" height="411" viewBox="0 0 202 411" fill="none" xmlns="http://www.w3.org/2000/svg">
<rect width="202" height="411" rx="10" fill="#F4F6FF"/>
<rect y="247" width="202" height="164" rx="10" fill="#11111C"/>
<path d="M19.736 277.192C18.9147 277.192 18.2 277.043 17.592 276.744C16.9947 276.445 16.536 276.029 16.216 275.496C15.896 274.952 15.736 274.333 15.736 273.64H16.904C16.904 274.109 17.0107 274.541 17.224 274.936C17.4373 275.331 17.752 275.651 18.168 275.896C18.584 276.131 19.1067 276.248 19.736 276.248C20.2907 276.248 20.7547 276.157 21.128 275.976C21.512 275.784 21.8053 275.533 22.008 275.224C22.2107 274.915 22.312 274.563 22.312 274.168C22.312 273.699 22.2107 273.32 22.008 273.032C21.816 272.744 21.5493 272.509 21.208 272.328C20.8667 272.147 20.4773 271.992 20.04 271.864C19.6133 271.725 19.16 271.576 18.68 271.416C17.816 271.117 17.1813 270.749 16.776 270.312C16.3707 269.875 16.1627 269.315 16.152 268.632C16.152 268.045 16.2853 267.528 16.552 267.08C16.8293 266.621 17.2293 266.264 17.752 266.008C18.2747 265.741 18.8933 265.608 19.608 265.608C20.3013 265.608 20.904 265.741 21.416 266.008C21.9387 266.264 22.344 266.627 22.632 267.096C22.92 267.555 23.064 268.083 23.064 268.68H21.912C21.912 268.339 21.8213 268.008 21.64 267.688C21.4693 267.357 21.208 267.091 20.856 266.888C20.5147 266.675 20.0773 266.568 19.544 266.568C19.1067 266.568 18.7173 266.648 18.376 266.808C18.0453 266.957 17.784 267.181 17.592 267.48C17.4 267.768 17.304 268.109 17.304 268.504C17.304 268.888 17.3893 269.203 17.56 269.448C17.7307 269.693 17.9707 269.896 18.28 270.056C18.5893 270.216 18.952 270.365 19.368 270.504C19.784 270.632 20.248 270.781 20.76 270.952C21.2827 271.133 21.7467 271.352 22.152 271.608C22.5573 271.864 22.8773 272.195 23.112 272.6C23.3467 272.995 23.464 273.496 23.464 274.104C23.464 274.627 23.3253 275.128 23.048 275.608C22.7813 276.077 22.3707 276.461 21.816 276.76C21.2613 277.048 20.568 277.192 19.736 277.192ZM27.9308 277.192C27.2801 277.192 26.7361 277.075 26.2988 276.84C25.8721 276.605 25.5521 276.301 25.3388 275.928C25.1361 275.555 25.0348 275.144 25.0348 274.696C25.0348 274.141 25.1734 273.672 25.4508 273.288C25.7388 272.904 26.1388 272.616 26.6508 272.424C27.1628 272.232 27.7601 272.136 28.4427 272.136H30.6188C30.6188 271.613 30.5388 271.171 30.3788 270.808C30.2188 270.445 29.9841 270.173 29.6748 269.992C29.3654 269.8 28.9761 269.704 28.5068 269.704C27.9628 269.704 27.4934 269.843 27.0988 270.12C26.7041 270.397 26.4588 270.803 26.3628 271.336H25.1948C25.2588 270.771 25.4508 270.296 25.7708 269.912C26.1014 269.528 26.5068 269.24 26.9868 269.048C27.4668 268.845 27.9734 268.744 28.5068 268.744C29.2534 268.744 29.8614 268.888 30.3308 269.176C30.8001 269.453 31.1521 269.837 31.3868 270.328C31.6214 270.819 31.7388 271.384 31.7388 272.024V277H30.7148L30.6508 275.528C30.5548 275.752 30.4214 275.965 30.2508 276.168C30.0908 276.371 29.8988 276.547 29.6748 276.696C29.4614 276.845 29.2108 276.963 28.9227 277.048C28.6348 277.144 28.3041 277.192 27.9308 277.192ZM28.0588 276.216C28.4534 276.216 28.8054 276.136 29.1148 275.976C29.4348 275.805 29.7068 275.587 29.9308 275.32C30.1548 275.053 30.3254 274.755 30.4428 274.424C30.5601 274.083 30.6188 273.731 30.6188 273.368V273.08H28.5228C27.9574 273.08 27.5041 273.149 27.1628 273.288C26.8214 273.427 26.5761 273.613 26.4268 273.848C26.2774 274.083 26.2028 274.355 26.2028 274.664C26.2028 274.973 26.2721 275.245 26.4108 275.48C26.5494 275.704 26.7574 275.885 27.0348 276.024C27.3228 276.152 27.6641 276.216 28.0588 276.216ZM35.9103 277L32.8383 268.936H34.0063L36.5663 275.912L39.1263 268.936H40.2783L37.1903 277H35.9103ZM44.8576 277.192C44.111 277.192 43.4496 277.016 42.8736 276.664C42.3083 276.312 41.8603 275.821 41.5296 275.192C41.2096 274.552 41.0496 273.805 41.0496 272.952C41.0496 272.099 41.2096 271.357 41.5296 270.728C41.8496 270.099 42.2976 269.613 42.8736 269.272C43.4603 268.92 44.1323 268.744 44.8896 268.744C45.6683 268.744 46.3243 268.92 46.8576 269.272C47.4016 269.624 47.8123 270.083 48.0896 270.648C48.3776 271.213 48.5216 271.832 48.5216 272.504C48.5216 272.611 48.5216 272.723 48.5216 272.84C48.5216 272.947 48.5163 273.075 48.5056 273.224H41.8976V272.28H47.4336C47.4123 271.459 47.1563 270.824 46.6656 270.376C46.1856 269.928 45.5776 269.704 44.8416 269.704C44.3616 269.704 43.9136 269.816 43.4976 270.04C43.0923 270.253 42.7616 270.573 42.5056 271C42.2603 271.416 42.1376 271.944 42.1376 272.584V273C42.1376 273.725 42.2656 274.328 42.5216 274.808C42.7776 275.288 43.1136 275.645 43.5296 275.88C43.9563 276.115 44.399 276.232 44.8576 276.232C45.4656 276.232 45.967 276.099 46.3616 275.832C46.7563 275.555 47.039 275.176 47.2096 274.696H48.3136C48.175 275.165 47.951 275.592 47.6416 275.976C47.343 276.36 46.959 276.659 46.4896 276.872C46.0203 277.085 45.4763 277.192 44.8576 277.192ZM57.673 277.192C57.065 277.192 56.5263 277.075 56.057 276.84C55.5983 276.595 55.241 276.227 54.985 275.736C54.729 275.235 54.601 274.595 54.601 273.816V268.936H55.721V273.688C55.721 274.541 55.9077 275.176 56.281 275.592C56.665 276.008 57.193 276.216 57.865 276.216C58.345 276.216 58.7717 276.104 59.145 275.88C59.529 275.656 59.8277 275.325 60.041 274.888C60.265 274.44 60.377 273.896 60.377 273.256V268.936H61.497V277H60.473L60.409 275.56C60.153 276.083 59.7797 276.488 59.289 276.776C58.809 277.053 58.2703 277.192 57.673 277.192ZM63.7766 280.52V268.936H64.8006L64.8966 270.392C65.0673 270.104 65.2913 269.837 65.5686 269.592C65.846 269.336 66.1766 269.133 66.5606 268.984C66.9553 268.824 67.4033 268.744 67.9046 268.744C68.6833 268.744 69.3606 268.931 69.9366 269.304C70.5233 269.677 70.9766 270.184 71.2966 270.824C71.6166 271.453 71.7766 272.173 71.7766 272.984C71.7766 273.795 71.6113 274.52 71.2806 275.16C70.9606 275.789 70.5126 276.285 69.9366 276.648C69.3606 277.011 68.678 277.192 67.8886 277.192C67.206 277.192 66.6033 277.048 66.0806 276.76C65.5686 276.461 65.174 276.045 64.8966 275.512V280.52H63.7766ZM67.8086 276.216C68.3633 276.216 68.8486 276.083 69.2646 275.816C69.6913 275.549 70.0273 275.176 70.2726 274.696C70.518 274.205 70.6406 273.629 70.6406 272.968C70.6406 272.317 70.518 271.747 70.2726 271.256C70.0273 270.765 69.6913 270.387 69.2646 270.12C68.8486 269.853 68.3633 269.72 67.8086 269.72C67.254 269.72 66.758 269.853 66.3206 270.12C65.894 270.387 65.558 270.765 65.3126 271.256C65.078 271.736 64.9606 272.307 64.9606 272.968C64.9606 273.619 65.078 274.189 65.3126 274.68C65.558 275.171 65.894 275.549 66.3206 275.816C66.758 276.083 67.254 276.216 67.8086 276.216ZM81.1608 277C80.7021 277 80.3074 276.931 79.9768 276.792C79.6461 276.643 79.3901 276.403 79.2088 276.072C79.0381 275.731 78.9528 275.267 78.9528 274.68V269.896H77.5448V268.936H78.9528L79.1128 267.064H80.0728V268.952H82.4888V269.896H80.0728V274.68C80.0728 275.213 80.1794 275.576 80.3928 275.768C80.6061 275.949 80.9848 276.04 81.5288 276.04H82.3608V277H81.1608ZM87.563 277.192C86.827 277.192 86.1603 277.021 85.563 276.68C84.9763 276.328 84.5123 275.837 84.171 275.208C83.8297 274.568 83.659 273.827 83.659 272.984C83.659 272.109 83.8297 271.357 84.171 270.728C84.523 270.099 84.9977 269.613 85.595 269.272C86.1923 268.92 86.859 268.744 87.595 268.744C88.363 268.744 89.0403 268.92 89.627 269.272C90.2137 269.613 90.6777 270.099 91.019 270.728C91.3603 271.357 91.531 272.109 91.531 272.984C91.531 273.827 91.355 274.568 91.003 275.208C90.6617 275.837 90.1923 276.328 89.595 276.68C89.0083 277.021 88.331 277.192 87.563 277.192ZM87.579 276.232C88.0803 276.232 88.539 276.109 88.955 275.864C89.3817 275.619 89.723 275.256 89.979 274.776C90.2457 274.285 90.379 273.683 90.379 272.968C90.379 272.243 90.251 271.64 89.995 271.16C89.739 270.68 89.3977 270.323 88.971 270.088C88.555 269.843 88.0963 269.72 87.595 269.72C87.115 269.72 86.6617 269.843 86.235 270.088C85.8083 270.333 85.4617 270.696 85.195 271.176C84.939 271.645 84.811 272.243 84.811 272.968C84.811 273.683 84.939 274.285 85.195 274.776C85.451 275.256 85.787 275.619 86.203 275.864C86.6297 276.109 87.0883 276.232 87.579 276.232Z" fill="white"/>
<path d="M26.73 321V316.71H16.2V314.37L26.25 300H29.7V314.1H32.7V316.71H29.7V321H26.73ZM19.47 314.1H26.91V303.3L19.47 314.1ZM44.0128 321.36C42.1528 321.36 40.5528 320.91 39.2128 320.01C37.8728 319.09 36.8428 317.82 36.1228 316.2C35.4028 314.56 35.0428 312.66 35.0428 310.5C35.0428 308.34 35.4028 306.45 36.1228 304.83C36.8428 303.19 37.8728 301.92 39.2128 301.02C40.5528 300.1 42.1528 299.64 44.0128 299.64C45.8728 299.64 47.4628 300.1 48.7828 301.02C50.1228 301.92 51.1428 303.19 51.8428 304.83C52.5628 306.45 52.9228 308.34 52.9228 310.5C52.9228 312.66 52.5628 314.56 51.8428 316.2C51.1428 317.82 50.1228 319.09 48.7828 320.01C47.4628 320.91 45.8728 321.36 44.0128 321.36ZM44.0128 318.69C45.1328 318.69 46.1328 318.36 47.0128 317.7C47.9128 317.04 48.6128 316.1 49.1128 314.88C49.6128 313.66 49.8628 312.2 49.8628 310.5C49.8628 308.8 49.6128 307.34 49.1128 306.12C48.6128 304.9 47.9128 303.97 47.0128 303.33C46.1328 302.67 45.1328 302.34 44.0128 302.34C42.8728 302.34 41.8528 302.67 40.9528 303.33C40.0528 303.97 39.3528 304.9 38.8528 306.12C38.3528 307.34 38.1028 308.8 38.1028 310.5C38.1028 312.2 38.3528 313.66 38.8528 314.88C39.3528 316.1 40.0528 317.04 40.9528 317.7C41.8528 318.36 42.8728 318.69 44.0128 318.69ZM59.0857 321L71.1457 300H74.1157L62.0557 321H59.0857ZM72.8857 321.36C71.9457 321.36 71.1057 321.15 70.3657 320.73C69.6257 320.31 69.0357 319.72 68.5957 318.96C68.1557 318.18 67.9357 317.27 67.9357 316.23C67.9357 315.15 68.1557 314.23 68.5957 313.47C69.0357 312.71 69.6257 312.12 70.3657 311.7C71.1057 311.28 71.9357 311.07 72.8557 311.07C73.8157 311.07 74.6557 311.28 75.3757 311.7C76.1157 312.12 76.6957 312.71 77.1157 313.47C77.5557 314.23 77.7757 315.15 77.7757 316.23C77.7757 317.27 77.5557 318.18 77.1157 318.96C76.6957 319.72 76.1157 320.31 75.3757 320.73C74.6357 321.15 73.8057 321.36 72.8857 321.36ZM72.8257 319.14C73.2857 319.14 73.6957 319.03 74.0557 318.81C74.4357 318.59 74.7357 318.27 74.9557 317.85C75.1957 317.41 75.3157 316.86 75.3157 316.2C75.3157 315.54 75.2057 315 74.9857 314.58C74.7657 314.14 74.4657 313.81 74.0857 313.59C73.7257 313.37 73.3157 313.26 72.8557 313.26C72.4357 313.26 72.0357 313.37 71.6557 313.59C71.2757 313.81 70.9657 314.14 70.7257 314.58C70.5057 315 70.3957 315.54 70.3957 316.2C70.3957 316.86 70.5057 317.41 70.7257 317.85C70.9657 318.27 71.2657 318.59 71.6257 318.81C72.0057 319.03 72.4057 319.14 72.8257 319.14ZM60.5257 309.96C59.6057 309.96 58.7757 309.75 58.0357 309.33C57.2957 308.91 56.6957 308.32 56.2357 307.56C55.7957 306.78 55.5757 305.86 55.5757 304.8C55.5757 303.74 55.7957 302.83 56.2357 302.07C56.6957 301.31 57.2957 300.72 58.0357 300.3C58.7957 299.88 59.6357 299.67 60.5557 299.67C61.4757 299.67 62.3057 299.88 63.0457 300.3C63.7857 300.72 64.3657 301.31 64.7857 302.07C65.2257 302.83 65.4457 303.74 65.4457 304.8C65.4457 305.86 65.2257 306.78 64.7857 307.56C64.3657 308.32 63.7757 308.91 63.0157 309.33C62.2757 309.75 61.4457 309.96 60.5257 309.96ZM60.5257 307.74C60.9657 307.74 61.3657 307.63 61.7257 307.41C62.1057 307.19 62.4057 306.87 62.6257 306.45C62.8457 306.01 62.9557 305.46 62.9557 304.8C62.9557 304.14 62.8457 303.59 62.6257 303.15C62.4057 302.71 62.1057 302.38 61.7257 302.16C61.3657 301.94 60.9757 301.83 60.5557 301.83C60.1157 301.83 59.6957 301.94 59.2957 302.16C58.9157 302.38 58.6057 302.71 58.3657 303.15C58.1457 303.59 58.0357 304.14 58.0357 304.8C58.0357 305.44 58.1457 305.98 58.3657 306.42C58.6057 306.86 58.9157 307.19 59.2957 307.41C59.6757 307.63 60.0857 307.74 60.5257 307.74Z" fill="white"/>
<path opacity="0.8" d="M19.592 348.168C19.1813 348.168 18.8033 348.107 18.458 347.986C18.122 347.855 17.828 347.683 17.576 347.468C17.324 347.244 17.1233 346.992 16.974 346.712L16.89 348H15.994V337.92H16.974V342.218C17.2073 341.817 17.5433 341.476 17.982 341.196C18.4207 340.916 18.9573 340.776 19.592 340.776C20.2827 340.776 20.8847 340.939 21.398 341.266C21.9113 341.583 22.3033 342.022 22.574 342.582C22.854 343.133 22.994 343.763 22.994 344.472C22.994 345.181 22.854 345.816 22.574 346.376C22.294 346.936 21.8973 347.375 21.384 347.692C20.88 348.009 20.2827 348.168 19.592 348.168ZM19.522 347.314C20.0167 347.314 20.446 347.197 20.81 346.964C21.174 346.731 21.4633 346.399 21.678 345.97C21.8927 345.541 22 345.041 22 344.472C22 343.893 21.8927 343.394 21.678 342.974C21.4633 342.545 21.1693 342.213 20.796 341.98C20.432 341.747 20.0073 341.63 19.522 341.63C19.0367 341.63 18.6027 341.747 18.22 341.98C17.8467 342.213 17.5527 342.545 17.338 342.974C17.1327 343.403 17.03 343.903 17.03 344.472C17.03 345.051 17.1327 345.555 17.338 345.984C17.5527 346.404 17.8467 346.731 18.22 346.964C18.6027 347.197 19.0367 347.314 19.522 347.314ZM24.8704 351.08L26.6064 347.216H26.2284L23.4424 340.944H24.5064L26.9144 346.544L29.4484 340.944H30.4564L25.8924 351.08H24.8704ZM37.8535 348.168C37.2841 348.168 36.8081 348.065 36.4255 347.86C36.0521 347.655 35.7721 347.389 35.5855 347.062C35.4081 346.735 35.3195 346.376 35.3195 345.984C35.3195 345.499 35.4408 345.088 35.6835 344.752C35.9355 344.416 36.2855 344.164 36.7335 343.996C37.1815 343.828 37.7041 343.744 38.3015 343.744H40.2055C40.2055 343.287 40.1355 342.899 39.9955 342.582C39.8555 342.265 39.6501 342.027 39.3795 341.868C39.1088 341.7 38.7681 341.616 38.3575 341.616C37.8815 341.616 37.4708 341.737 37.1255 341.98C36.7801 342.223 36.5655 342.577 36.4815 343.044H35.4595C35.5155 342.549 35.6835 342.134 35.9635 341.798C36.2528 341.462 36.6075 341.21 37.0275 341.042C37.4475 340.865 37.8908 340.776 38.3575 340.776C39.0108 340.776 39.5428 340.902 39.9535 341.154C40.3641 341.397 40.6721 341.733 40.8775 342.162C41.0828 342.591 41.1855 343.086 41.1855 343.646V348H40.2895L40.2335 346.712C40.1495 346.908 40.0328 347.095 39.8835 347.272C39.7435 347.449 39.5755 347.603 39.3795 347.734C39.1928 347.865 38.9735 347.967 38.7215 348.042C38.4695 348.126 38.1801 348.168 37.8535 348.168ZM37.9655 347.314C38.3108 347.314 38.6188 347.244 38.8895 347.104C39.1695 346.955 39.4075 346.763 39.6035 346.53C39.7995 346.297 39.9488 346.035 40.0515 345.746C40.1541 345.447 40.2055 345.139 40.2055 344.822V344.57H38.3715C37.8768 344.57 37.4801 344.631 37.1815 344.752C36.8828 344.873 36.6681 345.037 36.5375 345.242C36.4068 345.447 36.3415 345.685 36.3415 345.956C36.3415 346.227 36.4021 346.465 36.5235 346.67C36.6448 346.866 36.8268 347.025 37.0695 347.146C37.3215 347.258 37.6201 347.314 37.9655 347.314ZM45.585 348.168C45.053 348.168 44.5816 348.065 44.171 347.86C43.7696 347.645 43.457 347.323 43.233 346.894C43.009 346.455 42.897 345.895 42.897 345.214V340.944H43.877V345.102C43.877 345.849 44.0403 346.404 44.367 346.768C44.703 347.132 45.165 347.314 45.753 347.314C46.173 347.314 46.5463 347.216 46.873 347.02C47.209 346.824 47.4703 346.535 47.657 346.152C47.853 345.76 47.951 345.284 47.951 344.724V340.944H48.931V348H48.035L47.979 346.74C47.755 347.197 47.4283 347.552 46.999 347.804C46.579 348.047 46.1076 348.168 45.585 348.168ZM53.5996 348C53.1983 348 52.853 347.939 52.5636 347.818C52.2743 347.687 52.0503 347.477 51.8916 347.188C51.7423 346.889 51.6676 346.483 51.6676 345.97V341.784H50.4356V340.944H51.6676L51.8076 339.306H52.6476V340.958H54.7616V341.784H52.6476V345.97C52.6476 346.437 52.741 346.754 52.9276 346.922C53.1143 347.081 53.4456 347.16 53.9216 347.16H54.6496V348H53.5996ZM59.2016 348.168C58.5576 348.168 57.9743 348.019 57.4516 347.72C56.9383 347.412 56.5323 346.983 56.2336 346.432C55.9349 345.872 55.7856 345.223 55.7856 344.486C55.7856 343.721 55.9349 343.063 56.2336 342.512C56.5416 341.961 56.9569 341.537 57.4796 341.238C58.0023 340.93 58.5856 340.776 59.2296 340.776C59.9016 340.776 60.4943 340.93 61.0076 341.238C61.5209 341.537 61.9269 341.961 62.2256 342.512C62.5243 343.063 62.6736 343.721 62.6736 344.486C62.6736 345.223 62.5196 345.872 62.2116 346.432C61.9129 346.983 61.5023 347.412 60.9796 347.72C60.4663 348.019 59.8736 348.168 59.2016 348.168ZM59.2156 347.328C59.6543 347.328 60.0556 347.221 60.4196 347.006C60.7929 346.791 61.0916 346.474 61.3156 346.054C61.5489 345.625 61.6656 345.097 61.6656 344.472C61.6656 343.837 61.5536 343.31 61.3296 342.89C61.1056 342.47 60.8069 342.157 60.4336 341.952C60.0696 341.737 59.6683 341.63 59.2296 341.63C58.8096 341.63 58.4129 341.737 58.0396 341.952C57.6663 342.167 57.3629 342.484 57.1296 342.904C56.9056 343.315 56.7936 343.837 56.7936 344.472C56.7936 345.097 56.9056 345.625 57.1296 346.054C57.3536 346.474 57.6476 346.791 58.0116 347.006C58.3849 347.221 58.7863 347.328 59.2156 347.328ZM64.3514 348V340.944H65.2474L65.3174 342.008C65.5321 341.616 65.8308 341.313 66.2134 341.098C66.5961 340.883 67.0208 340.776 67.4874 340.776C67.8328 340.776 68.1548 340.827 68.4534 340.93C68.7521 341.033 69.0134 341.187 69.2374 341.392C69.4708 341.597 69.6528 341.863 69.7834 342.19C70.0168 341.751 70.3434 341.406 70.7634 341.154C71.1928 340.902 71.6501 340.776 72.1354 340.776C72.6768 340.776 73.1434 340.883 73.5354 341.098C73.9368 341.313 74.2494 341.639 74.4734 342.078C74.6974 342.517 74.8094 343.072 74.8094 343.744V348H73.8294V343.856C73.8294 343.109 73.6754 342.554 73.3674 342.19C73.0594 341.817 72.6301 341.63 72.0794 341.63C71.7061 341.63 71.3654 341.733 71.0574 341.938C70.7494 342.134 70.5068 342.423 70.3294 342.806C70.1521 343.179 70.0634 343.646 70.0634 344.206V348H69.0834V343.856C69.0834 343.109 68.9294 342.554 68.6214 342.19C68.3228 341.817 67.8981 341.63 67.3474 341.63C66.9648 341.63 66.6194 341.733 66.3114 341.938C66.0128 342.134 65.7748 342.428 65.5974 342.82C65.4201 343.203 65.3314 343.679 65.3314 344.248V348H64.3514ZM78.9101 348.168C78.3408 348.168 77.8648 348.065 77.4821 347.86C77.1088 347.655 76.8288 347.389 76.6421 347.062C76.4648 346.735 76.3761 346.376 76.3761 345.984C76.3761 345.499 76.4974 345.088 76.7401 344.752C76.9921 344.416 77.3421 344.164 77.7901 343.996C78.2381 343.828 78.7608 343.744 79.3581 343.744H81.2621C81.2621 343.287 81.1921 342.899 81.0521 342.582C80.9121 342.265 80.7068 342.027 80.4361 341.868C80.1654 341.7 79.8248 341.616 79.4141 341.616C78.9381 341.616 78.5274 341.737 78.1821 341.98C77.8368 342.223 77.6221 342.577 77.5381 343.044H76.5161C76.5721 342.549 76.7401 342.134 77.0201 341.798C77.3094 341.462 77.6641 341.21 78.0841 341.042C78.5041 340.865 78.9474 340.776 79.4141 340.776C80.0674 340.776 80.5994 340.902 81.0101 341.154C81.4208 341.397 81.7288 341.733 81.9341 342.162C82.1394 342.591 82.2421 343.086 82.2421 343.646V348H81.3461L81.2901 346.712C81.2061 346.908 81.0894 347.095 80.9401 347.272C80.8001 347.449 80.6321 347.603 80.4361 347.734C80.2494 347.865 80.0301 347.967 79.7781 348.042C79.5261 348.126 79.2368 348.168 78.9101 348.168ZM79.0221 347.314C79.3674 347.314 79.6754 347.244 79.9461 347.104C80.2261 346.955 80.4641 346.763 80.6601 346.53C80.8561 346.297 81.0054 346.035 81.1081 345.746C81.2108 345.447 81.2621 345.139 81.2621 344.822V344.57H79.4281C78.9334 344.57 78.5368 344.631 78.2381 344.752C77.9394 344.873 77.7248 345.037 77.5941 345.242C77.4634 345.447 77.3981 345.685 77.3981 345.956C77.3981 346.227 77.4588 346.465 77.5801 346.67C77.7014 346.866 77.8834 347.025 78.1261 347.146C78.3781 347.258 78.6768 347.314 79.0221 347.314ZM86.5489 348C86.1475 348 85.8022 347.939 85.5129 347.818C85.2235 347.687 84.9995 347.477 84.8409 347.188C84.6915 346.889 84.6169 346.483 84.6169 345.97V341.784H83.3849V340.944H84.6169L84.7569 339.306H85.5969V340.958H87.7109V341.784H85.5969V345.97C85.5969 346.437 85.6902 346.754 85.8769 346.922C86.0635 347.081 86.3949 347.16 86.8709 347.16H87.5989V348H86.5489ZM89.3742 348V340.944H90.3402V348H89.3742ZM89.8642 339.278C89.6682 339.278 89.5002 339.213 89.3602 339.082C89.2202 338.942 89.1502 338.769 89.1502 338.564C89.1502 338.349 89.2156 338.181 89.3462 338.06C89.4862 337.929 89.6542 337.864 89.8502 337.864C90.0462 337.864 90.2142 337.929 90.3542 338.06C90.4942 338.181 90.5642 338.349 90.5642 338.564C90.5642 338.769 90.4942 338.942 90.3542 339.082C90.2236 339.213 90.0602 339.278 89.8642 339.278ZM92.4745 348V340.944H93.3705L93.4265 342.204C93.6505 341.756 93.9725 341.406 94.3925 341.154C94.8218 340.902 95.2978 340.776 95.8205 340.776C96.3618 340.776 96.8331 340.883 97.2345 341.098C97.6358 341.313 97.9485 341.639 98.1725 342.078C98.3965 342.507 98.5085 343.058 98.5085 343.73V348H97.5285V343.842C97.5285 343.095 97.3651 342.54 97.0385 342.176C96.7118 341.812 96.2451 341.63 95.6385 341.63C95.2278 341.63 94.8545 341.733 94.5185 341.938C94.1918 342.134 93.9305 342.423 93.7345 342.806C93.5478 343.189 93.4545 343.66 93.4545 344.22V348H92.4745ZM103.093 351.248C102.468 351.248 101.912 351.164 101.427 350.996C100.951 350.828 100.573 350.576 100.293 350.24C100.022 349.904 99.8871 349.489 99.8871 348.994C99.8871 348.798 99.9198 348.583 99.9851 348.35C100.06 348.126 100.2 347.897 100.405 347.664C100.61 347.431 100.9 347.221 101.273 347.034L102.071 347.384C101.576 347.617 101.254 347.869 101.105 348.14C100.956 348.42 100.881 348.672 100.881 348.896C100.881 349.232 100.974 349.512 101.161 349.736C101.357 349.96 101.618 350.128 101.945 350.24C102.281 350.361 102.664 350.422 103.093 350.422C103.522 350.422 103.891 350.357 104.199 350.226C104.516 350.105 104.759 349.927 104.927 349.694C105.095 349.47 105.179 349.209 105.179 348.91C105.179 348.565 105.044 348.271 104.773 348.028C104.512 347.795 104.022 347.659 103.303 347.622C102.734 347.585 102.262 347.538 101.889 347.482C101.525 347.417 101.222 347.342 100.979 347.258C100.746 347.165 100.55 347.067 100.391 346.964C100.242 346.861 100.097 346.749 99.9571 346.628V346.306L101.301 345.032L102.197 345.354L100.881 346.53L100.965 346.152C101.068 346.227 101.166 346.297 101.259 346.362C101.362 346.427 101.492 346.483 101.651 346.53C101.819 346.567 102.048 346.609 102.337 346.656C102.636 346.693 103.037 346.731 103.541 346.768C104.185 346.815 104.698 346.927 105.081 347.104C105.464 347.281 105.744 347.519 105.921 347.818C106.098 348.117 106.187 348.467 106.187 348.868C106.187 349.269 106.075 349.652 105.851 350.016C105.636 350.38 105.3 350.674 104.843 350.898C104.395 351.131 103.812 351.248 103.093 351.248ZM103.079 345.76C102.482 345.76 101.978 345.648 101.567 345.424C101.166 345.2 100.858 344.901 100.643 344.528C100.428 344.145 100.321 343.725 100.321 343.268C100.321 342.801 100.428 342.381 100.643 342.008C100.858 341.635 101.17 341.336 101.581 341.112C101.992 340.888 102.491 340.776 103.079 340.776C103.676 340.776 104.176 340.888 104.577 341.112C104.988 341.336 105.296 341.635 105.501 342.008C105.716 342.381 105.823 342.801 105.823 343.268C105.823 343.725 105.716 344.145 105.501 344.528C105.296 344.901 104.988 345.2 104.577 345.424C104.176 345.648 103.676 345.76 103.079 345.76ZM103.079 344.92C103.62 344.92 104.045 344.78 104.353 344.5C104.67 344.211 104.829 343.8 104.829 343.268C104.829 342.727 104.67 342.316 104.353 342.036C104.045 341.756 103.62 341.616 103.079 341.616C102.538 341.616 102.104 341.756 101.777 342.036C101.46 342.316 101.301 342.727 101.301 343.268C101.301 343.8 101.46 344.211 101.777 344.5C102.094 344.78 102.528 344.92 103.079 344.92ZM104.227 341.826L103.877 340.944H106.733V341.742L104.227 341.826ZM111.943 351.08V340.944H112.839L112.923 342.218C113.073 341.966 113.269 341.733 113.511 341.518C113.754 341.294 114.043 341.117 114.379 340.986C114.725 340.846 115.117 340.776 115.555 340.776C116.237 340.776 116.829 340.939 117.333 341.266C117.847 341.593 118.243 342.036 118.523 342.596C118.803 343.147 118.943 343.777 118.943 344.486C118.943 345.195 118.799 345.83 118.509 346.39C118.229 346.941 117.837 347.375 117.333 347.692C116.829 348.009 116.232 348.168 115.541 348.168C114.944 348.168 114.417 348.042 113.959 347.79C113.511 347.529 113.166 347.165 112.923 346.698V351.08H111.943ZM115.471 347.314C115.957 347.314 116.381 347.197 116.745 346.964C117.119 346.731 117.413 346.404 117.627 345.984C117.842 345.555 117.949 345.051 117.949 344.472C117.949 343.903 117.842 343.403 117.627 342.974C117.413 342.545 117.119 342.213 116.745 341.98C116.381 341.747 115.957 341.63 115.471 341.63C114.986 341.63 114.552 341.747 114.169 341.98C113.796 342.213 113.502 342.545 113.287 342.974C113.082 343.394 112.979 343.893 112.979 344.472C112.979 345.041 113.082 345.541 113.287 345.97C113.502 346.399 113.796 346.731 114.169 346.964C114.552 347.197 114.986 347.314 115.471 347.314ZM120.625 348V340.944H121.521L121.591 342.302C121.74 341.975 121.941 341.7 122.193 341.476C122.445 341.252 122.748 341.079 123.103 340.958C123.458 340.837 123.859 340.776 124.307 340.776V341.798H123.929C123.63 341.798 123.341 341.84 123.061 341.924C122.781 341.999 122.534 342.129 122.319 342.316C122.104 342.503 121.932 342.755 121.801 343.072C121.67 343.389 121.605 343.786 121.605 344.262V348H120.625ZM128.491 348.168C127.847 348.168 127.263 348.019 126.741 347.72C126.227 347.412 125.821 346.983 125.523 346.432C125.224 345.872 125.075 345.223 125.075 344.486C125.075 343.721 125.224 343.063 125.523 342.512C125.831 341.961 126.246 341.537 126.769 341.238C127.291 340.93 127.875 340.776 128.519 340.776C129.191 340.776 129.783 340.93 130.297 341.238C130.81 341.537 131.216 341.961 131.515 342.512C131.813 343.063 131.963 343.721 131.963 344.486C131.963 345.223 131.809 345.872 131.501 346.432C131.202 346.983 130.791 347.412 130.269 347.72C129.755 348.019 129.163 348.168 128.491 348.168ZM128.505 347.328C128.943 347.328 129.345 347.221 129.709 347.006C130.082 346.791 130.381 346.474 130.605 346.054C130.838 345.625 130.955 345.097 130.955 344.472C130.955 343.837 130.843 343.31 130.619 342.89C130.395 342.47 130.096 342.157 129.723 341.952C129.359 341.737 128.957 341.63 128.519 341.63C128.099 341.63 127.702 341.737 127.329 341.952C126.955 342.167 126.652 342.484 126.419 342.904C126.195 343.315 126.083 343.837 126.083 344.472C126.083 345.097 126.195 345.625 126.419 346.054C126.643 346.474 126.937 346.791 127.301 347.006C127.674 347.221 128.075 347.328 128.505 347.328ZM133.64 351.08V340.944H134.536L134.62 342.218C134.77 341.966 134.966 341.733 135.208 341.518C135.451 341.294 135.74 341.117 136.076 340.986C136.422 340.846 136.814 340.776 137.252 340.776C137.934 340.776 138.526 340.939 139.03 341.266C139.544 341.593 139.94 342.036 140.22 342.596C140.5 343.147 140.64 343.777 140.64 344.486C140.64 345.195 140.496 345.83 140.206 346.39C139.926 346.941 139.534 347.375 139.03 347.692C138.526 348.009 137.929 348.168 137.238 348.168C136.641 348.168 136.114 348.042 135.656 347.79C135.208 347.529 134.863 347.165 134.62 346.698V351.08H133.64ZM137.168 347.314C137.654 347.314 138.078 347.197 138.442 346.964C138.816 346.731 139.11 346.404 139.324 345.984C139.539 345.555 139.646 345.051 139.646 344.472C139.646 343.903 139.539 343.403 139.324 342.974C139.11 342.545 138.816 342.213 138.442 341.98C138.078 341.747 137.654 341.63 137.168 341.63C136.683 341.63 136.249 341.747 135.866 341.98C135.493 342.213 135.199 342.545 134.984 342.974C134.779 343.394 134.676 343.893 134.676 344.472C134.676 345.041 134.779 345.541 134.984 345.97C135.199 346.399 135.493 346.731 135.866 346.964C136.249 347.197 136.683 347.314 137.168 347.314ZM145.346 348.168C144.693 348.168 144.114 348.014 143.61 347.706C143.115 347.398 142.723 346.969 142.434 346.418C142.154 345.858 142.014 345.205 142.014 344.458C142.014 343.711 142.154 343.063 142.434 342.512C142.714 341.961 143.106 341.537 143.61 341.238C144.123 340.93 144.711 340.776 145.374 340.776C146.055 340.776 146.629 340.93 147.096 341.238C147.572 341.546 147.931 341.947 148.174 342.442C148.426 342.937 148.552 343.478 148.552 344.066C148.552 344.159 148.552 344.257 148.552 344.36C148.552 344.453 148.547 344.565 148.538 344.696H142.756V343.87H147.6C147.581 343.151 147.357 342.596 146.928 342.204C146.508 341.812 145.976 341.616 145.332 341.616C144.912 341.616 144.52 341.714 144.156 341.91C143.801 342.097 143.512 342.377 143.288 342.75C143.073 343.114 142.966 343.576 142.966 344.136V344.5C142.966 345.135 143.078 345.662 143.302 346.082C143.526 346.502 143.82 346.815 144.184 347.02C144.557 347.225 144.945 347.328 145.346 347.328C145.878 347.328 146.317 347.211 146.662 346.978C147.007 346.735 147.255 346.404 147.404 345.984H148.37C148.249 346.395 148.053 346.768 147.782 347.104C147.521 347.44 147.185 347.701 146.774 347.888C146.363 348.075 145.887 348.168 145.346 348.168ZM150.156 348V340.944H151.052L151.122 342.302C151.271 341.975 151.472 341.7 151.724 341.476C151.976 341.252 152.279 341.079 152.634 340.958C152.989 340.837 153.39 340.776 153.838 340.776V341.798H153.46C153.161 341.798 152.872 341.84 152.592 341.924C152.312 341.999 152.065 342.129 151.85 342.316C151.635 342.503 151.463 342.755 151.332 343.072C151.201 343.389 151.136 343.786 151.136 344.262V348H150.156ZM157.889 348C157.487 348 157.142 347.939 156.853 347.818C156.563 347.687 156.339 347.477 156.181 347.188C156.031 346.889 155.957 346.483 155.957 345.97V341.784H154.725V340.944H155.957L156.097 339.306H156.937V340.958H159.051V341.784H156.937V345.97C156.937 346.437 157.03 346.754 157.217 346.922C157.403 347.081 157.735 347.16 158.211 347.16H158.939V348H157.889ZM161.302 351.08L163.038 347.216H162.66L159.874 340.944H160.938L163.346 346.544L165.88 340.944H166.888L162.324 351.08H161.302ZM15.994 367V356.92H16.974V367H15.994ZM19.1008 367V359.944H20.0668V367H19.1008ZM19.5908 358.278C19.3948 358.278 19.2268 358.213 19.0868 358.082C18.9468 357.942 18.8768 357.769 18.8768 357.564C18.8768 357.349 18.9421 357.181 19.0728 357.06C19.2128 356.929 19.3808 356.864 19.5768 356.864C19.7728 356.864 19.9408 356.929 20.0808 357.06C20.2208 357.181 20.2908 357.349 20.2908 357.564C20.2908 357.769 20.2208 357.942 20.0808 358.082C19.9501 358.213 19.7868 358.278 19.5908 358.278ZM24.791 367.168C24.231 367.168 23.7364 367.075 23.307 366.888C22.887 366.701 22.5464 366.435 22.285 366.09C22.033 365.735 21.879 365.315 21.823 364.83H22.831C22.887 365.101 22.9944 365.348 23.153 365.572C23.321 365.796 23.545 365.978 23.825 366.118C24.105 366.249 24.4364 366.314 24.819 366.314C25.1737 366.314 25.463 366.263 25.687 366.16C25.9204 366.048 26.093 365.903 26.205 365.726C26.3264 365.539 26.387 365.334 26.387 365.11C26.387 364.802 26.3124 364.564 26.163 364.396C26.023 364.219 25.8177 364.088 25.547 364.004C25.2764 363.92 24.9497 363.841 24.567 363.766C24.2497 363.71 23.9464 363.635 23.657 363.542C23.3677 363.449 23.1064 363.327 22.873 363.178C22.649 363.029 22.4717 362.842 22.341 362.618C22.2104 362.385 22.145 362.114 22.145 361.806C22.145 361.405 22.243 361.055 22.439 360.756C22.6444 360.448 22.9337 360.21 23.307 360.042C23.6804 359.865 24.119 359.776 24.623 359.776C25.3417 359.776 25.9297 359.958 26.387 360.322C26.8444 360.677 27.1104 361.199 27.185 361.89H26.205C26.1677 361.507 26.009 361.204 25.729 360.98C25.449 360.756 25.071 360.644 24.595 360.644C24.1284 360.644 23.769 360.742 23.517 360.938C23.2744 361.125 23.153 361.381 23.153 361.708C23.153 361.913 23.2184 362.091 23.349 362.24C23.4797 362.389 23.671 362.52 23.923 362.632C24.1844 362.735 24.5017 362.823 24.875 362.898C25.323 362.982 25.7337 363.094 26.107 363.234C26.4897 363.365 26.7977 363.57 27.031 363.85C27.2737 364.121 27.395 364.508 27.395 365.012C27.4044 365.432 27.3017 365.805 27.087 366.132C26.8724 366.459 26.569 366.715 26.177 366.902C25.785 367.079 25.323 367.168 24.791 367.168ZM31.4649 367C31.0635 367 30.7182 366.939 30.4289 366.818C30.1395 366.687 29.9155 366.477 29.7569 366.188C29.6075 365.889 29.5329 365.483 29.5329 364.97V360.784H28.3009V359.944H29.5329L29.6729 358.306H30.5129V359.958H32.6269V360.784H30.5129V364.97C30.5129 365.437 30.6062 365.754 30.7929 365.922C30.9795 366.081 31.3109 366.16 31.7869 366.16H32.5149V367H31.4649ZM34.2903 367V359.944H35.2563V367H34.2903ZM34.7803 358.278C34.5843 358.278 34.4163 358.213 34.2763 358.082C34.1363 357.942 34.0663 357.769 34.0663 357.564C34.0663 357.349 34.1316 357.181 34.2623 357.06C34.4023 356.929 34.5703 356.864 34.7663 356.864C34.9623 356.864 35.1303 356.929 35.2703 357.06C35.4103 357.181 35.4803 357.349 35.4803 357.564C35.4803 357.769 35.4103 357.942 35.2703 358.082C35.1396 358.213 34.9763 358.278 34.7803 358.278ZM37.3905 367V359.944H38.2865L38.3425 361.204C38.5665 360.756 38.8885 360.406 39.3085 360.154C39.7378 359.902 40.2138 359.776 40.7365 359.776C41.2778 359.776 41.7492 359.883 42.1505 360.098C42.5518 360.313 42.8645 360.639 43.0885 361.078C43.3125 361.507 43.4245 362.058 43.4245 362.73V367H42.4445V362.842C42.4445 362.095 42.2812 361.54 41.9545 361.176C41.6278 360.812 41.1612 360.63 40.5545 360.63C40.1438 360.63 39.7705 360.733 39.4345 360.938C39.1078 361.134 38.8465 361.423 38.6505 361.806C38.4638 362.189 38.3705 362.66 38.3705 363.22V367H37.3905ZM48.0092 370.248C47.3838 370.248 46.8285 370.164 46.3432 369.996C45.8672 369.828 45.4892 369.576 45.2092 369.24C44.9385 368.904 44.8032 368.489 44.8032 367.994C44.8032 367.798 44.8358 367.583 44.9012 367.35C44.9758 367.126 45.1158 366.897 45.3212 366.664C45.5265 366.431 45.8158 366.221 46.1892 366.034L46.9872 366.384C46.4925 366.617 46.1705 366.869 46.0212 367.14C45.8718 367.42 45.7972 367.672 45.7972 367.896C45.7972 368.232 45.8905 368.512 46.0772 368.736C46.2732 368.96 46.5345 369.128 46.8612 369.24C47.1972 369.361 47.5798 369.422 48.0092 369.422C48.4385 369.422 48.8072 369.357 49.1152 369.226C49.4325 369.105 49.6752 368.927 49.8432 368.694C50.0112 368.47 50.0952 368.209 50.0952 367.91C50.0952 367.565 49.9598 367.271 49.6892 367.028C49.4278 366.795 48.9378 366.659 48.2192 366.622C47.6498 366.585 47.1785 366.538 46.8052 366.482C46.4412 366.417 46.1378 366.342 45.8952 366.258C45.6618 366.165 45.4658 366.067 45.3072 365.964C45.1578 365.861 45.0132 365.749 44.8732 365.628V365.306L46.2172 364.032L47.1132 364.354L45.7972 365.53L45.8812 365.152C45.9838 365.227 46.0818 365.297 46.1752 365.362C46.2778 365.427 46.4085 365.483 46.5672 365.53C46.7352 365.567 46.9638 365.609 47.2532 365.656C47.5518 365.693 47.9532 365.731 48.4572 365.768C49.1012 365.815 49.6145 365.927 49.9972 366.104C50.3798 366.281 50.6598 366.519 50.8372 366.818C51.0145 367.117 51.1032 367.467 51.1032 367.868C51.1032 368.269 50.9912 368.652 50.7672 369.016C50.5525 369.38 50.2165 369.674 49.7592 369.898C49.3112 370.131 48.7278 370.248 48.0092 370.248ZM47.9952 364.76C47.3978 364.76 46.8938 364.648 46.4832 364.424C46.0818 364.2 45.7738 363.901 45.5592 363.528C45.3445 363.145 45.2372 362.725 45.2372 362.268C45.2372 361.801 45.3445 361.381 45.5592 361.008C45.7738 360.635 46.0865 360.336 46.4972 360.112C46.9078 359.888 47.4072 359.776 47.9952 359.776C48.5925 359.776 49.0918 359.888 49.4932 360.112C49.9038 360.336 50.2118 360.635 50.4172 361.008C50.6318 361.381 50.7392 361.801 50.7392 362.268C50.7392 362.725 50.6318 363.145 50.4172 363.528C50.2118 363.901 49.9038 364.2 49.4932 364.424C49.0918 364.648 48.5925 364.76 47.9952 364.76ZM47.9952 363.92C48.5365 363.92 48.9612 363.78 49.2692 363.5C49.5865 363.211 49.7452 362.8 49.7452 362.268C49.7452 361.727 49.5865 361.316 49.2692 361.036C48.9612 360.756 48.5365 360.616 47.9952 360.616C47.4538 360.616 47.0198 360.756 46.6932 361.036C46.3758 361.316 46.2172 361.727 46.2172 362.268C46.2172 362.8 46.3758 363.211 46.6932 363.5C47.0105 363.78 47.4445 363.92 47.9952 363.92ZM49.1432 360.826L48.7932 359.944H51.6492V360.742L49.1432 360.826ZM55.5938 367.168C55.0338 367.168 54.5391 367.075 54.1098 366.888C53.6898 366.701 53.3491 366.435 53.0878 366.09C52.8358 365.735 52.6818 365.315 52.6258 364.83H53.6338C53.6898 365.101 53.7971 365.348 53.9558 365.572C54.1238 365.796 54.3478 365.978 54.6278 366.118C54.9078 366.249 55.2391 366.314 55.6218 366.314C55.9764 366.314 56.2658 366.263 56.4898 366.16C56.7231 366.048 56.8958 365.903 57.0078 365.726C57.1291 365.539 57.1898 365.334 57.1898 365.11C57.1898 364.802 57.1151 364.564 56.9658 364.396C56.8258 364.219 56.6204 364.088 56.3498 364.004C56.0791 363.92 55.7524 363.841 55.3698 363.766C55.0524 363.71 54.7491 363.635 54.4598 363.542C54.1704 363.449 53.9091 363.327 53.6758 363.178C53.4518 363.029 53.2744 362.842 53.1438 362.618C53.0131 362.385 52.9478 362.114 52.9478 361.806C52.9478 361.405 53.0458 361.055 53.2418 360.756C53.4471 360.448 53.7364 360.21 54.1098 360.042C54.4831 359.865 54.9218 359.776 55.4258 359.776C56.1444 359.776 56.7324 359.958 57.1898 360.322C57.6471 360.677 57.9131 361.199 57.9878 361.89H57.0078C56.9704 361.507 56.8118 361.204 56.5318 360.98C56.2518 360.756 55.8738 360.644 55.3978 360.644C54.9311 360.644 54.5718 360.742 54.3198 360.938C54.0771 361.125 53.9558 361.381 53.9558 361.708C53.9558 361.913 54.0211 362.091 54.1518 362.24C54.2824 362.389 54.4738 362.52 54.7258 362.632C54.9871 362.735 55.3044 362.823 55.6778 362.898C56.1258 362.982 56.5364 363.094 56.9098 363.234C57.2924 363.365 57.6004 363.57 57.8338 363.85C58.0764 364.121 58.1978 364.508 58.1978 365.012C58.2071 365.432 58.1044 365.805 57.8898 366.132C57.6751 366.459 57.3718 366.715 56.9798 366.902C56.5878 367.079 56.1258 367.168 55.5938 367.168ZM66.0449 367.168C65.4755 367.168 64.9995 367.065 64.6169 366.86C64.2435 366.655 63.9635 366.389 63.7769 366.062C63.5995 365.735 63.5109 365.376 63.5109 364.984C63.5109 364.499 63.6322 364.088 63.8749 363.752C64.1269 363.416 64.4769 363.164 64.9249 362.996C65.3729 362.828 65.8955 362.744 66.4929 362.744H68.3969C68.3969 362.287 68.3269 361.899 68.1869 361.582C68.0469 361.265 67.8415 361.027 67.5709 360.868C67.3002 360.7 66.9595 360.616 66.5489 360.616C66.0729 360.616 65.6622 360.737 65.3169 360.98C64.9715 361.223 64.7569 361.577 64.6729 362.044H63.6509C63.7069 361.549 63.8749 361.134 64.1549 360.798C64.4442 360.462 64.7989 360.21 65.2189 360.042C65.6389 359.865 66.0822 359.776 66.5489 359.776C67.2022 359.776 67.7342 359.902 68.1449 360.154C68.5555 360.397 68.8635 360.733 69.0689 361.162C69.2742 361.591 69.3769 362.086 69.3769 362.646V367H68.4809L68.4249 365.712C68.3409 365.908 68.2242 366.095 68.0749 366.272C67.9349 366.449 67.7669 366.603 67.5709 366.734C67.3842 366.865 67.1649 366.967 66.9129 367.042C66.6609 367.126 66.3715 367.168 66.0449 367.168ZM66.1569 366.314C66.5022 366.314 66.8102 366.244 67.0809 366.104C67.3609 365.955 67.5989 365.763 67.7949 365.53C67.9909 365.297 68.1402 365.035 68.2429 364.746C68.3455 364.447 68.3969 364.139 68.3969 363.822V363.57H66.5629C66.0682 363.57 65.6715 363.631 65.3729 363.752C65.0742 363.873 64.8595 364.037 64.7289 364.242C64.5982 364.447 64.5329 364.685 64.5329 364.956C64.5329 365.227 64.5935 365.465 64.7149 365.67C64.8362 365.866 65.0182 366.025 65.2609 366.146C65.5129 366.258 65.8115 366.314 66.1569 366.314ZM74.3364 367.168C73.683 367.168 73.0997 367.014 72.5864 366.706C72.073 366.398 71.667 365.969 71.3684 365.418C71.0697 364.858 70.9204 364.214 70.9204 363.486C70.9204 362.73 71.0697 362.081 71.3684 361.54C71.667 360.989 72.073 360.56 72.5864 360.252C73.109 359.935 73.6924 359.776 74.3364 359.776C75.1577 359.776 75.839 359.991 76.3804 360.42C76.931 360.84 77.281 361.4 77.4304 362.1H76.4504C76.3477 361.633 76.1004 361.274 75.7084 361.022C75.3257 360.761 74.8637 360.63 74.3224 360.63C73.9024 360.63 73.5104 360.737 73.1464 360.952C72.7824 361.157 72.4884 361.47 72.2644 361.89C72.0404 362.31 71.9284 362.842 71.9284 363.486C71.9284 363.962 71.9937 364.377 72.1244 364.732C72.255 365.087 72.4324 365.385 72.6564 365.628C72.8804 365.861 73.137 366.039 73.4264 366.16C73.7157 366.281 74.0144 366.342 74.3224 366.342C74.677 366.342 74.999 366.286 75.2884 366.174C75.587 366.053 75.839 365.88 76.0444 365.656C76.2497 365.432 76.385 365.161 76.4504 364.844H77.4304C77.2904 365.525 76.945 366.085 76.3944 366.524C75.8437 366.953 75.1577 367.168 74.3364 367.168ZM79.117 367V359.944H80.013L80.083 361.302C80.2324 360.975 80.433 360.7 80.685 360.476C80.937 360.252 81.2404 360.079 81.595 359.958C81.9497 359.837 82.351 359.776 82.799 359.776V360.798H82.421C82.1224 360.798 81.833 360.84 81.553 360.924C81.273 360.999 81.0257 361.129 80.811 361.316C80.5964 361.503 80.4237 361.755 80.293 362.072C80.1624 362.389 80.097 362.786 80.097 363.262V367H79.117ZM86.9829 367.168C86.3389 367.168 85.7555 367.019 85.2329 366.72C84.7195 366.412 84.3135 365.983 84.0149 365.432C83.7162 364.872 83.5669 364.223 83.5669 363.486C83.5669 362.721 83.7162 362.063 84.0149 361.512C84.3229 360.961 84.7382 360.537 85.2609 360.238C85.7835 359.93 86.3669 359.776 87.0109 359.776C87.6829 359.776 88.2755 359.93 88.7889 360.238C89.3022 360.537 89.7082 360.961 90.0069 361.512C90.3055 362.063 90.4549 362.721 90.4549 363.486C90.4549 364.223 90.3009 364.872 89.9929 365.432C89.6942 365.983 89.2835 366.412 88.7609 366.72C88.2475 367.019 87.6549 367.168 86.9829 367.168ZM86.9969 366.328C87.4355 366.328 87.8369 366.221 88.2009 366.006C88.5742 365.791 88.8729 365.474 89.0969 365.054C89.3302 364.625 89.4469 364.097 89.4469 363.472C89.4469 362.837 89.3349 362.31 89.1109 361.89C88.8869 361.47 88.5882 361.157 88.2149 360.952C87.8509 360.737 87.4495 360.63 87.0109 360.63C86.5909 360.63 86.1942 360.737 85.8209 360.952C85.4475 361.167 85.1442 361.484 84.9109 361.904C84.6869 362.315 84.5749 362.837 84.5749 363.472C84.5749 364.097 84.6869 364.625 84.9109 365.054C85.1349 365.474 85.4289 365.791 85.7929 366.006C86.1662 366.221 86.5675 366.328 86.9969 366.328ZM94.7227 367.168C94.1627 367.168 93.668 367.075 93.2387 366.888C92.8187 366.701 92.478 366.435 92.2167 366.09C91.9647 365.735 91.8107 365.315 91.7547 364.83H92.7627C92.8187 365.101 92.926 365.348 93.0847 365.572C93.2527 365.796 93.4767 365.978 93.7567 366.118C94.0367 366.249 94.368 366.314 94.7507 366.314C95.1053 366.314 95.3947 366.263 95.6187 366.16C95.852 366.048 96.0247 365.903 96.1367 365.726C96.258 365.539 96.3187 365.334 96.3187 365.11C96.3187 364.802 96.244 364.564 96.0947 364.396C95.9547 364.219 95.7493 364.088 95.4787 364.004C95.208 363.92 94.8813 363.841 94.4987 363.766C94.1813 363.71 93.878 363.635 93.5887 363.542C93.2993 363.449 93.038 363.327 92.8047 363.178C92.5807 363.029 92.4033 362.842 92.2727 362.618C92.142 362.385 92.0767 362.114 92.0767 361.806C92.0767 361.405 92.1747 361.055 92.3707 360.756C92.576 360.448 92.8653 360.21 93.2387 360.042C93.612 359.865 94.0507 359.776 94.5547 359.776C95.2733 359.776 95.8613 359.958 96.3187 360.322C96.776 360.677 97.042 361.199 97.1167 361.89H96.1367C96.0993 361.507 95.9407 361.204 95.6607 360.98C95.3807 360.756 95.0027 360.644 94.5267 360.644C94.06 360.644 93.7007 360.742 93.4487 360.938C93.206 361.125 93.0847 361.381 93.0847 361.708C93.0847 361.913 93.15 362.091 93.2807 362.24C93.4113 362.389 93.6027 362.52 93.8547 362.632C94.116 362.735 94.4333 362.823 94.8067 362.898C95.2547 362.982 95.6653 363.094 96.0387 363.234C96.4213 363.365 96.7293 363.57 96.9627 363.85C97.2053 364.121 97.3267 364.508 97.3267 365.012C97.336 365.432 97.2333 365.805 97.0187 366.132C96.804 366.459 96.5007 366.715 96.1087 366.902C95.7167 367.079 95.2547 367.168 94.7227 367.168ZM101.654 367.168C101.094 367.168 100.6 367.075 100.17 366.888C99.7503 366.701 99.4096 366.435 99.1483 366.09C98.8963 365.735 98.7423 365.315 98.6863 364.83H99.6943C99.7503 365.101 99.8576 365.348 100.016 365.572C100.184 365.796 100.408 365.978 100.688 366.118C100.968 366.249 101.3 366.314 101.682 366.314C102.037 366.314 102.326 366.263 102.55 366.16C102.784 366.048 102.956 365.903 103.068 365.726C103.19 365.539 103.25 365.334 103.25 365.11C103.25 364.802 103.176 364.564 103.026 364.396C102.886 364.219 102.681 364.088 102.41 364.004C102.14 363.92 101.813 363.841 101.43 363.766C101.113 363.71 100.81 363.635 100.52 363.542C100.231 363.449 99.9696 363.327 99.7363 363.178C99.5123 363.029 99.335 362.842 99.2043 362.618C99.0736 362.385 99.0083 362.114 99.0083 361.806C99.0083 361.405 99.1063 361.055 99.3023 360.756C99.5076 360.448 99.797 360.21 100.17 360.042C100.544 359.865 100.982 359.776 101.486 359.776C102.205 359.776 102.793 359.958 103.25 360.322C103.708 360.677 103.974 361.199 104.048 361.89H103.068C103.031 361.507 102.872 361.204 102.592 360.98C102.312 360.756 101.934 360.644 101.458 360.644C100.992 360.644 100.632 360.742 100.38 360.938C100.138 361.125 100.016 361.381 100.016 361.708C100.016 361.913 100.082 362.091 100.212 362.24C100.343 362.389 100.534 362.52 100.786 362.632C101.048 362.735 101.365 362.823 101.738 362.898C102.186 362.982 102.597 363.094 102.97 363.234C103.353 363.365 103.661 363.57 103.894 363.85C104.137 364.121 104.258 364.508 104.258 365.012C104.268 365.432 104.165 365.805 103.95 366.132C103.736 366.459 103.432 366.715 103.04 366.902C102.648 367.079 102.186 367.168 101.654 367.168ZM109.851 367V359.944H110.747L110.817 361.008C111.032 360.616 111.331 360.313 111.713 360.098C112.096 359.883 112.521 359.776 112.987 359.776C113.333 359.776 113.655 359.827 113.953 359.93C114.252 360.033 114.513 360.187 114.737 360.392C114.971 360.597 115.153 360.863 115.283 361.19C115.517 360.751 115.843 360.406 116.263 360.154C116.693 359.902 117.15 359.776 117.635 359.776C118.177 359.776 118.643 359.883 119.035 360.098C119.437 360.313 119.749 360.639 119.973 361.078C120.197 361.517 120.309 362.072 120.309 362.744V367H119.329V362.856C119.329 362.109 119.175 361.554 118.867 361.19C118.559 360.817 118.13 360.63 117.579 360.63C117.206 360.63 116.865 360.733 116.557 360.938C116.249 361.134 116.007 361.423 115.829 361.806C115.652 362.179 115.563 362.646 115.563 363.206V367H114.583V362.856C114.583 362.109 114.429 361.554 114.121 361.19C113.823 360.817 113.398 360.63 112.847 360.63C112.465 360.63 112.119 360.733 111.811 360.938C111.513 361.134 111.275 361.428 111.097 361.82C110.92 362.203 110.831 362.679 110.831 363.248V367H109.851ZM124.704 367.168C124.172 367.168 123.701 367.065 123.29 366.86C122.889 366.645 122.576 366.323 122.352 365.894C122.128 365.455 122.016 364.895 122.016 364.214V359.944H122.996V364.102C122.996 364.849 123.159 365.404 123.486 365.768C123.822 366.132 124.284 366.314 124.872 366.314C125.292 366.314 125.665 366.216 125.992 366.02C126.328 365.824 126.589 365.535 126.776 365.152C126.972 364.76 127.07 364.284 127.07 363.724V359.944H128.05V367H127.154L127.098 365.74C126.874 366.197 126.547 366.552 126.118 366.804C125.698 367.047 125.227 367.168 124.704 367.168ZM130.045 367V356.92H131.025V367H130.045ZM135.686 367C135.284 367 134.939 366.939 134.65 366.818C134.36 366.687 134.136 366.477 133.978 366.188C133.828 365.889 133.754 365.483 133.754 364.97V360.784H132.522V359.944H133.754L133.894 358.306H134.734V359.958H136.848V360.784H134.734V364.97C134.734 365.437 134.827 365.754 135.014 365.922C135.2 366.081 135.532 366.16 136.008 366.16H136.736V367H135.686ZM138.511 367V359.944H139.477V367H138.511ZM139.001 358.278C138.805 358.278 138.637 358.213 138.497 358.082C138.357 357.942 138.287 357.769 138.287 357.564C138.287 357.349 138.352 357.181 138.483 357.06C138.623 356.929 138.791 356.864 138.987 356.864C139.183 356.864 139.351 356.929 139.491 357.06C139.631 357.181 139.701 357.349 139.701 357.564C139.701 357.769 139.631 357.942 139.491 358.082C139.36 358.213 139.197 358.278 139.001 358.278ZM141.611 370.08V359.944H142.507L142.591 361.218C142.741 360.966 142.937 360.733 143.179 360.518C143.422 360.294 143.711 360.117 144.047 359.986C144.393 359.846 144.785 359.776 145.223 359.776C145.905 359.776 146.497 359.939 147.001 360.266C147.515 360.593 147.911 361.036 148.191 361.596C148.471 362.147 148.611 362.777 148.611 363.486C148.611 364.195 148.467 364.83 148.177 365.39C147.897 365.941 147.505 366.375 147.001 366.692C146.497 367.009 145.9 367.168 145.209 367.168C144.612 367.168 144.085 367.042 143.627 366.79C143.179 366.529 142.834 366.165 142.591 365.698V370.08H141.611ZM145.139 366.314C145.625 366.314 146.049 366.197 146.413 365.964C146.787 365.731 147.081 365.404 147.295 364.984C147.51 364.555 147.617 364.051 147.617 363.472C147.617 362.903 147.51 362.403 147.295 361.974C147.081 361.545 146.787 361.213 146.413 360.98C146.049 360.747 145.625 360.63 145.139 360.63C144.654 360.63 144.22 360.747 143.837 360.98C143.464 361.213 143.17 361.545 142.955 361.974C142.75 362.394 142.647 362.893 142.647 363.472C142.647 364.041 142.75 364.541 142.955 364.97C143.17 365.399 143.464 365.731 143.837 365.964C144.22 366.197 144.654 366.314 145.139 366.314ZM150.293 367V356.92H151.273V367H150.293ZM156.284 367.168C155.63 367.168 155.052 367.014 154.548 366.706C154.053 366.398 153.661 365.969 153.372 365.418C153.092 364.858 152.952 364.205 152.952 363.458C152.952 362.711 153.092 362.063 153.372 361.512C153.652 360.961 154.044 360.537 154.548 360.238C155.061 359.93 155.649 359.776 156.312 359.776C156.993 359.776 157.567 359.93 158.034 360.238C158.51 360.546 158.869 360.947 159.112 361.442C159.364 361.937 159.49 362.478 159.49 363.066C159.49 363.159 159.49 363.257 159.49 363.36C159.49 363.453 159.485 363.565 159.476 363.696H153.694V362.87H158.538C158.519 362.151 158.295 361.596 157.866 361.204C157.446 360.812 156.914 360.616 156.27 360.616C155.85 360.616 155.458 360.714 155.094 360.91C154.739 361.097 154.45 361.377 154.226 361.75C154.011 362.114 153.904 362.576 153.904 363.136V363.5C153.904 364.135 154.016 364.662 154.24 365.082C154.464 365.502 154.758 365.815 155.122 366.02C155.495 366.225 155.882 366.328 156.284 366.328C156.816 366.328 157.254 366.211 157.6 365.978C157.945 365.735 158.192 365.404 158.342 364.984H159.308C159.186 365.395 158.99 365.768 158.72 366.104C158.458 366.44 158.122 366.701 157.712 366.888C157.301 367.075 156.825 367.168 156.284 367.168ZM19.102 386.168C18.4487 386.168 17.8653 386.014 17.352 385.706C16.8387 385.398 16.4327 384.969 16.134 384.418C15.8353 383.858 15.686 383.214 15.686 382.486C15.686 381.73 15.8353 381.081 16.134 380.54C16.4327 379.989 16.8387 379.56 17.352 379.252C17.8747 378.935 18.458 378.776 19.102 378.776C19.9233 378.776 20.6047 378.991 21.146 379.42C21.6967 379.84 22.0467 380.4 22.196 381.1H21.216C21.1133 380.633 20.866 380.274 20.474 380.022C20.0913 379.761 19.6293 379.63 19.088 379.63C18.668 379.63 18.276 379.737 17.912 379.952C17.548 380.157 17.254 380.47 17.03 380.89C16.806 381.31 16.694 381.842 16.694 382.486C16.694 382.962 16.7593 383.377 16.89 383.732C17.0207 384.087 17.198 384.385 17.422 384.628C17.646 384.861 17.9027 385.039 18.192 385.16C18.4813 385.281 18.78 385.342 19.088 385.342C19.4427 385.342 19.7647 385.286 20.054 385.174C20.3527 385.053 20.6047 384.88 20.81 384.656C21.0153 384.432 21.1507 384.161 21.216 383.844H22.196C22.056 384.525 21.7107 385.085 21.16 385.524C20.6093 385.953 19.9233 386.168 19.102 386.168ZM23.8827 386V375.92H24.8627V380.204C25.1053 379.756 25.4413 379.406 25.8707 379.154C26.3 378.902 26.7713 378.776 27.2847 378.776C27.8167 378.776 28.2787 378.883 28.6707 379.098C29.072 379.313 29.38 379.639 29.5947 380.078C29.8187 380.517 29.9307 381.077 29.9307 381.758V386H28.9647V381.87C28.9647 381.114 28.806 380.554 28.4887 380.19C28.1807 379.817 27.7233 379.63 27.1167 379.63C26.6967 379.63 26.314 379.733 25.9687 379.938C25.6327 380.143 25.362 380.442 25.1567 380.834C24.9607 381.217 24.8627 381.693 24.8627 382.262V386H23.8827ZM34.039 386.168C33.4697 386.168 32.9937 386.065 32.611 385.86C32.2377 385.655 31.9577 385.389 31.771 385.062C31.5937 384.735 31.505 384.376 31.505 383.984C31.505 383.499 31.6263 383.088 31.869 382.752C32.121 382.416 32.471 382.164 32.919 381.996C33.367 381.828 33.8897 381.744 34.487 381.744H36.391C36.391 381.287 36.321 380.899 36.181 380.582C36.041 380.265 35.8357 380.027 35.565 379.868C35.2943 379.7 34.9537 379.616 34.543 379.616C34.067 379.616 33.6563 379.737 33.311 379.98C32.9657 380.223 32.751 380.577 32.667 381.044H31.645C31.701 380.549 31.869 380.134 32.149 379.798C32.4383 379.462 32.793 379.21 33.213 379.042C33.633 378.865 34.0763 378.776 34.543 378.776C35.1963 378.776 35.7283 378.902 36.139 379.154C36.5497 379.397 36.8577 379.733 37.063 380.162C37.2683 380.591 37.371 381.086 37.371 381.646V386H36.475L36.419 384.712C36.335 384.908 36.2183 385.095 36.069 385.272C35.929 385.449 35.761 385.603 35.565 385.734C35.3783 385.865 35.159 385.967 34.907 386.042C34.655 386.126 34.3657 386.168 34.039 386.168ZM34.151 385.314C34.4963 385.314 34.8043 385.244 35.075 385.104C35.355 384.955 35.593 384.763 35.789 384.53C35.985 384.297 36.1343 384.035 36.237 383.746C36.3397 383.447 36.391 383.139 36.391 382.822V382.57H34.557C34.0623 382.57 33.6657 382.631 33.367 382.752C33.0683 382.873 32.8537 383.037 32.723 383.242C32.5923 383.447 32.527 383.685 32.527 383.956C32.527 384.227 32.5877 384.465 32.709 384.67C32.8303 384.866 33.0123 385.025 33.255 385.146C33.507 385.258 33.8057 385.314 34.151 385.314ZM39.2225 386V378.944H40.1185L40.1745 380.204C40.3985 379.756 40.7205 379.406 41.1405 379.154C41.5698 378.902 42.0458 378.776 42.5685 378.776C43.1098 378.776 43.5812 378.883 43.9825 379.098C44.3838 379.313 44.6965 379.639 44.9205 380.078C45.1445 380.507 45.2565 381.058 45.2565 381.73V386H44.2765V381.842C44.2765 381.095 44.1132 380.54 43.7865 380.176C43.4598 379.812 42.9932 379.63 42.3865 379.63C41.9758 379.63 41.6025 379.733 41.2665 379.938C40.9398 380.134 40.6785 380.423 40.4825 380.806C40.2958 381.189 40.2025 381.66 40.2025 382.22V386H39.2225ZM47.1112 386V378.944H48.0072L48.0632 380.204C48.2872 379.756 48.6092 379.406 49.0292 379.154C49.4585 378.902 49.9345 378.776 50.4572 378.776C50.9985 378.776 51.4699 378.883 51.8712 379.098C52.2725 379.313 52.5852 379.639 52.8092 380.078C53.0332 380.507 53.1452 381.058 53.1452 381.73V386H52.1652V381.842C52.1652 381.095 52.0019 380.54 51.6752 380.176C51.3485 379.812 50.8819 379.63 50.2752 379.63C49.8645 379.63 49.4912 379.733 49.1552 379.938C48.8285 380.134 48.5672 380.423 48.3712 380.806C48.1845 381.189 48.0912 381.66 48.0912 382.22V386H47.1112ZM58.0239 386.168C57.3705 386.168 56.7919 386.014 56.2879 385.706C55.7932 385.398 55.4012 384.969 55.1119 384.418C54.8319 383.858 54.6919 383.205 54.6919 382.458C54.6919 381.711 54.8319 381.063 55.1119 380.512C55.3919 379.961 55.7839 379.537 56.2879 379.238C56.8012 378.93 57.3892 378.776 58.0519 378.776C58.7332 378.776 59.3072 378.93 59.7739 379.238C60.2499 379.546 60.6092 379.947 60.8519 380.442C61.1039 380.937 61.2299 381.478 61.2299 382.066C61.2299 382.159 61.2299 382.257 61.2299 382.36C61.2299 382.453 61.2252 382.565 61.2159 382.696H55.4339V381.87H60.2779C60.2592 381.151 60.0352 380.596 59.6059 380.204C59.1859 379.812 58.6539 379.616 58.0099 379.616C57.5899 379.616 57.1979 379.714 56.8339 379.91C56.4792 380.097 56.1899 380.377 55.9659 380.75C55.7512 381.114 55.6439 381.576 55.6439 382.136V382.5C55.6439 383.135 55.7559 383.662 55.9799 384.082C56.2039 384.502 56.4979 384.815 56.8619 385.02C57.2352 385.225 57.6225 385.328 58.0239 385.328C58.5559 385.328 58.9945 385.211 59.3399 384.978C59.6852 384.735 59.9325 384.404 60.0819 383.984H61.0479C60.9265 384.395 60.7305 384.768 60.4599 385.104C60.1985 385.44 59.8625 385.701 59.4519 385.888C59.0412 386.075 58.5652 386.168 58.0239 386.168ZM62.8338 386V375.92H63.8138V386H62.8338ZM68.3906 386.168C67.8306 386.168 67.336 386.075 66.9066 385.888C66.4866 385.701 66.146 385.435 65.8846 385.09C65.6326 384.735 65.4786 384.315 65.4226 383.83H66.4306C66.4866 384.101 66.594 384.348 66.7526 384.572C66.9206 384.796 67.1446 384.978 67.4246 385.118C67.7046 385.249 68.036 385.314 68.4186 385.314C68.7733 385.314 69.0626 385.263 69.2866 385.16C69.52 385.048 69.6926 384.903 69.8046 384.726C69.926 384.539 69.9866 384.334 69.9866 384.11C69.9866 383.802 69.912 383.564 69.7626 383.396C69.6226 383.219 69.4173 383.088 69.1466 383.004C68.876 382.92 68.5493 382.841 68.1666 382.766C67.8493 382.71 67.546 382.635 67.2566 382.542C66.9673 382.449 66.706 382.327 66.4726 382.178C66.2486 382.029 66.0713 381.842 65.9406 381.618C65.81 381.385 65.7446 381.114 65.7446 380.806C65.7446 380.405 65.8426 380.055 66.0386 379.756C66.244 379.448 66.5333 379.21 66.9066 379.042C67.28 378.865 67.7186 378.776 68.2226 378.776C68.9413 378.776 69.5293 378.958 69.9866 379.322C70.444 379.677 70.71 380.199 70.7846 380.89H69.8046C69.7673 380.507 69.6086 380.204 69.3286 379.98C69.0486 379.756 68.6706 379.644 68.1946 379.644C67.728 379.644 67.3686 379.742 67.1166 379.938C66.874 380.125 66.7526 380.381 66.7526 380.708C66.7526 380.913 66.818 381.091 66.9486 381.24C67.0793 381.389 67.2706 381.52 67.5226 381.632C67.784 381.735 68.1013 381.823 68.4746 381.898C68.9226 381.982 69.3333 382.094 69.7066 382.234C70.0893 382.365 70.3973 382.57 70.6306 382.85C70.8733 383.121 70.9946 383.508 70.9946 384.012C71.004 384.432 70.9013 384.805 70.6866 385.132C70.472 385.459 70.1686 385.715 69.7766 385.902C69.3846 386.079 68.9226 386.168 68.3906 386.168Z" fill="white"/>
</svg>
