<svg width="202" height="411" viewBox="0 0 202 411" fill="none" xmlns="http://www.w3.org/2000/svg">
<rect width="202" height="411" rx="10" fill="#F4F6FF"/>
<rect y="208" width="202" height="203" rx="10" fill="#11111C"/>
<path d="M16.248 277V265.8H17.368V277H16.248ZM19.7454 277V268.936H20.7694L20.8334 270.376C21.0894 269.864 21.4574 269.464 21.9374 269.176C22.428 268.888 22.972 268.744 23.5694 268.744C24.188 268.744 24.7267 268.867 25.1854 269.112C25.644 269.357 26.0014 269.731 26.2574 270.232C26.5134 270.723 26.6414 271.352 26.6414 272.12V277H25.5214V272.248C25.5214 271.395 25.3347 270.76 24.9614 270.344C24.588 269.928 24.0547 269.72 23.3614 269.72C22.892 269.72 22.4654 269.837 22.0814 270.072C21.708 270.296 21.4094 270.627 21.1854 271.064C20.972 271.501 20.8654 272.04 20.8654 272.68V277H19.7454ZM32.313 277.192C31.5663 277.192 30.8997 277.016 30.313 276.664C29.7263 276.312 29.2623 275.821 28.921 275.192C28.5797 274.552 28.409 273.816 28.409 272.984C28.409 272.12 28.5797 271.379 28.921 270.76C29.2623 270.131 29.7263 269.64 30.313 269.288C30.9103 268.925 31.577 268.744 32.313 268.744C33.2517 268.744 34.0303 268.989 34.649 269.48C35.2783 269.96 35.6783 270.6 35.849 271.4H34.729C34.6117 270.867 34.329 270.456 33.881 270.168C33.4437 269.869 32.9157 269.72 32.297 269.72C31.817 269.72 31.369 269.843 30.953 270.088C30.537 270.323 30.201 270.68 29.945 271.16C29.689 271.64 29.561 272.248 29.561 272.984C29.561 273.528 29.6357 274.003 29.785 274.408C29.9343 274.813 30.137 275.155 30.393 275.432C30.649 275.699 30.9423 275.901 31.273 276.04C31.6037 276.179 31.945 276.248 32.297 276.248C32.7023 276.248 33.0703 276.184 33.401 276.056C33.7423 275.917 34.0303 275.72 34.265 275.464C34.4997 275.208 34.6543 274.899 34.729 274.536H35.849C35.689 275.315 35.2943 275.955 34.665 276.456C34.0357 276.947 33.2517 277.192 32.313 277.192ZM37.7766 277V268.936H38.8006L38.8806 270.488C39.0513 270.115 39.2806 269.8 39.5686 269.544C39.8566 269.288 40.2033 269.091 40.6086 268.952C41.014 268.813 41.4726 268.744 41.9846 268.744V269.912H41.5526C41.2113 269.912 40.8806 269.96 40.5606 270.056C40.2406 270.141 39.958 270.291 39.7126 270.504C39.4673 270.717 39.27 271.005 39.1206 271.368C38.9713 271.731 38.8966 272.184 38.8966 272.728V277H37.7766ZM46.6701 277.192C45.9235 277.192 45.2621 277.016 44.6861 276.664C44.1208 276.312 43.6728 275.821 43.3421 275.192C43.0221 274.552 42.8621 273.805 42.8621 272.952C42.8621 272.099 43.0221 271.357 43.3421 270.728C43.6621 270.099 44.1101 269.613 44.6861 269.272C45.2728 268.92 45.9448 268.744 46.7021 268.744C47.4808 268.744 48.1368 268.92 48.6701 269.272C49.2141 269.624 49.6248 270.083 49.9021 270.648C50.1901 271.213 50.3341 271.832 50.3341 272.504C50.3341 272.611 50.3341 272.723 50.3341 272.84C50.3341 272.947 50.3288 273.075 50.3181 273.224H43.7101V272.28H49.2461C49.2248 271.459 48.9688 270.824 48.4781 270.376C47.9981 269.928 47.3901 269.704 46.6541 269.704C46.1741 269.704 45.7261 269.816 45.3101 270.04C44.9048 270.253 44.5741 270.573 44.3181 271C44.0728 271.416 43.9501 271.944 43.9501 272.584V273C43.9501 273.725 44.0781 274.328 44.3341 274.808C44.5901 275.288 44.9261 275.645 45.3421 275.88C45.7688 276.115 46.2115 276.232 46.6701 276.232C47.2781 276.232 47.7795 276.099 48.1741 275.832C48.5688 275.555 48.8515 275.176 49.0221 274.696H50.1261C49.9875 275.165 49.7635 275.592 49.4541 275.976C49.1555 276.36 48.7715 276.659 48.3021 276.872C47.8328 277.085 47.2888 277.192 46.6701 277.192ZM54.7433 277.192C54.0926 277.192 53.5486 277.075 53.1113 276.84C52.6846 276.605 52.3646 276.301 52.1513 275.928C51.9486 275.555 51.8473 275.144 51.8473 274.696C51.8473 274.141 51.9859 273.672 52.2633 273.288C52.5513 272.904 52.9513 272.616 53.4633 272.424C53.9753 272.232 54.5726 272.136 55.2552 272.136H57.4313C57.4313 271.613 57.3513 271.171 57.1913 270.808C57.0313 270.445 56.7966 270.173 56.4873 269.992C56.1779 269.8 55.7886 269.704 55.3193 269.704C54.7753 269.704 54.3059 269.843 53.9113 270.12C53.5166 270.397 53.2713 270.803 53.1753 271.336H52.0073C52.0713 270.771 52.2633 270.296 52.5833 269.912C52.9139 269.528 53.3193 269.24 53.7993 269.048C54.2793 268.845 54.7859 268.744 55.3193 268.744C56.0659 268.744 56.6739 268.888 57.1433 269.176C57.6126 269.453 57.9646 269.837 58.1993 270.328C58.4339 270.819 58.5513 271.384 58.5513 272.024V277H57.5273L57.4633 275.528C57.3673 275.752 57.2339 275.965 57.0633 276.168C56.9033 276.371 56.7113 276.547 56.4873 276.696C56.2739 276.845 56.0233 276.963 55.7352 277.048C55.4473 277.144 55.1166 277.192 54.7433 277.192ZM54.8713 276.216C55.2659 276.216 55.6179 276.136 55.9273 275.976C56.2473 275.805 56.5193 275.587 56.7433 275.32C56.9673 275.053 57.1379 274.755 57.2553 274.424C57.3726 274.083 57.4313 273.731 57.4313 273.368V273.08H55.3353C54.7699 273.08 54.3166 273.149 53.9753 273.288C53.6339 273.427 53.3886 273.613 53.2393 273.848C53.0899 274.083 53.0153 274.355 53.0153 274.664C53.0153 274.973 53.0846 275.245 53.2233 275.48C53.3619 275.704 53.5699 275.885 53.8473 276.024C54.1353 276.152 54.4766 276.216 54.8713 276.216ZM63.6273 277.192C62.9873 277.192 62.4219 277.085 61.9313 276.872C61.4513 276.659 61.0619 276.355 60.7633 275.96C60.4753 275.555 60.2993 275.075 60.2353 274.52H61.3873C61.4513 274.829 61.5739 275.112 61.7553 275.368C61.9473 275.624 62.2033 275.832 62.5233 275.992C62.8433 276.141 63.2219 276.216 63.6593 276.216C64.0646 276.216 64.3953 276.157 64.6513 276.04C64.9179 275.912 65.1153 275.747 65.2433 275.544C65.3819 275.331 65.4513 275.096 65.4513 274.84C65.4513 274.488 65.3659 274.216 65.1953 274.024C65.0353 273.821 64.8006 273.672 64.4913 273.576C64.1819 273.48 63.8086 273.389 63.3713 273.304C63.0086 273.24 62.6619 273.155 62.3313 273.048C62.0006 272.941 61.7019 272.803 61.4353 272.632C61.1793 272.461 60.9766 272.248 60.8273 271.992C60.6779 271.725 60.6033 271.416 60.6033 271.064C60.6033 270.605 60.7153 270.205 60.9393 269.864C61.1739 269.512 61.5046 269.24 61.9313 269.048C62.3579 268.845 62.8593 268.744 63.4353 268.744C64.2566 268.744 64.9286 268.952 65.4513 269.368C65.9739 269.773 66.2779 270.371 66.3633 271.16H65.2433C65.2006 270.723 65.0193 270.376 64.6993 270.12C64.3793 269.864 63.9473 269.736 63.4033 269.736C62.8699 269.736 62.4593 269.848 62.1713 270.072C61.8939 270.285 61.7553 270.579 61.7553 270.952C61.7553 271.187 61.8299 271.389 61.9793 271.56C62.1286 271.731 62.3473 271.88 62.6353 272.008C62.9339 272.125 63.2966 272.227 63.7233 272.312C64.2353 272.408 64.7046 272.536 65.1313 272.696C65.5686 272.845 65.9206 273.08 66.1873 273.4C66.4646 273.709 66.6033 274.152 66.6033 274.728C66.6139 275.208 66.4966 275.635 66.2513 276.008C66.0059 276.381 65.6593 276.675 65.2113 276.888C64.7633 277.091 64.2353 277.192 63.6273 277.192ZM72.0451 277.192C71.2985 277.192 70.6371 277.016 70.0611 276.664C69.4958 276.312 69.0478 275.821 68.7171 275.192C68.3971 274.552 68.2371 273.805 68.2371 272.952C68.2371 272.099 68.3971 271.357 68.7171 270.728C69.0371 270.099 69.4851 269.613 70.0611 269.272C70.6478 268.92 71.3198 268.744 72.0771 268.744C72.8558 268.744 73.5118 268.92 74.0451 269.272C74.5891 269.624 74.9998 270.083 75.2771 270.648C75.5651 271.213 75.7091 271.832 75.7091 272.504C75.7091 272.611 75.7091 272.723 75.7091 272.84C75.7091 272.947 75.7038 273.075 75.6931 273.224H69.0851V272.28H74.6211C74.5998 271.459 74.3438 270.824 73.8531 270.376C73.3731 269.928 72.7651 269.704 72.0291 269.704C71.5491 269.704 71.1011 269.816 70.6851 270.04C70.2798 270.253 69.9491 270.573 69.6931 271C69.4478 271.416 69.3251 271.944 69.3251 272.584V273C69.3251 273.725 69.4531 274.328 69.7091 274.808C69.9651 275.288 70.3011 275.645 70.7171 275.88C71.1438 276.115 71.5865 276.232 72.0451 276.232C72.6531 276.232 73.1545 276.099 73.5491 275.832C73.9438 275.555 74.2265 275.176 74.3971 274.696H75.5011C75.3625 275.165 75.1385 275.592 74.8291 275.976C74.5305 276.36 74.1465 276.659 73.6771 276.872C73.2078 277.085 72.6638 277.192 72.0451 277.192ZM84.3165 277L81.2445 268.936H82.4125L84.9725 275.912L87.5325 268.936H88.6845L85.5965 277H84.3165ZM90.3898 277V268.936H91.4938V277H90.3898ZM90.9498 267.032C90.7258 267.032 90.5338 266.957 90.3738 266.808C90.2138 266.648 90.1338 266.451 90.1338 266.216C90.1338 265.971 90.2084 265.779 90.3578 265.64C90.5178 265.491 90.7098 265.416 90.9338 265.416C91.1578 265.416 91.3498 265.491 91.5098 265.64C91.6698 265.779 91.7498 265.971 91.7498 266.216C91.7498 266.451 91.6698 266.648 91.5098 266.808C91.3604 266.957 91.1738 267.032 90.9498 267.032ZM96.8929 277.192C96.2529 277.192 95.6875 277.085 95.1969 276.872C94.7169 276.659 94.3275 276.355 94.0289 275.96C93.7409 275.555 93.5649 275.075 93.5009 274.52H94.6529C94.7169 274.829 94.8395 275.112 95.0209 275.368C95.2129 275.624 95.4689 275.832 95.7889 275.992C96.1089 276.141 96.4875 276.216 96.9249 276.216C97.3302 276.216 97.6609 276.157 97.9169 276.04C98.1835 275.912 98.3809 275.747 98.5089 275.544C98.6475 275.331 98.7169 275.096 98.7169 274.84C98.7169 274.488 98.6315 274.216 98.4609 274.024C98.3009 273.821 98.0662 273.672 97.7569 273.576C97.4475 273.48 97.0742 273.389 96.6369 273.304C96.2742 273.24 95.9275 273.155 95.5969 273.048C95.2662 272.941 94.9675 272.803 94.7009 272.632C94.4449 272.461 94.2422 272.248 94.0929 271.992C93.9435 271.725 93.8689 271.416 93.8689 271.064C93.8689 270.605 93.9809 270.205 94.2049 269.864C94.4395 269.512 94.7702 269.24 95.1969 269.048C95.6235 268.845 96.1249 268.744 96.7009 268.744C97.5222 268.744 98.1942 268.952 98.7169 269.368C99.2395 269.773 99.5435 270.371 99.6289 271.16H98.5089C98.4662 270.723 98.2849 270.376 97.9649 270.12C97.6449 269.864 97.2129 269.736 96.6689 269.736C96.1355 269.736 95.7249 269.848 95.4369 270.072C95.1595 270.285 95.0209 270.579 95.0209 270.952C95.0209 271.187 95.0955 271.389 95.2449 271.56C95.3942 271.731 95.6129 271.88 95.9009 272.008C96.1995 272.125 96.5622 272.227 96.9889 272.312C97.5009 272.408 97.9702 272.536 98.3969 272.696C98.8342 272.845 99.1862 273.08 99.4529 273.4C99.7302 273.709 99.8689 274.152 99.8689 274.728C99.8795 275.208 99.7622 275.635 99.5169 276.008C99.2715 276.381 98.9249 276.675 98.4769 276.888C98.0289 277.091 97.5009 277.192 96.8929 277.192ZM102.015 277V268.936H103.119V277H102.015ZM102.575 267.032C102.351 267.032 102.159 266.957 101.999 266.808C101.839 266.648 101.759 266.451 101.759 266.216C101.759 265.971 101.833 265.779 101.983 265.64C102.143 265.491 102.335 265.416 102.559 265.416C102.783 265.416 102.975 265.491 103.135 265.64C103.295 265.779 103.375 265.971 103.375 266.216C103.375 266.451 103.295 266.648 103.135 266.808C102.985 266.957 102.799 267.032 102.575 267.032ZM109.67 277.192C109.201 277.192 108.769 277.123 108.374 276.984C107.99 276.835 107.654 276.637 107.366 276.392C107.078 276.136 106.849 275.848 106.678 275.528L106.582 277H105.558V265.48H106.678V270.392C106.945 269.933 107.329 269.544 107.83 269.224C108.331 268.904 108.945 268.744 109.67 268.744C110.459 268.744 111.147 268.931 111.734 269.304C112.321 269.667 112.769 270.168 113.078 270.808C113.398 271.437 113.558 272.157 113.558 272.968C113.558 273.779 113.398 274.504 113.078 275.144C112.758 275.784 112.305 276.285 111.718 276.648C111.142 277.011 110.459 277.192 109.67 277.192ZM109.59 276.216C110.155 276.216 110.646 276.083 111.062 275.816C111.478 275.549 111.809 275.171 112.054 274.68C112.299 274.189 112.422 273.619 112.422 272.968C112.422 272.307 112.299 271.736 112.054 271.256C111.809 270.765 111.473 270.387 111.046 270.12C110.63 269.853 110.145 269.72 109.59 269.72C109.035 269.72 108.539 269.853 108.102 270.12C107.675 270.387 107.339 270.765 107.094 271.256C106.859 271.747 106.742 272.317 106.742 272.968C106.742 273.629 106.859 274.205 107.094 274.696C107.339 275.176 107.675 275.549 108.102 275.816C108.539 276.083 109.035 276.216 109.59 276.216ZM115.64 277V268.936H116.744V277H115.64ZM116.2 267.032C115.976 267.032 115.784 266.957 115.624 266.808C115.464 266.648 115.384 266.451 115.384 266.216C115.384 265.971 115.458 265.779 115.608 265.64C115.768 265.491 115.96 265.416 116.184 265.416C116.408 265.416 116.6 265.491 116.76 265.64C116.92 265.779 117 265.971 117 266.216C117 266.451 116.92 266.648 116.76 266.808C116.61 266.957 116.424 267.032 116.2 267.032ZM119.183 277V265.48H120.303V277H119.183ZM122.734 277V268.936H123.838V277H122.734ZM123.294 267.032C123.07 267.032 122.878 266.957 122.718 266.808C122.558 266.648 122.478 266.451 122.478 266.216C122.478 265.971 122.552 265.779 122.702 265.64C122.862 265.491 123.054 265.416 123.278 265.416C123.502 265.416 123.694 265.491 123.854 265.64C124.014 265.779 124.094 265.971 124.094 266.216C124.094 266.451 124.014 266.648 123.854 266.808C123.704 266.957 123.518 267.032 123.294 267.032ZM129.333 277C128.874 277 128.479 276.931 128.149 276.792C127.818 276.643 127.562 276.403 127.381 276.072C127.21 275.731 127.125 275.267 127.125 274.68V269.896H125.717V268.936H127.125L127.285 267.064H128.245V268.952H130.661V269.896H128.245V274.68C128.245 275.213 128.351 275.576 128.565 275.768C128.778 275.949 129.157 276.04 129.701 276.04H130.533V277H129.333ZM133.234 280.52L135.218 276.104H134.786L131.602 268.936H132.818L135.57 275.336L138.466 268.936H139.618L134.402 280.52H133.234Z" fill="white"/>
<path d="M24.84 321.36C23.3 321.36 22 321.08 20.94 320.52C19.9 319.94 19.06 319.17 18.42 318.21C17.78 317.23 17.31 316.15 17.01 314.97C16.73 313.77 16.59 312.54 16.59 311.28C16.59 308.96 16.91 306.93 17.55 305.19C18.21 303.45 19.15 302.09 20.37 301.11C21.59 300.13 23.06 299.64 24.78 299.64C26.16 299.64 27.33 299.91 28.29 300.45C29.27 300.97 30.03 301.67 30.57 302.55C31.13 303.43 31.47 304.4 31.59 305.46H28.8C28.62 304.42 28.17 303.62 27.45 303.06C26.75 302.48 25.85 302.19 24.75 302.19C23.77 302.19 22.89 302.5 22.11 303.12C21.33 303.72 20.71 304.64 20.25 305.88C19.81 307.12 19.56 308.69 19.5 310.59C19.5 310.61 19.5 310.64 19.5 310.68C19.5 310.72 19.5 310.76 19.5 310.8C19.8 310.2 20.23 309.65 20.79 309.15C21.35 308.65 22.01 308.26 22.77 307.98C23.55 307.68 24.39 307.53 25.29 307.53C26.47 307.53 27.57 307.81 28.59 308.37C29.63 308.91 30.47 309.69 31.11 310.71C31.75 311.73 32.07 312.92 32.07 314.28C32.07 315.5 31.77 316.65 31.17 317.73C30.59 318.81 29.76 319.69 28.68 320.37C27.6 321.03 26.32 321.36 24.84 321.36ZM24.63 318.75C25.49 318.75 26.25 318.57 26.91 318.21C27.59 317.83 28.12 317.31 28.5 316.65C28.9 315.99 29.1 315.24 29.1 314.4C29.1 313.54 28.9 312.79 28.5 312.15C28.12 311.49 27.59 310.98 26.91 310.62C26.25 310.26 25.49 310.08 24.63 310.08C23.77 310.08 23 310.28 22.32 310.68C21.64 311.06 21.1 311.58 20.7 312.24C20.3 312.88 20.1 313.61 20.1 314.43C20.1 315.27 20.3 316.02 20.7 316.68C21.1 317.32 21.64 317.83 22.32 318.21C23.02 318.57 23.79 318.75 24.63 318.75ZM44.2765 321.36C42.4165 321.36 40.8165 320.91 39.4765 320.01C38.1365 319.09 37.1065 317.82 36.3865 316.2C35.6665 314.56 35.3065 312.66 35.3065 310.5C35.3065 308.34 35.6665 306.45 36.3865 304.83C37.1065 303.19 38.1365 301.92 39.4765 301.02C40.8165 300.1 42.4165 299.64 44.2765 299.64C46.1365 299.64 47.7265 300.1 49.0465 301.02C50.3865 301.92 51.4065 303.19 52.1065 304.83C52.8265 306.45 53.1865 308.34 53.1865 310.5C53.1865 312.66 52.8265 314.56 52.1065 316.2C51.4065 317.82 50.3865 319.09 49.0465 320.01C47.7265 320.91 46.1365 321.36 44.2765 321.36ZM44.2765 318.69C45.3965 318.69 46.3965 318.36 47.2765 317.7C48.1765 317.04 48.8765 316.1 49.3765 314.88C49.8765 313.66 50.1265 312.2 50.1265 310.5C50.1265 308.8 49.8765 307.34 49.3765 306.12C48.8765 304.9 48.1765 303.97 47.2765 303.33C46.3965 302.67 45.3965 302.34 44.2765 302.34C43.1365 302.34 42.1165 302.67 41.2165 303.33C40.3165 303.97 39.6165 304.9 39.1165 306.12C38.6165 307.34 38.3665 308.8 38.3665 310.5C38.3665 312.2 38.6165 313.66 39.1165 314.88C39.6165 316.1 40.3165 317.04 41.2165 317.7C42.1165 318.36 43.1365 318.69 44.2765 318.69ZM59.3494 321L71.4094 300H74.3794L62.3194 321H59.3494ZM73.1494 321.36C72.2094 321.36 71.3694 321.15 70.6294 320.73C69.8894 320.31 69.2994 319.72 68.8594 318.96C68.4194 318.18 68.1994 317.27 68.1994 316.23C68.1994 315.15 68.4194 314.23 68.8594 313.47C69.2994 312.71 69.8894 312.12 70.6294 311.7C71.3694 311.28 72.1994 311.07 73.1194 311.07C74.0794 311.07 74.9194 311.28 75.6394 311.7C76.3794 312.12 76.9594 312.71 77.3794 313.47C77.8194 314.23 78.0394 315.15 78.0394 316.23C78.0394 317.27 77.8194 318.18 77.3794 318.96C76.9594 319.72 76.3794 320.31 75.6394 320.73C74.8994 321.15 74.0694 321.36 73.1494 321.36ZM73.0894 319.14C73.5494 319.14 73.9594 319.03 74.3194 318.81C74.6994 318.59 74.9994 318.27 75.2194 317.85C75.4594 317.41 75.5794 316.86 75.5794 316.2C75.5794 315.54 75.4694 315 75.2494 314.58C75.0294 314.14 74.7294 313.81 74.3494 313.59C73.9894 313.37 73.5794 313.26 73.1194 313.26C72.6994 313.26 72.2994 313.37 71.9194 313.59C71.5394 313.81 71.2294 314.14 70.9894 314.58C70.7694 315 70.6594 315.54 70.6594 316.2C70.6594 316.86 70.7694 317.41 70.9894 317.85C71.2294 318.27 71.5294 318.59 71.8894 318.81C72.2694 319.03 72.6694 319.14 73.0894 319.14ZM60.7894 309.96C59.8694 309.96 59.0394 309.75 58.2994 309.33C57.5594 308.91 56.9594 308.32 56.4994 307.56C56.0594 306.78 55.8394 305.86 55.8394 304.8C55.8394 303.74 56.0594 302.83 56.4994 302.07C56.9594 301.31 57.5594 300.72 58.2994 300.3C59.0594 299.88 59.8994 299.67 60.8194 299.67C61.7394 299.67 62.5694 299.88 63.3094 300.3C64.0494 300.72 64.6294 301.31 65.0494 302.07C65.4894 302.83 65.7094 303.74 65.7094 304.8C65.7094 305.86 65.4894 306.78 65.0494 307.56C64.6294 308.32 64.0394 308.91 63.2794 309.33C62.5394 309.75 61.7094 309.96 60.7894 309.96ZM60.7894 307.74C61.2294 307.74 61.6294 307.63 61.9894 307.41C62.3694 307.19 62.6694 306.87 62.8894 306.45C63.1094 306.01 63.2194 305.46 63.2194 304.8C63.2194 304.14 63.1094 303.59 62.8894 303.15C62.6694 302.71 62.3694 302.38 61.9894 302.16C61.6294 301.94 61.2394 301.83 60.8194 301.83C60.3794 301.83 59.9594 301.94 59.5594 302.16C59.1794 302.38 58.8694 302.71 58.6294 303.15C58.4094 303.59 58.2994 304.14 58.2994 304.8C58.2994 305.44 58.4094 305.98 58.6294 306.42C58.8694 306.86 59.1794 307.19 59.5594 307.41C59.9394 307.63 60.3494 307.74 60.7894 307.74Z" fill="white"/>
<path opacity="0.8" d="M17.45 348L15.378 340.944H16.372L18.052 346.978H17.856L19.676 340.944H20.796L22.616 346.978H22.42L24.1 340.944H25.094L23.022 348H22.028L20.138 341.686H20.334L18.444 348H17.45ZM26.6067 348V340.944H27.5727V348H26.6067ZM27.0967 339.278C26.9007 339.278 26.7327 339.213 26.5927 339.082C26.4527 338.942 26.3827 338.769 26.3827 338.564C26.3827 338.349 26.448 338.181 26.5787 338.06C26.7187 337.929 26.8867 337.864 27.0827 337.864C27.2787 337.864 27.4467 337.929 27.5867 338.06C27.7267 338.181 27.7967 338.349 27.7967 338.564C27.7967 338.769 27.7267 338.942 27.5867 339.082C27.456 339.213 27.2927 339.278 27.0967 339.278ZM32.3809 348C31.9796 348 31.6342 347.939 31.3449 347.818C31.0556 347.687 30.8316 347.477 30.6729 347.188C30.5236 346.889 30.4489 346.483 30.4489 345.97V341.784H29.2169V340.944H30.4489L30.5889 339.306H31.4289V340.958H33.5429V341.784H31.4289V345.97C31.4289 346.437 31.5222 346.754 31.7089 346.922C31.8956 347.081 32.2269 347.16 32.7029 347.16H33.4309V348H32.3809ZM35.0663 348V337.92H36.0463V342.204C36.2889 341.756 36.6249 341.406 37.0543 341.154C37.4836 340.902 37.9549 340.776 38.4683 340.776C39.0003 340.776 39.4623 340.883 39.8543 341.098C40.2556 341.313 40.5636 341.639 40.7783 342.078C41.0023 342.517 41.1143 343.077 41.1143 343.758V348H40.1483V343.87C40.1483 343.114 39.9896 342.554 39.6723 342.19C39.3643 341.817 38.9069 341.63 38.3003 341.63C37.8803 341.63 37.4976 341.733 37.1523 341.938C36.8163 342.143 36.5456 342.442 36.3403 342.834C36.1443 343.217 36.0463 343.693 36.0463 344.262V348H35.0663ZM46.8241 348V340.944H47.7201L47.7901 342.302C47.9394 341.975 48.1401 341.7 48.3921 341.476C48.6441 341.252 48.9474 341.079 49.3021 340.958C49.6567 340.837 50.0581 340.776 50.5061 340.776V341.798H50.1281C49.8294 341.798 49.5401 341.84 49.2601 341.924C48.9801 341.999 48.7327 342.129 48.5181 342.316C48.3034 342.503 48.1307 342.755 48.0001 343.072C47.8694 343.389 47.8041 343.786 47.8041 344.262V348H46.8241ZM54.6059 348.168C53.9526 348.168 53.3739 348.014 52.8699 347.706C52.3752 347.398 51.9832 346.969 51.6939 346.418C51.4139 345.858 51.2739 345.205 51.2739 344.458C51.2739 343.711 51.4139 343.063 51.6939 342.512C51.9739 341.961 52.3659 341.537 52.8699 341.238C53.3832 340.93 53.9712 340.776 54.6339 340.776C55.3152 340.776 55.8892 340.93 56.3559 341.238C56.8319 341.546 57.1912 341.947 57.4339 342.442C57.6859 342.937 57.8119 343.478 57.8119 344.066C57.8119 344.159 57.8119 344.257 57.8119 344.36C57.8119 344.453 57.8072 344.565 57.7979 344.696H52.0159V343.87H56.8599C56.8412 343.151 56.6172 342.596 56.1879 342.204C55.7679 341.812 55.2359 341.616 54.5919 341.616C54.1719 341.616 53.7799 341.714 53.4159 341.91C53.0612 342.097 52.7719 342.377 52.5479 342.75C52.3332 343.114 52.2259 343.576 52.2259 344.136V344.5C52.2259 345.135 52.3379 345.662 52.5619 346.082C52.7859 346.502 53.0799 346.815 53.4439 347.02C53.8172 347.225 54.2046 347.328 54.6059 347.328C55.1379 347.328 55.5766 347.211 55.9219 346.978C56.2672 346.735 56.5146 346.404 56.6639 345.984H57.6299C57.5086 346.395 57.3126 346.768 57.0419 347.104C56.7806 347.44 56.4446 347.701 56.0339 347.888C55.6232 348.075 55.1472 348.168 54.6059 348.168ZM61.6699 348.168C61.1005 348.168 60.6245 348.065 60.2419 347.86C59.8685 347.655 59.5885 347.389 59.4019 347.062C59.2245 346.735 59.1359 346.376 59.1359 345.984C59.1359 345.499 59.2572 345.088 59.4999 344.752C59.7519 344.416 60.1019 344.164 60.5499 343.996C60.9979 343.828 61.5205 343.744 62.1179 343.744H64.0219C64.0219 343.287 63.9519 342.899 63.8119 342.582C63.6719 342.265 63.4665 342.027 63.1959 341.868C62.9252 341.7 62.5845 341.616 62.1739 341.616C61.6979 341.616 61.2872 341.737 60.9419 341.98C60.5965 342.223 60.3819 342.577 60.2979 343.044H59.2759C59.3319 342.549 59.4999 342.134 59.7799 341.798C60.0692 341.462 60.4239 341.21 60.8439 341.042C61.2639 340.865 61.7072 340.776 62.1739 340.776C62.8272 340.776 63.3592 340.902 63.7699 341.154C64.1805 341.397 64.4885 341.733 64.6939 342.162C64.8992 342.591 65.0019 343.086 65.0019 343.646V348H64.1059L64.0499 346.712C63.9659 346.908 63.8492 347.095 63.6999 347.272C63.5599 347.449 63.3919 347.603 63.1959 347.734C63.0092 347.865 62.7899 347.967 62.5379 348.042C62.2859 348.126 61.9965 348.168 61.6699 348.168ZM61.7819 347.314C62.1272 347.314 62.4352 347.244 62.7059 347.104C62.9859 346.955 63.2239 346.763 63.4199 346.53C63.6159 346.297 63.7652 346.035 63.8679 345.746C63.9705 345.447 64.0219 345.139 64.0219 344.822V344.57H62.1879C61.6932 344.57 61.2965 344.631 60.9979 344.752C60.6992 344.873 60.4845 345.037 60.3539 345.242C60.2232 345.447 60.1579 345.685 60.1579 345.956C60.1579 346.227 60.2185 346.465 60.3399 346.67C60.4612 346.866 60.6432 347.025 60.8859 347.146C61.1379 347.258 61.4365 347.314 61.7819 347.314ZM66.8534 348V337.92H67.8334V348H66.8534ZM69.5262 344.304V343.464H74.9722V344.304H69.5262ZM79.3438 348C78.9424 348 78.5971 347.939 78.3078 347.818C78.0184 347.687 77.7944 347.477 77.6358 347.188C77.4864 346.889 77.4118 346.483 77.4118 345.97V341.784H76.1798V340.944H77.4118L77.5518 339.306H78.3918V340.958H80.5058V341.784H78.3918V345.97C78.3918 346.437 78.4851 346.754 78.6718 346.922C78.8584 347.081 79.1898 347.16 79.6658 347.16H80.3938V348H79.3438ZM82.1692 348V340.944H83.1352V348H82.1692ZM82.6592 339.278C82.4632 339.278 82.2952 339.213 82.1552 339.082C82.0152 338.942 81.9452 338.769 81.9452 338.564C81.9452 338.349 82.0105 338.181 82.1412 338.06C82.2812 337.929 82.4492 337.864 82.6452 337.864C82.8412 337.864 83.0092 337.929 83.1492 338.06C83.2892 338.181 83.3592 338.349 83.3592 338.564C83.3592 338.769 83.2892 338.942 83.1492 339.082C83.0185 339.213 82.8552 339.278 82.6592 339.278ZM85.2694 348V340.944H86.1654L86.2354 342.008C86.4501 341.616 86.7487 341.313 87.1314 341.098C87.5141 340.883 87.9387 340.776 88.4054 340.776C88.7507 340.776 89.0727 340.827 89.3714 340.93C89.6701 341.033 89.9314 341.187 90.1554 341.392C90.3887 341.597 90.5707 341.863 90.7014 342.19C90.9347 341.751 91.2614 341.406 91.6814 341.154C92.1107 340.902 92.5681 340.776 93.0534 340.776C93.5947 340.776 94.0614 340.883 94.4534 341.098C94.8547 341.313 95.1674 341.639 95.3914 342.078C95.6154 342.517 95.7274 343.072 95.7274 343.744V348H94.7474V343.856C94.7474 343.109 94.5934 342.554 94.2854 342.19C93.9774 341.817 93.5481 341.63 92.9974 341.63C92.6241 341.63 92.2834 341.733 91.9754 341.938C91.6674 342.134 91.4247 342.423 91.2474 342.806C91.0701 343.179 90.9814 343.646 90.9814 344.206V348H90.0014V343.856C90.0014 343.109 89.8474 342.554 89.5394 342.19C89.2407 341.817 88.8161 341.63 88.2654 341.63C87.8827 341.63 87.5374 341.733 87.2294 341.938C86.9307 342.134 86.6927 342.428 86.5154 342.82C86.3381 343.203 86.2494 343.679 86.2494 344.248V348H85.2694ZM100.598 348.168C99.9447 348.168 99.3661 348.014 98.8621 347.706C98.3674 347.398 97.9754 346.969 97.6861 346.418C97.4061 345.858 97.2661 345.205 97.2661 344.458C97.2661 343.711 97.4061 343.063 97.6861 342.512C97.9661 341.961 98.3581 341.537 98.8621 341.238C99.3754 340.93 99.9634 340.776 100.626 340.776C101.307 340.776 101.881 340.93 102.348 341.238C102.824 341.546 103.183 341.947 103.426 342.442C103.678 342.937 103.804 343.478 103.804 344.066C103.804 344.159 103.804 344.257 103.804 344.36C103.804 344.453 103.799 344.565 103.79 344.696H98.0081V343.87H102.852C102.833 343.151 102.609 342.596 102.18 342.204C101.76 341.812 101.228 341.616 100.584 341.616C100.164 341.616 99.7721 341.714 99.4081 341.91C99.0534 342.097 98.7641 342.377 98.5401 342.75C98.3254 343.114 98.2181 343.576 98.2181 344.136V344.5C98.2181 345.135 98.3301 345.662 98.5541 346.082C98.7781 346.502 99.0721 346.815 99.4361 347.02C99.8094 347.225 100.197 347.328 100.598 347.328C101.13 347.328 101.569 347.211 101.914 346.978C102.259 346.735 102.507 346.404 102.656 345.984H103.622C103.501 346.395 103.305 346.768 103.034 347.104C102.773 347.44 102.437 347.701 102.026 347.888C101.615 348.075 101.139 348.168 100.598 348.168ZM109.404 348V340.944H110.37V348H109.404ZM109.894 339.278C109.698 339.278 109.53 339.213 109.39 339.082C109.25 338.942 109.18 338.769 109.18 338.564C109.18 338.349 109.245 338.181 109.376 338.06C109.516 337.929 109.684 337.864 109.88 337.864C110.076 337.864 110.244 337.929 110.384 338.06C110.524 338.181 110.594 338.349 110.594 338.564C110.594 338.769 110.524 338.942 110.384 339.082C110.253 339.213 110.09 339.278 109.894 339.278ZM112.504 348V340.944H113.4L113.456 342.204C113.68 341.756 114.002 341.406 114.422 341.154C114.851 340.902 115.327 340.776 115.85 340.776C116.391 340.776 116.862 340.883 117.264 341.098C117.665 341.313 117.978 341.639 118.202 342.078C118.426 342.507 118.538 343.058 118.538 343.73V348H117.558V343.842C117.558 343.095 117.394 342.54 117.068 342.176C116.741 341.812 116.274 341.63 115.668 341.63C115.257 341.63 114.884 341.733 114.548 341.938C114.221 342.134 113.96 342.423 113.764 342.806C113.577 343.189 113.484 343.66 113.484 344.22V348H112.504ZM122.3 348L119.612 340.944H120.634L122.874 347.048L125.114 340.944H126.122L123.42 348H122.3ZM130.129 348.168C129.476 348.168 128.897 348.014 128.393 347.706C127.899 347.398 127.507 346.969 127.217 346.418C126.937 345.858 126.797 345.205 126.797 344.458C126.797 343.711 126.937 343.063 127.217 342.512C127.497 341.961 127.889 341.537 128.393 341.238C128.907 340.93 129.495 340.776 130.157 340.776C130.839 340.776 131.413 340.93 131.879 341.238C132.355 341.546 132.715 341.947 132.957 342.442C133.209 342.937 133.335 343.478 133.335 344.066C133.335 344.159 133.335 344.257 133.335 344.36C133.335 344.453 133.331 344.565 133.321 344.696H127.539V343.87H132.383C132.365 343.151 132.141 342.596 131.711 342.204C131.291 341.812 130.759 341.616 130.115 341.616C129.695 341.616 129.303 341.714 128.939 341.91C128.585 342.097 128.295 342.377 128.071 342.75C127.857 343.114 127.749 343.576 127.749 344.136V344.5C127.749 345.135 127.861 345.662 128.085 346.082C128.309 346.502 128.603 346.815 128.967 347.02C129.341 347.225 129.728 347.328 130.129 347.328C130.661 347.328 131.1 347.211 131.445 346.978C131.791 346.735 132.038 346.404 132.187 345.984H133.153C133.032 346.395 132.836 346.768 132.565 347.104C132.304 347.44 131.968 347.701 131.557 347.888C131.147 348.075 130.671 348.168 130.129 348.168ZM134.939 348V340.944H135.835L135.891 342.204C136.115 341.756 136.437 341.406 136.857 341.154C137.287 340.902 137.763 340.776 138.285 340.776C138.827 340.776 139.298 340.883 139.699 341.098C140.101 341.313 140.413 341.639 140.637 342.078C140.861 342.507 140.973 343.058 140.973 343.73V348H139.993V343.842C139.993 343.095 139.83 342.54 139.503 342.176C139.177 341.812 138.71 341.63 138.103 341.63C137.693 341.63 137.319 341.733 136.983 341.938C136.657 342.134 136.395 342.423 136.199 342.806C136.013 343.189 135.919 343.66 135.919 344.22V348H134.939ZM145.502 348C145.101 348 144.755 347.939 144.466 347.818C144.177 347.687 143.953 347.477 143.794 347.188C143.645 346.889 143.57 346.483 143.57 345.97V341.784H142.338V340.944H143.57L143.71 339.306H144.55V340.958H146.664V341.784H144.55V345.97C144.55 346.437 144.643 346.754 144.83 346.922C145.017 347.081 145.348 347.16 145.824 347.16H146.552V348H145.502ZM151.104 348.168C150.46 348.168 149.877 348.019 149.354 347.72C148.841 347.412 148.435 346.983 148.136 346.432C147.837 345.872 147.688 345.223 147.688 344.486C147.688 343.721 147.837 343.063 148.136 342.512C148.444 341.961 148.859 341.537 149.382 341.238C149.905 340.93 150.488 340.776 151.132 340.776C151.804 340.776 152.397 340.93 152.91 341.238C153.423 341.537 153.829 341.961 154.128 342.512C154.427 343.063 154.576 343.721 154.576 344.486C154.576 345.223 154.422 345.872 154.114 346.432C153.815 346.983 153.405 347.412 152.882 347.72C152.369 348.019 151.776 348.168 151.104 348.168ZM151.118 347.328C151.557 347.328 151.958 347.221 152.322 347.006C152.695 346.791 152.994 346.474 153.218 346.054C153.451 345.625 153.568 345.097 153.568 344.472C153.568 343.837 153.456 343.31 153.232 342.89C153.008 342.47 152.709 342.157 152.336 341.952C151.972 341.737 151.571 341.63 151.132 341.63C150.712 341.63 150.315 341.737 149.942 341.952C149.569 342.167 149.265 342.484 149.032 342.904C148.808 343.315 148.696 343.837 148.696 344.472C148.696 345.097 148.808 345.625 149.032 346.054C149.256 346.474 149.55 346.791 149.914 347.006C150.287 347.221 150.689 347.328 151.118 347.328ZM156.254 348V340.944H157.15L157.22 342.302C157.369 341.975 157.57 341.7 157.822 341.476C158.074 341.252 158.377 341.079 158.732 340.958C159.086 340.837 159.488 340.776 159.936 340.776V341.798H159.558C159.259 341.798 158.97 341.84 158.69 341.924C158.41 341.999 158.162 342.129 157.948 342.316C157.733 342.503 157.56 342.755 157.43 343.072C157.299 343.389 157.234 343.786 157.234 344.262V348H156.254ZM162.04 351.08L163.776 347.216H163.398L160.612 340.944H161.676L164.084 346.544L166.618 340.944H167.626L163.062 351.08H162.04ZM18.542 367.168C18.01 367.168 17.5387 367.065 17.128 366.86C16.7267 366.645 16.414 366.323 16.19 365.894C15.966 365.455 15.854 364.895 15.854 364.214V359.944H16.834V364.102C16.834 364.849 16.9973 365.404 17.324 365.768C17.66 366.132 18.122 366.314 18.71 366.314C19.13 366.314 19.5033 366.216 19.83 366.02C20.166 365.824 20.4273 365.535 20.614 365.152C20.81 364.76 20.908 364.284 20.908 363.724V359.944H21.888V367H20.992L20.936 365.74C20.712 366.197 20.3853 366.552 19.956 366.804C19.536 367.047 19.0647 367.168 18.542 367.168ZM23.8827 370.08V359.944H24.7787L24.8627 361.218C25.012 360.966 25.208 360.733 25.4507 360.518C25.6933 360.294 25.9827 360.117 26.3187 359.986C26.664 359.846 27.056 359.776 27.4947 359.776C28.176 359.776 28.7687 359.939 29.2727 360.266C29.786 360.593 30.1827 361.036 30.4627 361.596C30.7427 362.147 30.8827 362.777 30.8827 363.486C30.8827 364.195 30.738 364.83 30.4487 365.39C30.1687 365.941 29.7767 366.375 29.2727 366.692C28.7687 367.009 28.1713 367.168 27.4807 367.168C26.8833 367.168 26.356 367.042 25.8987 366.79C25.4507 366.529 25.1053 366.165 24.8627 365.698V370.08H23.8827ZM27.4107 366.314C27.896 366.314 28.3207 366.197 28.6847 365.964C29.058 365.731 29.352 365.404 29.5667 364.984C29.7813 364.555 29.8887 364.051 29.8887 363.472C29.8887 362.903 29.7813 362.403 29.5667 361.974C29.352 361.545 29.058 361.213 28.6847 360.98C28.3207 360.747 27.896 360.63 27.4107 360.63C26.9253 360.63 26.4913 360.747 26.1087 360.98C25.7353 361.213 25.4413 361.545 25.2267 361.974C25.0213 362.394 24.9187 362.893 24.9187 363.472C24.9187 364.041 25.0213 364.541 25.2267 364.97C25.4413 365.399 25.7353 365.731 26.1087 365.964C26.4913 366.197 26.9253 366.314 27.4107 366.314ZM35.6443 367.168C34.963 367.168 34.3656 367.009 33.8523 366.692C33.3483 366.365 32.9563 365.922 32.6763 365.362C32.3963 364.802 32.2563 364.167 32.2563 363.458C32.2563 362.749 32.3963 362.119 32.6763 361.568C32.9563 361.008 33.353 360.569 33.8663 360.252C34.3796 359.935 34.977 359.776 35.6583 359.776C36.2556 359.776 36.7783 359.907 37.2263 360.168C37.6836 360.42 38.0336 360.779 38.2763 361.246V356.92H39.2563V367H38.3603L38.2763 365.726C38.127 365.969 37.931 366.202 37.6883 366.426C37.455 366.65 37.1656 366.832 36.8203 366.972C36.4843 367.103 36.0923 367.168 35.6443 367.168ZM35.7283 366.314C36.223 366.314 36.6523 366.197 37.0163 365.964C37.3896 365.731 37.679 365.399 37.8843 364.97C38.099 364.541 38.2063 364.041 38.2063 363.472C38.2063 362.903 38.099 362.403 37.8843 361.974C37.679 361.545 37.3896 361.213 37.0163 360.98C36.6523 360.747 36.223 360.63 35.7283 360.63C35.243 360.63 34.8136 360.747 34.4403 360.98C34.067 361.213 33.773 361.545 33.5583 361.974C33.353 362.394 33.2503 362.893 33.2503 363.472C33.2503 364.051 33.3576 364.555 33.5723 364.984C33.787 365.404 34.081 365.731 34.4543 365.964C34.8276 366.197 35.2523 366.314 35.7283 366.314ZM43.5 367.168C42.9306 367.168 42.4546 367.065 42.072 366.86C41.6986 366.655 41.4186 366.389 41.232 366.062C41.0546 365.735 40.966 365.376 40.966 364.984C40.966 364.499 41.0873 364.088 41.33 363.752C41.582 363.416 41.932 363.164 42.38 362.996C42.828 362.828 43.3506 362.744 43.948 362.744H45.852C45.852 362.287 45.782 361.899 45.642 361.582C45.502 361.265 45.2966 361.027 45.026 360.868C44.7553 360.7 44.4146 360.616 44.004 360.616C43.528 360.616 43.1173 360.737 42.772 360.98C42.4266 361.223 42.212 361.577 42.128 362.044H41.106C41.162 361.549 41.33 361.134 41.61 360.798C41.8993 360.462 42.254 360.21 42.674 360.042C43.094 359.865 43.5373 359.776 44.004 359.776C44.6573 359.776 45.1893 359.902 45.6 360.154C46.0106 360.397 46.3186 360.733 46.524 361.162C46.7293 361.591 46.832 362.086 46.832 362.646V367H45.936L45.88 365.712C45.796 365.908 45.6793 366.095 45.53 366.272C45.39 366.449 45.222 366.603 45.026 366.734C44.8393 366.865 44.62 366.967 44.368 367.042C44.116 367.126 43.8266 367.168 43.5 367.168ZM43.612 366.314C43.9573 366.314 44.2653 366.244 44.536 366.104C44.816 365.955 45.054 365.763 45.25 365.53C45.446 365.297 45.5953 365.035 45.698 364.746C45.8006 364.447 45.852 364.139 45.852 363.822V363.57H44.018C43.5233 363.57 43.1266 363.631 42.828 363.752C42.5293 363.873 42.3146 364.037 42.184 364.242C42.0533 364.447 41.988 364.685 41.988 364.956C41.988 365.227 42.0486 365.465 42.17 365.67C42.2913 365.866 42.4733 366.025 42.716 366.146C42.968 366.258 43.2666 366.314 43.612 366.314ZM51.1387 367C50.7374 367 50.392 366.939 50.1027 366.818C49.8134 366.687 49.5894 366.477 49.4307 366.188C49.2814 365.889 49.2067 365.483 49.2067 364.97V360.784H47.9747V359.944H49.2067L49.3467 358.306H50.1867V359.958H52.3007V360.784H50.1867V364.97C50.1867 365.437 50.28 365.754 50.4667 365.922C50.6534 366.081 50.9847 366.16 51.4607 366.16H52.1887V367H51.1387ZM56.6567 367.168C56.0033 367.168 55.4247 367.014 54.9207 366.706C54.426 366.398 54.034 365.969 53.7447 365.418C53.4647 364.858 53.3247 364.205 53.3247 363.458C53.3247 362.711 53.4647 362.063 53.7447 361.512C54.0247 360.961 54.4167 360.537 54.9207 360.238C55.434 359.93 56.022 359.776 56.6847 359.776C57.366 359.776 57.94 359.93 58.4067 360.238C58.8827 360.546 59.242 360.947 59.4847 361.442C59.7367 361.937 59.8627 362.478 59.8627 363.066C59.8627 363.159 59.8627 363.257 59.8627 363.36C59.8627 363.453 59.858 363.565 59.8487 363.696H54.0667V362.87H58.9107C58.892 362.151 58.668 361.596 58.2387 361.204C57.8187 360.812 57.2867 360.616 56.6427 360.616C56.2227 360.616 55.8307 360.714 55.4667 360.91C55.112 361.097 54.8227 361.377 54.5987 361.75C54.384 362.114 54.2767 362.576 54.2767 363.136V363.5C54.2767 364.135 54.3887 364.662 54.6127 365.082C54.8367 365.502 55.1307 365.815 55.4947 366.02C55.868 366.225 56.2553 366.328 56.6567 366.328C57.1887 366.328 57.6273 366.211 57.9727 365.978C58.318 365.735 58.5653 365.404 58.7147 364.984H59.6807C59.5593 365.395 59.3633 365.768 59.0927 366.104C58.8313 366.44 58.4953 366.701 58.0847 366.888C57.674 367.075 57.198 367.168 56.6567 367.168ZM64.0567 367.168C63.4967 367.168 63.002 367.075 62.5727 366.888C62.1527 366.701 61.812 366.435 61.5507 366.09C61.2987 365.735 61.1447 365.315 61.0887 364.83H62.0967C62.1527 365.101 62.26 365.348 62.4187 365.572C62.5867 365.796 62.8107 365.978 63.0907 366.118C63.3707 366.249 63.702 366.314 64.0847 366.314C64.4393 366.314 64.7287 366.263 64.9527 366.16C65.186 366.048 65.3587 365.903 65.4707 365.726C65.592 365.539 65.6527 365.334 65.6527 365.11C65.6527 364.802 65.578 364.564 65.4287 364.396C65.2887 364.219 65.0833 364.088 64.8127 364.004C64.542 363.92 64.2153 363.841 63.8327 363.766C63.5153 363.71 63.212 363.635 62.9227 363.542C62.6333 363.449 62.372 363.327 62.1387 363.178C61.9147 363.029 61.7373 362.842 61.6067 362.618C61.476 362.385 61.4107 362.114 61.4107 361.806C61.4107 361.405 61.5087 361.055 61.7047 360.756C61.91 360.448 62.1993 360.21 62.5727 360.042C62.946 359.865 63.3847 359.776 63.8887 359.776C64.6073 359.776 65.1953 359.958 65.6527 360.322C66.11 360.677 66.376 361.199 66.4507 361.89H65.4707C65.4333 361.507 65.2747 361.204 64.9947 360.98C64.7147 360.756 64.3367 360.644 63.8607 360.644C63.394 360.644 63.0347 360.742 62.7827 360.938C62.54 361.125 62.4187 361.381 62.4187 361.708C62.4187 361.913 62.484 362.091 62.6147 362.24C62.7453 362.389 62.9367 362.52 63.1887 362.632C63.45 362.735 63.7673 362.823 64.1407 362.898C64.5887 362.982 64.9993 363.094 65.3727 363.234C65.7553 363.365 66.0633 363.57 66.2967 363.85C66.5393 364.121 66.6607 364.508 66.6607 365.012C66.67 365.432 66.5673 365.805 66.3527 366.132C66.138 366.459 65.8347 366.715 65.4427 366.902C65.0507 367.079 64.5887 367.168 64.0567 367.168ZM74.9278 367C74.5264 367 74.1811 366.939 73.8918 366.818C73.6024 366.687 73.3784 366.477 73.2198 366.188C73.0704 365.889 72.9958 365.483 72.9958 364.97V360.784H71.7638V359.944H72.9958L73.1358 358.306H73.9758V359.958H76.0898V360.784H73.9758V364.97C73.9758 365.437 74.0691 365.754 74.2558 365.922C74.4424 366.081 74.7738 366.16 75.2498 366.16H75.9778V367H74.9278ZM77.6131 367V356.92H78.5931V361.204C78.8358 360.756 79.1718 360.406 79.6011 360.154C80.0305 359.902 80.5018 359.776 81.0151 359.776C81.5471 359.776 82.0091 359.883 82.4011 360.098C82.8025 360.313 83.1105 360.639 83.3251 361.078C83.5491 361.517 83.6611 362.077 83.6611 362.758V367H82.6951V362.87C82.6951 362.114 82.5365 361.554 82.2191 361.19C81.9111 360.817 81.4538 360.63 80.8471 360.63C80.4271 360.63 80.0445 360.733 79.6991 360.938C79.3631 361.143 79.0925 361.442 78.8871 361.834C78.6911 362.217 78.5931 362.693 78.5931 363.262V367H77.6131ZM87.7695 367.168C87.2002 367.168 86.7242 367.065 86.3415 366.86C85.9682 366.655 85.6882 366.389 85.5015 366.062C85.3242 365.735 85.2355 365.376 85.2355 364.984C85.2355 364.499 85.3568 364.088 85.5995 363.752C85.8515 363.416 86.2015 363.164 86.6495 362.996C87.0975 362.828 87.6202 362.744 88.2175 362.744H90.1215C90.1215 362.287 90.0515 361.899 89.9115 361.582C89.7715 361.265 89.5662 361.027 89.2955 360.868C89.0248 360.7 88.6842 360.616 88.2735 360.616C87.7975 360.616 87.3868 360.737 87.0415 360.98C86.6962 361.223 86.4815 361.577 86.3975 362.044H85.3755C85.4315 361.549 85.5995 361.134 85.8795 360.798C86.1688 360.462 86.5235 360.21 86.9435 360.042C87.3635 359.865 87.8068 359.776 88.2735 359.776C88.9268 359.776 89.4588 359.902 89.8695 360.154C90.2802 360.397 90.5882 360.733 90.7935 361.162C90.9988 361.591 91.1015 362.086 91.1015 362.646V367H90.2055L90.1495 365.712C90.0655 365.908 89.9488 366.095 89.7995 366.272C89.6595 366.449 89.4915 366.603 89.2955 366.734C89.1088 366.865 88.8895 366.967 88.6375 367.042C88.3855 367.126 88.0962 367.168 87.7695 367.168ZM87.8815 366.314C88.2268 366.314 88.5348 366.244 88.8055 366.104C89.0855 365.955 89.3235 365.763 89.5195 365.53C89.7155 365.297 89.8648 365.035 89.9675 364.746C90.0702 364.447 90.1215 364.139 90.1215 363.822V363.57H88.2875C87.7928 363.57 87.3962 363.631 87.0975 363.752C86.7988 363.873 86.5842 364.037 86.4535 364.242C86.3228 364.447 86.2575 364.685 86.2575 364.956C86.2575 365.227 86.3182 365.465 86.4395 365.67C86.5608 365.866 86.7428 366.025 86.9855 366.146C87.2375 366.258 87.5362 366.314 87.8815 366.314ZM95.4082 367C95.0069 367 94.6616 366.939 94.3722 366.818C94.0829 366.687 93.8589 366.477 93.7002 366.188C93.5509 365.889 93.4762 365.483 93.4762 364.97V360.784H92.2442V359.944H93.4762L93.6162 358.306H94.4562V359.958H96.5702V360.784H94.4562V364.97C94.4562 365.437 94.5496 365.754 94.7362 365.922C94.9229 366.081 95.2542 366.16 95.7302 366.16H96.4582V367H95.4082ZM101.949 370.08V359.944H102.845L102.929 361.218C103.078 360.966 103.274 360.733 103.517 360.518C103.76 360.294 104.049 360.117 104.385 359.986C104.73 359.846 105.122 359.776 105.561 359.776C106.242 359.776 106.835 359.939 107.339 360.266C107.852 360.593 108.249 361.036 108.529 361.596C108.809 362.147 108.949 362.777 108.949 363.486C108.949 364.195 108.804 364.83 108.515 365.39C108.235 365.941 107.843 366.375 107.339 366.692C106.835 367.009 106.238 367.168 105.547 367.168C104.95 367.168 104.422 367.042 103.965 366.79C103.517 366.529 103.172 366.165 102.929 365.698V370.08H101.949ZM105.477 366.314C105.962 366.314 106.387 366.197 106.751 365.964C107.124 365.731 107.418 365.404 107.633 364.984C107.848 364.555 107.955 364.051 107.955 363.472C107.955 362.903 107.848 362.403 107.633 361.974C107.418 361.545 107.124 361.213 106.751 360.98C106.387 360.747 105.962 360.63 105.477 360.63C104.992 360.63 104.558 360.747 104.175 360.98C103.802 361.213 103.508 361.545 103.293 361.974C103.088 362.394 102.985 362.893 102.985 363.472C102.985 364.041 103.088 364.541 103.293 364.97C103.508 365.399 103.802 365.731 104.175 365.964C104.558 366.197 104.992 366.314 105.477 366.314ZM110.631 367V359.944H111.527L111.597 361.302C111.746 360.975 111.947 360.7 112.199 360.476C112.451 360.252 112.754 360.079 113.109 359.958C113.463 359.837 113.865 359.776 114.313 359.776V360.798H113.935C113.636 360.798 113.347 360.84 113.067 360.924C112.787 360.999 112.539 361.129 112.325 361.316C112.11 361.503 111.937 361.755 111.807 362.072C111.676 362.389 111.611 362.786 111.611 363.262V367H110.631ZM118.413 367.168C117.759 367.168 117.181 367.014 116.677 366.706C116.182 366.398 115.79 365.969 115.501 365.418C115.221 364.858 115.081 364.205 115.081 363.458C115.081 362.711 115.221 362.063 115.501 361.512C115.781 360.961 116.173 360.537 116.677 360.238C117.19 359.93 117.778 359.776 118.441 359.776C119.122 359.776 119.696 359.93 120.163 360.238C120.639 360.546 120.998 360.947 121.241 361.442C121.493 361.937 121.619 362.478 121.619 363.066C121.619 363.159 121.619 363.257 121.619 363.36C121.619 363.453 121.614 363.565 121.605 363.696H115.823V362.87H120.667C120.648 362.151 120.424 361.596 119.995 361.204C119.575 360.812 119.043 360.616 118.399 360.616C117.979 360.616 117.587 360.714 117.223 360.91C116.868 361.097 116.579 361.377 116.355 361.75C116.14 362.114 116.033 362.576 116.033 363.136V363.5C116.033 364.135 116.145 364.662 116.369 365.082C116.593 365.502 116.887 365.815 117.251 366.02C117.624 366.225 118.011 366.328 118.413 366.328C118.945 366.328 119.383 366.211 119.729 365.978C120.074 365.735 120.321 365.404 120.471 364.984H121.437C121.315 365.395 121.119 365.768 120.849 366.104C120.587 366.44 120.251 366.701 119.841 366.888C119.43 367.075 118.954 367.168 118.413 367.168ZM125.021 367L122.333 359.944H123.355L125.595 366.048L127.835 359.944H128.843L126.141 367H125.021ZM132.85 367.168C132.197 367.168 131.618 367.014 131.114 366.706C130.619 366.398 130.227 365.969 129.938 365.418C129.658 364.858 129.518 364.205 129.518 363.458C129.518 362.711 129.658 362.063 129.938 361.512C130.218 360.961 130.61 360.537 131.114 360.238C131.627 359.93 132.215 359.776 132.878 359.776C133.559 359.776 134.133 359.93 134.6 360.238C135.076 360.546 135.435 360.947 135.678 361.442C135.93 361.937 136.056 362.478 136.056 363.066C136.056 363.159 136.056 363.257 136.056 363.36C136.056 363.453 136.051 363.565 136.042 363.696H130.26V362.87H135.104C135.085 362.151 134.861 361.596 134.432 361.204C134.012 360.812 133.48 360.616 132.836 360.616C132.416 360.616 132.024 360.714 131.66 360.91C131.305 361.097 131.016 361.377 130.792 361.75C130.577 362.114 130.47 362.576 130.47 363.136V363.5C130.47 364.135 130.582 364.662 130.806 365.082C131.03 365.502 131.324 365.815 131.688 366.02C132.061 366.225 132.449 366.328 132.85 366.328C133.382 366.328 133.821 366.211 134.166 365.978C134.511 365.735 134.759 365.404 134.908 364.984H135.874C135.753 365.395 135.557 365.768 135.286 366.104C135.025 366.44 134.689 366.701 134.278 366.888C133.867 367.075 133.391 367.168 132.85 367.168ZM137.66 367V359.944H138.556L138.612 361.204C138.836 360.756 139.158 360.406 139.578 360.154C140.007 359.902 140.483 359.776 141.006 359.776C141.547 359.776 142.019 359.883 142.42 360.098C142.821 360.313 143.134 360.639 143.358 361.078C143.582 361.507 143.694 362.058 143.694 362.73V367H142.714V362.842C142.714 362.095 142.551 361.54 142.224 361.176C141.897 360.812 141.431 360.63 140.824 360.63C140.413 360.63 140.04 360.733 139.704 360.938C139.377 361.134 139.116 361.423 138.92 361.806C138.733 362.189 138.64 362.66 138.64 363.22V367H137.66ZM148.223 367C147.821 367 147.476 366.939 147.187 366.818C146.897 366.687 146.673 366.477 146.515 366.188C146.365 365.889 146.291 365.483 146.291 364.97V360.784H145.059V359.944H146.291L146.431 358.306H147.271V359.958H149.385V360.784H147.271V364.97C147.271 365.437 147.364 365.754 147.551 365.922C147.737 366.081 148.069 366.16 148.545 366.16H149.273V367H148.223ZM19.074 386.168C18.3927 386.168 17.7953 386.009 17.282 385.692C16.778 385.365 16.386 384.922 16.106 384.362C15.826 383.802 15.686 383.167 15.686 382.458C15.686 381.749 15.826 381.119 16.106 380.568C16.386 380.008 16.7827 379.569 17.296 379.252C17.8093 378.935 18.4067 378.776 19.088 378.776C19.6853 378.776 20.208 378.907 20.656 379.168C21.1133 379.42 21.4633 379.779 21.706 380.246V375.92H22.686V386H21.79L21.706 384.726C21.5567 384.969 21.3607 385.202 21.118 385.426C20.8847 385.65 20.5953 385.832 20.25 385.972C19.914 386.103 19.522 386.168 19.074 386.168ZM19.158 385.314C19.6527 385.314 20.082 385.197 20.446 384.964C20.8193 384.731 21.1087 384.399 21.314 383.97C21.5287 383.541 21.636 383.041 21.636 382.472C21.636 381.903 21.5287 381.403 21.314 380.974C21.1087 380.545 20.8193 380.213 20.446 379.98C20.082 379.747 19.6527 379.63 19.158 379.63C18.6727 379.63 18.2433 379.747 17.87 379.98C17.4967 380.213 17.2027 380.545 16.988 380.974C16.7827 381.394 16.68 381.893 16.68 382.472C16.68 383.051 16.7873 383.555 17.002 383.984C17.2167 384.404 17.5107 384.731 17.884 384.964C18.2573 385.197 18.682 385.314 19.158 385.314ZM27.7836 386.168C27.1396 386.168 26.5563 386.019 26.0336 385.72C25.5203 385.412 25.1143 384.983 24.8156 384.432C24.517 383.872 24.3676 383.223 24.3676 382.486C24.3676 381.721 24.517 381.063 24.8156 380.512C25.1236 379.961 25.539 379.537 26.0616 379.238C26.5843 378.93 27.1676 378.776 27.8116 378.776C28.4836 378.776 29.0763 378.93 29.5896 379.238C30.103 379.537 30.509 379.961 30.8076 380.512C31.1063 381.063 31.2556 381.721 31.2556 382.486C31.2556 383.223 31.1016 383.872 30.7936 384.432C30.495 384.983 30.0843 385.412 29.5616 385.72C29.0483 386.019 28.4556 386.168 27.7836 386.168ZM27.7976 385.328C28.2363 385.328 28.6376 385.221 29.0016 385.006C29.375 384.791 29.6736 384.474 29.8976 384.054C30.131 383.625 30.2476 383.097 30.2476 382.472C30.2476 381.837 30.1356 381.31 29.9116 380.89C29.6876 380.47 29.389 380.157 29.0156 379.952C28.6516 379.737 28.2503 379.63 27.8116 379.63C27.3916 379.63 26.995 379.737 26.6216 379.952C26.2483 380.167 25.945 380.484 25.7116 380.904C25.4876 381.315 25.3756 381.837 25.3756 382.472C25.3756 383.097 25.4876 383.625 25.7116 384.054C25.9356 384.474 26.2296 384.791 26.5936 385.006C26.967 385.221 27.3683 385.328 27.7976 385.328ZM35.4815 386.168C34.9495 386.168 34.4781 386.065 34.0675 385.86C33.6661 385.645 33.3535 385.323 33.1295 384.894C32.9055 384.455 32.7935 383.895 32.7935 383.214V378.944H33.7735V383.102C33.7735 383.849 33.9368 384.404 34.2635 384.768C34.5995 385.132 35.0615 385.314 35.6495 385.314C36.0695 385.314 36.4428 385.216 36.7695 385.02C37.1055 384.824 37.3668 384.535 37.5535 384.152C37.7495 383.76 37.8475 383.284 37.8475 382.724V378.944H38.8275V386H37.9315L37.8755 384.74C37.6515 385.197 37.3248 385.552 36.8955 385.804C36.4755 386.047 36.0041 386.168 35.4815 386.168ZM44.4201 386.168C44.0095 386.168 43.6315 386.107 43.2861 385.986C42.9501 385.855 42.6561 385.683 42.4041 385.468C42.1521 385.244 41.9515 384.992 41.8021 384.712L41.7181 386H40.8221V375.92H41.8021V380.218C42.0355 379.817 42.3715 379.476 42.8101 379.196C43.2488 378.916 43.7855 378.776 44.4201 378.776C45.1108 378.776 45.7128 378.939 46.2261 379.266C46.7395 379.583 47.1315 380.022 47.4021 380.582C47.6821 381.133 47.8221 381.763 47.8221 382.472C47.8221 383.181 47.6821 383.816 47.4021 384.376C47.1221 384.936 46.7255 385.375 46.2121 385.692C45.7081 386.009 45.1108 386.168 44.4201 386.168ZM44.3501 385.314C44.8448 385.314 45.2741 385.197 45.6381 384.964C46.0021 384.731 46.2915 384.399 46.5061 383.97C46.7208 383.541 46.8281 383.041 46.8281 382.472C46.8281 381.893 46.7208 381.394 46.5061 380.974C46.2915 380.545 45.9975 380.213 45.6241 379.98C45.2601 379.747 44.8355 379.63 44.3501 379.63C43.8648 379.63 43.4308 379.747 43.0481 379.98C42.6748 380.213 42.3808 380.545 42.1661 380.974C41.9608 381.403 41.8581 381.903 41.8581 382.472C41.8581 383.051 41.9608 383.555 42.1661 383.984C42.3808 384.404 42.6748 384.731 43.0481 384.964C43.4308 385.197 43.8648 385.314 44.3501 385.314ZM49.5038 386V375.92H50.4838V386H49.5038ZM55.4946 386.168C54.8412 386.168 54.2626 386.014 53.7586 385.706C53.2639 385.398 52.8719 384.969 52.5826 384.418C52.3026 383.858 52.1626 383.205 52.1626 382.458C52.1626 381.711 52.3026 381.063 52.5826 380.512C52.8626 379.961 53.2546 379.537 53.7586 379.238C54.2719 378.93 54.8599 378.776 55.5226 378.776C56.2039 378.776 56.7779 378.93 57.2446 379.238C57.7206 379.546 58.0799 379.947 58.3226 380.442C58.5746 380.937 58.7006 381.478 58.7006 382.066C58.7006 382.159 58.7006 382.257 58.7006 382.36C58.7006 382.453 58.6959 382.565 58.6866 382.696H52.9046V381.87H57.7486C57.7299 381.151 57.5059 380.596 57.0766 380.204C56.6566 379.812 56.1246 379.616 55.4806 379.616C55.0606 379.616 54.6686 379.714 54.3046 379.91C53.9499 380.097 53.6606 380.377 53.4366 380.75C53.2219 381.114 53.1146 381.576 53.1146 382.136V382.5C53.1146 383.135 53.2266 383.662 53.4506 384.082C53.6746 384.502 53.9686 384.815 54.3326 385.02C54.7059 385.225 55.0932 385.328 55.4946 385.328C56.0266 385.328 56.4652 385.211 56.8106 384.978C57.1559 384.735 57.4032 384.404 57.5526 383.984H58.5186C58.3972 384.395 58.2012 384.768 57.9306 385.104C57.6692 385.44 57.3332 385.701 56.9226 385.888C56.5119 386.075 56.0359 386.168 55.4946 386.168ZM67.758 386.168C67.3473 386.168 66.9693 386.107 66.624 385.986C66.288 385.855 65.994 385.683 65.742 385.468C65.49 385.244 65.2893 384.992 65.14 384.712L65.056 386H64.16V375.92H65.14V380.218C65.3733 379.817 65.7093 379.476 66.148 379.196C66.5867 378.916 67.1233 378.776 67.758 378.776C68.4487 378.776 69.0507 378.939 69.564 379.266C70.0773 379.583 70.4693 380.022 70.74 380.582C71.02 381.133 71.16 381.763 71.16 382.472C71.16 383.181 71.02 383.816 70.74 384.376C70.46 384.936 70.0633 385.375 69.55 385.692C69.046 386.009 68.4487 386.168 67.758 386.168ZM67.688 385.314C68.1827 385.314 68.612 385.197 68.976 384.964C69.34 384.731 69.6293 384.399 69.844 383.97C70.0587 383.541 70.166 383.041 70.166 382.472C70.166 381.893 70.0587 381.394 69.844 380.974C69.6293 380.545 69.3353 380.213 68.962 379.98C68.598 379.747 68.1733 379.63 67.688 379.63C67.2027 379.63 66.7687 379.747 66.386 379.98C66.0127 380.213 65.7187 380.545 65.504 380.974C65.2987 381.403 65.196 381.903 65.196 382.472C65.196 383.051 65.2987 383.555 65.504 383.984C65.7187 384.404 66.0127 384.731 66.386 384.964C66.7687 385.197 67.2027 385.314 67.688 385.314ZM75.9497 386.168C75.3057 386.168 74.7223 386.019 74.1997 385.72C73.6863 385.412 73.2803 384.983 72.9817 384.432C72.683 383.872 72.5337 383.223 72.5337 382.486C72.5337 381.721 72.683 381.063 72.9817 380.512C73.2897 379.961 73.705 379.537 74.2277 379.238C74.7503 378.93 75.3337 378.776 75.9777 378.776C76.6497 378.776 77.2423 378.93 77.7557 379.238C78.269 379.537 78.675 379.961 78.9737 380.512C79.2723 381.063 79.4217 381.721 79.4217 382.486C79.4217 383.223 79.2677 383.872 78.9597 384.432C78.661 384.983 78.2503 385.412 77.7277 385.72C77.2143 386.019 76.6217 386.168 75.9497 386.168ZM75.9637 385.328C76.4023 385.328 76.8037 385.221 77.1677 385.006C77.541 384.791 77.8397 384.474 78.0637 384.054C78.297 383.625 78.4137 383.097 78.4137 382.472C78.4137 381.837 78.3017 381.31 78.0777 380.89C77.8537 380.47 77.555 380.157 77.1817 379.952C76.8177 379.737 76.4163 379.63 75.9777 379.63C75.5577 379.63 75.161 379.737 74.7877 379.952C74.4143 380.167 74.111 380.484 73.8777 380.904C73.6537 381.315 73.5417 381.837 73.5417 382.472C73.5417 383.097 73.6537 383.625 73.8777 384.054C74.1017 384.474 74.3957 384.791 74.7597 385.006C75.133 385.221 75.5343 385.328 75.9637 385.328ZM84.2075 386.168C83.5635 386.168 82.9801 386.019 82.4575 385.72C81.9441 385.412 81.5381 384.983 81.2395 384.432C80.9408 383.872 80.7915 383.223 80.7915 382.486C80.7915 381.721 80.9408 381.063 81.2395 380.512C81.5475 379.961 81.9628 379.537 82.4855 379.238C83.0081 378.93 83.5915 378.776 84.2355 378.776C84.9075 378.776 85.5001 378.93 86.0135 379.238C86.5268 379.537 86.9328 379.961 87.2315 380.512C87.5301 381.063 87.6795 381.721 87.6795 382.486C87.6795 383.223 87.5255 383.872 87.2175 384.432C86.9188 384.983 86.5081 385.412 85.9855 385.72C85.4721 386.019 84.8795 386.168 84.2075 386.168ZM84.2215 385.328C84.6601 385.328 85.0615 385.221 85.4255 385.006C85.7988 384.791 86.0975 384.474 86.3215 384.054C86.5548 383.625 86.6715 383.097 86.6715 382.472C86.6715 381.837 86.5595 381.31 86.3355 380.89C86.1115 380.47 85.8128 380.157 85.4395 379.952C85.0755 379.737 84.6741 379.63 84.2355 379.63C83.8155 379.63 83.4188 379.737 83.0455 379.952C82.6721 380.167 82.3688 380.484 82.1355 380.904C81.9115 381.315 81.7995 381.837 81.7995 382.472C81.7995 383.097 81.9115 383.625 82.1355 384.054C82.3595 384.474 82.6535 384.791 83.0175 385.006C83.3908 385.221 83.7921 385.328 84.2215 385.328ZM93.6273 386L90.1693 382.136L93.3333 378.944H94.5513L91.0373 382.458L91.0513 381.8L94.8873 386H93.6273ZM89.3573 386V375.92H90.3373V386H89.3573ZM96.2922 386V378.944H97.2582V386H96.2922ZM96.7822 377.278C96.5862 377.278 96.4182 377.213 96.2782 377.082C96.1382 376.942 96.0682 376.769 96.0682 376.564C96.0682 376.349 96.1335 376.181 96.2642 376.06C96.4042 375.929 96.5722 375.864 96.7682 375.864C96.9642 375.864 97.1322 375.929 97.2722 376.06C97.4122 376.181 97.4822 376.349 97.4822 376.564C97.4822 376.769 97.4122 376.942 97.2722 377.082C97.1415 377.213 96.9782 377.278 96.7822 377.278ZM99.3924 386V378.944H100.288L100.344 380.204C100.568 379.756 100.89 379.406 101.31 379.154C101.74 378.902 102.216 378.776 102.738 378.776C103.28 378.776 103.751 378.883 104.152 379.098C104.554 379.313 104.866 379.639 105.09 380.078C105.314 380.507 105.426 381.058 105.426 381.73V386H104.446V381.842C104.446 381.095 104.283 380.54 103.956 380.176C103.63 379.812 103.163 379.63 102.556 379.63C102.146 379.63 101.772 379.733 101.436 379.938C101.11 380.134 100.848 380.423 100.652 380.806C100.466 381.189 100.372 381.66 100.372 382.22V386H99.3924ZM110.011 389.248C109.386 389.248 108.83 389.164 108.345 388.996C107.869 388.828 107.491 388.576 107.211 388.24C106.94 387.904 106.805 387.489 106.805 386.994C106.805 386.798 106.838 386.583 106.903 386.35C106.978 386.126 107.118 385.897 107.323 385.664C107.528 385.431 107.818 385.221 108.191 385.034L108.989 385.384C108.494 385.617 108.172 385.869 108.023 386.14C107.874 386.42 107.799 386.672 107.799 386.896C107.799 387.232 107.892 387.512 108.079 387.736C108.275 387.96 108.536 388.128 108.863 388.24C109.199 388.361 109.582 388.422 110.011 388.422C110.44 388.422 110.809 388.357 111.117 388.226C111.434 388.105 111.677 387.927 111.845 387.694C112.013 387.47 112.097 387.209 112.097 386.91C112.097 386.565 111.962 386.271 111.691 386.028C111.43 385.795 110.94 385.659 110.221 385.622C109.652 385.585 109.18 385.538 108.807 385.482C108.443 385.417 108.14 385.342 107.897 385.258C107.664 385.165 107.468 385.067 107.309 384.964C107.16 384.861 107.015 384.749 106.875 384.628V384.306L108.219 383.032L109.115 383.354L107.799 384.53L107.883 384.152C107.986 384.227 108.084 384.297 108.177 384.362C108.28 384.427 108.41 384.483 108.569 384.53C108.737 384.567 108.966 384.609 109.255 384.656C109.554 384.693 109.955 384.731 110.459 384.768C111.103 384.815 111.616 384.927 111.999 385.104C112.382 385.281 112.662 385.519 112.839 385.818C113.016 386.117 113.105 386.467 113.105 386.868C113.105 387.269 112.993 387.652 112.769 388.016C112.554 388.38 112.218 388.674 111.761 388.898C111.313 389.131 110.73 389.248 110.011 389.248ZM109.997 383.76C109.4 383.76 108.896 383.648 108.485 383.424C108.084 383.2 107.776 382.901 107.561 382.528C107.346 382.145 107.239 381.725 107.239 381.268C107.239 380.801 107.346 380.381 107.561 380.008C107.776 379.635 108.088 379.336 108.499 379.112C108.91 378.888 109.409 378.776 109.997 378.776C110.594 378.776 111.094 378.888 111.495 379.112C111.906 379.336 112.214 379.635 112.419 380.008C112.634 380.381 112.741 380.801 112.741 381.268C112.741 381.725 112.634 382.145 112.419 382.528C112.214 382.901 111.906 383.2 111.495 383.424C111.094 383.648 110.594 383.76 109.997 383.76ZM109.997 382.92C110.538 382.92 110.963 382.78 111.271 382.5C111.588 382.211 111.747 381.8 111.747 381.268C111.747 380.727 111.588 380.316 111.271 380.036C110.963 379.756 110.538 379.616 109.997 379.616C109.456 379.616 109.022 379.756 108.695 380.036C108.378 380.316 108.219 380.727 108.219 381.268C108.219 381.8 108.378 382.211 108.695 382.5C109.012 382.78 109.446 382.92 109.997 382.92ZM111.145 379.826L110.795 378.944H113.651V379.742L111.145 379.826ZM117.596 386.168C117.036 386.168 116.541 386.075 116.112 385.888C115.692 385.701 115.351 385.435 115.09 385.09C114.838 384.735 114.684 384.315 114.628 383.83H115.636C115.692 384.101 115.799 384.348 115.958 384.572C116.126 384.796 116.35 384.978 116.63 385.118C116.91 385.249 117.241 385.314 117.624 385.314C117.978 385.314 118.268 385.263 118.492 385.16C118.725 385.048 118.898 384.903 119.01 384.726C119.131 384.539 119.192 384.334 119.192 384.11C119.192 383.802 119.117 383.564 118.968 383.396C118.828 383.219 118.622 383.088 118.352 383.004C118.081 382.92 117.754 382.841 117.372 382.766C117.054 382.71 116.751 382.635 116.462 382.542C116.172 382.449 115.911 382.327 115.678 382.178C115.454 382.029 115.276 381.842 115.146 381.618C115.015 381.385 114.95 381.114 114.95 380.806C114.95 380.405 115.048 380.055 115.244 379.756C115.449 379.448 115.738 379.21 116.112 379.042C116.485 378.865 116.924 378.776 117.428 378.776C118.146 378.776 118.734 378.958 119.192 379.322C119.649 379.677 119.915 380.199 119.99 380.89H119.01C118.972 380.507 118.814 380.204 118.534 379.98C118.254 379.756 117.876 379.644 117.4 379.644C116.933 379.644 116.574 379.742 116.322 379.938C116.079 380.125 115.958 380.381 115.958 380.708C115.958 380.913 116.023 381.091 116.154 381.24C116.284 381.389 116.476 381.52 116.728 381.632C116.989 381.735 117.306 381.823 117.68 381.898C118.128 381.982 118.538 382.094 118.912 382.234C119.294 382.365 119.602 382.57 119.836 382.85C120.078 383.121 120.2 383.508 120.2 384.012C120.209 384.432 120.106 384.805 119.892 385.132C119.677 385.459 119.374 385.715 118.982 385.902C118.59 386.079 118.128 386.168 117.596 386.168Z" fill="white"/>
</svg>
