<svg width="430" height="470" viewBox="0 0 430 470" fill="none" xmlns="http://www.w3.org/2000/svg">
<g clip-path="url(#clip0_2094_3831)">
<rect x="-24.5504" y="0.35" width="29.3142" height="28.6889" fill="white" stroke="#ECF2FF" stroke-width="0.7"/>
<rect x="-24.5504" y="29.7389" width="29.3142" height="28.6889" fill="white" stroke="#ECF2FF" stroke-width="0.7"/>
<rect x="-24.5504" y="59.1278" width="29.3142" height="28.6889" fill="white" stroke="#ECF2FF" stroke-width="0.7"/>
<rect x="-24.5504" y="117.906" width="29.3142" height="28.6889" fill="white" stroke="#ECF2FF" stroke-width="0.7"/>
<rect x="-24.5504" y="176.683" width="29.3142" height="28.6889" fill="white" stroke="#ECF2FF" stroke-width="0.7"/>
<rect x="-24.5504" y="235.461" width="29.3142" height="28.6889" fill="white" stroke="#ECF2FF" stroke-width="0.7"/>
<rect x="-24.5504" y="264.85" width="29.3142" height="28.6889" fill="white" stroke="#ECF2FF" stroke-width="0.7"/>
<rect opacity="0.2" x="-24.5504" y="294.239" width="29.3142" height="28.6889" fill="white" stroke="#ECF2FF" stroke-width="0.7"/>
<rect x="-24.5504" y="323.628" width="29.3142" height="28.6889" fill="white" stroke="#ECF2FF" stroke-width="0.7"/>
<rect x="-24.5504" y="353.017" width="29.3142" height="28.6889" fill="white" stroke="#ECF2FF" stroke-width="0.7"/>
<rect x="-24.5504" y="382.406" width="29.3142" height="28.6889" fill="white" stroke="#ECF2FF" stroke-width="0.7"/>
<rect x="-24.5504" y="411.794" width="29.3142" height="28.6889" fill="white" stroke="#ECF2FF" stroke-width="0.7"/>
<rect x="-24.5504" y="441.183" width="29.3142" height="28.6889" fill="white" stroke="#ECF2FF" stroke-width="0.7"/>
<rect x="5.46328" y="0.35" width="29.3142" height="28.6889" fill="white" stroke="#ECF2FF" stroke-width="0.7"/>
<rect x="5.46328" y="29.7389" width="29.3142" height="28.6889" fill="white" stroke="#ECF2FF" stroke-width="0.7"/>
<rect x="5.46328" y="206.072" width="29.3142" height="28.6889" fill="white" stroke="#ECF2FF" stroke-width="0.7"/>
<rect x="5.46328" y="235.461" width="29.3142" height="28.6889" fill="white" stroke="#ECF2FF" stroke-width="0.7"/>
<rect opacity="0.2" x="5.46328" y="264.85" width="29.3142" height="28.6889" fill="white" stroke="#ECF2FF" stroke-width="0.7"/>
<rect x="5.46328" y="294.239" width="29.3142" height="28.6889" fill="white" stroke="#ECF2FF" stroke-width="0.7"/>
<rect x="5.46328" y="323.628" width="29.3142" height="28.6889" fill="white" stroke="#ECF2FF" stroke-width="0.7"/>
<rect opacity="0.4" x="5.46328" y="353.017" width="29.3142" height="28.6889" fill="white" stroke="#ECF2FF" stroke-width="0.7"/>
<rect x="5.46328" y="382.406" width="29.3142" height="28.6889" fill="white" stroke="#ECF2FF" stroke-width="0.7"/>
<rect x="5.46328" y="411.794" width="29.3142" height="28.6889" fill="white" stroke="#ECF2FF" stroke-width="0.7"/>
<rect x="5.46328" y="441.183" width="29.3142" height="28.6889" fill="white" stroke="#ECF2FF" stroke-width="0.7"/>
<rect x="35.4779" y="0.35" width="29.3142" height="28.6889" fill="white" stroke="#ECF2FF" stroke-width="0.7"/>
<rect x="35.4779" y="29.7389" width="29.3142" height="28.6889" fill="white" stroke="#ECF2FF" stroke-width="0.7"/>
<rect x="35.4779" y="264.85" width="29.3142" height="28.6889" fill="white" stroke="#ECF2FF" stroke-width="0.7"/>
<rect x="35.4779" y="294.239" width="29.3142" height="28.6889" fill="white" stroke="#ECF2FF" stroke-width="0.7"/>
<rect opacity="0.4" x="35.4779" y="323.628" width="29.3142" height="28.6889" fill="white" stroke="#ECF2FF" stroke-width="0.7"/>
<rect x="35.4779" y="353.017" width="29.3142" height="28.6889" fill="white" stroke="#ECF2FF" stroke-width="0.7"/>
<rect x="35.4779" y="382.406" width="29.3142" height="28.6889" fill="white" stroke="#ECF2FF" stroke-width="0.7"/>
<rect x="35.4779" y="411.794" width="29.3142" height="28.6889" fill="white" stroke="#ECF2FF" stroke-width="0.7"/>
<rect x="35.4779" y="441.183" width="29.3142" height="28.6889" fill="white" stroke="#ECF2FF" stroke-width="0.7"/>
<rect x="65.4926" y="0.35" width="29.3142" height="28.6889" fill="white" stroke="#ECF2FF" stroke-width="0.7"/>
<rect x="65.4926" y="29.7389" width="29.3142" height="28.6889" fill="white" stroke="#ECF2FF" stroke-width="0.7"/>
<rect opacity="0.2" x="65.4926" y="264.85" width="29.3142" height="28.6889" fill="white" stroke="#ECF2FF" stroke-width="0.7"/>
<rect x="65.4926" y="294.239" width="29.3142" height="28.6889" fill="white" stroke="#ECF2FF" stroke-width="0.7"/>
<rect x="65.4926" y="323.628" width="29.3142" height="28.6889" fill="white" stroke="#ECF2FF" stroke-width="0.7"/>
<rect x="65.4926" y="353.017" width="29.3142" height="28.6889" fill="white" stroke="#ECF2FF" stroke-width="0.7"/>
<rect x="65.4926" y="382.406" width="29.3142" height="28.6889" fill="white" stroke="#ECF2FF" stroke-width="0.7"/>
<rect x="65.4926" y="411.794" width="29.3142" height="28.6889" fill="white" stroke="#ECF2FF" stroke-width="0.7"/>
<rect x="65.4926" y="441.183" width="29.3142" height="28.6889" fill="white" stroke="#ECF2FF" stroke-width="0.7"/>
<rect x="95.5053" y="0.35" width="29.3142" height="28.6889" fill="white" stroke="#ECF2FF" stroke-width="0.7"/>
<rect x="95.5053" y="29.7389" width="29.3142" height="28.6889" fill="white" stroke="#ECF2FF" stroke-width="0.7"/>
<rect x="95.5053" y="294.239" width="29.3142" height="28.6889" fill="white" stroke="#ECF2FF" stroke-width="0.7"/>
<rect opacity="0.4" x="95.5053" y="323.628" width="29.3142" height="28.6889" fill="white" stroke="#ECF2FF" stroke-width="0.7"/>
<rect x="95.5053" y="353.017" width="29.3142" height="28.6889" fill="white" stroke="#ECF2FF" stroke-width="0.7"/>
<rect x="95.5053" y="382.406" width="29.3142" height="28.6889" fill="white" stroke="#ECF2FF" stroke-width="0.7"/>
<rect x="95.5053" y="411.794" width="29.3142" height="28.6889" fill="white" stroke="#ECF2FF" stroke-width="0.7"/>
<rect x="95.5053" y="441.183" width="29.3142" height="28.6889" fill="white" stroke="#ECF2FF" stroke-width="0.7"/>
<rect x="125.521" y="0.35" width="29.3142" height="28.6889" fill="white" stroke="#ECF2FF" stroke-width="0.7"/>
<rect x="125.521" y="294.239" width="29.3142" height="28.6889" fill="white" stroke="#ECF2FF" stroke-width="0.7"/>
<rect x="125.521" y="323.628" width="29.3142" height="28.6889" fill="white" stroke="#ECF2FF" stroke-width="0.7"/>
<rect x="125.521" y="353.017" width="29.3142" height="28.6889" fill="white" stroke="#ECF2FF" stroke-width="0.7"/>
<rect x="125.521" y="382.406" width="29.3142" height="28.6889" fill="white" stroke="#ECF2FF" stroke-width="0.7"/>
<rect x="125.521" y="411.794" width="29.3142" height="28.6889" fill="white" stroke="#ECF2FF" stroke-width="0.7"/>
<rect x="125.521" y="441.183" width="29.3142" height="28.6889" fill="white" stroke="#ECF2FF" stroke-width="0.7"/>
<rect x="155.536" y="0.35" width="29.3142" height="28.6889" fill="white" stroke="#ECF2FF" stroke-width="0.7"/>
<rect x="155.536" y="264.85" width="29.3142" height="28.6889" fill="white" stroke="#ECF2FF" stroke-width="0.7"/>
<rect opacity="0.2" x="155.536" y="294.239" width="29.3142" height="28.6889" fill="white" stroke="#ECF2FF" stroke-width="0.7"/>
<rect x="155.536" y="323.628" width="29.3142" height="28.6889" fill="white" stroke="#ECF2FF" stroke-width="0.7"/>
<rect x="155.536" y="353.017" width="29.3142" height="28.6889" fill="white" stroke="#ECF2FF" stroke-width="0.7"/>
<rect x="155.536" y="382.406" width="29.3142" height="28.6889" fill="white" stroke="#ECF2FF" stroke-width="0.7"/>
<rect x="155.536" y="411.794" width="29.3142" height="28.6889" fill="white" stroke="#ECF2FF" stroke-width="0.7"/>
<rect x="155.536" y="441.183" width="29.3142" height="28.6889" fill="white" stroke="#ECF2FF" stroke-width="0.7"/>
<rect x="185.548" y="0.35" width="29.3142" height="28.6889" fill="white" stroke="#ECF2FF" stroke-width="0.7"/>
<rect x="185.548" y="29.7389" width="29.3142" height="28.6889" fill="white" stroke="#ECF2FF" stroke-width="0.7"/>
<rect x="185.548" y="264.85" width="29.3142" height="28.6889" fill="white" stroke="#ECF2FF" stroke-width="0.7"/>
<rect x="185.548" y="294.239" width="29.3142" height="28.6889" fill="white" stroke="#ECF2FF" stroke-width="0.7"/>
<rect x="185.548" y="323.628" width="29.3142" height="28.6889" fill="white" stroke="#ECF2FF" stroke-width="0.7"/>
<rect x="185.548" y="353.017" width="29.3142" height="28.6889" fill="white" stroke="#ECF2FF" stroke-width="0.7"/>
<rect x="185.548" y="382.406" width="29.3142" height="28.6889" fill="white" stroke="#ECF2FF" stroke-width="0.7"/>
<rect x="185.548" y="411.794" width="29.3142" height="28.6889" fill="white" stroke="#ECF2FF" stroke-width="0.7"/>
<rect x="185.548" y="441.183" width="29.3142" height="28.6889" fill="white" stroke="#ECF2FF" stroke-width="0.7"/>
<rect x="215.563" y="0.35" width="29.3142" height="28.6889" fill="white" stroke="#ECF2FF" stroke-width="0.7"/>
<rect x="215.563" y="264.85" width="29.3142" height="28.6889" fill="white" stroke="#ECF2FF" stroke-width="0.7"/>
<rect x="215.563" y="294.239" width="29.3142" height="28.6889" fill="white" stroke="#ECF2FF" stroke-width="0.7"/>
<rect x="215.563" y="323.628" width="29.3142" height="28.6889" fill="white" stroke="#ECF2FF" stroke-width="0.7"/>
<rect x="215.563" y="353.017" width="29.3142" height="28.6889" fill="white" stroke="#ECF2FF" stroke-width="0.7"/>
<rect x="215.563" y="382.406" width="29.3142" height="28.6889" fill="white" stroke="#ECF2FF" stroke-width="0.7"/>
<rect x="215.563" y="411.794" width="29.3142" height="28.6889" fill="white" stroke="#ECF2FF" stroke-width="0.7"/>
<rect x="215.563" y="441.183" width="29.3142" height="28.6889" fill="white" stroke="#ECF2FF" stroke-width="0.7"/>
<rect x="245.578" y="0.35" width="29.3142" height="28.6889" fill="white" stroke="#ECF2FF" stroke-width="0.7"/>
<rect x="245.578" y="29.7389" width="29.3142" height="28.6889" fill="white" stroke="#ECF2FF" stroke-width="0.7"/>
<rect opacity="0.2" x="245.578" y="264.85" width="29.3142" height="28.6889" fill="white" stroke="#ECF2FF" stroke-width="0.7"/>
<rect x="245.578" y="294.239" width="29.3142" height="28.6889" fill="white" stroke="#ECF2FF" stroke-width="0.7"/>
<rect opacity="0.4" x="245.578" y="323.628" width="29.3142" height="28.6889" fill="white" stroke="#ECF2FF" stroke-width="0.7"/>
<rect x="245.578" y="353.017" width="29.3142" height="28.6889" fill="white" stroke="#ECF2FF" stroke-width="0.7"/>
<rect x="245.578" y="382.406" width="29.3142" height="28.6889" fill="white" stroke="#ECF2FF" stroke-width="0.7"/>
<rect x="245.578" y="411.794" width="29.3142" height="28.6889" fill="white" stroke="#ECF2FF" stroke-width="0.7"/>
<rect x="245.578" y="441.183" width="29.3142" height="28.6889" fill="white" stroke="#ECF2FF" stroke-width="0.7"/>
<rect x="275.59" y="0.35" width="29.3142" height="28.6889" fill="white" stroke="#ECF2FF" stroke-width="0.7"/>
<rect x="275.59" y="294.239" width="29.3142" height="28.6889" fill="white" stroke="#ECF2FF" stroke-width="0.7"/>
<rect x="275.59" y="323.628" width="29.3142" height="28.6889" fill="white" stroke="#ECF2FF" stroke-width="0.7"/>
<rect x="275.59" y="353.017" width="29.3142" height="28.6889" fill="white" stroke="#ECF2FF" stroke-width="0.7"/>
<rect x="275.59" y="382.406" width="29.3142" height="28.6889" fill="white" stroke="#ECF2FF" stroke-width="0.7"/>
<rect x="275.59" y="411.794" width="29.3142" height="28.6889" fill="white" stroke="#ECF2FF" stroke-width="0.7"/>
<rect x="275.59" y="441.183" width="29.3142" height="28.6889" fill="white" stroke="#ECF2FF" stroke-width="0.7"/>
<rect x="305.605" y="0.35" width="29.3142" height="28.6889" fill="white" stroke="#ECF2FF" stroke-width="0.7"/>
<rect x="305.605" y="29.7389" width="29.3142" height="28.6889" fill="white" stroke="#ECF2FF" stroke-width="0.7"/>
<rect x="305.605" y="264.85" width="29.3142" height="28.6889" fill="white" stroke="#ECF2FF" stroke-width="0.7"/>
<rect opacity="0.2" x="305.605" y="294.239" width="29.3142" height="28.6889" fill="white" stroke="#ECF2FF" stroke-width="0.7"/>
<rect x="305.605" y="323.628" width="29.3142" height="28.6889" fill="white" stroke="#ECF2FF" stroke-width="0.7"/>
<rect x="305.605" y="353.017" width="29.3142" height="28.6889" fill="white" stroke="#ECF2FF" stroke-width="0.7"/>
<rect x="305.605" y="382.406" width="29.3142" height="28.6889" fill="white" stroke="#ECF2FF" stroke-width="0.7"/>
<rect x="305.605" y="411.794" width="29.3142" height="28.6889" fill="white" stroke="#ECF2FF" stroke-width="0.7"/>
<rect x="305.605" y="441.183" width="29.3142" height="28.6889" fill="white" stroke="#ECF2FF" stroke-width="0.7"/>
<rect x="335.621" y="0.35" width="29.3142" height="28.6889" fill="white" stroke="#ECF2FF" stroke-width="0.7"/>
<rect x="335.621" y="29.7389" width="29.3142" height="28.6889" fill="white" stroke="#ECF2FF" stroke-width="0.7"/>
<rect x="335.621" y="264.85" width="29.3142" height="28.6889" fill="white" stroke="#ECF2FF" stroke-width="0.7"/>
<rect x="335.621" y="294.239" width="29.3142" height="28.6889" fill="white" stroke="#ECF2FF" stroke-width="0.7"/>
<rect opacity="0.4" x="335.621" y="323.628" width="29.3142" height="28.6889" fill="white" stroke="#ECF2FF" stroke-width="0.7"/>
<rect x="335.621" y="353.017" width="29.3142" height="28.6889" fill="white" stroke="#ECF2FF" stroke-width="0.7"/>
<rect x="335.621" y="382.406" width="29.3142" height="28.6889" fill="white" stroke="#ECF2FF" stroke-width="0.7"/>
<rect x="335.621" y="411.794" width="29.3142" height="28.6889" fill="white" stroke="#ECF2FF" stroke-width="0.7"/>
<rect x="335.621" y="441.183" width="29.3142" height="28.6889" fill="white" stroke="#ECF2FF" stroke-width="0.7"/>
<rect x="365.633" y="0.35" width="29.3142" height="28.6889" fill="white" stroke="#ECF2FF" stroke-width="0.7"/>
<rect x="365.633" y="29.7389" width="29.3142" height="28.6889" fill="white" stroke="#ECF2FF" stroke-width="0.7"/>
<rect x="365.633" y="235.461" width="29.3142" height="28.6889" fill="white" stroke="#ECF2FF" stroke-width="0.7"/>
<rect x="365.633" y="294.239" width="29.3142" height="28.6889" fill="white" stroke="#ECF2FF" stroke-width="0.7"/>
<rect opacity="0.2" x="365.633" y="323.628" width="29.3142" height="28.6889" fill="white" stroke="#ECF2FF" stroke-width="0.7"/>
<rect x="365.633" y="353.017" width="29.3142" height="28.6889" fill="white" stroke="#ECF2FF" stroke-width="0.7"/>
<rect x="365.633" y="382.406" width="29.3142" height="28.6889" fill="white" stroke="#ECF2FF" stroke-width="0.7"/>
<rect x="365.633" y="411.794" width="29.3142" height="28.6889" fill="white" stroke="#ECF2FF" stroke-width="0.7"/>
<rect x="365.633" y="441.183" width="29.3142" height="28.6889" fill="white" stroke="#ECF2FF" stroke-width="0.7"/>
<rect x="395.648" y="0.35" width="29.3142" height="28.6889" fill="white" stroke="#ECF2FF" stroke-width="0.7"/>
<rect opacity="0.2" x="395.648" y="29.7389" width="29.3142" height="28.6889" fill="white" stroke="#ECF2FF" stroke-width="0.7"/>
<rect x="395.648" y="88.5167" width="29.3142" height="28.6889" fill="white" stroke="#ECF2FF" stroke-width="0.7"/>
<rect x="395.648" y="264.85" width="29.3142" height="28.6889" fill="white" stroke="#ECF2FF" stroke-width="0.7"/>
<rect x="395.648" y="294.239" width="29.3142" height="28.6889" fill="white" stroke="#ECF2FF" stroke-width="0.7"/>
<rect x="395.648" y="323.628" width="29.3142" height="28.6889" fill="white" stroke="#ECF2FF" stroke-width="0.7"/>
<rect opacity="0.4" x="395.648" y="353.017" width="29.3142" height="28.6889" fill="white" stroke="#ECF2FF" stroke-width="0.7"/>
<rect x="395.648" y="382.406" width="29.3142" height="28.6889" fill="white" stroke="#ECF2FF" stroke-width="0.7"/>
<rect x="395.648" y="411.794" width="29.3142" height="28.6889" fill="white" stroke="#ECF2FF" stroke-width="0.7"/>
<rect x="395.648" y="441.183" width="29.3142" height="28.6889" fill="white" stroke="#ECF2FF" stroke-width="0.7"/>
<rect x="425.662" y="0.35" width="29.3142" height="28.6889" fill="white" stroke="#ECF2FF" stroke-width="0.7"/>
<rect x="425.662" y="29.7389" width="29.3142" height="28.6889" fill="white" stroke="#ECF2FF" stroke-width="0.7"/>
<rect opacity="0.5" x="5.46328" y="88.5167" width="29.3142" height="28.6889" fill="white" stroke="#ECF2FF" stroke-width="0.7"/>
<rect opacity="0.5" x="5.46328" y="147.294" width="29.3142" height="28.6889" fill="white" stroke="#ECF2FF" stroke-width="0.7"/>
<rect opacity="0.5" x="35.4779" y="206.072" width="29.3142" height="28.6889" fill="white" stroke="#ECF2FF" stroke-width="0.7"/>
<rect opacity="0.5" x="65.4926" y="235.461" width="29.3142" height="28.6889" fill="white" stroke="#ECF2FF" stroke-width="0.7"/>
<rect opacity="0.5" x="125.521" y="29.7389" width="29.3142" height="28.6889" fill="white" stroke="#ECF2FF" stroke-width="0.7"/>
<rect opacity="0.5" x="125.521" y="264.85" width="29.3142" height="28.6889" fill="white" stroke="#ECF2FF" stroke-width="0.7"/>
<rect opacity="0.5" x="185.548" y="235.461" width="29.3142" height="28.6889" fill="white" stroke="#ECF2FF" stroke-width="0.7"/>
<rect opacity="0.5" x="245.578" y="235.461" width="29.3142" height="28.6889" fill="white" stroke="#ECF2FF" stroke-width="0.7"/>
<rect opacity="0.5" x="275.59" y="29.7389" width="29.3142" height="28.6889" fill="white" stroke="#ECF2FF" stroke-width="0.7"/>
<rect opacity="0.5" x="275.59" y="264.85" width="29.3142" height="28.6889" fill="white" stroke="#ECF2FF" stroke-width="0.7"/>
<rect opacity="0.5" x="335.621" y="235.461" width="29.3142" height="28.6889" fill="white" stroke="#ECF2FF" stroke-width="0.7"/>
<rect opacity="0.5" x="365.633" y="59.1278" width="29.3142" height="28.6889" fill="white" stroke="#ECF2FF" stroke-width="0.7"/>
<rect opacity="0.5" x="365.633" y="176.683" width="29.3142" height="28.6889" fill="white" stroke="#ECF2FF" stroke-width="0.7"/>
<rect opacity="0.5" x="395.648" y="147.294" width="29.3142" height="28.6889" fill="white" stroke="#ECF2FF" stroke-width="0.7"/>
<rect opacity="0.5" x="395.648" y="206.072" width="29.3142" height="28.6889" fill="white" stroke="#ECF2FF" stroke-width="0.7"/>
<rect opacity="0.5" x="425.662" y="59.1278" width="29.3142" height="28.6889" fill="white" stroke="#ECF2FF" stroke-width="0.7"/>
<rect x="425.662" y="88.5167" width="29.3142" height="28.6889" fill="white" stroke="#ECF2FF" stroke-width="0.7"/>
<rect x="425.662" y="147.294" width="29.3142" height="28.6889" fill="white" stroke="#ECF2FF" stroke-width="0.7"/>
<rect x="425.662" y="176.683" width="29.3142" height="28.6889" fill="white" stroke="#ECF2FF" stroke-width="0.7"/>
<rect x="425.662" y="206.072" width="29.3142" height="28.6889" fill="white" stroke="#ECF2FF" stroke-width="0.7"/>
<rect x="425.662" y="235.461" width="29.3142" height="28.6889" fill="white" stroke="#ECF2FF" stroke-width="0.7"/>
<rect opacity="0.2" x="425.662" y="264.85" width="29.3142" height="28.6889" fill="white" stroke="#ECF2FF" stroke-width="0.7"/>
<rect x="425.662" y="294.239" width="29.3142" height="28.6889" fill="white" stroke="#ECF2FF" stroke-width="0.7"/>
<rect opacity="0.4" x="425.662" y="323.628" width="29.3142" height="28.6889" fill="white" stroke="#ECF2FF" stroke-width="0.7"/>
<rect x="425.662" y="353.017" width="29.3142" height="28.6889" fill="white" stroke="#ECF2FF" stroke-width="0.7"/>
<rect x="425.662" y="382.406" width="29.3142" height="28.6889" fill="white" stroke="#ECF2FF" stroke-width="0.7"/>
<rect x="425.662" y="411.794" width="29.3142" height="28.6889" fill="white" stroke="#ECF2FF" stroke-width="0.7"/>
<rect x="425.662" y="441.183" width="29.3142" height="28.6889" fill="white" stroke="#ECF2FF" stroke-width="0.7"/>
</g>
<defs>
<clipPath id="clip0_2094_3831">
<rect width="430" height="470" fill="white"/>
</clipPath>
</defs>
</svg>
