<svg width="1440" height="438" viewBox="0 0 1440 438" fill="none" xmlns="http://www.w3.org/2000/svg">
<path d="M456.703 389.396H518.031V262.89H519.773V259.274H515.97V254.646H485.796V247.614H474.268L472.547 243.022H469.698V234.818H469.063H468.428V243.022H463.144V247.614V252.907V254.646H458.765V259.274H454.961V262.89H456.703V389.396Z" fill="#5AA5FF"/>
<path d="M470.205 233.676C470.205 233.045 469.694 232.534 469.063 232.534C468.433 232.534 467.922 233.045 467.922 233.676C467.922 234.306 468.433 234.817 469.063 234.817C469.694 234.817 470.205 234.306 470.205 233.676Z" fill="#5AA5FF"/>
<path d="M1025.88 396.802V226.727L950.37 211.054L958.644 396.802H737.078V291.723H733V228.843H722.471V212H718.71V187.297H697.987V169.142H696.144V187.297H692.084V164.571H690.24V187.297H677.139V228.843H670.372V291.723H664.571V396.802H605.652V256.925H606.669V255.308H599.417V245.589H600.355V244.033H593.699V238.445H594.297V237.25H591.43V231.972H588.695H588.269V213.129H587.973H587.596H587.216V231.972H585.937V221.468H585.641H585.264H584.884V231.972H581.722V237.25H578.415V238.445H579.454V244.033H572.798V245.589H573.735V255.308H566.483V256.925H567.502V396.802H370.995V415.879H1173.08V396.802H1025.88Z" fill="#5AA5FF"/>
<path d="M1158.65 411.781V394.608H1134.51L1125.38 327.013H1124.01V318.893H1119.21V327.013H1118.02V323.976H1114.66V327.013H1107.7V319.933H1105.78V315.014H1092.1V319.933H1090.18V327.013H1088.26V367.611H1076.1V264.602H1072.1V242.01H1070.82V264.602H1067.78V233.264H1066.5V264.602H1063.86V247.638H1062.58V264.602H1038.98V337.719H1012.75V385.087H988.245L968.788 349.225C972.068 347.336 975.152 345.064 977.982 342.431L981.973 346.689C981.116 347.438 980.574 348.537 980.574 349.764C980.574 352.019 982.402 353.848 984.658 353.848C986.913 353.848 988.741 352.019 988.741 349.764C988.741 347.509 986.913 345.68 984.658 345.68C983.792 345.68 982.992 345.949 982.331 346.408L978.313 342.12C978.653 341.798 978.99 341.472 979.322 341.139C983.533 336.928 986.904 332.103 989.355 326.865L993.799 328.916C993.718 329.236 993.675 329.571 993.675 329.916C993.675 332.172 995.504 334 997.759 334C1000.01 334 1001.84 332.172 1001.84 329.916C1001.84 327.661 1000.01 325.832 997.759 325.832C996.01 325.832 994.518 326.933 993.936 328.48L989.546 326.453C992.253 320.528 993.786 314.088 994.027 307.419L998.81 307.575C998.869 309.78 1000.67 311.549 1002.89 311.549C1005.15 311.549 1006.97 309.72 1006.97 307.465C1006.97 305.209 1005.15 303.381 1002.89 303.381C1000.75 303.381 998.997 305.027 998.823 307.122L994.04 306.966C994.052 306.498 994.06 306.028 994.06 305.558C994.06 299.605 993.032 293.811 991.063 288.376L995.059 286.905C995.686 288.353 997.128 289.366 998.806 289.366C1001.06 289.366 1002.89 287.538 1002.89 285.282C1002.89 283.027 1001.06 281.199 998.806 281.199C996.551 281.199 994.723 283.027 994.723 285.282C994.723 285.698 994.785 286.1 994.901 286.479L990.907 287.95C988.631 281.845 985.16 276.203 980.614 271.317L983.741 268.387C984.473 269.087 985.466 269.518 986.56 269.518C988.815 269.518 990.644 267.69 990.644 265.434C990.644 263.178 988.815 261.35 986.56 261.35C984.304 261.35 982.476 263.178 982.476 265.434C982.476 266.432 982.835 267.346 983.43 268.056L980.304 270.985C979.982 270.645 979.655 270.308 979.322 269.976C974.589 265.241 969.077 261.567 963.077 259.071L964.797 254.883C965.187 255.007 965.602 255.075 966.033 255.075C968.288 255.075 970.117 253.247 970.117 250.991C970.117 248.736 968.288 246.907 966.033 246.907C963.778 246.907 961.949 248.736 961.949 250.991C961.949 252.655 962.945 254.085 964.373 254.722L962.658 258.899C957.288 256.723 951.537 255.485 945.604 255.271L945.79 249.547C945.833 249.548 945.876 249.55 945.919 249.55C948.174 249.55 950.003 247.722 950.003 245.466C950.003 243.211 948.174 241.382 945.919 241.382C943.664 241.382 941.835 243.211 941.835 245.466C941.835 247.524 943.357 249.225 945.336 249.508L945.149 255.255C944.681 255.242 944.211 255.236 943.741 255.236C938.029 255.236 932.462 256.181 927.22 257.998L925.574 253.327C927.059 252.716 928.105 251.256 928.105 249.549C928.105 247.294 926.276 245.465 924.021 245.465C921.766 245.465 919.937 247.294 919.937 249.549C919.937 251.804 921.766 253.633 924.021 253.633C924.411 253.633 924.788 253.577 925.145 253.475L926.792 258.148C920.434 260.416 914.563 263.972 909.501 268.681L906.516 265.496C907.184 264.769 907.592 263.8 907.592 262.736C907.592 260.48 905.764 258.652 903.508 258.652C901.253 258.652 899.425 260.479 899.425 262.736C899.425 264.991 901.253 266.819 903.508 266.819C904.536 266.819 905.474 266.44 906.192 265.813L909.17 268.993C908.83 269.315 908.493 269.642 908.161 269.975C903.95 274.185 900.579 279.011 898.128 284.249L894.336 282.498C894.474 282.089 894.548 281.652 894.548 281.198C894.548 278.942 892.72 277.114 890.465 277.114C888.209 277.114 886.381 278.942 886.381 281.198C886.381 283.453 888.209 285.281 890.465 285.281C892.104 285.281 893.517 284.315 894.167 282.92L897.937 284.661C895.231 290.586 893.697 297.027 893.457 303.695L888.589 303.537C888.528 301.333 886.725 299.566 884.508 299.566C882.253 299.566 880.424 301.395 880.424 303.65C880.424 305.905 882.253 307.734 884.508 307.734C886.649 307.734 888.404 306.087 888.577 303.991L893.443 304.149C893.431 304.617 893.424 305.087 893.424 305.557C893.424 311.509 894.451 317.304 896.42 322.737L892.424 324.209C891.797 322.761 890.355 321.748 888.676 321.748C886.42 321.748 884.592 323.576 884.592 325.832C884.592 328.087 886.42 329.915 888.676 329.915C890.931 329.915 892.76 328.087 892.76 325.832C892.76 325.416 892.697 325.014 892.581 324.636L896.575 323.165C898.85 329.27 902.321 334.911 906.868 339.798L903.742 342.728C903.009 342.028 902.016 341.597 900.922 341.597C898.667 341.597 896.839 343.425 896.839 345.681C896.839 347.936 898.667 349.765 900.922 349.765C903.178 349.765 905.006 347.936 905.006 345.681C905.006 344.683 904.647 343.769 904.052 343.059L907.18 340.13C907.502 340.47 907.828 340.807 908.161 341.139C911.349 344.327 914.89 347.034 918.695 349.225L899.239 385.087H883.48V360.774H877.057V314.608H879.555V313.604H824.358V314.608H826.856V337.89H821.445L816.282 364.426V277.401H814.016V245.885H802.612V233.885H796.51V223.807H794.369V206.529H793.816V223.807H791.675V233.886H785.574V245.886H774.257V277.402H771.905V334.62H754.358V385.087H696.143V287.505H700.821V285.969H696.143V283.22H690.212V278.704H641.711V283.22H635.781V285.969H631.102V287.505H635.781V348.251H627.847V336.852H578.907V350.771H568.236V376.688H550.959V291.978H545.199V286.217H540.64V270.98H539.679V286.217H537.519V267.14H536.559V286.217H533.905V291.978H532.479V376.688H496.723V327.013H498.404V323.654H487.365V314.535H482.085V323.654H477.286V314.535H472.486V323.654H463.15V314.535H434.57V323.654H427.896V327.013H431.69V345.731H421.131V387.967H406.638V376.688H390.503V401.286H370.992V411.781H342.215V441.861H1184.37V411.781H1158.65ZM968.14 348.027L961.401 335.606C963.561 334.332 965.573 332.831 967.402 331.137L977.054 341.438C974.309 343.991 971.319 346.194 968.14 348.027ZM942.915 308.175C943.08 308.227 943.252 308.264 943.428 308.285L942.407 339.71C938.378 339.554 934.526 338.699 930.969 337.26L942.915 308.175ZM930.55 337.088C929.4 336.605 928.281 336.06 927.199 335.458L942.192 307.823C942.289 307.889 942.39 307.948 942.494 308.002L930.55 337.088ZM943.882 308.3C944.074 308.29 944.261 308.261 944.44 308.214L954.892 337.87C951.397 339.079 947.646 339.738 943.744 339.738C943.448 339.738 943.154 339.734 942.86 339.726L943.882 308.3ZM944.867 308.063C945.017 307.995 945.161 307.914 945.295 307.823L960.288 335.458C958.704 336.339 957.044 337.096 955.319 337.719L944.867 308.063ZM947.39 309.78L966.938 330.641C965.15 332.294 963.185 333.76 961.077 335.007L947.39 309.78ZM946.535 308.204L945.97 307.163C946.029 307.081 946.082 306.996 946.132 306.909L974.678 320.086C972.855 323.95 970.331 327.421 967.269 330.331L946.535 308.204ZM946.324 306.499C946.397 306.3 946.446 306.091 946.472 305.873L977.897 306.895C977.722 311.437 976.657 315.754 974.871 319.677L946.324 306.499ZM946.486 305.42C946.475 305.215 946.442 305.016 946.389 304.825L975.898 293.961C977.209 297.584 977.925 301.489 977.925 305.558C977.925 305.854 977.921 306.147 977.913 306.442L946.486 305.42ZM946.234 304.399C946.142 304.204 946.029 304.02 945.895 303.852L968.828 282.364C971.803 285.579 974.168 289.363 975.74 293.535L946.234 304.399ZM945.586 303.521C945.408 303.36 945.209 303.223 944.993 303.112L956.938 274.025C961.34 275.875 965.277 278.619 968.518 282.032L945.586 303.521ZM944.573 302.94C944.408 302.888 944.236 302.851 944.059 302.83L945.081 271.406C949.109 271.56 952.962 272.417 956.519 273.855L944.573 302.94ZM943.606 302.815C943.414 302.825 943.227 302.854 943.048 302.9L932.596 273.244C936.091 272.035 939.841 271.376 943.744 271.376C944.04 271.376 944.334 271.38 944.628 271.388L943.606 302.815ZM942.621 303.052C942.412 303.146 942.217 303.266 942.039 303.406L920.55 280.474C923.879 277.394 927.82 274.966 932.168 273.397L942.621 303.052ZM941.708 303.715C941.573 303.865 941.455 304.029 941.355 304.205L912.81 291.027C914.632 287.163 917.157 283.692 920.22 280.782L941.708 303.715ZM941.164 304.616C941.091 304.816 941.042 305.024 941.016 305.242L909.591 304.22C909.766 299.678 910.831 295.361 912.617 291.437L941.164 304.616ZM941.002 305.696C941.013 305.901 941.046 306.099 941.099 306.29L911.59 317.154C910.279 313.531 909.563 309.627 909.563 305.557C909.563 305.261 909.567 304.967 909.575 304.673L941.002 305.696ZM941.254 306.716C941.328 306.874 941.416 307.024 941.518 307.163L941.331 307.508L918.66 328.751C915.685 325.536 913.32 321.751 911.748 317.58L941.254 306.716ZM940.644 308.772L926.411 335.006C923.661 333.381 921.156 331.384 918.969 329.082L940.644 308.772ZM926.874 336.056C927.978 336.669 929.118 337.225 930.291 337.717L924.926 350.782C923.29 350.101 921.692 349.33 920.137 348.473L926.874 336.056ZM930.711 337.89C934.341 339.359 938.273 340.232 942.385 340.39L941.927 354.481C936.159 354.273 930.567 353.069 925.347 350.954L930.711 337.89ZM942.838 340.407C943.139 340.415 943.441 340.42 943.744 340.42C947.725 340.42 951.552 339.747 955.118 338.512L959.812 351.829C954.713 353.596 949.299 354.515 943.744 354.515C943.289 354.515 942.833 354.509 942.38 354.496L942.838 340.407ZM955.547 338.361C957.305 337.726 958.999 336.953 960.614 336.056L967.351 348.474C965.068 349.733 962.692 350.805 960.241 351.679L955.547 338.361ZM978.362 340.175C978.04 340.497 977.714 340.813 977.384 341.126L967.735 330.828C970.861 327.858 973.438 324.316 975.297 320.373L988.122 326.293C985.737 331.387 982.457 336.081 978.362 340.175ZM988.312 325.882L975.488 319.962C977.312 315.958 978.398 311.552 978.576 306.916L992.668 307.374C992.433 313.859 990.942 320.121 988.312 325.882ZM992.701 305.558C992.701 306.013 992.695 306.467 992.683 306.922L978.594 306.464C978.602 306.162 978.606 305.86 978.606 305.558C978.606 301.405 977.875 297.421 976.537 293.726L989.788 288.848C991.702 294.133 992.701 299.768 992.701 305.558ZM979.624 272.248C984.044 277.001 987.418 282.485 989.631 288.421L976.379 293.301C974.774 289.043 972.36 285.18 969.323 281.899L979.624 272.248ZM978.362 270.939C978.684 271.261 979 271.587 979.313 271.917L969.015 281.566C965.707 278.084 961.689 275.283 957.197 273.397L962.562 260.332C968.397 262.761 973.758 266.335 978.362 270.939ZM945.561 256.632C951.329 256.841 956.921 258.045 962.141 260.16L956.776 273.225C953.146 271.756 949.214 270.883 945.102 270.725L945.561 256.632ZM943.744 256.6C944.199 256.6 944.654 256.607 945.108 256.619L944.65 270.708C944.348 270.7 944.047 270.696 943.744 270.696C939.763 270.696 935.936 271.369 932.37 272.603L927.676 259.285C932.775 257.519 938.189 256.6 943.744 256.6ZM927.247 259.436L931.941 272.754C927.504 274.356 923.483 276.833 920.085 279.977L910.434 269.677C915.357 265.099 921.066 261.642 927.247 259.436ZM909.126 270.939C909.448 270.617 909.775 270.301 910.104 269.988L919.754 280.286C916.628 283.256 914.051 286.798 912.192 290.742L899.367 284.822C901.751 279.728 905.031 275.034 909.126 270.939ZM899.176 285.233L912 291.153C910.176 295.157 909.09 299.563 908.912 304.199L894.819 303.741C895.055 297.257 896.546 290.994 899.176 285.233ZM894.786 305.558C894.786 305.103 894.793 304.647 894.805 304.194L908.894 304.652C908.886 304.953 908.882 305.255 908.882 305.558C908.882 309.71 909.613 313.693 910.951 317.39L897.7 322.269C895.786 316.982 894.786 311.346 894.786 305.558ZM907.864 338.867C903.444 334.114 900.07 328.63 897.856 322.694L911.108 317.814C912.713 322.072 915.127 325.934 918.163 329.215L907.864 338.867ZM909.126 340.175C908.804 339.853 908.488 339.527 908.175 339.197L918.473 329.548C920.71 331.903 923.273 333.945 926.087 335.606L919.349 348.027C915.656 345.898 912.22 343.27 909.126 340.175ZM919.489 349.67C921.087 350.553 922.729 351.343 924.409 352.043L922.689 356.231C922.299 356.107 921.884 356.04 921.453 356.04C919.198 356.04 917.369 357.868 917.369 360.124C917.369 362.379 919.198 364.207 921.453 364.207C923.708 364.207 925.537 362.379 925.537 360.124C925.537 358.46 924.541 357.03 923.113 356.393L924.828 352.216C930.198 354.392 935.949 355.63 941.882 355.844L941.743 360.126C939.532 360.177 937.753 361.984 937.753 364.207C937.753 366.463 939.582 368.291 941.837 368.291C944.092 368.291 945.921 366.463 945.921 364.207C945.921 362.073 944.283 360.323 942.196 360.141L942.336 355.858C942.804 355.871 943.274 355.877 943.744 355.877C949.456 355.877 955.023 354.932 960.265 353.115L961.733 357.278C960.344 357.93 959.38 359.341 959.38 360.976C959.38 363.232 961.209 365.06 963.464 365.06C965.719 365.06 967.548 363.232 967.548 360.976C967.548 358.721 965.719 356.893 963.464 356.893C963.006 356.893 962.566 356.969 962.154 357.109L960.693 352.965C963.212 352.066 965.653 350.965 967.999 349.671L987.214 385.088H900.273L919.489 349.67Z" fill="#0049FF"/>
<path d="M1062.85 288.335C1062.85 287.705 1062.43 287.194 1061.9 287.194C1061.37 287.194 1060.94 287.705 1060.94 288.335C1060.94 288.966 1061.37 289.476 1061.9 289.476C1062.43 289.477 1062.85 288.966 1062.85 288.335Z" fill="#0031CC"/>
<path d="M1167.27 427.046L1161.33 387.28H1149.17V354.282H1150.67V351.297H1144.77V338.443H1144.05V351.297H1139.97V340.767H1139.25V351.297H1114.66V354.282H1116.34V421.235H1088.26V391.245H1072.27V317.548H1073.73V313.933H1070.54V309.304H1066.87V307.565V302.273V297.681H1062.43V289.476H1061.9H1061.36V297.681H1058.97L1057.53 302.273H1047.85V309.304H1022.52V313.933H1019.33V317.548H1020.79V365.498H999.603V412.611L976.088 402.192V356.464H979.883V353.104H973.208V343.985H944.629V353.104H935.292V343.985H930.493V353.104H925.694V343.985H920.414V353.104H909.376V356.464H911.055V419.846H900.335V419.181H898.395V401.119H900.335V399.67H898.395V381.608H900.335V380.16H898.395V362.097H900.335V360.649H898.395V342.587H900.335V341.138H898.395V323.076H900.335V321.627H898.395V302.935H901.72V301.481H903.41V297.518H871.841V293.112H872.868V291.839H855.681V293.112H856.707V297.518H848.883V301.481H850.575V302.935H853.899V321.627H851.959V323.076H853.899V341.138H851.959V342.587H853.899V360.649H851.959V362.097H853.899V380.16H851.959V381.608H853.899V399.67H851.959V401.119H853.899V419.181H851.959V420.63H853.899V435.39H843.124V378.354H799.768V419.846H792.729V290.594H787.521V293.921L777.911 296.272V294.111H772.702V297.546L763.092 299.896V297.418H757.885V301.17L748.274 303.52V301.477H743.066V304.795L733.456 307.145V305.384H728.249V432.312H720.922V364.643H693.784V406.255H665.963V370.77H662.535V359.117H664.57V357.946H655.567V354.282H654.607V357.946H651.727V339.138H651.008V357.946H647.257V359.117H649.463V370.77H631.102V397.839H613.228L603.892 432.312H585.16V319.757H560.36V315.726H561.769V314.311H542.985V315.726H544.462V319.757V326.242V403.327H532.768V374.202H536.924V371.565H507.5V353.97H501.887V350.355H489.358V353.97H479.163V416.797H445.717V370.201H417.554V407.005H393.114V430.553H375.493V400.949H352.319V426.189H331.337V443.246H352.319H359.41H370.994H375.493H393.114H417.554H425.767H430.164H445.717H479.163H489.358H501.887H507.5H529.451H532.768H544.462H564.073H573.733H585.16H631.102H641.712H659.623H665.963H694.259H701.862H728.249H730.852H733.456H743.066H748.274H757.885H762.238H763.092H772.702H777.911H786.172H787.521H790.124H792.729H799.768H835.604H840.723H843.124H853.899H872.868H890.233H898.395H911.055H942.496H975.741H976.088H999.603H1012.75H1020.79H1025.88H1065.23H1072.27H1080.7H1088.26H1116.34H1137.22H1141.49H1149.17H1195.89V427.046H1167.27Z" fill="#0031CC"/>
<mask id="mask0_2158_4905" style="mask-type:luminance" maskUnits="userSpaceOnUse" x="-410" y="0" width="773" height="515">
<path d="M362.057 0.00012207H-409.371V514.286H362.057V0.00012207Z" fill="white"/>
</mask>
<g mask="url(#mask0_2158_4905)">
<path d="M169.056 384.45V376.643H157.067V367.873V367.866V367.244V366.136V365.468V364.36V363.693V362.584V361.915V360.806V360.14V359.032V358.365V357.255V356.588V355.481V354.816V353.703V353.034V351.927V351.26V350.153V349.487V348.376V347.709V346.599V345.933V344.825V344.159V343.049V342.382V341.273V340.606V339.496V338.831V337.721V337.054V335.945V335.278V334.167V333.502V332.392V331.726V330.617V329.951V328.841V328.174V327.068V326.4V325.29V324.623V323.513V322.845V321.736V321.069V319.962V319.295V318.184V317.519V316.411V315.746V314.633V313.967V312.858V312.19V311.081V310.414V309.305V308.639V307.53V306.862V305.754V305.085V303.976V303.309V302.201V301.535V300.425V299.756V298.649V297.983V296.873V296.209V295.097V294.429V293.321V292.656V291.545V290.879V289.769V289.102V287.995V287.327V286.217V285.549V284.441V283.773V282.666V281.998V280.888V280.222V279.113V278.445V277.338V276.671V275.561V274.893V273.784V273.118V272.009V271.342V270.233H155.514V269.567V268.457V267.792V266.682V266.46H154.847H153.738H153.664V266.014V264.906V264.24V263.13V262.836H152.778V262.462V261.352V260.39H151.295V260.372H150.188V260.39H150.063L151.205 257.491L151.206 257.487L151.446 256.877H148.631H148.335H147.819H147.523H147.28H146.93V256.821H147.151V255.713H146.93V255.044H147.151V253.936H146.93V253.27H147.151V252.363H145.629C145.452 248.021 142.413 244.426 138.344 243.407V242.085H133.644V243.407C129.574 244.426 126.536 248.021 126.359 252.363H125.542V252.365V253.27V253.936V255.044V255.713V256.821V256.877H125.505H124.654H124.434H124.359H121.028L121.267 257.487H121.047L121.512 258.598H121.704L121.967 259.264H121.732L122.162 260.371H122.403L122.41 260.389H121.989H120.881H119.916V261.351V262.461V262.835H119.028V263.129V264.239V264.905V266.013V266.458H118.436H117.328H117.18V266.681V267.79V268.456V269.566V270.232H115.625V271.341V272.008V273.117V273.783V274.892V275.56V276.67V277.337V278.444V279.112V280.221V280.887V281.997V282.665V283.772V284.44V285.548V286.216V287.326V287.994V289.101V289.768V290.878V291.544V292.655V293.32V294.428V295.096V296.208V296.872V297.982V298.648V299.755V300.424V301.534V302.2V303.308V303.975V305.084V305.753V306.861V307.529V308.638V309.304V310.413V311.08V312.189V312.857V313.966V314.632V315.745V316.41V317.518V318.183V319.294V319.961V321.068V321.735V322.844V323.512V324.622V325.289V326.398V327.067V328.173V328.84V329.95V330.616V331.725V332.391V333.501V334.166V335.277V335.944V337.053V337.72V338.83V339.495V340.605V341.272V342.381V343.048V344.158V344.824V345.932V346.598V347.708V348.375V349.486V350.152V351.259V351.926V353.033V353.702V354.815V355.48V356.587V357.254V358.364V359.031V360.139V360.805V361.914V362.583V363.47V363.692V364.359V365.467V366.135V367.243V367.872V376.642H96.4582V384.449H84.6924V394.663H85.4124H89.6131H90.5748H94.0534H95.0141H97.604H98.5658H102.045H103.008H106.487H107.447H110.927H111.889H115.367H116.329H119.809H120.77H123.359H124.202H124.322H127.319H129.485H132.15H133.129H135.7H136.237H136.68H139.253H140.233H143.304H145.469H148.179H148.225H149.187H152.666H153.627H157.106H158.068H161.546H162.507H165.988H166.949H170.426H171.389H173.98H174.941H176.439H177.272V384.449H169.056V384.45ZM143.97 252.358H142.416H141.305H139.753L142.685 247.881C143.61 249.15 144.181 250.687 144.26 252.358H143.97ZM138.537 252.358H138.252L138.388 251.931L138.537 252.358ZM137.334 252.358H137.319V248.858L137.909 250.551L137.334 252.358ZM134.669 252.265L134.103 250.487L134.669 248.862V252.265ZM133.779 252.358H133.452L133.624 251.867L133.779 252.358ZM142.104 247.171L139.111 251.74L138.765 250.746L140.365 245.724C141.009 246.127 141.593 246.612 142.104 247.171ZM139.582 245.295L138.286 249.367L137.333 246.626H138.345V244.812C138.774 244.939 139.184 245.103 139.582 245.295ZM134.656 246.626L133.724 249.301L132.445 245.277C132.831 245.094 133.229 244.936 133.644 244.813V246.627H134.656V246.626ZM131.661 245.702L133.244 250.68L132.921 251.609L129.96 247.087C130.463 246.553 131.034 246.089 131.661 245.702ZM129.373 247.788L132.365 252.357H132.24H129.796H128.688H127.727C127.808 250.646 128.407 249.074 129.373 247.788Z" fill="#91C3FF"/>
<path d="M250.401 322.423H230.705V416.177H250.401V322.423Z" fill="#91C3FF"/>
<path d="M248.304 317.96H244.364V323.475H248.304V317.96Z" fill="#91C3FF"/>
<path d="M98.5239 304.303H78.3906V308.379H98.5239V304.303Z" fill="#91C3FF"/>
<path d="M103.949 307.181H78.0381V398.058H103.949V307.181Z" fill="#91C3FF"/>
<path d="M217.926 282.156H211.629V279.356H189.489V283.208H181.771V285.483H176.084V432.459H217.926V282.156Z" fill="#277AFF"/>
<path d="M74.1382 285.41V276.729H45.3752V285.709H35.0206V303.69H27.5635V400.945H82.7669V289.001L74.1382 285.41Z" fill="#277AFF"/>
<path d="M32.8708 342.643V336.43H7.48565V342.643H-4.06934V433.247H45.3021V342.643H32.8708Z" fill="#5AA5FF"/>
<path d="M165.76 357.401H150.932V352.055H145.453V344.643H140.538V329.515H111.366V344.643H106.45V352.055H100.97V357.401H86.1426V433.092H106.45V433.597H145.453V433.372H165.76V357.401Z" fill="#5AA5FF"/>
<path d="M316.844 288.547H257.493V432.986H316.844V288.547Z" fill="#5AA5FF"/>
<path d="M292.148 276.729H268.122V291.436H292.148V276.729Z" fill="#5AA5FF"/>
<path d="M238.827 318.856V325.151C238.827 326.02 238.128 326.719 237.259 326.719H235.611V429.046H216.614V326.719H214.955C214.096 326.719 213.398 326.021 213.398 325.151V318.856C213.398 318.272 213.628 317.723 214.039 317.311L217.495 313.855V291.939H214.566V289.606H216.615V281.721H219.247L224.797 261.774L226.113 257.035L227.429 261.774L232.979 281.721H235.611V289.606H237.649V291.939H234.731V313.855L238.187 317.311C238.587 317.723 238.827 318.272 238.827 318.856Z" fill="#0049FF"/>
<path d="M199.368 334.663V317.172H166.585V334.663H161.901V433.597H204.051V334.663H199.368Z" fill="#0049FF"/>
<path d="M322.632 292.749V302.728L292.509 307.192V433.772H348.62V287.007L322.632 292.749Z" fill="#0049FF"/>
<path d="M115.954 396.945V392.017H25.6867V396.945H22.8057V433.597H118.835V396.945H115.954Z" fill="#0049FF"/>
<path d="M286.118 373.677V434.123H239.636V373.677H245.784V365.332L262.113 354.439L262.877 353.937L263.641 354.439L279.97 365.332V373.677H286.118Z" fill="#0049FF"/>
<path d="M296.535 394.905H291.545H288.132H283.142L262.22 414.595V434.122H288.132H291.545H317.456V414.595L296.535 394.905Z" fill="#0031CC"/>
<path d="M232.981 406.64L232.018 406.045L231.055 406.64L215.123 416.49V434.122H231.055H232.981H248.913V416.49L232.981 406.64Z" fill="#0031CC"/>
<path d="M169.778 418.795H166.703L164.188 417.922L164.103 402.519L165.984 401.24L163.776 401.328L163.85 395.974L162.605 393.15L161.245 395.613L156.291 385.616L150.888 396.601L150.646 400.468H148.056L148.426 393.15L146.445 388.246L144.677 392.594L137.23 381.411L137.122 381.249L137.014 381.411L129.567 392.594L127.799 388.246L126.342 392.565L126.186 400.468H123.598L123.357 396.601L117.954 385.616L112.997 395.613L111.637 393.15L110.393 395.974L110.469 401.328L108.259 401.24L110.142 402.519L110.055 417.922L107.54 418.795H104.385V433.948H169.778V418.795Z" fill="#0031CC"/>
<path d="M377.416 427.885H-423.498V443.245H377.416V427.885Z" fill="#0031CC"/>
</g>
<mask id="mask1_2158_4905" style="mask-type:luminance" maskUnits="userSpaceOnUse" x="1173" y="0" width="773" height="515">
<path d="M1945.37 0H1173.94V514.286H1945.37V0Z" fill="white"/>
</mask>
<g mask="url(#mask1_2158_4905)">
<path d="M1238.92 279.916V275.152H1210.15V279.916H1202.39V430.358H1239.42V279.916H1238.92Z" fill="#91C3FF"/>
<path d="M1390.85 255.719H1376.96V274.755H1371.76V287.214H1365.88V412.85H1390.85V255.719Z" fill="#91C3FF"/>
<path d="M1433.23 225.519H1384.91V432.547H1433.23V225.519Z" fill="#5AA5FF"/>
<path d="M1288.63 238.563H1278.91V244.194H1236.83V238.563H1227.11V406.065H1232.3V407.336H1281.58V406.065H1288.63V238.563Z" fill="#0049FF"/>
<path d="M1352.68 257.82V253.795H1335.47L1334.34 234.361L1333.21 253.795H1322.07L1320.95 234.361L1319.82 253.795H1302.61V257.82H1299.28V432.197H1356.01V257.82H1352.68Z" fill="#0049FF"/>
<path d="M1447.41 314.687H1405.74V433.248H1447.41V314.687Z" fill="#0049FF"/>
<path d="M1324.79 401.69H1243.1V433.509H1324.79V401.69Z" fill="#0031CC"/>
<path d="M1237.32 380.723V374.946H1198.98V380.723H1190.58V433.509H1279.34V380.723H1237.32Z" fill="#0031CC"/>
<path d="M1960.56 429.046H1159.06V443.752H1960.56V429.046Z" fill="#0031CC"/>
<path d="M1398.22 408.736H1389.2V407.161H1381.25V403.395H1381.55V403.037V402.68H1380.74L1380.01 402.366C1379.82 397.821 1377.1 393.928 1373.21 392.067V391.783V391.31H1372.45V390.476V390.314V389.861V389.687H1372.41L1371.26 389.279V386.812V385.666H1372.24V385.284V384.811H1371.56V384.047H1371.45V382.81H1371.06V384.047H1371.03C1370.73 383.012 1369.83 382.24 1368.72 382.123V381.991C1368.99 381.872 1369.17 381.612 1369.17 381.304C1369.17 381.047 1369.04 380.83 1368.84 380.693C1368.94 380.585 1369.01 380.436 1369.01 380.272C1369.01 379.945 1368.74 379.676 1368.41 379.676C1368.08 379.676 1367.81 379.944 1367.81 380.272C1367.81 380.436 1367.88 380.586 1367.99 380.694C1367.79 380.831 1367.65 381.048 1367.65 381.305C1367.65 381.615 1367.84 381.877 1368.1 381.995V382.128C1367.02 382.263 1366.14 383.027 1365.84 384.048H1365.73V382.811H1365.35V384.048H1365.22V384.812H1364.63V385.285V385.667H1365.57V386.813V389.218L1364.24 389.688H1364.2V390.316V390.478H1364.16V391.312H1362.75V391.786V392.155C1358.93 394.056 1356.28 397.927 1356.12 402.433L1355.54 402.682H1354.89V403.039V403.397H1355.12V403.993V407.163H1348.14V408.738H1338.25V429.747H1338.46V430.622H1348.32H1349.27H1351.51H1354.56H1356.25H1359.3H1361H1364.04H1366.52H1366.78H1367.19H1367.84H1368.24H1368.89H1369.3H1369.56H1372.06H1375.11H1377.02H1380.07H1382.08H1385.12H1386.68H1386.9H1386.95H1387.76H1387.76H1397.63V429.747H1398.21V408.736H1398.22Z" fill="#0031CC"/>
</g>
</svg>
