<svg width="317" height="55" viewBox="0 0 317 55" fill="none" xmlns="http://www.w3.org/2000/svg">
<rect width="55" height="55" rx="6.77817" fill="#1241FF"/>
<path d="M42.5596 21.3297L42.8623 21.6129C43.5875 22.2929 43.999 23.2429 43.999 24.2369V30.1422H40.9424C33.9898 30.1422 28.3535 24.5059 28.3535 17.5533V8.22229L42.5596 21.3297Z" fill="white"/>
<path d="M26.5576 17.5531C26.5576 24.5056 20.9212 30.1419 13.9688 30.142H10.9121V24.2523C10.9122 23.2491 11.3315 22.2915 12.0684 21.6107L26.5576 8.224V17.5531Z" fill="white"/>
<path d="M44 43.1805C43.9998 45.1668 42.3896 46.7772 40.4033 46.7772H28.3535V44.5282C28.3536 37.5758 33.99 31.9394 40.9424 31.9393H44V43.1805Z" fill="white"/>
<path d="M13.9668 31.9404C20.9191 31.9407 26.5547 37.5769 26.5547 44.5293V46.7773H14.5078C12.5215 46.7773 10.9114 45.1669 10.9111 43.1807V31.9404H13.9668Z" fill="white"/>
<path d="M81.0673 44.1054C79.2509 44.1054 77.5355 43.7579 75.921 43.0627C74.329 42.3676 73.062 41.5267 72.1202 40.5401L73.6338 34.3512C74.3738 35.6966 75.4389 36.8402 76.8292 37.782C78.2195 38.7013 79.6994 39.161 81.2691 39.161C82.5921 39.161 83.646 38.791 84.4308 38.0511C85.2156 37.2887 85.608 36.3581 85.608 35.2593C85.608 34.3848 85.4062 33.6672 85.0026 33.1067C84.599 32.5461 84.1281 32.0976 83.5899 31.7612C83.0517 31.4025 82.5921 31.1334 82.2109 30.954L78.6119 29.1377C77.6925 28.6668 76.7731 28.1062 75.8538 27.4559C74.9344 26.7832 74.1608 25.9311 73.5329 24.8996C72.9275 23.8457 72.6248 22.5451 72.6248 20.9979C72.6248 19.3386 73.006 17.881 73.7684 16.6253C74.5308 15.3696 75.5959 14.3942 76.9637 13.699C78.354 12.9815 79.9573 12.6227 81.7736 12.6227C83.5226 12.6227 85.0811 12.9142 86.4489 13.4972C87.8168 14.0578 88.9155 14.6632 89.7452 15.3135L88.2989 21.3679C87.4916 20.2691 86.4826 19.3498 85.2717 18.6098C84.0608 17.8698 82.8163 17.4998 81.5381 17.4998C80.3721 17.4998 79.464 17.8138 78.8137 18.4416C78.1858 19.0471 77.8719 19.8095 77.8719 20.7288C77.8719 21.3343 78.0064 21.8612 78.2755 22.3097C78.567 22.7582 78.937 23.1506 79.3855 23.4869C79.8564 23.8009 80.3609 24.0924 80.8991 24.3614L84.5653 26.1778C85.1259 26.4468 85.7538 26.8056 86.4489 27.2541C87.1665 27.7026 87.8616 28.2744 88.5343 28.9695C89.207 29.6422 89.7564 30.4719 90.1825 31.4585C90.6309 32.4227 90.8552 33.5776 90.8552 34.923C90.8552 36.672 90.4403 38.2417 89.6106 39.6319C88.8034 40.9998 87.671 42.0873 86.2135 42.8946C84.7784 43.7018 83.063 44.1054 81.0673 44.1054ZM109.608 53.5906V41.9528C108.823 42.5806 107.937 43.074 106.951 43.4327C105.987 43.7915 104.933 43.9709 103.789 43.9709C101.928 43.9709 100.235 43.5 98.7101 42.5582C97.1853 41.594 95.9632 40.3158 95.0438 38.7238C94.1469 37.1093 93.6984 35.3378 93.6984 33.4094C93.6984 31.4809 94.1469 29.7207 95.0438 28.1286C95.9632 26.5141 97.1853 25.236 98.7101 24.2942C100.235 23.33 101.928 22.8479 103.789 22.8479C105.09 22.8479 106.3 23.0833 107.422 23.5542C108.543 24.0251 109.496 24.6642 110.281 25.4714V23.3188H114.889V53.5906H109.608ZM104.394 39.2956C105.471 39.2956 106.435 39.0265 107.287 38.4883C108.162 37.9502 108.857 37.2438 109.373 36.3693C109.888 35.4723 110.146 34.4857 110.146 33.4094C110.146 32.333 109.888 31.3576 109.373 30.4831C108.857 29.5861 108.162 28.8686 107.287 28.3304C106.435 27.7923 105.482 27.5232 104.428 27.5232C103.352 27.5232 102.376 27.7923 101.502 28.3304C100.65 28.8686 99.9658 29.5861 99.4501 30.4831C98.9343 31.3576 98.6764 32.333 98.6764 33.4094C98.6764 34.4857 98.9343 35.4723 99.4501 36.3693C99.9658 37.2438 100.65 37.9502 101.502 38.4883C102.376 39.0265 103.341 39.2956 104.394 39.2956ZM127.647 44.1054C126.234 44.1054 124.9 43.7579 123.644 43.0627C122.389 42.3676 121.38 41.3698 120.617 40.0692C119.855 38.7462 119.474 37.1429 119.474 35.2593V23.3188H124.754V34.553C124.754 35.8087 125.124 36.9187 125.864 37.8829C126.627 38.8471 127.681 39.3292 129.026 39.3292C130.147 39.3292 131.145 38.9256 132.02 38.1183C132.894 37.3111 133.331 36.1563 133.331 34.6539V23.3188H138.612V43.5H133.802V41.0783C133.085 42.0649 132.188 42.8161 131.111 43.3318C130.035 43.8476 128.88 44.1054 127.647 44.1054ZM152.521 43.9709C150.683 43.9709 149.001 43.5 147.476 42.5582C145.951 41.594 144.729 40.3158 143.81 38.7238C142.913 37.1093 142.465 35.3378 142.465 33.4094C142.465 31.4809 142.913 29.7207 143.81 28.1286C144.729 26.5141 145.951 25.236 147.476 24.2942C149.001 23.33 150.683 22.8479 152.521 22.8479C153.844 22.8479 155.067 23.0833 156.188 23.5542C157.309 24.0251 158.262 24.6866 159.047 25.5387V23.3188H163.655V43.5H159.047V41.2801C158.262 42.1097 157.309 42.7712 156.188 43.2646C155.067 43.7354 153.844 43.9709 152.521 43.9709ZM153.161 39.2956C154.237 39.2956 155.201 39.0265 156.053 38.4883C156.928 37.9502 157.623 37.2438 158.139 36.3693C158.654 35.4723 158.912 34.4857 158.912 33.4094C158.912 32.333 158.654 31.3576 158.139 30.4831C157.623 29.5861 156.928 28.8686 156.053 28.3304C155.201 27.7923 154.248 27.5232 153.194 27.5232C152.118 27.5232 151.142 27.7923 150.268 28.3304C149.416 28.8686 148.732 29.5861 148.216 30.4831C147.7 31.3576 147.443 32.333 147.443 33.4094C147.443 34.4857 147.7 35.4723 148.216 36.3693C148.732 37.2438 149.416 37.9502 150.268 38.4883C151.142 39.0265 152.107 39.2956 153.161 39.2956ZM168.643 43.5V23.3188H173.386V26.8505C174.104 25.6844 175 24.7763 176.077 24.126C177.176 23.4533 178.476 23.1169 179.978 23.1169L181.156 27.8932C180.73 27.7586 180.248 27.6914 179.709 27.6914C177.96 27.6914 176.559 28.2519 175.505 29.3731C174.451 30.4943 173.924 32.0864 173.924 34.1494V43.5H168.643ZM193.579 44.1054C191.359 44.1054 189.386 43.6345 187.659 42.6927C185.955 41.751 184.621 40.4616 183.656 38.8247C182.715 37.1653 182.244 35.293 182.244 33.2076C182.244 31.2119 182.703 29.4292 183.623 27.8595C184.564 26.2675 185.831 25.0117 187.423 24.0924C189.016 23.173 190.776 22.7133 192.704 22.7133C194.678 22.7133 196.438 23.173 197.985 24.0924C199.555 24.9893 200.799 26.2114 201.719 27.7586C202.638 29.3059 203.098 31.0661 203.098 33.0394V34.9566H190.552C189.991 34.9566 189.442 34.923 188.903 34.8557C188.365 34.7884 187.827 34.7099 187.289 34.6203C187.558 36.0778 188.264 37.2774 189.408 38.2192C190.552 39.161 191.987 39.6319 193.713 39.6319C194.991 39.6319 196.146 39.3628 197.178 38.8247C198.209 38.2865 199.061 37.6138 199.734 36.8066L200.945 41.751C199.936 42.5358 198.803 43.1188 197.548 43.5C196.292 43.9036 194.969 44.1054 193.579 44.1054ZM187.154 31.3576C188.298 31.1334 189.43 31.0213 190.552 31.0213H194.891C195.496 31.0213 196.068 31.0437 196.606 31.0885C197.144 31.1334 197.66 31.2006 198.153 31.2903C197.817 29.9898 197.155 28.9471 196.169 28.1623C195.204 27.3774 194.038 26.985 192.671 26.985C191.325 26.985 190.159 27.3886 189.173 28.1959C188.186 29.0031 187.513 30.057 187.154 31.3576ZM207.729 43.5V12.2191L222.024 30.4831L236.083 12.2191V43.5H230.735V33.4766C230.735 32.5124 230.747 31.4361 230.769 30.2476C230.791 29.0368 230.892 27.6689 231.072 26.1441C230.377 27.3102 229.704 28.3304 229.054 29.2049C228.403 30.0795 227.809 30.8867 227.271 31.6267L221.923 38.9256L216.373 31.6267C215.835 30.9316 215.218 30.1131 214.523 29.1713C213.85 28.2071 213.178 27.1644 212.505 26.0432C212.684 27.6353 212.785 29.0256 212.808 30.214C212.83 31.4025 212.841 32.49 212.841 33.4766V43.5H207.729ZM252.278 44.1054C250.058 44.1054 248.085 43.6345 246.358 42.6927C244.654 41.751 243.32 40.4616 242.355 38.8247C241.414 37.1653 240.943 35.293 240.943 33.2076C240.943 31.2119 241.402 29.4292 242.322 27.8595C243.264 26.2675 244.53 25.0117 246.123 24.0924C247.715 23.173 249.475 22.7133 251.403 22.7133C253.377 22.7133 255.137 23.173 256.684 24.0924C258.254 24.9893 259.498 26.2114 260.418 27.7586C261.337 29.3059 261.797 31.0661 261.797 33.0394V34.9566H249.251C248.69 34.9566 248.141 34.923 247.602 34.8557C247.064 34.7884 246.526 34.7099 245.988 34.6203C246.257 36.0778 246.963 37.2774 248.107 38.2192C249.251 39.161 250.686 39.6319 252.412 39.6319C253.691 39.6319 254.845 39.3628 255.877 38.8247C256.908 38.2865 257.76 37.6138 258.433 36.8066L259.644 41.751C258.635 42.5358 257.503 43.1188 256.247 43.5C254.991 43.9036 253.668 44.1054 252.278 44.1054ZM245.853 31.3576C246.997 31.1334 248.129 31.0213 249.251 31.0213H253.59C254.195 31.0213 254.767 31.0437 255.305 31.0885C255.843 31.1334 256.359 31.2006 256.852 31.2903C256.516 29.9898 255.854 28.9471 254.868 28.1623C253.904 27.3774 252.738 26.985 251.37 26.985C250.024 26.985 248.858 27.3886 247.872 28.1959C246.885 29.0031 246.212 30.057 245.853 31.3576ZM267.773 43.5V27.5568H263.804V23.3188H267.874V16.5917H272.953V23.3188H277.191V27.5568H273.054V43.5H267.773ZM289.787 44.1054C287.567 44.1054 285.593 43.6345 283.867 42.6927C282.163 41.751 280.828 40.4616 279.864 38.8247C278.922 37.1653 278.451 35.293 278.451 33.2076C278.451 31.2119 278.911 29.4292 279.83 27.8595C280.772 26.2675 282.039 25.0117 283.631 24.0924C285.223 23.173 286.984 22.7133 288.912 22.7133C290.885 22.7133 292.646 23.173 294.193 24.0924C295.762 24.9893 297.007 26.2114 297.926 27.7586C298.846 29.3059 299.305 31.0661 299.305 33.0394V34.9566H286.759C286.199 34.9566 285.649 34.923 285.111 34.8557C284.573 34.7884 284.035 34.7099 283.497 34.6203C283.766 36.0778 284.472 37.2774 285.616 38.2192C286.759 39.161 288.194 39.6319 289.921 39.6319C291.199 39.6319 292.354 39.3628 293.386 38.8247C294.417 38.2865 295.269 37.6138 295.942 36.8066L297.153 41.751C296.144 42.5358 295.011 43.1188 293.756 43.5C292.5 43.9036 291.177 44.1054 289.787 44.1054ZM283.362 31.3576C284.506 31.1334 285.638 31.0213 286.759 31.0213H291.098C291.704 31.0213 292.276 31.0437 292.814 31.0885C293.352 31.1334 293.868 31.2006 294.361 31.2903C294.025 29.9898 293.363 28.9471 292.376 28.1623C291.412 27.3774 290.246 26.985 288.878 26.985C287.533 26.985 286.367 27.3886 285.38 28.1959C284.394 29.0031 283.721 30.057 283.362 31.3576ZM302.927 43.5V23.3188H307.67V26.8505C308.388 25.6844 309.285 24.7763 310.361 24.126C311.46 23.4533 312.76 23.1169 314.263 23.1169L315.44 27.8932C315.014 27.7586 314.532 27.6914 313.994 27.6914C312.245 27.6914 310.843 28.2519 309.789 29.3731C308.735 30.4943 308.208 32.0864 308.208 34.1494V43.5H302.927Z" fill="#11111C"/>
</svg>
