<svg width="224" height="411" viewBox="0 0 224 411" fill="none" xmlns="http://www.w3.org/2000/svg">
<g clip-path="url(#clip0_2050_8532)">
<rect width="224" height="411" rx="10" fill="#F4F6FF"/>
<rect y="144" width="224" height="267.15" rx="10" fill="#11111C"/>
<path d="M19.248 277V265.8H22.704C23.568 265.8 24.272 265.944 24.816 266.232C25.3707 266.52 25.776 266.909 26.032 267.4C26.288 267.88 26.416 268.429 26.416 269.048C26.416 269.645 26.2827 270.195 26.016 270.696C25.7493 271.187 25.3387 271.581 24.784 271.88C24.2293 272.168 23.5093 272.312 22.624 272.312H20.368V277H19.248ZM25.2 277L22.688 271.96H23.968L26.544 277H25.2ZM20.368 271.4H22.624C23.5307 271.4 24.1973 271.181 24.624 270.744C25.0507 270.307 25.264 269.741 25.264 269.048C25.264 268.333 25.056 267.773 24.64 267.368C24.224 266.952 23.5467 266.744 22.608 266.744H20.368V271.4ZM31.4983 277.192C30.7516 277.192 30.0903 277.016 29.5143 276.664C28.9489 276.312 28.5009 275.821 28.1703 275.192C27.8503 274.552 27.6903 273.805 27.6903 272.952C27.6903 272.099 27.8503 271.357 28.1703 270.728C28.4903 270.099 28.9383 269.613 29.5143 269.272C30.1009 268.92 30.7729 268.744 31.5303 268.744C32.3089 268.744 32.9649 268.92 33.4983 269.272C34.0423 269.624 34.4529 270.083 34.7303 270.648C35.0183 271.213 35.1623 271.832 35.1623 272.504C35.1623 272.611 35.1623 272.723 35.1623 272.84C35.1623 272.947 35.1569 273.075 35.1463 273.224H28.5383V272.28H34.0743C34.0529 271.459 33.7969 270.824 33.3063 270.376C32.8263 269.928 32.2183 269.704 31.4823 269.704C31.0023 269.704 30.5543 269.816 30.1383 270.04C29.7329 270.253 29.4023 270.573 29.1463 271C28.9009 271.416 28.7783 271.944 28.7783 272.584V273C28.7783 273.725 28.9063 274.328 29.1623 274.808C29.4183 275.288 29.7543 275.645 30.1703 275.88C30.5969 276.115 31.0396 276.232 31.4983 276.232C32.1063 276.232 32.6076 276.099 33.0023 275.832C33.3969 275.555 33.6796 275.176 33.8503 274.696H34.9543C34.8156 275.165 34.5916 275.592 34.2823 275.976C33.9836 276.36 33.5996 276.659 33.1303 276.872C32.6609 277.085 32.1169 277.192 31.4983 277.192ZM40.5154 277.192C39.7367 277.192 39.054 277.011 38.4674 276.648C37.8914 276.275 37.4434 275.768 37.1234 275.128C36.8034 274.488 36.6434 273.763 36.6434 272.952C36.6434 272.141 36.8034 271.421 37.1234 270.792C37.4434 270.152 37.8967 269.651 38.4834 269.288C39.07 268.925 39.7527 268.744 40.5314 268.744C41.214 268.744 41.8114 268.893 42.3234 269.192C42.846 269.48 43.246 269.891 43.5234 270.424V265.48H44.6434V277H43.6194L43.5234 275.544C43.3527 275.821 43.1287 276.088 42.8514 276.344C42.5847 276.6 42.254 276.808 41.8594 276.968C41.4754 277.117 41.0274 277.192 40.5154 277.192ZM40.6114 276.216C41.1767 276.216 41.6674 276.083 42.0834 275.816C42.51 275.549 42.8407 275.171 43.0754 274.68C43.3207 274.189 43.4434 273.619 43.4434 272.968C43.4434 272.317 43.3207 271.747 43.0754 271.256C42.8407 270.765 42.51 270.387 42.0834 270.12C41.6674 269.853 41.1767 269.72 40.6114 269.72C40.0567 269.72 39.566 269.853 39.1394 270.12C38.7127 270.387 38.3767 270.765 38.1314 271.256C37.8967 271.736 37.7794 272.307 37.7794 272.968C37.7794 273.629 37.902 274.205 38.1474 274.696C38.3927 275.176 38.7287 275.549 39.1554 275.816C39.582 276.083 40.0674 276.216 40.6114 276.216ZM49.8293 277.192C49.2213 277.192 48.6826 277.075 48.2133 276.84C47.7546 276.595 47.3973 276.227 47.1413 275.736C46.8853 275.235 46.7573 274.595 46.7573 273.816V268.936H47.8773V273.688C47.8773 274.541 48.0639 275.176 48.4373 275.592C48.8213 276.008 49.3493 276.216 50.0213 276.216C50.5013 276.216 50.9279 276.104 51.3013 275.88C51.6853 275.656 51.9839 275.325 52.1973 274.888C52.4213 274.44 52.5333 273.896 52.5333 273.256V268.936H53.6533V277H52.6293L52.5653 275.56C52.3093 276.083 51.9359 276.488 51.4453 276.776C50.9653 277.053 50.4266 277.192 49.8293 277.192ZM59.4849 277.192C58.7382 277.192 58.0715 277.016 57.4849 276.664C56.8982 276.312 56.4342 275.821 56.0929 275.192C55.7515 274.552 55.5809 273.816 55.5809 272.984C55.5809 272.12 55.7515 271.379 56.0929 270.76C56.4342 270.131 56.8982 269.64 57.4849 269.288C58.0822 268.925 58.7489 268.744 59.4849 268.744C60.4235 268.744 61.2022 268.989 61.8209 269.48C62.4502 269.96 62.8502 270.6 63.0209 271.4H61.9009C61.7835 270.867 61.5009 270.456 61.0529 270.168C60.6155 269.869 60.0875 269.72 59.4689 269.72C58.9889 269.72 58.5409 269.843 58.1249 270.088C57.7089 270.323 57.3729 270.68 57.1169 271.16C56.8609 271.64 56.7329 272.248 56.7329 272.984C56.7329 273.528 56.8075 274.003 56.9569 274.408C57.1062 274.813 57.3089 275.155 57.5649 275.432C57.8209 275.699 58.1142 275.901 58.4449 276.04C58.7755 276.179 59.1169 276.248 59.4689 276.248C59.8742 276.248 60.2422 276.184 60.5729 276.056C60.9142 275.917 61.2022 275.72 61.4369 275.464C61.6715 275.208 61.8262 274.899 61.9009 274.536H63.0209C62.8609 275.315 62.4662 275.955 61.8369 276.456C61.2075 276.947 60.4235 277.192 59.4849 277.192ZM68.4045 277.192C67.6578 277.192 66.9965 277.016 66.4205 276.664C65.8552 276.312 65.4072 275.821 65.0765 275.192C64.7565 274.552 64.5965 273.805 64.5965 272.952C64.5965 272.099 64.7565 271.357 65.0765 270.728C65.3965 270.099 65.8445 269.613 66.4205 269.272C67.0072 268.92 67.6792 268.744 68.4365 268.744C69.2152 268.744 69.8712 268.92 70.4045 269.272C70.9485 269.624 71.3592 270.083 71.6365 270.648C71.9245 271.213 72.0685 271.832 72.0685 272.504C72.0685 272.611 72.0685 272.723 72.0685 272.84C72.0685 272.947 72.0632 273.075 72.0525 273.224H65.4445V272.28H70.9805C70.9592 271.459 70.7032 270.824 70.2125 270.376C69.7325 269.928 69.1245 269.704 68.3885 269.704C67.9085 269.704 67.4605 269.816 67.0445 270.04C66.6392 270.253 66.3085 270.573 66.0525 271C65.8072 271.416 65.6845 271.944 65.6845 272.584V273C65.6845 273.725 65.8125 274.328 66.0685 274.808C66.3245 275.288 66.6605 275.645 67.0765 275.88C67.5032 276.115 67.9458 276.232 68.4045 276.232C69.0125 276.232 69.5138 276.099 69.9085 275.832C70.3032 275.555 70.5858 275.176 70.7565 274.696H71.8605C71.7218 275.165 71.4978 275.592 71.1885 275.976C70.8898 276.36 70.5058 276.659 70.0365 276.872C69.5672 277.085 69.0232 277.192 68.4045 277.192ZM78.3079 277V268.936H79.3319L79.4119 270.152C79.6572 269.704 79.9985 269.357 80.4359 269.112C80.8732 268.867 81.3585 268.744 81.8919 268.744C82.2865 268.744 82.6545 268.803 82.9959 268.92C83.3372 269.037 83.6359 269.213 83.8919 269.448C84.1585 269.683 84.3665 269.987 84.5159 270.36C84.7825 269.859 85.1559 269.464 85.6359 269.176C86.1265 268.888 86.6492 268.744 87.2039 268.744C87.8225 268.744 88.3559 268.867 88.8039 269.112C89.2625 269.357 89.6199 269.731 89.8759 270.232C90.1319 270.733 90.2599 271.368 90.2599 272.136V277H89.1399V272.264C89.1399 271.411 88.9639 270.776 88.6119 270.36C88.2599 269.933 87.7692 269.72 87.1399 269.72C86.7132 269.72 86.3239 269.837 85.9719 270.072C85.6199 270.296 85.3425 270.627 85.1399 271.064C84.9372 271.491 84.8359 272.024 84.8359 272.664V277H83.7159V272.264C83.7159 271.411 83.5399 270.776 83.1879 270.36C82.8465 269.933 82.3612 269.72 81.7319 269.72C81.2945 269.72 80.8999 269.837 80.5479 270.072C80.2065 270.296 79.9345 270.632 79.7319 271.08C79.5292 271.517 79.4279 272.061 79.4279 272.712V277H78.3079ZM94.9464 277.192C94.2957 277.192 93.7517 277.075 93.3144 276.84C92.8877 276.605 92.5677 276.301 92.3544 275.928C92.1517 275.555 92.0504 275.144 92.0504 274.696C92.0504 274.141 92.189 273.672 92.4664 273.288C92.7544 272.904 93.1544 272.616 93.6664 272.424C94.1784 272.232 94.7757 272.136 95.4584 272.136H97.6344C97.6344 271.613 97.5544 271.171 97.3944 270.808C97.2344 270.445 96.9997 270.173 96.6904 269.992C96.381 269.8 95.9917 269.704 95.5224 269.704C94.9784 269.704 94.509 269.843 94.1144 270.12C93.7197 270.397 93.4744 270.803 93.3784 271.336H92.2104C92.2744 270.771 92.4664 270.296 92.7864 269.912C93.117 269.528 93.5224 269.24 94.0024 269.048C94.4824 268.845 94.989 268.744 95.5224 268.744C96.269 268.744 96.877 268.888 97.3464 269.176C97.8157 269.453 98.1677 269.837 98.4024 270.328C98.637 270.819 98.7544 271.384 98.7544 272.024V277H97.7304L97.6664 275.528C97.5704 275.752 97.437 275.965 97.2664 276.168C97.1064 276.371 96.9144 276.547 96.6904 276.696C96.477 276.845 96.2264 276.963 95.9384 277.048C95.6504 277.144 95.3197 277.192 94.9464 277.192ZM95.0744 276.216C95.469 276.216 95.821 276.136 96.1304 275.976C96.4504 275.805 96.7224 275.587 96.9464 275.32C97.1704 275.053 97.341 274.755 97.4584 274.424C97.5757 274.083 97.6344 273.731 97.6344 273.368V273.08H95.5384C94.973 273.08 94.5197 273.149 94.1784 273.288C93.837 273.427 93.5917 273.613 93.4424 273.848C93.293 274.083 93.2184 274.355 93.2184 274.664C93.2184 274.973 93.2877 275.245 93.4264 275.48C93.565 275.704 93.773 275.885 94.0504 276.024C94.3384 276.152 94.6797 276.216 95.0744 276.216ZM100.87 277V268.936H101.894L101.958 270.376C102.214 269.864 102.582 269.464 103.062 269.176C103.553 268.888 104.097 268.744 104.694 268.744C105.313 268.744 105.852 268.867 106.31 269.112C106.769 269.357 107.126 269.731 107.382 270.232C107.638 270.723 107.766 271.352 107.766 272.12V277H106.646V272.248C106.646 271.395 106.46 270.76 106.086 270.344C105.713 269.928 105.18 269.72 104.486 269.72C104.017 269.72 103.59 269.837 103.206 270.072C102.833 270.296 102.534 270.627 102.31 271.064C102.097 271.501 101.99 272.04 101.99 272.68V277H100.87ZM112.798 277.192C112.19 277.192 111.651 277.075 111.182 276.84C110.723 276.595 110.366 276.227 110.11 275.736C109.854 275.235 109.726 274.595 109.726 273.816V268.936H110.846V273.688C110.846 274.541 111.033 275.176 111.406 275.592C111.79 276.008 112.318 276.216 112.99 276.216C113.47 276.216 113.897 276.104 114.27 275.88C114.654 275.656 114.953 275.325 115.166 274.888C115.39 274.44 115.502 273.896 115.502 273.256V268.936H116.622V277H115.598L115.534 275.56C115.278 276.083 114.905 276.488 114.414 276.776C113.934 277.053 113.395 277.192 112.798 277.192ZM121.478 277.192C120.827 277.192 120.283 277.075 119.846 276.84C119.419 276.605 119.099 276.301 118.886 275.928C118.683 275.555 118.582 275.144 118.582 274.696C118.582 274.141 118.72 273.672 118.998 273.288C119.286 272.904 119.686 272.616 120.198 272.424C120.71 272.232 121.307 272.136 121.99 272.136H124.166C124.166 271.613 124.086 271.171 123.926 270.808C123.766 270.445 123.531 270.173 123.222 269.992C122.912 269.8 122.523 269.704 122.054 269.704C121.51 269.704 121.04 269.843 120.646 270.12C120.251 270.397 120.006 270.803 119.91 271.336H118.742C118.806 270.771 118.998 270.296 119.318 269.912C119.648 269.528 120.054 269.24 120.534 269.048C121.014 268.845 121.52 268.744 122.054 268.744C122.8 268.744 123.408 268.888 123.878 269.176C124.347 269.453 124.699 269.837 124.934 270.328C125.168 270.819 125.286 271.384 125.286 272.024V277H124.262L124.198 275.528C124.102 275.752 123.968 275.965 123.798 276.168C123.638 276.371 123.446 276.547 123.222 276.696C123.008 276.845 122.758 276.963 122.47 277.048C122.182 277.144 121.851 277.192 121.478 277.192ZM121.606 276.216C122 276.216 122.352 276.136 122.662 275.976C122.982 275.805 123.254 275.587 123.478 275.32C123.702 275.053 123.872 274.755 123.99 274.424C124.107 274.083 124.166 273.731 124.166 273.368V273.08H122.07C121.504 273.08 121.051 273.149 120.71 273.288C120.368 273.427 120.123 273.613 119.974 273.848C119.824 274.083 119.75 274.355 119.75 274.664C119.75 274.973 119.819 275.245 119.958 275.48C120.096 275.704 120.304 275.885 120.582 276.024C120.87 276.152 121.211 276.216 121.606 276.216ZM127.402 277V265.48H128.522V277H127.402ZM138.111 277.192C137.503 277.192 136.964 277.075 136.495 276.84C136.036 276.595 135.679 276.227 135.423 275.736C135.167 275.235 135.039 274.595 135.039 273.816V268.936H136.159V273.688C136.159 274.541 136.345 275.176 136.719 275.592C137.103 276.008 137.631 276.216 138.303 276.216C138.783 276.216 139.209 276.104 139.583 275.88C139.967 275.656 140.265 275.325 140.479 274.888C140.703 274.44 140.815 273.896 140.815 273.256V268.936H141.935V277H140.911L140.847 275.56C140.591 276.083 140.217 276.488 139.727 276.776C139.247 277.053 138.708 277.192 138.111 277.192ZM144.214 280.52V268.936H145.238L145.334 270.392C145.505 270.104 145.729 269.837 146.006 269.592C146.283 269.336 146.614 269.133 146.998 268.984C147.393 268.824 147.841 268.744 148.342 268.744C149.121 268.744 149.798 268.931 150.374 269.304C150.961 269.677 151.414 270.184 151.734 270.824C152.054 271.453 152.214 272.173 152.214 272.984C152.214 273.795 152.049 274.52 151.718 275.16C151.398 275.789 150.95 276.285 150.374 276.648C149.798 277.011 149.115 277.192 148.326 277.192C147.643 277.192 147.041 277.048 146.518 276.76C146.006 276.461 145.611 276.045 145.334 275.512V280.52H144.214ZM148.246 276.216C148.801 276.216 149.286 276.083 149.702 275.816C150.129 275.549 150.465 275.176 150.71 274.696C150.955 274.205 151.078 273.629 151.078 272.968C151.078 272.317 150.955 271.747 150.71 271.256C150.465 270.765 150.129 270.387 149.702 270.12C149.286 269.853 148.801 269.72 148.246 269.72C147.691 269.72 147.195 269.853 146.758 270.12C146.331 270.387 145.995 270.765 145.75 271.256C145.515 271.736 145.398 272.307 145.398 272.968C145.398 273.619 145.515 274.189 145.75 274.68C145.995 275.171 146.331 275.549 146.758 275.816C147.195 276.083 147.691 276.216 148.246 276.216ZM157.656 277.192C156.877 277.192 156.195 277.011 155.608 276.648C155.032 276.275 154.584 275.768 154.264 275.128C153.944 274.488 153.784 273.763 153.784 272.952C153.784 272.141 153.944 271.421 154.264 270.792C154.584 270.152 155.037 269.651 155.624 269.288C156.211 268.925 156.893 268.744 157.672 268.744C158.355 268.744 158.952 268.893 159.464 269.192C159.987 269.48 160.387 269.891 160.664 270.424V265.48H161.784V277H160.76L160.664 275.544C160.493 275.821 160.269 276.088 159.992 276.344C159.725 276.6 159.395 276.808 159 276.968C158.616 277.117 158.168 277.192 157.656 277.192ZM157.752 276.216C158.317 276.216 158.808 276.083 159.224 275.816C159.651 275.549 159.981 275.171 160.216 274.68C160.461 274.189 160.584 273.619 160.584 272.968C160.584 272.317 160.461 271.747 160.216 271.256C159.981 270.765 159.651 270.387 159.224 270.12C158.808 269.853 158.317 269.72 157.752 269.72C157.197 269.72 156.707 269.853 156.28 270.12C155.853 270.387 155.517 270.765 155.272 271.256C155.037 271.736 154.92 272.307 154.92 272.968C154.92 273.629 155.043 274.205 155.288 274.696C155.533 275.176 155.869 275.549 156.296 275.816C156.723 276.083 157.208 276.216 157.752 276.216ZM166.634 277.192C165.983 277.192 165.439 277.075 165.002 276.84C164.575 276.605 164.255 276.301 164.042 275.928C163.839 275.555 163.738 275.144 163.738 274.696C163.738 274.141 163.877 273.672 164.154 273.288C164.442 272.904 164.842 272.616 165.354 272.424C165.866 272.232 166.463 272.136 167.146 272.136H169.322C169.322 271.613 169.242 271.171 169.082 270.808C168.922 270.445 168.687 270.173 168.378 269.992C168.069 269.8 167.679 269.704 167.21 269.704C166.666 269.704 166.197 269.843 165.802 270.12C165.407 270.397 165.162 270.803 165.066 271.336H163.898C163.962 270.771 164.154 270.296 164.474 269.912C164.805 269.528 165.21 269.24 165.69 269.048C166.17 268.845 166.677 268.744 167.21 268.744C167.957 268.744 168.565 268.888 169.034 269.176C169.503 269.453 169.855 269.837 170.09 270.328C170.325 270.819 170.442 271.384 170.442 272.024V277H169.418L169.354 275.528C169.258 275.752 169.125 275.965 168.954 276.168C168.794 276.371 168.602 276.547 168.378 276.696C168.165 276.845 167.914 276.963 167.626 277.048C167.338 277.144 167.007 277.192 166.634 277.192ZM166.762 276.216C167.157 276.216 167.509 276.136 167.818 275.976C168.138 275.805 168.41 275.587 168.634 275.32C168.858 275.053 169.029 274.755 169.146 274.424C169.263 274.083 169.322 273.731 169.322 273.368V273.08H167.226C166.661 273.08 166.207 273.149 165.866 273.288C165.525 273.427 165.279 273.613 165.13 273.848C164.981 274.083 164.906 274.355 164.906 274.664C164.906 274.973 164.975 275.245 165.114 275.48C165.253 275.704 165.461 275.885 165.738 276.024C166.026 276.152 166.367 276.216 166.762 276.216ZM175.364 277C174.905 277 174.511 276.931 174.18 276.792C173.849 276.643 173.593 276.403 173.412 276.072C173.241 275.731 173.156 275.267 173.156 274.68V269.896H171.748V268.936H173.156L173.316 267.064H174.276V268.952H176.692V269.896H174.276V274.68C174.276 275.213 174.383 275.576 174.596 275.768C174.809 275.949 175.188 276.04 175.732 276.04H176.564V277H175.364ZM181.67 277.192C180.923 277.192 180.262 277.016 179.686 276.664C179.121 276.312 178.673 275.821 178.342 275.192C178.022 274.552 177.862 273.805 177.862 272.952C177.862 272.099 178.022 271.357 178.342 270.728C178.662 270.099 179.11 269.613 179.686 269.272C180.273 268.92 180.945 268.744 181.702 268.744C182.481 268.744 183.137 268.92 183.67 269.272C184.214 269.624 184.625 270.083 184.902 270.648C185.19 271.213 185.334 271.832 185.334 272.504C185.334 272.611 185.334 272.723 185.334 272.84C185.334 272.947 185.329 273.075 185.318 273.224H178.71V272.28H184.246C184.225 271.459 183.969 270.824 183.478 270.376C182.998 269.928 182.39 269.704 181.654 269.704C181.174 269.704 180.726 269.816 180.31 270.04C179.905 270.253 179.574 270.573 179.318 271C179.073 271.416 178.95 271.944 178.95 272.584V273C178.95 273.725 179.078 274.328 179.334 274.808C179.59 275.288 179.926 275.645 180.342 275.88C180.769 276.115 181.211 276.232 181.67 276.232C182.278 276.232 182.779 276.099 183.174 275.832C183.569 275.555 183.851 275.176 184.022 274.696H185.126C184.987 275.165 184.763 275.592 184.454 275.976C184.155 276.36 183.771 276.659 183.302 276.872C182.833 277.085 182.289 277.192 181.67 277.192ZM190.127 277.192C189.487 277.192 188.922 277.085 188.431 276.872C187.951 276.659 187.562 276.355 187.263 275.96C186.975 275.555 186.799 275.075 186.735 274.52H187.887C187.951 274.829 188.074 275.112 188.255 275.368C188.447 275.624 188.703 275.832 189.023 275.992C189.343 276.141 189.722 276.216 190.159 276.216C190.565 276.216 190.895 276.157 191.151 276.04C191.418 275.912 191.615 275.747 191.743 275.544C191.882 275.331 191.951 275.096 191.951 274.84C191.951 274.488 191.866 274.216 191.695 274.024C191.535 273.821 191.301 273.672 190.991 273.576C190.682 273.48 190.309 273.389 189.871 273.304C189.509 273.24 189.162 273.155 188.831 273.048C188.501 272.941 188.202 272.803 187.935 272.632C187.679 272.461 187.477 272.248 187.327 271.992C187.178 271.725 187.103 271.416 187.103 271.064C187.103 270.605 187.215 270.205 187.439 269.864C187.674 269.512 188.005 269.24 188.431 269.048C188.858 268.845 189.359 268.744 189.935 268.744C190.757 268.744 191.429 268.952 191.951 269.368C192.474 269.773 192.778 270.371 192.863 271.16H191.743C191.701 270.723 191.519 270.376 191.199 270.12C190.879 269.864 190.447 269.736 189.903 269.736C189.37 269.736 188.959 269.848 188.671 270.072C188.394 270.285 188.255 270.579 188.255 270.952C188.255 271.187 188.33 271.389 188.479 271.56C188.629 271.731 188.847 271.88 189.135 272.008C189.434 272.125 189.797 272.227 190.223 272.312C190.735 272.408 191.205 272.536 191.631 272.696C192.069 272.845 192.421 273.08 192.687 273.4C192.965 273.709 193.103 274.152 193.103 274.728C193.114 275.208 192.997 275.635 192.751 276.008C192.506 276.381 192.159 276.675 191.711 276.888C191.263 277.091 190.735 277.192 190.127 277.192ZM23.248 298.192C22.7787 298.192 22.3467 298.123 21.952 297.984C21.568 297.835 21.232 297.637 20.944 297.392C20.656 297.136 20.4267 296.848 20.256 296.528L20.16 298H19.136V286.48H20.256V291.392C20.5227 290.933 20.9067 290.544 21.408 290.224C21.9093 289.904 22.5227 289.744 23.248 289.744C24.0373 289.744 24.7253 289.931 25.312 290.304C25.8987 290.667 26.3467 291.168 26.656 291.808C26.976 292.437 27.136 293.157 27.136 293.968C27.136 294.779 26.976 295.504 26.656 296.144C26.336 296.784 25.8827 297.285 25.296 297.648C24.72 298.011 24.0373 298.192 23.248 298.192ZM23.168 297.216C23.7333 297.216 24.224 297.083 24.64 296.816C25.056 296.549 25.3867 296.171 25.632 295.68C25.8773 295.189 26 294.619 26 293.968C26 293.307 25.8773 292.736 25.632 292.256C25.3867 291.765 25.0507 291.387 24.624 291.12C24.208 290.853 23.7227 290.72 23.168 290.72C22.6133 290.72 22.1173 290.853 21.68 291.12C21.2533 291.387 20.9173 291.765 20.672 292.256C20.4373 292.747 20.32 293.317 20.32 293.968C20.32 294.629 20.4373 295.205 20.672 295.696C20.9173 296.176 21.2533 296.549 21.68 296.816C22.1173 297.083 22.6133 297.216 23.168 297.216ZM29.2805 301.52L31.2645 297.104H30.8325L27.6485 289.936H28.8645L31.6165 296.336L34.5125 289.936H35.6645L30.4485 301.52H29.2805Z" fill="white"/>
<path d="M27.84 342.36C26.3 342.36 25 342.08 23.94 341.52C22.9 340.94 22.06 340.17 21.42 339.21C20.78 338.23 20.31 337.15 20.01 335.97C19.73 334.77 19.59 333.54 19.59 332.28C19.59 329.96 19.91 327.93 20.55 326.19C21.21 324.45 22.15 323.09 23.37 322.11C24.59 321.13 26.06 320.64 27.78 320.64C29.16 320.64 30.33 320.91 31.29 321.45C32.27 321.97 33.03 322.67 33.57 323.55C34.13 324.43 34.47 325.4 34.59 326.46H31.8C31.62 325.42 31.17 324.62 30.45 324.06C29.75 323.48 28.85 323.19 27.75 323.19C26.77 323.19 25.89 323.5 25.11 324.12C24.33 324.72 23.71 325.64 23.25 326.88C22.81 328.12 22.56 329.69 22.5 331.59C22.5 331.61 22.5 331.64 22.5 331.68C22.5 331.72 22.5 331.76 22.5 331.8C22.8 331.2 23.23 330.65 23.79 330.15C24.35 329.65 25.01 329.26 25.77 328.98C26.55 328.68 27.39 328.53 28.29 328.53C29.47 328.53 30.57 328.81 31.59 329.37C32.63 329.91 33.47 330.69 34.11 331.71C34.75 332.73 35.07 333.92 35.07 335.28C35.07 336.5 34.77 337.65 34.17 338.73C33.59 339.81 32.76 340.69 31.68 341.37C30.6 342.03 29.32 342.36 27.84 342.36ZM27.63 339.75C28.49 339.75 29.25 339.57 29.91 339.21C30.59 338.83 31.12 338.31 31.5 337.65C31.9 336.99 32.1 336.24 32.1 335.4C32.1 334.54 31.9 333.79 31.5 333.15C31.12 332.49 30.59 331.98 29.91 331.62C29.25 331.26 28.49 331.08 27.63 331.08C26.77 331.08 26 331.28 25.32 331.68C24.64 332.06 24.1 332.58 23.7 333.24C23.3 333.88 23.1 334.61 23.1 335.43C23.1 336.27 23.3 337.02 23.7 337.68C24.1 338.32 24.64 338.83 25.32 339.21C26.02 339.57 26.79 339.75 27.63 339.75ZM45.7305 342.36C44.2505 342.36 42.9805 342.1 41.9205 341.58C40.8605 341.04 40.0205 340.32 39.4005 339.42C38.7805 338.5 38.4005 337.47 38.2605 336.33H41.2005C41.4005 337.35 41.9005 338.19 42.7005 338.85C43.5005 339.49 44.5105 339.81 45.7305 339.81C46.6505 339.81 47.4405 339.59 48.1005 339.15C48.7605 338.71 49.2705 338.12 49.6305 337.38C49.9905 336.64 50.1705 335.82 50.1705 334.92C50.1705 333.96 49.9805 333.13 49.6005 332.43C49.2405 331.71 48.7305 331.15 48.0705 330.75C47.4305 330.35 46.6805 330.15 45.8205 330.15C44.7805 330.15 43.8805 330.39 43.1205 330.87C42.3805 331.33 41.8405 331.92 41.5005 332.64H38.5905L40.3305 321H51.6405V323.61H42.6405L41.5305 329.49C42.0105 328.95 42.6505 328.51 43.4505 328.17C44.2705 327.83 45.2005 327.66 46.2405 327.66C47.3005 327.66 48.2505 327.85 49.0905 328.23C49.9305 328.59 50.6405 329.1 51.2205 329.76C51.8205 330.42 52.2705 331.19 52.5705 332.07C52.8905 332.95 53.0505 333.88 53.0505 334.86C53.0505 335.92 52.8805 336.9 52.5405 337.8C52.2005 338.7 51.7105 339.5 51.0705 340.2C50.4505 340.88 49.6805 341.41 48.7605 341.79C47.8605 342.17 46.8505 342.36 45.7305 342.36ZM59.4783 342L71.5383 321H74.5083L62.4483 342H59.4783ZM73.2783 342.36C72.3383 342.36 71.4983 342.15 70.7583 341.73C70.0183 341.31 69.4283 340.72 68.9883 339.96C68.5483 339.18 68.3283 338.27 68.3283 337.23C68.3283 336.15 68.5483 335.23 68.9883 334.47C69.4283 333.71 70.0183 333.12 70.7583 332.7C71.4983 332.28 72.3283 332.07 73.2483 332.07C74.2083 332.07 75.0483 332.28 75.7683 332.7C76.5083 333.12 77.0883 333.71 77.5083 334.47C77.9483 335.23 78.1683 336.15 78.1683 337.23C78.1683 338.27 77.9483 339.18 77.5083 339.96C77.0883 340.72 76.5083 341.31 75.7683 341.73C75.0283 342.15 74.1983 342.36 73.2783 342.36ZM73.2183 340.14C73.6783 340.14 74.0883 340.03 74.4483 339.81C74.8283 339.59 75.1283 339.27 75.3483 338.85C75.5883 338.41 75.7083 337.86 75.7083 337.2C75.7083 336.54 75.5983 336 75.3783 335.58C75.1583 335.14 74.8583 334.81 74.4783 334.59C74.1183 334.37 73.7083 334.26 73.2483 334.26C72.8283 334.26 72.4283 334.37 72.0483 334.59C71.6683 334.81 71.3583 335.14 71.1183 335.58C70.8983 336 70.7883 336.54 70.7883 337.2C70.7883 337.86 70.8983 338.41 71.1183 338.85C71.3583 339.27 71.6583 339.59 72.0183 339.81C72.3983 340.03 72.7983 340.14 73.2183 340.14ZM60.9183 330.96C59.9983 330.96 59.1683 330.75 58.4283 330.33C57.6883 329.91 57.0883 329.32 56.6283 328.56C56.1883 327.78 55.9683 326.86 55.9683 325.8C55.9683 324.74 56.1883 323.83 56.6283 323.07C57.0883 322.31 57.6883 321.72 58.4283 321.3C59.1883 320.88 60.0283 320.67 60.9483 320.67C61.8683 320.67 62.6983 320.88 63.4383 321.3C64.1783 321.72 64.7583 322.31 65.1783 323.07C65.6183 323.83 65.8383 324.74 65.8383 325.8C65.8383 326.86 65.6183 327.78 65.1783 328.56C64.7583 329.32 64.1683 329.91 63.4083 330.33C62.6683 330.75 61.8383 330.96 60.9183 330.96ZM60.9183 328.74C61.3583 328.74 61.7583 328.63 62.1183 328.41C62.4983 328.19 62.7983 327.87 63.0183 327.45C63.2383 327.01 63.3483 326.46 63.3483 325.8C63.3483 325.14 63.2383 324.59 63.0183 324.15C62.7983 323.71 62.4983 323.38 62.1183 323.16C61.7583 322.94 61.3683 322.83 60.9483 322.83C60.5083 322.83 60.0883 322.94 59.6883 323.16C59.3083 323.38 58.9983 323.71 58.7583 324.15C58.5383 324.59 58.4283 325.14 58.4283 325.8C58.4283 326.44 58.5383 326.98 58.7583 327.42C58.9983 327.86 59.3083 328.19 59.6883 328.41C60.0683 328.63 60.4783 328.74 60.9183 328.74Z" fill="white"/>
<path opacity="0.8" d="M21.668 369C21.2667 369 20.9213 368.939 20.632 368.818C20.3427 368.687 20.1187 368.477 19.96 368.188C19.8107 367.889 19.736 367.483 19.736 366.97V362.784H18.504V361.944H19.736L19.876 360.306H20.716V361.958H22.83V362.784H20.716V366.97C20.716 367.437 20.8093 367.754 20.996 367.922C21.1827 368.081 21.514 368.16 21.99 368.16H22.718V369H21.668ZM24.3534 369V358.92H25.3334V363.204C25.576 362.756 25.912 362.406 26.3414 362.154C26.7707 361.902 27.242 361.776 27.7554 361.776C28.2874 361.776 28.7494 361.883 29.1414 362.098C29.5427 362.313 29.8507 362.639 30.0654 363.078C30.2894 363.517 30.4014 364.077 30.4014 364.758V369H29.4354V364.87C29.4354 364.114 29.2767 363.554 28.9594 363.19C28.6514 362.817 28.194 362.63 27.5874 362.63C27.1674 362.63 26.7847 362.733 26.4394 362.938C26.1034 363.143 25.8327 363.442 25.6274 363.834C25.4314 364.217 25.3334 364.693 25.3334 365.262V369H24.3534ZM32.2557 369V361.944H33.1517L33.2217 363.302C33.3711 362.975 33.5717 362.7 33.8237 362.476C34.0757 362.252 34.3791 362.079 34.7337 361.958C35.0884 361.837 35.4897 361.776 35.9377 361.776V362.798H35.5597C35.2611 362.798 34.9717 362.84 34.6917 362.924C34.4117 362.999 34.1644 363.129 33.9497 363.316C33.7351 363.503 33.5624 363.755 33.4317 364.072C33.3011 364.389 33.2357 364.786 33.2357 365.262V369H32.2557ZM40.1215 369.168C39.4775 369.168 38.8942 369.019 38.3715 368.72C37.8582 368.412 37.4522 367.983 37.1535 367.432C36.8549 366.872 36.7055 366.223 36.7055 365.486C36.7055 364.721 36.8549 364.063 37.1535 363.512C37.4615 362.961 37.8769 362.537 38.3995 362.238C38.9222 361.93 39.5055 361.776 40.1495 361.776C40.8215 361.776 41.4142 361.93 41.9275 362.238C42.4409 362.537 42.8469 362.961 43.1455 363.512C43.4442 364.063 43.5935 364.721 43.5935 365.486C43.5935 366.223 43.4395 366.872 43.1315 367.432C42.8329 367.983 42.4222 368.412 41.8995 368.72C41.3862 369.019 40.7935 369.168 40.1215 369.168ZM40.1355 368.328C40.5742 368.328 40.9755 368.221 41.3395 368.006C41.7129 367.791 42.0115 367.474 42.2355 367.054C42.4689 366.625 42.5855 366.097 42.5855 365.472C42.5855 364.837 42.4735 364.31 42.2495 363.89C42.0255 363.47 41.7269 363.157 41.3535 362.952C40.9895 362.737 40.5882 362.63 40.1495 362.63C39.7295 362.63 39.3329 362.737 38.9595 362.952C38.5862 363.167 38.2829 363.484 38.0495 363.904C37.8255 364.315 37.7135 364.837 37.7135 365.472C37.7135 366.097 37.8255 366.625 38.0495 367.054C38.2735 367.474 38.5675 367.791 38.9315 368.006C39.3049 368.221 39.7062 368.328 40.1355 368.328ZM47.8193 369.168C47.2873 369.168 46.816 369.065 46.4053 368.86C46.004 368.645 45.6913 368.323 45.4673 367.894C45.2433 367.455 45.1313 366.895 45.1313 366.214V361.944H46.1113V366.102C46.1113 366.849 46.2747 367.404 46.6013 367.768C46.9373 368.132 47.3993 368.314 47.9873 368.314C48.4073 368.314 48.7807 368.216 49.1073 368.02C49.4433 367.824 49.7047 367.535 49.8913 367.152C50.0873 366.76 50.1853 366.284 50.1853 365.724V361.944H51.1653V369H50.2693L50.2133 367.74C49.9893 368.197 49.6627 368.552 49.2333 368.804C48.8133 369.047 48.342 369.168 47.8193 369.168ZM55.89 372.248C55.2647 372.248 54.7093 372.164 54.224 371.996C53.748 371.828 53.37 371.576 53.09 371.24C52.8193 370.904 52.684 370.489 52.684 369.994C52.684 369.798 52.7167 369.583 52.782 369.35C52.8567 369.126 52.9967 368.897 53.202 368.664C53.4073 368.431 53.6967 368.221 54.07 368.034L54.868 368.384C54.3733 368.617 54.0513 368.869 53.902 369.14C53.7527 369.42 53.678 369.672 53.678 369.896C53.678 370.232 53.7713 370.512 53.958 370.736C54.154 370.96 54.4153 371.128 54.742 371.24C55.078 371.361 55.4607 371.422 55.89 371.422C56.3193 371.422 56.688 371.357 56.996 371.226C57.3133 371.105 57.556 370.927 57.724 370.694C57.892 370.47 57.976 370.209 57.976 369.91C57.976 369.565 57.8407 369.271 57.57 369.028C57.3087 368.795 56.8187 368.659 56.1 368.622C55.5307 368.585 55.0593 368.538 54.686 368.482C54.322 368.417 54.0187 368.342 53.776 368.258C53.5427 368.165 53.3467 368.067 53.188 367.964C53.0387 367.861 52.894 367.749 52.754 367.628V367.306L54.098 366.032L54.994 366.354L53.678 367.53L53.762 367.152C53.8647 367.227 53.9627 367.297 54.056 367.362C54.1587 367.427 54.2893 367.483 54.448 367.53C54.616 367.567 54.8447 367.609 55.134 367.656C55.4327 367.693 55.834 367.731 56.338 367.768C56.982 367.815 57.4953 367.927 57.878 368.104C58.2607 368.281 58.5407 368.519 58.718 368.818C58.8953 369.117 58.984 369.467 58.984 369.868C58.984 370.269 58.872 370.652 58.648 371.016C58.4333 371.38 58.0973 371.674 57.64 371.898C57.192 372.131 56.6087 372.248 55.89 372.248ZM55.876 366.76C55.2787 366.76 54.7747 366.648 54.364 366.424C53.9627 366.2 53.6547 365.901 53.44 365.528C53.2253 365.145 53.118 364.725 53.118 364.268C53.118 363.801 53.2253 363.381 53.44 363.008C53.6547 362.635 53.9673 362.336 54.378 362.112C54.7887 361.888 55.288 361.776 55.876 361.776C56.4733 361.776 56.9727 361.888 57.374 362.112C57.7847 362.336 58.0927 362.635 58.298 363.008C58.5127 363.381 58.62 363.801 58.62 364.268C58.62 364.725 58.5127 365.145 58.298 365.528C58.0927 365.901 57.7847 366.2 57.374 366.424C56.9727 366.648 56.4733 366.76 55.876 366.76ZM55.876 365.92C56.4173 365.92 56.842 365.78 57.15 365.5C57.4673 365.211 57.626 364.8 57.626 364.268C57.626 363.727 57.4673 363.316 57.15 363.036C56.842 362.756 56.4173 362.616 55.876 362.616C55.3347 362.616 54.9007 362.756 54.574 363.036C54.2567 363.316 54.098 363.727 54.098 364.268C54.098 364.8 54.2567 365.211 54.574 365.5C54.8913 365.78 55.3253 365.92 55.876 365.92ZM57.024 362.826L56.674 361.944H59.53V362.742L57.024 362.826ZM60.8846 369V358.92H61.8646V363.204C62.1073 362.756 62.4433 362.406 62.8726 362.154C63.302 361.902 63.7733 361.776 64.2866 361.776C64.8186 361.776 65.2806 361.883 65.6726 362.098C66.074 362.313 66.382 362.639 66.5966 363.078C66.8206 363.517 66.9326 364.077 66.9326 364.758V369H65.9666V364.87C65.9666 364.114 65.808 363.554 65.4906 363.19C65.1826 362.817 64.7253 362.63 64.1186 362.63C63.6986 362.63 63.316 362.733 62.9706 362.938C62.6346 363.143 62.364 363.442 62.1586 363.834C61.9626 364.217 61.8646 364.693 61.8646 365.262V369H60.8846ZM75.7504 369.168C75.0971 369.168 74.5138 369.014 74.0004 368.706C73.4871 368.398 73.0811 367.969 72.7824 367.418C72.4838 366.858 72.3344 366.214 72.3344 365.486C72.3344 364.73 72.4838 364.081 72.7824 363.54C73.0811 362.989 73.4871 362.56 74.0004 362.252C74.5231 361.935 75.1064 361.776 75.7504 361.776C76.5718 361.776 77.2531 361.991 77.7944 362.42C78.3451 362.84 78.6951 363.4 78.8444 364.1H77.8644C77.7618 363.633 77.5144 363.274 77.1224 363.022C76.7398 362.761 76.2778 362.63 75.7364 362.63C75.3164 362.63 74.9244 362.737 74.5604 362.952C74.1964 363.157 73.9024 363.47 73.6784 363.89C73.4544 364.31 73.3424 364.842 73.3424 365.486C73.3424 365.962 73.4078 366.377 73.5384 366.732C73.6691 367.087 73.8464 367.385 74.0704 367.628C74.2944 367.861 74.5511 368.039 74.8404 368.16C75.1298 368.281 75.4284 368.342 75.7364 368.342C76.0911 368.342 76.4131 368.286 76.7024 368.174C77.0011 368.053 77.2531 367.88 77.4584 367.656C77.6638 367.432 77.7991 367.161 77.8644 366.844H78.8444C78.7044 367.525 78.3591 368.085 77.8084 368.524C77.2578 368.953 76.5718 369.168 75.7504 369.168ZM83.5551 369.168C82.9018 369.168 82.3231 369.014 81.8191 368.706C81.3244 368.398 80.9324 367.969 80.6431 367.418C80.3631 366.858 80.2231 366.205 80.2231 365.458C80.2231 364.711 80.3631 364.063 80.6431 363.512C80.9231 362.961 81.3151 362.537 81.8191 362.238C82.3324 361.93 82.9204 361.776 83.5831 361.776C84.2644 361.776 84.8384 361.93 85.3051 362.238C85.7811 362.546 86.1404 362.947 86.3831 363.442C86.6351 363.937 86.7611 364.478 86.7611 365.066C86.7611 365.159 86.7611 365.257 86.7611 365.36C86.7611 365.453 86.7564 365.565 86.7471 365.696H80.9651V364.87H85.8091C85.7904 364.151 85.5664 363.596 85.1371 363.204C84.7171 362.812 84.1851 362.616 83.5411 362.616C83.1211 362.616 82.7291 362.714 82.3651 362.91C82.0104 363.097 81.7211 363.377 81.4971 363.75C81.2824 364.114 81.1751 364.576 81.1751 365.136V365.5C81.1751 366.135 81.2871 366.662 81.5111 367.082C81.7351 367.502 82.0291 367.815 82.3931 368.02C82.7664 368.225 83.1538 368.328 83.5551 368.328C84.0871 368.328 84.5258 368.211 84.8711 367.978C85.2164 367.735 85.4638 367.404 85.6131 366.984H86.5791C86.4578 367.395 86.2618 367.768 85.9911 368.104C85.7298 368.44 85.3938 368.701 84.9831 368.888C84.5724 369.075 84.0964 369.168 83.5551 369.168ZM88.3651 369V361.944H89.2611L89.3171 363.204C89.5411 362.756 89.8631 362.406 90.2831 362.154C90.7124 361.902 91.1884 361.776 91.7111 361.776C92.2524 361.776 92.7238 361.883 93.1251 362.098C93.5264 362.313 93.8391 362.639 94.0631 363.078C94.2871 363.507 94.3991 364.058 94.3991 364.73V369H93.4191V364.842C93.4191 364.095 93.2558 363.54 92.9291 363.176C92.6024 362.812 92.1358 362.63 91.5291 362.63C91.1184 362.63 90.7451 362.733 90.4091 362.938C90.0824 363.134 89.8211 363.423 89.6251 363.806C89.4384 364.189 89.3451 364.66 89.3451 365.22V369H88.3651ZM98.9278 369C98.5264 369 98.1811 368.939 97.8918 368.818C97.6024 368.687 97.3784 368.477 97.2198 368.188C97.0704 367.889 96.9958 367.483 96.9958 366.97V362.784H95.7638V361.944H96.9958L97.1358 360.306H97.9758V361.958H100.09V362.784H97.9758V366.97C97.9758 367.437 98.0691 367.754 98.2558 367.922C98.4424 368.081 98.7738 368.16 99.2498 368.16H99.9778V369H98.9278ZM101.613 369V361.944H102.509L102.579 363.302C102.728 362.975 102.929 362.7 103.181 362.476C103.433 362.252 103.736 362.079 104.091 361.958C104.446 361.837 104.847 361.776 105.295 361.776V362.798H104.917C104.618 362.798 104.329 362.84 104.049 362.924C103.769 362.999 103.522 363.129 103.307 363.316C103.092 363.503 102.92 363.755 102.789 364.072C102.658 364.389 102.593 364.786 102.593 365.262V369H101.613ZM108.926 369.168C108.356 369.168 107.88 369.065 107.498 368.86C107.124 368.655 106.844 368.389 106.658 368.062C106.48 367.735 106.392 367.376 106.392 366.984C106.392 366.499 106.513 366.088 106.756 365.752C107.008 365.416 107.358 365.164 107.806 364.996C108.254 364.828 108.776 364.744 109.374 364.744H111.278C111.278 364.287 111.208 363.899 111.068 363.582C110.928 363.265 110.722 363.027 110.452 362.868C110.181 362.7 109.84 362.616 109.43 362.616C108.954 362.616 108.543 362.737 108.198 362.98C107.852 363.223 107.638 363.577 107.554 364.044H106.532C106.588 363.549 106.756 363.134 107.036 362.798C107.325 362.462 107.68 362.21 108.1 362.042C108.52 361.865 108.963 361.776 109.43 361.776C110.083 361.776 110.615 361.902 111.026 362.154C111.436 362.397 111.744 362.733 111.95 363.162C112.155 363.591 112.258 364.086 112.258 364.646V369H111.362L111.306 367.712C111.222 367.908 111.105 368.095 110.956 368.272C110.816 368.449 110.648 368.603 110.452 368.734C110.265 368.865 110.046 368.967 109.794 369.042C109.542 369.126 109.252 369.168 108.926 369.168ZM109.038 368.314C109.383 368.314 109.691 368.244 109.962 368.104C110.242 367.955 110.48 367.763 110.676 367.53C110.872 367.297 111.021 367.035 111.124 366.746C111.226 366.447 111.278 366.139 111.278 365.822V365.57H109.444C108.949 365.57 108.552 365.631 108.254 365.752C107.955 365.873 107.74 366.037 107.61 366.242C107.479 366.447 107.414 366.685 107.414 366.956C107.414 367.227 107.474 367.465 107.596 367.67C107.717 367.866 107.899 368.025 108.142 368.146C108.394 368.258 108.692 368.314 109.038 368.314ZM114.109 369V358.92H115.089V369H114.109ZM117.216 369V361.944H118.182V369H117.216ZM117.706 360.278C117.51 360.278 117.342 360.213 117.202 360.082C117.062 359.942 116.992 359.769 116.992 359.564C116.992 359.349 117.057 359.181 117.188 359.06C117.328 358.929 117.496 358.864 117.692 358.864C117.888 358.864 118.056 358.929 118.196 359.06C118.336 359.181 118.406 359.349 118.406 359.564C118.406 359.769 118.336 359.942 118.196 360.082C118.065 360.213 117.902 360.278 117.706 360.278ZM119.84 369V368.188L123.858 362.77H119.91V361.944H124.964V362.756L120.946 368.188H125.034V369H119.84ZM129.657 369.168C129.003 369.168 128.425 369.014 127.921 368.706C127.426 368.398 127.034 367.969 126.745 367.418C126.465 366.858 126.325 366.205 126.325 365.458C126.325 364.711 126.465 364.063 126.745 363.512C127.025 362.961 127.417 362.537 127.921 362.238C128.434 361.93 129.022 361.776 129.685 361.776C130.366 361.776 130.94 361.93 131.407 362.238C131.883 362.546 132.242 362.947 132.485 363.442C132.737 363.937 132.863 364.478 132.863 365.066C132.863 365.159 132.863 365.257 132.863 365.36C132.863 365.453 132.858 365.565 132.849 365.696H127.067V364.87H131.911C131.892 364.151 131.668 363.596 131.239 363.204C130.819 362.812 130.287 362.616 129.643 362.616C129.223 362.616 128.831 362.714 128.467 362.91C128.112 363.097 127.823 363.377 127.599 363.75C127.384 364.114 127.277 364.576 127.277 365.136V365.5C127.277 366.135 127.389 366.662 127.613 367.082C127.837 367.502 128.131 367.815 128.495 368.02C128.868 368.225 129.255 368.328 129.657 368.328C130.189 368.328 130.627 368.211 130.973 367.978C131.318 367.735 131.565 367.404 131.715 366.984H132.681C132.559 367.395 132.363 367.768 132.093 368.104C131.831 368.44 131.495 368.701 131.085 368.888C130.674 369.075 130.198 369.168 129.657 369.168ZM137.547 369.168C136.865 369.168 136.268 369.009 135.755 368.692C135.251 368.365 134.859 367.922 134.579 367.362C134.299 366.802 134.159 366.167 134.159 365.458C134.159 364.749 134.299 364.119 134.579 363.568C134.859 363.008 135.255 362.569 135.769 362.252C136.282 361.935 136.879 361.776 137.561 361.776C138.158 361.776 138.681 361.907 139.129 362.168C139.586 362.42 139.936 362.779 140.179 363.246V358.92H141.159V369H140.263L140.179 367.726C140.029 367.969 139.833 368.202 139.591 368.426C139.357 368.65 139.068 368.832 138.723 368.972C138.387 369.103 137.995 369.168 137.547 369.168ZM137.631 368.314C138.125 368.314 138.555 368.197 138.919 367.964C139.292 367.731 139.581 367.399 139.787 366.97C140.001 366.541 140.109 366.041 140.109 365.472C140.109 364.903 140.001 364.403 139.787 363.974C139.581 363.545 139.292 363.213 138.919 362.98C138.555 362.747 138.125 362.63 137.631 362.63C137.145 362.63 136.716 362.747 136.343 362.98C135.969 363.213 135.675 363.545 135.461 363.974C135.255 364.394 135.153 364.893 135.153 365.472C135.153 366.051 135.26 366.555 135.475 366.984C135.689 367.404 135.983 367.731 136.357 367.964C136.73 368.197 137.155 368.314 137.631 368.314ZM147.004 372.08V361.944H147.9L147.984 363.218C148.133 362.966 148.329 362.733 148.572 362.518C148.814 362.294 149.104 362.117 149.44 361.986C149.785 361.846 150.177 361.776 150.616 361.776C151.297 361.776 151.89 361.939 152.394 362.266C152.907 362.593 153.304 363.036 153.584 363.596C153.864 364.147 154.004 364.777 154.004 365.486C154.004 366.195 153.859 366.83 153.57 367.39C153.29 367.941 152.898 368.375 152.394 368.692C151.89 369.009 151.292 369.168 150.602 369.168C150.004 369.168 149.477 369.042 149.02 368.79C148.572 368.529 148.226 368.165 147.984 367.698V372.08H147.004ZM150.532 368.314C151.017 368.314 151.442 368.197 151.806 367.964C152.179 367.731 152.473 367.404 152.688 366.984C152.902 366.555 153.01 366.051 153.01 365.472C153.01 364.903 152.902 364.403 152.688 363.974C152.473 363.545 152.179 363.213 151.806 362.98C151.442 362.747 151.017 362.63 150.532 362.63C150.046 362.63 149.612 362.747 149.23 362.98C148.856 363.213 148.562 363.545 148.348 363.974C148.142 364.394 148.04 364.893 148.04 365.472C148.04 366.041 148.142 366.541 148.348 366.97C148.562 367.399 148.856 367.731 149.23 367.964C149.612 368.197 150.046 368.314 150.532 368.314ZM155.685 369V361.944H156.581L156.651 363.302C156.801 362.975 157.001 362.7 157.253 362.476C157.505 362.252 157.809 362.079 158.163 361.958C158.518 361.837 158.919 361.776 159.367 361.776V362.798H158.989C158.691 362.798 158.401 362.84 158.121 362.924C157.841 362.999 157.594 363.129 157.379 363.316C157.165 363.503 156.992 363.755 156.861 364.072C156.731 364.389 156.665 364.786 156.665 365.262V369H155.685ZM163.551 369.168C162.907 369.168 162.324 369.019 161.801 368.72C161.288 368.412 160.882 367.983 160.583 367.432C160.285 366.872 160.135 366.223 160.135 365.486C160.135 364.721 160.285 364.063 160.583 363.512C160.891 362.961 161.307 362.537 161.829 362.238C162.352 361.93 162.935 361.776 163.579 361.776C164.251 361.776 164.844 361.93 165.357 362.238C165.871 362.537 166.277 362.961 166.575 363.512C166.874 364.063 167.023 364.721 167.023 365.486C167.023 366.223 166.869 366.872 166.561 367.432C166.263 367.983 165.852 368.412 165.329 368.72C164.816 369.019 164.223 369.168 163.551 369.168ZM163.565 368.328C164.004 368.328 164.405 368.221 164.769 368.006C165.143 367.791 165.441 367.474 165.665 367.054C165.899 366.625 166.015 366.097 166.015 365.472C166.015 364.837 165.903 364.31 165.679 363.89C165.455 363.47 165.157 363.157 164.783 362.952C164.419 362.737 164.018 362.63 163.579 362.63C163.159 362.63 162.763 362.737 162.389 362.952C162.016 363.167 161.713 363.484 161.479 363.904C161.255 364.315 161.143 364.837 161.143 365.472C161.143 366.097 161.255 366.625 161.479 367.054C161.703 367.474 161.997 367.791 162.361 368.006C162.735 368.221 163.136 368.328 163.565 368.328ZM168.701 372.08V361.944H169.597L169.681 363.218C169.83 362.966 170.026 362.733 170.269 362.518C170.512 362.294 170.801 362.117 171.137 361.986C171.482 361.846 171.874 361.776 172.313 361.776C172.994 361.776 173.587 361.939 174.091 362.266C174.604 362.593 175.001 363.036 175.281 363.596C175.561 364.147 175.701 364.777 175.701 365.486C175.701 366.195 175.556 366.83 175.267 367.39C174.987 367.941 174.595 368.375 174.091 368.692C173.587 369.009 172.99 369.168 172.299 369.168C171.702 369.168 171.174 369.042 170.717 368.79C170.269 368.529 169.924 368.165 169.681 367.698V372.08H168.701ZM172.229 368.314C172.714 368.314 173.139 368.197 173.503 367.964C173.876 367.731 174.17 367.404 174.385 366.984C174.6 366.555 174.707 366.051 174.707 365.472C174.707 364.903 174.6 364.403 174.385 363.974C174.17 363.545 173.876 363.213 173.503 362.98C173.139 362.747 172.714 362.63 172.229 362.63C171.744 362.63 171.31 362.747 170.927 362.98C170.554 363.213 170.26 363.545 170.045 363.974C169.84 364.394 169.737 364.893 169.737 365.472C169.737 366.041 169.84 366.541 170.045 366.97C170.26 367.399 170.554 367.731 170.927 367.964C171.31 368.197 171.744 368.314 172.229 368.314ZM180.407 369.168C179.753 369.168 179.175 369.014 178.671 368.706C178.176 368.398 177.784 367.969 177.495 367.418C177.215 366.858 177.075 366.205 177.075 365.458C177.075 364.711 177.215 364.063 177.495 363.512C177.775 362.961 178.167 362.537 178.671 362.238C179.184 361.93 179.772 361.776 180.435 361.776C181.116 361.776 181.69 361.93 182.157 362.238C182.633 362.546 182.992 362.947 183.235 363.442C183.487 363.937 183.613 364.478 183.613 365.066C183.613 365.159 183.613 365.257 183.613 365.36C183.613 365.453 183.608 365.565 183.599 365.696H177.817V364.87H182.661C182.642 364.151 182.418 363.596 181.989 363.204C181.569 362.812 181.037 362.616 180.393 362.616C179.973 362.616 179.581 362.714 179.217 362.91C178.862 363.097 178.573 363.377 178.349 363.75C178.134 364.114 178.027 364.576 178.027 365.136V365.5C178.027 366.135 178.139 366.662 178.363 367.082C178.587 367.502 178.881 367.815 179.245 368.02C179.618 368.225 180.005 368.328 180.407 368.328C180.939 368.328 181.377 368.211 181.723 367.978C182.068 367.735 182.315 367.404 182.465 366.984H183.431C183.309 367.395 183.113 367.768 182.843 368.104C182.581 368.44 182.245 368.701 181.835 368.888C181.424 369.075 180.948 369.168 180.407 369.168ZM185.217 369V361.944H186.113L186.183 363.302C186.332 362.975 186.533 362.7 186.785 362.476C187.037 362.252 187.34 362.079 187.695 361.958C188.049 361.837 188.451 361.776 188.899 361.776V362.798H188.521C188.222 362.798 187.933 362.84 187.653 362.924C187.373 362.999 187.125 363.129 186.911 363.316C186.696 363.503 186.523 363.755 186.393 364.072C186.262 364.389 186.197 364.786 186.197 365.262V369H185.217ZM192.949 369C192.548 369 192.203 368.939 191.913 368.818C191.624 368.687 191.4 368.477 191.241 368.188C191.092 367.889 191.017 367.483 191.017 366.97V362.784H189.785V361.944H191.017L191.157 360.306H191.997V361.958H194.111V362.784H191.997V366.97C191.997 367.437 192.091 367.754 192.277 367.922C192.464 368.081 192.795 368.16 193.271 368.16H193.999V369H192.949ZM196.363 372.08L198.099 368.216H197.721L194.935 361.944H195.999L198.407 367.544L200.941 361.944H201.949L197.385 372.08H196.363ZM22.074 388.168C21.3927 388.168 20.7953 388.009 20.282 387.692C19.778 387.365 19.386 386.922 19.106 386.362C18.826 385.802 18.686 385.167 18.686 384.458C18.686 383.749 18.826 383.119 19.106 382.568C19.386 382.008 19.7827 381.569 20.296 381.252C20.8093 380.935 21.4067 380.776 22.088 380.776C22.6853 380.776 23.208 380.907 23.656 381.168C24.1133 381.42 24.4633 381.779 24.706 382.246V377.92H25.686V388H24.79L24.706 386.726C24.5567 386.969 24.3607 387.202 24.118 387.426C23.8847 387.65 23.5953 387.832 23.25 387.972C22.914 388.103 22.522 388.168 22.074 388.168ZM22.158 387.314C22.6527 387.314 23.082 387.197 23.446 386.964C23.8193 386.731 24.1087 386.399 24.314 385.97C24.5287 385.541 24.636 385.041 24.636 384.472C24.636 383.903 24.5287 383.403 24.314 382.974C24.1087 382.545 23.8193 382.213 23.446 381.98C23.082 381.747 22.6527 381.63 22.158 381.63C21.6727 381.63 21.2433 381.747 20.87 381.98C20.4967 382.213 20.2027 382.545 19.988 382.974C19.7827 383.394 19.68 383.893 19.68 384.472C19.68 385.051 19.7873 385.555 20.002 385.984C20.2167 386.404 20.5107 386.731 20.884 386.964C21.2573 387.197 21.682 387.314 22.158 387.314ZM29.9296 388.168C29.3603 388.168 28.8843 388.065 28.5016 387.86C28.1283 387.655 27.8483 387.389 27.6616 387.062C27.4843 386.735 27.3956 386.376 27.3956 385.984C27.3956 385.499 27.517 385.088 27.7596 384.752C28.0116 384.416 28.3616 384.164 28.8096 383.996C29.2576 383.828 29.7803 383.744 30.3776 383.744H32.2816C32.2816 383.287 32.2116 382.899 32.0716 382.582C31.9316 382.265 31.7263 382.027 31.4556 381.868C31.185 381.7 30.8443 381.616 30.4336 381.616C29.9576 381.616 29.547 381.737 29.2016 381.98C28.8563 382.223 28.6416 382.577 28.5576 383.044H27.5356C27.5916 382.549 27.7596 382.134 28.0396 381.798C28.329 381.462 28.6836 381.21 29.1036 381.042C29.5236 380.865 29.967 380.776 30.4336 380.776C31.087 380.776 31.619 380.902 32.0296 381.154C32.4403 381.397 32.7483 381.733 32.9536 382.162C33.159 382.591 33.2616 383.086 33.2616 383.646V388H32.3656L32.3096 386.712C32.2256 386.908 32.109 387.095 31.9596 387.272C31.8196 387.449 31.6516 387.603 31.4556 387.734C31.269 387.865 31.0496 387.967 30.7976 388.042C30.5456 388.126 30.2563 388.168 29.9296 388.168ZM30.0416 387.314C30.387 387.314 30.695 387.244 30.9656 387.104C31.2456 386.955 31.4836 386.763 31.6796 386.53C31.8756 386.297 32.025 386.035 32.1276 385.746C32.2303 385.447 32.2816 385.139 32.2816 384.822V384.57H30.4476C29.953 384.57 29.5563 384.631 29.2576 384.752C28.959 384.873 28.7443 385.037 28.6136 385.242C28.483 385.447 28.4176 385.685 28.4176 385.956C28.4176 386.227 28.4783 386.465 28.5996 386.67C28.721 386.866 28.903 387.025 29.1456 387.146C29.3976 387.258 29.6963 387.314 30.0416 387.314ZM37.5684 388C37.1671 388 36.8217 387.939 36.5324 387.818C36.2431 387.687 36.0191 387.477 35.8604 387.188C35.7111 386.889 35.6364 386.483 35.6364 385.97V381.784H34.4044V380.944H35.6364L35.7764 379.306H36.6164V380.958H38.7304V381.784H36.6164V385.97C36.6164 386.437 36.7097 386.754 36.8964 386.922C37.0831 387.081 37.4144 387.16 37.8904 387.16H38.6184V388H37.5684ZM42.5078 388.168C41.9384 388.168 41.4624 388.065 41.0798 387.86C40.7064 387.655 40.4264 387.389 40.2398 387.062C40.0624 386.735 39.9738 386.376 39.9738 385.984C39.9738 385.499 40.0951 385.088 40.3378 384.752C40.5898 384.416 40.9398 384.164 41.3878 383.996C41.8358 383.828 42.3584 383.744 42.9558 383.744H44.8598C44.8598 383.287 44.7898 382.899 44.6498 382.582C44.5098 382.265 44.3044 382.027 44.0338 381.868C43.7631 381.7 43.4224 381.616 43.0118 381.616C42.5358 381.616 42.1251 381.737 41.7798 381.98C41.4344 382.223 41.2198 382.577 41.1358 383.044H40.1138C40.1698 382.549 40.3378 382.134 40.6178 381.798C40.9071 381.462 41.2618 381.21 41.6818 381.042C42.1018 380.865 42.5451 380.776 43.0118 380.776C43.6651 380.776 44.1971 380.902 44.6078 381.154C45.0184 381.397 45.3264 381.733 45.5318 382.162C45.7371 382.591 45.8398 383.086 45.8398 383.646V388H44.9438L44.8878 386.712C44.8038 386.908 44.6871 387.095 44.5378 387.272C44.3978 387.449 44.2298 387.603 44.0338 387.734C43.8471 387.865 43.6278 387.967 43.3758 388.042C43.1238 388.126 42.8344 388.168 42.5078 388.168ZM42.6198 387.314C42.9651 387.314 43.2731 387.244 43.5438 387.104C43.8238 386.955 44.0618 386.763 44.2578 386.53C44.4538 386.297 44.6031 386.035 44.7058 385.746C44.8084 385.447 44.8598 385.139 44.8598 384.822V384.57H43.0258C42.5311 384.57 42.1344 384.631 41.8358 384.752C41.5371 384.873 41.3224 385.037 41.1918 385.242C41.0611 385.447 40.9958 385.685 40.9958 385.956C40.9958 386.227 41.0564 386.465 41.1778 386.67C41.2991 386.866 41.4811 387.025 41.7238 387.146C41.9758 387.258 42.2744 387.314 42.6198 387.314ZM54.1367 388.168C53.5767 388.168 53.0821 388.075 52.6527 387.888C52.2327 387.701 51.8921 387.435 51.6307 387.09C51.3787 386.735 51.2247 386.315 51.1687 385.83H52.1767C52.2327 386.101 52.3401 386.348 52.4987 386.572C52.6667 386.796 52.8907 386.978 53.1707 387.118C53.4507 387.249 53.7821 387.314 54.1647 387.314C54.5194 387.314 54.8087 387.263 55.0327 387.16C55.2661 387.048 55.4387 386.903 55.5507 386.726C55.6721 386.539 55.7327 386.334 55.7327 386.11C55.7327 385.802 55.6581 385.564 55.5087 385.396C55.3687 385.219 55.1634 385.088 54.8927 385.004C54.6221 384.92 54.2954 384.841 53.9127 384.766C53.5954 384.71 53.2921 384.635 53.0027 384.542C52.7134 384.449 52.4521 384.327 52.2187 384.178C51.9947 384.029 51.8174 383.842 51.6867 383.618C51.5561 383.385 51.4907 383.114 51.4907 382.806C51.4907 382.405 51.5887 382.055 51.7847 381.756C51.9901 381.448 52.2794 381.21 52.6527 381.042C53.0261 380.865 53.4647 380.776 53.9687 380.776C54.6874 380.776 55.2754 380.958 55.7327 381.322C56.1901 381.677 56.4561 382.199 56.5307 382.89H55.5507C55.5134 382.507 55.3547 382.204 55.0747 381.98C54.7947 381.756 54.4167 381.644 53.9407 381.644C53.4741 381.644 53.1147 381.742 52.8627 381.938C52.6201 382.125 52.4987 382.381 52.4987 382.708C52.4987 382.913 52.5641 383.091 52.6947 383.24C52.8254 383.389 53.0167 383.52 53.2687 383.632C53.5301 383.735 53.8474 383.823 54.2207 383.898C54.6687 383.982 55.0794 384.094 55.4527 384.234C55.8354 384.365 56.1434 384.57 56.3767 384.85C56.6194 385.121 56.7407 385.508 56.7407 386.012C56.7501 386.432 56.6474 386.805 56.4327 387.132C56.2181 387.459 55.9147 387.715 55.5227 387.902C55.1307 388.079 54.6687 388.168 54.1367 388.168ZM58.9193 391.08L60.6553 387.216H60.2773L57.4913 380.944H58.5553L60.9633 386.544L63.4973 380.944H64.5053L59.9413 391.08H58.9193ZM65.7928 388V380.944H66.6888L66.7448 382.204C66.9688 381.756 67.2908 381.406 67.7108 381.154C68.1402 380.902 68.6162 380.776 69.1388 380.776C69.6802 380.776 70.1515 380.883 70.5528 381.098C70.9542 381.313 71.2668 381.639 71.4908 382.078C71.7148 382.507 71.8268 383.058 71.8268 383.73V388H70.8468V383.842C70.8468 383.095 70.6835 382.54 70.3568 382.176C70.0302 381.812 69.5635 381.63 68.9568 381.63C68.5462 381.63 68.1728 381.733 67.8368 381.938C67.5102 382.134 67.2488 382.423 67.0528 382.806C66.8662 383.189 66.7728 383.66 66.7728 384.22V388H65.7928ZM76.7895 388.168C76.1362 388.168 75.5528 388.014 75.0395 387.706C74.5262 387.398 74.1202 386.969 73.8215 386.418C73.5228 385.858 73.3735 385.214 73.3735 384.486C73.3735 383.73 73.5228 383.081 73.8215 382.54C74.1202 381.989 74.5262 381.56 75.0395 381.252C75.5622 380.935 76.1455 380.776 76.7895 380.776C77.6108 380.776 78.2922 380.991 78.8335 381.42C79.3842 381.84 79.7342 382.4 79.8835 383.1H78.9035C78.8008 382.633 78.5535 382.274 78.1615 382.022C77.7788 381.761 77.3168 381.63 76.7755 381.63C76.3555 381.63 75.9635 381.737 75.5995 381.952C75.2355 382.157 74.9415 382.47 74.7175 382.89C74.4935 383.31 74.3815 383.842 74.3815 384.486C74.3815 384.962 74.4468 385.377 74.5775 385.732C74.7082 386.087 74.8855 386.385 75.1095 386.628C75.3335 386.861 75.5902 387.039 75.8795 387.16C76.1688 387.281 76.4675 387.342 76.7755 387.342C77.1302 387.342 77.4522 387.286 77.7415 387.174C78.0402 387.053 78.2922 386.88 78.4975 386.656C78.7028 386.432 78.8382 386.161 78.9035 385.844H79.8835C79.7435 386.525 79.3982 387.085 78.8475 387.524C78.2968 387.953 77.6108 388.168 76.7895 388.168ZM81.7102 388V380.944H82.6762V388H81.7102ZM82.2002 379.278C82.0042 379.278 81.8362 379.213 81.6962 379.082C81.5562 378.942 81.4862 378.769 81.4862 378.564C81.4862 378.349 81.5515 378.181 81.6822 378.06C81.8222 377.929 81.9902 377.864 82.1862 377.864C82.3822 377.864 82.5502 377.929 82.6902 378.06C82.8302 378.181 82.9002 378.349 82.9002 378.564C82.9002 378.769 82.8302 378.942 82.6902 379.082C82.5595 379.213 82.3962 379.278 82.2002 379.278ZM84.8104 388V380.944H85.7064L85.7624 382.204C85.9864 381.756 86.3084 381.406 86.7284 381.154C87.1577 380.902 87.6337 380.776 88.1564 380.776C88.6977 380.776 89.1691 380.883 89.5704 381.098C89.9717 381.313 90.2844 381.639 90.5084 382.078C90.7324 382.507 90.8444 383.058 90.8444 383.73V388H89.8644V383.842C89.8644 383.095 89.7011 382.54 89.3744 382.176C89.0477 381.812 88.5811 381.63 87.9744 381.63C87.5637 381.63 87.1904 381.733 86.8544 381.938C86.5277 382.134 86.2664 382.423 86.0704 382.806C85.8837 383.189 85.7904 383.66 85.7904 384.22V388H84.8104ZM95.4291 391.248C94.8037 391.248 94.2484 391.164 93.7631 390.996C93.2871 390.828 92.9091 390.576 92.6291 390.24C92.3584 389.904 92.2231 389.489 92.2231 388.994C92.2231 388.798 92.2557 388.583 92.3211 388.35C92.3957 388.126 92.5357 387.897 92.7411 387.664C92.9464 387.431 93.2357 387.221 93.6091 387.034L94.4071 387.384C93.9124 387.617 93.5904 387.869 93.4411 388.14C93.2917 388.42 93.2171 388.672 93.2171 388.896C93.2171 389.232 93.3104 389.512 93.4971 389.736C93.6931 389.96 93.9544 390.128 94.2811 390.24C94.6171 390.361 94.9997 390.422 95.4291 390.422C95.8584 390.422 96.2271 390.357 96.5351 390.226C96.8524 390.105 97.0951 389.927 97.2631 389.694C97.4311 389.47 97.5151 389.209 97.5151 388.91C97.5151 388.565 97.3797 388.271 97.1091 388.028C96.8477 387.795 96.3577 387.659 95.6391 387.622C95.0697 387.585 94.5984 387.538 94.2251 387.482C93.8611 387.417 93.5577 387.342 93.3151 387.258C93.0817 387.165 92.8857 387.067 92.7271 386.964C92.5777 386.861 92.4331 386.749 92.2931 386.628V386.306L93.6371 385.032L94.5331 385.354L93.2171 386.53L93.3011 386.152C93.4037 386.227 93.5017 386.297 93.5951 386.362C93.6977 386.427 93.8284 386.483 93.9871 386.53C94.1551 386.567 94.3837 386.609 94.6731 386.656C94.9717 386.693 95.3731 386.731 95.8771 386.768C96.5211 386.815 97.0344 386.927 97.4171 387.104C97.7997 387.281 98.0797 387.519 98.2571 387.818C98.4344 388.117 98.5231 388.467 98.5231 388.868C98.5231 389.269 98.4111 389.652 98.1871 390.016C97.9724 390.38 97.6364 390.674 97.1791 390.898C96.7311 391.131 96.1477 391.248 95.4291 391.248ZM95.4151 385.76C94.8177 385.76 94.3137 385.648 93.9031 385.424C93.5017 385.2 93.1937 384.901 92.9791 384.528C92.7644 384.145 92.6571 383.725 92.6571 383.268C92.6571 382.801 92.7644 382.381 92.9791 382.008C93.1937 381.635 93.5064 381.336 93.9171 381.112C94.3277 380.888 94.8271 380.776 95.4151 380.776C96.0124 380.776 96.5117 380.888 96.9131 381.112C97.3237 381.336 97.6317 381.635 97.8371 382.008C98.0517 382.381 98.1591 382.801 98.1591 383.268C98.1591 383.725 98.0517 384.145 97.8371 384.528C97.6317 384.901 97.3237 385.2 96.9131 385.424C96.5117 385.648 96.0124 385.76 95.4151 385.76ZM95.4151 384.92C95.9564 384.92 96.3811 384.78 96.6891 384.5C97.0064 384.211 97.1651 383.8 97.1651 383.268C97.1651 382.727 97.0064 382.316 96.6891 382.036C96.3811 381.756 95.9564 381.616 95.4151 381.616C94.8737 381.616 94.4397 381.756 94.1131 382.036C93.7957 382.316 93.6371 382.727 93.6371 383.268C93.6371 383.8 93.7957 384.211 94.1131 384.5C94.4304 384.78 94.8644 384.92 95.4151 384.92ZM96.5631 381.826L96.2131 380.944H99.0691V381.742L96.5631 381.826ZM100.746 388.07C100.54 388.07 100.368 388 100.228 387.86C100.097 387.72 100.032 387.547 100.032 387.342C100.032 387.137 100.097 386.969 100.228 386.838C100.368 386.698 100.54 386.628 100.746 386.628C100.951 386.628 101.119 386.698 101.25 386.838C101.39 386.969 101.46 387.141 101.46 387.356C101.46 387.552 101.39 387.72 101.25 387.86C101.119 388 100.951 388.07 100.746 388.07Z" fill="white"/>
</g>
<defs>
<clipPath id="clip0_2050_8532">
<rect width="224" height="411" rx="10" fill="white"/>
</clipPath>
</defs>
</svg>
