<svg width="224" height="411" viewBox="0 0 224 411" fill="none" xmlns="http://www.w3.org/2000/svg">
<rect width="224" height="411" rx="10" fill="#F4F6FF"/>
<rect y="82" width="224" height="328.8" rx="10" fill="#11111C"/>
<path d="M19.248 279V267.8H20.368V279H19.248ZM22.7454 279V270.936H23.7694L23.8494 272.152C24.0947 271.704 24.436 271.357 24.8734 271.112C25.3107 270.867 25.796 270.744 26.3294 270.744C26.724 270.744 27.092 270.803 27.4334 270.92C27.7747 271.037 28.0734 271.213 28.3294 271.448C28.596 271.683 28.804 271.987 28.9534 272.36C29.22 271.859 29.5934 271.464 30.0734 271.176C30.564 270.888 31.0867 270.744 31.6414 270.744C32.26 270.744 32.7934 270.867 33.2414 271.112C33.7 271.357 34.0574 271.731 34.3134 272.232C34.5694 272.733 34.6974 273.368 34.6974 274.136V279H33.5774V274.264C33.5774 273.411 33.4014 272.776 33.0494 272.36C32.6974 271.933 32.2067 271.72 31.5774 271.72C31.1507 271.72 30.7614 271.837 30.4094 272.072C30.0574 272.296 29.78 272.627 29.5774 273.064C29.3747 273.491 29.2734 274.024 29.2734 274.664V279H28.1534V274.264C28.1534 273.411 27.9774 272.776 27.6254 272.36C27.284 271.933 26.7987 271.72 26.1694 271.72C25.732 271.72 25.3374 271.837 24.9854 272.072C24.644 272.296 24.372 272.632 24.1694 273.08C23.9667 273.517 23.8654 274.061 23.8654 274.712V279H22.7454ZM36.8079 282.52V270.936H37.8319L37.9279 272.392C38.0985 272.104 38.3225 271.837 38.5999 271.592C38.8772 271.336 39.2079 271.133 39.5919 270.984C39.9865 270.824 40.4345 270.744 40.9359 270.744C41.7145 270.744 42.3919 270.931 42.9679 271.304C43.5545 271.677 44.0079 272.184 44.3279 272.824C44.6479 273.453 44.8079 274.173 44.8079 274.984C44.8079 275.795 44.6425 276.52 44.3119 277.16C43.9919 277.789 43.5439 278.285 42.9679 278.648C42.3919 279.011 41.7092 279.192 40.9199 279.192C40.2372 279.192 39.6345 279.048 39.1119 278.76C38.5999 278.461 38.2052 278.045 37.9279 277.512V282.52H36.8079ZM40.8399 278.216C41.3945 278.216 41.8799 278.083 42.2959 277.816C42.7225 277.549 43.0585 277.176 43.3039 276.696C43.5492 276.205 43.6719 275.629 43.6719 274.968C43.6719 274.317 43.5492 273.747 43.3039 273.256C43.0585 272.765 42.7225 272.387 42.2959 272.12C41.8799 271.853 41.3945 271.72 40.8399 271.72C40.2852 271.72 39.7892 271.853 39.3519 272.12C38.9252 272.387 38.5892 272.765 38.3439 273.256C38.1092 273.736 37.9919 274.307 37.9919 274.968C37.9919 275.619 38.1092 276.189 38.3439 276.68C38.5892 277.171 38.9252 277.549 39.3519 277.816C39.7892 278.083 40.2852 278.216 40.8399 278.216ZM46.7298 279V270.936H47.7538L47.8338 272.488C48.0044 272.115 48.2338 271.8 48.5218 271.544C48.8098 271.288 49.1564 271.091 49.5618 270.952C49.9671 270.813 50.4258 270.744 50.9378 270.744V271.912H50.5058C50.1644 271.912 49.8338 271.96 49.5138 272.056C49.1938 272.141 48.9111 272.291 48.6658 272.504C48.4204 272.717 48.2231 273.005 48.0738 273.368C47.9244 273.731 47.8498 274.184 47.8498 274.728V279H46.7298ZM55.7193 279.192C54.9833 279.192 54.3166 279.021 53.7193 278.68C53.1326 278.328 52.6686 277.837 52.3273 277.208C51.9859 276.568 51.8153 275.827 51.8153 274.984C51.8153 274.109 51.9859 273.357 52.3273 272.728C52.6793 272.099 53.1539 271.613 53.7513 271.272C54.3486 270.92 55.0153 270.744 55.7513 270.744C56.5193 270.744 57.1966 270.92 57.7833 271.272C58.3699 271.613 58.8339 272.099 59.1753 272.728C59.5166 273.357 59.6873 274.109 59.6873 274.984C59.6873 275.827 59.5113 276.568 59.1593 277.208C58.8179 277.837 58.3486 278.328 57.7513 278.68C57.1646 279.021 56.4873 279.192 55.7193 279.192ZM55.7352 278.232C56.2366 278.232 56.6953 278.109 57.1113 277.864C57.5379 277.619 57.8793 277.256 58.1353 276.776C58.4019 276.285 58.5353 275.683 58.5353 274.968C58.5353 274.243 58.4073 273.64 58.1513 273.16C57.8953 272.68 57.5539 272.323 57.1273 272.088C56.7113 271.843 56.2526 271.72 55.7513 271.72C55.2713 271.72 54.8179 271.843 54.3913 272.088C53.9646 272.333 53.6179 272.696 53.3513 273.176C53.0953 273.645 52.9673 274.243 52.9673 274.968C52.9673 275.683 53.0953 276.285 53.3513 276.776C53.6073 277.256 53.9433 277.619 54.3593 277.864C54.7859 278.109 55.2446 278.232 55.7352 278.232ZM63.5509 279L60.4789 270.936H61.6469L64.2069 277.912L66.7669 270.936H67.9189L64.8309 279H63.5509ZM72.4983 279.192C71.7516 279.192 71.0903 279.016 70.5143 278.664C69.9489 278.312 69.5009 277.821 69.1703 277.192C68.8503 276.552 68.6903 275.805 68.6903 274.952C68.6903 274.099 68.8503 273.357 69.1703 272.728C69.4903 272.099 69.9383 271.613 70.5143 271.272C71.1009 270.92 71.7729 270.744 72.5303 270.744C73.3089 270.744 73.9649 270.92 74.4983 271.272C75.0423 271.624 75.4529 272.083 75.7303 272.648C76.0183 273.213 76.1623 273.832 76.1623 274.504C76.1623 274.611 76.1623 274.723 76.1623 274.84C76.1623 274.947 76.1569 275.075 76.1463 275.224H69.5383V274.28H75.0743C75.0529 273.459 74.7969 272.824 74.3063 272.376C73.8263 271.928 73.2183 271.704 72.4823 271.704C72.0023 271.704 71.5543 271.816 71.1383 272.04C70.7329 272.253 70.4023 272.573 70.1463 273C69.9009 273.416 69.7783 273.944 69.7783 274.584V275C69.7783 275.725 69.9063 276.328 70.1623 276.808C70.4183 277.288 70.7543 277.645 71.1703 277.88C71.5969 278.115 72.0396 278.232 72.4983 278.232C73.1063 278.232 73.6076 278.099 74.0023 277.832C74.3969 277.555 74.6796 277.176 74.8503 276.696H75.9543C75.8156 277.165 75.5916 277.592 75.2823 277.976C74.9836 278.36 74.5996 278.659 74.1303 278.872C73.6609 279.085 73.1169 279.192 72.4983 279.192ZM84.9776 279.192C84.327 279.192 83.783 279.075 83.3456 278.84C82.919 278.605 82.599 278.301 82.3856 277.928C82.183 277.555 82.0816 277.144 82.0816 276.696C82.0816 276.141 82.2203 275.672 82.4976 275.288C82.7856 274.904 83.1856 274.616 83.6976 274.424C84.2096 274.232 84.807 274.136 85.4896 274.136H87.6656C87.6656 273.613 87.5856 273.171 87.4256 272.808C87.2656 272.445 87.031 272.173 86.7216 271.992C86.4123 271.8 86.023 271.704 85.5536 271.704C85.0096 271.704 84.5403 271.843 84.1456 272.12C83.751 272.397 83.5056 272.803 83.4096 273.336H82.2416C82.3056 272.771 82.4976 272.296 82.8176 271.912C83.1483 271.528 83.5536 271.24 84.0336 271.048C84.5136 270.845 85.0203 270.744 85.5536 270.744C86.3003 270.744 86.9083 270.888 87.3776 271.176C87.847 271.453 88.199 271.837 88.4336 272.328C88.6683 272.819 88.7856 273.384 88.7856 274.024V279H87.7616L87.6976 277.528C87.6016 277.752 87.4683 277.965 87.2976 278.168C87.1376 278.371 86.9456 278.547 86.7216 278.696C86.5083 278.845 86.2576 278.963 85.9696 279.048C85.6816 279.144 85.351 279.192 84.9776 279.192ZM85.1056 278.216C85.5003 278.216 85.8523 278.136 86.1616 277.976C86.4816 277.805 86.7536 277.587 86.9776 277.32C87.2016 277.053 87.3723 276.755 87.4896 276.424C87.607 276.083 87.6656 275.731 87.6656 275.368V275.08H85.5696C85.0043 275.08 84.551 275.149 84.2096 275.288C83.8683 275.427 83.623 275.613 83.4736 275.848C83.3243 276.083 83.2496 276.355 83.2496 276.664C83.2496 276.973 83.319 277.245 83.4576 277.48C83.5963 277.704 83.8043 277.885 84.0816 278.024C84.3696 278.152 84.711 278.216 85.1056 278.216ZM94.4536 279.192C93.707 279.192 93.0403 279.016 92.4536 278.664C91.867 278.312 91.403 277.821 91.0616 277.192C90.7203 276.552 90.5496 275.816 90.5496 274.984C90.5496 274.12 90.7203 273.379 91.0616 272.76C91.403 272.131 91.867 271.64 92.4536 271.288C93.051 270.925 93.7176 270.744 94.4536 270.744C95.3923 270.744 96.171 270.989 96.7896 271.48C97.419 271.96 97.819 272.6 97.9896 273.4H96.8696C96.7523 272.867 96.4696 272.456 96.0216 272.168C95.5843 271.869 95.0563 271.72 94.4376 271.72C93.9576 271.72 93.5096 271.843 93.0936 272.088C92.6776 272.323 92.3416 272.68 92.0856 273.16C91.8296 273.64 91.7016 274.248 91.7016 274.984C91.7016 275.528 91.7763 276.003 91.9256 276.408C92.075 276.813 92.2776 277.155 92.5336 277.432C92.7896 277.699 93.083 277.901 93.4136 278.04C93.7443 278.179 94.0856 278.248 94.4376 278.248C94.843 278.248 95.211 278.184 95.5416 278.056C95.883 277.917 96.171 277.72 96.4056 277.464C96.6403 277.208 96.795 276.899 96.8696 276.536H97.9896C97.8296 277.315 97.435 277.955 96.8056 278.456C96.1763 278.947 95.3923 279.192 94.4536 279.192ZM103.469 279.192C102.723 279.192 102.056 279.016 101.469 278.664C100.883 278.312 100.419 277.821 100.077 277.192C99.7359 276.552 99.5653 275.816 99.5653 274.984C99.5653 274.12 99.7359 273.379 100.077 272.76C100.419 272.131 100.883 271.64 101.469 271.288C102.067 270.925 102.733 270.744 103.469 270.744C104.408 270.744 105.187 270.989 105.805 271.48C106.435 271.96 106.835 272.6 107.005 273.4H105.885C105.768 272.867 105.485 272.456 105.037 272.168C104.6 271.869 104.072 271.72 103.453 271.72C102.973 271.72 102.525 271.843 102.109 272.088C101.693 272.323 101.357 272.68 101.101 273.16C100.845 273.64 100.717 274.248 100.717 274.984C100.717 275.528 100.792 276.003 100.941 276.408C101.091 276.813 101.293 277.155 101.549 277.432C101.805 277.699 102.099 277.901 102.429 278.04C102.76 278.179 103.101 278.248 103.453 278.248C103.859 278.248 104.227 278.184 104.557 278.056C104.899 277.917 105.187 277.72 105.421 277.464C105.656 277.208 105.811 276.899 105.885 276.536H107.005C106.845 277.315 106.451 277.955 105.821 278.456C105.192 278.947 104.408 279.192 103.469 279.192ZM111.845 279.192C111.237 279.192 110.698 279.075 110.229 278.84C109.77 278.595 109.413 278.227 109.157 277.736C108.901 277.235 108.773 276.595 108.773 275.816V270.936H109.893V275.688C109.893 276.541 110.08 277.176 110.453 277.592C110.837 278.008 111.365 278.216 112.037 278.216C112.517 278.216 112.944 278.104 113.317 277.88C113.701 277.656 114 277.325 114.213 276.888C114.437 276.44 114.549 275.896 114.549 275.256V270.936H115.669V279H114.645L114.581 277.56C114.325 278.083 113.952 278.488 113.461 278.776C112.981 279.053 112.442 279.192 111.845 279.192ZM117.949 279V270.936H118.973L119.053 272.488C119.223 272.115 119.453 271.8 119.741 271.544C120.029 271.288 120.375 271.091 120.781 270.952C121.186 270.813 121.645 270.744 122.157 270.744V271.912H121.725C121.383 271.912 121.053 271.96 120.733 272.056C120.413 272.141 120.13 272.291 119.885 272.504C119.639 272.717 119.442 273.005 119.293 273.368C119.143 273.731 119.069 274.184 119.069 274.728V279H117.949ZM126.306 279.192C125.655 279.192 125.111 279.075 124.674 278.84C124.247 278.605 123.927 278.301 123.714 277.928C123.511 277.555 123.41 277.144 123.41 276.696C123.41 276.141 123.548 275.672 123.826 275.288C124.114 274.904 124.514 274.616 125.026 274.424C125.538 274.232 126.135 274.136 126.818 274.136H128.994C128.994 273.613 128.914 273.171 128.754 272.808C128.594 272.445 128.359 272.173 128.05 271.992C127.74 271.8 127.351 271.704 126.882 271.704C126.338 271.704 125.868 271.843 125.474 272.12C125.079 272.397 124.834 272.803 124.738 273.336H123.57C123.634 272.771 123.826 272.296 124.146 271.912C124.476 271.528 124.882 271.24 125.362 271.048C125.842 270.845 126.348 270.744 126.882 270.744C127.628 270.744 128.236 270.888 128.706 271.176C129.175 271.453 129.527 271.837 129.762 272.328C129.996 272.819 130.114 273.384 130.114 274.024V279H129.09L129.026 277.528C128.93 277.752 128.796 277.965 128.626 278.168C128.466 278.371 128.274 278.547 128.05 278.696C127.836 278.845 127.586 278.963 127.298 279.048C127.01 279.144 126.679 279.192 126.306 279.192ZM126.434 278.216C126.828 278.216 127.18 278.136 127.49 277.976C127.81 277.805 128.082 277.587 128.306 277.32C128.53 277.053 128.7 276.755 128.818 276.424C128.935 276.083 128.994 275.731 128.994 275.368V275.08H126.898C126.332 275.08 125.879 275.149 125.538 275.288C125.196 275.427 124.951 275.613 124.802 275.848C124.652 276.083 124.578 276.355 124.578 276.664C124.578 276.973 124.647 277.245 124.786 277.48C124.924 277.704 125.132 277.885 125.41 278.024C125.698 278.152 126.039 278.216 126.434 278.216ZM135.782 279.192C135.035 279.192 134.368 279.016 133.782 278.664C133.195 278.312 132.731 277.821 132.39 277.192C132.048 276.552 131.878 275.816 131.878 274.984C131.878 274.12 132.048 273.379 132.39 272.76C132.731 272.131 133.195 271.64 133.782 271.288C134.379 270.925 135.046 270.744 135.782 270.744C136.72 270.744 137.499 270.989 138.118 271.48C138.747 271.96 139.147 272.6 139.318 273.4H138.198C138.08 272.867 137.798 272.456 137.35 272.168C136.912 271.869 136.384 271.72 135.766 271.72C135.286 271.72 134.838 271.843 134.422 272.088C134.006 272.323 133.67 272.68 133.414 273.16C133.158 273.64 133.03 274.248 133.03 274.984C133.03 275.528 133.104 276.003 133.254 276.408C133.403 276.813 133.606 277.155 133.862 277.432C134.118 277.699 134.411 277.901 134.742 278.04C135.072 278.179 135.414 278.248 135.766 278.248C136.171 278.248 136.539 278.184 136.87 278.056C137.211 277.917 137.499 277.72 137.734 277.464C137.968 277.208 138.123 276.899 138.198 276.536H139.318C139.158 277.315 138.763 277.955 138.134 278.456C137.504 278.947 136.72 279.192 135.782 279.192ZM142.077 282.52L144.061 278.104H143.629L140.445 270.936H141.661L144.413 277.336L147.309 270.936H148.461L143.245 282.52H142.077ZM158.451 279.192C157.982 279.192 157.55 279.123 157.155 278.984C156.771 278.835 156.435 278.637 156.147 278.392C155.859 278.136 155.63 277.848 155.459 277.528L155.363 279H154.339V267.48H155.459V272.392C155.726 271.933 156.11 271.544 156.611 271.224C157.112 270.904 157.726 270.744 158.451 270.744C159.24 270.744 159.928 270.931 160.515 271.304C161.102 271.667 161.55 272.168 161.859 272.808C162.179 273.437 162.339 274.157 162.339 274.968C162.339 275.779 162.179 276.504 161.859 277.144C161.539 277.784 161.086 278.285 160.499 278.648C159.923 279.011 159.24 279.192 158.451 279.192ZM158.371 278.216C158.936 278.216 159.427 278.083 159.843 277.816C160.259 277.549 160.59 277.171 160.835 276.68C161.08 276.189 161.203 275.619 161.203 274.968C161.203 274.307 161.08 273.736 160.835 273.256C160.59 272.765 160.254 272.387 159.827 272.12C159.411 271.853 158.926 271.72 158.371 271.72C157.816 271.72 157.32 271.853 156.883 272.12C156.456 272.387 156.12 272.765 155.875 273.256C155.64 273.747 155.523 274.317 155.523 274.968C155.523 275.629 155.64 276.205 155.875 276.696C156.12 277.176 156.456 277.549 156.883 277.816C157.32 278.083 157.816 278.216 158.371 278.216ZM164.484 282.52L166.468 278.104H166.036L162.852 270.936H164.068L166.82 277.336L169.716 270.936H170.868L165.652 282.52H164.484Z" fill="white"/>
<path d="M27.24 323.36C25.86 323.36 24.61 323.11 23.49 322.61C22.39 322.09 21.51 321.37 20.85 320.45C20.21 319.53 19.89 318.46 19.89 317.24C19.89 316.38 20.05 315.59 20.37 314.87C20.69 314.13 21.14 313.49 21.72 312.95C22.3 312.41 22.98 312.02 23.76 311.78C22.72 311.36 21.9 310.74 21.3 309.92C20.7 309.1 20.4 308.2 20.4 307.22C20.4 306.2 20.67 305.27 21.21 304.43C21.75 303.59 22.53 302.92 23.55 302.42C24.57 301.9 25.8 301.64 27.24 301.64C28.68 301.64 29.91 301.9 30.93 302.42C31.95 302.92 32.72 303.59 33.24 304.43C33.78 305.27 34.05 306.2 34.05 307.22C34.05 308.2 33.75 309.11 33.15 309.95C32.57 310.77 31.76 311.38 30.72 311.78C31.5 312.02 32.18 312.41 32.76 312.95C33.34 313.49 33.79 314.13 34.11 314.87C34.43 315.59 34.59 316.38 34.59 317.24C34.59 318.46 34.26 319.53 33.6 320.45C32.96 321.37 32.08 322.09 30.96 322.61C29.86 323.11 28.62 323.36 27.24 323.36ZM27.24 320.78C28.7 320.78 29.79 320.44 30.51 319.76C31.25 319.06 31.62 318.15 31.62 317.03C31.62 315.77 31.22 314.81 30.42 314.15C29.64 313.49 28.58 313.16 27.24 313.16C25.9 313.16 24.83 313.49 24.03 314.15C23.25 314.81 22.86 315.77 22.86 317.03C22.86 318.15 23.22 319.06 23.94 319.76C24.68 320.44 25.78 320.78 27.24 320.78ZM27.24 310.79C28.42 310.79 29.35 310.48 30.03 309.86C30.73 309.24 31.08 308.45 31.08 307.49C31.08 306.39 30.74 305.56 30.06 305C29.38 304.44 28.44 304.16 27.24 304.16C26.06 304.16 25.13 304.44 24.45 305C23.77 305.56 23.43 306.39 23.43 307.49C23.43 308.45 23.77 309.24 24.45 309.86C25.13 310.48 26.06 310.79 27.24 310.79ZM46.8663 323.36C45.0063 323.36 43.4063 322.91 42.0663 322.01C40.7263 321.09 39.6963 319.82 38.9763 318.2C38.2563 316.56 37.8963 314.66 37.8963 312.5C37.8963 310.34 38.2563 308.45 38.9763 306.83C39.6963 305.19 40.7263 303.92 42.0663 303.02C43.4063 302.1 45.0063 301.64 46.8663 301.64C48.7263 301.64 50.3163 302.1 51.6363 303.02C52.9763 303.92 53.9963 305.19 54.6963 306.83C55.4163 308.45 55.7763 310.34 55.7763 312.5C55.7763 314.66 55.4163 316.56 54.6963 318.2C53.9963 319.82 52.9763 321.09 51.6363 322.01C50.3163 322.91 48.7263 323.36 46.8663 323.36ZM46.8663 320.69C47.9863 320.69 48.9863 320.36 49.8663 319.7C50.7663 319.04 51.4663 318.1 51.9663 316.88C52.4663 315.66 52.7163 314.2 52.7163 312.5C52.7163 310.8 52.4663 309.34 51.9663 308.12C51.4663 306.9 50.7663 305.97 49.8663 305.33C48.9863 304.67 47.9863 304.34 46.8663 304.34C45.7263 304.34 44.7063 304.67 43.8063 305.33C42.9063 305.97 42.2063 306.9 41.7063 308.12C41.2063 309.34 40.9563 310.8 40.9563 312.5C40.9563 314.2 41.2063 315.66 41.7063 316.88C42.2063 318.1 42.9063 319.04 43.8063 319.7C44.7063 320.36 45.7263 320.69 46.8663 320.69ZM61.9392 323L73.9992 302H76.9692L64.9092 323H61.9392ZM75.7392 323.36C74.7992 323.36 73.9592 323.15 73.2192 322.73C72.4792 322.31 71.8892 321.72 71.4492 320.96C71.0092 320.18 70.7892 319.27 70.7892 318.23C70.7892 317.15 71.0092 316.23 71.4492 315.47C71.8892 314.71 72.4792 314.12 73.2192 313.7C73.9592 313.28 74.7892 313.07 75.7092 313.07C76.6692 313.07 77.5092 313.28 78.2292 313.7C78.9692 314.12 79.5492 314.71 79.9692 315.47C80.4092 316.23 80.6292 317.15 80.6292 318.23C80.6292 319.27 80.4092 320.18 79.9692 320.96C79.5492 321.72 78.9692 322.31 78.2292 322.73C77.4892 323.15 76.6592 323.36 75.7392 323.36ZM75.6792 321.14C76.1392 321.14 76.5492 321.03 76.9092 320.81C77.2892 320.59 77.5892 320.27 77.8092 319.85C78.0492 319.41 78.1692 318.86 78.1692 318.2C78.1692 317.54 78.0592 317 77.8392 316.58C77.6192 316.14 77.3192 315.81 76.9392 315.59C76.5792 315.37 76.1692 315.26 75.7092 315.26C75.2892 315.26 74.8892 315.37 74.5092 315.59C74.1292 315.81 73.8192 316.14 73.5792 316.58C73.3592 317 73.2492 317.54 73.2492 318.2C73.2492 318.86 73.3592 319.41 73.5792 319.85C73.8192 320.27 74.1192 320.59 74.4792 320.81C74.8592 321.03 75.2592 321.14 75.6792 321.14ZM63.3792 311.96C62.4592 311.96 61.6292 311.75 60.8892 311.33C60.1492 310.91 59.5492 310.32 59.0892 309.56C58.6492 308.78 58.4292 307.86 58.4292 306.8C58.4292 305.74 58.6492 304.83 59.0892 304.07C59.5492 303.31 60.1492 302.72 60.8892 302.3C61.6492 301.88 62.4892 301.67 63.4092 301.67C64.3292 301.67 65.1592 301.88 65.8992 302.3C66.6392 302.72 67.2192 303.31 67.6392 304.07C68.0792 304.83 68.2992 305.74 68.2992 306.8C68.2992 307.86 68.0792 308.78 67.6392 309.56C67.2192 310.32 66.6292 310.91 65.8692 311.33C65.1292 311.75 64.2992 311.96 63.3792 311.96ZM63.3792 309.74C63.8192 309.74 64.2192 309.63 64.5792 309.41C64.9592 309.19 65.2592 308.87 65.4792 308.45C65.6992 308.01 65.8092 307.46 65.8092 306.8C65.8092 306.14 65.6992 305.59 65.4792 305.15C65.2592 304.71 64.9592 304.38 64.5792 304.16C64.2192 303.94 63.8292 303.83 63.4092 303.83C62.9692 303.83 62.5492 303.94 62.1492 304.16C61.7692 304.38 61.4592 304.71 61.2192 305.15C60.9992 305.59 60.8892 306.14 60.8892 306.8C60.8892 307.44 60.9992 307.98 61.2192 308.42C61.4592 308.86 61.7692 309.19 62.1492 309.41C62.5292 309.63 62.9392 309.74 63.3792 309.74Z" fill="white"/>
<path opacity="0.8" d="M20.45 350L18.378 342.944H19.372L21.052 348.978H20.856L22.676 342.944H23.796L25.616 348.978H25.42L27.1 342.944H28.094L26.022 350H25.028L23.138 343.686H23.334L21.444 350H20.45ZM29.6067 350V342.944H30.5727V350H29.6067ZM30.0967 341.278C29.9007 341.278 29.7327 341.213 29.5927 341.082C29.4527 340.942 29.3827 340.769 29.3827 340.564C29.3827 340.349 29.448 340.181 29.5787 340.06C29.7187 339.929 29.8867 339.864 30.0827 339.864C30.2787 339.864 30.4467 339.929 30.5867 340.06C30.7267 340.181 30.7967 340.349 30.7967 340.564C30.7967 340.769 30.7267 340.942 30.5867 341.082C30.456 341.213 30.2927 341.278 30.0967 341.278ZM35.3809 350C34.9796 350 34.6342 349.939 34.3449 349.818C34.0556 349.687 33.8316 349.477 33.6729 349.188C33.5236 348.889 33.4489 348.483 33.4489 347.97V343.784H32.2169V342.944H33.4489L33.5889 341.306H34.4289V342.958H36.5429V343.784H34.4289V347.97C34.4289 348.437 34.5222 348.754 34.7089 348.922C34.8956 349.081 35.2269 349.16 35.7029 349.16H36.4309V350H35.3809ZM38.0663 350V339.92H39.0463V344.204C39.2889 343.756 39.6249 343.406 40.0543 343.154C40.4836 342.902 40.9549 342.776 41.4683 342.776C42.0003 342.776 42.4623 342.883 42.8543 343.098C43.2556 343.313 43.5636 343.639 43.7783 344.078C44.0023 344.517 44.1143 345.077 44.1143 345.758V350H43.1483V345.87C43.1483 345.114 42.9896 344.554 42.6723 344.19C42.3643 343.817 41.9069 343.63 41.3003 343.63C40.8803 343.63 40.4976 343.733 40.1523 343.938C39.8163 344.143 39.5456 344.442 39.3403 344.834C39.1443 345.217 39.0463 345.693 39.0463 346.262V350H38.0663ZM52.0781 350.168C51.5087 350.168 51.0327 350.065 50.6501 349.86C50.2767 349.655 49.9967 349.389 49.8101 349.062C49.6327 348.735 49.5441 348.376 49.5441 347.984C49.5441 347.499 49.6654 347.088 49.9081 346.752C50.1601 346.416 50.5101 346.164 50.9581 345.996C51.4061 345.828 51.9287 345.744 52.5261 345.744H54.4301C54.4301 345.287 54.3601 344.899 54.2201 344.582C54.0801 344.265 53.8747 344.027 53.6041 343.868C53.3334 343.7 52.9927 343.616 52.5821 343.616C52.1061 343.616 51.6954 343.737 51.3501 343.98C51.0047 344.223 50.7901 344.577 50.7061 345.044H49.6841C49.7401 344.549 49.9081 344.134 50.1881 343.798C50.4774 343.462 50.8321 343.21 51.2521 343.042C51.6721 342.865 52.1154 342.776 52.5821 342.776C53.2354 342.776 53.7674 342.902 54.1781 343.154C54.5887 343.397 54.8967 343.733 55.1021 344.162C55.3074 344.591 55.4101 345.086 55.4101 345.646V350H54.5141L54.4581 348.712C54.3741 348.908 54.2574 349.095 54.1081 349.272C53.9681 349.449 53.8001 349.603 53.6041 349.734C53.4174 349.865 53.1981 349.967 52.9461 350.042C52.6941 350.126 52.4047 350.168 52.0781 350.168ZM52.1901 349.314C52.5354 349.314 52.8434 349.244 53.1141 349.104C53.3941 348.955 53.6321 348.763 53.8281 348.53C54.0241 348.297 54.1734 348.035 54.2761 347.746C54.3787 347.447 54.4301 347.139 54.4301 346.822V346.57H52.5961C52.1014 346.57 51.7047 346.631 51.4061 346.752C51.1074 346.873 50.8927 347.037 50.7621 347.242C50.6314 347.447 50.5661 347.685 50.5661 347.956C50.5661 348.227 50.6267 348.465 50.7481 348.67C50.8694 348.866 51.0514 349.025 51.2941 349.146C51.5461 349.258 51.8447 349.314 52.1901 349.314ZM59.8096 350.168C59.2776 350.168 58.8062 350.065 58.3956 349.86C57.9942 349.645 57.6816 349.323 57.4576 348.894C57.2336 348.455 57.1216 347.895 57.1216 347.214V342.944H58.1016V347.102C58.1016 347.849 58.2649 348.404 58.5916 348.768C58.9276 349.132 59.3896 349.314 59.9776 349.314C60.3976 349.314 60.7709 349.216 61.0976 349.02C61.4336 348.824 61.6949 348.535 61.8816 348.152C62.0776 347.76 62.1756 347.284 62.1756 346.724V342.944H63.1556V350H62.2596L62.2036 348.74C61.9796 349.197 61.6529 349.552 61.2236 349.804C60.8036 350.047 60.3322 350.168 59.8096 350.168ZM67.8243 350C67.4229 350 67.0776 349.939 66.7883 349.818C66.4989 349.687 66.2749 349.477 66.1163 349.188C65.9669 348.889 65.8923 348.483 65.8923 347.97V343.784H64.6603V342.944H65.8923L66.0323 341.306H66.8723V342.958H68.9863V343.784H66.8723V347.97C66.8723 348.437 66.9656 348.754 67.1523 348.922C67.3389 349.081 67.6703 349.16 68.1463 349.16H68.8743V350H67.8243ZM73.4262 350.168C72.7822 350.168 72.1989 350.019 71.6762 349.72C71.1629 349.412 70.7569 348.983 70.4582 348.432C70.1596 347.872 70.0102 347.223 70.0102 346.486C70.0102 345.721 70.1596 345.063 70.4582 344.512C70.7662 343.961 71.1816 343.537 71.7042 343.238C72.2269 342.93 72.8102 342.776 73.4542 342.776C74.1262 342.776 74.7189 342.93 75.2322 343.238C75.7456 343.537 76.1516 343.961 76.4502 344.512C76.7489 345.063 76.8982 345.721 76.8982 346.486C76.8982 347.223 76.7442 347.872 76.4362 348.432C76.1376 348.983 75.7269 349.412 75.2042 349.72C74.6909 350.019 74.0982 350.168 73.4262 350.168ZM73.4402 349.328C73.8789 349.328 74.2802 349.221 74.6442 349.006C75.0176 348.791 75.3162 348.474 75.5402 348.054C75.7736 347.625 75.8902 347.097 75.8902 346.472C75.8902 345.837 75.7782 345.31 75.5542 344.89C75.3302 344.47 75.0316 344.157 74.6582 343.952C74.2942 343.737 73.8929 343.63 73.4542 343.63C73.0342 343.63 72.6376 343.737 72.2642 343.952C71.8909 344.167 71.5876 344.484 71.3542 344.904C71.1302 345.315 71.0182 345.837 71.0182 346.472C71.0182 347.097 71.1302 347.625 71.3542 348.054C71.5782 348.474 71.8722 348.791 72.2362 349.006C72.6096 349.221 73.0109 349.328 73.4402 349.328ZM78.576 350V342.944H79.472L79.542 344.008C79.7567 343.616 80.0554 343.313 80.438 343.098C80.8207 342.883 81.2454 342.776 81.712 342.776C82.0574 342.776 82.3794 342.827 82.678 342.93C82.9767 343.033 83.238 343.187 83.462 343.392C83.6954 343.597 83.8774 343.863 84.008 344.19C84.2414 343.751 84.568 343.406 84.988 343.154C85.4174 342.902 85.8747 342.776 86.36 342.776C86.9014 342.776 87.368 342.883 87.76 343.098C88.1614 343.313 88.474 343.639 88.698 344.078C88.922 344.517 89.034 345.072 89.034 345.744V350H88.054V345.856C88.054 345.109 87.9 344.554 87.592 344.19C87.284 343.817 86.8547 343.63 86.304 343.63C85.9307 343.63 85.59 343.733 85.282 343.938C84.974 344.134 84.7314 344.423 84.554 344.806C84.3767 345.179 84.288 345.646 84.288 346.206V350H83.308V345.856C83.308 345.109 83.154 344.554 82.846 344.19C82.5474 343.817 82.1227 343.63 81.572 343.63C81.1894 343.63 80.844 343.733 80.536 343.938C80.2374 344.134 79.9994 344.428 79.822 344.82C79.6447 345.203 79.556 345.679 79.556 346.248V350H78.576ZM93.1347 350.168C92.5654 350.168 92.0894 350.065 91.7067 349.86C91.3334 349.655 91.0534 349.389 90.8667 349.062C90.6894 348.735 90.6007 348.376 90.6007 347.984C90.6007 347.499 90.7221 347.088 90.9647 346.752C91.2167 346.416 91.5667 346.164 92.0147 345.996C92.4627 345.828 92.9854 345.744 93.5827 345.744H95.4867C95.4867 345.287 95.4167 344.899 95.2767 344.582C95.1367 344.265 94.9314 344.027 94.6607 343.868C94.3901 343.7 94.0494 343.616 93.6387 343.616C93.1627 343.616 92.7521 343.737 92.4067 343.98C92.0614 344.223 91.8467 344.577 91.7627 345.044H90.7407C90.7967 344.549 90.9647 344.134 91.2447 343.798C91.5341 343.462 91.8887 343.21 92.3087 343.042C92.7287 342.865 93.1721 342.776 93.6387 342.776C94.2921 342.776 94.8241 342.902 95.2347 343.154C95.6454 343.397 95.9534 343.733 96.1587 344.162C96.3641 344.591 96.4667 345.086 96.4667 345.646V350H95.5707L95.5147 348.712C95.4307 348.908 95.3141 349.095 95.1647 349.272C95.0247 349.449 94.8567 349.603 94.6607 349.734C94.4741 349.865 94.2547 349.967 94.0027 350.042C93.7507 350.126 93.4614 350.168 93.1347 350.168ZM93.2467 349.314C93.5921 349.314 93.9001 349.244 94.1707 349.104C94.4507 348.955 94.6887 348.763 94.8847 348.53C95.0807 348.297 95.2301 348.035 95.3327 347.746C95.4354 347.447 95.4867 347.139 95.4867 346.822V346.57H93.6527C93.1581 346.57 92.7614 346.631 92.4627 346.752C92.1641 346.873 91.9494 347.037 91.8187 347.242C91.6881 347.447 91.6227 347.685 91.6227 347.956C91.6227 348.227 91.6834 348.465 91.8047 348.67C91.9261 348.866 92.1081 349.025 92.3507 349.146C92.6027 349.258 92.9014 349.314 93.2467 349.314ZM100.773 350C100.372 350 100.027 349.939 99.7375 349.818C99.4481 349.687 99.2241 349.477 99.0655 349.188C98.9161 348.889 98.8415 348.483 98.8415 347.97V343.784H97.6095V342.944H98.8415L98.9815 341.306H99.8215V342.958H101.935V343.784H99.8215V347.97C99.8215 348.437 99.9148 348.754 100.101 348.922C100.288 349.081 100.619 349.16 101.095 349.16H101.823V350H100.773ZM106.291 350.168C105.638 350.168 105.059 350.014 104.555 349.706C104.061 349.398 103.669 348.969 103.379 348.418C103.099 347.858 102.959 347.205 102.959 346.458C102.959 345.711 103.099 345.063 103.379 344.512C103.659 343.961 104.051 343.537 104.555 343.238C105.069 342.93 105.657 342.776 106.319 342.776C107.001 342.776 107.575 342.93 108.041 343.238C108.517 343.546 108.877 343.947 109.119 344.442C109.371 344.937 109.497 345.478 109.497 346.066C109.497 346.159 109.497 346.257 109.497 346.36C109.497 346.453 109.493 346.565 109.483 346.696H103.701V345.87H108.545C108.527 345.151 108.303 344.596 107.873 344.204C107.453 343.812 106.921 343.616 106.277 343.616C105.857 343.616 105.465 343.714 105.101 343.91C104.747 344.097 104.457 344.377 104.233 344.75C104.019 345.114 103.911 345.576 103.911 346.136V346.5C103.911 347.135 104.023 347.662 104.247 348.082C104.471 348.502 104.765 348.815 105.129 349.02C105.503 349.225 105.89 349.328 106.291 349.328C106.823 349.328 107.262 349.211 107.607 348.978C107.953 348.735 108.2 348.404 108.349 347.984H109.315C109.194 348.395 108.998 348.768 108.727 349.104C108.466 349.44 108.13 349.701 107.719 349.888C107.309 350.075 106.833 350.168 106.291 350.168ZM114.181 350.168C113.5 350.168 112.903 350.009 112.389 349.692C111.885 349.365 111.493 348.922 111.213 348.362C110.933 347.802 110.793 347.167 110.793 346.458C110.793 345.749 110.933 345.119 111.213 344.568C111.493 344.008 111.89 343.569 112.403 343.252C112.917 342.935 113.514 342.776 114.195 342.776C114.793 342.776 115.315 342.907 115.763 343.168C116.221 343.42 116.571 343.779 116.813 344.246V339.92H117.793V350H116.897L116.813 348.726C116.664 348.969 116.468 349.202 116.225 349.426C115.992 349.65 115.703 349.832 115.357 349.972C115.021 350.103 114.629 350.168 114.181 350.168ZM114.265 349.314C114.76 349.314 115.189 349.197 115.553 348.964C115.927 348.731 116.216 348.399 116.421 347.97C116.636 347.541 116.743 347.041 116.743 346.472C116.743 345.903 116.636 345.403 116.421 344.974C116.216 344.545 115.927 344.213 115.553 343.98C115.189 343.747 114.76 343.63 114.265 343.63C113.78 343.63 113.351 343.747 112.977 343.98C112.604 344.213 112.31 344.545 112.095 344.974C111.89 345.394 111.787 345.893 111.787 346.472C111.787 347.051 111.895 347.555 112.109 347.984C112.324 348.404 112.618 348.731 112.991 348.964C113.365 349.197 113.789 349.314 114.265 349.314ZM126.747 350.168C126.093 350.168 125.51 350.014 124.997 349.706C124.483 349.398 124.077 348.969 123.779 348.418C123.48 347.858 123.331 347.214 123.331 346.486C123.331 345.73 123.48 345.081 123.779 344.54C124.077 343.989 124.483 343.56 124.997 343.252C125.519 342.935 126.103 342.776 126.747 342.776C127.568 342.776 128.249 342.991 128.791 343.42C129.341 343.84 129.691 344.4 129.841 345.1H128.861C128.758 344.633 128.511 344.274 128.119 344.022C127.736 343.761 127.274 343.63 126.733 343.63C126.313 343.63 125.921 343.737 125.557 343.952C125.193 344.157 124.899 344.47 124.675 344.89C124.451 345.31 124.339 345.842 124.339 346.486C124.339 346.962 124.404 347.377 124.535 347.732C124.665 348.087 124.843 348.385 125.067 348.628C125.291 348.861 125.547 349.039 125.837 349.16C126.126 349.281 126.425 349.342 126.733 349.342C127.087 349.342 127.409 349.286 127.699 349.174C127.997 349.053 128.249 348.88 128.455 348.656C128.66 348.432 128.795 348.161 128.861 347.844H129.841C129.701 348.525 129.355 349.085 128.805 349.524C128.254 349.953 127.568 350.168 126.747 350.168ZM131.527 350V342.944H132.423L132.493 344.302C132.643 343.975 132.843 343.7 133.095 343.476C133.347 343.252 133.651 343.079 134.005 342.958C134.36 342.837 134.761 342.776 135.209 342.776V343.798H134.831C134.533 343.798 134.243 343.84 133.963 343.924C133.683 343.999 133.436 344.129 133.221 344.316C133.007 344.503 132.834 344.755 132.703 345.072C132.573 345.389 132.507 345.786 132.507 346.262V350H131.527ZM139.393 350.168C138.749 350.168 138.166 350.019 137.643 349.72C137.13 349.412 136.724 348.983 136.425 348.432C136.126 347.872 135.977 347.223 135.977 346.486C135.977 345.721 136.126 345.063 136.425 344.512C136.733 343.961 137.148 343.537 137.671 343.238C138.194 342.93 138.777 342.776 139.421 342.776C140.093 342.776 140.686 342.93 141.199 343.238C141.712 343.537 142.118 343.961 142.417 344.512C142.716 345.063 142.865 345.721 142.865 346.486C142.865 347.223 142.711 347.872 142.403 348.432C142.104 348.983 141.694 349.412 141.171 349.72C140.658 350.019 140.065 350.168 139.393 350.168ZM139.407 349.328C139.846 349.328 140.247 349.221 140.611 349.006C140.984 348.791 141.283 348.474 141.507 348.054C141.74 347.625 141.857 347.097 141.857 346.472C141.857 345.837 141.745 345.31 141.521 344.89C141.297 344.47 140.998 344.157 140.625 343.952C140.261 343.737 139.86 343.63 139.421 343.63C139.001 343.63 138.604 343.737 138.231 343.952C137.858 344.167 137.554 344.484 137.321 344.904C137.097 345.315 136.985 345.837 136.985 346.472C136.985 347.097 137.097 347.625 137.321 348.054C137.545 348.474 137.839 348.791 138.203 349.006C138.576 349.221 138.978 349.328 139.407 349.328ZM147.133 350.168C146.573 350.168 146.078 350.075 145.649 349.888C145.229 349.701 144.888 349.435 144.627 349.09C144.375 348.735 144.221 348.315 144.165 347.83H145.173C145.229 348.101 145.336 348.348 145.495 348.572C145.663 348.796 145.887 348.978 146.167 349.118C146.447 349.249 146.778 349.314 147.161 349.314C147.515 349.314 147.805 349.263 148.029 349.16C148.262 349.048 148.435 348.903 148.547 348.726C148.668 348.539 148.729 348.334 148.729 348.11C148.729 347.802 148.654 347.564 148.505 347.396C148.365 347.219 148.159 347.088 147.889 347.004C147.618 346.92 147.291 346.841 146.909 346.766C146.591 346.71 146.288 346.635 145.999 346.542C145.709 346.449 145.448 346.327 145.215 346.178C144.991 346.029 144.813 345.842 144.683 345.618C144.552 345.385 144.487 345.114 144.487 344.806C144.487 344.405 144.585 344.055 144.781 343.756C144.986 343.448 145.275 343.21 145.649 343.042C146.022 342.865 146.461 342.776 146.965 342.776C147.683 342.776 148.271 342.958 148.729 343.322C149.186 343.677 149.452 344.199 149.527 344.89H148.547C148.509 344.507 148.351 344.204 148.071 343.98C147.791 343.756 147.413 343.644 146.937 343.644C146.47 343.644 146.111 343.742 145.859 343.938C145.616 344.125 145.495 344.381 145.495 344.708C145.495 344.913 145.56 345.091 145.691 345.24C145.821 345.389 146.013 345.52 146.265 345.632C146.526 345.735 146.843 345.823 147.217 345.898C147.665 345.982 148.075 346.094 148.449 346.234C148.831 346.365 149.139 346.57 149.373 346.85C149.615 347.121 149.737 347.508 149.737 348.012C149.746 348.432 149.643 348.805 149.429 349.132C149.214 349.459 148.911 349.715 148.519 349.902C148.127 350.079 147.665 350.168 147.133 350.168ZM154.064 350.168C153.504 350.168 153.01 350.075 152.58 349.888C152.16 349.701 151.82 349.435 151.558 349.09C151.306 348.735 151.152 348.315 151.096 347.83H152.104C152.16 348.101 152.268 348.348 152.426 348.572C152.594 348.796 152.818 348.978 153.098 349.118C153.378 349.249 153.71 349.314 154.092 349.314C154.447 349.314 154.736 349.263 154.96 349.16C155.194 349.048 155.366 348.903 155.478 348.726C155.6 348.539 155.66 348.334 155.66 348.11C155.66 347.802 155.586 347.564 155.436 347.396C155.296 347.219 155.091 347.088 154.82 347.004C154.55 346.92 154.223 346.841 153.84 346.766C153.523 346.71 153.22 346.635 152.93 346.542C152.641 346.449 152.38 346.327 152.146 346.178C151.922 346.029 151.745 345.842 151.614 345.618C151.484 345.385 151.418 345.114 151.418 344.806C151.418 344.405 151.516 344.055 151.712 343.756C151.918 343.448 152.207 343.21 152.58 343.042C152.954 342.865 153.392 342.776 153.896 342.776C154.615 342.776 155.203 342.958 155.66 343.322C156.118 343.677 156.384 344.199 156.458 344.89H155.478C155.441 344.507 155.282 344.204 155.002 343.98C154.722 343.756 154.344 343.644 153.868 343.644C153.402 343.644 153.042 343.742 152.79 343.938C152.548 344.125 152.426 344.381 152.426 344.708C152.426 344.913 152.492 345.091 152.622 345.24C152.753 345.389 152.944 345.52 153.196 345.632C153.458 345.735 153.775 345.823 154.148 345.898C154.596 345.982 155.007 346.094 155.38 346.234C155.763 346.365 156.071 346.57 156.304 346.85C156.547 347.121 156.668 347.508 156.668 348.012C156.678 348.432 156.575 348.805 156.36 349.132C156.146 349.459 155.842 349.715 155.45 349.902C155.058 350.079 154.596 350.168 154.064 350.168ZM158.112 346.304V345.464H163.558V346.304H158.112ZM18.994 372.08V361.944H19.89L19.974 363.218C20.1233 362.966 20.3193 362.733 20.562 362.518C20.8047 362.294 21.094 362.117 21.43 361.986C21.7753 361.846 22.1673 361.776 22.606 361.776C23.2873 361.776 23.88 361.939 24.384 362.266C24.8973 362.593 25.294 363.036 25.574 363.596C25.854 364.147 25.994 364.777 25.994 365.486C25.994 366.195 25.8493 366.83 25.56 367.39C25.28 367.941 24.888 368.375 24.384 368.692C23.88 369.009 23.2827 369.168 22.592 369.168C21.9947 369.168 21.4673 369.042 21.01 368.79C20.562 368.529 20.2167 368.165 19.974 367.698V372.08H18.994ZM22.522 368.314C23.0073 368.314 23.432 368.197 23.796 367.964C24.1693 367.731 24.4633 367.404 24.678 366.984C24.8927 366.555 25 366.051 25 365.472C25 364.903 24.8927 364.403 24.678 363.974C24.4633 363.545 24.1693 363.213 23.796 362.98C23.432 362.747 23.0073 362.63 22.522 362.63C22.0367 362.63 21.6027 362.747 21.22 362.98C20.8467 363.213 20.5527 363.545 20.338 363.974C20.1327 364.394 20.03 364.893 20.03 365.472C20.03 366.041 20.1327 366.541 20.338 366.97C20.5527 367.399 20.8467 367.731 21.22 367.964C21.6027 368.197 22.0367 368.314 22.522 368.314ZM27.6756 369V358.92H28.6556V369H27.6756ZM32.8964 369.168C32.3271 369.168 31.8511 369.065 31.4684 368.86C31.0951 368.655 30.8151 368.389 30.6284 368.062C30.4511 367.735 30.3624 367.376 30.3624 366.984C30.3624 366.499 30.4838 366.088 30.7264 365.752C30.9784 365.416 31.3284 365.164 31.7764 364.996C32.2244 364.828 32.7471 364.744 33.3444 364.744H35.2484C35.2484 364.287 35.1784 363.899 35.0384 363.582C34.8984 363.265 34.6931 363.027 34.4224 362.868C34.1518 362.7 33.8111 362.616 33.4004 362.616C32.9244 362.616 32.5138 362.737 32.1684 362.98C31.8231 363.223 31.6084 363.577 31.5244 364.044H30.5024C30.5584 363.549 30.7264 363.134 31.0064 362.798C31.2958 362.462 31.6504 362.21 32.0704 362.042C32.4904 361.865 32.9338 361.776 33.4004 361.776C34.0538 361.776 34.5858 361.902 34.9964 362.154C35.4071 362.397 35.7151 362.733 35.9204 363.162C36.1258 363.591 36.2284 364.086 36.2284 364.646V369H35.3324L35.2764 367.712C35.1924 367.908 35.0758 368.095 34.9264 368.272C34.7864 368.449 34.6184 368.603 34.4224 368.734C34.2358 368.865 34.0164 368.967 33.7644 369.042C33.5124 369.126 33.2231 369.168 32.8964 369.168ZM33.0084 368.314C33.3538 368.314 33.6618 368.244 33.9324 368.104C34.2124 367.955 34.4504 367.763 34.6464 367.53C34.8424 367.297 34.9918 367.035 35.0944 366.746C35.1971 366.447 35.2484 366.139 35.2484 365.822V365.57H33.4144C32.9198 365.57 32.5231 365.631 32.2244 365.752C31.9258 365.873 31.7111 366.037 31.5804 366.242C31.4498 366.447 31.3844 366.685 31.3844 366.956C31.3844 367.227 31.4451 367.465 31.5664 367.67C31.6878 367.866 31.8698 368.025 32.1124 368.146C32.3644 368.258 32.6631 368.314 33.0084 368.314ZM40.5352 369C40.1339 369 39.7885 368.939 39.4992 368.818C39.2099 368.687 38.9859 368.477 38.8272 368.188C38.6779 367.889 38.6032 367.483 38.6032 366.97V362.784H37.3712V361.944H38.6032L38.7432 360.306H39.5832V361.958H41.6972V362.784H39.5832V366.97C39.5832 367.437 39.6765 367.754 39.8632 367.922C40.0499 368.081 40.3812 368.16 40.8572 368.16H41.5852V369H40.5352ZM43.6406 369V360.726C43.6406 360.315 43.7059 359.979 43.8366 359.718C43.9766 359.447 44.1819 359.247 44.4526 359.116C44.7232 358.985 45.0639 358.92 45.4746 358.92H46.2726V359.76H45.6426C45.2692 359.76 45.0032 359.835 44.8446 359.984C44.6952 360.133 44.6206 360.395 44.6206 360.768V369H43.6406ZM42.5486 362.784V361.944H46.4546V362.784H42.5486ZM50.7172 369.168C50.0732 369.168 49.4899 369.019 48.9672 368.72C48.4539 368.412 48.0479 367.983 47.7492 367.432C47.4506 366.872 47.3012 366.223 47.3012 365.486C47.3012 364.721 47.4506 364.063 47.7492 363.512C48.0572 362.961 48.4726 362.537 48.9952 362.238C49.5179 361.93 50.1012 361.776 50.7452 361.776C51.4172 361.776 52.0099 361.93 52.5232 362.238C53.0366 362.537 53.4426 362.961 53.7412 363.512C54.0399 364.063 54.1892 364.721 54.1892 365.486C54.1892 366.223 54.0352 366.872 53.7272 367.432C53.4286 367.983 53.0179 368.412 52.4952 368.72C51.9819 369.019 51.3892 369.168 50.7172 369.168ZM50.7312 368.328C51.1699 368.328 51.5712 368.221 51.9352 368.006C52.3086 367.791 52.6072 367.474 52.8312 367.054C53.0646 366.625 53.1812 366.097 53.1812 365.472C53.1812 364.837 53.0692 364.31 52.8452 363.89C52.6212 363.47 52.3226 363.157 51.9492 362.952C51.5852 362.737 51.1839 362.63 50.7452 362.63C50.3252 362.63 49.9286 362.737 49.5552 362.952C49.1819 363.167 48.8786 363.484 48.6452 363.904C48.4212 364.315 48.3092 364.837 48.3092 365.472C48.3092 366.097 48.4212 366.625 48.6452 367.054C48.8692 367.474 49.1632 367.791 49.5272 368.006C49.9006 368.221 50.3019 368.328 50.7312 368.328ZM55.867 369V361.944H56.763L56.833 363.302C56.9824 362.975 57.183 362.7 57.435 362.476C57.687 362.252 57.9904 362.079 58.345 361.958C58.6997 361.837 59.101 361.776 59.549 361.776V362.798H59.171C58.8724 362.798 58.583 362.84 58.303 362.924C58.023 362.999 57.7757 363.129 57.561 363.316C57.3464 363.503 57.1737 363.755 57.043 364.072C56.9124 364.389 56.847 364.786 56.847 365.262V369H55.867ZM60.9256 369V361.944H61.8216L61.8916 363.008C62.1063 362.616 62.405 362.313 62.7876 362.098C63.1703 361.883 63.595 361.776 64.0616 361.776C64.407 361.776 64.729 361.827 65.0276 361.93C65.3263 362.033 65.5876 362.187 65.8116 362.392C66.045 362.597 66.227 362.863 66.3576 363.19C66.591 362.751 66.9176 362.406 67.3376 362.154C67.767 361.902 68.2243 361.776 68.7096 361.776C69.251 361.776 69.7176 361.883 70.1096 362.098C70.511 362.313 70.8236 362.639 71.0476 363.078C71.2716 363.517 71.3836 364.072 71.3836 364.744V369H70.4036V364.856C70.4036 364.109 70.2496 363.554 69.9416 363.19C69.6336 362.817 69.2043 362.63 68.6536 362.63C68.2803 362.63 67.9396 362.733 67.6316 362.938C67.3236 363.134 67.081 363.423 66.9036 363.806C66.7263 364.179 66.6376 364.646 66.6376 365.206V369H65.6576V364.856C65.6576 364.109 65.5036 363.554 65.1956 363.19C64.897 362.817 64.4723 362.63 63.9216 362.63C63.539 362.63 63.1936 362.733 62.8856 362.938C62.587 363.134 62.349 363.428 62.1716 363.82C61.9943 364.203 61.9056 364.679 61.9056 365.248V369H60.9256ZM79.6758 369.168C79.1158 369.168 78.6211 369.075 78.1918 368.888C77.7718 368.701 77.4311 368.435 77.1698 368.09C76.9178 367.735 76.7638 367.315 76.7078 366.83H77.7158C77.7718 367.101 77.8791 367.348 78.0378 367.572C78.2058 367.796 78.4298 367.978 78.7098 368.118C78.9898 368.249 79.3211 368.314 79.7038 368.314C80.0585 368.314 80.3478 368.263 80.5718 368.16C80.8051 368.048 80.9778 367.903 81.0898 367.726C81.2111 367.539 81.2718 367.334 81.2718 367.11C81.2718 366.802 81.1971 366.564 81.0478 366.396C80.9078 366.219 80.7025 366.088 80.4318 366.004C80.1611 365.92 79.8345 365.841 79.4518 365.766C79.1345 365.71 78.8311 365.635 78.5418 365.542C78.2525 365.449 77.9911 365.327 77.7578 365.178C77.5338 365.029 77.3565 364.842 77.2258 364.618C77.0951 364.385 77.0298 364.114 77.0298 363.806C77.0298 363.405 77.1278 363.055 77.3238 362.756C77.5291 362.448 77.8185 362.21 78.1918 362.042C78.5651 361.865 79.0038 361.776 79.5078 361.776C80.2265 361.776 80.8145 361.958 81.2718 362.322C81.7291 362.677 81.9951 363.199 82.0698 363.89H81.0898C81.0525 363.507 80.8938 363.204 80.6138 362.98C80.3338 362.756 79.9558 362.644 79.4798 362.644C79.0131 362.644 78.6538 362.742 78.4018 362.938C78.1591 363.125 78.0378 363.381 78.0378 363.708C78.0378 363.913 78.1031 364.091 78.2338 364.24C78.3645 364.389 78.5558 364.52 78.8078 364.632C79.0691 364.735 79.3865 364.823 79.7598 364.898C80.2078 364.982 80.6185 365.094 80.9918 365.234C81.3745 365.365 81.6825 365.57 81.9158 365.85C82.1585 366.121 82.2798 366.508 82.2798 367.012C82.2891 367.432 82.1865 367.805 81.9718 368.132C81.7571 368.459 81.4538 368.715 81.0618 368.902C80.6698 369.079 80.2078 369.168 79.6758 369.168ZM84.4583 372.08L86.1943 368.216H85.8163L83.0303 361.944H84.0943L86.5023 367.544L89.0363 361.944H90.0443L85.4803 372.08H84.4583ZM91.3319 369V361.944H92.2279L92.2839 363.204C92.5079 362.756 92.8299 362.406 93.2499 362.154C93.6792 361.902 94.1552 361.776 94.6779 361.776C95.2192 361.776 95.6906 361.883 96.0919 362.098C96.4932 362.313 96.8059 362.639 97.0299 363.078C97.2539 363.507 97.3659 364.058 97.3659 364.73V369H96.3859V364.842C96.3859 364.095 96.2226 363.54 95.8959 363.176C95.5692 362.812 95.1026 362.63 94.4959 362.63C94.0852 362.63 93.7119 362.733 93.3759 362.938C93.0492 363.134 92.7879 363.423 92.5919 363.806C92.4052 364.189 92.3119 364.66 92.3119 365.22V369H91.3319ZM102.329 369.168C101.675 369.168 101.092 369.014 100.579 368.706C100.065 368.398 99.6592 367.969 99.3606 367.418C99.0619 366.858 98.9126 366.214 98.9126 365.486C98.9126 364.73 99.0619 364.081 99.3606 363.54C99.6592 362.989 100.065 362.56 100.579 362.252C101.101 361.935 101.685 361.776 102.329 361.776C103.15 361.776 103.831 361.991 104.373 362.42C104.923 362.84 105.273 363.4 105.423 364.1H104.443C104.34 363.633 104.093 363.274 103.701 363.022C103.318 362.761 102.856 362.63 102.315 362.63C101.895 362.63 101.503 362.737 101.139 362.952C100.775 363.157 100.481 363.47 100.257 363.89C100.033 364.31 99.9206 364.842 99.9206 365.486C99.9206 365.962 99.9859 366.377 100.117 366.732C100.247 367.087 100.425 367.385 100.649 367.628C100.873 367.861 101.129 368.039 101.419 368.16C101.708 368.281 102.007 368.342 102.315 368.342C102.669 368.342 102.991 368.286 103.281 368.174C103.579 368.053 103.831 367.88 104.037 367.656C104.242 367.432 104.377 367.161 104.443 366.844H105.423C105.283 367.525 104.937 368.085 104.387 368.524C103.836 368.953 103.15 369.168 102.329 369.168ZM107.109 369V358.92H108.089V363.204C108.332 362.756 108.668 362.406 109.097 362.154C109.527 361.902 109.998 361.776 110.511 361.776C111.043 361.776 111.505 361.883 111.897 362.098C112.299 362.313 112.607 362.639 112.821 363.078C113.045 363.517 113.157 364.077 113.157 364.758V369H112.191V364.87C112.191 364.114 112.033 363.554 111.715 363.19C111.407 362.817 110.95 362.63 110.343 362.63C109.923 362.63 109.541 362.733 109.195 362.938C108.859 363.143 108.589 363.442 108.383 363.834C108.187 364.217 108.089 364.693 108.089 365.262V369H107.109ZM115.012 369V361.944H115.908L115.978 363.302C116.127 362.975 116.328 362.7 116.58 362.476C116.832 362.252 117.135 362.079 117.49 361.958C117.844 361.837 118.246 361.776 118.694 361.776V362.798H118.316C118.017 362.798 117.728 362.84 117.448 362.924C117.168 362.999 116.92 363.129 116.706 363.316C116.491 363.503 116.318 363.755 116.188 364.072C116.057 364.389 115.992 364.786 115.992 365.262V369H115.012ZM122.877 369.168C122.233 369.168 121.65 369.019 121.127 368.72C120.614 368.412 120.208 367.983 119.909 367.432C119.611 366.872 119.461 366.223 119.461 365.486C119.461 364.721 119.611 364.063 119.909 363.512C120.217 362.961 120.633 362.537 121.155 362.238C121.678 361.93 122.261 361.776 122.905 361.776C123.577 361.776 124.17 361.93 124.683 362.238C125.197 362.537 125.603 362.961 125.901 363.512C126.2 364.063 126.349 364.721 126.349 365.486C126.349 366.223 126.195 366.872 125.887 367.432C125.589 367.983 125.178 368.412 124.655 368.72C124.142 369.019 123.549 369.168 122.877 369.168ZM122.891 368.328C123.33 368.328 123.731 368.221 124.095 368.006C124.469 367.791 124.767 367.474 124.991 367.054C125.225 366.625 125.341 366.097 125.341 365.472C125.341 364.837 125.229 364.31 125.005 363.89C124.781 363.47 124.483 363.157 124.109 362.952C123.745 362.737 123.344 362.63 122.905 362.63C122.485 362.63 122.089 362.737 121.715 362.952C121.342 363.167 121.039 363.484 120.805 363.904C120.581 364.315 120.469 364.837 120.469 365.472C120.469 366.097 120.581 366.625 120.805 367.054C121.029 367.474 121.323 367.791 121.687 368.006C122.061 368.221 122.462 368.328 122.891 368.328ZM128.027 369V361.944H128.923L128.979 363.204C129.203 362.756 129.525 362.406 129.945 362.154C130.375 361.902 130.851 361.776 131.373 361.776C131.915 361.776 132.386 361.883 132.787 362.098C133.189 362.313 133.501 362.639 133.725 363.078C133.949 363.507 134.061 364.058 134.061 364.73V369H133.081V364.842C133.081 364.095 132.918 363.54 132.591 363.176C132.265 362.812 131.798 362.63 131.191 362.63C130.781 362.63 130.407 362.733 130.071 362.938C129.745 363.134 129.483 363.423 129.287 363.806C129.101 364.189 129.007 364.66 129.007 365.22V369H128.027ZM136.056 369V361.944H137.022V369H136.056ZM136.546 360.278C136.35 360.278 136.182 360.213 136.042 360.082C135.902 359.942 135.832 359.769 135.832 359.564C135.832 359.349 135.897 359.181 136.028 359.06C136.168 358.929 136.336 358.864 136.532 358.864C136.728 358.864 136.896 358.929 137.036 359.06C137.176 359.181 137.246 359.349 137.246 359.564C137.246 359.769 137.176 359.942 137.036 360.082C136.905 360.213 136.742 360.278 136.546 360.278ZM138.68 369V368.188L142.698 362.77H138.75V361.944H143.804V362.756L139.786 368.188H143.874V369H138.68ZM147.727 369.168C147.157 369.168 146.681 369.065 146.299 368.86C145.925 368.655 145.645 368.389 145.459 368.062C145.281 367.735 145.193 367.376 145.193 366.984C145.193 366.499 145.314 366.088 145.557 365.752C145.809 365.416 146.159 365.164 146.607 364.996C147.055 364.828 147.577 364.744 148.175 364.744H150.079C150.079 364.287 150.009 363.899 149.869 363.582C149.729 363.265 149.523 363.027 149.253 362.868C148.982 362.7 148.641 362.616 148.231 362.616C147.755 362.616 147.344 362.737 146.999 362.98C146.653 363.223 146.439 363.577 146.355 364.044H145.333C145.389 363.549 145.557 363.134 145.837 362.798C146.126 362.462 146.481 362.21 146.901 362.042C147.321 361.865 147.764 361.776 148.231 361.776C148.884 361.776 149.416 361.902 149.827 362.154C150.237 362.397 150.545 362.733 150.751 363.162C150.956 363.591 151.059 364.086 151.059 364.646V369H150.163L150.107 367.712C150.023 367.908 149.906 368.095 149.757 368.272C149.617 368.449 149.449 368.603 149.253 368.734C149.066 368.865 148.847 368.967 148.595 369.042C148.343 369.126 148.053 369.168 147.727 369.168ZM147.839 368.314C148.184 368.314 148.492 368.244 148.763 368.104C149.043 367.955 149.281 367.763 149.477 367.53C149.673 367.297 149.822 367.035 149.925 366.746C150.027 366.447 150.079 366.139 150.079 365.822V365.57H148.245C147.75 365.57 147.353 365.631 147.055 365.752C146.756 365.873 146.541 366.037 146.411 366.242C146.28 366.447 146.215 366.685 146.215 366.956C146.215 367.227 146.275 367.465 146.397 367.67C146.518 367.866 146.7 368.025 146.943 368.146C147.195 368.258 147.493 368.314 147.839 368.314ZM155.365 369C154.964 369 154.619 368.939 154.329 368.818C154.04 368.687 153.816 368.477 153.657 368.188C153.508 367.889 153.433 367.483 153.433 366.97V362.784H152.201V361.944H153.433L153.573 360.306H154.413V361.958H156.527V362.784H154.413V366.97C154.413 367.437 154.507 367.754 154.693 367.922C154.88 368.081 155.211 368.16 155.687 368.16H156.415V369H155.365ZM158.191 369V361.944H159.157V369H158.191ZM158.681 360.278C158.485 360.278 158.317 360.213 158.177 360.082C158.037 359.942 157.967 359.769 157.967 359.564C157.967 359.349 158.032 359.181 158.163 359.06C158.303 358.929 158.471 358.864 158.667 358.864C158.863 358.864 159.031 358.929 159.171 359.06C159.311 359.181 159.381 359.349 159.381 359.564C159.381 359.769 159.311 359.942 159.171 360.082C159.04 360.213 158.877 360.278 158.681 360.278ZM164.399 369.168C163.755 369.168 163.172 369.019 162.649 368.72C162.136 368.412 161.73 367.983 161.431 367.432C161.132 366.872 160.983 366.223 160.983 365.486C160.983 364.721 161.132 364.063 161.431 363.512C161.739 362.961 162.154 362.537 162.677 362.238C163.2 361.93 163.783 361.776 164.427 361.776C165.099 361.776 165.692 361.93 166.205 362.238C166.718 362.537 167.124 362.961 167.423 363.512C167.722 364.063 167.871 364.721 167.871 365.486C167.871 366.223 167.717 366.872 167.409 367.432C167.11 367.983 166.7 368.412 166.177 368.72C165.664 369.019 165.071 369.168 164.399 369.168ZM164.413 368.328C164.852 368.328 165.253 368.221 165.617 368.006C165.99 367.791 166.289 367.474 166.513 367.054C166.746 366.625 166.863 366.097 166.863 365.472C166.863 364.837 166.751 364.31 166.527 363.89C166.303 363.47 166.004 363.157 165.631 362.952C165.267 362.737 164.866 362.63 164.427 362.63C164.007 362.63 163.61 362.737 163.237 362.952C162.864 363.167 162.56 363.484 162.327 363.904C162.103 364.315 161.991 364.837 161.991 365.472C161.991 366.097 162.103 366.625 162.327 367.054C162.551 367.474 162.845 367.791 163.209 368.006C163.582 368.221 163.984 368.328 164.413 368.328ZM169.549 369V361.944H170.445L170.501 363.204C170.725 362.756 171.047 362.406 171.467 362.154C171.896 361.902 172.372 361.776 172.895 361.776C173.436 361.776 173.907 361.883 174.309 362.098C174.71 362.313 175.023 362.639 175.247 363.078C175.471 363.507 175.583 364.058 175.583 364.73V369H174.603V364.842C174.603 364.095 174.439 363.54 174.113 363.176C173.786 362.812 173.319 362.63 172.713 362.63C172.302 362.63 171.929 362.733 171.593 362.938C171.266 363.134 171.005 363.423 170.809 363.806C170.622 364.189 170.529 364.66 170.529 365.22V369H169.549ZM177.759 369.07C177.554 369.07 177.381 369 177.241 368.86C177.111 368.72 177.045 368.547 177.045 368.342C177.045 368.137 177.111 367.969 177.241 367.838C177.381 367.698 177.554 367.628 177.759 367.628C177.965 367.628 178.133 367.698 178.263 367.838C178.403 367.969 178.473 368.141 178.473 368.356C178.473 368.552 178.403 368.72 178.263 368.86C178.133 369 177.965 369.07 177.759 369.07Z" fill="white"/>
</svg>
